<?xml version="1.0" standalone="no"?>
<!DOCTYPE svg PUBLIC "-//W3C//DTD SVG 1.1//EN" "http://www.w3.org/Graphics/SVG/1.1/DTD/svg11.dtd" >
<svg xmlns="http://www.w3.org/2000/svg" width="100%" height="100%">
<metadata>
Created by FontXChange 20110222 at Fri Sep 28 14:41:12 2012
 By Anders Johansson
(c)2010 Paul Barnes and Commercial Type.
</metadata>
<defs>
<font id="DalaFloda-Black" horiz-adv-x="589" >
  <font-face 
    font-family="Dala Floda Black"
    font-weight="900"
    font-stretch="normal"
    units-per-em="1000"
    panose-1="2 2 10 3 9 3 8 2 3 3"
    ascent="747"
    descent="-253"
    x-height="468"
    cap-height="630"
    bbox="-184 -308 1523 1010"
    underline-thickness="50"
    underline-position="-50"
    stemh="8"
    stemv="196"
    unicode-range="U+0020-FB06"
  />
<missing-glyph horiz-adv-x="360" 
 />
    <glyph glyph-name="f_b" unicode="fb" horiz-adv-x="919" 
d="M353 138v261h-98v-326c0 -51 16 -61 44 -67v-6h-284v6c28 7 44 16 44 67v326h-68v8l69 68v21c0 123 116 199 263 207v-6c-36 -6 -68 -40 -68 -121v-108h98v88c-10 12 -14 28 -14 47c0 35 25 59 48 72c-5 11 -28 21 -45 23v6c32 -1 84 -4 128 -18l79 21l3 -3
c-1 -41 -3 -98 -3 -138l1 -432c0 -21 2 -54 10 -80c7 -26 21 -48 42 -54v-8c-123 5 -154 57 -167 68h-2l-86 -50l-5 3c9 25 11 84 11 125zM622 -8v8c39 13 66 77 66 193c0 149 -29 224 -93 224c-8 0 -18 -2 -25 -5v3c18 24 68 66 139 66c124 0 189 -67 189 -219
c0 -126 -75 -252 -276 -270z" />
    <glyph glyph-name="f_f" unicode="ff" horiz-adv-x="649" 
d="M255 399v-338c0 -39 15 -51 37 -55v-6h-277v6c28 7 44 16 44 67v326h-68v8l69 68v23c0 118 109 179 258 194v-6c-36 -6 -63 -33 -63 -97v-121h98v35c0 12 1 24 3 36c-10 12 -17 29 -17 48c0 36 18 60 39 74c-6 12 -26 23 -44 25v6c29 0 97 -1 144 -20c38 18 84 29 137 32
v-6c-37 -6 -66 -32 -66 -97v-128h96l-10 -70h-86v-330c0 -51 25 -61 52 -67v-6h-283v6c23 5 35 16 35 55v338h-98zM663 688c45 0 81 -36 81 -81s-36 -82 -81 -82c-44 0 -81 37 -81 82s37 81 81 81z" />
    <glyph glyph-name="f_f_b" unicode="ffb" horiz-adv-x="1213" 
d="M15 0v6c28 7 44 16 44 67v326h-68v8l69 65v26c0 118 109 179 258 194v-6c-36 -6 -63 -33 -63 -97v-121h100v28c0 14 1 27 4 39c-12 13 -20 31 -20 52c0 36 18 60 39 74c-6 12 -26 23 -44 25v6c30 0 103 -1 151 -22c39 19 85 30 133 33v-6c-36 -6 -69 -40 -69 -121v-103
h98v83c-9 12 -14 28 -14 47c0 35 25 59 49 72c-6 11 -28 21 -45 23v6c32 -1 84 -4 128 -18l79 21l2 -3c-1 -41 -3 -98 -3 -138l1 -432c0 -21 2 -54 10 -80s21 -48 42 -54v-8c-122 5 -154 57 -167 68h-2l-86 -50l-5 3c9 25 11 84 11 125v265h-98v-330c0 -51 17 -61 44 -67v-6
h-275v6c23 5 35 16 35 55v338h-98v-338c0 -39 15 -51 37 -55v-6h-277zM916 -8v8c39 13 66 77 66 193c0 149 -28 224 -93 224c-7 0 -18 -2 -24 -5v3c17 24 67 66 138 66c124 0 189 -67 189 -219c0 -126 -75 -252 -276 -270z" />
    <glyph glyph-name="f_f_h" unicode="ffh" horiz-adv-x="1197" 
d="M292 0h-277v6c28 7 44 16 44 67v326h-68v8l69 65v26c0 118 109 179 258 194v-6c-36 -6 -63 -33 -63 -97v-121h100v28c0 12 1 25 3 36c-13 14 -21 32 -21 55c0 36 18 60 39 74c-6 12 -27 23 -44 25v6c29 0 104 0 151 -22c39 19 86 30 135 33v-6c-36 -6 -69 -40 -69 -121
v-103h98v83c-9 12 -14 28 -14 47c0 35 25 59 49 72c-6 11 -28 21 -45 23v6c32 -1 84 -4 128 -18l79 21l2 -3c-1 -41 -3 -98 -3 -138v-505c0 -38 13 -50 36 -55v-6h-268v6c27 7 36 16 36 67v330h-98v-342c0 -39 15 -51 38 -55v-6h-269v6c23 5 35 16 35 55v338h-98v-338
c0 -39 15 -51 37 -55v-6zM946 61v256c0 50 -22 67 -59 67c-9 0 -20 -3 -27 -5v3c25 49 88 99 163 99c94 0 119 -60 119 -140v-268c0 -51 18 -60 44 -67v-6h-276v6c23 5 36 17 36 55z" />
    <glyph glyph-name="f_f_i" unicode="ffi" horiz-adv-x="902" 
d="M292 0h-277v6c28 7 44 16 44 67v326h-68v8l69 65v26c0 118 109 179 258 194v-6c-36 -6 -63 -33 -63 -97v-121h100v28c0 13 1 26 4 38c-12 13 -20 32 -20 53c0 36 18 60 39 74c-6 12 -26 23 -44 25v6c31 0 108 0 155 -24c39 19 84 30 129 35v-6c-36 -6 -69 -35 -69 -110
v-114h106c104 0 160 5 189 10l2 -4c-1 -41 -3 -97 -3 -137v-269c0 -50 19 -60 45 -67v-6h-276v6c23 5 35 16 35 55v342h-98v-342c0 -39 15 -51 38 -55v-6h-269v6c23 5 35 16 35 55v338h-98v-338c0 -39 15 -51 37 -55v-6zM654 599c0 36 23 59 39 71c-8 13 -30 28 -56 28v6
c29 1 108 2 155 -23c33 -17 53 -45 53 -80c0 -57 -44 -87 -98 -87c-49 0 -93 31 -93 85z" />
    <glyph glyph-name="f_f_j" unicode="ffj" horiz-adv-x="893" 
d="M654 599c0 36 23 59 39 71c-8 13 -30 28 -56 28v6c29 1 108 2 155 -23c33 -17 53 -45 53 -80c0 -57 -44 -87 -98 -87c-49 0 -93 31 -93 85zM601 0h-283v6c23 5 35 16 35 55v338h-98v-338c0 -39 15 -51 37 -55v-6h-277v6c28 7 44 16 44 67v326h-68v8l69 65v26
c0 118 109 179 258 194v-6c-36 -6 -63 -33 -63 -97v-121h100v28c0 13 1 26 4 38c-12 13 -20 32 -20 53c0 36 18 60 39 74c-6 12 -26 23 -44 25v6c31 0 108 0 155 -24c39 19 84 30 129 35v-6c-36 -6 -69 -35 -69 -110v-114h106c104 0 160 5 189 10l2 -4
c-1 -41 -3 -97 -3 -137v-270c0 -151 -103 -217 -187 -254c-31 -14 -67 -31 -107 -40l-2 7c14 8 35 25 45 36c52 62 55 106 55 230v352h-98v-330c0 -51 25 -61 52 -67v-6z" />
    <glyph glyph-name="f_f_k" unicode="ffk" horiz-adv-x="1193" 
d="M549 403v-342c0 -39 15 -51 38 -55v-6h-270v6c24 5 36 16 36 55v338h-98v-338c0 -39 15 -51 37 -55v-6h-277v6c28 7 44 16 44 67v326h-68v8l69 68v23c0 118 109 179 258 194v-6c-36 -6 -63 -33 -63 -97v-121h99v31c0 13 2 25 4 37c-11 13 -19 30 -19 51c0 36 18 60 39 74
c-6 12 -26 23 -44 25v6c30 0 102 -1 150 -21c39 18 85 29 133 32v-6c-36 -6 -68 -40 -68 -121v-103h98v83c-10 12 -14 28 -14 47c0 35 24 59 48 72c-6 11 -27 21 -45 23v6c33 -1 85 -4 129 -18l78 21l3 -3c-1 -41 -3 -98 -3 -138v-495c0 -49 19 -58 45 -65v-6h-277v6
c27 7 36 16 36 67v330h-98zM857 211l119 127c31 -58 114 -185 152 -234c46 -61 75 -85 96 -97v-7c-23 -1 -121 -3 -156 -3c-44 0 -82 8 -106 33c-46 49 -82 116 -105 181zM948 473h246v-8c-27 -6 -63 -19 -97 -37c-35 -20 -69 -46 -95 -76l-6 10c6 9 11 23 11 48
c0 31 -26 50 -59 55v8z" />
    <glyph glyph-name="f_f_l" unicode="ffl" horiz-adv-x="902" 
d="M339 587c0 36 18 60 39 74c-6 12 -26 23 -44 25v6c30 0 103 -1 151 -22c39 19 85 30 132 33v-6c-36 -6 -68 -40 -68 -121v-103h98v83c-10 12 -14 28 -14 47c0 35 24 59 48 72c-6 11 -27 21 -45 23v6c33 -1 85 -4 129 -18l78 21l3 -3c-1 -41 -3 -98 -3 -138v-495
c0 -49 19 -58 45 -65v-6h-277v6c27 7 36 16 36 67v330h-98v-339c0 -42 13 -51 38 -58v-6h-270v6c27 7 36 16 36 58v335h-98v-338c0 -39 15 -51 37 -55v-6h-277v6c28 7 44 16 44 67v326h-68v8l69 68v23c0 118 109 179 258 194v-6c-36 -6 -63 -33 -63 -97v-121h99v28
c0 14 2 27 4 39c-11 13 -19 31 -19 52z" />
    <glyph glyph-name="f_h" unicode="fh" horiz-adv-x="903" 
d="M292 0h-277v6c28 7 44 16 44 67v326h-68v8l69 68v21c0 123 116 199 263 207v-6c-36 -6 -68 -40 -68 -121v-108h98v86c-10 12 -14 28 -14 46c0 36 25 60 48 73c-5 12 -28 23 -45 25v6c32 -1 84 -4 128 -18l79 21l3 -3c-1 -41 -3 -98 -3 -138v-505c0 -38 14 -50 36 -55v-6
h-267v6c27 7 35 16 35 67v326h-98v-338c0 -39 13 -50 37 -55v-6zM653 61v256c0 50 -23 67 -60 67c-9 0 -20 -3 -26 -5v3c25 49 88 99 163 99c93 0 119 -60 119 -140v-268c0 -51 17 -60 43 -67v-6h-275v6c23 5 36 17 36 55z" />
    <glyph glyph-name="f_i" unicode="fi" horiz-adv-x="608" 
d="M353 61v338h-98v-338c0 -39 15 -51 37 -55v-6h-277v6c28 7 44 16 44 67v326h-68v8l69 68v21c0 123 128 195 263 207v-6c-36 -6 -68 -35 -68 -110v-119h106c104 0 159 10 188 15l3 -4c-1 -41 -3 -97 -3 -137v-269c0 -50 18 -60 45 -67v-6h-276v6c23 5 35 16 35 55z
M360 598c0 36 22 60 39 72c-8 13 -31 28 -57 28v6c30 1 109 2 156 -23c33 -17 52 -46 52 -82c0 -57 -43 -87 -97 -87c-49 0 -93 31 -93 86z" />
    <glyph glyph-name="f_j" unicode="fj" horiz-adv-x="599" 
d="M360 598c0 36 22 60 39 72c-8 13 -31 28 -57 28v6c30 1 109 2 156 -23c33 -17 52 -46 52 -82c0 -57 -43 -87 -97 -87c-49 0 -93 31 -93 86zM307 0h-292v6c28 7 44 16 44 67v326h-68v8l69 68v21c0 123 123 197 263 207v-6c-36 -6 -68 -40 -68 -121v-108h106
c104 0 159 10 188 15l3 -4c-1 -41 -3 -97 -3 -137v-270c0 -151 -104 -217 -187 -254c-31 -14 -68 -31 -108 -40l-2 7c14 8 36 25 46 36c52 62 55 108 55 230v348h-98v-326c0 -51 24 -61 52 -67v-6z" />
    <glyph glyph-name="f_k" unicode="fk" horiz-adv-x="899" 
d="M318 0v6c23 5 35 16 35 55v338h-98v-338c0 -39 15 -51 37 -55v-6h-277v6c28 7 44 16 44 67v326h-68v8l69 68v21c0 123 116 199 263 207v-6c-36 -6 -68 -40 -68 -121v-108h98v88c-10 12 -14 28 -14 47c0 35 24 59 48 72c-6 11 -28 21 -45 23v6c33 -1 85 -4 129 -18l78 21
l3 -3c-1 -41 -3 -98 -3 -138v-495c0 -49 19 -58 45 -65v-6h-276zM563 212l119 127c31 -59 114 -186 151 -235c47 -61 75 -85 97 -97v-7c-23 -1 -122 -3 -157 -3c-44 0 -81 8 -105 33c-46 49 -82 117 -105 182zM654 473h246v-8c-28 -6 -64 -18 -97 -37
c-35 -19 -69 -45 -95 -76l-7 10c7 9 12 23 12 48c0 31 -27 50 -59 55v8z" />
    <glyph glyph-name="f_l" unicode="fl" horiz-adv-x="608" 
d="M353 556c-10 12 -14 28 -14 47c0 35 24 59 48 72c-6 11 -28 21 -45 23v6c33 -1 85 -4 129 -18l78 21l3 -3c-1 -41 -3 -98 -3 -138v-495c0 -49 19 -58 45 -65v-6h-276v6c27 7 35 18 35 55v338h-98v-337c0 -40 13 -51 37 -56v-6h-277v6c28 7 44 16 44 67v326h-68v8l69 68
v21c0 123 116 199 263 207v-6c-36 -6 -68 -40 -68 -121v-108h98v88z" />
    <glyph glyph-name="g_y" unicode="gy" horiz-adv-x="926" 
d="M649 -107l7 -3c-20 -57 -63 -124 -131 -124c-40 0 -78 29 -78 77c0 44 37 74 75 74c50 0 71 -41 78 -76c23 15 42 40 49 52zM785 468h190v-8c-48 -8 -104 -55 -144 -142l-7 9c3 6 15 45 15 70c0 37 -21 60 -54 63v8zM435 468h315v-8c-23 -3 -42 -18 -42 -42
c0 -11 7 -35 17 -59l59 -148l-99 -224h-7l-165 392c-25 59 -48 75 -78 81v8zM275 320c0 106 -6 149 -35 154v7c110 -2 211 -42 211 -155c0 -120 -121 -156 -204 -161v7c21 7 28 55 28 148zM20 317c0 118 121 158 204 164v-7c-21 -7 -28 -59 -28 -151c0 -106 6 -146 35 -151
v-7c-107 2 -211 46 -211 152zM343 -171v6c19 12 38 31 38 56c0 31 -20 39 -58 39s-143 -8 -186 -8c-70 0 -126 45 -126 111c0 28 12 53 25 72c22 31 54 57 72 71l3 -4c-4 -6 -8 -14 -8 -23c0 -19 16 -26 41 -26c38 0 135 8 196 8c92 0 150 -31 150 -121
c0 -85 -83 -147 -147 -181zM318 -175v-7c-18 -11 -75 -52 -178 -52c-92 0 -140 29 -140 70c0 32 56 63 134 76l2 -3c-7 -7 -15 -23 -15 -44c0 -42 29 -67 94 -67c49 0 76 13 103 27z" />
    <glyph glyph-name="longs_b" unicode="&#x17f;b" horiz-adv-x="918" 
d="M254 576v-503c0 -51 17 -61 44 -67v-6h-284v6c28 7 44 16 44 67v326h-67v8l69 68v21c0 123 116 199 263 207v-6c-36 -6 -69 -40 -69 -121zM353 138v418c-10 12 -15 28 -15 47c0 35 25 59 49 72c-6 11 -28 21 -45 23v6c32 -1 84 -4 128 -18l79 21l3 -3
c-1 -41 -3 -98 -3 -138v-432c0 -21 3 -54 11 -80c7 -26 20 -48 42 -54v-8c-123 5 -155 57 -168 68h-2l-86 -50l-4 3c8 25 11 84 11 125zM621 -8v8c40 13 67 77 67 193c0 149 -29 224 -94 224c-7 0 -18 -2 -24 -5v3c17 24 67 66 138 66c124 0 189 -67 189 -219
c0 -126 -75 -252 -276 -270z" />
    <glyph glyph-name="longs_h" unicode="&#x17f;h" horiz-adv-x="903" 
d="M353 73v481c-10 12 -15 28 -15 46c0 36 25 60 49 73c-6 12 -28 23 -45 25v6c32 -1 84 -4 128 -18l79 21l3 -3c-1 -41 -3 -98 -3 -138v-505c0 -38 13 -50 36 -55v-6h-269v6c28 7 37 16 37 67zM254 576v-503c0 -51 17 -61 44 -67v-6h-284v6c28 7 44 16 44 67v326h-67v8
l69 68v21c0 123 116 199 263 207v-6c-36 -6 -69 -40 -69 -121zM652 61v256c0 50 -22 67 -59 67c-9 0 -20 -3 -27 -5v3c25 49 88 99 163 99c94 0 119 -60 119 -140v-268c0 -51 18 -60 44 -67v-6h-276v6c23 5 36 17 36 55z" />
    <glyph glyph-name="longs_i" unicode="&#x17f;i" horiz-adv-x="607" 
d="M254 587v-526c0 -39 15 -51 38 -55v-6h-278v6c28 7 44 16 44 67v326h-67v8l69 68v21c0 123 128 195 263 207v-6c-36 -6 -69 -35 -69 -110zM317 0v6c23 5 36 16 36 55v283c0 36 -6 48 -27 63l-14 9v4l237 63l3 -4c-1 -41 -3 -97 -3 -137v-269c0 -50 18 -60 44 -67v-6h-276
zM359 599c0 36 23 59 40 71c-8 13 -31 28 -57 28v6c29 1 108 2 155 -23c33 -17 53 -45 53 -80c0 -57 -44 -87 -98 -87c-49 0 -93 31 -93 85z" />
    <glyph glyph-name="longs_j" unicode="&#x17f;j" horiz-adv-x="598" 
d="M254 576v-503c0 -51 25 -61 52 -67v-6h-292v6c28 7 44 16 44 67v326h-67v8l69 68v21c0 123 122 197 263 207v-6c-36 -6 -69 -40 -69 -121zM353 51v293c0 36 -6 48 -27 63l-14 9v4l237 63l3 -4c-1 -41 -3 -97 -3 -137v-270c0 -151 -106 -212 -188 -254
c-27 -15 -69 -30 -107 -40l-2 7c14 8 35 25 45 36c52 62 54 108 56 230zM359 599c0 36 23 59 40 71c-8 13 -31 28 -57 28v6c29 1 108 2 155 -23c33 -17 53 -45 53 -80c0 -57 -44 -87 -98 -87c-49 0 -93 31 -93 85z" />
    <glyph glyph-name="longs_k" unicode="&#x17f;k" horiz-adv-x="900" 
d="M353 61v495c-10 12 -15 28 -15 47c0 35 25 59 49 72c-6 11 -28 21 -45 23v6c32 -1 85 -4 129 -18l78 21l3 -3c-1 -41 -3 -98 -3 -138v-495c0 -49 18 -58 44 -65v-6h-276v6c23 5 36 16 36 55zM254 576v-515c0 -39 15 -51 38 -55v-6h-278v6c28 7 44 16 44 67v326h-67v8
l69 68v21c0 123 116 199 263 207v-6c-36 -6 -69 -40 -69 -121zM564 209l119 127c30 -58 114 -183 151 -232c47 -61 75 -85 97 -97v-7c-24 -1 -122 -3 -157 -3c-44 0 -81 8 -105 33c-46 49 -83 116 -105 179zM900 468v-8c-36 -8 -90 -25 -132 -58c-22 -15 -43 -34 -59 -53
l-7 10c7 11 12 24 12 48c0 33 -27 48 -59 53v8h245z" />
    <glyph glyph-name="longs_l" unicode="&#x17f;l" horiz-adv-x="607" 
d="M254 576v-503c0 -51 17 -61 44 -67v-6h-284v6c28 7 44 16 44 67v326h-67v8l69 68v21c0 123 116 199 263 207v-6c-36 -6 -69 -40 -69 -121zM353 73v483c-10 12 -15 28 -15 47c0 35 25 59 49 72c-6 11 -28 21 -45 23v6c32 -1 85 -4 129 -18l78 21l3 -3
c-1 -41 -3 -98 -3 -138v-495c0 -49 18 -58 44 -65v-6h-277v6c28 7 37 16 37 67z" />
    <glyph glyph-name="longs_longs" unicode="&#x17f;&#x17f;" horiz-adv-x="615" 
d="M353 61v338h-63v8l63 62v34c0 12 1 24 2 36c-10 12 -16 29 -16 48c0 36 18 60 38 74c-5 12 -26 23 -43 25v6c28 0 97 -1 144 -20c38 18 84 29 136 32v-6c-36 -6 -65 -32 -65 -97v-528c0 -51 24 -61 51 -67v-6h-283v6c23 5 36 16 36 55zM254 589v-528c0 -39 15 -51 38 -55
v-6h-278v6c28 7 44 16 44 67v326h-67v8l69 68v23c0 118 108 179 258 194v-6c-37 -6 -64 -33 -64 -97zM663 688c45 0 81 -36 81 -81s-36 -82 -81 -82s-82 37 -82 82s37 81 82 81z" />
    <glyph glyph-name="longs_longs_b" unicode="&#x17f;&#x17f;b" horiz-adv-x="1213" 
d="M549 576v-503c0 -51 16 -61 44 -67v-6h-276v6c23 5 36 16 36 55v338h-63v8l63 62v27c0 14 2 27 5 39c-12 13 -19 31 -19 52c0 36 18 60 38 74c-5 12 -26 23 -43 25v6c29 0 103 -1 150 -22c39 19 85 30 133 33v-6c-36 -6 -68 -40 -68 -121zM647 138v418
c-10 12 -14 28 -14 47c0 35 24 59 48 72c-5 11 -28 21 -45 23v6c32 -1 84 -4 128 -18l79 21l3 -3c-1 -41 -3 -98 -3 -138l1 -432c0 -21 2 -54 10 -80c7 -26 21 -48 42 -54v-8c-123 5 -154 57 -168 68h-1l-86 -50l-5 3c8 25 11 84 11 125zM254 589v-528c0 -39 15 -51 38 -55
v-6h-278v6c28 7 44 16 44 67v326h-67v8l69 65v26c0 118 108 179 258 194v-6c-37 -6 -64 -33 -64 -97zM916 -8v8c39 13 66 77 66 193c0 149 -29 224 -93 224c-8 0 -18 -2 -25 -5v3c17 24 68 66 139 66c124 0 189 -67 189 -219c0 -126 -75 -252 -276 -270z" />
    <glyph glyph-name="longs_longs_h" unicode="&#x17f;&#x17f;h" horiz-adv-x="1197" 
d="M549 576v-515c0 -39 15 -51 37 -55v-6h-269v6c23 5 36 16 36 55v338h-62v8l62 61v28c0 12 2 25 4 36c-12 14 -20 32 -20 55c0 36 17 60 38 74c-6 12 -26 23 -43 25v6c29 0 104 0 151 -22c39 19 86 30 134 33v-6c-36 -6 -68 -40 -68 -121zM647 73v483
c-10 12 -14 28 -14 47c0 35 24 59 48 72c-5 11 -28 21 -45 23v6c32 -1 84 -4 128 -18l79 21l3 -3c-1 -41 -3 -98 -3 -138v-505c0 -38 13 -50 35 -55v-6h-267v6c27 7 36 16 36 67zM254 589v-528c0 -39 15 -51 38 -55v-6h-278v6c28 7 44 16 44 67v326h-67v8l69 65v26
c0 118 108 179 258 194v-6c-37 -6 -64 -33 -64 -97zM946 61v256c0 50 -23 67 -60 67c-8 0 -20 -3 -26 -5v3c25 49 88 99 163 99c93 0 119 -60 119 -140v-268c0 -51 17 -60 44 -67v-6h-276v6c23 5 36 17 36 55z" />
    <glyph glyph-name="longs_longs_i" unicode="&#x17f;&#x17f;i" horiz-adv-x="902" 
d="M549 587v-526c0 -39 15 -51 37 -55v-6h-269v6c23 5 36 16 36 55v338h-63v8l63 62v27c0 13 2 26 5 38c-12 13 -19 32 -19 53c0 36 18 60 38 74c-5 12 -26 23 -43 25v6c30 0 107 0 155 -24c38 19 84 30 128 35v-6c-36 -6 -68 -35 -68 -110zM254 589v-528
c0 -39 15 -51 38 -55v-6h-278v6c28 7 44 16 44 67v326h-67v8l69 65v26c0 118 108 179 258 194v-6c-37 -6 -64 -33 -64 -97zM612 0v6c23 5 35 16 35 55v283c0 36 -6 48 -27 63l-14 9v4l237 63l3 -4c-1 -41 -3 -97 -3 -137v-269c0 -50 18 -60 45 -67v-6h-276zM654 599
c0 36 22 59 39 71c-8 13 -31 28 -57 28v6c29 1 108 2 155 -23c34 -17 53 -45 53 -80c0 -57 -43 -87 -98 -87c-48 0 -92 31 -92 85z" />
    <glyph glyph-name="longs_longs_j" unicode="&#x17f;&#x17f;j" horiz-adv-x="892" 
d="M353 61v338h-63v8l63 62v27c0 13 2 26 5 38c-12 13 -19 32 -19 53c0 36 18 60 38 74c-5 12 -26 23 -43 25v6c30 0 107 0 155 -24c38 19 84 30 128 35v-6c-36 -6 -68 -35 -68 -110v-514c0 -51 24 -61 51 -67v-6h-283v6c23 5 36 16 36 55zM254 589v-528
c0 -39 15 -51 38 -55v-6h-278v6c28 7 44 16 44 67v326h-67v8l69 65v26c0 118 108 179 258 194v-6c-37 -6 -64 -33 -64 -97zM647 51v293c0 36 -6 48 -27 63l-14 9v4l237 63l3 -4c-1 -41 -3 -97 -3 -137v-270c0 -151 -106 -212 -187 -254c-27 -15 -70 -30 -108 -40l-2 7
c14 8 36 25 46 36c52 62 53 108 55 230zM654 599c0 36 22 59 39 71c-8 13 -31 28 -57 28v6c29 1 108 2 155 -23c34 -17 53 -45 53 -80c0 -57 -43 -87 -98 -87c-48 0 -92 31 -92 85z" />
    <glyph glyph-name="longs_longs_k" unicode="&#x17f;&#x17f;k" horiz-adv-x="1194" 
d="M548 576v-503c0 -51 17 -61 44 -67v-6h-284v6c28 7 44 16 44 67v326h-62v8l62 62v30c0 13 3 25 5 37c-11 13 -18 30 -18 51c0 36 18 60 38 74c-5 12 -26 23 -43 25v6c29 0 102 -1 150 -21c38 18 84 29 133 32v-6c-36 -6 -69 -40 -69 -121zM647 73v483
c-10 12 -15 28 -15 47c0 35 25 59 49 72c-6 11 -28 21 -45 23v6c33 -1 85 -4 129 -18l78 21l3 -3c-1 -41 -3 -98 -3 -138v-495c0 -49 18 -58 44 -65v-6h-276v6c27 7 36 16 36 67zM254 589v-528c0 -39 15 -51 38 -55v-6h-278v6c28 7 44 16 44 67v326h-67v8l69 68v23
c0 118 108 179 258 194v-6c-37 -6 -64 -33 -64 -97zM858 209l119 127c30 -58 114 -183 151 -232c47 -61 75 -85 97 -97v-7c-24 -1 -122 -3 -157 -3c-44 0 -81 8 -105 33c-46 49 -83 116 -105 179zM1194 468v-8c-36 -8 -90 -25 -132 -58c-22 -15 -43 -34 -59 -53l-7 10
c7 11 12 24 12 48c0 33 -27 48 -59 53v8h245z" />
    <glyph glyph-name="longs_longs_l" unicode="&#x17f;&#x17f;l" horiz-adv-x="901" 
d="M548 576v-503c0 -51 17 -61 44 -67v-6h-284v6c28 7 44 16 44 67v326h-62v8l62 62v27c0 14 3 27 6 39c-12 13 -19 31 -19 52c0 36 18 60 38 74c-5 12 -26 23 -43 25v6c29 0 102 -1 150 -22c39 19 85 30 133 33v-6c-36 -6 -69 -40 -69 -121zM647 73v483
c-10 12 -15 28 -15 47c0 35 25 59 49 72c-6 11 -28 21 -45 23v6c33 -1 85 -4 129 -18l78 21l3 -3c-1 -41 -3 -98 -3 -138v-495c0 -49 18 -58 44 -65v-6h-276v6c27 7 36 16 36 67zM254 589v-528c0 -39 15 -51 38 -55v-6h-278v6c28 7 44 16 44 67v326h-67v8l69 68v23
c0 118 108 179 258 194v-6c-37 -6 -64 -33 -64 -97z" />
    <glyph glyph-name=".notdef" horiz-adv-x="360" 
 />
    <glyph glyph-name="Eth" unicode="&#xd0;" horiz-adv-x="762" 
d="M13 334h74v172c0 82 -23 106 -74 116v8h300v-296h96v-29h-96v-305h-300v8c51 10 74 34 74 116v181h-74v29zM742 321c0 -171 -131 -277 -301 -310c-27 -5 -56 -10 -87 -11v9c20 2 45 12 61 24c54 41 85 139 85 288c0 139 -28 228 -88 275c-16 13 -36 22 -58 25v9
c240 -11 388 -116 388 -309z" />
    <glyph glyph-name="eth" unicode="&#xf0;" horiz-adv-x="554" 
d="M96 541l127 63c-42 45 -95 76 -155 95l2 6c74 -8 153 -29 223 -66l125 63l14 -27l-105 -54c122 -73 214 -179 214 -346c0 -132 -97 -278 -254 -282v10c42 12 48 189 48 255c0 133 -30 244 -91 322l-134 -67zM295 467l-3 -9c-3 2 -9 3 -18 3c-33 0 -55 -29 -55 -232
c0 -88 22 -215 51 -226v-10c-171 9 -258 125 -258 243c0 154 109 245 226 245c32 0 49 -7 57 -14z" />
    <glyph glyph-name="Lslash" unicode="&#x141;" horiz-adv-x="641" 
d="M493 409l-179 -85v-324h-300v8c51 10 74 34 74 116v93l-63 -29l-11 27l74 34v257c0 82 -23 106 -74 116v8h385v-8c-46 -10 -85 -27 -85 -116v-149l169 79zM614 273h8l-16 -273h-255v8c53 12 113 46 161 95c48 45 84 103 102 170z" />
    <glyph glyph-name="lslash" unicode="&#x142;" horiz-adv-x="317" 
d="M60 73v207l-64 -36l-15 26l79 43v256c0 37 -6 48 -27 63l-13 8v5l236 62l3 -3c-1 -41 -3 -98 -3 -138v-143l64 36l15 -25l-79 -45v-316c0 -50 17 -60 44 -67v-6h-284v6c27 7 44 16 44 67z" />
    <glyph glyph-name="Scaron" unicode="&#x160;" horiz-adv-x="541" 
d="M143 822l138 -47h2l138 47l4 -4l-141 -147h-4l-140 147zM485 438h-9c-33 83 -87 169 -168 191v9c38 0 137 -13 169 -24zM513 213c0 -132 -89 -213 -250 -221v9c35 9 58 43 58 87c0 65 -54 91 -148 145c-81 45 -134 104 -134 203c0 137 132 195 242 202v-9
c-33 -7 -58 -30 -58 -82c0 -73 69 -102 138 -143c71 -42 152 -82 152 -191zM232 -8c-64 5 -159 20 -185 32l-11 208h9c28 -88 111 -203 187 -231v-9z" />
    <glyph glyph-name="scaron" unicode="&#x161;" horiz-adv-x="406" 
d="M79 695l6 4l122 -69h9l120 70l8 -5l-131 -184h-4zM210 481v-7c-21 -7 -41 -19 -41 -53c0 -41 57 -71 97 -99c67 -46 125 -94 125 -160c0 -101 -63 -159 -191 -170v6c23 7 37 21 37 50c0 37 -44 67 -93 98c-63 39 -123 84 -123 175c0 86 77 149 189 160zM234 474v7
c48 0 114 -11 130 -15l5 -148h-7c-17 63 -79 145 -128 156zM174 -2v-6c-52 -1 -120 16 -150 28l-3 153h7c18 -67 108 -163 146 -175z" />
    <glyph glyph-name="Yacute" unicode="&#xdd;" horiz-adv-x="642" 
d="M676 622c-62 -10 -136 -83 -183 -161l-7 6c13 27 30 64 30 87c0 34 -15 65 -62 68v8h222v-8zM206 124v166l-133 259c-22 41 -49 65 -91 73v8h386v-8c-30 -1 -60 -22 -60 -50c0 -16 12 -41 22 -60l101 -194v-194c0 -89 30 -106 74 -116v-8h-374v8c52 10 75 34 75 116z
M518 709l-242 -35l-2 7l198 146z" />
    <glyph glyph-name="yacute" unicode="&#xfd;" horiz-adv-x="463" 
d="M321 468h191v-8c-48 -8 -105 -55 -144 -142l-8 9c3 6 15 45 15 70c0 37 -21 60 -54 63v8zM-29 468h315v-8c-23 -3 -42 -18 -42 -42c0 -11 8 -35 18 -59l58 -148l-99 -224h-7l-164 392c-25 59 -49 75 -79 81v8zM192 -110c-23 -57 -62 -124 -134 -124c-41 0 -78 29 -78 77
c0 44 35 74 75 74c52 0 73 -41 79 -79c19 14 43 42 51 55zM435 635l-173 -128l-9 5l57 202z" />
    <glyph glyph-name="Thorn" unicode="&#xde;" horiz-adv-x="657" 
d="M87 124v382c0 82 -23 106 -74 116v8h373v-8c-44 -10 -73 -27 -73 -116v-382c0 -89 29 -106 73 -116v-8h-373v8c51 10 74 34 74 116zM657 333c0 -91 -93 -184 -309 -192v9c8 1 17 4 23 6c41 17 51 68 51 175c0 104 -14 143 -54 162c-6 3 -12 5 -20 7v8c16 0 37 -1 54 -2
c169 -9 255 -54 255 -173z" />
    <glyph glyph-name="thorn" unicode="&#xfe;" horiz-adv-x="617" 
d="M341 -4v8c29 18 46 96 46 205c0 146 -31 201 -94 201c-9 0 -20 -2 -26 -5v4c15 24 77 72 148 72c130 0 182 -89 182 -217c0 -124 -62 -243 -256 -268zM318 -7c-10 -1 -21 0 -33 1c-10 0 -25 2 -35 5v-128c0 -45 21 -63 61 -70v-6h-301v6c27 7 44 16 44 67v708
c0 36 -6 49 -27 62l-16 10v5l236 64l3 -3v-593c0 -25 4 -54 17 -78c11 -22 29 -37 51 -42v-8z" />
    <glyph glyph-name="Zcaron" unicode="&#x17d;" horiz-adv-x="644" 
d="M201 822l138 -47h2l138 47l4 -4l-141 -147h-4l-140 147zM311 623c-122 -19 -225 -110 -269 -239h-9c9 85 15 192 20 246h258v-7zM624 630l-367 -630h-250l366 630h251zM599 0h-274v8c130 18 237 123 296 252h8c-12 -98 -20 -189 -30 -260z" />
    <glyph glyph-name="zcaron" unicode="&#x17e;" horiz-adv-x="496" 
d="M131 695l6 4l122 -69h9l120 70l8 -5l-131 -184h-4zM20 273l18 195h179v-8c-74 -27 -144 -86 -189 -187h-8zM488 468l-268 -468h-217l267 468h218zM462 0h-194v7c80 21 166 118 207 211h8c-3 -14 -21 -218 -21 -218z" />
    <glyph glyph-name="onehalf" unicode="&#xbd;" horiz-adv-x="541" 
d="M17 226h507v-31h-507v31zM335 538v-183c0 -50 18 -67 49 -72v-8h-225v8c37 5 50 26 50 72v194c0 23 -2 42 -10 51c-7 10 -28 15 -47 17v8c49 0 134 2 187 6c-2 -21 -4 -50 -4 -93zM114 -203l88 98h135c44 0 65 24 75 52h8l-11 -150h-295zM215 -85c33 35 53 72 53 111
c0 27 -19 46 -54 45c-31 0 -47 -12 -65 -29l-5 3c16 53 70 111 142 111c78 0 116 -40 116 -93c0 -67 -90 -124 -180 -152z" />
    <glyph glyph-name="onequarter" unicode="&#xbc;" horiz-adv-x="541" 
d="M17 226h507v-31h-507v31zM335 538v-183c0 -50 18 -67 49 -72v-8h-225v8c37 5 50 26 50 72v194c0 23 -2 42 -10 51c-7 10 -28 15 -47 17v8c49 0 134 2 187 6c-2 -21 -4 -50 -4 -93zM369 -124v91h64l-7 -91h-57zM192 -33v-91h-107v10l63 81h44zM218 -123v173l75 107h50
v-280c0 -50 18 -67 50 -72v-8h-225v8c36 5 50 26 50 72z" />
    <glyph glyph-name="onesuperior" unicode="&#xb9;" horiz-adv-x="270" 
d="M201 538v-183c0 -50 18 -67 50 -72v-8h-225v8c36 5 50 26 50 72v194c0 23 -2 42 -10 51c-7 10 -28 15 -47 17v8c48 0 133 2 186 6c-1 -21 -4 -50 -4 -93z" />
    <glyph glyph-name="threequarters" unicode="&#xbe;" horiz-adv-x="541" 
d="M17 226h507v-31h-507v31zM369 -124v91h64l-7 -91h-57zM192 -33v-91h-107v10l63 81h44zM218 -123v173l75 107h50v-280c0 -50 18 -67 50 -72v-8h-225v8c36 5 50 26 50 72zM283 340c0 44 -35 56 -77 56c-6 0 -22 -1 -29 -3l-3 6l70 85c11 1 22 1 32 1c89 -1 124 -43 124 -91
c0 -50 -52 -115 -171 -123v8c41 6 54 33 54 61zM255 496h-4c9 9 18 21 18 32c0 22 -14 35 -49 35c-17 0 -41 -6 -54 -17l-3 3c14 44 52 85 120 85c62 0 94 -27 94 -63c0 -35 -44 -65 -122 -75zM185 358c24 0 44 -20 44 -44c0 -23 -20 -43 -44 -43c-23 0 -42 20 -42 43
c0 24 19 44 42 44z" />
    <glyph glyph-name="threesuperior" unicode="&#xb3;" horiz-adv-x="297" 
d="M157 340c0 44 -34 56 -76 56c-7 0 -23 -1 -30 -3l-2 6l70 85c11 1 22 1 32 1c88 -1 124 -43 124 -91c0 -50 -52 -115 -171 -123v8c40 6 53 33 53 61zM130 496h-4c9 9 18 21 18 32c0 22 -15 35 -49 35c-17 0 -42 -6 -54 -17l-3 3c14 44 52 85 120 85c61 0 94 -27 94 -63
c0 -35 -44 -65 -122 -75zM60 358c24 0 43 -20 43 -44c0 -23 -19 -43 -43 -43c-23 0 -43 20 -43 43c0 24 20 44 43 44z" />
    <glyph glyph-name="twosuperior" unicode="&#xb2;" horiz-adv-x="342" 
d="M10 275l89 98h134c45 0 65 25 75 53h9l-12 -151h-295zM118 389l-6 4c33 36 53 71 53 109c0 28 -19 49 -54 48c-31 -1 -48 -13 -65 -30l-6 3c17 54 71 111 142 111c79 0 117 -41 117 -95c0 -66 -90 -121 -181 -150z" />
    <glyph glyph-name="brokenbar" unicode="&#xa6;" horiz-adv-x="220" 
d="M92 253v384h36v-384h-36zM92 -220v384h36v-384h-36z" />
    <glyph glyph-name="minus" unicode="&#x2212;" horiz-adv-x="430" 
d="M44 240h342v-45h-342v45z" />
    <glyph glyph-name="multiply" unicode="&#xd7;" horiz-adv-x="387" 
d="M36 92l126 125l-126 125l31 32l126 -125l126 126l32 -32l-126 -126l126 -126l-32 -32l-126 126l-126 -125z" />
    <glyph glyph-name="space" unicode=" " horiz-adv-x="180" 
 />
    <glyph glyph-name="exclam" unicode="!" horiz-adv-x="253" 
d="M38 77c0 49 37 86 88 86c52 0 88 -37 88 -86s-36 -85 -88 -85c-51 0 -88 36 -88 85zM131 194h-9c-16 95 -92 275 -92 357c0 49 34 87 96 87c63 0 97 -39 97 -87c0 -82 -77 -262 -92 -357z" />
    <glyph glyph-name="quotedbl" unicode="&#x22;" horiz-adv-x="346" 
d="M91 351h-8c-33 85 -68 171 -68 214c0 37 19 73 72 73s72 -36 72 -73c0 -43 -35 -129 -68 -214zM263 351h-8c-33 85 -68 171 -68 214c0 37 19 73 72 73s72 -36 72 -73c0 -43 -35 -129 -68 -214z" />
    <glyph glyph-name="numbersign" unicode="#" horiz-adv-x="520" 
d="M94 22l115 608h45c-38 -197 -79 -411 -115 -608h-45zM268 22l116 608h44l-115 -608h-45zM11 237l5 37h90c0 -2 -6 -35 -7 -37h-88zM38 401l6 36h93l-6 -36h-93zM411 401l6 36h93l-6 -36h-93zM381 237l6 37h94l-7 -37h-93zM207 237l6 37h75l-6 -37h-75zM237 401l7 36h75
l-8 -36h-74z" />
    <glyph glyph-name="dollar" unicode="$" horiz-adv-x="438" 
d="M269 625l-20 -237c13 -10 27 -19 37 -26c68 -48 137 -105 137 -182c0 -101 -81 -180 -200 -188v6c30 8 49 20 49 64c0 25 -11 39 -49 68l-17 -207h-28l20 228c-13 9 -29 19 -46 33c-61 45 -130 98 -130 188c0 105 88 167 202 177v-7c-24 -8 -43 -24 -43 -63
c0 -26 17 -48 41 -68l19 214h28zM172 -2v-6c-46 1 -115 17 -145 30l-4 165h8c19 -74 103 -175 141 -189zM272 543v7c42 -1 97 -10 119 -16l5 -152h-7c-16 59 -63 135 -117 161z" />
    <glyph glyph-name="percent" unicode="%" horiz-adv-x="646" 
d="M323 140c0 84 68 143 148 150v-10c-24 -8 -30 -83 -30 -140s6 -130 30 -138v-10c-80 7 -148 64 -148 148zM637 140c0 -84 -67 -141 -148 -148v10c24 8 31 81 31 138s-7 132 -31 140v10c81 -7 148 -66 148 -150zM322 452c0 -84 -67 -143 -148 -150v10c24 8 31 83 31 140
s-7 130 -31 138v10c81 -7 148 -64 148 -148zM9 452c0 84 67 141 148 148v-10c-24 -8 -31 -81 -31 -138s7 -132 31 -140v-10c-81 7 -148 66 -148 150zM117 10l387 590l23 -17l-386 -591z" />
    <glyph glyph-name="ampersand" unicode="&#x26;" horiz-adv-x="785" 
d="M426 437l-4 4c15 23 34 39 34 111c0 51 -19 74 -59 75c-37 0 -59 -29 -59 -72c0 -50 33 -89 72 -127c38 -37 124 -137 184 -214c23 -29 46 -58 67 -81c22 -27 50 -48 81 -48c22 0 41 6 49 10v-7c-8 -16 -74 -96 -197 -96c-68 0 -127 35 -179 101
c-46 61 -129 154 -179 210c-35 38 -74 95 -74 157c0 111 110 178 223 178c129 0 179 -45 179 -98c0 -56 -73 -86 -138 -103zM177 339l4 -7c-7 -8 -10 -19 -10 -33c0 -30 32 -80 49 -102c37 -51 89 -94 116 -94c20 0 29 5 37 10l4 -6c-30 -61 -97 -115 -188 -115
c-93 0 -169 57 -169 158c0 92 96 165 157 189zM598 258l-6 6c12 22 21 44 21 59c0 17 -4 31 -18 46c-13 12 -38 21 -66 24v8h258v-8c-72 -10 -135 -66 -189 -135z" />
    <glyph glyph-name="quotesingle" unicode="'" horiz-adv-x="174" 
d="M91 351h-8c-33 85 -68 171 -68 214c0 37 19 73 72 73s72 -36 72 -73c0 -43 -35 -129 -68 -214z" />
    <glyph glyph-name="parenleft" unicode="(" horiz-adv-x="299" 
d="M46 209c0 200 128 349 251 429l6 -7c-79 -96 -125 -241 -125 -422s46 -326 125 -422l-6 -7c-123 80 -251 229 -251 429z" />
    <glyph glyph-name="parenright" unicode=")" horiz-adv-x="299" 
d="M254 209c0 -200 -129 -349 -252 -429l-6 7c80 96 126 241 126 422s-46 326 -126 422l6 7c123 -80 252 -229 252 -429z" />
    <glyph glyph-name="asterisk" unicode="*" horiz-adv-x="362" 
d="M271 642l-40 -116l121 -27v-8l-121 -26l40 -116l-7 -3l-83 93l-81 -93l-7 3l38 116l-121 26v8l121 27l-38 116l7 4l81 -94l83 94z" />
    <glyph glyph-name="plus" unicode="+" horiz-adv-x="430" 
d="M44 255h148v148h45v-148h149v-44h-149v-149h-45v149h-148v44z" />
    <glyph glyph-name="comma" unicode="," horiz-adv-x="257" 
d="M23 90c0 58 47 99 103 99c69 0 111 -45 111 -119c0 -111 -79 -189 -192 -220l-2 7c44 20 88 68 101 138c-8 -2 -17 -3 -24 -3c-55 0 -97 41 -97 98z" />
    <glyph glyph-name="hyphen" unicode="-" horiz-adv-x="276" 
d="M234 209h-192v84h192v-84z" />
    <glyph glyph-name="period" unicode="." horiz-adv-x="250" 
d="M25 90c0 57 44 99 100 99c57 0 100 -42 100 -99s-43 -98 -100 -98c-56 0 -100 41 -100 98z" />
    <glyph glyph-name="slash" unicode="/" horiz-adv-x="306" 
d="M-15 -154l-33 12l317 775l33 -11z" />
    <glyph glyph-name="zero" unicode="0" horiz-adv-x="558" 
d="M15 237c0 119 109 233 254 243v-7c-37 -11 -49 -71 -49 -236c0 -166 12 -227 49 -237v-8c-145 10 -254 125 -254 245zM544 237c0 -120 -110 -235 -255 -245v8c38 10 49 71 49 237c0 165 -11 225 -49 236v7c145 -10 255 -124 255 -243z" />
    <glyph glyph-name="one" unicode="1" horiz-adv-x="360" 
d="M278 371v-269c0 -67 19 -87 67 -94v-8h-330v8c48 7 67 27 67 94v269c0 67 -19 87 -67 94v8h330v-8c-48 -7 -67 -27 -67 -94z" />
    <glyph glyph-name="two" unicode="2" horiz-adv-x="453" 
d="M0 0l147 146h167c49 0 84 39 102 88h8l-20 -234h-404zM171 170l-4 4c29 34 60 66 60 109s-30 72 -83 72c-35 0 -78 -15 -109 -45l-6 4c25 79 92 167 198 167c103 0 162 -41 162 -127c0 -75 -84 -140 -218 -184z" />
    <glyph glyph-name="three" unicode="3" horiz-adv-x="407" 
d="M191 215l-6 5c9 10 15 39 15 66c0 50 -33 73 -80 73c-36 0 -63 -9 -90 -34l-7 5c28 83 92 151 190 151c97 0 149 -37 149 -112c0 -64 -67 -133 -171 -154zM71 -67c37 0 67 -30 67 -67s-30 -67 -67 -67s-67 30 -67 67s30 67 67 67zM227 -52c0 75 -49 113 -127 113
c-12 0 -44 -2 -57 -5l-2 6l128 137c149 0 227 -72 227 -176c0 -115 -110 -201 -260 -222v8c47 16 91 72 91 139z" />
    <glyph glyph-name="four" unicode="4" horiz-adv-x="602" 
d="M434 479v-640h-189v481l128 159h61zM466 20v150h123l-13 -150h-110zM213 170v-150h-201v12l125 138h76z" />
    <glyph glyph-name="five" unicode="5" horiz-adv-x="406" 
d="M98 320l41 153l258 8l-35 -153zM20 -206l-2 8c123 26 184 95 184 171c0 50 -24 79 -62 109c-31 25 -63 38 -98 53l50 168c57 -13 124 -40 166 -71c55 -41 95 -88 95 -166c0 -144 -110 -233 -333 -272z" />
    <glyph glyph-name="six" unicode="6" horiz-adv-x="552" 
d="M522 625c-153 -38 -298 -121 -298 -396c0 -50 3 -215 43 -227v-10c-140 1 -249 108 -249 239c0 122 57 205 136 269c106 86 284 130 368 133v-8zM253 344v1c15 27 61 52 108 52c103 0 177 -53 177 -184c0 -118 -103 -208 -254 -221v10c26 12 47 107 47 193
c0 115 -23 153 -59 153c-5 0 -15 -1 -19 -4z" />
    <glyph glyph-name="seven" unicode="7" horiz-adv-x="451" 
d="M453 473l-62 -155h-267c-56 0 -91 -38 -107 -68h-9l64 223h381zM383 296l-167 -479h-153l310 479h10z" />
    <glyph glyph-name="eight" unicode="8" horiz-adv-x="478" 
d="M339 395l-5 4c13 31 19 79 19 107c0 59 -28 99 -97 99c-38 0 -78 -17 -78 -61c0 -50 61 -90 125 -142c92 -77 159 -114 159 -223c0 -95 -100 -187 -243 -187c-100 0 -202 38 -202 144c0 55 67 99 107 111l5 -5c-13 -16 -26 -49 -26 -86c0 -85 37 -151 119 -151
c57 0 89 30 89 70c0 47 -42 70 -114 129c-87 73 -161 123 -161 227c0 95 96 187 224 187c108 0 179 -46 179 -112c0 -48 -49 -92 -100 -111z" />
    <glyph glyph-name="nine" unicode="9" horiz-adv-x="555" 
d="M36 -171c156 50 294 140 294 415c0 54 -5 215 -45 227v10c148 -1 252 -104 252 -239c0 -120 -56 -209 -134 -272c-100 -81 -259 -133 -366 -149zM300 123v-1c-16 -26 -59 -50 -105 -50c-103 0 -178 59 -178 190c0 119 86 208 251 219v-10c-26 -12 -44 -112 -44 -198
c0 -116 23 -154 59 -154c5 0 12 2 17 4z" />
    <glyph glyph-name="colon" unicode=":" horiz-adv-x="255" 
d="M27 88c0 57 45 96 101 96s99 -39 99 -96s-43 -96 -99 -96s-101 39 -101 96zM27 385c0 57 45 96 101 96s99 -39 99 -96s-43 -96 -99 -96s-101 39 -101 96z" />
    <glyph glyph-name="semicolon" unicode=";" horiz-adv-x="262" 
d="M27 385c0 57 44 96 101 96c56 0 99 -39 99 -96s-43 -96 -99 -96c-57 0 -101 39 -101 96zM25 90c0 58 47 99 103 99c69 0 111 -45 111 -119c0 -111 -79 -189 -192 -220l-2 7c44 20 88 68 101 138c-8 -2 -17 -3 -24 -3c-55 0 -97 41 -97 98z" />
    <glyph glyph-name="less" unicode="&#x3c;" horiz-adv-x="383" 
d="M344 332l-253 -98l253 -99v-45l-309 121v45l309 121v-45z" />
    <glyph glyph-name="equal" unicode="=" horiz-adv-x="430" 
d="M44 175h342v-44h-342v44zM44 335h342v-44h-342v44z" />
    <glyph glyph-name="greater" unicode="&#x3e;" horiz-adv-x="383" 
d="M292 234l-253 98v45l309 -121v-45l-309 -121v45z" />
    <glyph glyph-name="question" unicode="?" horiz-adv-x="330" 
d="M321 377c0 -115 -89 -158 -214 -159v-37h-24v227c115 2 207 11 207 49c0 11 -3 17 -4 21l5 5c20 -27 30 -69 30 -106zM279 501l-5 -4c-32 8 -92 20 -144 20c-29 0 -58 -13 -58 -42c-19 8 -48 38 -48 73c0 67 56 90 97 90c28 0 58 -13 85 -37c30 -26 59 -75 73 -100z
M19 74c0 47 35 82 87 82c51 0 85 -35 85 -82s-34 -82 -85 -82c-52 0 -87 35 -87 82z" />
    <glyph glyph-name="at" unicode="@" horiz-adv-x="827" 
d="M424 379l6 -6c-29 -40 -79 -210 -79 -251c0 -14 3 -23 14 -23c9 0 24 11 31 20l6 -4c-30 -51 -87 -123 -165 -123c-31 0 -59 27 -59 71c0 86 127 250 246 316zM452 389l-4 5c20 15 51 31 83 33c9 10 20 22 34 32c13 10 31 19 49 19c28 0 56 -9 46 -42l-109 -384
c6 -4 21 -7 30 -7c130 0 215 140 215 253c0 165 -97 289 -320 289c-221 0 -385 -216 -385 -429c0 -196 114 -351 334 -351c149 0 250 56 304 99l11 -15c-50 -45 -178 -110 -333 -110c-226 0 -395 140 -395 367c0 259 239 459 464 459c228 0 344 -123 344 -309
c0 -144 -108 -306 -316 -306c-72 0 -110 20 -105 39l101 363c-3 2 -14 4 -21 4c-8 0 -16 -2 -27 -9z" />
    <glyph glyph-name="A" unicode="A" horiz-adv-x="627" 
d="M295 144l-27 69h-143l16 44h108l-57 149l94 231h58l209 -521c28 -69 61 -101 96 -108v-8h-384v8c28 3 54 14 54 52c0 21 -10 50 -24 84zM193 0h-228v8c36 6 62 23 85 50c28 33 39 54 56 96l8 -4c-2 -9 -6 -31 -6 -51c0 -49 23 -84 85 -91v-8z" />
    <glyph glyph-name="B" unicode="B" horiz-adv-x="691" 
d="M13 0v8c51 10 74 34 74 116v382c0 82 -23 106 -74 116v8h300v-630h-300zM673 167c0 -101 -97 -148 -228 -162c-27 -3 -62 -4 -91 -5v8c43 6 83 32 83 168c0 63 -11 98 -31 121c-14 16 -32 23 -58 27v7c14 4 25 8 36 14c38 19 48 61 48 134c0 105 -42 134 -80 143v8
c174 0 291 -46 291 -154c0 -78 -68 -132 -191 -146v-2c132 -20 221 -58 221 -161z" />
    <glyph glyph-name="C" unicode="C" horiz-adv-x="673" 
d="M623 406h-9c-19 76 -75 162 -151 204c-16 9 -33 16 -51 20v8c76 -1 166 -12 207 -26zM617 236h9l-4 -217c-40 -13 -135 -22 -208 -26v8c18 4 34 11 50 19c77 46 134 139 153 216zM380 -1v-7c-233 12 -363 143 -363 323c0 187 172 306 360 323v-8c-11 -2 -30 -12 -42 -23
c-39 -36 -73 -107 -73 -281c0 -162 26 -269 81 -311c13 -11 25 -14 37 -16z" />
    <glyph glyph-name="D" unicode="D" horiz-adv-x="762" 
d="M13 0v8c51 10 74 34 74 116v382c0 82 -23 106 -74 116v8h300v-630h-300zM742 321c0 -171 -131 -277 -301 -310c-27 -5 -56 -10 -87 -11v9c20 2 45 12 61 24c54 41 85 139 85 288c0 139 -28 228 -88 275c-16 13 -36 22 -58 25v9c240 -11 388 -116 388 -309z" />
    <glyph glyph-name="E" unicode="E" horiz-adv-x="641" 
d="M585 396c-20 60 -46 104 -89 145c-35 34 -87 64 -146 81v8h237l6 -234h-8zM353 321c78 23 116 69 142 155h8v-317h-8c-26 86 -64 132 -142 154v8zM13 0v8c51 10 74 34 74 116v382c0 82 -23 106 -74 116v8h300v-630h-300zM353 0v8c57 12 106 41 145 80
c45 45 73 103 97 166h8l-9 -254h-241z" />
    <glyph glyph-name="F" unicode="F" horiz-adv-x="629" 
d="M313 630v-506c0 -89 42 -106 88 -116v-8h-388v8c51 10 74 34 74 116v382c0 82 -23 106 -74 116v8h300zM596 386c-18 58 -53 107 -98 149c-39 36 -93 70 -148 87v8h247l7 -244h-8zM353 325c78 22 118 71 144 157h8v-322h-8c-26 86 -66 135 -144 157v8z" />
    <glyph glyph-name="G" unicode="G" horiz-adv-x="711" 
d="M615 414h-9c-19 77 -70 157 -146 198c-16 7 -33 14 -51 18v8c77 0 161 -11 199 -24zM443 185c0 64 -17 84 -61 94v8h333v-8c-44 -10 -61 -30 -61 -94v-159c-51 -15 -195 -32 -256 -34v8c10 1 19 4 29 12s16 22 16 44v129zM365 -1v-7c-205 12 -348 151 -348 322
c0 185 166 306 358 324v-8c-11 -2 -30 -12 -42 -23c-39 -36 -71 -107 -71 -280c0 -165 15 -273 66 -313c13 -10 25 -13 37 -15z" />
    <glyph glyph-name="H" unicode="H" horiz-adv-x="800" 
d="M342 303v44h117v-44h-117zM87 124v382c0 82 -23 106 -74 116v8h362v-8c-44 -10 -62 -27 -62 -116v-382c0 -89 18 -106 62 -116v-8h-362v8c51 10 74 34 74 116zM713 506v-382c0 -82 23 -106 74 -116v-8h-361v8c44 10 61 27 61 116v382c0 89 -17 106 -61 116v8h361v-8
c-51 -10 -74 -34 -74 -116z" />
    <glyph glyph-name="I" unicode="I" horiz-adv-x="399" 
d="M87 124v382c0 82 -23 106 -74 116v8h373v-8c-44 -10 -73 -27 -73 -116v-382c0 -89 29 -106 73 -116v-8h-373v8c51 10 74 34 74 116z" />
    <glyph glyph-name="J" unicode="J" horiz-adv-x="394" 
d="M313 506v-396c0 -104 -44 -172 -106 -211c-63 -39 -160 -66 -248 -79l-3 10c35 12 70 40 93 74c25 38 38 87 38 154v448c0 82 -23 106 -74 116v8h373v-8c-44 -10 -73 -27 -73 -116z" />
    <glyph glyph-name="K" unicode="K" horiz-adv-x="814" 
d="M785 630v-8c-31 -3 -68 -17 -105 -40c-52 -32 -117 -87 -164 -128l-5 6c20 29 47 70 47 99c0 46 -36 60 -77 63v8h304zM825 -7c-23 0 -163 0 -217 5c-63 5 -113 10 -167 84c-46 63 -73 118 -97 180l138 160c60 -91 174 -245 227 -313c40 -52 80 -93 116 -108v-8zM87 124
v382c0 82 -23 106 -74 116v8h373v-8c-44 -10 -73 -27 -73 -116v-382c0 -89 29 -106 73 -116v-8h-373v8c51 10 74 34 74 116z" />
    <glyph glyph-name="L" unicode="L" horiz-adv-x="641" 
d="M613 273h9l-17 -273h-255v8c51 11 107 42 153 85c51 47 91 109 110 180zM313 506v-506h-300v8c51 10 74 34 74 116v382c0 82 -23 106 -74 116v8h386v-8c-46 -10 -86 -27 -86 -116z" />
    <glyph glyph-name="M" unicode="M" horiz-adv-x="897" 
d="M592 125l-18 505h301v-8c-40 -9 -79 -22 -75 -112l17 -382c3 -89 30 -111 72 -120v-8h-372v8c42 9 78 27 75 117zM506 218l-138 -223h-7l-199 475c-18 42 -37 77 -62 103c-24 25 -55 43 -91 49v8h330zM255 0h-285v6c37 9 57 19 82 45c32 33 61 78 85 162h9
c-6 -69 -5 -131 27 -164c24 -26 46 -36 82 -43v-6z" />
    <glyph glyph-name="N" unicode="N" horiz-adv-x="734" 
d="M275 0h-278v8c39 7 69 30 93 66c19 29 36 104 36 139h10c0 -35 16 -108 36 -137c28 -42 71 -62 103 -68v-8zM473 -1l-377 529c-18 25 -36 47 -56 63c-19 15 -41 26 -67 31v8h346l287 -399v-232h-133zM457 630h278v-8c-39 -7 -70 -30 -93 -66c-19 -29 -36 -92 -36 -127
h-10c0 35 -17 96 -36 125c-28 42 -72 62 -103 68v8z" />
    <glyph glyph-name="O" unicode="O" horiz-adv-x="746" 
d="M372 -1v-7c-208 12 -353 136 -353 322c0 201 171 304 324 323v-7c-9 -2 -28 -10 -39 -24c-30 -32 -40 -106 -40 -279c0 -165 11 -273 69 -313c11 -7 27 -13 39 -15zM374 631v7c208 -12 353 -136 353 -322c0 -201 -170 -304 -323 -323v7c9 2 26 9 37 22
c30 32 41 108 41 281c0 165 -11 273 -69 313c-11 7 -27 13 -39 15z" />
    <glyph glyph-name="P" unicode="P" horiz-adv-x="672" 
d="M661 453c0 -91 -92 -187 -310 -194v9c13 3 24 7 33 14c38 28 42 93 42 169c0 94 -13 141 -49 162c-7 4 -16 7 -26 9v8c27 0 58 -1 83 -3c153 -13 227 -60 227 -174zM313 630v-506c0 -89 42 -106 88 -116v-8h-388v8c51 10 74 34 74 116v382c0 82 -23 106 -74 116v8h300z
" />
    <glyph glyph-name="Q" unicode="Q" horiz-adv-x="745" 
d="M1143 -141l3 -6c-56 -85 -164 -114 -246 -114c-94 0 -186 17 -295 66c-95 43 -254 124 -327 148v4c58 13 161 24 240 24c21 0 40 -2 57 -3c91 -10 165 -36 244 -66c79 -29 197 -62 250 -62c39 0 58 4 74 9zM371 7v-7c-208 11 -353 132 -353 318c0 201 170 300 324 319v-7
c-9 -2 -29 -10 -39 -24c-31 -32 -41 -102 -41 -275c0 -165 12 -269 70 -309c11 -7 26 -13 39 -15zM372 631v7c208 -12 353 -132 353 -318c0 -201 -169 -300 -323 -319v7c9 2 27 9 37 22c31 32 42 104 42 277c0 164 -12 269 -70 309c-11 7 -26 13 -39 15z" />
    <glyph glyph-name="R" unicode="R" horiz-adv-x="768" 
d="M446 84c-41 59 -70 145 -93 212v2c9 4 16 8 23 14c41 31 50 86 50 152c0 100 -27 148 -75 158v8c51 0 103 -3 140 -10c124 -20 172 -75 172 -163c0 -64 -38 -117 -93 -145v-3c40 -81 86 -144 123 -195c37 -56 84 -104 121 -110v-8c-35 -1 -159 0 -214 1
c-66 2 -103 16 -154 87zM313 630v-506c0 -89 42 -106 88 -116v-8h-388v8c51 10 74 34 74 116v382c0 82 -23 106 -74 116v8h300z" />
    <glyph glyph-name="S" unicode="S" horiz-adv-x="541" 
d="M485 438h-9c-33 83 -87 169 -168 191v9c38 0 137 -13 169 -24zM513 213c0 -132 -89 -213 -250 -221v9c35 9 58 43 58 87c0 65 -54 91 -148 145c-81 45 -134 104 -134 203c0 137 132 195 242 202v-9c-33 -7 -58 -30 -58 -82c0 -73 69 -102 138 -143
c71 -42 152 -82 152 -191zM232 -8c-64 5 -159 20 -185 32l-11 208h9c28 -88 111 -203 187 -231v-9z" />
    <glyph glyph-name="T" unicode="T" horiz-adv-x="701" 
d="M218 630v-8c-40 -17 -72 -38 -111 -80c-39 -43 -63 -92 -80 -147h-9l3 235h197zM484 622v8h197l2 -235h-9c-16 55 -40 103 -79 146s-71 64 -111 81zM464 630v-506c0 -82 22 -106 74 -116v-8h-374v8c44 10 74 27 74 116v506h226z" />
    <glyph glyph-name="U" unicode="U" horiz-adv-x="677" 
d="M428 630h280v-8c-40 -7 -70 -23 -93 -59c-19 -29 -38 -102 -38 -137h-10c0 35 -21 107 -40 136c-28 42 -68 54 -99 60v8zM80 243v263c0 82 -23 106 -74 116v8h373v-8c-44 -10 -73 -27 -73 -116v-300c0 -81 17 -121 61 -147c38 -23 80 -23 113 -22c8 0 28 2 32 5v-7
c-12 -10 -75 -43 -165 -43c-66 0 -120 11 -161 31c-71 37 -106 110 -106 220z" />
    <glyph glyph-name="V" unicode="V" horiz-adv-x="643" 
d="M346 486l104 -255l-95 -233h-57l-205 505c-33 80 -68 113 -114 119v8h402v-8c-28 -3 -59 -14 -59 -52c0 -21 10 -50 24 -84zM448 630h232v-8c-38 -6 -67 -25 -93 -55c-28 -33 -43 -70 -62 -116l-8 4c4 12 12 59 12 79c0 48 -21 81 -81 88v8z" />
    <glyph glyph-name="W" unicode="W" horiz-adv-x="973" 
d="M341 488l70 -228l-95 -262h-57l-171 505c-31 81 -65 113 -111 119v8h382v-8c-26 -3 -42 -17 -42 -43c0 -19 12 -52 24 -91zM715 488l71 -228l-95 -262h-57l-184 540c-19 54 -30 78 -68 84v8h364v-8c-33 -3 -50 -22 -50 -45c0 -19 7 -51 19 -89zM783 630h222v-8
c-38 -6 -67 -25 -93 -55c-28 -33 -48 -70 -66 -116l-8 4c7 32 13 76 13 97c0 39 -23 63 -68 70v8z" />
    <glyph glyph-name="X" unicode="X" horiz-adv-x="723" 
d="M339 124l-219 382c-46 72 -85 112 -128 116v8h427v-8c-31 -4 -59 -17 -59 -47c0 -22 13 -49 30 -77l226 -387c31 -52 68 -96 116 -103v-8h-424v8c31 3 60 21 60 47c0 21 -9 37 -29 69zM251 0h-255v8c82 18 158 109 219 188l6 -9c-14 -23 -42 -87 -42 -113
c0 -38 28 -58 72 -66v-8zM474 630h255v-8c-39 -8 -80 -36 -114 -68c-36 -33 -77 -83 -105 -120l-6 10c14 21 42 85 42 111c0 38 -26 59 -72 67v8z" />
    <glyph glyph-name="Y" unicode="Y" horiz-adv-x="642" 
d="M676 622c-62 -10 -136 -83 -183 -161l-7 6c13 27 30 64 30 87c0 34 -15 65 -62 68v8h222v-8zM206 124v166l-133 259c-22 41 -49 65 -91 73v8h386v-8c-30 -1 -60 -22 -60 -50c0 -16 12 -41 22 -60l101 -194v-194c0 -89 30 -106 74 -116v-8h-374v8c52 10 75 34 75 116z" />
    <glyph glyph-name="Z" unicode="Z" horiz-adv-x="644" 
d="M311 623c-122 -19 -225 -110 -269 -239h-9c9 85 15 192 20 246h258v-7zM624 630l-367 -630h-250l366 630h251zM599 0h-274v8c130 18 237 123 296 252h8c-12 -98 -20 -189 -30 -260z" />
    <glyph glyph-name="bracketleft" unicode="[" horiz-adv-x="316" 
d="M67 -219v857h233v-13h-109v-831h109v-13h-233z" />
    <glyph glyph-name="backslash" unicode="\" horiz-adv-x="314" 
d="M342 -142l-34 -12l-316 776l32 11z" />
    <glyph glyph-name="bracketright" unicode="]" horiz-adv-x="316" 
d="M249 638v-857h-233v13h109v831h-109v13h233z" />
    <glyph glyph-name="asciicircum" unicode="^" horiz-adv-x="371" 
d="M283 321l-97 223l-97 -223h-39l118 270h36l118 -270h-39z" />
    <glyph glyph-name="underscore" unicode="_" horiz-adv-x="484" 
d="M492 -132h-500v47h500v-47z" />
    <glyph glyph-name="grave" unicode="`" horiz-adv-x="240" 
d="M169 507l-174 128l126 79l57 -202z" />
    <glyph glyph-name="a" unicode="a" horiz-adv-x="512" 
d="M103 418v3c51 33 115 60 182 60c132 0 176 -63 176 -153v-219c0 -26 12 -38 33 -38c10 0 17 3 20 5l1 -2c-15 -41 -58 -82 -130 -82c-79 0 -120 44 -120 133v190c0 84 -70 103 -162 103zM235 75c7 0 16 2 20 5v-3c-5 -23 -48 -85 -123 -85c-80 0 -122 52 -122 122
c0 53 31 90 56 99c21 8 144 33 181 40v-6c-9 -4 -22 -10 -27 -18c-10 -16 -16 -41 -16 -65c0 -73 10 -89 31 -89zM51 335c0 36 29 65 66 65c36 0 65 -29 65 -65c0 -37 -29 -66 -65 -66c-37 0 -66 29 -66 66z" />
    <glyph glyph-name="b" unicode="b" horiz-adv-x="610" 
d="M17 626l-16 10v4l239 64l4 -3c-1 -41 -3 -98 -3 -138v-429c0 -21 2 -54 10 -80c7 -26 21 -48 42 -54v-8c-123 5 -154 57 -167 68h-2l-86 -50l-5 3c9 25 11 84 11 125v425c0 36 -5 49 -27 63zM313 -8v8c39 13 66 77 66 193c0 149 -29 224 -93 224c-8 0 -18 -2 -25 -5v3
c18 24 68 66 139 66c124 0 189 -67 189 -219c0 -126 -75 -252 -276 -270z" />
    <glyph glyph-name="c" unicode="c" horiz-adv-x="462" 
d="M297 479v-8c-24 -7 -86 -40 -86 -167c0 -135 68 -173 127 -173c51 0 94 22 113 48l6 -4c-10 -64 -65 -183 -221 -183c-150 0 -221 112 -221 228c0 146 132 249 282 259zM291 390c0 44 37 80 81 80s81 -36 81 -80s-37 -81 -81 -81s-81 37 -81 81z" />
    <glyph glyph-name="d" unicode="d" horiz-adv-x="606" 
d="M556 563v-448c0 -48 5 -67 26 -77c3 -1 22 -11 25 -11v-5l-244 -30l-3 3v333c0 55 -12 92 -28 113c-17 22 -39 30 -52 31v6c6 2 18 3 32 3c21 0 38 -3 46 -6v59c0 44 -4 73 -29 92l-13 10v4l240 64l3 -3c-1 -41 -3 -98 -3 -138zM345 104v-4c-17 -58 -72 -108 -142 -108
c-104 0 -187 85 -187 216c0 171 148 248 246 267v-8c-23 -15 -35 -110 -35 -189c0 -145 54 -180 90 -180c11 0 22 3 28 6z" />
    <glyph glyph-name="e" unicode="e" horiz-adv-x="477" 
d="M245 480v-8c-17 -16 -34 -51 -34 -173c0 -129 60 -168 140 -168c55 0 88 17 111 49l7 -4c-10 -62 -67 -184 -223 -184c-159 0 -232 114 -232 230c0 143 89 238 231 258zM454 315h-218v7l55 13c-1 64 -9 126 -27 138v8c142 -6 190 -80 190 -166z" />
    <glyph glyph-name="f" unicode="f" horiz-adv-x="355" 
d="M369 688c45 0 81 -36 81 -81s-36 -82 -81 -82s-81 37 -81 82s36 81 81 81zM307 6v-6h-292v6c28 7 44 16 44 67v326h-68v8l69 66v32c0 118 99 189 260 199v-6c-36 -6 -65 -33 -65 -98v-132h102l-10 -69h-92v-326c0 -51 24 -61 52 -67z" />
    <glyph glyph-name="g" unicode="g" horiz-adv-x="526" 
d="M275 320c0 106 -6 149 -35 154v7c110 -2 211 -42 211 -155c0 -120 -121 -156 -204 -161v7c21 7 28 55 28 148zM20 317c0 118 121 158 204 164v-7c-21 -7 -28 -59 -28 -151c0 -106 6 -146 35 -151v-7c-107 2 -211 46 -211 152zM540 367l-111 67l-1 6l125 56zM367 -171v6
c18 12 38 31 38 56c0 31 -21 39 -59 39s-166 -8 -209 -8c-70 0 -126 45 -126 111c0 28 12 53 25 72c22 31 54 57 72 71l3 -4c-4 -6 -8 -14 -8 -23c0 -19 16 -26 41 -26c38 0 158 8 220 8c91 0 149 -31 149 -121c0 -93 -83 -147 -146 -181zM341 -175v-7
c-17 -11 -98 -52 -201 -52c-92 0 -140 29 -140 70c0 32 56 63 134 76l2 -3c-7 -7 -15 -23 -15 -44c0 -42 29 -67 94 -67c49 0 99 13 126 27z" />
    <glyph glyph-name="h" unicode="h" horiz-adv-x="606" 
d="M251 563v-502c0 -38 13 -50 36 -55v-6h-275v6c24 7 43 16 43 67v492c0 37 -5 48 -27 63l-12 8v5l236 63l2 -3c-1 -41 -3 -98 -3 -138zM355 61v256c0 50 -22 67 -59 67c-9 0 -20 -3 -27 -5v3c25 49 88 99 163 99c94 0 119 -60 119 -140v-268c0 -51 19 -60 44 -67v-6h-276
v6c23 5 36 17 36 55z" />
    <glyph glyph-name="i" unicode="i" horiz-adv-x="313" 
d="M58 73v271c0 36 -6 48 -27 63l-13 9v4l236 63l3 -4c-1 -41 -3 -97 -3 -137v-269c0 -50 19 -60 45 -67v-6h-285v6c27 7 44 16 44 67zM54 597c0 57 44 95 101 95s104 -38 104 -95s-47 -94 -104 -94s-101 37 -101 94z" />
    <glyph glyph-name="j" unicode="j" horiz-adv-x="299" 
d="M53 51v293c0 36 -5 48 -27 63l-13 9v4l237 63l2 -4c-1 -41 -3 -97 -3 -137v-270c0 -151 -106 -212 -187 -254c-27 -15 -70 -30 -107 -40l-2 7c14 8 35 25 45 36c52 62 53 108 55 230zM49 597c0 57 44 95 102 95c56 0 103 -38 103 -95s-47 -94 -103 -94
c-58 0 -102 37 -102 94z" />
    <glyph glyph-name="k" unicode="k" horiz-adv-x="602" 
d="M55 73v496c0 37 -5 48 -27 63l-12 8v5l236 62l2 -3c-1 -41 -3 -98 -3 -138v-493c0 -50 18 -60 45 -67v-6h-284v6c27 7 43 16 43 67zM266 209l119 127c30 -58 114 -183 151 -232c47 -61 75 -85 97 -97v-7c-24 -1 -122 -3 -157 -3c-44 0 -81 8 -105 33
c-46 49 -83 116 -105 179zM602 468v-8c-36 -8 -90 -25 -132 -58c-22 -15 -43 -34 -59 -53l-7 10c7 11 12 24 12 48c0 33 -27 48 -59 53v8h245z" />
    <glyph glyph-name="l" unicode="l" horiz-adv-x="310" 
d="M55 73v496c0 37 -5 48 -27 63l-12 8v5l236 62l2 -3c-1 -41 -3 -98 -3 -138v-493c0 -50 18 -60 45 -67v-6h-284v6c27 7 43 16 43 67z" />
    <glyph glyph-name="m" unicode="m" horiz-adv-x="896" 
d="M254 479v-418c0 -38 13 -50 36 -55v-6h-276v6c27 7 44 16 44 67v271c0 36 -6 48 -26 62l-13 9v4l232 64zM548 341v-280c0 -39 11 -50 35 -55v-6h-267v6c23 5 36 17 36 55v256c0 50 -17 67 -55 67c-8 0 -18 -3 -25 -5v3c25 49 88 99 163 99c93 0 113 -60 113 -140zM645 61
v256c0 50 -17 67 -54 67c-9 0 -19 -3 -26 -5v3c25 49 88 99 163 99c94 0 113 -60 113 -140v-268c0 -51 18 -60 44 -67v-6h-276v6c23 5 36 17 36 55z" />
    <glyph glyph-name="n" unicode="n" horiz-adv-x="609" 
d="M358 61v256c0 50 -22 67 -60 67c-8 0 -19 -3 -26 -5v3c25 49 88 99 163 99c93 0 119 -60 119 -140v-268c0 -51 17 -60 44 -67v-6h-276v6c23 5 36 17 36 55zM254 479v-418c0 -38 13 -50 36 -55v-6h-276v6c27 7 44 16 44 67v271c0 36 -6 48 -26 62l-13 9v4l232 64z" />
    <glyph glyph-name="o" unicode="o" horiz-adv-x="566" 
d="M217 219c0 -159 18 -200 38 -213c7 -4 13 -6 19 -7v-7c-156 8 -262 107 -262 239c0 141 102 235 260 250v-7c-7 -2 -17 -6 -23 -15c-17 -21 -32 -84 -32 -240zM348 254c0 159 -18 201 -38 213c-6 4 -12 6 -19 7v7c156 -8 263 -107 263 -239c0 -141 -102 -234 -261 -250v7
c7 2 18 7 24 15c17 22 31 84 31 240z" />
    <glyph glyph-name="p" unicode="p" horiz-adv-x="621" 
d="M321 -7c-11 -1 -22 0 -34 1c-10 0 -25 2 -35 5v-128c0 -45 21 -63 61 -70v-6h-301v6c27 7 44 16 44 67v472c0 36 -6 48 -27 63l-16 10v4l236 64l3 -3v-357c0 -25 4 -54 17 -78c11 -22 29 -37 52 -42v-8zM343 -4v8c29 18 47 96 47 205c0 146 -32 201 -94 201
c-10 0 -20 -2 -27 -5v4c15 24 78 72 148 72c130 0 182 -89 182 -217c0 -124 -62 -243 -256 -268z" />
    <glyph glyph-name="q" unicode="q" horiz-adv-x="605" 
d="M347 84v-3c-16 -56 -72 -89 -142 -89c-104 0 -189 82 -189 217c0 178 160 257 264 271v-8c-31 -11 -53 -109 -53 -194c0 -146 52 -200 92 -200c10 0 22 3 28 6zM558 480v-612c0 -51 18 -60 45 -67v-6h-302v6c39 7 61 25 61 70v460c0 64 -8 133 -67 143v7
c71 -1 126 -34 154 -64h2l101 64z" />
    <glyph glyph-name="r" unicode="r" horiz-adv-x="479" 
d="M382 280c-51 0 -88 35 -88 82c0 21 8 41 17 52c-2 2 -6 3 -9 3c-9 0 -21 -6 -29 -18v4c12 37 57 78 108 78c61 0 101 -38 101 -100c0 -58 -41 -101 -100 -101zM254 479v-410c0 -40 21 -58 51 -63v-6h-291v6c27 7 44 16 44 67v271c0 36 -5 48 -26 62l-13 9v4l232 64z" />
    <glyph glyph-name="s" unicode="s" horiz-adv-x="406" 
d="M210 481v-7c-21 -7 -41 -19 -41 -53c0 -41 57 -71 97 -99c67 -46 125 -94 125 -160c0 -101 -63 -159 -191 -170v6c23 7 37 21 37 50c0 37 -44 67 -93 98c-63 39 -123 84 -123 175c0 86 77 149 189 160zM234 474v7c48 0 114 -11 130 -15l5 -148h-7
c-17 63 -79 145 -128 156zM174 -2v-6c-52 -1 -120 16 -150 28l-3 153h7c18 -67 108 -163 146 -175z" />
    <glyph glyph-name="t" unicode="t" horiz-adv-x="393" 
d="M210 -8c-71 0 -158 22 -158 143v263h-49v21l230 180l15 -8v-123h140l-8 -70h-132v-218c0 -58 36 -80 86 -80c21 0 50 7 62 12v-6c-27 -50 -97 -114 -186 -114z" />
    <glyph glyph-name="u" unicode="u" horiz-adv-x="596" 
d="M53 129v248c0 41 -12 57 -54 65v8l248 28l2 -1v-321c0 -44 15 -64 51 -64c9 0 22 2 29 6v-4c-20 -48 -57 -102 -143 -102c-80 0 -133 41 -133 137zM542 477v-355c0 -50 7 -67 32 -81l20 -11v-5l-245 -29l-3 3v378c0 41 -5 57 -46 65v8l240 28z" />
    <glyph glyph-name="v" unicode="v" horiz-adv-x="461" 
d="M325 468h180v-8c-39 -9 -95 -56 -134 -141l-7 10c3 6 15 43 15 68c0 36 -21 60 -54 63v8zM-28 468h314v-8c-23 -3 -41 -19 -41 -42c0 -12 7 -32 17 -59l59 -153l-94 -208h-16l-157 370c-26 61 -52 86 -82 92v8z" />
    <glyph glyph-name="w" unicode="w" horiz-adv-x="721" 
d="M-28 468h285v-8c-16 -2 -28 -10 -28 -26c0 -8 4 -20 10 -37l65 -172l-100 -227h-15l-142 379c-21 55 -45 77 -75 83v8zM586 468h180v-8c-39 -9 -96 -60 -135 -141l-7 10c3 7 15 48 15 75c0 34 -21 53 -53 56v8zM273 468h291v-8c-23 -3 -41 -17 -41 -40
c0 -19 8 -44 16 -63l50 -132l-100 -227h-15l-152 406c-17 44 -26 53 -49 56v8z" />
    <glyph glyph-name="x" unicode="x" horiz-adv-x="532" 
d="M352 468h199v-8c-64 -18 -122 -74 -170 -146l-7 10c16 30 29 65 29 89c0 30 -20 44 -51 47v8zM472 83c29 -45 52 -63 88 -75v-8h-344v8c23 2 42 12 42 40c0 10 -8 32 -21 54c-27 47 -161 266 -182 297c-21 30 -51 56 -85 61v8h348v-8c-23 -2 -44 -13 -44 -37
c0 -11 10 -35 21 -55c23 -41 146 -237 177 -285zM180 0h-204v8c72 20 124 80 172 152l7 -11c-15 -29 -31 -58 -31 -83c0 -30 26 -56 56 -58v-8z" />
    <glyph glyph-name="y" unicode="y" horiz-adv-x="463" 
d="M321 468h191v-8c-48 -8 -105 -55 -144 -142l-8 9c3 6 15 45 15 70c0 37 -21 60 -54 63v8zM-29 468h315v-8c-23 -3 -42 -18 -42 -42c0 -11 8 -35 18 -59l58 -148l-99 -224h-7l-164 392c-25 59 -49 75 -79 81v8zM192 -110c-23 -57 -62 -124 -134 -124c-41 0 -78 29 -78 77
c0 44 35 74 75 74c52 0 73 -41 79 -79c19 14 43 42 51 55z" />
    <glyph glyph-name="z" unicode="z" horiz-adv-x="496" 
d="M20 273l18 195h179v-8c-74 -27 -144 -86 -189 -187h-8zM488 468l-268 -468h-217l267 468h218zM462 0h-194v7c80 21 166 118 207 211h8c-3 -14 -21 -218 -21 -218z" />
    <glyph glyph-name="braceleft" unicode="{" horiz-adv-x="345" 
d="M80 209v-1c119 -11 170 -57 170 -171v-166c0 -60 42 -82 73 -85v-7c-112 0 -205 58 -205 181v123c0 105 -50 122 -112 122v7c62 0 112 17 112 122v124c0 122 93 180 205 180v-7c-31 -3 -73 -25 -73 -85v-166c0 -113 -51 -160 -170 -171z" />
    <glyph glyph-name="bar" unicode="|" horiz-adv-x="220" 
d="M92 -220v857h36v-857h-36z" />
    <glyph glyph-name="braceright" unicode="}" horiz-adv-x="345" 
d="M265 208v1c-120 11 -170 58 -170 171v166c0 60 -43 82 -73 85v7c112 0 205 -58 205 -180v-124c0 -105 50 -122 112 -122v-7c-62 0 -112 -17 -112 -122v-123c0 -123 -93 -181 -205 -181v7c30 3 73 25 73 85v166c0 114 50 160 170 171z" />
    <glyph glyph-name="asciitilde" unicode="~" horiz-adv-x="433" 
d="M205 246c-18 12 -40 32 -69 32c-27 0 -47 -18 -52 -58l-48 2c5 61 42 106 100 106c44 0 62 -13 93 -35c20 -14 44 -35 73 -35s42 18 47 58l48 -2c-5 -67 -43 -106 -101 -106c-40 0 -64 19 -91 38z" />
    <glyph glyph-name="Adieresis" unicode="&#xc4;" horiz-adv-x="627" 
d="M295 144l-27 69h-143l16 44h108l-57 149l94 231h58l209 -521c28 -69 61 -101 96 -108v-8h-384v8c28 3 54 14 54 52c0 21 -10 50 -24 84zM201 835c44 0 80 -35 80 -80s-36 -82 -80 -82c-45 0 -81 37 -81 82s36 80 81 80zM430 835c45 0 81 -35 81 -80s-36 -82 -81 -82
c-43 0 -79 37 -79 82s36 80 79 80zM193 0h-228v8c36 6 62 23 85 50c28 33 39 54 56 96l8 -4c-2 -9 -6 -31 -6 -51c0 -49 23 -84 85 -91v-8z" />
    <glyph glyph-name="Aring" unicode="&#xc5;" horiz-adv-x="627" 
d="M295 144l-27 69h-143l16 44h108l-57 149l94 231h58l209 -521c28 -69 61 -101 96 -108v-8h-384v8c28 3 54 14 54 52c0 21 -10 50 -24 84zM220 756c0 48 40 78 80 81v-22c-23 -1 -55 -17 -55 -59s32 -58 55 -60v-21c-40 3 -80 32 -80 81zM401 756c0 -48 -40 -78 -79 -81v21
c22 2 54 18 54 60s-33 58 -54 59v22c39 -3 79 -31 79 -81zM193 0h-228v8c36 6 62 23 85 50c28 33 39 54 56 96l8 -4c-2 -9 -6 -31 -6 -51c0 -49 23 -84 85 -91v-8z" />
    <glyph glyph-name="Ccedilla" unicode="&#xc7;" horiz-adv-x="673" 
d="M623 406h-9c-19 76 -75 162 -151 204c-16 9 -33 16 -51 20v8c76 -1 166 -12 207 -26zM617 236h9l-4 -217c-40 -13 -135 -22 -208 -26v8c18 4 34 11 50 19c77 46 134 139 153 216zM380 -1v-7c-233 12 -363 143 -363 323c0 187 172 306 360 323v-8c-11 -2 -30 -12 -42 -23
c-39 -36 -73 -107 -73 -281c0 -162 26 -269 81 -311c13 -11 25 -14 37 -16zM320 -227l3 -7c-18 -9 -53 -16 -73 -16c-34 0 -54 18 -54 41c0 19 19 43 50 56c18 -47 46 -77 74 -74zM333 -229l-3 7c4 4 5 7 5 11c0 9 -10 19 -29 46c-13 17 -27 38 -27 54c0 27 47 62 104 91
l5 -5c-7 -8 -8 -15 -8 -25c0 -12 15 -35 25 -49c17 -26 26 -41 26 -53c0 -7 -1 -16 -11 -26c-13 -13 -51 -40 -87 -51z" />
    <glyph glyph-name="Eacute" unicode="&#xc9;" horiz-adv-x="641" 
d="M475 709l-242 -35l-2 7l198 146zM353 321c78 23 116 69 142 155h8v-317h-8c-26 86 -64 132 -142 154v8zM13 0v8c51 10 74 34 74 116v382c0 82 -23 106 -74 116v8h300v-630h-300zM585 396c-20 60 -46 104 -89 145c-35 34 -87 64 -146 81v8h237l6 -234h-8zM353 0v8
c57 12 106 41 145 80c45 45 73 103 97 166h8l-9 -254h-241z" />
    <glyph glyph-name="Ntilde" unicode="&#xd1;" horiz-adv-x="734" 
d="M551 847l9 -3c-15 -60 -54 -141 -129 -141c-41 0 -141 5 -174 5c-25 0 -53 -8 -66 -32l-7 3c18 77 76 143 140 143c54 0 131 -5 169 -5c30 0 50 14 58 30zM275 0h-278v8c39 7 69 30 93 66c19 29 36 104 36 139h10c0 -35 16 -108 36 -137c28 -42 71 -62 103 -68v-8z
M473 -1l-377 529c-18 25 -36 47 -56 63c-19 15 -41 26 -67 31v8h346l287 -399v-232h-133zM457 630h278v-8c-39 -7 -70 -30 -93 -66c-19 -29 -36 -92 -36 -127h-10c0 35 -17 96 -36 125c-28 42 -72 62 -103 68v8z" />
    <glyph glyph-name="Odieresis" unicode="&#xd6;" horiz-adv-x="746" 
d="M258 835c44 0 80 -35 80 -80s-36 -82 -80 -82c-45 0 -81 37 -81 82s36 80 81 80zM487 835c45 0 81 -35 81 -80s-36 -82 -81 -82c-43 0 -79 37 -79 82s36 80 79 80zM372 -1v-7c-208 12 -353 136 -353 322c0 201 171 304 324 323v-7c-9 -2 -28 -10 -39 -24
c-30 -32 -40 -106 -40 -279c0 -165 11 -273 69 -313c11 -7 27 -13 39 -15zM374 631v7c208 -12 353 -136 353 -322c0 -201 -170 -304 -323 -323v7c9 2 26 9 37 22c30 32 41 108 41 281c0 165 -11 273 -69 313c-11 7 -27 13 -39 15z" />
    <glyph glyph-name="Udieresis" unicode="&#xdc;" horiz-adv-x="677" 
d="M428 630h280v-8c-40 -7 -70 -23 -93 -59c-19 -29 -38 -102 -38 -137h-10c0 35 -21 107 -40 136c-28 42 -68 54 -99 60v8zM277 835c44 0 80 -35 80 -80s-36 -82 -80 -82c-45 0 -81 37 -81 82s36 80 81 80zM506 835c45 0 81 -35 81 -80s-36 -82 -81 -82
c-43 0 -79 37 -79 82s36 80 79 80zM80 243v263c0 82 -23 106 -74 116v8h373v-8c-44 -10 -73 -27 -73 -116v-300c0 -81 17 -121 61 -147c38 -23 80 -23 113 -22c8 0 28 2 32 5v-7c-12 -10 -75 -43 -165 -43c-66 0 -120 11 -161 31c-71 37 -106 110 -106 220z" />
    <glyph glyph-name="aacute" unicode="&#xe1;" horiz-adv-x="512" 
d="M103 418v3c51 33 115 60 182 60c132 0 176 -63 176 -153v-219c0 -26 12 -38 33 -38c10 0 17 3 20 5l1 -2c-15 -41 -58 -82 -130 -82c-79 0 -120 44 -120 133v190c0 84 -70 103 -162 103zM235 75c7 0 16 2 20 5v-3c-5 -23 -48 -85 -123 -85c-80 0 -122 52 -122 122
c0 53 31 90 56 99c21 8 144 33 181 40v-6c-9 -4 -22 -10 -27 -18c-10 -16 -16 -41 -16 -65c0 -73 10 -89 31 -89zM51 335c0 36 29 65 66 65c36 0 65 -29 65 -65c0 -37 -29 -66 -65 -66c-37 0 -66 29 -66 66zM409 635l-173 -128l-9 5l57 202z" />
    <glyph glyph-name="agrave" unicode="&#xe0;" horiz-adv-x="512" 
d="M103 418v3c51 33 115 60 182 60c132 0 176 -63 176 -153v-219c0 -26 12 -38 33 -38c10 0 17 3 20 5l1 -2c-15 -41 -58 -82 -130 -82c-79 0 -120 44 -120 133v190c0 84 -70 103 -162 103zM235 75c7 0 16 2 20 5v-3c-5 -23 -48 -85 -123 -85c-80 0 -122 52 -122 122
c0 53 31 90 56 99c21 8 144 33 181 40v-6c-9 -4 -22 -10 -27 -18c-10 -16 -16 -41 -16 -65c0 -73 10 -89 31 -89zM51 335c0 36 29 65 66 65c36 0 65 -29 65 -65c0 -37 -29 -66 -65 -66c-37 0 -66 29 -66 66zM329 507l-174 128l126 79l57 -202z" />
    <glyph glyph-name="acircumflex" unicode="&#xe2;" horiz-adv-x="512" 
d="M103 418v3c51 33 115 60 182 60c132 0 176 -63 176 -153v-219c0 -26 12 -38 33 -38c10 0 17 3 20 5l1 -2c-15 -41 -58 -82 -130 -82c-79 0 -120 44 -120 133v190c0 84 -70 103 -162 103zM235 75c7 0 16 2 20 5v-3c-5 -23 -48 -85 -123 -85c-80 0 -122 52 -122 122
c0 53 31 90 56 99c21 8 144 33 181 40v-6c-9 -4 -22 -10 -27 -18c-10 -16 -16 -41 -16 -65c0 -73 10 -89 31 -89zM51 335c0 36 29 65 66 65c36 0 65 -29 65 -65c0 -37 -29 -66 -65 -66c-37 0 -66 29 -66 66zM154 513l-6 5l130 182h4l131 -182l-8 -4l-120 67h-9z" />
    <glyph glyph-name="adieresis" unicode="&#xe4;" horiz-adv-x="512" 
d="M103 418v3c51 33 115 60 182 60c132 0 176 -63 176 -153v-219c0 -26 12 -38 33 -38c10 0 17 3 20 5l1 -2c-15 -41 -58 -82 -130 -82c-79 0 -120 44 -120 133v190c0 84 -70 103 -162 103zM235 75c7 0 16 2 20 5v-3c-5 -23 -48 -85 -123 -85c-80 0 -122 52 -122 122
c0 53 31 90 56 99c21 8 144 33 181 40v-6c-9 -4 -22 -10 -27 -18c-10 -16 -16 -41 -16 -65c0 -73 10 -89 31 -89zM51 335c0 36 29 65 66 65c36 0 65 -29 65 -65c0 -37 -29 -66 -65 -66c-37 0 -66 29 -66 66zM175 668c42 0 77 -34 77 -76s-35 -78 -77 -78s-76 36 -76 78
s34 76 76 76zM382 668c43 0 76 -34 76 -76s-33 -78 -76 -78c-42 0 -76 36 -76 78s34 76 76 76z" />
    <glyph glyph-name="atilde" unicode="&#xe3;" horiz-adv-x="512" 
d="M103 418v3c51 33 115 60 182 60c132 0 176 -63 176 -153v-219c0 -26 12 -38 33 -38c10 0 17 3 20 5l1 -2c-15 -41 -58 -82 -130 -82c-79 0 -120 44 -120 133v190c0 84 -70 103 -162 103zM235 75c7 0 16 2 20 5v-3c-5 -23 -48 -85 -123 -85c-80 0 -122 52 -122 122
c0 53 31 90 56 99c21 8 144 33 181 40v-6c-9 -4 -22 -10 -27 -18c-10 -16 -16 -41 -16 -65c0 -73 10 -89 31 -89zM51 335c0 36 29 65 66 65c36 0 65 -29 65 -65c0 -37 -29 -66 -65 -66c-37 0 -66 29 -66 66zM449 694l9 -3c-15 -62 -64 -152 -124 -152c-41 0 -131 5 -164 5
c-25 0 -45 -6 -59 -34l-7 3c18 77 84 146 132 146c54 0 123 -5 161 -5c31 0 42 20 52 40z" />
    <glyph glyph-name="aring" unicode="&#xe5;" horiz-adv-x="512" 
d="M103 418v3c51 33 115 60 182 60c132 0 176 -63 176 -153v-219c0 -26 12 -38 33 -38c10 0 17 3 20 5l1 -2c-15 -41 -58 -82 -130 -82c-79 0 -120 44 -120 133v190c0 84 -70 103 -162 103zM235 75c7 0 16 2 20 5v-3c-5 -23 -48 -85 -123 -85c-80 0 -122 52 -122 122
c0 53 31 90 56 99c21 8 144 33 181 40v-6c-9 -4 -22 -10 -27 -18c-10 -16 -16 -41 -16 -65c0 -73 10 -89 31 -89zM51 335c0 36 29 65 66 65c36 0 65 -29 65 -65c0 -37 -29 -66 -65 -66c-37 0 -66 29 -66 66zM192 596c0 48 35 81 77 85v-21c-28 -2 -53 -22 -53 -64
s25 -62 53 -64v-21c-42 3 -77 35 -77 85zM368 596c0 -48 -35 -82 -77 -85v21c27 2 52 22 52 64s-25 62 -52 64v21c42 -4 77 -35 77 -85z" />
    <glyph glyph-name="ccedilla" unicode="&#xe7;" horiz-adv-x="462" 
d="M297 479v-8c-24 -7 -86 -40 -86 -167c0 -135 68 -173 127 -173c51 0 94 22 113 48l6 -4c-10 -64 -65 -183 -221 -183c-150 0 -221 112 -221 228c0 146 132 249 282 259zM291 390c0 44 37 80 81 80s81 -36 81 -80s-37 -81 -81 -81s-81 37 -81 81zM177 -218l3 -8
c-17 -7 -50 -15 -68 -15c-33 0 -51 18 -51 39c0 20 22 41 46 51c12 -32 43 -70 70 -67zM189 -220l-3 7c4 3 5 7 5 11c0 9 -7 20 -26 46c-12 17 -25 34 -25 50c0 27 44 60 98 88l4 -4c-7 -9 -9 -14 -9 -25s14 -34 23 -48c16 -24 25 -39 25 -50c0 -7 -2 -16 -11 -26
c-12 -12 -47 -38 -81 -49z" />
    <glyph glyph-name="eacute" unicode="&#xe9;" horiz-adv-x="477" 
d="M385 635l-173 -128l-9 5l57 202zM245 480v-8c-17 -16 -34 -51 -34 -173c0 -129 60 -168 140 -168c55 0 88 17 111 49l7 -4c-10 -62 -67 -184 -223 -184c-159 0 -232 114 -232 230c0 143 89 238 231 258zM454 315h-218v7l55 13c-1 64 -9 126 -27 138v8
c142 -6 190 -80 190 -166z" />
    <glyph glyph-name="egrave" unicode="&#xe8;" horiz-adv-x="477" 
d="M245 480v-8c-17 -16 -34 -51 -34 -173c0 -129 60 -168 140 -168c55 0 88 17 111 49l7 -4c-10 -62 -67 -184 -223 -184c-159 0 -232 114 -232 230c0 143 89 238 231 258zM454 315h-218v7l55 13c-1 64 -9 126 -27 138v8c142 -6 190 -80 190 -166zM298 507l-174 128l126 79
l57 -202z" />
    <glyph glyph-name="ecircumflex" unicode="&#xea;" horiz-adv-x="477" 
d="M124 513l-6 5l130 182h4l131 -182l-8 -4l-120 67h-9zM245 480v-8c-17 -16 -34 -51 -34 -173c0 -129 60 -168 140 -168c55 0 88 17 111 49l7 -4c-10 -62 -67 -184 -223 -184c-159 0 -232 114 -232 230c0 143 89 238 231 258zM454 315h-218v7l55 13c-1 64 -9 126 -27 138v8
c142 -6 190 -80 190 -166z" />
    <glyph glyph-name="edieresis" unicode="&#xeb;" horiz-adv-x="477" 
d="M146 668c42 0 77 -34 77 -76s-35 -78 -77 -78s-76 36 -76 78s34 76 76 76zM353 668c43 0 76 -34 76 -76s-33 -78 -76 -78c-42 0 -76 36 -76 78s34 76 76 76zM245 480v-8c-17 -16 -34 -51 -34 -173c0 -129 60 -168 140 -168c55 0 88 17 111 49l7 -4
c-10 -62 -67 -184 -223 -184c-159 0 -232 114 -232 230c0 143 89 238 231 258zM454 315h-218v7l55 13c-1 64 -9 126 -27 138v8c142 -6 190 -80 190 -166z" />
    <glyph glyph-name="iacute" unicode="&#xed;" horiz-adv-x="313" 
d="M58 73v271c0 36 -6 48 -27 63l-13 9v4l236 63l3 -4c-1 -41 -3 -97 -3 -137v-269c0 -50 19 -60 45 -67v-6h-285v6c27 7 44 16 44 67zM264 635l-173 -128l-9 5l57 202z" />
    <glyph glyph-name="igrave" unicode="&#xec;" horiz-adv-x="313" 
d="M60 73v271c0 36 -6 48 -27 63l-13 9v4l236 63l3 -4c-1 -41 -3 -97 -3 -137v-269c0 -50 19 -60 45 -67v-6h-285v6c27 7 44 16 44 67zM198 507l-174 128l126 79l57 -202z" />
    <glyph glyph-name="icircumflex" unicode="&#xee;" horiz-adv-x="313" 
d="M60 73v271c0 36 -6 48 -27 63l-13 9v4l236 63l3 -4c-1 -41 -3 -97 -3 -137v-269c0 -50 19 -60 45 -67v-6h-285v6c27 7 44 16 44 67zM23 513l-6 5l130 182h4l131 -182l-8 -4l-120 67h-9z" />
    <glyph glyph-name="idieresis" unicode="&#xef;" horiz-adv-x="313" 
d="M60 73v271c0 36 -6 48 -27 63l-13 9v4l236 63l3 -4c-1 -41 -3 -97 -3 -137v-269c0 -50 19 -60 45 -67v-6h-285v6c27 7 44 16 44 67zM50 668c42 0 77 -34 77 -76s-35 -78 -77 -78s-76 36 -76 78s34 76 76 76zM257 668c43 0 76 -34 76 -76s-33 -78 -76 -78
c-42 0 -76 36 -76 78s34 76 76 76z" />
    <glyph glyph-name="ntilde" unicode="&#xf1;" horiz-adv-x="609" 
d="M358 61v256c0 50 -22 67 -60 67c-8 0 -19 -3 -26 -5v3c25 49 88 99 163 99c93 0 119 -60 119 -140v-268c0 -51 17 -60 44 -67v-6h-276v6c23 5 36 17 36 55zM254 479v-418c0 -38 13 -50 36 -55v-6h-276v6c27 7 44 16 44 67v271c0 36 -6 48 -27 62c-1 2 -10 8 -12 9v4
l232 64zM480 694l9 -3c-15 -62 -64 -152 -124 -152c-41 0 -131 5 -164 5c-25 0 -45 -6 -59 -34l-7 3c18 77 84 146 132 146c54 0 123 -5 161 -5c31 0 42 20 52 40z" />
    <glyph glyph-name="oacute" unicode="&#xf3;" horiz-adv-x="566" 
d="M406 635l-173 -128l-9 5l57 202zM217 219c0 -159 18 -200 38 -213c7 -4 13 -6 19 -7v-7c-156 8 -262 107 -262 239c0 141 102 235 260 250v-7c-7 -2 -17 -6 -23 -15c-17 -21 -32 -84 -32 -240zM348 254c0 159 -18 201 -38 213c-6 4 -12 6 -19 7v7
c156 -8 263 -107 263 -239c0 -141 -102 -234 -261 -250v7c7 2 18 7 24 15c17 22 31 84 31 240z" />
    <glyph glyph-name="ograve" unicode="&#xf2;" horiz-adv-x="566" 
d="M217 219c0 -159 18 -200 38 -213c7 -4 13 -6 19 -7v-7c-156 8 -262 107 -262 239c0 141 102 235 260 250v-7c-7 -2 -17 -6 -23 -15c-17 -21 -32 -84 -32 -240zM348 254c0 159 -18 201 -38 213c-6 4 -12 6 -19 7v7c156 -8 263 -107 263 -239c0 -141 -102 -234 -261 -250v7
c7 2 18 7 24 15c17 22 31 84 31 240zM341 507l-174 128l126 79l57 -202z" />
    <glyph glyph-name="ocircumflex" unicode="&#xf4;" horiz-adv-x="566" 
d="M148 513l-6 5l130 182h4l131 -182l-8 -4l-120 67h-9zM217 219c0 -159 18 -200 38 -213c7 -4 13 -6 19 -7v-7c-156 8 -262 107 -262 239c0 141 102 235 260 250v-7c-7 -2 -17 -6 -23 -15c-17 -21 -32 -84 -32 -240zM348 254c0 159 -18 201 -38 213c-6 4 -12 6 -19 7v7
c156 -8 263 -107 263 -239c0 -141 -102 -234 -261 -250v7c7 2 18 7 24 15c17 22 31 84 31 240z" />
    <glyph glyph-name="odieresis" unicode="&#xf6;" horiz-adv-x="566" 
d="M179 668c42 0 77 -34 77 -76s-35 -78 -77 -78s-76 36 -76 78s34 76 76 76zM386 668c43 0 76 -34 76 -76s-33 -78 -76 -78c-42 0 -76 36 -76 78s34 76 76 76zM217 219c0 -159 18 -200 38 -213c7 -4 13 -6 19 -7v-7c-156 8 -262 107 -262 239c0 141 102 235 260 250v-7
c-7 -2 -17 -6 -23 -15c-17 -21 -32 -84 -32 -240zM348 254c0 159 -18 201 -38 213c-6 4 -12 6 -19 7v7c156 -8 263 -107 263 -239c0 -141 -102 -234 -261 -250v7c7 2 18 7 24 15c17 22 31 84 31 240z" />
    <glyph glyph-name="otilde" unicode="&#xf5;" horiz-adv-x="566" 
d="M217 219c0 -159 18 -200 38 -213c7 -4 13 -6 19 -7v-7c-156 8 -262 107 -262 239c0 141 102 235 260 250v-7c-7 -2 -17 -6 -23 -15c-17 -21 -32 -84 -32 -240zM348 254c0 159 -18 201 -38 213c-6 4 -12 6 -19 7v7c156 -8 263 -107 263 -239c0 -141 -102 -234 -261 -250v7
c7 2 18 7 24 15c17 22 31 84 31 240zM455 694l9 -3c-15 -62 -64 -152 -124 -152c-41 0 -131 5 -164 5c-25 0 -45 -6 -59 -34l-7 3c18 77 84 146 132 146c54 0 123 -5 161 -5c31 0 42 20 52 40z" />
    <glyph glyph-name="uacute" unicode="&#xfa;" horiz-adv-x="596" 
d="M449 635l-173 -128l-9 5l57 202zM53 129v248c0 41 -12 57 -54 65v8l248 28l2 -1v-321c0 -44 15 -64 51 -64c9 0 22 2 29 6v-4c-20 -48 -57 -102 -143 -102c-80 0 -133 41 -133 137zM542 477v-355c0 -50 7 -67 32 -81l20 -11v-5l-245 -29l-3 3v378c0 41 -5 57 -46 65v8
l240 28z" />
    <glyph glyph-name="ugrave" unicode="&#xf9;" horiz-adv-x="596" 
d="M53 129v248c0 41 -12 57 -54 65v8l248 28l2 -1v-321c0 -44 15 -64 51 -64c9 0 22 2 29 6v-4c-20 -48 -57 -102 -143 -102c-80 0 -133 41 -133 137zM338 507l-174 128l126 79l57 -202zM542 477v-355c0 -50 7 -67 32 -81l20 -11v-5l-245 -29l-3 3v378c0 41 -5 57 -46 65v8
l240 28z" />
    <glyph glyph-name="ucircumflex" unicode="&#xfb;" horiz-adv-x="596" 
d="M165 513l-6 5l130 182h4l131 -182l-8 -4l-120 67h-9zM53 129v248c0 41 -12 57 -54 65v8l248 28l2 -1v-321c0 -44 15 -64 51 -64c9 0 22 2 29 6v-4c-20 -48 -57 -102 -143 -102c-80 0 -133 41 -133 137zM542 477v-355c0 -50 7 -67 32 -81l20 -11v-5l-245 -29l-3 3v378
c0 41 -5 57 -46 65v8l240 28z" />
    <glyph glyph-name="udieresis" unicode="&#xfc;" horiz-adv-x="596" 
d="M186 668c42 0 77 -34 77 -76s-35 -78 -77 -78s-76 36 -76 78s34 76 76 76zM393 668c43 0 76 -34 76 -76s-33 -78 -76 -78c-42 0 -76 36 -76 78s34 76 76 76zM53 129v248c0 41 -12 57 -54 65v8l248 28l2 -1v-321c0 -44 15 -64 51 -64c9 0 22 2 29 6v-4
c-20 -48 -57 -102 -143 -102c-80 0 -133 41 -133 137zM542 477v-355c0 -50 7 -67 32 -81l20 -11v-5l-245 -29l-3 3v378c0 41 -5 57 -46 65v8l240 28z" />
    <glyph glyph-name="dagger" unicode="&#x2020;" horiz-adv-x="419" 
d="M232 501l18 -552h-79l18 552l-18 207h79zM403 464l-135 18v36l135 17v-71zM153 482l-137 -18v71l137 -17v-36z" />
    <glyph glyph-name="degree" unicode="&#xb0;" horiz-adv-x="304" 
d="M36 515c0 62 44 110 101 113v-22c-43 -4 -76 -40 -76 -91s33 -86 76 -90v-22c-57 3 -101 50 -101 112zM269 515c0 -62 -44 -109 -102 -112v22c43 4 76 39 76 90s-33 87 -76 91v22c58 -3 102 -51 102 -113z" />
    <glyph glyph-name="cent" unicode="&#xa2;" horiz-adv-x="464" 
d="M239 479v-8c-22 -10 -56 -72 -56 -167c0 -43 10 -77 27 -103l64 361h25l-69 -387c31 -31 72 -44 107 -44c51 0 94 22 113 48l7 -4c-10 -65 -66 -183 -222 -183c-13 0 -25 1 -37 3l-14 -82h-25l15 86c-109 26 -164 123 -164 221c0 138 92 226 229 259zM290 390
c0 44 37 80 81 80s80 -36 80 -80s-36 -81 -80 -81s-81 37 -81 81z" />
    <glyph glyph-name="sterling" unicode="&#xa3;" horiz-adv-x="569" 
d="M77 364h77c1 7 4 19 7 26c53 186 215 235 315 243l1 -6c-53 -17 -74 -97 -114 -253c0 -1 -3 -10 -3 -10h82v-27h-90c-5 -17 -12 -33 -21 -46h91v-27h-110c-41 -47 -114 -74 -220 -92l-5 3c12 13 27 42 41 89h-71v27h79l11 46h-70v27zM-31 -9l-2 2c25 81 89 160 188 160
c54 0 91 -8 134 -13c57 -6 102 -12 145 -12c63 0 90 7 112 45l4 -1c-8 -79 -44 -202 -163 -202c-46 0 -136 17 -190 22c-80 8 -103 9 -149 9c-27 0 -58 -4 -79 -10zM517 610c39 0 69 -30 69 -68s-30 -68 -69 -68c-38 0 -68 30 -68 68s30 68 68 68z" />
    <glyph glyph-name="section" unicode="&#xa7;" horiz-adv-x="534" 
d="M44 -133c0 40 33 73 73 73s75 -33 75 -73s-35 -75 -75 -75s-73 35 -73 75zM242 -140c0 52 -16 88 -116 183c-60 57 -119 137 -119 215c0 98 74 179 132 218l6 -6c-18 -17 -28 -37 -28 -62c0 -68 57 -145 133 -222c73 -75 123 -144 123 -207c0 -97 -101 -189 -191 -200v7
c39 9 60 37 60 74zM479 565c0 -40 -33 -73 -74 -73c-39 0 -74 33 -74 73s35 74 74 74c41 0 74 -34 74 -74zM289 572c0 -53 16 -88 116 -183c59 -57 124 -145 124 -223c0 -85 -59 -174 -133 -223l-5 6c17 17 28 51 28 76c0 68 -72 155 -142 231c-73 81 -119 134 -119 197
c0 97 101 179 190 200v-7c-38 -10 -59 -37 -59 -74z" />
    <glyph glyph-name="bullet" unicode="&#x2022;" horiz-adv-x="261" 
d="M21 278c0 61 49 110 110 110c60 0 110 -49 110 -110s-50 -110 -110 -110c-61 0 -110 49 -110 110z" />
    <glyph glyph-name="paragraph" unicode="&#xb6;" horiz-adv-x="554" 
d="M376 145h-99c-117 0 -260 86 -260 240c0 147 123 245 260 245h267v-24h-168v-461zM477 -171h-27v744h27v-744zM348 -16v127h28v-126c0 -144 -74 -194 -150 -194c-69 0 -114 45 -114 103c0 49 45 86 75 93l2 -8c-29 -9 -48 -39 -48 -81c0 -44 34 -82 86 -82
c66 0 121 41 121 168zM179 -84c0 27 24 49 51 49c26 0 49 -22 49 -49s-23 -50 -49 -50c-27 0 -51 23 -51 50z" />
    <glyph glyph-name="germandbls" unicode="&#xdf;" horiz-adv-x="614" 
d="M434 502v-10c-6 -7 -15 -16 -15 -38c0 -39 47 -89 93 -134c84 -84 96 -117 96 -168c0 -74 -86 -142 -175 -154l-1 7c19 7 31 21 31 45c0 36 -23 66 -84 126c-45 45 -88 85 -88 140c0 86 77 144 143 186zM555 567l-109 -67c8 116 -44 185 -134 185v6c17 5 42 9 76 9
c113 0 169 -53 169 -115c0 -3 0 -11 -2 -18zM311 51c0 30 25 55 59 55s60 -25 60 -55s-25 -56 -60 -56s-59 26 -59 56zM299 6v-6h-284v6c28 7 44 16 44 67v328h-68v8l69 68v9c0 114 169 184 234 201v-6c-15 -9 -39 -35 -39 -98v-510c0 -51 16 -61 44 -67z" />
    <glyph glyph-name="registered" unicode="&#xae;" horiz-adv-x="400" 
d="M178 554v-168c0 -23 8 -27 23 -29v-7h-115v7c13 2 22 6 22 29v133c0 22 -9 28 -22 30v5h92zM392 445c0 -103 -72 -179 -175 -191v17c93 12 153 86 153 174s-60 162 -153 174v17c103 -11 175 -88 175 -191zM328 354v-5c-9 0 -51 0 -64 2c-23 2 -30 10 -46 34
c-10 15 -17 39 -26 59v5c13 3 22 18 22 49c0 33 -10 48 -26 51v5c12 0 27 -1 37 -3c43 -6 63 -26 63 -53c0 -20 -14 -38 -34 -47v-2c13 -25 29 -52 44 -69c11 -12 24 -23 30 -26zM8 445c0 103 73 180 175 191v-17c-93 -12 -153 -86 -153 -174s60 -162 153 -174v-17
c-102 12 -175 88 -175 191z" />
    <glyph glyph-name="copyright" unicode="&#xa9;" horiz-adv-x="682" 
d="M18 315c0 185 133 308 305 321v-17c-168 -14 -284 -131 -284 -304s116 -290 284 -304v-17c-172 13 -305 136 -305 321zM664 315c0 -185 -133 -308 -305 -321v17c168 14 284 131 284 304s-116 290 -284 304v17c172 -13 305 -136 305 -321zM510 368h-12
c-12 49 -42 109 -91 137c-12 5 -21 9 -33 12v9c50 -1 107 -10 133 -19zM500 267h12l-3 -143c-25 -8 -85 -16 -133 -19v9c12 2 20 7 31 13c50 29 81 90 93 140zM350 114v-10c-153 8 -233 94 -233 211c0 122 108 199 231 211v-9c-7 -1 -21 -8 -29 -15
c-25 -24 -53 -66 -53 -180c0 -106 23 -171 59 -199c8 -6 16 -8 25 -9z" />
    <glyph glyph-name="trademark" unicode="&#x2122;" horiz-adv-x="642" 
d="M80 630v-8c-24 -7 -54 -45 -66 -87h-9l3 95h72zM480 489l-43 -102h-13l-82 195c-11 27 -23 37 -51 41v7h130zM511 441l-10 189h123v-6c-23 -2 -30 -14 -29 -40l6 -143c2 -28 16 -40 30 -42v-6h-145v6c18 4 27 15 25 42zM381 393h-98v6c31 6 45 37 51 69h8
c0 -29 5 -65 39 -69v-6zM182 630v-195c0 -27 12 -34 28 -36v-6h-145v6c16 2 28 9 28 36v195h89zM195 622v8h72l4 -95h-9c-12 42 -43 80 -67 87z" />
    <glyph glyph-name="acute" unicode="&#xb4;" horiz-adv-x="240" 
d="M240 635l-173 -128l-9 5l57 202z" />
    <glyph glyph-name="dieresis" unicode="&#xa8;" horiz-adv-x="449" 
d="M121 668c42 0 77 -34 77 -76s-35 -78 -77 -78s-76 36 -76 78s34 76 76 76zM328 668c43 0 76 -34 76 -76s-33 -78 -76 -78c-42 0 -76 36 -76 78s34 76 76 76z" />
    <glyph glyph-name="AE" unicode="&#xc6;" horiz-adv-x="901" 
d="M202 0h-241v8c36 10 63 29 91 57c27 28 54 69 71 110l8 -4c-2 -9 -8 -35 -8 -63c0 -49 38 -95 79 -100v-8zM283 0v8c52 10 75 34 75 116v168h-184l24 45h160v169c0 82 -27 106 -79 116v8h304v-630h-300zM623 0v8c58 12 101 41 138 80c44 45 71 103 94 166h8l-9 -254h-231
zM853 396h-8c-19 56 -43 103 -83 143c-33 34 -82 66 -142 83v8h227zM756 159c-26 86 -56 132 -133 154v8c77 23 107 69 133 155h8v-317h-8z" />
    <glyph glyph-name="Oslash" unicode="&#xd8;" horiz-adv-x="746" 
d="M374 631v7c54 -3 104 -14 148 -31l51 84l28 -18l-49 -80c108 -53 175 -151 175 -277c0 -201 -170 -304 -323 -323v7c9 2 26 9 37 22c30 32 41 108 41 281c0 57 -2 108 -6 152l-202 -319c10 -59 28 -101 59 -122c11 -7 27 -13 39 -15v-7c-58 4 -110 15 -156 34l-57 -94
l-28 18l54 91c-103 54 -166 150 -166 273c0 201 171 304 324 323v-7c-9 -2 -28 -10 -39 -24c-30 -32 -40 -106 -40 -279c0 -52 1 -97 4 -137l201 317c-10 52 -27 89 -56 109c-11 7 -27 13 -39 15z" />
    <glyph glyph-name="yen" unicode="&#xa5;" horiz-adv-x="576" 
d="M75 270h86l-94 197c-21 42 -47 66 -89 73v8h354v-8c-30 -1 -55 -16 -55 -44c0 -16 9 -41 16 -57l76 -169h107v-23h-103v-50h102v-22h-102v-75c0 -67 18 -85 65 -92v-8h-327v8c48 7 65 25 65 92v75h-102v22h102v43l-4 7h-97v23zM605 540c-62 -9 -133 -83 -180 -160l-7 6
c13 27 26 68 26 90c0 33 -13 61 -60 64v8h221v-8z" />
    <glyph glyph-name="ordfeminine" unicode="&#xaa;" horiz-adv-x="322" 
d="M146 399c5 0 10 2 13 4v-5c-8 -21 -33 -48 -75 -48c-40 0 -68 26 -68 70c0 30 18 58 32 63c12 5 82 19 104 23v-7c-8 -4 -19 -7 -24 -16c-3 -8 -4 -25 -4 -39c0 -31 9 -45 22 -45zM40 558c0 21 16 37 37 37s38 -16 38 -37s-17 -38 -38 -38s-37 17 -37 38zM75 606v6
c30 17 64 26 107 26c74 0 100 -41 100 -92v-129c0 -16 7 -23 16 -23c5 0 13 1 15 3l1 -5c-9 -22 -37 -42 -78 -42c-44 0 -70 28 -70 78v117c0 45 -32 61 -91 61z" />
    <glyph glyph-name="ordmasculine" unicode="&#xba;" horiz-adv-x="351" 
d="M130 493c0 -67 10 -109 23 -124c5 -6 10 -9 14 -10v-9c-85 5 -154 68 -154 142c0 81 63 138 152 148v-9c-7 -1 -13 -6 -18 -13c-12 -18 -17 -61 -17 -125zM221 498c0 62 -10 105 -24 123c-4 6 -9 9 -13 10v9c85 -5 154 -66 154 -141c0 -80 -63 -140 -152 -149v9
c12 4 20 15 26 35c5 22 9 60 9 104z" />
    <glyph glyph-name="ae" unicode="&#xe6;" horiz-adv-x="691" 
d="M257 201v115c0 67 -70 103 -163 103v3c43 41 102 59 166 59c68 0 105 -22 122 -59c3 3 5 5 8 6c23 22 48 33 72 40c-2 -2 -6 -17 -6 -30c-4 -18 -6 -66 -6 -145c2 -124 63 -162 124 -162c54 0 88 27 111 59l7 -4c-12 -62 -63 -194 -210 -194c-159 0 -224 104 -225 209z
M262 81v-4c-5 -23 -48 -85 -123 -85c-80 0 -128 49 -128 118c0 54 31 99 56 108c20 7 136 31 173 39v-6c-9 -4 -22 -10 -27 -19c-10 -15 -13 -44 -13 -68c0 -62 17 -86 47 -86c5 0 12 1 15 3zM687 337l-213 -43v7l51 22c0 63 -21 126 -43 141c-2 1 -4 1 -6 1v8
c14 4 34 8 49 8c103 -1 157 -71 162 -144zM50 351c5 30 34 50 63 44c30 -6 50 -34 44 -64c-5 -30 -34 -49 -64 -44c-29 6 -49 35 -43 64z" />
    <glyph glyph-name="oslash" unicode="&#xf8;" horiz-adv-x="566" 
d="M217 219c0 -20 0 -38 1 -55l121 237c-7 42 -18 59 -29 66c-6 4 -12 6 -19 7v7c26 -2 50 -5 73 -11l36 74l29 -13l-34 -71c97 -37 159 -118 159 -218c0 -141 -102 -234 -261 -250v7c7 2 18 7 24 15c17 22 31 84 31 240c0 34 -1 63 -3 87l-123 -242c6 -62 19 -84 33 -93
c7 -4 13 -6 19 -7v-7c-35 2 -67 8 -96 18l-34 -71l-29 14l33 69c-85 40 -136 116 -136 209c0 141 102 235 260 250v-7c-7 -2 -17 -6 -23 -15c-17 -21 -32 -84 -32 -240z" />
    <glyph glyph-name="questiondown" unicode="&#xbf;" horiz-adv-x="330" 
d="M44 33l-6 -4c-20 27 -29 69 -29 105c0 115 97 158 214 159v37h23v-227c-115 -2 -206 -11 -206 -49c0 -10 2 -16 4 -21zM51 10l4 4c32 -7 93 -20 145 -20c29 0 58 13 58 42c18 -8 48 -38 48 -73c0 -67 -56 -90 -97 -90c-28 0 -58 13 -85 37c-30 27 -59 75 -73 100z
M310 437c0 -47 -34 -82 -86 -82s-86 35 -86 82s34 82 86 82s86 -35 86 -82z" />
    <glyph glyph-name="exclamdown" unicode="&#xa1;" horiz-adv-x="253" 
d="M215 434c0 -49 -37 -86 -88 -86c-52 0 -88 37 -88 86s36 85 88 85c51 0 88 -36 88 -85zM131 317c15 -95 92 -275 92 -357c0 -49 -34 -87 -96 -87c-63 0 -98 39 -98 87c0 82 78 262 93 357h9z" />
    <glyph glyph-name="florin" unicode="&#x192;" horiz-adv-x="487" 
d="M143 346c23 104 125 196 268 204l-1 -6c-42 -12 -57 -70 -77 -197h87l-20 -69h-78c-15 -93 -27 -163 -39 -242c-17 -116 -122 -201 -268 -211l1 6c38 12 54 38 73 144c23 130 24 185 43 303h-59l3 8zM383 465c0 37 31 68 69 68c37 0 68 -31 68 -68c0 -38 -31 -69 -68 -69
c-38 0 -69 31 -69 69zM-79 -96c0 34 29 61 63 61s62 -27 62 -61c0 -35 -28 -63 -62 -63s-63 28 -63 63z" />
    <glyph glyph-name="guillemotleft" unicode="&#xab;" horiz-adv-x="335" 
d="M19 239l150 150l10 -5l-58 -150l58 -151l-10 -5l-150 151v10zM162 239l149 150l10 -5l-58 -150l58 -151l-10 -5l-149 151v10z" />
    <glyph glyph-name="guillemotright" unicode="&#xbb;" horiz-adv-x="335" 
d="M166 389l149 -150v-10l-149 -151l-10 5l57 151l-57 150zM24 389l149 -150v-10l-149 -151l-10 5l57 151l-57 150z" />
    <glyph glyph-name="ellipsis" unicode="&#x2026;" horiz-adv-x="875" 
d="M44 90c0 57 44 99 100 99c57 0 100 -42 100 -99s-43 -98 -100 -98c-56 0 -100 41 -100 98zM337 90c0 57 44 99 101 99c56 0 99 -42 99 -99s-43 -98 -99 -98c-57 0 -101 41 -101 98zM631 90c0 57 44 99 100 99s100 -42 100 -99s-44 -98 -100 -98s-100 41 -100 98z" />
    <glyph glyph-name="uni00A0" unicode="&#xa0;" horiz-adv-x="180" 
 />
    <glyph glyph-name="Agrave" unicode="&#xc0;" horiz-adv-x="627" 
d="M295 144l-27 69h-143l16 44h108l-57 149l94 231h58l209 -521c28 -69 61 -101 96 -108v-8h-384v8c28 3 54 14 54 52c0 21 -10 50 -24 84zM430 674l-242 35l46 118l198 -146zM193 0h-228v8c36 6 62 23 85 50c28 33 39 54 56 96l8 -4c-2 -9 -6 -31 -6 -51
c0 -49 23 -84 85 -91v-8z" />
    <glyph glyph-name="Atilde" unicode="&#xc3;" horiz-adv-x="627" 
d="M295 144l-27 69h-143l16 44h108l-57 149l94 231h58l209 -521c28 -69 61 -101 96 -108v-8h-384v8c28 3 54 14 54 52c0 21 -10 50 -24 84zM499 843l9 -3c-15 -60 -54 -141 -129 -141c-41 0 -141 5 -174 5c-25 0 -53 -8 -66 -32l-7 3c18 77 76 143 140 143
c54 0 131 -5 169 -5c30 0 50 14 58 30zM193 0h-228v8c36 6 62 23 85 50c28 33 39 54 56 96l8 -4c-2 -9 -6 -31 -6 -51c0 -49 23 -84 85 -91v-8z" />
    <glyph glyph-name="Otilde" unicode="&#xd5;" horiz-adv-x="746" 
d="M551 847l9 -3c-15 -60 -54 -141 -129 -141c-41 0 -141 5 -174 5c-25 0 -53 -8 -66 -32l-7 3c18 77 76 143 140 143c54 0 131 -5 169 -5c30 0 50 14 58 30zM372 -1v-7c-208 12 -353 136 -353 322c0 201 171 304 324 323v-7c-9 -2 -28 -10 -39 -24
c-30 -32 -40 -106 -40 -279c0 -165 11 -273 69 -313c11 -7 27 -13 39 -15zM374 631v7c208 -12 353 -136 353 -322c0 -201 -170 -304 -323 -323v7c9 2 26 9 37 22c30 32 41 108 41 281c0 165 -11 273 -69 313c-11 7 -27 13 -39 15z" />
    <glyph glyph-name="OE" unicode="&#x152;" horiz-adv-x="968" 
d="M16 316c0 189 189 301 380 314v-7c-38 -5 -66 -31 -84 -73c-29 -48 -52 -121 -52 -231c0 -149 21 -250 83 -292c15 -11 33 -17 53 -20v-7c-208 12 -380 130 -380 316zM423 0v630h226v-630h-226zM829 89c43 45 71 102 94 165h8l-9 -254h-233v8c57 12 102 42 140 81z
M823 159c-26 86 -56 132 -134 154v8c78 23 108 69 134 155h8v-317h-8zM921 396h-8c-20 60 -44 104 -84 144c-33 34 -84 65 -143 82v8h229z" />
    <glyph glyph-name="oe" unicode="&#x153;" horiz-adv-x="798" 
d="M573 480v-8c-17 -16 -33 -51 -33 -173c0 -129 59 -168 139 -168c55 0 88 17 111 49l6 -4c-10 -62 -64 -184 -220 -184c-66 0 -109 23 -138 57c-38 -31 -87 -51 -147 -57v8c6 1 16 5 22 14c17 21 31 84 31 240c0 159 -17 201 -37 213c-6 4 -12 5 -18 6v8
c65 -3 117 -26 156 -62c31 31 74 53 128 61zM217 219c0 -159 17 -201 37 -213c6 -4 12 -5 18 -6v-8c-155 8 -260 107 -260 239c0 141 99 234 258 250v-8c-6 -1 -15 -5 -21 -13c-18 -21 -32 -85 -32 -241zM782 315h-217v7l54 13c-1 64 -8 126 -27 138v8
c135 -6 190 -80 190 -166z" />
    <glyph glyph-name="endash" unicode="&#x2013;" horiz-adv-x="441" 
d="M21 307h400v-44h-400v44z" />
    <glyph glyph-name="emdash" unicode="&#x2014;" horiz-adv-x="701" 
d="M21 307h660v-44h-660v44z" />
    <glyph glyph-name="quotedblleft" unicode="&#x201c;" horiz-adv-x="434" 
d="M417 439c0 -51 -36 -88 -92 -88c-61 0 -100 35 -100 103c0 81 90 158 180 184l3 -7c-48 -26 -88 -56 -102 -110c8 2 16 3 24 3c55 0 87 -36 87 -85zM207 439c0 -51 -37 -88 -92 -88c-61 0 -100 35 -100 103c0 81 90 158 180 184l3 -7c-49 -25 -87 -58 -102 -110
c8 2 16 3 24 3c55 0 87 -36 87 -85z" />
    <glyph glyph-name="quotedblright" unicode="&#x201d;" horiz-adv-x="434" 
d="M17 550c0 51 36 88 92 88c61 0 100 -35 100 -103c0 -82 -90 -158 -181 -184l-2 7c45 24 86 56 101 110c-7 -2 -15 -2 -23 -2c-55 0 -87 35 -87 84zM227 550c0 51 37 88 92 88c61 0 100 -35 100 -103c0 -82 -90 -158 -180 -184l-3 7c45 24 86 55 101 110
c-7 -2 -15 -2 -23 -2c-55 0 -87 35 -87 84z" />
    <glyph glyph-name="quoteleft" unicode="&#x2018;" horiz-adv-x="224" 
d="M207 439c0 -51 -37 -88 -92 -88c-61 0 -100 35 -100 103c0 81 90 158 180 184l3 -7c-49 -25 -87 -58 -102 -110c8 2 16 3 24 3c55 0 87 -36 87 -85z" />
    <glyph glyph-name="quoteright" unicode="&#x2019;" horiz-adv-x="224" 
d="M17 550c0 51 36 88 92 88c61 0 100 -35 100 -103c0 -82 -90 -158 -181 -184l-2 7c45 24 86 56 101 110c-7 -2 -15 -2 -23 -2c-55 0 -87 35 -87 84z" />
    <glyph glyph-name="divide" unicode="&#xf7;" horiz-adv-x="430" 
d="M167 112c0 26 20 48 47 48c26 0 48 -22 48 -48c0 -27 -22 -48 -48 -48c-27 0 -47 21 -47 48zM167 353c0 26 20 48 47 48c26 0 48 -22 48 -48c0 -27 -22 -48 -48 -48c-27 0 -47 21 -47 48zM44 255h342v-44h-342v44z" />
    <glyph glyph-name="ydieresis" unicode="&#xff;" horiz-adv-x="463" 
d="M321 468h191v-8c-48 -8 -105 -55 -144 -142l-8 9c3 6 15 45 15 70c0 37 -21 60 -54 63v8zM-29 468h315v-8c-23 -3 -42 -18 -42 -42c0 -11 8 -35 18 -59l58 -148l-99 -224h-7l-164 392c-25 59 -49 75 -79 81v8zM192 -110c-23 -57 -62 -124 -134 -124c-41 0 -78 29 -78 77
c0 44 35 74 75 74c52 0 73 -41 79 -79c19 14 43 42 51 55zM171 668c42 0 77 -34 77 -76s-35 -78 -77 -78s-76 36 -76 78s34 76 76 76zM378 668c43 0 76 -34 76 -76s-33 -78 -76 -78c-42 0 -76 36 -76 78s34 76 76 76z" />
    <glyph glyph-name="Ydieresis" unicode="&#x178;" horiz-adv-x="642" 
d="M676 622c-62 -10 -136 -83 -183 -161l-7 6c13 27 30 64 30 87c0 34 -15 65 -62 68v8h222v-8zM206 124v166l-133 259c-22 41 -49 65 -91 73v8h386v-8c-30 -1 -60 -22 -60 -50c0 -16 12 -41 22 -60l101 -194v-194c0 -89 30 -106 74 -116v-8h-374v8c52 10 75 34 75 116z
M270 835c44 0 80 -35 80 -80s-36 -82 -80 -82c-45 0 -81 37 -81 82s36 80 81 80zM499 835c45 0 81 -35 81 -80s-36 -82 -81 -82c-43 0 -79 37 -79 82s36 80 79 80z" />
    <glyph glyph-name="fraction" unicode="&#x2044;" horiz-adv-x="90" 
d="M-159 -8l-25 17l432 629l26 -18z" />
    <glyph glyph-name="Euro" unicode="&#x20ac;" horiz-adv-x="599" 
d="M10 337h63c32 143 185 207 294 213v-9c-50 -13 -82 -82 -90 -204h123v-28h-125v-65h86v-26h-85c5 -126 27 -196 93 -217v-9c-157 5 -269 100 -296 226h-61v26h56c-1 12 -1 24 -1 36c0 9 0 19 1 29h-58v28zM551 214h9v-189c-43 -15 -95 -26 -163 -32v9
c62 14 127 113 154 212zM559 340h-9c-26 99 -95 188 -156 202v9c76 -5 121 -13 165 -29v-182z" />
    <glyph glyph-name="guilsinglleft" unicode="&#x2039;" horiz-adv-x="192" 
d="M19 239l150 150l10 -5l-58 -150l58 -151l-10 -5l-150 151v10z" />
    <glyph glyph-name="guilsinglright" unicode="&#x203a;" horiz-adv-x="192" 
d="M24 389l149 -150v-10l-149 -151l-10 5l57 151l-57 150z" />
    <glyph glyph-name="daggerdbl" unicode="&#x2021;" horiz-adv-x="425" 
d="M254 708l-16 -207v-344l16 -207h-80l15 207v344l-15 207h80zM406 464l-134 18v36l134 17v-71zM272 176l134 17v-71l-134 18v36zM19 193l137 -17v-36l-137 -18v71zM156 482l-137 -18v71l137 -17v-36z" />
    <glyph glyph-name="periodcentered" unicode="&#xb7;" horiz-adv-x="254" 
d="M27 245c0 57 44 99 101 99c56 0 99 -42 99 -99s-43 -98 -99 -98c-57 0 -101 41 -101 98z" />
    <glyph glyph-name="quotesinglbase" unicode="&#x201a;" horiz-adv-x="229" 
d="M17 78c0 51 36 88 92 88c61 0 100 -35 100 -103c0 -82 -90 -158 -181 -184l-2 7c45 24 86 56 101 110c-7 -2 -15 -2 -23 -2c-55 0 -87 35 -87 84z" />
    <glyph glyph-name="quotedblbase" unicode="&#x201e;" horiz-adv-x="439" 
d="M17 78c0 51 36 88 92 88c61 0 100 -35 100 -103c0 -82 -90 -158 -181 -184l-2 7c45 24 86 56 101 110c-7 -2 -15 -2 -23 -2c-55 0 -87 35 -87 84zM227 78c0 51 37 88 92 88c61 0 100 -35 100 -103c0 -82 -90 -158 -180 -184l-3 7c45 24 86 55 101 110
c-7 -2 -15 -2 -23 -2c-55 0 -87 35 -87 84z" />
    <glyph glyph-name="perthousand" unicode="&#x2030;" horiz-adv-x="991" 
d="M323 140c0 84 68 143 148 150v-10c-24 -8 -30 -83 -30 -140s6 -130 30 -138v-10c-80 7 -148 64 -148 148zM637 140c0 -84 -67 -141 -148 -148v10c24 8 31 81 31 138s-7 132 -31 140v10c81 -7 148 -66 148 -150zM322 452c0 -84 -67 -143 -148 -150v10c24 8 31 83 31 140
s-7 130 -31 138v10c81 -7 148 -64 148 -148zM117 10l387 590l23 -17l-386 -591zM9 452c0 84 67 141 148 148v-10c-24 -8 -31 -81 -31 -138s7 -132 31 -140v-10c-81 7 -148 66 -148 150zM670 140c0 84 67 143 148 150v-10c-24 -8 -31 -83 -31 -140s7 -130 31 -138v-10
c-81 7 -148 64 -148 148zM984 140c0 -84 -68 -141 -149 -148v10c25 8 31 81 31 138s-6 132 -31 140v10c81 -7 149 -66 149 -150z" />
    <glyph glyph-name="Acircumflex" unicode="&#xc2;" horiz-adv-x="627" 
d="M295 144l-27 69h-143l16 44h108l-57 149l94 231h58l209 -521c28 -69 61 -101 96 -108v-8h-384v8c28 3 54 14 54 52c0 21 -10 50 -24 84zM171 675l140 147h4l141 -147l-4 -4l-138 47h-2l-138 -47zM193 0h-228v8c36 6 62 23 85 50c28 33 39 54 56 96l8 -4
c-2 -9 -6 -31 -6 -51c0 -49 23 -84 85 -91v-8z" />
    <glyph glyph-name="Ecircumflex" unicode="&#xca;" horiz-adv-x="641" 
d="M190 675l140 147h4l141 -147l-4 -4l-138 47h-2l-138 -47zM585 396c-20 60 -45 103 -89 142c-34 35 -87 67 -146 84v8h237l6 -234h-8zM353 321c78 23 116 69 142 155h8v-317h-8c-26 86 -64 132 -142 154v8zM13 0v8c51 10 74 34 74 116v382c0 82 -23 106 -74 116v8h300
v-630h-300zM353 0v8c57 12 106 42 144 82c46 44 74 101 98 164h8l-9 -254h-241z" />
    <glyph glyph-name="Aacute" unicode="&#xc1;" horiz-adv-x="627" 
d="M295 144l-27 69h-143l16 44h108l-57 149l94 231h58l209 -521c28 -69 61 -101 96 -108v-8h-384v8c28 3 54 14 54 52c0 21 -10 50 -24 84zM440 709l-242 -35l-2 7l198 146zM193 0h-228v8c36 6 62 23 85 50c28 33 39 54 56 96l8 -4c-2 -9 -6 -31 -6 -51c0 -49 23 -84 85 -91
v-8z" />
    <glyph glyph-name="Edieresis" unicode="&#xcb;" horiz-adv-x="641" 
d="M353 321c78 23 116 69 142 155h8v-317h-8c-26 86 -64 132 -142 154v8zM13 0v8c51 10 74 34 74 116v382c0 82 -23 106 -74 116v8h300v-630h-300zM212 835c44 0 80 -35 80 -80s-36 -82 -80 -82c-45 0 -81 37 -81 82s36 80 81 80zM441 835c45 0 81 -35 81 -80
s-36 -82 -81 -82c-43 0 -79 37 -79 82s36 80 79 80zM585 396c-20 60 -46 104 -89 145c-35 34 -87 64 -146 81v8h237l6 -234h-8zM353 0v8c57 12 106 41 145 80c45 45 73 103 97 166h8l-9 -254h-241z" />
    <glyph glyph-name="Egrave" unicode="&#xc8;" horiz-adv-x="641" 
d="M427 674l-242 35l46 118l198 -146zM353 321c78 23 116 69 142 155h8v-317h-8c-26 86 -64 132 -142 154v8zM13 0v8c51 10 74 34 74 116v382c0 82 -23 106 -74 116v8h300v-630h-300zM585 396c-20 60 -46 104 -89 145c-35 34 -87 64 -146 81v8h237l6 -234h-8zM353 0v8
c57 12 106 41 145 80c45 45 73 103 97 166h8l-9 -254h-241z" />
    <glyph glyph-name="Iacute" unicode="&#xcd;" horiz-adv-x="399" 
d="M87 124v382c0 82 -23 106 -74 116v8h373v-8c-44 -10 -73 -27 -73 -116v-382c0 -89 29 -106 73 -116v-8h-373v8c51 10 74 34 74 116zM328 709l-242 -35l-2 7l198 146z" />
    <glyph glyph-name="Icircumflex" unicode="&#xce;" horiz-adv-x="399" 
d="M87 124v382c0 82 -23 106 -74 116v8h373v-8c-44 -10 -73 -27 -73 -116v-382c0 -89 29 -106 73 -116v-8h-373v8c51 10 74 34 74 116zM57 675l140 147h4l141 -147l-4 -4l-138 47h-2l-138 -47z" />
    <glyph glyph-name="Idieresis" unicode="&#xcf;" horiz-adv-x="399" 
d="M87 124v382c0 82 -23 106 -74 116v8h373v-8c-44 -10 -73 -27 -73 -116v-382c0 -89 29 -106 73 -116v-8h-373v8c51 10 74 34 74 116zM85 835c44 0 80 -35 80 -80s-36 -82 -80 -82c-45 0 -81 37 -81 82s36 80 81 80zM314 835c45 0 81 -35 81 -80s-36 -82 -81 -82
c-43 0 -79 37 -79 82s36 80 79 80z" />
    <glyph glyph-name="Igrave" unicode="&#xcc;" horiz-adv-x="399" 
d="M87 124v382c0 82 -23 106 -74 116v8h373v-8c-44 -10 -73 -27 -73 -116v-382c0 -89 29 -106 73 -116v-8h-373v8c51 10 74 34 74 116zM310 674l-242 35l46 118l198 -146z" />
    <glyph glyph-name="Oacute" unicode="&#xd3;" horiz-adv-x="746" 
d="M490 709l-242 -35l-2 7l198 146zM372 -1v-7c-208 12 -353 136 -353 322c0 201 171 304 324 323v-7c-9 -2 -28 -10 -39 -24c-30 -32 -40 -106 -40 -279c0 -165 11 -273 69 -313c11 -7 27 -13 39 -15zM374 631v7c208 -12 353 -136 353 -322c0 -201 -170 -304 -323 -323v7
c9 2 26 9 37 22c30 32 41 108 41 281c0 165 -11 273 -69 313c-11 7 -27 13 -39 15z" />
    <glyph glyph-name="Ocircumflex" unicode="&#xd4;" horiz-adv-x="746" 
d="M222 675l140 147h4l141 -147l-4 -4l-138 47h-2l-138 -47zM372 -1v-7c-208 12 -353 136 -353 322c0 201 171 304 324 323v-7c-9 -2 -28 -10 -39 -24c-30 -32 -40 -106 -40 -279c0 -165 11 -273 69 -313c11 -7 27 -13 39 -15zM374 631v7c208 -12 353 -136 353 -322
c0 -201 -170 -304 -323 -323v7c9 2 26 9 37 22c30 32 41 108 41 281c0 165 -11 273 -69 313c-11 7 -27 13 -39 15z" />
    <glyph glyph-name="Ograve" unicode="&#xd2;" horiz-adv-x="746" 
d="M482 674l-242 35l46 118l198 -146zM372 -1v-7c-208 12 -353 136 -353 322c0 201 171 304 324 323v-7c-9 -2 -28 -10 -39 -24c-30 -32 -40 -106 -40 -279c0 -165 11 -273 69 -313c11 -7 27 -13 39 -15zM374 631v7c208 -12 353 -136 353 -322c0 -201 -170 -304 -323 -323v7
c9 2 26 9 37 22c30 32 41 108 41 281c0 165 -11 273 -69 313c-11 7 -27 13 -39 15z" />
    <glyph glyph-name="Uacute" unicode="&#xda;" horiz-adv-x="677" 
d="M513 709l-242 -35l-2 7l198 146zM428 630h280v-8c-40 -7 -70 -23 -93 -59c-19 -29 -38 -102 -38 -137h-10c0 35 -21 107 -40 136c-28 42 -68 54 -99 60v8zM80 243v263c0 82 -23 106 -74 116v8h373v-8c-44 -10 -73 -27 -73 -116v-300c0 -81 17 -121 61 -147
c38 -23 80 -23 113 -22c8 0 28 2 32 5v-7c-12 -10 -75 -43 -165 -43c-66 0 -120 11 -161 31c-71 37 -106 110 -106 220z" />
    <glyph glyph-name="Ucircumflex" unicode="&#xdb;" horiz-adv-x="677" 
d="M234 675l140 147h4l141 -147l-4 -4l-138 47h-2l-138 -47zM428 630h280v-8c-40 -7 -70 -23 -93 -59c-19 -29 -38 -102 -38 -137h-10c0 35 -21 107 -40 136c-28 42 -68 54 -99 60v8zM80 243v263c0 82 -23 106 -74 116v8h373v-8c-44 -10 -73 -27 -73 -116v-300
c0 -81 17 -121 61 -147c38 -23 80 -23 113 -22c8 0 28 2 32 5v-7c-12 -10 -75 -43 -165 -43c-66 0 -120 11 -161 31c-71 37 -106 110 -106 220z" />
    <glyph glyph-name="Ugrave" unicode="&#xd9;" horiz-adv-x="677" 
d="M485 674l-242 35l46 118l198 -146zM428 630h280v-8c-40 -7 -70 -23 -93 -59c-19 -29 -38 -102 -38 -137h-10c0 35 -21 107 -40 136c-28 42 -68 54 -99 60v8zM80 243v263c0 82 -23 106 -74 116v8h373v-8c-44 -10 -73 -27 -73 -116v-300c0 -81 17 -121 61 -147
c38 -23 80 -23 113 -22c8 0 28 2 32 5v-7c-12 -10 -75 -43 -165 -43c-66 0 -120 11 -161 31c-71 37 -106 110 -106 220z" />
    <glyph glyph-name="dotlessi" unicode="&#x131;" horiz-adv-x="313" 
d="M58 73v271c0 36 -6 48 -27 63l-13 9v4l236 63l3 -4c-1 -41 -3 -97 -3 -137v-269c0 -50 19 -60 45 -67v-6h-285v6c27 7 44 16 44 67z" />
    <glyph glyph-name="circumflex" unicode="&#x2c6;" horiz-adv-x="318" 
d="M33 513l-6 5l130 182h4l131 -182l-8 -4l-120 67h-9z" />
    <glyph glyph-name="tilde" unicode="&#x2dc;" horiz-adv-x="375" 
d="M386 694l9 -3c-15 -62 -64 -152 -124 -152c-41 0 -131 5 -164 5c-25 0 -45 -6 -59 -34l-7 3c18 77 84 146 132 146c54 0 123 -5 161 -5c31 0 42 20 52 40z" />
    <glyph glyph-name="macron" unicode="&#xaf;" horiz-adv-x="389" 
d="M324 555h-260v62h260v-62z" />
    <glyph glyph-name="breve" unicode="&#x2d8;" horiz-adv-x="384" 
d="M192 610c67 0 100 34 109 69h11c-1 -65 -15 -111 -49 -139c-18 -16 -41 -24 -71 -24c-29 0 -52 8 -70 23c-34 28 -49 74 -50 140h11c10 -35 42 -69 109 -69z" />
    <glyph glyph-name="dotaccent" unicode="&#x2d9;" horiz-adv-x="210" 
d="M12 597c0 53 40 86 92 86s94 -33 94 -86c0 -51 -42 -85 -94 -85s-92 34 -92 85z" />
    <glyph glyph-name="ring" unicode="&#x2da;" horiz-adv-x="378" 
d="M87 596c0 48 35 81 77 85v-21c-28 -2 -53 -22 -53 -64s25 -62 53 -64v-21c-42 3 -77 35 -77 85zM263 596c0 -48 -35 -82 -77 -85v21c27 2 52 22 52 64s-25 62 -52 64v21c42 -4 77 -35 77 -85z" />
    <glyph glyph-name="cedilla" unicode="&#xb8;" horiz-adv-x="384" 
d="M202 -215l3 -8c-17 -7 -50 -15 -68 -15c-33 0 -51 18 -51 39c0 20 22 41 46 51c12 -32 43 -70 70 -67zM214 -217l-3 7c4 3 5 7 5 11c0 9 -7 20 -26 46c-12 17 -25 34 -25 50c0 27 44 60 98 88l4 -4c-7 -9 -9 -14 -9 -25s14 -34 23 -48c16 -24 25 -39 25 -50
c0 -7 -2 -16 -11 -26c-12 -12 -47 -38 -81 -49z" />
    <glyph glyph-name="hungarumlaut" unicode="&#x2dd;" horiz-adv-x="384" 
d="M204 660l-138 -154l-9 5l52 202zM337 660l-138 -154l-8 5l51 202z" />
    <glyph glyph-name="ogonek" unicode="&#x2db;" horiz-adv-x="278" 
d="M253 -130l8 -5c-14 -35 -47 -99 -131 -99c-72 0 -105 36 -105 84c0 65 90 118 151 138h11c-16 -18 -34 -54 -34 -95c0 -27 16 -50 51 -50c18 0 38 10 49 27z" />
    <glyph glyph-name="caron" unicode="&#x2c7;" horiz-adv-x="318" 
d="M27 695l6 4l122 -69h9l120 70l8 -5l-131 -184h-4z" />
    <glyph glyph-name="space_uni0326" horiz-adv-x="220" 
d="M31 -116c0 51 41 76 81 76c46 0 86 -27 86 -87c0 -69 -61 -119 -157 -139l-2 7c37 12 90 42 96 82c-11 -5 -23 -7 -34 -7c-40 0 -70 29 -70 68z" />
    <glyph glyph-name="caron.alt" horiz-adv-x="206" 
d="M166 691l-115 -194h-9l10 194h114z" />
    <glyph glyph-name="space_uni0326.alt" horiz-adv-x="258" 
d="M216 583c0 -48 -42 -73 -82 -73c-45 0 -85 27 -85 85c0 66 60 115 157 134l2 -7c-37 -11 -90 -41 -97 -80c12 5 24 7 35 7c40 0 70 -27 70 -66z" />
    <glyph glyph-name="grave.uc" horiz-adv-x="276" 
d="M257 654l-242 35l46 118l198 -146z" />
    <glyph glyph-name="dieresis.uc" horiz-adv-x="435" 
d="M104 815c44 0 80 -35 80 -80s-36 -82 -80 -82c-45 0 -81 37 -81 82s36 80 81 80zM333 815c45 0 81 -35 81 -80s-36 -82 -81 -82c-43 0 -79 37 -79 82s36 80 79 80z" />
    <glyph glyph-name="macron.uc" horiz-adv-x="419" 
d="M361 674h-303v62h303v-62z" />
    <glyph glyph-name="acute.uc" horiz-adv-x="276" 
d="M261 689l-242 -35l-2 7l198 146z" />
    <glyph glyph-name="circumflex.uc" horiz-adv-x="338" 
d="M27 655l140 147h4l141 -147l-4 -4l-138 47h-2l-138 -47z" />
    <glyph glyph-name="caron.uc" horiz-adv-x="323" 
d="M30 802l138 -47h2l138 47l4 -4l-141 -147h-4l-140 147z" />
    <glyph glyph-name="breve.uc" horiz-adv-x="372" 
d="M186 760c63 0 108 19 118 60h11c0 -65 -18 -112 -49 -139c-20 -18 -49 -28 -80 -28s-61 10 -81 28c-30 28 -49 74 -49 139h11c10 -41 55 -60 119 -60z" />
    <glyph glyph-name="dotaccent.uc" horiz-adv-x="266" 
d="M39 742c0 53 41 86 92 86c52 0 94 -33 94 -86c0 -51 -42 -85 -94 -85c-51 0 -92 34 -92 85z" />
    <glyph glyph-name="ring.uc" horiz-adv-x="241" 
d="M30 736c0 48 40 78 80 81v-22c-23 -1 -55 -17 -55 -59s32 -58 55 -60v-21c-40 3 -80 32 -80 81zM211 736c0 -48 -40 -78 -79 -81v21c22 2 54 18 54 60s-33 58 -54 59v22c39 -3 79 -31 79 -81z" />
    <glyph glyph-name="tilde.uc" horiz-adv-x="422" 
d="M390 827l9 -3c-15 -60 -54 -141 -129 -141c-41 0 -141 5 -174 5c-25 0 -53 -8 -66 -32l-7 3c18 77 76 143 140 143c54 0 131 -5 169 -5c30 0 50 14 58 30z" />
    <glyph glyph-name="hungarumlaut.uc" horiz-adv-x="384" 
d="M206 797l-130 -133l-9 5l38 174zM341 797l-130 -133l-8 5l38 174z" />
    <glyph glyph-name="cedilla.uc" horiz-adv-x="384" 
d="M201 -227l3 -7c-18 -9 -53 -16 -73 -16c-34 0 -54 18 -54 41c0 19 19 43 50 56c18 -47 46 -77 74 -74zM214 -229l-3 7c4 4 5 7 5 11c0 9 -10 19 -29 46c-13 17 -27 38 -27 54c0 27 47 62 104 91l5 -5c-7 -8 -8 -15 -8 -25c0 -12 15 -35 25 -49c17 -26 26 -41 26 -53
c0 -7 -1 -16 -11 -26c-13 -13 -51 -40 -87 -51z" />
    <glyph glyph-name="Dcroat" unicode="&#x110;" horiz-adv-x="762" 
d="M13 334h74v172c0 82 -23 106 -74 116v8h300v-296h96v-29h-96v-305h-300v8c51 10 74 34 74 116v181h-74v29zM742 321c0 -171 -131 -277 -301 -310c-27 -5 -56 -10 -87 -11v9c20 2 45 12 61 24c54 41 85 139 85 288c0 139 -28 228 -88 275c-16 13 -36 22 -58 25v9
c240 -11 388 -116 388 -309z" />
    <glyph glyph-name="Eng" unicode="&#x14a;" horiz-adv-x="733" 
d="M318 630l288 -460v-69c-1 -97 -42 -161 -107 -201c-64 -39 -158 -67 -247 -80l-3 10c36 12 72 38 95 73s35 83 36 138v41l-285 446c-18 25 -36 47 -56 63c-19 15 -40 26 -66 31v8h345zM274 0h-278v8c40 7 69 30 93 66c19 29 36 104 36 139h10c0 -35 16 -108 36 -137
c28 -42 71 -62 103 -68v-8zM456 630h278v-8c-39 -7 -70 -30 -93 -66c-19 -29 -36 -92 -36 -127h-10c0 35 -16 96 -36 125c-28 42 -71 62 -103 68v8z" />
    <glyph glyph-name="IJ" unicode="&#x132;" horiz-adv-x="764" 
d="M87 124v382c0 82 -23 106 -74 116v8h363v-8c-44 -10 -63 -27 -63 -106v-392c0 -89 29 -106 73 -116v-8h-373v8c51 10 74 34 74 116zM683 506v-396c0 -104 -44 -172 -106 -211c-63 -39 -160 -66 -248 -79l-3 10c35 12 70 40 93 74c25 38 38 87 38 154v458
c0 72 -13 96 -64 106v8h363v-8c-44 -10 -73 -27 -73 -116z" />
    <glyph glyph-name="uni0237" unicode="&#x237;" horiz-adv-x="298" 
d="M53 51v293c0 36 -6 48 -27 63l-13 9v4l236 63l3 -4c-1 -41 -3 -97 -3 -137v-270c0 -151 -106 -212 -187 -254c-27 -15 -70 -30 -108 -40l-2 7c14 8 35 25 46 36c51 62 53 108 55 230z" />
    <glyph glyph-name="dcroat" unicode="&#x111;" horiz-adv-x="606" 
d="M556 560h61v-37h-61v-408c0 -48 6 -67 26 -77c4 -1 23 -11 25 -11v-5l-244 -30l-3 3v333c0 55 -12 91 -28 112c-16 23 -39 30 -52 31v6c7 2 18 3 33 3c21 0 37 -3 46 -6v49h-97v37h95c0 29 -5 50 -27 66l-14 10v4l240 64l3 -3c0 -25 -1 -56 -2 -83c0 -18 -1 -42 -1 -58z
M315 95c12 0 22 3 28 6v-3c-16 -58 -71 -106 -139 -106c-104 0 -188 85 -188 216c0 171 149 248 247 266v-8c-24 -15 -36 -110 -36 -188c0 -145 52 -183 88 -183z" />
    <glyph glyph-name="eng" unicode="&#x14b;" horiz-adv-x="587" 
d="M273 382c25 49 88 99 163 99c90 0 118 -56 119 -131v-288c-3 -147 -107 -209 -187 -249c-27 -13 -68 -29 -108 -40l-3 8c14 8 36 25 46 37c52 61 54 107 56 228v276c-1 46 -24 62 -59 62c-9 0 -20 -3 -27 -5v3zM256 479v-418c0 -38 13 -50 35 -55v-6h-275v6
c27 7 44 16 44 67v271c0 36 -6 48 -27 62c-2 2 -11 8 -13 9v4l233 64z" />
    <glyph glyph-name="ij" unicode="&#x133;" horiz-adv-x="598" 
d="M352 51v293c0 36 -6 48 -27 63l-14 9v4l237 63l3 -4c-1 -41 -3 -97 -3 -137v-270c0 -151 -106 -212 -187 -254c-27 -15 -70 -30 -108 -40l-2 7c14 8 36 25 46 36c52 62 53 108 55 230zM254 483l3 -4c-1 -41 -3 -97 -3 -137v-269c0 -50 19 -60 45 -67v-6h-285v6
c27 7 44 16 44 67v271c0 36 -6 48 -27 63l-13 9v4zM54 597c0 57 44 95 101 95s104 -38 104 -95s-47 -94 -104 -94s-101 37 -101 94zM348 597c0 57 44 95 101 95s103 -38 103 -95s-46 -94 -103 -94s-101 37 -101 94z" />
    <glyph glyph-name="Abreve" unicode="&#x102;" horiz-adv-x="627" 
d="M295 144l-27 69h-143l16 44h108l-57 149l94 231h58l209 -521c28 -69 61 -101 96 -108v-8h-384v8c28 3 54 14 54 52c0 21 -10 50 -24 84zM315 780c63 0 108 19 118 60h11c0 -65 -18 -112 -49 -139c-20 -18 -49 -28 -80 -28s-61 10 -81 28c-30 28 -49 74 -49 139h11
c10 -41 55 -60 119 -60zM193 0h-228v8c36 6 62 23 85 50c28 33 39 54 56 96l8 -4c-2 -9 -6 -31 -6 -51c0 -49 23 -84 85 -91v-8z" />
    <glyph glyph-name="Amacron" unicode="&#x100;" horiz-adv-x="627" 
d="M295 144l-27 69h-143l16 44h108l-57 149l94 231h58l209 -521c28 -69 61 -101 96 -108v-8h-384v8c28 3 54 14 54 52c0 21 -10 50 -24 84zM465 694h-303v62h303v-62zM193 0h-228v8c36 6 62 23 85 50c28 33 39 54 56 96l8 -4c-2 -9 -6 -31 -6 -51c0 -49 23 -84 85 -91v-8z
" />
    <glyph glyph-name="Aogonek" unicode="&#x104;" horiz-adv-x="627" 
d="M351 0l-83 213h-143l16 44h108l-57 149l94 231h58l209 -521c28 -69 61 -101 96 -108v-8h-298zM430 -130l8 -5c-14 -35 -47 -99 -131 -99c-72 0 -105 36 -105 84c0 65 90 118 151 138h11c-16 -18 -34 -54 -34 -95c0 -27 16 -50 51 -50c18 0 38 10 49 27zM193 0h-228v8
c36 6 62 23 85 50c28 33 39 54 56 96l8 -4c-2 -9 -6 -31 -6 -51c0 -49 23 -84 85 -91v-8z" />
    <glyph glyph-name="Aringacute" unicode="&#x1fa;" horiz-adv-x="627" 
d="M295 144l-27 69h-143l16 44h108l-57 149l94 231h58l209 -521c28 -69 61 -101 96 -108v-8h-384v8c28 3 54 14 54 52c0 21 -10 50 -24 84zM443 892l-242 -35l-2 7l198 146zM220 756c0 48 40 78 80 81v-22c-23 -1 -55 -17 -55 -59s32 -58 55 -60v-21c-40 3 -80 32 -80 81z
M401 756c0 -48 -40 -78 -79 -81v21c22 2 54 18 54 60s-33 58 -54 59v22c39 -3 79 -31 79 -81zM193 0h-228v8c36 6 62 23 85 50c28 33 39 54 56 96l8 -4c-2 -9 -6 -31 -6 -51c0 -49 23 -84 85 -91v-8z" />
    <glyph glyph-name="AEacute" unicode="&#x1fc;" horiz-adv-x="901" 
d="M724 709l-242 -35l-2 7l198 146zM202 0h-241v8c36 10 63 29 91 57c27 28 54 69 71 110l8 -4c-2 -9 -8 -35 -8 -63c0 -49 38 -95 79 -100v-8zM283 0v8c52 10 75 34 75 116v168h-184l24 45h160v169c0 82 -27 106 -79 116v8h304v-630h-300zM756 159c-26 86 -56 132 -133 154
v8c77 23 107 69 133 155h8v-317h-8zM623 0v8c58 12 101 41 138 80c44 45 71 103 94 166h8l-9 -254h-231zM853 396h-8c-19 56 -43 103 -83 143c-33 34 -82 66 -142 83v8h227z" />
    <glyph glyph-name="Cacute" unicode="&#x106;" horiz-adv-x="673" 
d="M623 406h-9c-19 76 -75 162 -151 204c-16 9 -33 16 -51 20v8c76 -1 166 -12 207 -26zM617 236h9l-4 -217c-40 -13 -135 -22 -208 -26v8c18 4 34 11 50 19c77 46 134 139 153 216zM380 -1v-7c-233 12 -363 143 -363 323c0 187 172 306 360 323v-8c-11 -2 -30 -12 -42 -23
c-39 -36 -73 -107 -73 -281c0 -162 26 -269 81 -311c13 -11 25 -14 37 -16zM517 709l-242 -35l-2 7l198 146z" />
    <glyph glyph-name="Ccaron" unicode="&#x10c;" horiz-adv-x="673" 
d="M250 822l138 -47h2l138 47l4 -4l-141 -147h-4l-140 147zM623 406h-9c-19 76 -75 162 -151 204c-16 9 -33 16 -51 20v8c76 -1 166 -12 207 -26zM617 236h9l-4 -217c-40 -13 -135 -22 -208 -26v8c18 4 34 11 50 19c77 46 134 139 153 216zM380 -1v-7
c-233 12 -363 143 -363 323c0 187 172 306 360 323v-8c-11 -2 -30 -12 -42 -23c-39 -36 -73 -107 -73 -281c0 -162 26 -269 81 -311c13 -11 25 -14 37 -16z" />
    <glyph glyph-name="Ccircumflex" unicode="&#x108;" horiz-adv-x="673" 
d="M247 675l140 147h4l141 -147l-4 -4l-138 47h-2l-138 -47zM623 406h-9c-19 76 -75 162 -151 204c-16 9 -33 16 -51 20v8c76 -1 166 -12 207 -26zM617 236h9l-4 -217c-40 -13 -135 -22 -208 -26v8c18 4 34 11 50 19c77 46 134 139 153 216zM380 -1v-7
c-233 12 -363 143 -363 323c0 187 172 306 360 323v-8c-11 -2 -30 -12 -42 -23c-39 -36 -73 -107 -73 -281c0 -162 26 -269 81 -311c13 -11 25 -14 37 -16z" />
    <glyph glyph-name="Cdotaccent" unicode="&#x10a;" horiz-adv-x="673" 
d="M623 406h-9c-19 76 -75 162 -151 204c-16 9 -33 16 -51 20v8c76 -1 166 -12 207 -26zM617 236h9l-4 -217c-40 -13 -135 -22 -208 -26v8c18 4 34 11 50 19c77 46 134 139 153 216zM380 -1v-7c-233 12 -363 143 -363 323c0 187 172 306 360 323v-8c-11 -2 -30 -12 -42 -23
c-39 -36 -73 -107 -73 -281c0 -162 26 -269 81 -311c13 -11 25 -14 37 -16zM294 762c0 53 41 86 92 86c52 0 94 -33 94 -86c0 -51 -42 -85 -94 -85c-51 0 -92 34 -92 85z" />
    <glyph glyph-name="Dcaron" unicode="&#x10e;" horiz-adv-x="762" 
d="M227 822l138 -47h2l138 47l4 -4l-141 -147h-4l-140 147zM13 0v8c51 10 74 34 74 116v382c0 82 -23 106 -74 116v8h300v-630h-300zM742 321c0 -171 -131 -277 -301 -310c-27 -5 -56 -10 -87 -11v9c20 2 45 12 61 24c54 41 85 139 85 288c0 139 -28 228 -88 275
c-16 13 -36 22 -58 25v9c240 -11 388 -116 388 -309z" />
    <glyph glyph-name="Ebreve" unicode="&#x114;" horiz-adv-x="641" 
d="M353 321c78 23 116 69 142 155h8v-317h-8c-26 86 -64 132 -142 154v8zM13 0v8c51 10 74 34 74 116v382c0 82 -23 106 -74 116v8h300v-630h-300zM327 780c63 0 108 19 118 60h11c0 -65 -18 -112 -49 -139c-20 -18 -49 -28 -80 -28s-61 10 -81 28c-30 28 -49 74 -49 139h11
c10 -41 55 -60 119 -60zM585 396c-20 60 -46 104 -89 145c-35 34 -87 64 -146 81v8h237l6 -234h-8zM353 0v8c57 12 106 41 145 80c45 45 73 103 97 166h8l-9 -254h-241z" />
    <glyph glyph-name="Ecaron" unicode="&#x11a;" horiz-adv-x="641" 
d="M198 822l138 -47h2l138 47l4 -4l-141 -147h-4l-140 147zM353 321c78 23 116 69 142 155h8v-317h-8c-26 86 -64 132 -142 154v8zM13 0v8c51 10 74 34 74 116v382c0 82 -23 106 -74 116v8h300v-630h-300zM585 396c-20 60 -46 104 -89 145c-35 34 -87 64 -146 81v8h237
l6 -234h-8zM353 0v8c57 12 106 41 145 80c45 45 73 103 97 166h8l-9 -254h-241z" />
    <glyph glyph-name="Edotaccent" unicode="&#x116;" horiz-adv-x="641" 
d="M241 762c0 53 41 86 92 86c52 0 94 -33 94 -86c0 -51 -42 -85 -94 -85c-51 0 -92 34 -92 85zM353 321c78 23 116 69 142 155h8v-317h-8c-26 86 -64 132 -142 154v8zM13 0v8c51 10 74 34 74 116v382c0 82 -23 106 -74 116v8h300v-630h-300zM585 396
c-20 60 -46 104 -89 145c-35 34 -87 64 -146 81v8h237l6 -234h-8zM353 0v8c57 12 106 41 145 80c45 45 73 103 97 166h8l-9 -254h-241z" />
    <glyph glyph-name="Emacron" unicode="&#x112;" horiz-adv-x="641" 
d="M353 321c78 23 116 69 142 155h8v-317h-8c-26 86 -64 132 -142 154v8zM13 0v8c51 10 74 34 74 116v382c0 82 -23 106 -74 116v8h300v-630h-300zM475 694h-303v62h303v-62zM585 396c-20 60 -46 104 -89 145c-35 34 -87 64 -146 81v8h237l6 -234h-8zM353 0v8
c57 12 106 41 145 80c45 45 73 103 97 166h8l-9 -254h-241z" />
    <glyph glyph-name="Eogonek" unicode="&#x118;" horiz-adv-x="641" 
d="M565 -130l8 -5c-14 -35 -47 -99 -131 -99c-72 0 -105 36 -105 84c0 65 90 118 151 138h11c-16 -18 -34 -54 -34 -95c0 -27 16 -50 51 -50c18 0 38 10 49 27zM353 321c78 23 116 69 142 155h8v-317h-8c-26 86 -64 132 -142 154v8zM13 0v8c51 10 74 34 74 116v382
c0 82 -23 106 -74 116v8h300v-630h-300zM585 396c-20 60 -46 104 -89 145c-35 34 -87 64 -146 81v8h237l6 -234h-8zM353 0v8c57 12 106 41 145 80c45 45 73 103 97 166h8l-9 -254h-241z" />
    <glyph glyph-name="Gbreve" unicode="&#x11e;" horiz-adv-x="711" 
d="M381 780c63 0 108 19 118 60h11c0 -65 -18 -112 -49 -139c-20 -18 -49 -28 -80 -28s-61 10 -81 28c-30 28 -49 74 -49 139h11c10 -41 55 -60 119 -60zM615 414h-9c-19 77 -70 157 -146 198c-16 7 -33 14 -51 18v8c77 0 161 -11 199 -24zM443 185c0 64 -17 84 -61 94v8
h333v-8c-44 -10 -61 -30 -61 -94v-159c-51 -15 -195 -32 -256 -34v8c10 1 19 4 29 12s16 22 16 44v129zM365 -1v-7c-205 12 -348 151 -348 322c0 185 166 306 358 324v-8c-11 -2 -30 -12 -42 -23c-39 -36 -71 -107 -71 -280c0 -165 15 -273 66 -313c13 -10 25 -13 37 -15z
" />
    <glyph glyph-name="Gcircumflex" unicode="&#x11c;" horiz-adv-x="711" 
d="M239 675l140 147h4l141 -147l-4 -4l-138 47h-2l-138 -47zM615 414h-9c-19 77 -70 157 -146 198c-16 7 -33 14 -51 18v8c77 0 161 -11 199 -24zM443 185c0 64 -17 84 -61 94v8h333v-8c-44 -10 -61 -30 -61 -94v-159c-51 -15 -195 -32 -256 -34v8c10 1 19 4 29 12
s16 22 16 44v129zM365 -1v-7c-205 12 -348 151 -348 322c0 185 166 306 358 324v-8c-11 -2 -30 -12 -42 -23c-39 -36 -71 -107 -71 -280c0 -165 15 -273 66 -313c13 -10 25 -13 37 -15z" />
    <glyph glyph-name="Gcommaaccent" unicode="&#x122;" horiz-adv-x="711" 
d="M291 -116c0 51 41 76 81 76c46 0 86 -27 86 -87c0 -69 -61 -119 -157 -139l-2 7c37 12 90 42 96 82c-11 -5 -23 -7 -34 -7c-40 0 -70 29 -70 68zM615 414h-9c-19 77 -70 157 -146 198c-16 7 -33 14 -51 18v8c77 0 161 -11 199 -24zM443 185c0 64 -17 84 -61 94v8h333v-8
c-44 -10 -61 -30 -61 -94v-159c-51 -15 -195 -32 -256 -34v8c10 1 19 4 29 12s16 22 16 44v129zM365 -1v-7c-205 12 -348 151 -348 322c0 185 166 306 358 324v-8c-11 -2 -30 -12 -42 -23c-39 -36 -71 -107 -71 -280c0 -165 15 -273 66 -313c13 -10 25 -13 37 -15z" />
    <glyph glyph-name="Gdotaccent" unicode="&#x120;" horiz-adv-x="711" 
d="M292 762c0 53 41 86 92 86c52 0 94 -33 94 -86c0 -51 -42 -85 -94 -85c-51 0 -92 34 -92 85zM615 414h-9c-19 77 -70 157 -146 198c-16 7 -33 14 -51 18v8c77 0 161 -11 199 -24zM443 185c0 64 -17 84 -61 94v8h333v-8c-44 -10 -61 -30 -61 -94v-159
c-51 -15 -195 -32 -256 -34v8c10 1 19 4 29 12s16 22 16 44v129zM365 -1v-7c-205 12 -348 151 -348 322c0 185 166 306 358 324v-8c-11 -2 -30 -12 -42 -23c-39 -36 -71 -107 -71 -280c0 -165 15 -273 66 -313c13 -10 25 -13 37 -15z" />
    <glyph glyph-name="Hbar" unicode="&#x126;" horiz-adv-x="800" 
d="M342 303v44h117v-44h-117zM87 124v382c0 82 -23 106 -74 116v8h362v-8c-44 -10 -62 -27 -62 -116v-382c0 -89 18 -106 62 -116v-8h-362v8c51 10 74 34 74 116zM713 506v-382c0 -82 23 -106 74 -116v-8h-361v8c44 10 61 27 61 116v382c0 89 -17 106 -61 116v8h361v-8
c-51 -10 -74 -34 -74 -116zM342 416v43h117v-43h-117zM741 416v43h79v-43h-79zM-21 416v43h79v-43h-79z" />
    <glyph glyph-name="Hcircumflex" unicode="&#x124;" horiz-adv-x="800" 
d="M342 303v44h117v-44h-117zM87 124v382c0 82 -23 106 -74 116v8h362v-8c-44 -10 -62 -27 -62 -116v-382c0 -89 18 -106 62 -116v-8h-362v8c51 10 74 34 74 116zM713 506v-382c0 -82 23 -106 74 -116v-8h-361v8c44 10 61 27 61 116v382c0 89 -17 106 -61 116v8h361v-8
c-51 -10 -74 -34 -74 -116zM258 675l140 147h4l141 -147l-4 -4l-138 47h-2l-138 -47z" />
    <glyph glyph-name="Idotaccent" unicode="&#x130;" horiz-adv-x="399" 
d="M87 124v382c0 82 -23 106 -74 116v8h373v-8c-44 -10 -73 -27 -73 -116v-382c0 -89 29 -106 73 -116v-8h-373v8c51 10 74 34 74 116zM106 762c0 53 41 86 92 86c52 0 94 -33 94 -86c0 -51 -42 -85 -94 -85c-51 0 -92 34 -92 85z" />
    <glyph glyph-name="Ibreve" unicode="&#x12c;" horiz-adv-x="399" 
d="M87 124v382c0 82 -23 106 -74 116v8h373v-8c-44 -10 -73 -27 -73 -116v-382c0 -89 29 -106 73 -116v-8h-373v8c51 10 74 34 74 116zM200 780c63 0 108 19 118 60h11c0 -65 -18 -112 -49 -139c-20 -18 -49 -28 -80 -28s-61 10 -81 28c-30 28 -49 74 -49 139h11
c10 -41 55 -60 119 -60z" />
    <glyph glyph-name="Imacron" unicode="&#x12a;" horiz-adv-x="399" 
d="M87 124v382c0 82 -23 106 -74 116v8h373v-8c-44 -10 -73 -27 -73 -116v-382c0 -89 29 -106 73 -116v-8h-373v8c51 10 74 34 74 116zM352 694h-303v62h303v-62z" />
    <glyph glyph-name="Iogonek" unicode="&#x12e;" horiz-adv-x="399" 
d="M87 124v382c0 82 -23 106 -74 116v8h373v-8c-44 -10 -73 -27 -73 -116v-382c0 -89 29 -106 73 -116v-8h-373v8c51 10 74 34 74 116zM358 -130l8 -5c-14 -35 -47 -99 -131 -99c-72 0 -105 36 -105 84c0 65 90 118 151 138h11c-16 -18 -34 -54 -34 -95c0 -27 16 -50 51 -50
c18 0 38 10 49 27z" />
    <glyph glyph-name="Itilde" unicode="&#x128;" horiz-adv-x="399" 
d="M87 124v382c0 82 -23 106 -74 116v8h373v-8c-44 -10 -73 -27 -73 -116v-382c0 -89 29 -106 73 -116v-8h-373v8c51 10 74 34 74 116zM381 847l9 -3c-15 -60 -54 -141 -129 -141c-41 0 -141 5 -174 5c-25 0 -53 -8 -66 -32l-7 3c18 77 76 143 140 143c54 0 131 -5 169 -5
c30 0 50 14 58 30z" />
    <glyph glyph-name="Jcircumflex" unicode="&#x134;" horiz-adv-x="394" 
d="M57 675l140 147h4l141 -147l-4 -4l-138 47h-2l-138 -47zM313 506v-396c0 -104 -44 -172 -106 -211c-63 -39 -160 -66 -248 -79l-3 10c35 12 70 40 93 74c25 38 38 87 38 154v448c0 82 -23 106 -74 116v8h373v-8c-44 -10 -73 -27 -73 -116z" />
    <glyph glyph-name="Kcommaaccent" unicode="&#x136;" horiz-adv-x="814" 
d="M785 630v-8c-31 -3 -68 -17 -105 -40c-52 -32 -117 -87 -164 -128l-5 6c20 29 47 70 47 99c0 46 -36 60 -77 63v8h304zM825 -7c-23 0 -163 0 -217 5c-63 5 -113 10 -167 84c-46 63 -73 118 -97 180l138 160c60 -91 174 -245 227 -313c40 -52 80 -93 116 -108v-8zM87 124
v382c0 82 -23 106 -74 116v8h373v-8c-44 -10 -73 -27 -73 -116v-382c0 -89 29 -106 73 -116v-8h-373v8c51 10 74 34 74 116zM325 -116c0 51 41 76 81 76c46 0 86 -27 86 -87c0 -69 -61 -119 -157 -139l-2 7c37 12 90 42 96 82c-11 -5 -23 -7 -34 -7c-40 0 -70 29 -70 68z
" />
    <glyph glyph-name="Lacute" unicode="&#x139;" horiz-adv-x="641" 
d="M336 709l-242 -35l-2 7l198 146zM613 273h9l-17 -273h-255v8c51 11 107 42 153 85c51 47 91 109 110 180zM313 506v-506h-300v8c51 10 74 34 74 116v382c0 82 -23 106 -74 116v8h386v-8c-46 -10 -86 -27 -86 -116z" />
    <glyph glyph-name="Lcaron" unicode="&#x13d;" horiz-adv-x="641" 
d="M550 664l-115 -194h-9l10 194h114zM613 273h9l-17 -273h-255v8c51 11 107 42 153 85c51 47 91 109 110 180zM313 506v-506h-300v8c51 10 74 34 74 116v382c0 82 -23 106 -74 116v8h386v-8c-46 -10 -86 -27 -86 -116z" />
    <glyph glyph-name="Lcommaaccent" unicode="&#x13b;" horiz-adv-x="641" 
d="M253 -116c0 51 41 76 81 76c46 0 86 -27 86 -87c0 -69 -61 -119 -157 -139l-2 7c37 12 90 42 96 82c-11 -5 -23 -7 -34 -7c-40 0 -70 29 -70 68zM613 273h9l-17 -273h-255v8c51 11 107 42 153 85c51 47 91 109 110 180zM313 506v-506h-300v8c51 10 74 34 74 116v382
c0 82 -23 106 -74 116v8h386v-8c-46 -10 -86 -27 -86 -116z" />
    <glyph glyph-name="Ldot" unicode="&#x13f;" horiz-adv-x="641" 
d="M613 240h9l-17 -240h-255v7c51 10 105 39 150 77c50 42 90 97 113 156zM313 506v-506h-300v8c51 10 74 34 74 116v382c0 82 -23 106 -74 116v8h386v-8c-46 -10 -86 -27 -86 -116zM436 354c0 51 40 88 89 88c50 0 89 -37 89 -88c0 -50 -39 -86 -89 -86
c-49 0 -89 36 -89 86z" />
    <glyph glyph-name="Nacute" unicode="&#x143;" horiz-adv-x="734" 
d="M501 709l-242 -35l-2 7l198 146zM275 0h-278v8c39 7 69 30 93 66c19 29 36 104 36 139h10c0 -35 16 -108 36 -137c28 -42 71 -62 103 -68v-8zM473 -1l-377 529c-18 25 -36 47 -56 63c-19 15 -41 26 -67 31v8h346l287 -399v-232h-133zM457 630h278v-8
c-39 -7 -70 -30 -93 -66c-19 -29 -36 -92 -36 -127h-10c0 35 -17 96 -36 125c-28 42 -72 62 -103 68v8z" />
    <glyph glyph-name="Ncaron" unicode="&#x147;" horiz-adv-x="734" 
d="M231 822l138 -47h2l138 47l4 -4l-141 -147h-4l-140 147zM275 0h-278v8c39 7 69 30 93 66c19 29 36 104 36 139h10c0 -35 16 -108 36 -137c28 -42 71 -62 103 -68v-8zM473 -1l-377 529c-18 25 -36 47 -56 63c-19 15 -41 26 -67 31v8h346l287 -399v-232h-133zM457 630h278
v-8c-39 -7 -70 -30 -93 -66c-19 -29 -36 -92 -36 -127h-10c0 35 -17 96 -36 125c-28 42 -72 62 -103 68v8z" />
    <glyph glyph-name="Ncommaaccent" unicode="&#x145;" horiz-adv-x="734" 
d="M248 -116c0 51 41 76 81 76c46 0 86 -27 86 -87c0 -69 -61 -119 -157 -139l-2 7c37 12 90 42 96 82c-11 -5 -23 -7 -34 -7c-40 0 -70 29 -70 68zM275 0h-278v8c39 7 69 30 93 66c19 29 36 104 36 139h10c0 -35 16 -108 36 -137c28 -42 71 -62 103 -68v-8zM473 -1
l-377 529c-18 25 -36 47 -56 63c-19 15 -41 26 -67 31v8h346l287 -399v-232h-133zM457 630h278v-8c-39 -7 -70 -30 -93 -66c-19 -29 -36 -92 -36 -127h-10c0 35 -17 96 -36 125c-28 42 -72 62 -103 68v8z" />
    <glyph glyph-name="Obreve" unicode="&#x14e;" horiz-adv-x="746" 
d="M366 780c63 0 108 19 118 60h11c0 -65 -18 -112 -49 -139c-20 -18 -49 -28 -80 -28s-61 10 -81 28c-30 28 -49 74 -49 139h11c10 -41 55 -60 119 -60zM372 -1v-7c-208 12 -353 136 -353 322c0 201 171 304 324 323v-7c-9 -2 -28 -10 -39 -24c-30 -32 -40 -106 -40 -279
c0 -165 11 -273 69 -313c11 -7 27 -13 39 -15zM374 631v7c208 -12 353 -136 353 -322c0 -201 -170 -304 -323 -323v7c9 2 26 9 37 22c30 32 41 108 41 281c0 165 -11 273 -69 313c-11 7 -27 13 -39 15z" />
    <glyph glyph-name="Ohungarumlaut" unicode="&#x150;" horiz-adv-x="746" 
d="M409 797l-130 -133l-9 5l38 174zM544 797l-130 -133l-8 5l38 174zM372 -1v-7c-208 12 -353 136 -353 322c0 201 171 304 324 323v-7c-9 -2 -28 -10 -39 -24c-30 -32 -40 -106 -40 -279c0 -165 11 -273 69 -313c11 -7 27 -13 39 -15zM374 631v7c208 -12 353 -136 353 -322
c0 -201 -170 -304 -323 -323v7c9 2 26 9 37 22c30 32 41 108 41 281c0 165 -11 273 -69 313c-11 7 -27 13 -39 15z" />
    <glyph glyph-name="Omacron" unicode="&#x14c;" horiz-adv-x="746" 
d="M522 694h-303v62h303v-62zM372 -1v-7c-208 12 -353 136 -353 322c0 201 171 304 324 323v-7c-9 -2 -28 -10 -39 -24c-30 -32 -40 -106 -40 -279c0 -165 11 -273 69 -313c11 -7 27 -13 39 -15zM374 631v7c208 -12 353 -136 353 -322c0 -201 -170 -304 -323 -323v7
c9 2 26 9 37 22c30 32 41 108 41 281c0 165 -11 273 -69 313c-11 7 -27 13 -39 15z" />
    <glyph glyph-name="Oslashacute" unicode="&#x1fe;" horiz-adv-x="746" 
d="M374 631v7c54 -3 104 -14 148 -31l51 84l28 -18l-49 -80c108 -53 175 -151 175 -277c0 -201 -170 -304 -323 -323v7c9 2 26 9 37 22c30 32 41 108 41 281c0 57 -2 108 -6 152l-202 -319c10 -59 28 -101 59 -122c11 -7 27 -13 39 -15v-7c-58 4 -110 15 -156 34l-57 -94
l-28 18l54 91c-103 54 -166 150 -166 273c0 201 171 304 324 323v-7c-9 -2 -28 -10 -39 -24c-30 -32 -40 -106 -40 -279c0 -52 1 -97 4 -137l201 317c-10 52 -27 89 -56 109c-11 7 -27 13 -39 15zM490 709l-242 -35l-2 7l198 146z" />
    <glyph glyph-name="Racute" unicode="&#x154;" horiz-adv-x="768" 
d="M484 709l-242 -35l-2 7l198 146zM446 84c-41 59 -70 145 -93 212v2c9 4 16 8 23 14c41 31 50 86 50 152c0 100 -27 148 -75 158v8c51 0 103 -3 140 -10c124 -20 172 -75 172 -163c0 -64 -38 -117 -93 -145v-3c40 -81 86 -144 123 -195c37 -56 84 -104 121 -110v-8
c-35 -1 -159 0 -214 1c-66 2 -103 16 -154 87zM313 630v-506c0 -89 42 -106 88 -116v-8h-388v8c51 10 74 34 74 116v382c0 82 -23 106 -74 116v8h300z" />
    <glyph glyph-name="Rcaron" unicode="&#x158;" horiz-adv-x="768" 
d="M211 822l138 -47h2l138 47l4 -4l-141 -147h-4l-140 147zM446 84c-41 59 -70 145 -93 212v2c9 4 16 8 23 14c41 31 50 86 50 152c0 100 -27 148 -75 158v8c51 0 103 -3 140 -10c124 -20 172 -75 172 -163c0 -64 -38 -117 -93 -145v-3c40 -81 86 -144 123 -195
c37 -56 84 -104 121 -110v-8c-35 -1 -159 0 -214 1c-66 2 -103 16 -154 87zM313 630v-506c0 -89 42 -106 88 -116v-8h-388v8c51 10 74 34 74 116v382c0 82 -23 106 -74 116v8h300z" />
    <glyph glyph-name="Rcommaaccent" unicode="&#x156;" horiz-adv-x="768" 
d="M446 84c-41 59 -70 145 -93 212v2c9 4 16 8 23 14c41 31 50 86 50 152c0 100 -27 148 -75 158v8c51 0 103 -3 140 -10c124 -20 172 -75 172 -163c0 -64 -38 -117 -93 -145v-3c40 -81 86 -144 123 -195c37 -56 84 -104 121 -110v-8c-35 -1 -159 0 -214 1
c-66 2 -103 16 -154 87zM313 630v-506c0 -89 42 -106 88 -116v-8h-388v8c51 10 74 34 74 116v382c0 82 -23 106 -74 116v8h300zM323 -116c0 51 41 76 81 76c46 0 86 -27 86 -87c0 -69 -61 -119 -157 -139l-2 7c37 12 90 42 96 82c-11 -5 -23 -7 -34 -7c-40 0 -70 29 -70 68z
" />
    <glyph glyph-name="Sacute" unicode="&#x15a;" horiz-adv-x="541" 
d="M485 438h-9c-33 83 -87 169 -168 191v9c38 0 137 -13 169 -24zM513 213c0 -132 -89 -213 -250 -221v9c35 9 58 43 58 87c0 65 -54 91 -148 145c-81 45 -134 104 -134 203c0 137 132 195 242 202v-9c-33 -7 -58 -30 -58 -82c0 -73 69 -102 138 -143
c71 -42 152 -82 152 -191zM232 -8c-64 5 -159 20 -185 32l-11 208h9c28 -88 111 -203 187 -231v-9zM416 709l-242 -35l-2 7l198 146z" />
    <glyph glyph-name="Scedilla" unicode="&#x15e;" horiz-adv-x="541" 
d="M485 438h-9c-33 83 -87 169 -168 191v9c38 0 137 -13 169 -24zM513 213c0 -132 -89 -213 -250 -221v9c35 9 58 43 58 87c0 65 -54 91 -148 145c-81 45 -134 104 -134 203c0 137 132 195 242 202v-9c-33 -7 -58 -30 -58 -82c0 -73 69 -102 138 -143
c71 -42 152 -82 152 -191zM232 -8c-64 5 -159 20 -185 32l-11 208h9c28 -88 111 -203 187 -231v-9zM215 -227l3 -7c-18 -9 -53 -16 -73 -16c-34 0 -54 18 -54 41c0 19 19 43 50 56c18 -47 46 -77 74 -74zM228 -229l-3 7c4 4 5 7 5 11c0 9 -10 19 -29 46
c-13 17 -27 38 -27 54c0 27 47 62 104 91l5 -5c-7 -8 -8 -15 -8 -25c0 -12 15 -35 25 -49c17 -26 26 -41 26 -53c0 -7 -1 -16 -11 -26c-13 -13 -51 -40 -87 -51z" />
    <glyph glyph-name="Scircumflex" unicode="&#x15c;" horiz-adv-x="541" 
d="M139 675l140 147h4l141 -147l-4 -4l-138 47h-2l-138 -47zM485 438h-9c-33 83 -87 169 -168 191v9c38 0 137 -13 169 -24zM513 213c0 -132 -89 -213 -250 -221v9c35 9 58 43 58 87c0 65 -54 91 -148 145c-81 45 -134 104 -134 203c0 137 132 195 242 202v-9
c-33 -7 -58 -30 -58 -82c0 -73 69 -102 138 -143c71 -42 152 -82 152 -191zM232 -8c-64 5 -159 20 -185 32l-11 208h9c28 -88 111 -203 187 -231v-9z" />
    <glyph glyph-name="Scommaaccent" unicode="&#x218;" horiz-adv-x="541" 
d="M485 438h-9c-33 83 -87 169 -168 191v9c38 0 137 -13 169 -24zM513 213c0 -132 -89 -213 -250 -221v9c35 9 58 43 58 87c0 65 -54 91 -148 145c-81 45 -134 104 -134 203c0 137 132 195 242 202v-9c-33 -7 -58 -30 -58 -82c0 -73 69 -102 138 -143
c71 -42 152 -82 152 -191zM232 -8c-64 5 -159 20 -185 32l-11 208h9c28 -88 111 -203 187 -231v-9zM173 -116c0 51 41 76 81 76c46 0 86 -27 86 -87c0 -69 -61 -119 -157 -139l-2 7c37 12 90 42 96 82c-11 -5 -23 -7 -34 -7c-40 0 -70 29 -70 68z" />
    <glyph glyph-name="Tcaron" unicode="&#x164;" horiz-adv-x="701" 
d="M213 822l138 -47h2l138 47l4 -4l-141 -147h-4l-140 147zM464 630v-506c0 -82 22 -106 74 -116v-8h-374v8c44 10 74 27 74 116v506h226zM218 630v-8c-40 -17 -72 -38 -111 -80c-39 -43 -63 -92 -80 -147h-9l3 235h197zM484 622v8h197l2 -235h-9c-16 55 -40 103 -79 146
s-71 64 -111 81z" />
    <glyph glyph-name="Tcommaaccent" unicode="&#x162;" horiz-adv-x="701" 
d="M270 -116c0 51 41 76 81 76c46 0 86 -27 86 -87c0 -69 -61 -119 -157 -139l-2 7c37 12 90 42 96 82c-11 -5 -23 -7 -34 -7c-40 0 -70 29 -70 68zM218 630v-8c-40 -17 -72 -38 -111 -80c-39 -43 -63 -92 -80 -147h-9l3 235h197zM484 622v8h197l2 -235h-9
c-16 55 -40 103 -79 146s-71 64 -111 81zM464 630v-506c0 -82 22 -106 74 -116v-8h-374v8c44 10 74 27 74 116v506h226z" />
    <glyph glyph-name="Tbar" unicode="&#x166;" horiz-adv-x="701" 
d="M78 316v43h131v-43h-131zM626 359v-43h-133v43h133zM218 630v-8c-40 -17 -72 -38 -111 -80c-39 -43 -63 -92 -80 -147h-9l3 235h197zM484 622v8h197l2 -235h-9c-16 55 -40 103 -79 146s-71 64 -111 81zM464 630v-506c0 -82 22 -106 74 -116v-8h-374v8c44 10 74 27 74 116
v506h226z" />
    <glyph glyph-name="Ubreve" unicode="&#x16c;" horiz-adv-x="677" 
d="M428 630h280v-8c-40 -7 -70 -23 -93 -59c-19 -29 -38 -102 -38 -137h-10c0 35 -21 107 -40 136c-28 42 -68 54 -99 60v8zM378 780c63 0 108 19 118 60h11c0 -65 -18 -112 -49 -139c-20 -18 -49 -28 -80 -28s-61 10 -81 28c-30 28 -49 74 -49 139h11
c10 -41 55 -60 119 -60zM80 243v263c0 82 -23 106 -74 116v8h373v-8c-44 -10 -73 -27 -73 -116v-300c0 -81 17 -121 61 -147c38 -23 80 -23 113 -22c8 0 28 2 32 5v-7c-12 -10 -75 -43 -165 -43c-66 0 -120 11 -161 31c-71 37 -106 110 -106 220z" />
    <glyph glyph-name="Uhungarumlaut" unicode="&#x170;" horiz-adv-x="677" 
d="M446 797l-130 -133l-9 5l38 174zM581 797l-130 -133l-8 5l38 174zM428 630h280v-8c-40 -7 -70 -23 -93 -59c-19 -29 -38 -102 -38 -137h-10c0 35 -21 107 -40 136c-28 42 -68 54 -99 60v8zM80 243v263c0 82 -23 106 -74 116v8h373v-8c-44 -10 -73 -27 -73 -116v-300
c0 -81 17 -121 61 -147c38 -23 80 -23 113 -22c8 0 28 2 32 5v-7c-12 -10 -75 -43 -165 -43c-66 0 -120 11 -161 31c-71 37 -106 110 -106 220z" />
    <glyph glyph-name="Umacron" unicode="&#x16a;" horiz-adv-x="677" 
d="M428 630h280v-8c-40 -7 -70 -23 -93 -59c-19 -29 -38 -102 -38 -137h-10c0 35 -21 107 -40 136c-28 42 -68 54 -99 60v8zM520 694h-303v62h303v-62zM80 243v263c0 82 -23 106 -74 116v8h373v-8c-44 -10 -73 -27 -73 -116v-300c0 -81 17 -121 61 -147
c38 -23 80 -23 113 -22c8 0 28 2 32 5v-7c-12 -10 -75 -43 -165 -43c-66 0 -120 11 -161 31c-71 37 -106 110 -106 220z" />
    <glyph glyph-name="Uogonek" unicode="&#x172;" horiz-adv-x="677" 
d="M492 -133l8 -5c-14 -35 -47 -99 -131 -99c-72 0 -105 36 -105 84c0 65 90 118 151 138h11c-16 -18 -34 -54 -34 -95c0 -27 16 -50 51 -50c18 0 38 10 49 27zM428 630h280v-8c-40 -7 -70 -23 -93 -59c-19 -29 -38 -102 -38 -137h-10c0 35 -21 107 -40 136
c-28 42 -68 54 -99 60v8zM80 243v263c0 82 -23 106 -74 116v8h373v-8c-44 -10 -73 -27 -73 -116v-300c0 -81 17 -121 61 -147c38 -23 80 -23 113 -22c8 0 28 2 32 5v-7c-12 -10 -75 -43 -165 -43c-66 0 -120 11 -161 31c-71 37 -106 110 -106 220z" />
    <glyph glyph-name="Uring" unicode="&#x16e;" horiz-adv-x="677" 
d="M428 630h280v-8c-40 -7 -70 -23 -93 -59c-19 -29 -38 -102 -38 -137h-10c0 35 -21 107 -40 136c-28 42 -68 54 -99 60v8zM294 756c0 48 40 78 80 81v-22c-23 -1 -55 -17 -55 -59s32 -58 55 -60v-21c-40 3 -80 32 -80 81zM475 756c0 -48 -40 -78 -79 -81v21
c22 2 54 18 54 60s-33 58 -54 59v22c39 -3 79 -31 79 -81zM80 243v263c0 82 -23 106 -74 116v8h373v-8c-44 -10 -73 -27 -73 -116v-300c0 -81 17 -121 61 -147c38 -23 80 -23 113 -22c8 0 28 2 32 5v-7c-12 -10 -75 -43 -165 -43c-66 0 -120 11 -161 31
c-71 37 -106 110 -106 220z" />
    <glyph glyph-name="Utilde" unicode="&#x168;" horiz-adv-x="677" 
d="M428 630h280v-8c-40 -7 -70 -23 -93 -59c-19 -29 -38 -102 -38 -137h-10c0 35 -21 107 -40 136c-28 42 -68 54 -99 60v8zM555 847l9 -3c-15 -60 -54 -141 -129 -141c-41 0 -141 5 -174 5c-25 0 -53 -8 -66 -32l-7 3c18 77 76 143 140 143c54 0 131 -5 169 -5
c30 0 50 14 58 30zM80 243v263c0 82 -23 106 -74 116v8h373v-8c-44 -10 -73 -27 -73 -116v-300c0 -81 17 -121 61 -147c38 -23 80 -23 113 -22c8 0 28 2 32 5v-7c-12 -10 -75 -43 -165 -43c-66 0 -120 11 -161 31c-71 37 -106 110 -106 220z" />
    <glyph glyph-name="Wacute" unicode="&#x1e82;" horiz-adv-x="973" 
d="M656 709l-242 -35l-2 7l198 146zM341 488l70 -228l-95 -262h-57l-171 505c-31 81 -65 113 -111 119v8h382v-8c-26 -3 -42 -17 -42 -43c0 -19 12 -52 24 -91zM715 488l71 -228l-95 -262h-57l-184 540c-19 54 -30 78 -68 84v8h364v-8c-33 -3 -50 -22 -50 -45
c0 -19 7 -51 19 -89zM783 630h222v-8c-38 -6 -67 -25 -93 -55c-28 -33 -48 -70 -66 -116l-8 4c7 32 13 76 13 97c0 39 -23 63 -68 70v8z" />
    <glyph glyph-name="Wcircumflex" unicode="&#x174;" horiz-adv-x="973" 
d="M395 675l140 147h4l141 -147l-4 -4l-138 47h-2l-138 -47zM341 488l70 -228l-95 -262h-57l-171 505c-31 81 -65 113 -111 119v8h382v-8c-26 -3 -42 -17 -42 -43c0 -19 12 -52 24 -91zM715 488l71 -228l-95 -262h-57l-184 540c-19 54 -30 78 -68 84v8h364v-8
c-33 -3 -50 -22 -50 -45c0 -19 7 -51 19 -89zM783 630h222v-8c-38 -6 -67 -25 -93 -55c-28 -33 -48 -70 -66 -116l-8 4c7 32 13 76 13 97c0 39 -23 63 -68 70v8z" />
    <glyph glyph-name="Wdieresis" unicode="&#x1e84;" horiz-adv-x="973" 
d="M389 835c44 0 80 -35 80 -80s-36 -82 -80 -82c-45 0 -81 37 -81 82s36 80 81 80zM618 835c45 0 81 -35 81 -80s-36 -82 -81 -82c-43 0 -79 37 -79 82s36 80 79 80zM341 488l70 -228l-95 -262h-57l-171 505c-31 81 -65 113 -111 119v8h382v-8c-26 -3 -42 -17 -42 -43
c0 -19 12 -52 24 -91zM715 488l71 -228l-95 -262h-57l-184 540c-19 54 -30 78 -68 84v8h364v-8c-33 -3 -50 -22 -50 -45c0 -19 7 -51 19 -89zM783 630h222v-8c-38 -6 -67 -25 -93 -55c-28 -33 -48 -70 -66 -116l-8 4c7 32 13 76 13 97c0 39 -23 63 -68 70v8z" />
    <glyph glyph-name="Wgrave" unicode="&#x1e80;" horiz-adv-x="973" 
d="M653 674l-242 35l46 118l198 -146zM341 488l70 -228l-95 -262h-57l-171 505c-31 81 -65 113 -111 119v8h382v-8c-26 -3 -42 -17 -42 -43c0 -19 12 -52 24 -91zM715 488l71 -228l-95 -262h-57l-184 540c-19 54 -30 78 -68 84v8h364v-8c-33 -3 -50 -22 -50 -45
c0 -19 7 -51 19 -89zM783 630h222v-8c-38 -6 -67 -25 -93 -55c-28 -33 -48 -70 -66 -116l-8 4c7 32 13 76 13 97c0 39 -23 63 -68 70v8z" />
    <glyph glyph-name="Ycircumflex" unicode="&#x176;" horiz-adv-x="642" 
d="M676 622c-62 -10 -136 -83 -183 -161l-7 6c13 27 30 64 30 87c0 34 -15 65 -62 68v8h222v-8zM206 124v166l-133 259c-22 41 -49 65 -91 73v8h386v-8c-30 -1 -60 -22 -60 -50c0 -16 12 -41 22 -60l101 -194v-194c0 -89 30 -106 74 -116v-8h-374v8c52 10 75 34 75 116z
M247 675l140 147h4l141 -147l-4 -4l-138 47h-2l-138 -47z" />
    <glyph glyph-name="Ygrave" unicode="&#x1ef2;" horiz-adv-x="642" 
d="M676 622c-62 -10 -136 -83 -183 -161l-7 6c13 27 30 64 30 87c0 34 -15 65 -62 68v8h222v-8zM206 124v166l-133 259c-22 41 -49 65 -91 73v8h386v-8c-30 -1 -60 -22 -60 -50c0 -16 12 -41 22 -60l101 -194v-194c0 -89 30 -106 74 -116v-8h-374v8c52 10 75 34 75 116z
M496 674l-242 35l46 118l198 -146z" />
    <glyph glyph-name="Zacute" unicode="&#x179;" horiz-adv-x="644" 
d="M479 709l-242 -35l-2 7l198 146zM311 623c-122 -19 -225 -110 -269 -239h-9c9 85 15 192 20 246h258v-7zM624 630l-367 -630h-250l366 630h251zM599 0h-274v8c130 18 237 123 296 252h8c-12 -98 -20 -189 -30 -260z" />
    <glyph glyph-name="Zdotaccent" unicode="&#x17b;" horiz-adv-x="644" 
d="M311 623c-122 -19 -225 -110 -269 -239h-9c9 85 15 192 20 246h258v-7zM624 630l-367 -630h-250l366 630h251zM599 0h-274v8c130 18 237 123 296 252h8c-12 -98 -20 -189 -30 -260zM240 762c0 53 41 86 92 86c52 0 94 -33 94 -86c0 -51 -42 -85 -94 -85
c-51 0 -92 34 -92 85z" />
    <glyph glyph-name="abreve" unicode="&#x103;" horiz-adv-x="512" 
d="M103 418v3c51 33 115 60 182 60c132 0 176 -63 176 -153v-219c0 -26 12 -38 33 -38c10 0 17 3 20 5l1 -2c-15 -41 -58 -82 -130 -82c-79 0 -120 44 -120 133v190c0 84 -70 103 -162 103zM235 75c7 0 16 2 20 5v-3c-5 -23 -48 -85 -123 -85c-80 0 -122 52 -122 122
c0 53 31 90 56 99c21 8 144 33 181 40v-6c-9 -4 -22 -10 -27 -18c-10 -16 -16 -41 -16 -65c0 -73 10 -89 31 -89zM51 335c0 36 29 65 66 65c36 0 65 -29 65 -65c0 -37 -29 -66 -65 -66c-37 0 -66 29 -66 66zM278 610c67 0 100 34 109 69h11c-1 -65 -15 -111 -49 -139
c-18 -16 -41 -24 -71 -24c-29 0 -52 8 -70 23c-34 28 -49 74 -50 140h11c10 -35 42 -69 109 -69z" />
    <glyph glyph-name="amacron" unicode="&#x101;" horiz-adv-x="512" 
d="M103 418v3c51 33 115 60 182 60c132 0 176 -63 176 -153v-219c0 -26 12 -38 33 -38c10 0 17 3 20 5l1 -2c-15 -41 -58 -82 -130 -82c-79 0 -120 44 -120 133v190c0 84 -70 103 -162 103zM235 75c7 0 16 2 20 5v-3c-5 -23 -48 -85 -123 -85c-80 0 -122 52 -122 122
c0 53 31 90 56 99c21 8 144 33 181 40v-6c-9 -4 -22 -10 -27 -18c-10 -16 -16 -41 -16 -65c0 -73 10 -89 31 -89zM51 335c0 36 29 65 66 65c36 0 65 -29 65 -65c0 -37 -29 -66 -65 -66c-37 0 -66 29 -66 66zM411 555h-260v62h260v-62z" />
    <glyph glyph-name="aogonek" unicode="&#x105;" horiz-adv-x="512" 
d="M103 418v3c51 33 115 60 182 60c132 0 176 -63 176 -153v-219c0 -26 12 -38 33 -38c10 0 17 3 20 5l1 -2c-15 -41 -58 -82 -130 -82c-79 0 -120 44 -120 133v190c0 84 -70 103 -162 103zM235 75c7 0 16 2 20 5v-3c-5 -23 -48 -85 -123 -85c-80 0 -122 52 -122 122
c0 53 31 90 56 99c21 8 144 33 181 40v-6c-9 -4 -22 -10 -27 -18c-10 -16 -16 -41 -16 -65c0 -73 10 -89 31 -89zM51 335c0 36 29 65 66 65c36 0 65 -29 65 -65c0 -37 -29 -66 -65 -66c-37 0 -66 29 -66 66zM492 -130l8 -5c-14 -35 -47 -99 -131 -99c-72 0 -105 36 -105 84
c0 65 90 118 151 138h11c-16 -18 -34 -54 -34 -95c0 -27 16 -50 51 -50c18 0 38 10 49 27z" />
    <glyph glyph-name="aringacute" unicode="&#x1fb;" horiz-adv-x="512" 
d="M103 418v3c51 33 115 60 182 60c132 0 176 -63 176 -153v-219c0 -26 12 -38 33 -38c10 0 17 3 20 5l1 -2c-15 -41 -58 -82 -130 -82c-79 0 -120 44 -120 133v190c0 84 -70 103 -162 103zM235 75c7 0 16 2 20 5v-3c-5 -23 -48 -85 -123 -85c-80 0 -122 52 -122 122
c0 53 31 90 56 99c21 8 144 33 181 40v-6c-9 -4 -22 -10 -27 -18c-10 -16 -16 -41 -16 -65c0 -73 10 -89 31 -89zM51 335c0 36 29 65 66 65c36 0 65 -29 65 -65c0 -37 -29 -66 -65 -66c-37 0 -66 29 -66 66zM190 595c0 48 35 81 77 85v-21c-28 -2 -53 -22 -53 -64
s25 -62 53 -64v-21c-42 3 -77 35 -77 85zM366 595c0 -48 -35 -82 -77 -85v21c27 2 52 22 52 64s-25 62 -52 64v21c42 -4 77 -35 77 -85zM405 728l-242 -35l-2 7l198 146z" />
    <glyph glyph-name="aeacute" unicode="&#x1fd;" horiz-adv-x="691" 
d="M517 635l-173 -128l-9 5l57 202zM258 201v115c0 67 -70 103 -163 103v3c43 41 102 59 166 59c68 0 105 -22 122 -59c3 3 5 5 8 6c23 22 48 33 72 40c-2 -2 -6 -17 -6 -30c-4 -18 -6 -66 -6 -145c2 -124 63 -162 124 -162c54 0 88 27 111 59l7 -4
c-12 -62 -63 -194 -210 -194c-159 0 -224 104 -225 209zM263 81v-4c-5 -23 -48 -85 -123 -85c-80 0 -128 49 -128 118c0 54 31 99 56 108c20 7 136 31 173 39v-6c-9 -4 -22 -10 -27 -19c-10 -15 -13 -44 -13 -68c0 -62 17 -86 47 -86c5 0 12 1 15 3zM688 337l-213 -43v7
l51 22c0 63 -21 126 -43 141c-2 1 -4 1 -6 1v8c14 4 34 8 49 8c103 -1 157 -71 162 -144zM51 351c5 30 34 50 63 44c30 -6 50 -34 44 -64c-5 -30 -34 -49 -64 -44c-29 6 -49 35 -43 64z" />
    <glyph glyph-name="cacute" unicode="&#x107;" horiz-adv-x="462" 
d="M405 635l-173 -128l-9 5l57 202zM297 479v-8c-24 -7 -86 -40 -86 -167c0 -135 68 -173 127 -173c51 0 94 22 113 48l6 -4c-10 -64 -65 -183 -221 -183c-150 0 -221 112 -221 228c0 146 132 249 282 259zM291 390c0 44 37 80 81 80s81 -36 81 -80s-37 -81 -81 -81
s-81 37 -81 81z" />
    <glyph glyph-name="ccaron" unicode="&#x10d;" horiz-adv-x="462" 
d="M136 695l6 4l122 -69h9l120 70l8 -5l-131 -184h-4zM297 479v-8c-24 -7 -86 -40 -86 -167c0 -135 68 -173 127 -173c51 0 94 22 113 48l6 -4c-10 -64 -65 -183 -221 -183c-150 0 -221 112 -221 228c0 146 132 249 282 259zM291 390c0 44 37 80 81 80s81 -36 81 -80
s-37 -81 -81 -81s-81 37 -81 81z" />
    <glyph glyph-name="ccircumflex" unicode="&#x109;" horiz-adv-x="462" 
d="M136 513l-6 5l130 182h4l131 -182l-8 -4l-120 67h-9zM297 479v-8c-24 -7 -86 -40 -86 -167c0 -135 68 -173 127 -173c51 0 94 22 113 48l6 -4c-10 -64 -65 -183 -221 -183c-150 0 -221 112 -221 228c0 146 132 249 282 259zM291 390c0 44 37 80 81 80s81 -36 81 -80
s-37 -81 -81 -81s-81 37 -81 81z" />
    <glyph glyph-name="cdotaccent" unicode="&#x10b;" horiz-adv-x="462" 
d="M297 479v-8c-24 -7 -86 -40 -86 -167c0 -135 68 -173 127 -173c51 0 94 22 113 48l6 -4c-10 -64 -65 -183 -221 -183c-150 0 -221 112 -221 228c0 146 132 249 282 259zM291 390c0 44 37 80 81 80s81 -36 81 -80s-37 -81 -81 -81s-81 37 -81 81zM177 601
c0 53 40 86 92 86s94 -33 94 -86c0 -51 -42 -85 -94 -85s-92 34 -92 85z" />
    <glyph glyph-name="dcaron" unicode="&#x10f;" horiz-adv-x="606" 
d="M556 563v-448c0 -48 5 -67 26 -77c3 -1 22 -11 25 -11v-5l-244 -30l-3 3v333c0 55 -12 92 -28 113c-17 22 -39 30 -52 31v6c6 2 18 3 32 3c21 0 38 -3 46 -6v59c0 44 -3 72 -29 92l-13 10v4l240 64l3 -3c-1 -41 -3 -98 -3 -138zM345 104v-4c-17 -58 -72 -108 -142 -108
c-104 0 -187 85 -187 216c0 171 148 248 246 267v-8c-23 -15 -35 -110 -35 -189c0 -145 54 -180 90 -180c11 0 22 3 28 6zM714 691l-115 -194h-9l10 194h114z" />
    <glyph glyph-name="ebreve" unicode="&#x115;" horiz-adv-x="477" 
d="M245 480v-8c-17 -16 -34 -51 -34 -173c0 -129 60 -168 140 -168c55 0 88 17 111 49l7 -4c-10 -62 -67 -184 -223 -184c-159 0 -232 114 -232 230c0 143 89 238 231 258zM454 315h-218v7l55 13c-1 64 -9 126 -27 138v8c142 -6 190 -80 190 -166zM250 610
c67 0 100 34 109 69h11c-1 -65 -15 -111 -49 -139c-18 -16 -41 -24 -71 -24c-29 0 -52 8 -70 23c-34 28 -49 74 -50 140h11c10 -35 42 -69 109 -69z" />
    <glyph glyph-name="ecaron" unicode="&#x11b;" horiz-adv-x="477" 
d="M122 695l6 4l122 -69h9l120 70l8 -5l-131 -184h-4zM245 480v-8c-17 -16 -34 -51 -34 -173c0 -129 60 -168 140 -168c55 0 88 17 111 49l7 -4c-10 -62 -67 -184 -223 -184c-159 0 -232 114 -232 230c0 143 89 238 231 258zM454 315h-218v7l55 13c-1 64 -9 126 -27 138v8
c142 -6 190 -80 190 -166z" />
    <glyph glyph-name="edotaccent" unicode="&#x117;" horiz-adv-x="477" 
d="M245 480v-8c-17 -16 -34 -51 -34 -173c0 -129 60 -168 140 -168c55 0 88 17 111 49l7 -4c-10 -62 -67 -184 -223 -184c-159 0 -232 114 -232 230c0 143 89 238 231 258zM454 315h-218v7l55 13c-1 64 -9 126 -27 138v8c142 -6 190 -80 190 -166zM163 601c0 53 40 86 92 86
s94 -33 94 -86c0 -51 -42 -85 -94 -85s-92 34 -92 85z" />
    <glyph glyph-name="emacron" unicode="&#x113;" horiz-adv-x="477" 
d="M245 480v-8c-17 -16 -34 -51 -34 -173c0 -129 60 -168 140 -168c55 0 88 17 111 49l7 -4c-10 -62 -67 -184 -223 -184c-159 0 -232 114 -232 230c0 143 89 238 231 258zM454 315h-218v7l55 13c-1 64 -9 126 -27 138v8c142 -6 190 -80 190 -166zM383 555h-260v62h260v-62z
" />
    <glyph glyph-name="eogonek" unicode="&#x119;" horiz-adv-x="477" 
d="M403 -130l8 -5c-14 -35 -47 -99 -131 -99c-72 0 -105 36 -105 84c0 65 90 118 151 138h11c-16 -18 -34 -54 -34 -95c0 -27 16 -50 51 -50c18 0 38 10 49 27zM245 480v-8c-17 -16 -34 -51 -34 -173c0 -129 60 -168 140 -168c55 0 88 17 111 49l7 -4
c-10 -62 -67 -184 -223 -184c-159 0 -232 114 -232 230c0 143 89 238 231 258zM454 315h-218v7l55 13c-1 64 -9 126 -27 138v8c142 -6 190 -80 190 -166z" />
    <glyph glyph-name="gbreve" unicode="&#x11f;" horiz-adv-x="526" 
d="M275 320c0 106 -6 149 -35 154v7c110 -2 211 -42 211 -155c0 -120 -121 -156 -204 -161v7c21 7 28 55 28 148zM20 317c0 118 121 158 204 164v-7c-21 -7 -28 -59 -28 -151c0 -106 6 -146 35 -151v-7c-107 2 -211 46 -211 152zM540 367l-111 67l-1 6l125 56zM367 -171v6
c18 12 38 31 38 56c0 31 -21 39 -59 39s-166 -8 -209 -8c-70 0 -126 45 -126 111c0 28 12 53 25 72c22 31 54 57 72 71l3 -4c-4 -6 -8 -14 -8 -23c0 -19 16 -26 41 -26c38 0 158 8 220 8c91 0 149 -31 149 -121c0 -93 -83 -147 -146 -181zM341 -175v-7
c-17 -11 -98 -52 -201 -52c-92 0 -140 29 -140 70c0 32 56 63 134 76l2 -3c-7 -7 -15 -23 -15 -44c0 -42 29 -67 94 -67c49 0 99 13 126 27zM240 610c67 0 100 34 109 69h11c-1 -65 -15 -111 -49 -139c-18 -16 -41 -24 -71 -24c-29 0 -52 8 -70 23c-34 28 -49 74 -50 140h11
c10 -35 42 -69 109 -69z" />
    <glyph glyph-name="gcircumflex" unicode="&#x11d;" horiz-adv-x="526" 
d="M117 513l-6 5l130 182h4l131 -182l-8 -4l-120 67h-9zM275 320c0 106 -6 149 -35 154v7c110 -2 211 -42 211 -155c0 -120 -121 -156 -204 -161v7c21 7 28 55 28 148zM20 317c0 118 121 158 204 164v-7c-21 -7 -28 -59 -28 -151c0 -106 6 -146 35 -151v-7
c-107 2 -211 46 -211 152zM540 367l-111 67l-1 6l125 56zM367 -171v6c18 12 38 31 38 56c0 31 -21 39 -59 39s-166 -8 -209 -8c-70 0 -126 45 -126 111c0 28 12 53 25 72c22 31 54 57 72 71l3 -4c-4 -6 -8 -14 -8 -23c0 -19 16 -26 41 -26c38 0 158 8 220 8
c91 0 149 -31 149 -121c0 -93 -83 -147 -146 -181zM341 -175v-7c-17 -11 -98 -52 -201 -52c-92 0 -140 29 -140 70c0 32 56 63 134 76l2 -3c-7 -7 -15 -23 -15 -44c0 -42 29 -67 94 -67c49 0 99 13 126 27z" />
    <glyph glyph-name="gcommaaccent" unicode="&#x123;" horiz-adv-x="526" 
d="M321 583c0 -48 -42 -73 -82 -73c-45 0 -85 27 -85 85c0 66 60 115 157 134l2 -7c-37 -11 -90 -41 -97 -80c12 5 24 7 35 7c40 0 70 -27 70 -66zM275 320c0 106 -6 149 -35 154v7c110 -2 211 -42 211 -155c0 -120 -121 -156 -204 -161v7c21 7 28 55 28 148zM20 317
c0 118 121 158 204 164v-7c-21 -7 -28 -59 -28 -151c0 -106 6 -146 35 -151v-7c-107 2 -211 46 -211 152zM540 367l-111 67l-1 6l125 56zM367 -171v6c18 12 38 31 38 56c0 31 -21 39 -59 39s-166 -8 -209 -8c-70 0 -126 45 -126 111c0 28 12 53 25 72c22 31 54 57 72 71
l3 -4c-4 -6 -8 -14 -8 -23c0 -19 16 -26 41 -26c38 0 158 8 220 8c91 0 149 -31 149 -121c0 -93 -83 -147 -146 -181zM341 -175v-7c-17 -11 -98 -52 -201 -52c-92 0 -140 29 -140 70c0 32 56 63 134 76l2 -3c-7 -7 -15 -23 -15 -44c0 -42 29 -67 94 -67c49 0 99 13 126 27z
" />
    <glyph glyph-name="gdotaccent" unicode="&#x121;" horiz-adv-x="526" 
d="M275 320c0 106 -6 149 -35 154v7c110 -2 211 -42 211 -155c0 -120 -121 -156 -204 -161v7c21 7 28 55 28 148zM20 317c0 118 121 158 204 164v-7c-21 -7 -28 -59 -28 -151c0 -106 6 -146 35 -151v-7c-107 2 -211 46 -211 152zM540 367l-111 67l-1 6l125 56zM367 -171v6
c18 12 38 31 38 56c0 31 -21 39 -59 39s-166 -8 -209 -8c-70 0 -126 45 -126 111c0 28 12 53 25 72c22 31 54 57 72 71l3 -4c-4 -6 -8 -14 -8 -23c0 -19 16 -26 41 -26c38 0 158 8 220 8c91 0 149 -31 149 -121c0 -93 -83 -147 -146 -181zM341 -175v-7
c-17 -11 -98 -52 -201 -52c-92 0 -140 29 -140 70c0 32 56 63 134 76l2 -3c-7 -7 -15 -23 -15 -44c0 -42 29 -67 94 -67c49 0 99 13 126 27zM148 597c0 53 40 86 92 86s94 -33 94 -86c0 -51 -42 -85 -94 -85s-92 34 -92 85z" />
    <glyph glyph-name="hbar" unicode="&#x127;" horiz-adv-x="606" 
d="M361 523h-105v-462c0 -38 13 -50 35 -55v-6h-275v6c24 7 44 16 44 67v450h-50v37h50c0 13 -1 30 -4 37c-3 14 -12 23 -23 31l-13 8v5l236 63l3 -3l-3 -83v-58h105v-37zM359 61v256c0 50 -22 67 -59 67c-9 0 -20 -3 -27 -5v3c25 49 88 99 163 99c94 0 119 -60 119 -140
v-268c0 -51 19 -60 44 -67v-6h-275v6c22 5 35 17 35 55z" />
    <glyph glyph-name="hcircumflex" unicode="&#x125;" horiz-adv-x="606" 
d="M251 563v-502c0 -38 13 -50 36 -55v-6h-275v6c24 7 43 16 43 67v492c0 37 -5 48 -27 63l-12 8v5l236 63l2 -3c-1 -41 -3 -98 -3 -138zM355 61v256c0 50 -22 67 -59 67c-9 0 -20 -3 -27 -5v3c25 49 88 99 163 99c94 0 119 -60 119 -140v-268c0 -51 19 -60 44 -67v-6h-276
v6c23 5 36 17 36 55zM153 722l140 147h4l141 -147l-4 -4l-138 47h-2l-138 -47z" />
    <glyph glyph-name="ibreve" unicode="&#x12d;" horiz-adv-x="313" 
d="M58 73v271c0 36 -6 48 -27 63l-13 9v4l236 63l3 -4c-1 -41 -3 -97 -3 -137v-269c0 -50 19 -60 45 -67v-6h-285v6c27 7 44 16 44 67zM146 610c67 0 100 34 109 69h11c-1 -65 -15 -111 -49 -139c-18 -16 -41 -24 -71 -24c-29 0 -52 8 -70 23c-34 28 -49 74 -50 140h11
c10 -35 42 -69 109 -69z" />
    <glyph glyph-name="imacron" unicode="&#x12b;" horiz-adv-x="313" 
d="M58 73v271c0 36 -6 48 -27 63l-13 9v4l236 63l3 -4c-1 -41 -3 -97 -3 -137v-269c0 -50 19 -60 45 -67v-6h-285v6c27 7 44 16 44 67zM279 555h-260v62h260v-62z" />
    <glyph glyph-name="iogonek" unicode="&#x12f;" horiz-adv-x="313" 
d="M58 73v271c0 36 -6 48 -27 63l-13 9v4l236 63l3 -4c-1 -41 -3 -97 -3 -137v-269c0 -50 19 -60 45 -67v-6h-285v6c27 7 44 16 44 67zM54 597c0 57 44 95 101 95s104 -38 104 -95s-47 -94 -104 -94s-101 37 -101 94zM307 -130l8 -5c-14 -35 -47 -99 -131 -99
c-72 0 -105 36 -105 84c0 65 90 118 151 138h11c-16 -18 -34 -54 -34 -95c0 -27 16 -50 51 -50c18 0 38 10 49 27z" />
    <glyph glyph-name="itilde" unicode="&#x129;" horiz-adv-x="313" 
d="M58 73v271c0 36 -6 48 -27 63l-13 9v4l236 63l3 -4c-1 -41 -3 -97 -3 -137v-269c0 -50 19 -60 45 -67v-6h-285v6c27 7 44 16 44 67zM324 694l9 -3c-15 -62 -64 -152 -124 -152c-41 0 -131 5 -164 5c-25 0 -45 -6 -59 -34l-7 3c18 77 84 146 132 146c54 0 123 -5 161 -5
c31 0 42 20 52 40z" />
    <glyph glyph-name="idotaccent" horiz-adv-x="313" 
d="M58 73v271c0 36 -6 48 -27 63l-13 9v4l236 63l3 -4c-1 -41 -3 -97 -3 -137v-269c0 -50 19 -60 45 -67v-6h-285v6c27 7 44 16 44 67zM54 597c0 57 44 95 101 95s104 -38 104 -95s-47 -94 -104 -94s-101 37 -101 94z" />
    <glyph glyph-name="jcircumflex" unicode="&#x135;" horiz-adv-x="299" 
d="M23 513l-6 5l130 182h4l131 -182l-8 -4l-120 67h-9zM53 51v293c0 36 -5 48 -27 63l-13 9v4l237 63l2 -4c-1 -41 -3 -97 -3 -137v-270c0 -151 -106 -212 -187 -254c-27 -15 -70 -30 -107 -40l-2 7c14 8 35 25 45 36c52 62 53 108 55 230z" />
    <glyph glyph-name="kcommaaccent" unicode="&#x137;" horiz-adv-x="602" 
d="M55 73v496c0 37 -5 48 -27 63l-12 8v5l236 62l2 -3c-1 -41 -3 -98 -3 -138v-493c0 -50 18 -60 45 -67v-6h-284v6c27 7 43 16 43 67zM266 209l119 127c30 -58 114 -183 151 -232c47 -61 75 -85 97 -97v-7c-24 -1 -122 -3 -157 -3c-44 0 -81 8 -105 33
c-46 49 -83 116 -105 179zM229 -116c0 51 41 76 81 76c46 0 86 -27 86 -87c0 -69 -61 -119 -157 -139l-2 7c37 12 90 42 96 82c-11 -5 -23 -7 -34 -7c-40 0 -70 29 -70 68zM602 468v-8c-36 -8 -90 -25 -132 -58c-22 -15 -43 -34 -59 -53l-7 10c7 11 12 24 12 48
c0 33 -27 48 -59 53v8h245z" />
    <glyph glyph-name="lacute" unicode="&#x13a;" horiz-adv-x="310" 
d="M55 73v496c0 37 -5 48 -27 63l-12 8v5l236 62l2 -3c-1 -41 -3 -98 -3 -138v-493c0 -50 18 -60 45 -67v-6h-284v6c27 7 43 16 43 67zM268 756l-242 -35l-2 7l198 146z" />
    <glyph glyph-name="lcaron" unicode="&#x13e;" horiz-adv-x="310" 
d="M55 73v496c0 37 -5 48 -27 63l-12 8v5l236 62l2 -3c-1 -41 -3 -98 -3 -138v-493c0 -50 18 -60 45 -67v-6h-284v6c27 7 43 16 43 67zM404 691l-115 -194h-9l10 194h114z" />
    <glyph glyph-name="lcommaaccent" unicode="&#x13c;" horiz-adv-x="310" 
d="M55 73v496c0 37 -5 48 -27 63l-12 8v5l236 62l2 -3c-1 -41 -3 -98 -3 -138v-493c0 -50 18 -60 45 -67v-6h-284v6c27 7 43 16 43 67zM70 -116c0 51 41 76 81 76c46 0 86 -27 86 -87c0 -69 -61 -119 -157 -139l-2 7c37 12 90 42 96 82c-11 -5 -23 -7 -34 -7
c-40 0 -70 29 -70 68z" />
    <glyph glyph-name="ldot" unicode="&#x140;" horiz-adv-x="406" 
d="M55 73v496c0 37 -5 48 -27 63l-12 8v5l236 62l2 -3c-1 -41 -3 -98 -3 -138v-493c0 -50 18 -60 45 -67v-6h-284v6c27 7 43 16 43 67zM272 349c0 48 37 84 85 84c47 0 83 -36 83 -84s-36 -82 -83 -82c-48 0 -85 34 -85 82z" />
    <glyph glyph-name="nacute" unicode="&#x144;" horiz-adv-x="609" 
d="M476 635l-173 -128l-9 5l57 202zM358 61v256c0 50 -22 67 -60 67c-8 0 -19 -3 -26 -5v3c25 49 88 99 163 99c93 0 119 -60 119 -140v-268c0 -51 17 -60 44 -67v-6h-276v6c23 5 36 17 36 55zM254 479v-418c0 -38 13 -50 36 -55v-6h-276v6c27 7 44 16 44 67v271
c0 36 -6 48 -26 62l-13 9v4l232 64z" />
    <glyph glyph-name="napostrophe" unicode="&#x149;" horiz-adv-x="701" 
d="M449 61v256c0 50 -22 67 -60 67c-8 0 -19 -3 -26 -5v3c25 49 88 99 163 99c93 0 119 -60 119 -140v-268c0 -51 17 -60 44 -67v-6h-276v6c23 5 36 17 36 55zM345 479v-418c0 -38 13 -50 36 -55v-6h-276v6c27 7 44 16 44 67v271c0 36 -6 48 -26 62l-13 9v4l232 64zM-66 550
c0 51 36 88 92 88c61 0 100 -35 100 -103c0 -82 -90 -158 -181 -184l-2 7c45 24 86 56 101 110c-7 -2 -15 -2 -23 -2c-55 0 -87 35 -87 84z" />
    <glyph glyph-name="ncaron" unicode="&#x148;" horiz-adv-x="609" 
d="M187 695l6 4l122 -69h9l120 70l8 -5l-131 -184h-4zM358 61v256c0 50 -22 67 -60 67c-8 0 -19 -3 -26 -5v3c25 49 88 99 163 99c93 0 119 -60 119 -140v-268c0 -51 17 -60 44 -67v-6h-276v6c23 5 36 17 36 55zM254 479v-418c0 -38 13 -50 36 -55v-6h-276v6
c27 7 44 16 44 67v271c0 36 -6 48 -26 62l-13 9v4l232 64z" />
    <glyph glyph-name="ncommaaccent" unicode="&#x146;" horiz-adv-x="609" 
d="M209 -116c0 51 41 76 81 76c46 0 86 -27 86 -87c0 -69 -61 -119 -157 -139l-2 7c37 12 90 42 96 82c-11 -5 -23 -7 -34 -7c-40 0 -70 29 -70 68zM358 61v256c0 50 -22 67 -60 67c-8 0 -19 -3 -26 -5v3c25 49 88 99 163 99c93 0 119 -60 119 -140v-268
c0 -51 17 -60 44 -67v-6h-276v6c23 5 36 17 36 55zM254 479v-418c0 -38 13 -50 36 -55v-6h-276v6c27 7 44 16 44 67v271c0 36 -6 48 -26 62l-13 9v4l232 64z" />
    <glyph glyph-name="obreve" unicode="&#x14f;" horiz-adv-x="566" 
d="M217 219c0 -159 18 -200 38 -213c7 -4 13 -6 19 -7v-7c-156 8 -262 107 -262 239c0 141 102 235 260 250v-7c-7 -2 -17 -6 -23 -15c-17 -21 -32 -84 -32 -240zM348 254c0 159 -18 201 -38 213c-6 4 -12 6 -19 7v7c156 -8 263 -107 263 -239c0 -141 -102 -234 -261 -250v7
c7 2 18 7 24 15c17 22 31 84 31 240zM281 610c67 0 100 34 109 69h11c-1 -65 -15 -111 -49 -139c-18 -16 -41 -24 -71 -24c-29 0 -52 8 -70 23c-34 28 -49 74 -50 140h11c10 -35 42 -69 109 -69z" />
    <glyph glyph-name="ohungarumlaut" unicode="&#x151;" horiz-adv-x="566" 
d="M340 660l-138 -154l-9 5l52 202zM473 660l-138 -154l-8 5l51 202zM217 219c0 -159 18 -200 38 -213c7 -4 13 -6 19 -7v-7c-156 8 -262 107 -262 239c0 141 102 235 260 250v-7c-7 -2 -17 -6 -23 -15c-17 -21 -32 -84 -32 -240zM348 254c0 159 -18 201 -38 213
c-6 4 -12 6 -19 7v7c156 -8 263 -107 263 -239c0 -141 -102 -234 -261 -250v7c7 2 18 7 24 15c17 22 31 84 31 240z" />
    <glyph glyph-name="omacron" unicode="&#x14d;" horiz-adv-x="566" 
d="M412 555h-260v62h260v-62zM217 219c0 -159 18 -200 38 -213c7 -4 13 -6 19 -7v-7c-156 8 -262 107 -262 239c0 141 102 235 260 250v-7c-7 -2 -17 -6 -23 -15c-17 -21 -32 -84 -32 -240zM348 254c0 159 -18 201 -38 213c-6 4 -12 6 -19 7v7c156 -8 263 -107 263 -239
c0 -141 -102 -234 -261 -250v7c7 2 18 7 24 15c17 22 31 84 31 240z" />
    <glyph glyph-name="oslashacute" unicode="&#x1ff;" horiz-adv-x="566" 
d="M217 219c0 -20 0 -38 1 -55l121 237c-7 42 -18 59 -29 66c-6 4 -12 6 -19 7v7c26 -2 50 -5 73 -11l36 74l29 -13l-34 -71c97 -37 159 -118 159 -218c0 -141 -102 -234 -261 -250v7c7 2 18 7 24 15c17 22 31 84 31 240c0 34 -1 63 -3 87l-123 -242c6 -62 19 -84 33 -93
c7 -4 13 -6 19 -7v-7c-35 2 -67 8 -96 18l-34 -71l-29 14l33 69c-85 40 -136 116 -136 209c0 141 102 235 260 250v-7c-7 -2 -17 -6 -23 -15c-17 -21 -32 -84 -32 -240zM415 635l-173 -128l-9 5l57 202z" />
    <glyph glyph-name="racute" unicode="&#x155;" horiz-adv-x="479" 
d="M383 635l-173 -128l-9 5l57 202zM382 280c-51 0 -88 35 -88 82c0 21 8 41 17 52c-2 2 -6 3 -9 3c-9 0 -21 -6 -29 -18v4c12 37 57 78 108 78c61 0 101 -38 101 -100c0 -58 -41 -101 -100 -101zM254 479v-410c0 -40 21 -58 51 -63v-6h-291v6c27 7 44 16 44 67v271
c0 36 -5 48 -26 62l-13 9v4l232 64z" />
    <glyph glyph-name="rcaron" unicode="&#x159;" horiz-adv-x="479" 
d="M132 695l6 4l122 -69h9l120 70l8 -5l-131 -184h-4zM382 280c-51 0 -88 35 -88 82c0 21 8 41 17 52c-2 2 -6 3 -9 3c-9 0 -21 -6 -29 -18v4c12 37 57 78 108 78c61 0 101 -38 101 -100c0 -58 -41 -101 -100 -101zM254 479v-410c0 -40 21 -58 51 -63v-6h-291v6
c27 7 44 16 44 67v271c0 36 -5 48 -26 62l-13 9v4l232 64z" />
    <glyph glyph-name="rcommaaccent" unicode="&#x157;" horiz-adv-x="479" 
d="M382 280c-51 0 -88 35 -88 82c0 21 8 41 17 52c-2 2 -6 3 -9 3c-9 0 -21 -6 -29 -18v4c12 37 57 78 108 78c61 0 101 -38 101 -100c0 -58 -41 -101 -100 -101zM66 -116c0 51 41 76 81 76c46 0 86 -27 86 -87c0 -69 -61 -119 -157 -139l-2 7c37 12 90 42 96 82
c-11 -5 -23 -7 -34 -7c-40 0 -70 29 -70 68zM254 479v-410c0 -40 21 -58 51 -63v-6h-291v6c27 7 44 16 44 67v271c0 36 -5 48 -26 62l-13 9v4l232 64z" />
    <glyph glyph-name="sacute" unicode="&#x15b;" horiz-adv-x="406" 
d="M337 635l-173 -128l-9 5l57 202zM210 481v-7c-21 -7 -41 -19 -41 -53c0 -41 57 -71 97 -99c67 -46 125 -94 125 -160c0 -101 -63 -159 -191 -170v6c23 7 37 21 37 50c0 37 -44 67 -93 98c-63 39 -123 84 -123 175c0 86 77 149 189 160zM234 474v7c48 0 114 -11 130 -15
l5 -148h-7c-17 63 -79 145 -128 156zM174 -2v-6c-52 -1 -120 16 -150 28l-3 153h7c18 -67 108 -163 146 -175z" />
    <glyph glyph-name="scedilla" unicode="&#x15f;" horiz-adv-x="406" 
d="M210 481v-7c-21 -7 -41 -19 -41 -53c0 -41 57 -71 97 -99c67 -46 125 -94 125 -160c0 -101 -63 -159 -191 -170v6c23 7 37 21 37 50c0 37 -44 67 -93 98c-63 39 -123 84 -123 175c0 86 77 149 189 160zM234 474v7c48 0 114 -11 130 -15l5 -148h-7
c-17 63 -79 145 -128 156zM174 -2v-6c-52 -1 -120 16 -150 28l-3 153h7c18 -67 108 -163 146 -175zM155 -216l3 -8c-17 -7 -50 -15 -68 -15c-33 0 -51 18 -51 39c0 20 22 41 46 51c12 -32 43 -70 70 -67zM167 -218l-3 7c4 3 5 7 5 11c0 9 -7 20 -26 46c-12 17 -25 34 -25 50
c0 27 44 60 98 88l4 -4c-7 -9 -9 -14 -9 -25s14 -34 23 -48c16 -24 25 -39 25 -50c0 -7 -2 -16 -11 -26c-12 -12 -47 -38 -81 -49z" />
    <glyph glyph-name="scircumflex" unicode="&#x15d;" horiz-adv-x="406" 
d="M81 513l-6 5l130 182h4l131 -182l-8 -4l-120 67h-9zM210 481v-7c-21 -7 -41 -19 -41 -53c0 -41 57 -71 97 -99c67 -46 125 -94 125 -160c0 -101 -63 -159 -191 -170v6c23 7 37 21 37 50c0 37 -44 67 -93 98c-63 39 -123 84 -123 175c0 86 77 149 189 160zM234 474v7
c48 0 114 -11 130 -15l5 -148h-7c-17 63 -79 145 -128 156zM174 -2v-6c-52 -1 -120 16 -150 28l-3 153h7c18 -67 108 -163 146 -175z" />
    <glyph glyph-name="scommaaccent" unicode="&#x219;" horiz-adv-x="406" 
d="M210 481v-7c-21 -7 -41 -19 -41 -53c0 -41 57 -71 97 -99c67 -46 125 -94 125 -160c0 -101 -63 -159 -191 -170v6c23 7 37 21 37 50c0 37 -44 67 -93 98c-63 39 -123 84 -123 175c0 86 77 149 189 160zM234 474v7c48 0 114 -11 130 -15l5 -148h-7
c-17 63 -79 145 -128 156zM174 -2v-6c-52 -1 -120 16 -150 28l-3 153h7c18 -67 108 -163 146 -175zM115 -116c0 51 41 76 81 76c46 0 86 -27 86 -87c0 -69 -61 -119 -157 -139l-2 7c37 12 90 42 96 82c-11 -5 -23 -7 -34 -7c-40 0 -70 29 -70 68z" />
    <glyph glyph-name="tbar" unicode="&#x167;" horiz-adv-x="393" 
d="M392 298h-139v-118c0 -58 35 -80 85 -80c22 0 51 7 63 12v-6c-27 -50 -98 -114 -187 -114c-71 0 -156 22 -156 143v163h-51v37h51v63h-51v21l230 180l16 -8v-123h140l-8 -70h-132v-63h139v-37z" />
    <glyph glyph-name="tcaron" unicode="&#x165;" horiz-adv-x="393" 
d="M421 714l-115 -194h-9l10 194h114zM210 -8c-71 0 -158 22 -158 143v263h-49v21l230 180l15 -8v-123h140l-8 -70h-132v-218c0 -58 36 -80 86 -80c21 0 50 7 62 12v-6c-27 -50 -97 -114 -186 -114z" />
    <glyph glyph-name="tcommaaccent" unicode="&#x163;" horiz-adv-x="393" 
d="M104 -116c0 51 41 76 81 76c46 0 86 -27 86 -87c0 -69 -61 -119 -157 -139l-2 7c37 12 90 42 96 82c-11 -5 -23 -7 -34 -7c-40 0 -70 29 -70 68zM210 -8c-71 0 -158 22 -158 143v263h-49v21l230 180l15 -8v-123h140l-8 -70h-132v-218c0 -58 36 -80 86 -80
c21 0 50 7 62 12v-6c-27 -50 -97 -114 -186 -114z" />
    <glyph glyph-name="ubreve" unicode="&#x16d;" horiz-adv-x="596" 
d="M53 129v248c0 41 -12 57 -54 65v8l248 28l2 -1v-321c0 -44 15 -64 51 -64c9 0 22 2 29 6v-4c-20 -48 -57 -102 -143 -102c-80 0 -133 41 -133 137zM542 477v-355c0 -50 9 -65 31 -81c4 -1 18 -10 21 -11v-5l-245 -29l-3 3v378c0 41 -5 57 -46 65v8l240 28zM292 610
c67 0 100 34 109 69h11c-1 -65 -15 -111 -49 -139c-18 -16 -41 -24 -71 -24c-29 0 -52 8 -70 23c-34 28 -49 74 -50 140h11c10 -35 42 -69 109 -69z" />
    <glyph glyph-name="uhungarumlaut" unicode="&#x171;" horiz-adv-x="596" 
d="M53 129v248c0 41 -12 57 -54 65v8l248 28l2 -1v-321c0 -44 15 -64 51 -64c9 0 22 2 29 6v-4c-20 -48 -57 -102 -143 -102c-80 0 -133 41 -133 137zM347 660l-138 -154l-9 5l52 202zM480 660l-138 -154l-8 5l51 202zM542 477v-355c0 -50 7 -67 32 -81l20 -11v-5l-245 -29
l-3 3v378c0 41 -5 57 -46 65v8l240 28z" />
    <glyph glyph-name="umacron" unicode="&#x16b;" horiz-adv-x="596" 
d="M53 129v248c0 41 -12 57 -54 65v8l248 28l2 -1v-321c0 -44 15 -64 51 -64c9 0 22 2 29 6v-4c-20 -48 -57 -102 -143 -102c-80 0 -133 41 -133 137zM417 555h-260v62h260v-62zM542 477v-355c0 -50 7 -67 32 -81l20 -11v-5l-245 -29l-3 3v378c0 41 -5 57 -46 65v8l240 28z
" />
    <glyph glyph-name="uogonek" unicode="&#x173;" horiz-adv-x="596" 
d="M445 -130l8 -5c-14 -35 -47 -99 -131 -99c-72 0 -105 36 -105 84c0 65 90 118 151 138h11c-16 -18 -34 -54 -34 -95c0 -27 16 -50 51 -50c18 0 38 10 49 27zM53 129v248c0 41 -12 57 -54 65v8l248 28l2 -1v-321c0 -44 15 -64 51 -64c9 0 22 2 29 6v-4
c-20 -48 -57 -102 -143 -102c-80 0 -133 41 -133 137zM542 477v-355c0 -50 7 -67 32 -81l20 -11v-5l-245 -29l-3 3v378c0 41 -5 57 -46 65v8l240 28z" />
    <glyph glyph-name="uring" unicode="&#x16f;" horiz-adv-x="596" 
d="M199 596c0 48 35 81 77 85v-21c-28 -2 -53 -22 -53 -64s25 -62 53 -64v-21c-42 3 -77 35 -77 85zM375 596c0 -48 -35 -82 -77 -85v21c27 2 52 22 52 64s-25 62 -52 64v21c42 -4 77 -35 77 -85zM53 129v248c0 41 -12 57 -54 65v8l248 28l2 -1v-321c0 -44 15 -64 51 -64
c9 0 22 2 29 6v-4c-20 -48 -57 -102 -143 -102c-80 0 -133 41 -133 137zM542 477v-355c0 -50 7 -67 32 -81l20 -11v-5l-245 -29l-3 3v378c0 41 -5 57 -46 65v8l240 28z" />
    <glyph glyph-name="utilde" unicode="&#x169;" horiz-adv-x="596" 
d="M53 129v248c0 41 -12 57 -54 65v8l248 28l2 -1v-321c0 -44 15 -64 51 -64c9 0 22 2 29 6v-4c-20 -48 -57 -102 -143 -102c-80 0 -133 41 -133 137zM466 694l9 -3c-15 -62 -64 -152 -124 -152c-41 0 -131 5 -164 5c-25 0 -45 -6 -59 -34l-7 3c18 77 84 146 132 146
c54 0 123 -5 161 -5c31 0 42 20 52 40zM542 477v-355c0 -50 7 -67 32 -81l20 -11v-5l-245 -29l-3 3v378c0 41 -5 57 -46 65v8l240 28z" />
    <glyph glyph-name="wacute" unicode="&#x1e83;" horiz-adv-x="721" 
d="M534 635l-173 -128l-9 5l57 202zM-28 468h285v-8c-16 -2 -28 -10 -28 -26c0 -8 4 -20 10 -37l65 -172l-100 -227h-15l-142 379c-21 55 -45 77 -75 83v8zM586 468h180v-8c-39 -9 -96 -60 -135 -141l-7 10c3 7 15 48 15 75c0 34 -21 53 -53 56v8zM273 468h291v-8
c-23 -3 -41 -17 -41 -40c0 -19 8 -44 16 -63l50 -132l-100 -227h-15l-152 406c-17 44 -26 53 -49 56v8z" />
    <glyph glyph-name="wcircumflex" unicode="&#x175;" horiz-adv-x="721" 
d="M275 513l-6 5l130 182h4l131 -182l-8 -4l-120 67h-9zM-28 468h285v-8c-16 -2 -28 -10 -28 -26c0 -8 4 -20 10 -37l65 -172l-100 -227h-15l-142 379c-21 55 -45 77 -75 83v8zM586 468h180v-8c-39 -9 -96 -60 -135 -141l-7 10c3 7 15 48 15 75c0 34 -21 53 -53 56v8z
M273 468h291v-8c-23 -3 -41 -17 -41 -40c0 -19 8 -44 16 -63l50 -132l-100 -227h-15l-152 406c-17 44 -26 53 -49 56v8z" />
    <glyph glyph-name="wdieresis" unicode="&#x1e85;" horiz-adv-x="721" 
d="M286 668c42 0 77 -34 77 -76s-35 -78 -77 -78s-76 36 -76 78s34 76 76 76zM493 668c43 0 76 -34 76 -76s-33 -78 -76 -78c-42 0 -76 36 -76 78s34 76 76 76zM-28 468h285v-8c-16 -2 -28 -10 -28 -26c0 -8 4 -20 10 -37l65 -172l-100 -227h-15l-142 379
c-21 55 -45 77 -75 83v8zM586 468h180v-8c-39 -9 -96 -60 -135 -141l-7 10c3 7 15 48 15 75c0 34 -21 53 -53 56v8zM273 468h291v-8c-23 -3 -41 -17 -41 -40c0 -19 8 -44 16 -63l50 -132l-100 -227h-15l-152 406c-17 44 -26 53 -49 56v8z" />
    <glyph glyph-name="wgrave" unicode="&#x1e81;" horiz-adv-x="721" 
d="M-28 468h285v-8c-16 -2 -28 -10 -28 -26c0 -8 4 -20 10 -37l65 -172l-100 -227h-15l-142 379c-21 55 -45 77 -75 83v8zM586 468h180v-8c-39 -9 -96 -60 -135 -141l-7 10c3 7 15 48 15 75c0 34 -21 53 -53 56v8zM273 468h291v-8c-23 -3 -41 -17 -41 -40
c0 -19 8 -44 16 -63l50 -132l-100 -227h-15l-152 406c-17 44 -26 53 -49 56v8zM442 507l-174 128l126 79l57 -202z" />
    <glyph glyph-name="ycircumflex" unicode="&#x177;" horiz-adv-x="463" 
d="M321 468h191v-8c-48 -8 -105 -55 -144 -142l-8 9c3 6 15 45 15 70c0 37 -21 60 -54 63v8zM-29 468h315v-8c-23 -3 -42 -18 -42 -42c0 -11 8 -35 18 -59l58 -148l-99 -224h-7l-164 392c-25 59 -49 75 -79 81v8zM192 -110c-23 -57 -62 -124 -134 -124c-41 0 -78 29 -78 77
c0 44 35 74 75 74c52 0 73 -41 79 -79c19 14 43 42 51 55zM157 513l-6 5l130 182h4l131 -182l-8 -4l-120 67h-9z" />
    <glyph glyph-name="ygrave" unicode="&#x1ef3;" horiz-adv-x="463" 
d="M321 468h191v-8c-48 -8 -105 -55 -144 -142l-8 9c3 6 15 45 15 70c0 37 -21 60 -54 63v8zM-29 468h315v-8c-23 -3 -42 -18 -42 -42c0 -11 8 -35 18 -59l58 -148l-99 -224h-7l-164 392c-25 59 -49 75 -79 81v8zM192 -110c-23 -57 -62 -124 -134 -124c-41 0 -78 29 -78 77
c0 44 35 74 75 74c52 0 73 -41 79 -79c19 14 43 42 51 55zM318 507l-174 128l126 79l57 -202z" />
    <glyph glyph-name="zacute" unicode="&#x17a;" horiz-adv-x="496" 
d="M399 635l-173 -128l-9 5l57 202zM20 273l18 195h179v-8c-74 -27 -144 -86 -189 -187h-8zM488 468l-268 -468h-217l267 468h218zM462 0h-194v7c80 21 166 118 207 211h8c-3 -14 -21 -218 -21 -218z" />
    <glyph glyph-name="zdotaccent" unicode="&#x17c;" horiz-adv-x="496" 
d="M20 273l18 195h179v-8c-74 -27 -144 -86 -189 -187h-8zM488 468l-268 -468h-217l267 468h218zM462 0h-194v7c80 21 166 118 207 211h8c-3 -14 -21 -218 -21 -218zM175 597c0 53 40 86 92 86s94 -33 94 -86c0 -51 -42 -85 -94 -85s-92 34 -92 85z" />
    <glyph glyph-name="c_t" horiz-adv-x="814" 
d="M681 531c0 -19 -4 -50 -8 -63h141l-8 -70h-132v-218c0 -58 35 -80 85 -80c22 0 51 7 63 12v-6c-27 -50 -98 -114 -187 -114c-71 0 -157 22 -157 143v263h-31v19c60 20 133 75 133 167c0 70 -29 112 -127 116v8c176 -4 228 -87 228 -177zM267 479v-8
c-28 -13 -60 -64 -60 -165c0 -135 66 -175 125 -175c42 0 84 22 102 48l7 -4c-10 -65 -51 -183 -206 -183c-150 0 -225 114 -225 228c0 148 114 241 257 259zM274 382c0 29 15 55 37 68c-28 25 -45 62 -45 106c0 90 72 146 162 152v-8c-70 -6 -142 -44 -142 -127
c0 -62 52 -99 88 -114c16 -7 31 -17 41 -29c11 -14 18 -30 18 -49c0 -44 -35 -80 -82 -80c-48 0 -77 37 -77 81z" />
    <glyph glyph-name="s_t" unicode="&#xfb06;" horiz-adv-x="760" 
d="M265 322c66 -46 117 -94 117 -160c0 -101 -63 -159 -191 -170v6c23 4 37 25 37 54c0 37 -37 63 -86 94c-63 39 -123 84 -123 175c0 86 85 149 197 160v-7c-23 -5 -48 -19 -48 -53c0 -41 56 -71 97 -99zM212 568c0 -38 19 -72 43 -89c43 -4 90 -11 103 -13l5 -150h-7
c-17 63 -68 123 -112 158c-18 13 -43 49 -43 94c0 90 83 134 173 140v-8c-83 -6 -162 -45 -162 -132zM164 -2v-6c-51 -1 -112 16 -142 28l-3 153h7c18 -67 101 -163 138 -175zM627 531c0 -19 -3 -50 -7 -63h140l-8 -70h-132v-218c0 -58 35 -80 86 -80c21 0 50 7 62 12v-6
c-27 -50 -98 -114 -187 -114c-71 0 -156 22 -156 143v263h-32v19c60 20 133 75 133 167c0 70 -29 112 -127 116v8c176 -4 228 -87 228 -177z" />
    <glyph glyph-name="f_f_r" horiz-adv-x="1069" 
d="M292 0h-278v6c28 7 44 16 44 67v326h-67v8l69 65v26c0 118 108 179 258 194v-6c-37 -6 -64 -33 -64 -97v-121h100v31c0 12 1 24 4 36c-12 13 -19 31 -19 52c0 36 18 60 38 74c-5 12 -26 23 -43 25v6c30 0 101 -2 145 -20c38 19 89 29 135 32v-6c-36 -6 -65 -31 -65 -99
v-131h106c104 0 158 10 187 15l2 -4v-97l-1 -309c0 -50 18 -60 45 -67v-6h-276v6c23 5 35 16 35 55v338h-98v-338c0 -39 15 -51 37 -55v-6h-269v6c23 5 36 16 36 55v338h-99v-338c0 -39 15 -51 38 -55v-6zM972 280c-52 0 -89 35 -89 82c0 21 8 41 17 52c-2 2 -5 3 -9 3
c-9 0 -20 -6 -28 -18v4c11 37 57 78 108 78c61 0 101 -38 101 -100c0 -58 -42 -101 -100 -101zM663 688c45 0 81 -36 81 -81s-36 -82 -81 -82s-82 37 -82 82s37 81 82 81z" />
    <glyph glyph-name="f_r" horiz-adv-x="774" 
d="M-9 407l69 68v28c0 118 97 191 260 201v-6c-36 -6 -66 -32 -66 -97v-133h106c104 0 160 10 189 15l3 -4c-1 -41 -3 -97 -3 -137v-269c0 -50 18 -60 44 -67v-6h-276v6c23 5 36 16 36 55v338h-99v-338c0 -39 15 -51 38 -55v-6h-278v6c28 7 44 16 44 67v326h-67v8zM676 280
c-51 0 -88 35 -88 82c0 21 8 41 17 52c-2 2 -5 3 -9 3c-9 0 -20 -6 -28 -18v4c11 37 57 78 108 78c61 0 101 -38 101 -100c0 -58 -42 -101 -101 -101zM368 688c46 0 81 -36 81 -81s-35 -82 -81 -82c-44 0 -81 37 -81 82s37 81 81 81z" />
    <glyph glyph-name="oneeighth" unicode="&#x215b;" horiz-adv-x="541" 
d="M335 538v-183c0 -50 18 -67 49 -72v-8h-225v8c37 5 50 26 50 72v194c0 23 -2 42 -10 51c-7 10 -28 15 -47 17v8c49 0 134 2 187 6c-2 -21 -4 -50 -4 -93zM17 226h507v-31h-507v31zM326 44l-5 3c7 13 11 33 11 47c-1 37 -15 51 -55 51c-22 0 -46 -10 -46 -37
s33 -45 71 -64c59 -28 105 -53 105 -122c0 -72 -69 -129 -149 -129c-66 0 -128 20 -128 72c0 33 40 56 64 60l4 -3c-6 -10 -12 -24 -12 -47c0 -37 24 -72 72 -72c34 0 50 18 50 45c0 32 -41 47 -74 66c-58 33 -103 58 -103 126c0 65 68 115 147 115c74 0 110 -26 110 -59
c0 -26 -28 -43 -62 -52z" />
    <glyph glyph-name="onethird" unicode="&#x2153;" horiz-adv-x="541" 
d="M335 538v-183c0 -50 18 -67 49 -72v-8h-225v8c37 5 50 26 50 72v194c0 23 -2 42 -10 51c-7 10 -28 15 -47 17v8c49 0 134 2 187 6c-2 -21 -4 -50 -4 -93zM17 226h507v-31h-507v31zM289 -139c0 44 -35 56 -76 56c-7 0 -23 -1 -30 -3l-3 6l70 84c12 2 22 2 32 2
c89 -1 125 -43 125 -91c0 -50 -53 -115 -171 -123v8c40 5 53 33 53 61zM262 17h-4c9 9 17 20 17 32c0 22 -14 35 -48 35c-17 0 -42 -6 -54 -17l-4 3c14 44 53 85 121 85c61 0 93 -27 93 -63c0 -35 -44 -65 -121 -75zM191 -121c25 0 44 -21 44 -44s-19 -43 -44 -43
c-23 0 -42 20 -42 43s19 44 42 44z" />
    <glyph glyph-name="threeeighths" unicode="&#x215c;" horiz-adv-x="541" 
d="M326 44l-5 3c7 13 11 33 11 47c-1 37 -15 51 -55 51c-22 0 -46 -10 -46 -37s33 -45 71 -64c59 -28 105 -53 105 -122c0 -72 -69 -129 -149 -129c-66 0 -128 20 -128 72c0 33 40 56 64 60l4 -3c-6 -10 -12 -24 -12 -47c0 -37 24 -72 72 -72c34 0 50 18 50 45
c0 32 -41 47 -74 66c-58 33 -103 58 -103 126c0 65 68 115 147 115c74 0 110 -26 110 -59c0 -26 -28 -43 -62 -52zM17 226h507v-31h-507v31zM282 340c0 44 -35 56 -76 56c-7 0 -23 -1 -30 -3l-3 6l70 85c12 1 22 1 32 1c89 -1 125 -43 125 -91c0 -50 -53 -115 -171 -123v8
c40 6 53 33 53 61zM255 496h-4c9 9 17 21 17 32c0 22 -14 35 -48 35c-17 0 -42 -6 -54 -17l-4 3c14 44 53 85 121 85c61 0 93 -27 93 -63c0 -35 -44 -65 -121 -75zM185 358c24 0 43 -20 43 -44c0 -23 -19 -43 -43 -43s-43 20 -43 43c0 24 19 44 43 44z" />
    <glyph glyph-name="fiveeighths" unicode="&#x215d;" horiz-adv-x="541" 
d="M326 44l-5 3c7 13 11 33 11 47c-1 37 -15 51 -55 51c-22 0 -46 -10 -46 -37s33 -45 71 -64c59 -28 105 -53 105 -122c0 -72 -69 -129 -149 -129c-66 0 -128 20 -128 72c0 33 40 56 64 60l4 -3c-6 -10 -12 -24 -12 -47c0 -37 24 -72 72 -72c34 0 50 18 50 45
c0 32 -41 47 -74 66c-58 33 -103 58 -103 126c0 65 68 115 147 115c74 0 110 -26 110 -59c0 -26 -28 -43 -62 -52zM17 226h507v-31h-507v31zM390 663l-17 -127h-188l13 92h133c28 0 45 13 52 35h7zM225 270v8c41 5 67 25 67 67c0 46 -28 65 -80 65c-14 0 -31 -1 -49 -4
l19 96c15 3 57 5 70 5c101 0 144 -41 144 -106c0 -68 -48 -128 -171 -131zM192 368c25 0 46 -21 46 -46s-21 -46 -46 -46s-46 21 -46 46s21 46 46 46z" />
    <glyph glyph-name="twothirds" unicode="&#x2154;" horiz-adv-x="541" 
d="M218 389l-6 4c32 35 53 72 53 111c0 27 -20 46 -55 45c-31 0 -47 -12 -65 -29l-5 3c16 53 70 111 142 111c78 0 116 -40 116 -93c0 -67 -90 -124 -180 -152zM110 275l88 98h135c45 0 65 24 75 52h9l-12 -150h-295zM17 226h507v-31h-507v31zM291 -139c0 44 -34 56 -76 56
c-7 0 -23 -1 -30 -3l-2 6l70 84c11 2 22 2 32 2c88 -1 124 -43 124 -91c0 -50 -52 -115 -171 -123v8c40 5 53 33 53 61zM264 17h-4c9 9 18 20 18 32c0 22 -15 35 -49 35c-17 0 -42 -6 -54 -17l-3 3c14 44 52 85 120 85c61 0 94 -27 94 -63c0 -35 -44 -65 -122 -75zM194 -121
c24 0 43 -21 43 -44s-19 -43 -43 -43c-23 0 -43 20 -43 43s20 44 43 44z" />
    <glyph glyph-name="seveneighths" unicode="&#x215e;" horiz-adv-x="541" 
d="M426 626l-35 -97h-156c-37 0 -60 -17 -70 -37h-10l35 134h236zM374 508h10l-82 -233h-107zM17 226h507v-31h-507v31zM326 44l-5 3c7 13 11 33 11 47c-1 37 -15 51 -55 51c-22 0 -46 -10 -46 -37s33 -45 71 -64c59 -28 105 -53 105 -122c0 -72 -69 -129 -149 -129
c-66 0 -128 20 -128 72c0 33 40 56 64 60l4 -3c-6 -10 -12 -24 -12 -47c0 -37 24 -72 72 -72c34 0 50 18 50 45c0 32 -41 47 -74 66c-58 33 -103 58 -103 126c0 65 68 115 147 115c74 0 110 -26 110 -59c0 -26 -28 -43 -62 -52z" />
    <glyph glyph-name="uni24C5" unicode="&#x24c5;" horiz-adv-x="682" 
d="M18 315c0 185 133 308 305 321v-17c-168 -14 -284 -131 -284 -304s116 -290 284 -304v-17c-172 13 -305 136 -305 321zM664 315c0 -185 -133 -308 -305 -321v17c168 14 284 131 284 304s-116 290 -284 304v17c172 -13 305 -136 305 -321zM561 401
c0 -57 -54 -125 -190 -128v8c6 2 12 5 16 10c19 14 29 42 29 108c0 57 -7 86 -31 104c-4 4 -9 6 -14 7v9c20 0 42 -1 61 -4c75 -10 129 -44 129 -114zM348 519v-331c0 -55 36 -65 65 -71v-9h-260v9c32 6 56 21 56 71v243c0 50 -24 74 -56 80v8h195z" />
    <glyph glyph-name="dollar.lin" horiz-adv-x="521" 
d="M283 701h28l-19 -264l48 -28c71 -42 159 -100 159 -209c0 -112 -88 -199 -241 -208v9c37 7 74 22 74 79c0 44 -28 68 -75 97l-19 -254h-28l20 269c-16 8 -34 17 -53 29c-83 47 -137 112 -137 211c0 136 129 199 223 206v-9c-33 -7 -67 -32 -67 -82c0 -40 29 -67 69 -93z
M201 -8c-65 6 -129 20 -155 32l-11 183h9c28 -89 97 -184 157 -206v-9zM471 448h-9c-27 79 -63 159 -144 181v9c41 -1 113 -12 145 -23z" />
    <glyph glyph-name="Euro.lin" horiz-adv-x="620" 
d="M7 279h63c-2 12 -2 25 -2 38c0 10 0 19 1 28h-62v27h64c27 194 192 259 313 266v-8c-11 -1 -24 -6 -33 -12c-44 -28 -62 -96 -65 -246h160v-27h-160v-66h122v-27h-121c5 -141 24 -216 67 -243c8 -5 16 -7 25 -9v-8c-132 7 -280 69 -307 260h-65v27zM569 222h9l-4 -203
c-39 -13 -94 -22 -166 -26v8c87 30 135 121 161 221zM583 428h-9c-24 92 -75 180 -161 202v8c73 -1 129 -13 166 -26z" />
    <glyph glyph-name="sterling.lin" horiz-adv-x="579" 
d="M88 364h75c3 9 6 25 9 33c54 182 200 233 298 241l1 -6c-52 -17 -58 -102 -97 -258c0 -1 -3 -10 -3 -10h86v-27h-94c-6 -17 -13 -33 -22 -46h96v-27h-115c-41 -47 -114 -74 -219 -92l-6 3c12 13 27 43 41 89h-70v27h78l11 46h-69v27zM-20 -9l-3 3c27 87 93 159 189 159
c54 0 90 -8 133 -13c58 -6 106 -12 149 -12c63 0 91 10 113 48l4 -1c-8 -79 -44 -205 -163 -205c-46 0 -141 17 -195 22c-79 8 -103 9 -149 9c-27 0 -57 -4 -78 -10zM512 614c38 0 69 -30 69 -69c0 -38 -31 -69 -69 -69s-69 31 -69 69c0 39 31 69 69 69z" />
    <glyph glyph-name="yen.lin" horiz-adv-x="576" 
d="M55 343h102l-91 206c-22 41 -49 65 -91 73v8h371v-8c-31 -1 -59 -20 -59 -48c0 -16 10 -43 21 -62l76 -169h136v-27h-127v-64h127v-26h-127v-102c0 -89 29 -106 73 -116v-8h-357v8c51 10 74 34 74 116v102h-128v26h128v32l-14 32h-114v27zM627 622
c-60 -10 -126 -82 -173 -159l-7 6c13 27 22 68 22 90c0 28 -14 60 -61 63v8h219v-8z" />
    <glyph glyph-name="zero.lin" horiz-adv-x="635" 
d="M25 315c0 220 157 316 279 323v-8c-9 -2 -17 -7 -24 -13c-28 -26 -37 -94 -37 -302s9 -276 37 -302c7 -6 15 -11 24 -13v-8c-122 7 -279 103 -279 323zM610 315c0 -220 -157 -316 -279 -323v8c9 2 17 7 24 13c29 26 38 94 38 302s-9 276 -38 302c-7 6 -15 11 -24 13v8
c122 -7 279 -103 279 -323z" />
    <glyph glyph-name="one.lin" horiz-adv-x="393" 
d="M307 492v-368c0 -89 27 -106 71 -116v-8h-353v8c52 10 72 34 72 116v368c0 41 -5 76 -18 93c-14 18 -38 25 -70 30v8c78 0 203 7 300 10c-2 -37 -2 -75 -2 -141z" />
    <glyph glyph-name="two.lin" horiz-adv-x="539" 
d="M-7 0l148 154h246c65 0 107 53 124 102h8l-21 -256h-505zM169 181l-5 4c59 64 115 125 115 225c0 48 -21 95 -100 94c-57 -1 -102 -21 -136 -56l-6 4c32 87 124 186 248 186c141 0 204 -71 204 -167c0 -124 -148 -229 -320 -290z" />
    <glyph glyph-name="three.lin" horiz-adv-x="460" 
d="M219 392l-7 3c10 10 23 32 23 51c0 53 -41 69 -93 69c-48 0 -83 -15 -107 -44l-7 5c29 95 109 162 204 162c119 0 172 -46 172 -121c0 -64 -52 -105 -185 -125zM86 135c39 0 71 -32 71 -72c0 -39 -32 -71 -71 -71s-72 32 -72 71c0 40 33 72 72 72zM260 130
c0 81 -50 117 -138 117c-13 0 -31 -2 -44 -5l-2 6l122 128c156 4 245 -60 245 -166c0 -92 -79 -207 -284 -217v8c66 12 101 68 101 129z" />
    <glyph glyph-name="four.lin" horiz-adv-x="593" 
d="M436 636v-512c0 -89 28 -106 72 -116v-8h-353v8c51 10 72 34 72 116v327l138 189zM466 160v135h113l-13 -135h-100zM196 295v-135h-196v4l96 131h100z" />
    <glyph glyph-name="five.lin" horiz-adv-x="470" 
d="M433 683l-27 -207h-330l20 154h259c35 0 61 21 71 53h7zM145 -8l-1 7c84 13 135 67 135 142c0 82 -50 113 -145 113c-24 0 -64 -2 -96 -8l31 158c27 5 85 9 109 9c176 0 261 -72 261 -187c0 -120 -81 -229 -294 -234zM87 158c42 0 78 -36 78 -79c0 -42 -36 -77 -78 -77
s-78 35 -78 77c0 43 36 79 78 79z" />
    <glyph glyph-name="six.lin" horiz-adv-x="576" 
d="M492 628c-135 -36 -262 -149 -262 -394c0 -125 13 -220 54 -232v-10c-143 1 -260 118 -260 249c0 122 52 212 130 275c106 86 254 117 338 119v-7zM259 366v4c15 31 75 47 118 47c105 0 180 -66 180 -202c0 -118 -95 -210 -256 -223v10c28 12 50 117 50 203
c0 132 -29 165 -67 165c-4 0 -20 -2 -25 -4z" />
    <glyph glyph-name="seven.lin" horiz-adv-x="468" 
d="M475 630l-60 -162h-271c-69 0 -107 -27 -125 -63h-9l47 225h418zM406 444l-168 -444h-186l343 444h11z" />
    <glyph glyph-name="eight.lin" horiz-adv-x="494" 
d="M346 423l-5 4c15 24 19 55 20 80c0 71 -34 119 -98 119c-49 0 -89 -29 -89 -75c0 -49 37 -83 110 -117c106 -48 199 -101 199 -223c0 -127 -103 -219 -244 -219c-131 0 -224 51 -224 142c0 76 85 102 119 116l5 -5c-12 -19 -23 -45 -24 -76c-6 -77 20 -164 125 -164
c64 0 98 33 98 94c0 57 -36 84 -134 133c-89 46 -183 98 -183 218c0 115 99 188 248 188c118 0 183 -47 183 -105c0 -46 -29 -87 -106 -110z" />
    <glyph glyph-name="nine.lin" horiz-adv-x="580" 
d="M88 0c135 37 262 151 262 396c0 126 -13 220 -54 232v10c162 -1 260 -118 260 -249c0 -122 -51 -211 -130 -275c-106 -86 -254 -118 -338 -121v7zM321 272v-4c-15 -31 -75 -47 -118 -47c-103 0 -181 68 -181 195c0 119 96 209 257 222v-10c-28 -12 -50 -112 -50 -202
c0 -131 29 -158 67 -158c4 0 20 2 25 4z" />
    <glyph glyph-name="percent.lin" horiz-adv-x="678" 
d="M332 474c0 -83 -75 -159 -156 -166v10c25 8 31 84 31 156c0 73 -6 146 -31 154v10c81 -7 156 -80 156 -164zM127 9l404 630l24 -18l-404 -629zM3 474c0 84 75 157 156 164v-10c-24 -8 -31 -81 -31 -154c0 -72 7 -148 31 -156v-10c-81 7 -156 83 -156 166zM346 156
c0 84 75 159 156 166v-10c-24 -8 -31 -83 -31 -156c0 -72 7 -145 31 -153v-10c-81 7 -156 80 -156 163zM675 156c0 -83 -75 -156 -156 -163v10c25 8 31 81 31 153c0 73 -6 148 -31 156v10c81 -7 156 -82 156 -166z" />
    <glyph glyph-name="perthousand.lin" horiz-adv-x="1035" 
d="M332 474c0 -83 -75 -159 -156 -166v10c25 8 31 84 31 156c0 73 -6 146 -31 154v10c81 -7 156 -80 156 -164zM127 9l404 630l24 -18l-404 -629zM3 474c0 84 75 157 156 164v-10c-24 -8 -31 -81 -31 -154c0 -72 7 -148 31 -156v-10c-81 7 -156 83 -156 166zM346 156
c0 84 75 159 156 166v-10c-24 -8 -31 -83 -31 -156c0 -72 7 -145 31 -153v-10c-81 7 -156 80 -156 163zM675 156c0 -83 -75 -156 -156 -163v10c25 8 31 81 31 153c0 73 -6 148 -31 156v10c81 -7 156 -82 156 -166zM705 156c0 84 75 159 156 166v-10c-25 -8 -31 -83 -31 -156
c0 -72 6 -145 31 -153v-10c-81 7 -156 80 -156 163zM1034 156c0 -83 -75 -156 -156 -163v10c24 8 31 81 31 153c0 73 -7 148 -31 156v10c81 -7 156 -82 156 -166z" />
    <glyph glyph-name="plus.lin" horiz-adv-x="430" 
d="M40 341h152v152h45v-152h153v-45h-153v-153h-45v153h-152v45z" />
    <glyph glyph-name="minus.lin" horiz-adv-x="430" 
d="M40 341h350v-45h-350v45z" />
    <glyph glyph-name="multiply.lin" horiz-adv-x="379" 
d="M27 188l131 130l-131 130l32 32l130 -130l131 131l32 -32l-131 -131l131 -131l-32 -32l-131 131l-130 -130z" />
    <glyph glyph-name="divide.lin" horiz-adv-x="430" 
d="M166 196c0 26 21 49 48 49c26 0 49 -23 49 -49c0 -27 -23 -47 -49 -47c-27 0 -48 20 -48 47zM166 437c0 26 21 49 48 49c26 0 49 -23 49 -49c0 -27 -23 -47 -49 -47c-27 0 -48 20 -48 47zM40 340h350v-45h-350v45z" />
    <glyph glyph-name="equal.lin" horiz-adv-x="430" 
d="M40 264h350v-45h-350v45zM40 424h350v-45h-350v45z" />
    <glyph glyph-name="less.lin" horiz-adv-x="380" 
d="M343 426l-256 -103l256 -103v-45l-311 125v46l311 125v-45z" />
    <glyph glyph-name="greater.lin" horiz-adv-x="380" 
d="M293 323l-257 103v45l311 -125v-46l-311 -125v45z" />
    <glyph glyph-name="zero.num" horiz-adv-x="416" 
d="M18 443c0 131 100 187 181 192v-8c-3 0 -9 -2 -13 -4c-19 -15 -29 -57 -29 -180s10 -165 29 -180c4 -2 10 -4 13 -4v-8c-81 5 -181 61 -181 192zM397 443c0 -131 -100 -187 -181 -192v8c4 0 10 2 13 4c20 15 30 57 30 180s-10 165 -30 180c-3 2 -9 4 -13 4v8
c81 -5 181 -61 181 -192z" />
    <glyph glyph-name="one.num" horiz-adv-x="300" 
d="M216 517v-187c0 -52 19 -62 54 -68v-8h-238v8c40 6 56 20 56 68v209c0 26 -3 47 -13 57c-9 10 -31 15 -51 18v9c45 1 141 6 193 10c-1 -22 -1 -78 -1 -116z" />
    <glyph glyph-name="two.num" horiz-adv-x="353" 
d="M3 254l92 98h148c40 0 65 31 75 61h9l-14 -159h-310zM114 371l-5 4c34 41 60 70 60 123c0 30 -15 57 -61 57c-33 -1 -53 -13 -73 -36l-6 3c17 51 70 115 157 115s129 -44 129 -101c0 -75 -103 -135 -201 -165z" />
    <glyph glyph-name="three.num" horiz-adv-x="309" 
d="M148 485h-9c6 6 13 23 13 36c0 29 -19 38 -48 38c-32 0 -53 -12 -68 -30l-8 5c16 58 68 101 130 101c68 0 111 -27 111 -72c0 -39 -39 -66 -121 -78zM63 349c26 0 46 -20 46 -46c0 -25 -20 -45 -46 -45s-45 20 -45 45c0 26 19 46 45 46zM159 330c0 38 -17 60 -71 60
c-8 0 -21 -1 -29 -3l-4 8l77 77c113 10 160 -27 160 -93c0 -62 -62 -125 -190 -131v9c35 7 57 34 57 73z" />
    <glyph glyph-name="four.num" horiz-adv-x="380" 
d="M277 635v-304c0 -53 27 -63 55 -68v-9h-247v9c33 5 56 20 56 68v187l85 120zM300 345v92h63l-8 -92h-55zM116 437v-92h-109v3l59 89h50z" />
    <glyph glyph-name="five.num" horiz-adv-x="310" 
d="M286 665l-18 -135h-214l12 100h161c26 0 45 17 51 35h8zM99 248l-1 9c40 6 78 26 78 78c0 44 -33 64 -91 64c-14 0 -30 -1 -48 -4l15 104c16 3 47 5 63 5c113 0 173 -41 173 -117c0 -87 -68 -132 -189 -139zM62 358c26 0 49 -22 49 -49s-23 -49 -49 -49
c-28 0 -50 22 -50 49s22 49 50 49z" />
    <glyph glyph-name="six.num" horiz-adv-x="374" 
d="M306 626c-83 -22 -154 -83 -154 -230c0 -75 6 -130 29 -137v-8c-93 4 -164 71 -164 150c0 74 37 129 86 166c61 46 148 63 201 67zM173 473l-2 4c12 16 46 29 72 29c63 0 118 -39 118 -120c0 -71 -65 -130 -163 -135v8c18 7 28 44 28 118c0 79 -15 98 -39 98
c-6 0 -11 -1 -14 -2z" />
    <glyph glyph-name="seven.num" horiz-adv-x="308" 
d="M303 630l-37 -108h-174c-41 0 -60 -22 -68 -47h-12l32 155h259zM260 506l-101 -251h-124l212 251h13z" />
    <glyph glyph-name="eight.num" horiz-adv-x="329" 
d="M233 516l-7 4c7 14 9 29 9 45c-1 39 -27 63 -64 63c-29 0 -49 -14 -49 -40c0 -30 21 -47 67 -68c64 -29 123 -60 123 -134c0 -76 -67 -135 -154 -135c-80 0 -141 23 -141 77c0 40 50 59 70 64l6 -4c-8 -13 -14 -24 -14 -49c1 -43 26 -80 79 -80c34 0 59 21 59 53
c0 34 -28 42 -87 72c-53 27 -106 57 -106 129c0 70 60 124 150 124c74 0 118 -27 118 -63c0 -28 -23 -48 -59 -58z" />
    <glyph glyph-name="nine.num" horiz-adv-x="374" 
d="M54 259c82 22 168 83 168 230c0 75 -6 129 -29 137v8c92 -4 163 -72 163 -151c0 -73 -37 -128 -85 -165c-59 -45 -163 -63 -216 -67zM200 412l2 -4c-11 -16 -45 -29 -72 -29c-63 0 -118 40 -118 120c0 71 65 130 163 135v-8c-17 -7 -28 -44 -28 -119c0 -79 17 -98 39 -98
c6 0 12 1 14 3z" />
    <glyph glyph-name="zero.den" horiz-adv-x="416" 
d="M18 188c0 132 100 188 181 192v-8c-3 0 -9 -2 -13 -4c-19 -14 -29 -57 -29 -180s10 -165 29 -179c4 -3 10 -5 13 -5v-8c-81 5 -181 61 -181 192zM397 188c0 -131 -100 -187 -181 -192v8c4 0 10 2 13 5c20 14 30 56 30 179s-10 166 -30 180c-3 2 -9 4 -13 4v8
c81 -4 181 -60 181 -192z" />
    <glyph glyph-name="one.den" horiz-adv-x="300" 
d="M216 262v-187c0 -52 19 -62 54 -68v-8h-238v8c40 6 56 21 56 68v210c0 25 -3 47 -13 57c-9 9 -31 14 -51 17v9c45 1 141 7 193 10c-1 -22 -1 -78 -1 -116z" />
    <glyph glyph-name="two.den" horiz-adv-x="353" 
d="M3 -1l92 99h148c40 0 65 30 75 60h9l-14 -159h-310zM114 116l-5 4c36 41 62 70 62 123c0 30 -15 57 -61 57c-33 -1 -53 -13 -73 -36l-6 3c17 51 71 115 157 115c88 0 129 -44 129 -101c0 -75 -105 -135 -203 -165z" />
    <glyph glyph-name="three.den" horiz-adv-x="309" 
d="M147 230h-9c6 7 13 23 13 36c0 29 -19 39 -48 39c-32 0 -53 -13 -68 -31l-8 6c16 57 68 100 130 100c68 0 114 -19 114 -72c0 -39 -42 -66 -124 -78zM63 95c25 0 45 -20 45 -47c0 -25 -20 -45 -45 -45c-26 0 -46 20 -46 45c0 27 20 47 46 47zM158 75c0 38 -17 60 -71 60
c-8 0 -21 -1 -29 -3l-4 8l77 77c113 11 162 -27 162 -92c0 -63 -64 -125 -192 -131v8c35 7 57 34 57 73z" />
    <glyph glyph-name="four.den" horiz-adv-x="380" 
d="M277 381v-305c0 -52 27 -62 55 -68v-9h-247v9c33 6 56 20 56 68v187l85 120zM300 90v92h63l-8 -92h-55zM116 182v-92h-109v3l59 89h50z" />
    <glyph glyph-name="five.den" horiz-adv-x="310" 
d="M286 411l-18 -136h-214l12 100h161c26 0 45 17 51 36h8zM99 -7l-1 9c40 6 78 26 78 79c0 43 -33 63 -91 63c-14 0 -30 -1 -48 -4l15 104c16 3 47 5 63 5c113 0 173 -41 173 -117c0 -87 -68 -132 -189 -139zM62 103c26 0 49 -22 49 -49s-23 -49 -49 -49
c-28 0 -50 22 -50 49s22 49 50 49z" />
    <glyph glyph-name="six.den" horiz-adv-x="374" 
d="M306 371c-83 -22 -154 -83 -154 -230c0 -75 6 -130 29 -137v-8c-93 4 -164 72 -164 150c0 74 37 129 86 166c61 46 148 63 201 67zM173 218l-2 4c12 16 46 29 72 29c63 0 118 -39 118 -120c0 -71 -65 -130 -163 -135v8c18 7 28 44 28 118c0 80 -15 99 -39 99
c-6 0 -11 -2 -14 -3z" />
    <glyph glyph-name="seven.den" horiz-adv-x="308" 
d="M303 375l-37 -107h-174c-41 0 -60 -22 -68 -48h-12l32 155h259zM260 251l-101 -251h-124l212 251h13z" />
    <glyph glyph-name="eight.den" horiz-adv-x="329" 
d="M233 261l-7 4c7 14 9 29 9 45c-1 40 -27 63 -64 63c-29 0 -49 -14 -49 -40c0 -30 21 -47 67 -68c64 -28 123 -60 123 -134c0 -76 -67 -135 -154 -135c-80 0 -141 23 -141 78c0 39 50 58 70 63l6 -4c-8 -13 -14 -24 -14 -49c1 -42 26 -80 79 -80c34 0 59 21 59 53
c0 34 -28 42 -87 72c-53 27 -106 57 -106 129c0 70 60 124 150 124c74 0 118 -27 118 -63c0 -28 -23 -48 -59 -58z" />
    <glyph glyph-name="nine.den" horiz-adv-x="374" 
d="M54 4c82 22 168 83 168 230c0 75 -6 130 -29 137v8c92 -4 163 -72 163 -150c0 -74 -37 -129 -85 -166c-59 -45 -163 -63 -216 -67zM200 157l2 -4c-11 -16 -45 -29 -72 -29c-63 0 -118 41 -118 120c0 71 65 130 163 135v-8c-17 -7 -28 -44 -28 -118c0 -79 17 -99 39 -99
c6 0 12 2 14 3z" />
    <glyph glyph-name="Y.alt" horiz-adv-x="685" 
d="M209 124v156c0 159 -67 249 -142 297c-34 21 -62 29 -96 33v8c27 8 108 16 144 16c137 0 175 -20 231 -82c42 -45 89 -155 89 -259v-169c0 -89 29 -106 73 -116v-8h-373v8c51 10 74 34 74 116zM714 617c-87 -12 -194 -84 -241 -165l-8 5c22 80 71 150 84 158
c14 11 53 18 94 18c27 0 59 -5 71 -8v-8z" />
    <glyph glyph-name="Q.long" horiz-adv-x="750" 
d="M1518 -129l5 -5c-41 -87 -180 -174 -375 -174c-153 0 -317 46 -504 120c-113 44 -293 119 -366 141v4c58 13 168 27 246 27c104 0 187 -16 230 -26c51 -12 127 -37 184 -53c192 -61 318 -91 415 -91c79 0 133 21 165 57zM371 7v-7c-208 11 -353 132 -353 318
c0 201 170 300 324 319v-7c-9 -2 -29 -10 -39 -24c-31 -32 -41 -102 -41 -275c0 -165 12 -269 70 -309c11 -7 26 -13 39 -15zM372 631v7c208 -12 353 -132 353 -318c0 -201 -169 -300 -323 -319v7c9 2 27 9 37 22c31 32 42 104 42 277c0 164 -12 269 -70 309
c-11 7 -26 13 -39 15z" />
    <glyph glyph-name="Q.short" horiz-adv-x="750" 
d="M934 -79l3 -6c-26 -57 -125 -116 -226 -116c-86 0 -160 32 -228 62c-93 42 -145 69 -205 92v4c58 13 136 24 214 24c84 0 130 -12 204 -34c81 -25 125 -38 171 -38c34 0 54 6 67 12zM371 7v-7c-208 11 -353 132 -353 318c0 201 170 300 324 319v-7c-9 -2 -29 -10 -39 -24
c-31 -32 -41 -102 -41 -275c0 -165 12 -269 70 -309c11 -7 26 -13 39 -15zM372 631v7c208 -12 353 -132 353 -318c0 -201 -169 -300 -323 -319v7c9 2 27 9 37 22c31 32 42 104 42 277c0 164 -12 269 -70 309c-11 7 -26 13 -39 15z" />
    <glyph glyph-name="longs" unicode="&#x17f;" horiz-adv-x="321" 
d="M369 688c45 0 81 -36 81 -81s-36 -82 -81 -82s-81 37 -81 82s36 81 81 81zM307 6v-6h-292v6c28 7 44 16 44 67v326h-68v8l69 68v28c0 118 98 191 260 201v-6c-36 -6 -65 -32 -65 -97v-528c0 -51 24 -61 52 -67z" />
    <glyph glyph-name="ampersand.swash" horiz-adv-x="1233" 
d="M431 440l-4 4c14 20 29 36 29 108c0 44 -17 75 -58 75c-34 0 -58 -30 -58 -72c0 -49 33 -86 71 -125c39 -41 197 -239 224 -269c55 -64 112 -109 177 -109c41 0 83 17 104 47l6 -4c-35 -79 -118 -152 -251 -152c-68 0 -119 20 -161 51c-40 30 -69 67 -95 99
c-35 48 -135 162 -178 212c-33 38 -73 94 -73 154c0 110 114 179 226 179c128 0 174 -43 174 -97s-67 -86 -133 -101zM559 331c39 77 111 188 176 260c90 97 188 140 302 140c150 0 215 -88 231 -159l-8 -2c-26 34 -63 59 -171 59c-70 0 -140 -17 -208 -52
c-116 -60 -217 -144 -315 -253zM1115 509c0 39 33 70 72 70s70 -31 70 -70s-31 -71 -70 -71s-72 32 -72 71zM179 341l4 -7c-7 -8 -9 -22 -9 -36c0 -30 22 -70 52 -109c33 -44 74 -86 114 -86c16 0 25 5 33 10l4 -6c-30 -61 -97 -115 -188 -115c-93 0 -169 57 -169 158
c0 92 98 167 159 191z" />
    <glyph glyph-name="ampersand.swashalt" horiz-adv-x="851" 
d="M633 274l-6 6c9 20 37 65 37 90c0 16 -5 31 -19 45c-13 12 -37 21 -63 24v8h257v-8c-72 -10 -154 -95 -206 -165zM467 433l-4 4c14 22 24 50 24 121c0 38 -11 69 -48 69c-24 0 -45 -22 -45 -59c0 -43 24 -94 62 -148c47 -68 111 -140 182 -217
c113 -123 280 -280 466 -280c106 0 147 32 168 63l6 -5c-37 -128 -154 -209 -314 -209c-221 0 -365 137 -495 274c-84 88 -165 175 -207 254c-26 44 -42 86 -42 134c0 117 112 204 224 204c109 0 152 -42 152 -96c0 -45 -64 -93 -129 -109zM222 348l5 -7
c-12 -13 -17 -33 -17 -56c0 -28 6 -60 25 -98c35 -71 78 -102 120 -102c20 0 29 6 37 11l4 -6c-28 -62 -98 -118 -189 -118c-93 0 -187 53 -187 172c0 104 119 177 202 204z" />
    <glyph glyph-name="a.terminal" horiz-adv-x="930" 
d="M239 76c5 0 13 1 16 4v-3c-5 -23 -43 -85 -118 -85c-80 0 -126 44 -126 114c0 54 31 98 56 107c20 8 144 33 181 40v-6c-10 -4 -22 -10 -28 -18c-9 -16 -12 -41 -12 -65c0 -64 13 -88 31 -88zM47 340c0 35 29 64 64 64s64 -29 64 -64s-29 -64 -64 -64s-64 29 -64 64z
M460 328v-101c0 -20 1 -57 3 -71c13 -5 34 -7 60 -7c28 -1 67 -1 102 -1c108 0 164 12 204 43c36 29 51 68 51 102c0 30 -7 48 -18 60l3 5c34 -16 68 -59 68 -122c-1 -62 -24 -120 -72 -162c-55 -50 -141 -75 -296 -76c-70 0 -155 0 -295 2l-3 4c-2 58 -3 84 -3 151v160
c0 67 -69 103 -162 103v3c43 41 106 60 182 60c132 0 176 -63 176 -153zM719 309c0 39 29 72 69 72c39 0 72 -33 72 -72c0 -40 -33 -69 -72 -69c-40 0 -69 29 -69 69z" />
    <glyph glyph-name="d.terminal" horiz-adv-x="1020" 
d="M366 0l-3 4c-3 58 -3 84 -3 151v173c0 55 -12 92 -27 113c-17 22 -40 30 -53 31v6c7 2 18 3 33 3c21 0 38 -3 46 -6v59c0 44 -4 72 -30 92l-13 10v4l240 64l3 -3c-1 -41 -3 -98 -3 -138v-336c0 -20 1 -57 3 -71c12 -5 34 -7 60 -7c28 -1 67 -1 102 -1
c108 0 163 12 203 43c36 29 52 68 52 102c0 30 -8 48 -18 60l3 5c33 -16 67 -59 67 -122c0 -62 -23 -120 -71 -162c-55 -50 -141 -75 -296 -76c-70 0 -156 0 -295 2zM318 98c10 0 22 3 27 6v-4c-16 -58 -72 -108 -141 -108c-104 0 -188 85 -188 216c0 171 149 248 247 267
v-8c-23 -15 -35 -110 -35 -189c0 -145 53 -180 90 -180zM814 309c0 39 29 72 70 72c39 0 71 -33 71 -72c0 -40 -32 -69 -71 -69c-41 0 -70 29 -70 69z" />
    <glyph glyph-name="e.terminal" horiz-adv-x="877" 
d="M799 124c-76 -73 -212 -132 -454 -132c-236 0 -335 113 -335 242c0 141 98 232 206 246v-8c-17 -16 -36 -58 -36 -151c0 -139 109 -173 236 -173c182 0 304 28 363 85c48 45 62 96 62 136c0 32 -8 47 -18 57l5 5c21 -14 51 -61 51 -120c0 -73 -26 -135 -80 -187zM425 317
h-217v7l54 13c0 64 -8 125 -27 136v8c143 -6 190 -78 190 -164zM712 399c0 28 21 52 52 52c28 0 52 -24 52 -52c0 -31 -24 -52 -52 -52c-31 0 -52 21 -52 52z" />
    <glyph glyph-name="h.terminal" horiz-adv-x="1009" 
d="M654 -2c-66 0 -193 0 -330 2v6c22 5 35 17 35 55v256c0 50 -22 67 -59 67c-9 0 -20 -3 -27 -5v3c25 49 88 99 163 99c94 0 119 -60 119 -140v-125c0 -17 1 -53 2 -65c29 -2 92 -3 152 -3c90 0 157 12 199 44c36 28 52 66 52 100c0 30 -8 50 -19 62l4 5
c33 -16 67 -59 67 -122c0 -62 -23 -121 -73 -163c-58 -51 -156 -75 -285 -76zM256 563v-502c0 -38 13 -50 35 -55v-6h-275v6c24 7 44 16 44 67v492c0 37 -6 48 -27 63l-13 8v5l236 63l3 -3c-1 -41 -3 -98 -3 -138zM798 310c0 39 29 71 70 71c38 0 71 -32 71 -71
c0 -41 -33 -70 -71 -70c-41 0 -70 29 -70 70z" />
    <glyph glyph-name="l.terminal" horiz-adv-x="713" 
d="M16 0v6c23 7 42 17 42 66v497c0 37 -5 49 -27 63l-13 8v5l236 62l3 -3c-1 -41 -3 -98 -3 -138v-350c0 -17 0 -52 1 -65c27 -1 97 -3 157 -3c90 0 157 12 199 44c36 28 52 66 52 100c0 30 -8 50 -19 62l3 5c34 -17 67 -59 67 -122c0 -62 -22 -121 -72 -163
c-58 -51 -156 -75 -285 -76c-72 0 -203 0 -341 2zM501 310c0 39 29 71 69 71c39 0 72 -32 72 -71c0 -41 -33 -70 -72 -70c-40 0 -69 29 -69 70z" />
    <glyph glyph-name="m.terminal" horiz-adv-x="1297" 
d="M256 479v-418c0 -38 13 -50 35 -55v-6h-275v6c27 7 44 16 44 67v271c0 36 -6 48 -27 62c-2 2 -11 8 -13 9v4l233 64zM549 341v-280c0 -39 12 -50 35 -55v-6h-267v6c23 5 36 17 36 55v256c0 50 -17 67 -54 67c-9 0 -19 -3 -26 -5v3c25 49 88 99 163 99
c94 0 113 -60 113 -140zM842 341v-125c0 -17 1 -52 2 -65c29 -2 92 -3 152 -3c90 0 157 12 199 44c37 28 52 67 52 100c0 31 -8 50 -18 62l3 5c33 -16 67 -59 67 -122c0 -62 -23 -121 -73 -163c-58 -51 -156 -75 -285 -76c-66 0 -192 0 -330 2v6c22 5 35 17 35 55v256
c0 51 -17 67 -54 67c-9 0 -19 -3 -26 -5v3c26 49 89 99 163 99c94 0 113 -60 113 -140zM1086 310c0 39 29 71 70 71c38 0 71 -32 71 -71c0 -41 -33 -70 -71 -70c-41 0 -70 29 -70 70z" />
    <glyph glyph-name="n.terminal" horiz-adv-x="1009" 
d="M555 341v-125c0 -17 1 -53 2 -65c29 -2 92 -3 152 -3c90 0 157 12 199 44c36 28 52 66 52 100c0 30 -8 50 -19 62l4 5c33 -16 67 -59 67 -122c0 -62 -23 -121 -73 -163c-58 -51 -156 -75 -285 -76c-66 0 -193 0 -330 2v6c22 5 35 17 35 55v256c0 50 -22 67 -59 67
c-9 0 -20 -3 -27 -5v3c25 49 88 99 163 99c94 0 119 -60 119 -140zM256 479v-418c0 -38 13 -50 35 -55v-6h-275v6c27 7 44 16 44 67v271c0 36 -5 47 -27 62l-13 9v4l233 64zM798 310c0 39 29 71 70 71c38 0 71 -32 71 -71c0 -41 -33 -70 -71 -70c-41 0 -70 29 -70 70z" />
    <glyph glyph-name="r.terminal" horiz-adv-x="680" 
d="M278 309l-5 3c22 83 70 169 151 169c34 0 59 -6 103 -24c66 -25 97 -34 120 -34c28 0 51 16 57 29l6 -3c-12 -90 -79 -156 -168 -156c-18 0 -43 7 -97 29c-50 19 -79 30 -103 30c-27 0 -51 -14 -64 -43zM577 522c0 37 28 65 65 65s66 -28 66 -65s-29 -65 -66 -65
s-65 28 -65 65zM256 479v-410c0 -40 21 -58 51 -63v-6h-291v6c27 7 44 16 44 67v271c0 36 -6 48 -27 62l-13 9v4l233 64z" />
    <glyph glyph-name="t.terminal" horiz-adv-x="718" 
d="M354 -2c-65 0 -194 0 -332 2v6c19 5 33 17 33 55v337h-48v21l230 180l16 -8v-123h140l-8 -70h-132v-247c31 -1 97 -3 157 -3c95 0 157 12 198 44c37 28 53 66 53 100c0 30 -9 50 -19 62l3 5c35 -16 75 -59 75 -122c-1 -62 -23 -121 -73 -163c-58 -51 -164 -75 -293 -76z
M499 310c0 39 29 71 70 71c39 0 71 -32 71 -71c0 -41 -32 -70 -71 -70c-41 0 -70 29 -70 70z" />
    <glyph glyph-name="t.terminalalt" horiz-adv-x="492" 
d="M253 468h142c85 0 156 20 178 105l8 -1c-7 -54 -29 -95 -62 -125c-34 -31 -93 -49 -153 -49h-113v-218c0 -58 35 -80 85 -80c22 0 51 7 63 12v-6c-27 -50 -98 -114 -187 -114c-71 0 -156 22 -156 143v263h-51v21l230 180l16 -8v-123zM442 577c0 29 26 56 56 56
c29 0 56 -27 56 -56c0 -30 -27 -56 -56 -56c-30 0 -56 26 -56 56z" />
    <glyph glyph-name="z.terminal" horiz-adv-x="745" 
d="M31 0h-30l270 468h218l-211 -360c32 -1 115 -3 153 -3c131 0 190 25 228 58c34 30 45 76 45 110c0 36 -14 57 -27 68l4 5c28 -15 67 -59 67 -122c0 -62 -21 -107 -72 -148c-63 -53 -165 -78 -295 -78c-163 0 -294 2 -350 2zM29 274h-8l18 194h179v-8
c-74 -27 -144 -85 -189 -186zM550 295c0 36 26 65 63 65c35 0 65 -29 65 -65s-30 -63 -65 -63c-37 0 -63 27 -63 63z" />
    <glyph glyph-name="c_t.terminal" horiz-adv-x="1139" 
d="M674 398v-247c31 -1 97 -3 157 -3c96 0 157 12 199 44c36 28 52 66 52 100c0 30 -8 50 -18 62l3 5c35 -16 74 -59 74 -122c0 -62 -22 -121 -72 -163c-58 -51 -163 -75 -291 -76c-66 0 -195 0 -333 2v6c19 5 33 17 33 55v337h-31v19c60 20 133 75 133 167
c0 70 -30 115 -127 117v8c168 -1 228 -88 228 -178c0 -19 -4 -50 -8 -63h141l-8 -70h-132zM267 479v-8c-28 -13 -60 -64 -60 -165c0 -135 66 -175 125 -175c42 0 84 22 102 48l7 -4c-10 -65 -51 -183 -206 -183c-150 0 -225 114 -225 228c0 148 115 245 257 259zM274 382
c0 29 14 55 36 68c-27 25 -44 62 -44 106c0 90 72 146 162 152v-8c-70 -6 -142 -44 -142 -127c0 -62 51 -98 87 -114c15 -7 29 -14 41 -28c13 -15 18 -33 18 -50c0 -44 -35 -80 -82 -80s-76 37 -76 81zM921 310c0 39 29 71 70 71c38 0 71 -32 71 -71c0 -41 -33 -70 -71 -70
c-41 0 -70 29 -70 70z" />
    <glyph glyph-name="s_t.terminal" horiz-adv-x="1085" 
d="M724 -2c-66 0 -195 0 -333 2v6c20 5 34 17 34 55v337h-32v19c60 20 133 75 133 167c0 70 -30 115 -127 117v8c168 -1 228 -88 228 -178c0 -19 -3 -50 -7 -63h140l-8 -70h-132v-247c31 -1 97 -3 158 -3c95 0 157 12 198 44c37 28 53 66 53 100c0 30 -9 50 -19 62l3 5
c35 -16 75 -59 75 -122c-1 -62 -23 -121 -73 -163c-58 -51 -162 -75 -291 -76zM216 481v-7c-23 -5 -48 -19 -48 -53c0 -41 56 -71 97 -99c66 -46 117 -94 117 -160c0 -101 -63 -159 -191 -170v6c23 4 37 25 37 54c0 37 -37 63 -86 94c-63 39 -123 84 -123 175
c0 86 85 149 197 160zM212 568c0 -38 18 -70 44 -89c43 -4 90 -11 102 -13l5 -150h-7c-17 63 -68 123 -112 158c-18 13 -43 49 -43 94c0 90 83 134 173 140v-8c-83 -6 -162 -45 -162 -132zM164 -2v-6c-51 -1 -112 16 -142 28l-3 153h7c18 -67 101 -163 138 -175zM867 310
c0 39 29 71 70 71c38 0 71 -32 71 -71c0 -41 -33 -70 -71 -70c-41 0 -70 29 -70 70z" />
    <glyph glyph-name="c_t.terminalalt" horiz-adv-x="913" 
d="M267 479v-8c-28 -13 -60 -64 -60 -165c0 -135 66 -175 125 -175c42 0 84 22 102 48l7 -4c-10 -65 -51 -183 -206 -183c-150 0 -225 114 -225 228c0 148 109 248 257 259zM673 468h143c85 0 155 20 178 105l8 -1c-7 -54 -28 -95 -62 -125c-34 -31 -93 -49 -153 -49h-113
v-218c0 -58 35 -80 85 -80c22 0 51 7 63 12v-6c-27 -50 -98 -114 -187 -114c-71 0 -157 22 -157 143v263h-31v19c60 20 133 75 133 167c0 70 -29 110 -127 116v8c178 -9 228 -87 228 -177c0 -19 -4 -50 -8 -63zM863 577c0 29 26 56 56 56c29 0 56 -27 56 -56
c0 -30 -27 -56 -56 -56c-30 0 -56 26 -56 56zM274 382c0 29 14 55 36 68c-27 25 -44 62 -44 106c0 90 72 146 162 152v-8c-71 -6 -142 -45 -142 -127c0 -62 51 -98 87 -114c15 -7 29 -14 41 -28c13 -15 18 -33 18 -50c0 -44 -35 -80 -82 -80s-76 37 -76 81z" />
    <glyph glyph-name="s_t.terminalalt" horiz-adv-x="859" 
d="M216 481v-7c-23 -5 -48 -19 -48 -53c0 -41 56 -71 97 -99c66 -46 117 -94 117 -160c0 -101 -63 -159 -191 -170v6c23 4 37 25 37 54c0 37 -37 63 -86 94c-63 39 -123 84 -123 175c0 86 85 149 197 160zM212 568c0 -38 18 -70 44 -89c43 -4 89 -11 102 -13l5 -150h-7
c-17 63 -68 123 -112 158c-18 13 -43 49 -43 94c0 90 83 134 173 140v-8c-84 -7 -162 -45 -162 -132zM164 -2v-6c-51 -1 -112 16 -142 28l-3 153h7c18 -67 101 -163 138 -175zM620 468h142c85 0 156 20 178 105l8 -1c-7 -54 -28 -95 -62 -125c-34 -31 -93 -49 -153 -49h-113
v-218c0 -58 35 -80 86 -80c21 0 50 7 62 12v-6c-27 -50 -98 -114 -187 -114c-71 0 -156 22 -156 143v263h-32v19c60 20 133 75 133 167c0 70 -28 110 -127 116v8c178 -9 228 -87 228 -177c0 -19 -3 -50 -7 -63zM810 577c0 29 25 56 55 56s56 -27 56 -56
c0 -30 -26 -56 -56 -56s-55 26 -55 56z" />
    <glyph glyph-name="f_r.terminal" horiz-adv-x="987" 
d="M74 475v28c0 118 97 191 259 201v-6c-36 -6 -65 -32 -65 -97v-133h106c104 0 160 10 188 15l3 -4c-1 -41 -3 -97 -3 -137v-269c0 -50 19 -60 45 -67v-6h-276v6c23 5 35 16 35 55v338h-98v-338c0 -39 15 -51 38 -55v-6h-278v6c28 7 44 16 44 67v326h-68v8zM579 312
c23 83 71 169 151 169c35 0 60 -6 104 -24c66 -25 97 -34 120 -34c27 0 51 16 57 29l6 -3c-12 -90 -80 -156 -168 -156c-18 0 -43 7 -97 29c-50 19 -79 30 -103 30c-27 0 -52 -14 -65 -43zM382 688c45 0 81 -36 81 -81s-36 -82 -81 -82s-81 37 -81 82s36 81 81 81zM884 522
c0 37 28 65 65 65s65 -28 65 -65s-28 -65 -65 -65s-65 28 -65 65z" />
    <glyph glyph-name="f_f_r.terminal" horiz-adv-x="1281" 
d="M306 0h-278v6c28 7 44 16 44 67v326h-68v8l70 65v26c0 118 108 179 257 194v-6c-36 -6 -63 -33 -63 -97v-121h100v31c0 12 1 24 3 36c-11 13 -18 31 -18 52c0 36 18 60 38 74c-6 12 -26 23 -43 25v6c30 0 101 -2 144 -20c38 19 90 29 136 32v-6c-36 -6 -66 -31 -66 -99
v-131h106c104 0 158 10 187 15l3 -4c0 -9 -1 -54 -1 -63v-343c0 -50 18 -60 44 -67v-6h-276v6c23 5 36 16 36 55v338h-99v-338c0 -39 15 -51 38 -55v-6h-269v6c23 5 35 16 35 55v338h-98v-338c0 -39 15 -51 38 -55v-6zM874 312c22 83 70 169 151 169c34 0 59 -6 103 -24
c66 -25 97 -34 120 -34c28 0 51 16 57 29l6 -3c-12 -90 -79 -156 -168 -156c-18 0 -43 7 -97 29c-50 19 -79 30 -103 30c-27 0 -51 -14 -64 -43zM676 688c46 0 81 -36 81 -81s-35 -82 -81 -82c-44 0 -81 37 -81 82s37 81 81 81zM1178 522c0 37 28 65 65 65s66 -28 66 -65
s-29 -65 -66 -65s-65 28 -65 65z" />
    <glyph glyph-name="Yacute.alt" horiz-adv-x="685" 
d="M496 704l-242 -35l-2 7l198 146zM205 124v156c0 159 -67 249 -142 297c-34 21 -62 29 -96 33v8c27 8 108 16 144 16c137 0 175 -20 231 -82c42 -45 89 -155 89 -259v-169c0 -89 29 -106 73 -116v-8h-373v8c51 10 74 34 74 116zM710 617c-87 -12 -194 -84 -241 -165l-8 5
c22 80 71 150 84 158c14 11 53 18 94 18c27 0 59 -5 71 -8v-8z" />
    <glyph glyph-name="Ydieresis.alt" horiz-adv-x="685" 
d="M205 124v156c0 159 -67 249 -142 297c-34 21 -62 29 -96 33v8c27 8 108 16 144 16c137 0 175 -20 231 -82c42 -45 89 -155 89 -259v-169c0 -89 29 -106 73 -116v-8h-373v8c51 10 74 34 74 116zM710 617c-87 -12 -194 -84 -241 -165l-8 5c22 80 71 150 84 158
c14 11 53 18 94 18c27 0 59 -5 71 -8v-8zM243 830c44 0 80 -35 80 -80s-36 -82 -80 -82c-45 0 -81 37 -81 82s36 80 81 80zM472 830c45 0 81 -35 81 -80s-36 -82 -81 -82c-43 0 -79 37 -79 82s36 80 79 80z" />
    <glyph glyph-name="Ycircumflex.alt" horiz-adv-x="685" 
d="M228 671l140 147h4l141 -147l-4 -4l-138 47h-2l-138 -47zM205 124v156c0 159 -67 249 -142 297c-34 21 -62 29 -96 33v8c27 8 108 16 144 16c137 0 175 -20 231 -82c42 -45 89 -155 89 -259v-169c0 -89 29 -106 73 -116v-8h-373v8c51 10 74 34 74 116zM710 617
c-87 -12 -194 -84 -241 -165l-8 5c22 80 71 150 84 158c14 11 53 18 94 18c27 0 59 -5 71 -8v-8z" />
    <glyph glyph-name="Ygrave.alt" horiz-adv-x="685" 
d="M205 124v156c0 159 -67 249 -142 297c-34 21 -62 29 -96 33v8c27 8 108 16 144 16c137 0 175 -20 231 -82c42 -45 89 -155 89 -259v-169c0 -89 29 -106 73 -116v-8h-373v8c51 10 74 34 74 116zM710 617c-87 -12 -194 -84 -241 -165l-8 5c22 80 71 150 84 158
c14 11 53 18 94 18c27 0 59 -5 71 -8v-8zM476 669l-242 35l46 118l198 -146z" />
    <glyph glyph-name="aacute.terminal" horiz-adv-x="930" 
d="M409 635l-173 -128l-9 5l57 202zM239 76c5 0 13 1 16 4v-3c-5 -23 -43 -85 -118 -85c-80 0 -126 44 -126 114c0 54 31 98 56 107c20 8 144 33 181 40v-6c-10 -4 -22 -10 -28 -18c-9 -16 -12 -41 -12 -65c0 -64 13 -88 31 -88zM47 340c0 35 29 64 64 64s64 -29 64 -64
s-29 -64 -64 -64s-64 29 -64 64zM460 328v-101c0 -20 1 -57 3 -71c13 -5 34 -7 60 -7c28 -1 67 -1 102 -1c108 0 164 12 204 43c36 29 51 68 51 102c0 30 -7 48 -18 60l3 5c34 -16 68 -59 68 -122c-1 -62 -24 -120 -72 -162c-55 -50 -141 -75 -296 -76c-70 0 -155 0 -295 2
l-3 4c-2 58 -3 84 -3 151v160c0 67 -69 103 -162 103v3c43 41 106 60 182 60c132 0 176 -63 176 -153zM719 309c0 39 29 72 69 72c39 0 72 -33 72 -72c0 -40 -33 -69 -72 -69c-40 0 -69 29 -69 69z" />
    <glyph glyph-name="agrave.terminal" horiz-adv-x="930" 
d="M239 76c5 0 13 1 16 4v-3c-5 -23 -43 -85 -118 -85c-80 0 -126 44 -126 114c0 54 31 98 56 107c20 8 144 33 181 40v-6c-10 -4 -22 -10 -28 -18c-9 -16 -12 -41 -12 -65c0 -64 13 -88 31 -88zM47 340c0 35 29 64 64 64s64 -29 64 -64s-29 -64 -64 -64s-64 29 -64 64z
M460 328v-101c0 -20 1 -57 3 -71c13 -5 34 -7 60 -7c28 -1 67 -1 102 -1c108 0 164 12 204 43c36 29 51 68 51 102c0 30 -7 48 -18 60l3 5c34 -16 68 -59 68 -122c-1 -62 -24 -120 -72 -162c-55 -50 -141 -75 -296 -76c-70 0 -155 0 -295 2l-3 4c-2 58 -3 84 -3 151v160
c0 67 -69 103 -162 103v3c43 41 106 60 182 60c132 0 176 -63 176 -153zM719 309c0 39 29 72 69 72c39 0 72 -33 72 -72c0 -40 -33 -69 -72 -69c-40 0 -69 29 -69 69zM320 507l-174 128l126 79l57 -202z" />
    <glyph glyph-name="acircumflex.terminal" horiz-adv-x="930" 
d="M142 513l-6 5l130 182h4l131 -182l-8 -4l-120 67h-9zM239 76c5 0 13 1 16 4v-3c-5 -23 -43 -85 -118 -85c-80 0 -126 44 -126 114c0 54 31 98 56 107c20 8 144 33 181 40v-6c-10 -4 -22 -10 -28 -18c-9 -16 -12 -41 -12 -65c0 -64 13 -88 31 -88zM47 340
c0 35 29 64 64 64s64 -29 64 -64s-29 -64 -64 -64s-64 29 -64 64zM460 328v-101c0 -20 1 -57 3 -71c13 -5 34 -7 60 -7c28 -1 67 -1 102 -1c108 0 164 12 204 43c36 29 51 68 51 102c0 30 -7 48 -18 60l3 5c34 -16 68 -59 68 -122c-1 -62 -24 -120 -72 -162
c-55 -50 -141 -75 -296 -76c-70 0 -155 0 -295 2l-3 4c-2 58 -3 84 -3 151v160c0 67 -69 103 -162 103v3c43 41 106 60 182 60c132 0 176 -63 176 -153zM719 309c0 39 29 72 69 72c39 0 72 -33 72 -72c0 -40 -33 -69 -72 -69c-40 0 -69 29 -69 69z" />
    <glyph glyph-name="adieresis.terminal" horiz-adv-x="930" 
d="M168 668c42 0 77 -34 77 -76s-35 -78 -77 -78s-76 36 -76 78s34 76 76 76zM375 668c43 0 76 -34 76 -76s-33 -78 -76 -78c-42 0 -76 36 -76 78s34 76 76 76zM239 76c5 0 13 1 16 4v-3c-5 -23 -43 -85 -118 -85c-80 0 -126 44 -126 114c0 54 31 98 56 107
c20 8 144 33 181 40v-6c-10 -4 -22 -10 -28 -18c-9 -16 -12 -41 -12 -65c0 -64 13 -88 31 -88zM47 340c0 35 29 64 64 64s64 -29 64 -64s-29 -64 -64 -64s-64 29 -64 64zM460 328v-101c0 -20 1 -57 3 -71c13 -5 34 -7 60 -7c28 -1 67 -1 102 -1c108 0 164 12 204 43
c36 29 51 68 51 102c0 30 -7 48 -18 60l3 5c34 -16 68 -59 68 -122c-1 -62 -24 -120 -72 -162c-55 -50 -141 -75 -296 -76c-70 0 -155 0 -295 2l-3 4c-2 58 -3 84 -3 151v160c0 67 -69 103 -162 103v3c43 41 106 60 182 60c132 0 176 -63 176 -153zM719 309
c0 39 29 72 69 72c39 0 72 -33 72 -72c0 -40 -33 -69 -72 -69c-40 0 -69 29 -69 69z" />
    <glyph glyph-name="atilde.terminal" horiz-adv-x="930" 
d="M239 76c5 0 13 1 16 4v-3c-5 -23 -43 -85 -118 -85c-80 0 -126 44 -126 114c0 54 31 98 56 107c20 8 144 33 181 40v-6c-10 -4 -22 -10 -28 -18c-9 -16 -12 -41 -12 -65c0 -64 13 -88 31 -88zM47 340c0 35 29 64 64 64s64 -29 64 -64s-29 -64 -64 -64s-64 29 -64 64z
M460 328v-101c0 -20 1 -57 3 -71c13 -5 34 -7 60 -7c28 -1 67 -1 102 -1c108 0 164 12 204 43c36 29 51 68 51 102c0 30 -7 48 -18 60l3 5c34 -16 68 -59 68 -122c-1 -62 -24 -120 -72 -162c-55 -50 -141 -75 -296 -76c-70 0 -155 0 -295 2l-3 4c-2 58 -3 84 -3 151v160
c0 67 -69 103 -162 103v3c43 41 106 60 182 60c132 0 176 -63 176 -153zM719 309c0 39 29 72 69 72c39 0 72 -33 72 -72c0 -40 -33 -69 -72 -69c-40 0 -69 29 -69 69zM448 694l9 -3c-15 -62 -64 -152 -124 -152c-41 0 -131 5 -164 5c-25 0 -45 -6 -59 -34l-7 3
c18 77 84 146 132 146c54 0 123 -5 161 -5c31 0 42 20 52 40z" />
    <glyph glyph-name="aring.terminal" horiz-adv-x="930" 
d="M184 596c0 48 35 81 77 85v-21c-28 -2 -53 -22 -53 -64s25 -62 53 -64v-21c-42 3 -77 35 -77 85zM360 596c0 -48 -35 -82 -77 -85v21c27 2 52 22 52 64s-25 62 -52 64v21c42 -4 77 -35 77 -85zM239 76c5 0 13 1 16 4v-3c-5 -23 -43 -85 -118 -85c-80 0 -126 44 -126 114
c0 54 31 98 56 107c20 8 144 33 181 40v-6c-10 -4 -22 -10 -28 -18c-9 -16 -12 -41 -12 -65c0 -64 13 -88 31 -88zM47 340c0 35 29 64 64 64s64 -29 64 -64s-29 -64 -64 -64s-64 29 -64 64zM460 328v-101c0 -20 1 -57 3 -71c13 -5 34 -7 60 -7c28 -1 67 -1 102 -1
c108 0 164 12 204 43c36 29 51 68 51 102c0 30 -7 48 -18 60l3 5c34 -16 68 -59 68 -122c-1 -62 -24 -120 -72 -162c-55 -50 -141 -75 -296 -76c-70 0 -155 0 -295 2l-3 4c-2 58 -3 84 -3 151v160c0 67 -69 103 -162 103v3c43 41 106 60 182 60c132 0 176 -63 176 -153z
M719 309c0 39 29 72 69 72c39 0 72 -33 72 -72c0 -40 -33 -69 -72 -69c-40 0 -69 29 -69 69z" />
    <glyph glyph-name="abreve.terminal" horiz-adv-x="930" 
d="M239 76c5 0 13 1 16 4v-3c-5 -23 -43 -85 -118 -85c-80 0 -126 44 -126 114c0 54 31 98 56 107c20 8 144 33 181 40v-6c-10 -4 -22 -10 -28 -18c-9 -16 -12 -41 -12 -65c0 -64 13 -88 31 -88zM47 340c0 35 29 64 64 64s64 -29 64 -64s-29 -64 -64 -64s-64 29 -64 64z
M460 328v-101c0 -20 1 -57 3 -71c13 -5 34 -7 60 -7c28 -1 67 -1 102 -1c108 0 164 12 204 43c36 29 51 68 51 102c0 30 -7 48 -18 60l3 5c34 -16 68 -59 68 -122c-1 -62 -24 -120 -72 -162c-55 -50 -141 -75 -296 -76c-70 0 -155 0 -295 2l-3 4c-2 58 -3 84 -3 151v160
c0 67 -69 103 -162 103v3c43 41 106 60 182 60c132 0 176 -63 176 -153zM719 309c0 39 29 72 69 72c39 0 72 -33 72 -72c0 -40 -33 -69 -72 -69c-40 0 -69 29 -69 69zM275 610c67 0 100 34 109 69h11c-1 -65 -15 -111 -49 -139c-18 -16 -41 -24 -71 -24c-29 0 -52 8 -70 23
c-34 28 -49 74 -50 140h11c10 -35 42 -69 109 -69z" />
    <glyph glyph-name="amacron.terminal" horiz-adv-x="930" 
d="M239 76c5 0 13 1 16 4v-3c-5 -23 -43 -85 -118 -85c-80 0 -126 44 -126 114c0 54 31 98 56 107c20 8 144 33 181 40v-6c-10 -4 -22 -10 -28 -18c-9 -16 -12 -41 -12 -65c0 -64 13 -88 31 -88zM47 340c0 35 29 64 64 64s64 -29 64 -64s-29 -64 -64 -64s-64 29 -64 64z
M460 328v-101c0 -20 1 -57 3 -71c13 -5 34 -7 60 -7c28 -1 67 -1 102 -1c108 0 164 12 204 43c36 29 51 68 51 102c0 30 -7 48 -18 60l3 5c34 -16 68 -59 68 -122c-1 -62 -24 -120 -72 -162c-55 -50 -141 -75 -296 -76c-70 0 -155 0 -295 2l-3 4c-2 58 -3 84 -3 151v160
c0 67 -69 103 -162 103v3c43 41 106 60 182 60c132 0 176 -63 176 -153zM719 309c0 39 29 72 69 72c39 0 72 -33 72 -72c0 -40 -33 -69 -72 -69c-40 0 -69 29 -69 69zM405 555h-260v62h260v-62z" />
    <glyph glyph-name="aogonek.terminal" horiz-adv-x="930" 
d="M239 76c5 0 13 1 16 4v-3c-5 -23 -43 -85 -118 -85c-80 0 -126 44 -126 114c0 54 31 98 56 107c20 8 144 33 181 40v-6c-10 -4 -22 -10 -28 -18c-9 -16 -12 -41 -12 -65c0 -64 13 -88 31 -88zM47 340c0 35 29 64 64 64s64 -29 64 -64s-29 -64 -64 -64s-64 29 -64 64z
M460 328v-101c0 -20 1 -57 3 -71c13 -5 34 -7 60 -7c28 -1 67 -1 102 -1c108 0 164 12 204 43c36 29 51 68 51 102c0 30 -7 48 -18 60l3 5c34 -16 68 -59 68 -122c-1 -62 -24 -120 -72 -162c-55 -50 -141 -75 -296 -76c-70 0 -155 0 -295 2l-3 4c-2 58 -3 84 -3 151v160
c0 67 -69 103 -162 103v3c43 41 106 60 182 60c132 0 176 -63 176 -153zM719 309c0 39 29 72 69 72c39 0 72 -33 72 -72c0 -40 -33 -69 -72 -69c-40 0 -69 29 -69 69zM415 -130l8 -5c-14 -35 -47 -99 -131 -99c-72 0 -105 36 -105 84c0 65 90 118 151 138h11
c-16 -18 -34 -54 -34 -95c0 -27 16 -50 51 -50c18 0 38 10 49 27z" />
    <glyph glyph-name="aringacute.terminal" horiz-adv-x="930" 
d="M189 596c0 48 35 81 77 85v-21c-28 -2 -53 -22 -53 -64s25 -62 53 -64v-21c-42 3 -77 35 -77 85zM365 596c0 -48 -35 -82 -77 -85v21c27 2 52 22 52 64s-25 62 -52 64v21c42 -4 77 -35 77 -85zM239 76c5 0 13 1 16 4v-3c-5 -23 -43 -85 -118 -85c-80 0 -126 44 -126 114
c0 54 31 98 56 107c20 8 144 33 181 40v-6c-10 -4 -22 -10 -28 -18c-9 -16 -12 -41 -12 -65c0 -64 13 -88 31 -88zM47 340c0 35 29 64 64 64s64 -29 64 -64s-29 -64 -64 -64s-64 29 -64 64zM460 328v-101c0 -20 1 -57 3 -71c13 -5 34 -7 60 -7c28 -1 67 -1 102 -1
c108 0 164 12 204 43c36 29 51 68 51 102c0 30 -7 48 -18 60l3 5c34 -16 68 -59 68 -122c-1 -62 -24 -120 -72 -162c-55 -50 -141 -75 -296 -76c-70 0 -155 0 -295 2l-3 4c-2 58 -3 84 -3 151v160c0 67 -69 103 -162 103v3c43 41 106 60 182 60c132 0 176 -63 176 -153z
M719 309c0 39 29 72 69 72c39 0 72 -33 72 -72c0 -40 -33 -69 -72 -69c-40 0 -69 29 -69 69zM405 729l-242 -35l-2 7l198 146z" />
    <glyph glyph-name="dcroat.terminal" horiz-adv-x="1020" 
d="M262 523v37h96c-2 29 -7 49 -29 66l-13 10v4l240 64l3 -3c-1 -41 -3 -98 -3 -138v-3h61v-37h-61v-296c0 -20 1 -57 3 -71c12 -5 34 -7 60 -7c28 -1 67 -1 102 -1c108 0 163 12 203 43c36 29 52 68 52 102c0 30 -8 48 -18 60l3 5c33 -16 67 -59 67 -122
c0 -62 -23 -120 -71 -162c-55 -50 -141 -75 -296 -76c-70 0 -156 0 -295 2l-3 4c-3 58 -3 84 -3 151v173c0 57 -11 93 -27 113c-17 22 -40 30 -53 31v6c8 2 18 3 33 3c21 0 38 -3 46 -6v48h-97zM318 98c10 0 22 3 27 6v-4c-16 -58 -72 -108 -141 -108
c-104 0 -188 85 -188 216c0 171 149 248 247 266v-8c-23 -15 -35 -109 -35 -188c0 -145 53 -180 90 -180zM814 309c0 39 29 72 70 72c39 0 71 -33 71 -72c0 -40 -32 -69 -71 -69c-41 0 -70 29 -70 69z" />
    <glyph glyph-name="dcaron.terminal" horiz-adv-x="1020" 
d="M318 98c10 0 22 3 27 6v-4c-16 -58 -72 -108 -141 -108c-104 0 -188 85 -188 216c0 171 149 248 247 267v-8c-23 -15 -35 -110 -35 -189c0 -145 53 -180 90 -180zM814 309c0 39 29 72 70 72c39 0 71 -33 71 -72c0 -40 -32 -69 -71 -69c-41 0 -70 29 -70 69zM715 691
l-115 -194h-9l10 194h114zM366 0l-3 4c-3 58 -3 84 -3 151v173c0 55 -12 92 -27 113c-17 22 -40 30 -53 31v6c7 2 18 3 33 3c21 0 38 -3 46 -6v59c0 44 -4 72 -30 92l-13 10v4l240 64l3 -3c-1 -41 -3 -98 -3 -138v-336c0 -20 1 -57 3 -71c12 -5 34 -7 60 -7
c28 -1 67 -1 102 -1c108 0 163 12 203 43c36 29 52 68 52 102c0 30 -8 48 -18 60l3 5c33 -16 67 -59 67 -122c0 -62 -23 -120 -71 -162c-55 -50 -141 -75 -296 -76c-70 0 -156 0 -295 2z" />
    <glyph glyph-name="eacute.terminal" horiz-adv-x="877" 
d="M356 635l-173 -128l-9 5l57 202zM799 124c-76 -73 -212 -132 -454 -132c-236 0 -335 113 -335 242c0 141 98 232 206 246v-8c-17 -16 -36 -58 -36 -151c0 -139 109 -173 236 -173c182 0 304 28 363 85c48 45 62 96 62 136c0 32 -8 47 -18 57l5 5c21 -14 51 -61 51 -120
c0 -73 -26 -135 -80 -187zM425 317h-217v7l54 13c0 64 -8 125 -27 136v8c143 -6 190 -78 190 -164zM712 399c0 28 21 52 52 52c28 0 52 -24 52 -52c0 -31 -24 -52 -52 -52c-31 0 -52 21 -52 52z" />
    </font>
</defs>
</svg>
