<?xml version="1.0" standalone="no"?>
<!DOCTYPE svg PUBLIC "-//W3C//DTD SVG 1.1//EN" "http://www.w3.org/Graphics/SVG/1.1/DTD/svg11.dtd" >
<svg xmlns="http://www.w3.org/2000/svg" width="100%" height="100%">
<metadata>
Created by FontXChange 20110222 at Wed Oct  3 11:25:31 2012
 By Anders Johansson
Created for the House Book.
</metadata>
<defs>
<font id="ChaletBook" horiz-adv-x="546" >
  <font-face 
    font-family="ChaletBook"
    font-weight="400"
    font-stretch="normal"
    units-per-em="1000"
    panose-1="2 0 5 0 4 0 0 2 0 4"
    ascent="800"
    descent="-200"
    x-height="515"
    cap-height="680"
    bbox="-80 -285 1479 940"
    underline-thickness="8"
    underline-position="-47"
    stemh="59"
    stemv="68"
    unicode-range="U+0020-FB04"
  />
<missing-glyph horiz-adv-x="295" 
 />
    <glyph glyph-name="ff" unicode="ff" horiz-adv-x="613" 
d="M100 0v439h-75v76h75v22c0 133 78 195 181 195c13 0 31 -3 31 -3v-73s-16 2 -28 2c-70 0 -102 -37 -102 -121v-22h203v35c0 133 76 195 183 195c13 0 34 -3 34 -3v-73s-19 2 -31 2c-72 0 -104 -37 -104 -121v-35h128v-76h-128v-439h-82v439h-203v-439h-82z" />
    <glyph glyph-name="ffi" unicode="ffi" horiz-adv-x="831" 
d="M100 0v439h-75v76h75v22c0 133 78 195 181 195c13 0 31 -3 31 -3v-73s-16 2 -28 2c-70 0 -102 -37 -102 -121v-22h203v35c0 133 76 195 177 195c13 0 30 -3 30 -3v-73s-15 2 -27 2c-67 0 -98 -37 -98 -121v-35h285v-515h-82v439h-203v-439h-82v439h-203v-439h-82z
M666 613v101h90v-101h-90z" />
    <glyph glyph-name="ffl" unicode="ffl" horiz-adv-x="832" 
d="M100 0v439h-75v76h75v22c0 133 78 195 181 195c13 0 31 -3 31 -3v-73s-16 2 -28 2c-70 0 -102 -37 -102 -121v-22h203v35c0 133 74 195 175 195c13 0 28 -3 28 -3v-73s-13 2 -25 2c-67 0 -96 -37 -96 -121v-35h121v-76h-121v-439h-82v439h-203v-439h-82zM670 0v744h82
v-744h-82z" />
    <glyph glyph-name="fi" unicode="fi" 
d="M100 0v439h-75v76h75v35c0 133 76 195 177 195c13 0 30 -3 30 -3v-73s-15 2 -27 2c-67 0 -98 -37 -98 -121v-35h285v-515h-82v439h-203v-439h-82zM381 613v101h90v-101h-90z" />
    <glyph glyph-name="fl" unicode="fl" horiz-adv-x="547" 
d="M100 0v439h-75v76h75v35c0 133 74 195 175 195c13 0 28 -3 28 -3v-73s-13 2 -25 2c-67 0 -96 -37 -96 -121v-35h121v-76h-121v-439h-82zM385 0v744h82v-744h-82z" />
    <glyph glyph-name=".notdef" horiz-adv-x="295" 
 />
    <glyph glyph-name="eth" unicode="&#xf0;" horiz-adv-x="578" 
d="M228 553l-36 44l59 45c-20 16 -42 32 -64 46l42 60c28 -17 57 -36 85 -58l68 51l37 -43l-61 -46c97 -91 178 -220 178 -385c0 -170 -99 -279 -247 -279c-138 0 -247 110 -247 258c0 150 109 262 232 262c53 0 100 -19 136 -53c-25 49 -65 101 -115 149zM289 63
c89 0 163 65 163 185s-75 186 -165 186c-87 0 -160 -67 -160 -188c0 -119 74 -183 162 -183z" />
    <glyph glyph-name="Lslash" unicode="&#x141;" horiz-adv-x="532" 
d="M3 200v76l83 42v362h88v-318l172 87v-76l-172 -87v-207h328v-79h-416v242z" />
    <glyph glyph-name="lslash" unicode="&#x142;" horiz-adv-x="283" 
d="M17 255v77l83 48v364h82v-316l95 56v-77l-95 -56v-351h-82v303z" />
    <glyph glyph-name="Scaron" unicode="&#x160;" horiz-adv-x="593" 
d="M305 -12c-157 0 -262 98 -267 221h88c4 -87 74 -144 179 -144c108 0 161 48 161 117c0 64 -30 100 -174 131c-154 33 -229 82 -229 199c0 116 93 181 224 181c149 0 235 -77 247 -195h-86c-7 67 -57 118 -160 118c-94 0 -140 -38 -140 -102c0 -58 29 -88 164 -119
c154 -35 238 -76 238 -213c0 -126 -103 -194 -245 -194zM254 727l-114 154h74l72 -79l72 79h73l-113 -154h-64z" />
    <glyph glyph-name="scaron" unicode="&#x161;" horiz-adv-x="505" 
d="M261 -13c-121 0 -209 65 -223 164h83c13 -50 61 -89 140 -89c78 0 125 35 125 79c0 45 -17 67 -136 84c-120 17 -194 52 -194 153c0 73 55 150 193 150c115 0 190 -59 203 -151h-83c-13 48 -59 76 -120 76c-74 0 -111 -33 -111 -72c0 -43 28 -60 126 -76
c115 -19 202 -38 202 -161c0 -101 -86 -157 -205 -157zM219 590l-114 154h74l72 -79l72 79h73l-113 -154h-64z" />
    <glyph glyph-name="Yacute" unicode="&#xdd;" horiz-adv-x="561" 
d="M236 0v282l-225 398h92l178 -317l179 317h90l-226 -398v-282h-88zM249 730l64 147h109l-97 -147h-76z" />
    <glyph glyph-name="yacute" unicode="&#xfd;" horiz-adv-x="494" 
d="M57 -209v74h10c64 0 97 22 116 75l23 63l-191 512h89l126 -354c12 -33 21 -82 21 -82s10 49 21 82l121 354h86l-218 -597c-35 -95 -104 -127 -193 -127h-11zM216 593l64 147h109l-97 -147h-76z" />
    <glyph glyph-name="Thorn" unicode="&#xde;" horiz-adv-x="611" 
d="M86 0v680h88v-109h188c136 0 217 -85 217 -206c0 -119 -81 -205 -217 -205h-188v-160h-88zM174 239h188c76 0 128 37 128 126s-52 127 -128 127h-188v-253z" />
    <glyph glyph-name="thorn" unicode="&#xfe;" horiz-adv-x="611" 
d="M78 -209v953h82v-321c31 57 94 105 175 105c136 0 234 -121 234 -269c0 -150 -98 -271 -234 -271c-80 0 -144 42 -175 102v-299h-82zM322 63c89 0 163 69 163 193c0 126 -74 197 -163 197c-88 0 -162 -71 -162 -197c0 -124 74 -193 162 -193z" />
    <glyph glyph-name="Zcaron" unicode="&#x17d;" horiz-adv-x="549" 
d="M32 0v69l380 532h-367v79h470v-76l-375 -525h377v-79h-485zM244 727l-114 154h74l72 -79l72 79h73l-113 -154h-64z" />
    <glyph glyph-name="zcaron" unicode="&#x17e;" horiz-adv-x="463" 
d="M33 0v67l285 372h-271v76h374v-72l-281 -367h290v-76h-397zM200 590l-114 154h74l72 -79l72 79h73l-113 -154h-64z" />
    <glyph glyph-name="onehalf" unicode="&#xbd;" horiz-adv-x="814" 
d="M492 0v31c0 91 60 133 124 168c77 42 87 62 87 94c0 29 -16 58 -65 58c-47 0 -72 -34 -73 -80h-67c1 75 48 141 140 141c89 0 134 -58 134 -119c0 -77 -51 -107 -124 -147c-48 -27 -81 -51 -83 -83h204v-63h-277zM133 0l382 680h78l-383 -680h-77zM101 272v301h-65v46
c40 1 73 18 76 61h57v-408h-68z" />
    <glyph glyph-name="onequarter" unicode="&#xbc;" horiz-adv-x="780" 
d="M638 0v88h-187v58l175 262h77v-260h43v-60h-43v-88h-65zM133 0l382 680h78l-383 -680h-77zM101 272v301h-65v46c40 1 73 18 76 61h57v-408h-68zM520 148h118v175z" />
    <glyph glyph-name="onesuperior" unicode="&#xb9;" horiz-adv-x="242" 
d="M95 272v301h-65v46c40 1 73 18 76 61h57v-408h-68z" />
    <glyph glyph-name="threequarters" unicode="&#xbe;" horiz-adv-x="882" 
d="M740 0v88h-187v58l175 262h77v-260h43v-60h-43v-88h-65zM176 265c-96 0 -143 60 -146 132h67c3 -42 27 -70 79 -70c48 0 77 28 77 65s-19 63 -78 63h-23v59h12c59 0 76 22 76 54c0 34 -22 55 -62 55c-49 0 -69 -33 -70 -67h-66c0 72 52 128 135 128
c86 0 130 -53 130 -110c0 -38 -19 -68 -55 -84c48 -16 69 -53 69 -99c0 -65 -52 -126 -145 -126zM235 0l382 680h78l-383 -680h-77zM622 148h118v175z" />
    <glyph glyph-name="threesuperior" unicode="&#xb3;" horiz-adv-x="344" 
d="M170 265c-96 0 -143 60 -146 132h67c3 -42 27 -70 79 -70c48 0 77 28 77 65s-19 63 -78 63h-23v59h12c59 0 76 22 76 54c0 34 -22 55 -62 55c-49 0 -69 -33 -70 -67h-66c0 72 52 128 135 128c86 0 130 -53 130 -110c0 -38 -19 -68 -55 -84c48 -16 69 -53 69 -99
c0 -65 -52 -126 -145 -126z" />
    <glyph glyph-name="twosuperior" unicode="&#xb2;" horiz-adv-x="345" 
d="M29 272v31c0 91 60 133 124 168c77 42 87 62 87 94c0 29 -16 58 -65 58c-47 0 -72 -34 -73 -80h-67c1 75 48 141 140 141c89 0 134 -58 134 -119c0 -77 -51 -107 -124 -147c-48 -27 -81 -51 -83 -83h204v-63h-277z" />
    <glyph glyph-name="brokenbar" unicode="&#xa6;" horiz-adv-x="229" 
d="M74 -160v421h81v-421h-81zM74 341v403h81v-403h-81z" />
    <glyph glyph-name="minus" unicode="&#x2212;" horiz-adv-x="468" 
d="M46 265v72h376v-72h-376z" />
    <glyph glyph-name="multiply" unicode="&#xd7;" horiz-adv-x="498" 
d="M58 439l49 49l142 -142l142 142l49 -49l-142 -142l142 -142l-49 -49l-142 142l-142 -142l-49 49l142 142z" />
    <glyph glyph-name="exclam" unicode="!" horiz-adv-x="271" 
d="M100 203l-12 477h95l-12 -477h-71zM90 0v107h91v-107h-91z" />
    <glyph glyph-name="quotedbl" unicode="&#x22;" horiz-adv-x="367" 
d="M233 441l-13 239h95l-13 -239h-69zM65 441l-13 239h95l-13 -239h-69z" />
    <glyph glyph-name="numbersign" unicode="#" horiz-adv-x="558" 
d="M185 130h-75l18 129h-100l10 76h101l19 137h-99l10 76h100l19 132h75l-19 -132h109l19 132h75l-19 -132h102l-10 -76h-103l-19 -137h101l-10 -76h-102l-18 -129h-75l18 129h-109zM233 472l-19 -137h109l19 137h-109z" />
    <glyph glyph-name="dollar" unicode="$" horiz-adv-x="528" 
d="M243 -82v108c-118 9 -206 88 -209 201h84c2 -70 53 -119 125 -128v216c-120 29 -189 72 -189 181c0 100 76 161 189 165v56h54v-59c110 -15 169 -87 175 -180h-84c-4 49 -33 91 -91 104v-192c122 -30 190 -71 190 -188c0 -106 -77 -167 -190 -176v-108h-54zM403 201
c0 47 -20 76 -106 101v-203c68 8 106 46 106 102zM139 497c0 -46 20 -71 104 -94v183c-68 -4 -104 -36 -104 -89z" />
    <glyph glyph-name="percent" unicode="%" horiz-adv-x="786" 
d="M191 361c-88 0 -161 73 -161 164c0 92 73 165 161 165c87 0 160 -73 160 -165c0 -91 -73 -164 -160 -164zM596 -9c-88 0 -161 73 -161 164c0 92 73 165 161 165c87 0 160 -73 160 -165c0 -91 -73 -164 -160 -164zM163 0l382 680h78l-383 -680h-77zM278 525
c0 52 -38 96 -87 96s-88 -44 -88 -96s39 -95 88 -95s87 43 87 95zM683 155c0 52 -38 96 -87 96s-88 -44 -88 -96s39 -95 88 -95s87 43 87 95z" />
    <glyph glyph-name="ampersand" unicode="&#x26;" horiz-adv-x="628" 
d="M283 -12c-124 0 -236 77 -236 205c0 88 64 159 148 207l-13 16c-34 42 -53 85 -53 130c0 85 69 147 157 147c87 0 153 -56 153 -143c0 -70 -37 -121 -127 -168l152 -190c8 25 13 53 13 84v76h79v-76c0 -55 -13 -107 -38 -151l101 -125h-101l-49 60
c-46 -45 -110 -72 -186 -72zM283 64c54 0 103 19 138 55l-182 226c-89 -52 -101 -102 -101 -152c0 -79 57 -129 145 -129zM213 546c0 -26 9 -51 30 -77l26 -33c73 37 86 80 86 112c0 43 -27 72 -70 72c-40 0 -72 -30 -72 -74z" />
    <glyph glyph-name="quotesingle" unicode="'" horiz-adv-x="199" 
d="M65 441l-13 239h95l-13 -239h-69z" />
    <glyph glyph-name="parenleft" unicode="(" horiz-adv-x="319" 
d="M227 -122c-98 104 -164 280 -164 453c0 172 66 348 164 453h73c-91 -124 -145 -282 -145 -453s54 -330 145 -453h-73z" />
    <glyph glyph-name="parenright" unicode=")" horiz-adv-x="319" 
d="M19 -122c91 123 145 282 145 453s-54 329 -145 453h73c98 -105 164 -281 164 -453c0 -173 -66 -349 -164 -453h-73z" />
    <glyph glyph-name="asterisk" unicode="*" horiz-adv-x="351" 
d="M128 416l-48 29l50 86l-98 -2v58l98 -2l-50 87l48 28l47 -88l47 88l50 -28l-52 -87l98 2v-57l-98 1l52 -86l-50 -29l-46 89z" />
    <glyph glyph-name="plus" unicode="+" horiz-adv-x="498" 
d="M211 97v168h-165v72h165v168h76v-168h165v-72h-165v-168h-76z" />
    <glyph glyph-name="comma" unicode="," horiz-adv-x="221" 
d="M54 -141v52c32 3 55 19 55 57v32h-50v109h103v-141c0 -77 -58 -105 -108 -109z" />
    <glyph glyph-name="hyphen" unicode="-" horiz-adv-x="342" 
d="M50 235v82h243v-82h-243z" />
    <glyph glyph-name="hyphen" unicode="&#xad;" horiz-adv-x="342" 
d="M50 235v82h243v-82h-243z" />
    <glyph glyph-name="period" unicode="." horiz-adv-x="221" 
d="M59 0v109h103v-109h-103z" />
    <glyph glyph-name="slash" unicode="/" horiz-adv-x="351" 
d="M-2 -122l269 906h82l-269 -906h-82z" />
    <glyph glyph-name="zero" unicode="0" horiz-adv-x="629" 
d="M315 -12c-146 0 -266 118 -266 355s120 350 266 350s265 -113 265 -350s-119 -355 -265 -355zM315 65c113 0 174 99 174 278c0 178 -61 273 -174 273c-111 0 -175 -95 -175 -273c0 -179 64 -278 175 -278z" />
    <glyph glyph-name="one" unicode="1" horiz-adv-x="335" 
d="M146 0v543h-112v65c74 0 112 19 119 72h81v-680h-88z" />
    <glyph glyph-name="two" unicode="2" horiz-adv-x="555" 
d="M44 0v40c0 151 102 219 210 280c130 73 155 111 155 181c0 55 -26 115 -127 115c-95 0 -140 -64 -142 -151h-83c1 127 80 228 225 228c136 0 218 -83 218 -192c0 -125 -81 -177 -209 -250c-98 -56 -154 -99 -160 -172h363v-79h-450z" />
    <glyph glyph-name="three" unicode="3" horiz-adv-x="558" 
d="M279 -12c-157 0 -235 99 -242 207h84c10 -70 49 -130 158 -130c89 0 141 56 141 128c0 69 -25 132 -158 132h-29v77h10c124 0 153 45 153 109c0 65 -40 105 -120 105c-98 0 -135 -59 -138 -127h-82c0 121 90 204 219 204c132 0 210 -78 210 -180
c0 -66 -34 -117 -100 -143c81 -29 126 -87 126 -178c0 -112 -92 -204 -232 -204z" />
    <glyph glyph-name="four" unicode="4" horiz-adv-x="568" 
d="M367 0v160h-334v69l329 451h91v-444h74v-76h-74v-160h-86zM127 236h240v325z" />
    <glyph glyph-name="five" unicode="5" horiz-adv-x="544" 
d="M270 -12c-139 0 -218 92 -227 188h84c8 -56 57 -111 143 -111c87 0 136 67 136 156c0 90 -55 155 -136 155c-59 0 -102 -30 -132 -79l-71 28l44 355h349v-79h-280l-26 -204c28 30 74 56 134 56c115 0 209 -97 209 -232c0 -144 -106 -233 -227 -233z" />
    <glyph glyph-name="six" unicode="6" horiz-adv-x="574" 
d="M296 -12c-148 0 -247 118 -247 320c0 247 107 385 258 385c102 0 187 -59 204 -171h-85c-11 47 -41 94 -119 94c-98 0 -159 -91 -175 -263c31 59 98 99 168 99c140 0 229 -102 229 -233c0 -127 -103 -231 -233 -231zM299 65c87 0 143 66 143 154c0 84 -51 157 -148 157
c-90 0 -147 -68 -147 -156c0 -91 61 -155 152 -155z" />
    <glyph glyph-name="seven" unicode="7" horiz-adv-x="503" 
d="M135 0c10 221 87 455 229 601h-336v79h439v-73c-158 -137 -233 -365 -242 -607h-90z" />
    <glyph glyph-name="eight" unicode="8" horiz-adv-x="577" 
d="M288 -12c-150 0 -242 94 -242 208c0 90 51 145 130 177c-63 31 -94 79 -94 145c0 99 84 179 206 179c125 0 206 -80 206 -179c0 -66 -30 -114 -92 -145c79 -32 129 -87 129 -177c0 -114 -92 -208 -243 -208zM288 65c85 0 152 45 152 134c0 78 -54 134 -152 134
c-97 0 -151 -56 -151 -134c0 -89 67 -134 151 -134zM288 408c66 0 117 37 117 106c0 62 -40 106 -117 106c-76 0 -117 -44 -117 -106c0 -69 54 -106 117 -106z" />
    <glyph glyph-name="nine" unicode="9" horiz-adv-x="574" 
d="M267 -12c-102 0 -187 52 -204 160h85c11 -43 41 -83 119 -83c98 0 165 73 175 263c-31 -59 -98 -99 -168 -99c-140 0 -229 103 -229 234c0 127 104 230 234 230c148 0 246 -118 246 -320c0 -264 -100 -385 -258 -385zM280 305c90 0 146 67 146 155c0 91 -59 156 -150 156
c-87 0 -144 -65 -144 -153s51 -158 148 -158z" />
    <glyph glyph-name="colon" unicode=":" horiz-adv-x="231" 
d="M64 312v109h103v-109h-103zM64 0v109h103v-109h-103z" />
    <glyph glyph-name="semicolon" unicode=";" horiz-adv-x="231" 
d="M59 -141v52c32 3 55 19 55 57v32h-50v109h103v-141c0 -77 -58 -105 -108 -109zM64 312v109h103v-109h-103z" />
    <glyph glyph-name="semicolon" unicode="&#x37e;" horiz-adv-x="231" 
d="M59 -141v52c32 3 55 19 55 57v32h-50v109h103v-141c0 -77 -58 -105 -108 -109zM64 312v109h103v-109h-103z" />
    <glyph glyph-name="less" unicode="&#x3c;" horiz-adv-x="445" 
d="M404 54l-368 171v91l368 170v-84l-294 -132v-1l294 -131v-84z" />
    <glyph glyph-name="equal" unicode="=" horiz-adv-x="481" 
d="M46 346v72h389v-72h-389zM46 162v72h389v-72h-389z" />
    <glyph glyph-name="greater" unicode="&#x3e;" horiz-adv-x="445" 
d="M41 486l368 -171v-91l-368 -170v84l294 132v1l-294 131v84z" />
    <glyph glyph-name="question" unicode="?" horiz-adv-x="510" 
d="M195 203v17c0 107 48 134 113 183c46 35 68 66 68 116c0 66 -42 99 -119 99c-84 0 -133 -52 -135 -122h-82c1 105 82 197 217 197c124 0 206 -66 206 -171c0 -94 -57 -141 -107 -179c-48 -37 -85 -55 -85 -123v-17h-76zM187 0v107h91v-107h-91z" />
    <glyph glyph-name="at" unicode="@" horiz-adv-x="747" 
d="M387 -12c-200 0 -343 146 -343 357c0 210 161 366 344 366c187 0 316 -128 316 -312c0 -147 -104 -226 -185 -226c-49 0 -84 28 -95 62c-30 -37 -71 -61 -112 -61c-76 0 -129 81 -98 193c27 98 108 166 180 166c38 0 63 -19 76 -50l11 37h70c-16 -48 -69 -227 -69 -227
c-10 -36 9 -53 37 -53c57 0 113 59 113 162c0 127 -87 238 -244 238c-153 0 -271 -139 -271 -295c0 -166 108 -287 270 -287c89 0 161 35 206 78h89c-60 -91 -161 -148 -295 -148zM326 243c55 0 87 58 102 117c13 49 9 105 -37 105c-47 0 -92 -54 -107 -117
c-15 -64 2 -105 42 -105z" />
    <glyph glyph-name="A" unicode="A" horiz-adv-x="617" 
d="M17 0l249 680h90l244 -680h-90l-64 181h-277l-64 -181h-88zM285 505l-88 -246h222l-86 246l-24 82s-12 -49 -24 -82z" />
    <glyph glyph-name="B" unicode="B" horiz-adv-x="634" 
d="M86 0v680h285c117 0 196 -71 196 -182c0 -51 -27 -105 -90 -134c79 -27 117 -95 117 -165c0 -112 -87 -199 -214 -199h-294zM173 79h211c71 0 119 46 119 120c0 84 -48 120 -122 120h-208v-240zM173 397h200c50 0 104 26 104 102c0 72 -41 103 -106 103h-198v-205z" />
    <glyph glyph-name="C" unicode="C" horiz-adv-x="696" 
d="M373 -12c-178 0 -328 144 -328 353c0 208 148 352 326 352c158 0 256 -87 292 -223h-86c-30 87 -93 146 -206 146c-134 0 -235 -107 -235 -275c0 -169 103 -276 237 -276c101 0 178 60 205 151h89c-39 -141 -141 -228 -294 -228z" />
    <glyph glyph-name="D" unicode="D" horiz-adv-x="679" 
d="M86 0v680h225c197 0 323 -128 323 -339s-126 -341 -323 -341h-225zM174 78h137c136 0 232 80 232 263c0 186 -97 261 -232 261h-137v-524z" />
    <glyph glyph-name="E" unicode="E" horiz-adv-x="587" 
d="M86 0v680h448v-79h-360v-204h306v-79h-306v-239h365v-79h-453z" />
    <glyph glyph-name="F" unicode="F" horiz-adv-x="564" 
d="M86 0v680h441v-79h-353v-204h308v-79h-308v-318h-88z" />
    <glyph glyph-name="G" unicode="G" horiz-adv-x="734" 
d="M370 -12c-180 0 -325 144 -325 353c0 208 146 352 325 352c131 0 255 -70 291 -216h-88c-29 98 -112 139 -203 139c-137 0 -234 -107 -234 -275c0 -169 98 -276 234 -276c133 0 220 93 226 204h-189v80h272v-349h-82v113c-39 -66 -109 -125 -227 -125z" />
    <glyph glyph-name="H" unicode="H" horiz-adv-x="696" 
d="M86 0v680h88v-283h348v283h88v-680h-88v317h-348v-317h-88z" />
    <glyph glyph-name="I" unicode="I" horiz-adv-x="266" 
d="M89 0v680h88v-680h-88z" />
    <glyph glyph-name="J" unicode="J" 
d="M249 -12c-130 0 -216 92 -216 228h87c0 -80 36 -151 129 -151c94 0 129 60 129 163v452h88v-452c0 -146 -73 -240 -217 -240z" />
    <glyph glyph-name="K" unicode="K" horiz-adv-x="628" 
d="M512 0l-231 348l-114 -119v-229h-81v680h81v-350l335 350h98l-263 -274l271 -406h-96z" />
    <glyph glyph-name="L" unicode="L" horiz-adv-x="532" 
d="M86 0v680h88v-601h328v-79h-416z" />
    <glyph glyph-name="M" unicode="M" horiz-adv-x="810" 
d="M86 0v680h126l173 -502c10 -30 19 -74 21 -80c1 4 10 49 21 80l172 502h125v-680h-84v478c0 33 3 94 4 99c-2 -6 -16 -53 -26 -84l-171 -493h-86l-171 493c-10 30 -24 76 -26 84c0 -5 4 -66 4 -99v-478h-82z" />
    <glyph glyph-name="N" unicode="N" horiz-adv-x="686" 
d="M86 0v680h97l337 -543v543h80v-680h-89l-345 555v-555h-80z" />
    <glyph glyph-name="O" unicode="O" horiz-adv-x="748" 
d="M374 -12c-181 0 -329 144 -329 353c0 208 148 352 329 352c184 0 329 -140 329 -352c0 -208 -148 -353 -329 -353zM374 65c136 0 238 108 238 276c0 171 -99 275 -238 275c-136 0 -238 -107 -238 -275c0 -169 102 -276 238 -276z" />
    <glyph glyph-name="P" unicode="P" horiz-adv-x="611" 
d="M86 0v680h276c136 0 217 -85 217 -206c0 -119 -81 -205 -217 -205h-188v-269h-88zM174 348h188c76 0 128 37 128 126s-52 127 -128 127h-188v-253z" />
    <glyph glyph-name="Q" unicode="Q" horiz-adv-x="748" 
d="M601 0l-43 45c-52 -37 -116 -57 -184 -57c-181 0 -329 144 -329 353c0 208 148 352 329 352c184 0 329 -140 329 -352c0 -98 -33 -181 -86 -242l93 -99h-109zM374 65c48 0 93 13 130 39l-123 132h109l70 -76c32 47 52 108 52 181c0 171 -99 275 -238 275
c-136 0 -238 -107 -238 -275c0 -169 102 -276 238 -276z" />
    <glyph glyph-name="R" unicode="R" horiz-adv-x="650" 
d="M86 0v680h284c135 0 215 -83 215 -200c0 -69 -30 -122 -104 -155c58 -20 80 -61 88 -136l9 -83c5 -50 16 -86 24 -106h-83c-9 19 -18 48 -22 97l-7 81c-6 72 -34 103 -110 103h-209v-281h-85zM171 361h207c79 0 122 45 122 119c0 84 -48 121 -130 121h-199v-240z" />
    <glyph glyph-name="S" unicode="S" horiz-adv-x="593" 
d="M305 -12c-157 0 -262 98 -267 221h88c4 -87 74 -144 179 -144c108 0 161 48 161 117c0 64 -30 100 -174 131c-154 33 -229 82 -229 199c0 116 93 181 224 181c149 0 235 -77 247 -195h-86c-7 67 -57 118 -160 118c-94 0 -140 -38 -140 -102c0 -58 29 -88 164 -119
c154 -35 238 -76 238 -213c0 -126 -103 -194 -245 -194z" />
    <glyph glyph-name="T" unicode="T" horiz-adv-x="548" 
d="M230 0v601h-205v79h498v-79h-205v-601h-88z" />
    <glyph glyph-name="U" unicode="U" horiz-adv-x="667" 
d="M334 -12c-151 0 -261 96 -261 265v427h88v-427c0 -122 63 -188 173 -188c111 0 172 66 172 188v427h88v-427c0 -169 -110 -265 -260 -265z" />
    <glyph glyph-name="V" unicode="V" horiz-adv-x="602" 
d="M256 0l-241 680h92l172 -499c9 -26 24 -88 24 -88s14 61 23 88l171 499h90l-241 -680h-90z" />
    <glyph glyph-name="W" unicode="W" horiz-adv-x="875" 
d="M198 0l-183 680h88l127 -473c7 -28 14 -72 15 -78c1 4 10 49 19 79l134 472h84l135 -472c8 -29 17 -73 19 -79c0 4 7 49 15 79l126 472h83l-184 -680h-84l-133 475c-9 34 -19 86 -20 94c-1 -6 -10 -59 -20 -94l-135 -475h-86z" />
    <glyph glyph-name="X" unicode="X" horiz-adv-x="571" 
d="M12 0l217 352l-206 328h95l169 -272l169 272h92l-207 -328l218 -352h-95l-181 296l-179 -296h-92z" />
    <glyph glyph-name="Y" unicode="Y" horiz-adv-x="561" 
d="M236 0v282l-225 398h92l178 -317l179 317h90l-226 -398v-282h-88z" />
    <glyph glyph-name="Z" unicode="Z" horiz-adv-x="549" 
d="M32 0v69l380 532h-367v79h470v-76l-375 -525h377v-79h-485z" />
    <glyph glyph-name="bracketleft" unicode="[" horiz-adv-x="323" 
d="M82 -122v906h209v-73h-123v-760h123v-73h-209z" />
    <glyph glyph-name="backslash" unicode="\" horiz-adv-x="351" 
d="M271 -122l-269 906h82l269 -906h-82z" />
    <glyph glyph-name="bracketright" unicode="]" horiz-adv-x="323" 
d="M32 -122v73h123v760h-123v73h209v-906h-209z" />
    <glyph glyph-name="asciicircum" unicode="^" horiz-adv-x="512" 
d="M39 244l174 436h87l173 -436h-89l-128 341l-129 -341h-88z" />
    <glyph glyph-name="underscore" unicode="_" horiz-adv-x="521" 
d="M-2 -151v82h525v-82h-525z" />
    <glyph glyph-name="grave" unicode="`" horiz-adv-x="500" 
d="M211 593l-97 147h109l64 -147h-76z" />
    <glyph glyph-name="a" unicode="a" 
d="M214 -12c-96 0 -172 43 -172 144c0 99 78 140 187 157c103 16 159 27 159 81c0 59 -38 83 -113 83c-63 0 -115 -27 -122 -86h-86c6 96 87 161 209 161c134 0 194 -62 194 -158v-266c0 -41 12 -84 20 -104h-81c-7 15 -16 39 -19 70c-31 -46 -95 -82 -176 -82zM215 60
c100 0 173 46 173 128v86c-21 -19 -65 -36 -156 -53c-78 -15 -109 -38 -109 -86c0 -50 38 -75 92 -75z" />
    <glyph glyph-name="b" unicode="b" horiz-adv-x="611" 
d="M335 -12c-80 0 -146 45 -178 109v-97h-79v744h82v-321c31 57 94 105 175 105c136 0 234 -121 234 -269c0 -150 -98 -271 -234 -271zM322 63c89 0 163 69 163 193c0 126 -74 197 -163 197c-88 0 -162 -71 -162 -197c0 -124 74 -193 162 -193z" />
    <glyph glyph-name="c" unicode="c" horiz-adv-x="545" 
d="M290 -12c-138 0 -248 114 -248 268c0 156 110 272 248 272c112 0 194 -65 221 -170h-87c-22 60 -69 95 -134 95c-92 0 -163 -71 -163 -197c0 -124 71 -193 163 -193c66 0 114 37 134 95h87c-24 -101 -107 -170 -221 -170z" />
    <glyph glyph-name="d" unicode="d" horiz-adv-x="611" 
d="M276 -12c-136 0 -234 121 -234 271c0 148 98 269 234 269c81 0 144 -48 175 -105v321h82v-744h-79v97c-32 -64 -98 -109 -178 -109zM289 63c88 0 162 69 162 193c0 126 -74 197 -162 197c-89 0 -163 -71 -163 -197c0 -124 74 -193 163 -193z" />
    <glyph glyph-name="e" unicode="e" horiz-adv-x="570" 
d="M295 -12c-143 0 -253 110 -253 269c0 157 111 271 250 271c129 0 245 -102 240 -296h-405c9 -114 86 -170 168 -170c71 0 118 32 138 82h87c-24 -90 -109 -156 -225 -156zM130 303h310c-11 104 -74 151 -148 151c-69 0 -142 -44 -162 -151z" />
    <glyph glyph-name="f" unicode="f" horiz-adv-x="328" 
d="M100 0v439h-75v76h75v35c0 133 76 195 183 195c13 0 34 -3 34 -3v-73s-19 2 -31 2c-72 0 -104 -37 -104 -121v-35h128v-76h-128v-439h-82z" />
    <glyph glyph-name="g" unicode="g" horiz-adv-x="609" 
d="M293 -219c-118 0 -213 59 -238 164h90c24 -63 78 -88 148 -88c128 0 158 82 158 180v68c-31 -61 -95 -105 -175 -105c-136 0 -234 118 -234 265c0 145 98 263 234 263c81 0 146 -49 178 -109v96h79v-478c0 -170 -87 -256 -240 -256zM289 75c88 0 162 66 162 187
c0 123 -74 191 -162 191c-89 0 -163 -68 -163 -191c0 -121 74 -187 163 -187z" />
    <glyph glyph-name="h" unicode="h" horiz-adv-x="571" 
d="M78 0v744h82v-300c35 53 85 84 153 84c112 0 182 -84 182 -212v-316h-82v319c0 79 -39 132 -119 132c-76 0 -134 -53 -134 -130v-321h-82z" />
    <glyph glyph-name="i" unicode="i" horiz-adv-x="240" 
d="M79 0v515h82v-515h-82zM75 613v101h90v-101h-90z" />
    <glyph glyph-name="j" unicode="j" horiz-adv-x="240" 
d="M-14 -209v74h16c50 0 77 22 77 80v570h82v-571c0 -99 -62 -153 -159 -153h-16zM75 613v101h90v-101h-90z" />
    <glyph glyph-name="k" unicode="k" horiz-adv-x="527" 
d="M413 0l-168 251l-85 -90v-161h-82v744h82v-479l234 250h101l-191 -202l209 -313h-100z" />
    <glyph glyph-name="l" unicode="l" horiz-adv-x="242" 
d="M80 0v744h82v-744h-82z" />
    <glyph glyph-name="m" unicode="m" horiz-adv-x="861" 
d="M78 0v515h79v-69c31 50 81 82 140 82c64 0 119 -32 147 -94c33 57 81 94 157 94c105 0 172 -68 172 -194v-334h-82v333c0 81 -42 118 -110 118c-65 0 -114 -46 -114 -121v-330h-82v333c0 81 -43 118 -109 118s-116 -47 -116 -121v-330h-82z" />
    <glyph glyph-name="n" unicode="n" horiz-adv-x="571" 
d="M78 0v515h79v-74c39 57 88 87 156 87c112 0 182 -84 182 -212v-316h-82v319c0 79 -39 132 -119 132c-76 0 -134 -53 -134 -130v-321h-82z" />
    <glyph glyph-name="o" unicode="o" horiz-adv-x="578" 
d="M289 -12c-138 0 -247 114 -247 268c0 156 109 272 247 272c140 0 247 -116 247 -272c0 -154 -107 -268 -247 -268zM289 63c87 0 163 69 163 193c0 126 -76 197 -163 197c-86 0 -162 -71 -162 -197c0 -124 76 -193 162 -193z" />
    <glyph glyph-name="p" unicode="p" horiz-adv-x="611" 
d="M78 -209v724h79v-96c32 60 97 109 178 109c136 0 234 -121 234 -269c0 -150 -98 -271 -234 -271c-80 0 -144 44 -175 105v-302h-82zM322 63c89 0 163 69 163 193c0 126 -74 197 -163 197c-88 0 -162 -71 -162 -197c0 -124 74 -193 162 -193z" />
    <glyph glyph-name="q" unicode="q" horiz-adv-x="611" 
d="M451 -209v302c-31 -61 -95 -105 -175 -105c-136 0 -234 121 -234 271c0 148 98 269 234 269c81 0 146 -49 178 -109v96h79v-724h-82zM289 63c88 0 162 69 162 193c0 126 -74 197 -162 197c-89 0 -163 -71 -163 -197c0 -124 74 -193 163 -193z" />
    <glyph glyph-name="r" unicode="r" horiz-adv-x="361" 
d="M78 0v515h79v-87c40 73 113 99 170 92v-83c-90 8 -167 -35 -167 -139v-298h-82z" />
    <glyph glyph-name="s" unicode="s" horiz-adv-x="505" 
d="M261 -13c-121 0 -209 65 -223 164h83c13 -50 61 -89 140 -89c78 0 125 35 125 79c0 45 -17 67 -136 84c-120 17 -194 52 -194 153c0 73 55 150 193 150c115 0 190 -59 203 -151h-83c-13 48 -59 76 -120 76c-74 0 -111 -33 -111 -72c0 -43 28 -60 126 -76
c115 -19 202 -38 202 -161c0 -101 -86 -157 -205 -157z" />
    <glyph glyph-name="t" unicode="t" horiz-adv-x="338" 
d="M273 -9c-108 0 -175 63 -175 189v259h-75v76h75v147h82v-147h117v-76h-117v-259c0 -85 40 -113 101 -113c14 0 24 2 24 2v-75s-13 -3 -32 -3z" />
    <glyph glyph-name="u" unicode="u" horiz-adv-x="571" 
d="M258 -12c-112 0 -182 83 -182 211v316h82v-319c0 -79 39 -131 119 -131c76 0 134 52 134 129v321h82v-515h-79v74c-39 -57 -88 -86 -156 -86z" />
    <glyph glyph-name="v" unicode="v" horiz-adv-x="494" 
d="M203 0l-188 515h88l124 -350c12 -34 21 -82 21 -82s9 48 21 82l124 350h86l-188 -515h-88z" />
    <glyph glyph-name="w" unicode="w" horiz-adv-x="734" 
d="M168 0l-151 515h86l94 -334c7 -25 14 -61 16 -68c1 5 7 43 15 68l96 334h86l97 -334c7 -26 15 -65 16 -69c1 4 9 43 16 69l92 334h86l-152 -515h-85l-94 323c-10 32 -19 78 -20 85c-1 -5 -10 -52 -19 -85l-93 -323h-86z" />
    <glyph glyph-name="x" unicode="x" horiz-adv-x="482" 
d="M12 0l178 266l-167 249h98l120 -188l122 188h95l-168 -249l180 -266h-98l-131 206l-134 -206h-95z" />
    <glyph glyph-name="y" unicode="y" horiz-adv-x="494" 
d="M57 -209v74h10c64 0 97 22 116 75l23 63l-191 512h89l126 -354c12 -33 21 -82 21 -82s10 49 21 82l121 354h86l-218 -597c-35 -95 -104 -127 -193 -127h-11z" />
    <glyph glyph-name="z" unicode="z" horiz-adv-x="463" 
d="M33 0v67l285 372h-271v76h374v-72l-281 -367h290v-76h-397z" />
    <glyph glyph-name="braceleft" unicode="{" horiz-adv-x="353" 
d="M321 -122c-96 -7 -188 32 -188 158v174c0 68 -39 84 -99 84v70c60 0 99 16 99 84v176c0 126 92 165 188 158v-73c-70 3 -102 -26 -102 -85v-173c0 -66 -26 -104 -82 -121c56 -18 82 -56 82 -123v-171c0 -60 30 -88 102 -85v-73z" />
    <glyph glyph-name="bar" unicode="|" horiz-adv-x="229" 
d="M74 -160v904h81v-904h-81z" />
    <glyph glyph-name="braceright" unicode="}" horiz-adv-x="345" 
d="M24 -122v73c70 -3 102 26 102 85v173c0 66 26 104 82 121c-56 18 -82 56 -82 123v171c0 60 -30 88 -102 85v73c96 7 188 -32 188 -158v-174c0 -68 39 -84 99 -84v-70c-60 0 -99 -16 -99 -84v-176c0 -126 -92 -165 -188 -158z" />
    <glyph glyph-name="asciitilde" unicode="~" horiz-adv-x="382" 
d="M29 220c5 54 36 105 99 105c56 0 98 -39 137 -39c23 0 39 20 41 44h46c-4 -54 -35 -105 -99 -105c-52 0 -98 38 -136 38c-24 0 -39 -19 -41 -43h-47z" />
    <glyph glyph-name="Adieresis" unicode="&#xc4;" horiz-adv-x="617" 
d="M17 0l249 680h90l244 -680h-90l-64 181h-277l-64 -181h-88zM285 505l-88 -246h222l-86 246l-24 82s-12 -49 -24 -82zM355 730v95h93v-95h-93zM170 730v95h92v-95h-92z" />
    <glyph glyph-name="Aring" unicode="&#xc5;" horiz-adv-x="617" 
d="M17 0l249 680h90l244 -680h-90l-64 181h-277l-64 -181h-88zM285 505l-88 -246h222l-86 246l-24 82s-12 -49 -24 -82zM308 717c-63 0 -113 49 -113 111c0 64 50 112 113 112c62 0 113 -48 113 -112c0 -62 -51 -111 -113 -111zM308 763c35 0 61 28 61 65s-26 66 -61 66
s-61 -29 -61 -66s26 -65 61 -65z" />
    <glyph glyph-name="Ccedilla" unicode="&#xc7;" horiz-adv-x="696" 
d="M322 -117l-35 28l45 80c-159 19 -287 157 -287 350c0 208 148 352 326 352c158 0 256 -87 292 -223h-86c-30 87 -93 146 -206 146c-134 0 -235 -107 -235 -275c0 -169 103 -276 237 -276c101 0 178 60 205 151h89c-37 -135 -132 -219 -273 -227l-28 -44c4 1 9 1 14 1
c49 0 92 -34 92 -89c0 -62 -52 -93 -109 -93s-107 31 -115 79h63c7 -16 23 -28 48 -28c27 0 46 17 46 41c0 25 -20 43 -45 43c-16 0 -29 -8 -38 -16z" />
    <glyph glyph-name="Eacute" unicode="&#xc9;" horiz-adv-x="587" 
d="M86 0v680h448v-79h-360v-204h306v-79h-306v-239h365v-79h-453zM264 730l64 147h109l-97 -147h-76z" />
    <glyph glyph-name="Ntilde" unicode="&#xd1;" horiz-adv-x="686" 
d="M86 0v680h97l337 -543v543h80v-680h-89l-345 555v-555h-80zM188 727c7 67 46 120 104 120c57 0 91 -47 126 -47c24 0 37 20 40 47h56c-7 -67 -46 -120 -104 -120c-57 0 -91 47 -126 47c-23 0 -37 -20 -40 -47h-56z" />
    <glyph glyph-name="Odieresis" unicode="&#xd6;" horiz-adv-x="748" 
d="M374 -12c-181 0 -329 144 -329 353c0 208 148 352 329 352c184 0 329 -140 329 -352c0 -208 -148 -353 -329 -353zM374 65c136 0 238 108 238 276c0 171 -99 275 -238 275c-136 0 -238 -107 -238 -275c0 -169 102 -276 238 -276zM419 730v95h93v-95h-93zM234 730v95h92
v-95h-92z" />
    <glyph glyph-name="Udieresis" unicode="&#xdc;" horiz-adv-x="667" 
d="M334 -12c-151 0 -261 96 -261 265v427h88v-427c0 -122 63 -188 173 -188c111 0 172 66 172 188v427h88v-427c0 -169 -110 -265 -260 -265zM380 730v95h93v-95h-93zM195 730v95h92v-95h-92z" />
    <glyph glyph-name="aacute" unicode="&#xe1;" 
d="M214 -12c-96 0 -172 43 -172 144c0 99 78 140 187 157c103 16 159 27 159 81c0 59 -38 83 -113 83c-63 0 -115 -27 -122 -86h-86c6 96 87 161 209 161c134 0 194 -62 194 -158v-266c0 -41 12 -84 20 -104h-81c-7 15 -16 39 -19 70c-31 -46 -95 -82 -176 -82zM215 60
c100 0 173 46 173 128v86c-21 -19 -65 -36 -156 -53c-78 -15 -109 -38 -109 -86c0 -50 38 -75 92 -75zM244 593l64 147h109l-97 -147h-76z" />
    <glyph glyph-name="agrave" unicode="&#xe0;" 
d="M214 -12c-96 0 -172 43 -172 144c0 99 78 140 187 157c103 16 159 27 159 81c0 59 -38 83 -113 83c-63 0 -115 -27 -122 -86h-86c6 96 87 161 209 161c134 0 194 -62 194 -158v-266c0 -41 12 -84 20 -104h-81c-7 15 -16 39 -19 70c-31 -46 -95 -82 -176 -82zM215 60
c100 0 173 46 173 128v86c-21 -19 -65 -36 -156 -53c-78 -15 -109 -38 -109 -86c0 -50 38 -75 92 -75zM232 593l-97 147h109l64 -147h-76z" />
    <glyph glyph-name="acircumflex" unicode="&#xe2;" 
d="M214 -12c-96 0 -172 43 -172 144c0 99 78 140 187 157c103 16 159 27 159 81c0 59 -38 83 -113 83c-63 0 -115 -27 -122 -86h-86c6 96 87 161 209 161c134 0 194 -62 194 -158v-266c0 -41 12 -84 20 -104h-81c-7 15 -16 39 -19 70c-31 -46 -95 -82 -176 -82zM215 60
c100 0 173 46 173 128v86c-21 -19 -65 -36 -156 -53c-78 -15 -109 -38 -109 -86c0 -50 38 -75 92 -75zM131 593l113 154h64l114 -154h-74l-72 79l-72 -79h-73z" />
    <glyph glyph-name="adieresis" unicode="&#xe4;" 
d="M214 -12c-96 0 -172 43 -172 144c0 99 78 140 187 157c103 16 159 27 159 81c0 59 -38 83 -113 83c-63 0 -115 -27 -122 -86h-86c6 96 87 161 209 161c134 0 194 -62 194 -158v-266c0 -41 12 -84 20 -104h-81c-7 15 -16 39 -19 70c-31 -46 -95 -82 -176 -82zM215 60
c100 0 173 46 173 128v86c-21 -19 -65 -36 -156 -53c-78 -15 -109 -38 -109 -86c0 -50 38 -75 92 -75zM322 593v95h93v-95h-93zM137 593v95h92v-95h-92z" />
    <glyph glyph-name="atilde" unicode="&#xe3;" 
d="M214 -12c-96 0 -172 43 -172 144c0 99 78 140 187 157c103 16 159 27 159 81c0 59 -38 83 -113 83c-63 0 -115 -27 -122 -86h-86c6 96 87 161 209 161c134 0 194 -62 194 -158v-266c0 -41 12 -84 20 -104h-81c-7 15 -16 39 -19 70c-31 -46 -95 -82 -176 -82zM215 60
c100 0 173 46 173 128v86c-21 -19 -65 -36 -156 -53c-78 -15 -109 -38 -109 -86c0 -50 38 -75 92 -75zM113 590c7 67 46 120 104 120c57 0 91 -47 126 -47c24 0 37 20 40 47h56c-7 -67 -46 -120 -104 -120c-57 0 -91 47 -126 47c-23 0 -37 -20 -40 -47h-56z" />
    <glyph glyph-name="aring" unicode="&#xe5;" 
d="M214 -12c-96 0 -172 43 -172 144c0 99 78 140 187 157c103 16 159 27 159 81c0 59 -38 83 -113 83c-63 0 -115 -27 -122 -86h-86c6 96 87 161 209 161c134 0 194 -62 194 -158v-266c0 -41 12 -84 20 -104h-81c-7 15 -16 39 -19 70c-31 -46 -95 -82 -176 -82zM215 60
c100 0 173 46 173 128v86c-21 -19 -65 -36 -156 -53c-78 -15 -109 -38 -109 -86c0 -50 38 -75 92 -75zM275 570c-63 0 -113 49 -113 111c0 64 50 112 113 112c62 0 113 -48 113 -112c0 -62 -51 -111 -113 -111zM275 616c35 0 61 28 61 65s-26 66 -61 66s-61 -29 -61 -66
s26 -65 61 -65z" />
    <glyph glyph-name="ccedilla" unicode="&#xe7;" horiz-adv-x="545" 
d="M511 158c-23 -94 -96 -160 -198 -169l-28 -44c4 1 9 1 14 1c49 0 92 -34 92 -89c0 -62 -52 -93 -109 -93s-107 31 -115 79h63c7 -16 23 -28 48 -28c27 0 46 17 46 41c0 25 -20 43 -45 43c-16 0 -29 -8 -38 -16l-35 28l46 80c-120 19 -210 125 -210 265
c0 156 110 272 248 272c112 0 194 -65 221 -170h-87c-22 60 -69 95 -134 95c-92 0 -163 -71 -163 -197c0 -124 71 -193 163 -193c66 0 114 37 134 95h87z" />
    <glyph glyph-name="eacute" unicode="&#xe9;" horiz-adv-x="570" 
d="M295 -12c-143 0 -253 110 -253 269c0 157 111 271 250 271c129 0 245 -102 240 -296h-405c9 -114 86 -170 168 -170c71 0 118 32 138 82h87c-24 -90 -109 -156 -225 -156zM130 303h310c-11 104 -74 151 -148 151c-69 0 -142 -44 -162 -151zM264 593l64 147h109l-97 -147
h-76z" />
    <glyph glyph-name="egrave" unicode="&#xe8;" horiz-adv-x="570" 
d="M295 -12c-143 0 -253 110 -253 269c0 157 111 271 250 271c129 0 245 -102 240 -296h-405c9 -114 86 -170 168 -170c71 0 118 32 138 82h87c-24 -90 -109 -156 -225 -156zM130 303h310c-11 104 -74 151 -148 151c-69 0 -142 -44 -162 -151zM252 593l-97 147h109l64 -147
h-76z" />
    <glyph glyph-name="ecircumflex" unicode="&#xea;" horiz-adv-x="570" 
d="M295 -12c-143 0 -253 110 -253 269c0 157 111 271 250 271c129 0 245 -102 240 -296h-405c9 -114 86 -170 168 -170c71 0 118 32 138 82h87c-24 -90 -109 -156 -225 -156zM130 303h310c-11 104 -74 151 -148 151c-69 0 -142 -44 -162 -151zM151 593l113 154h64l114 -154
h-74l-72 79l-72 -79h-73z" />
    <glyph glyph-name="edieresis" unicode="&#xeb;" horiz-adv-x="570" 
d="M295 -12c-143 0 -253 110 -253 269c0 157 111 271 250 271c129 0 245 -102 240 -296h-405c9 -114 86 -170 168 -170c71 0 118 32 138 82h87c-24 -90 -109 -156 -225 -156zM130 303h310c-11 104 -74 151 -148 151c-69 0 -142 -44 -162 -151zM342 593v95h93v-95h-93z
M157 593v95h92v-95h-92z" />
    <glyph glyph-name="iacute" unicode="&#xed;" horiz-adv-x="240" 
d="M79 0v515h82v-515h-82zM88 633l64 147h109l-97 -147h-76z" />
    <glyph glyph-name="igrave" unicode="&#xec;" horiz-adv-x="240" 
d="M79 0v515h82v-515h-82zM76 633l-97 147h109l64 -147h-76z" />
    <glyph glyph-name="icircumflex" unicode="&#xee;" horiz-adv-x="240" 
d="M79 0v515h82v-515h-82zM-25 633l113 154h64l114 -154h-74l-72 79l-72 -79h-73z" />
    <glyph glyph-name="idieresis" unicode="&#xef;" horiz-adv-x="240" 
d="M79 0v515h82v-515h-82zM166 633v95h93v-95h-93zM-19 633v95h92v-95h-92z" />
    <glyph glyph-name="ntilde" unicode="&#xf1;" horiz-adv-x="571" 
d="M78 0v515h79v-74c39 57 88 87 156 87c112 0 182 -84 182 -212v-316h-82v319c0 79 -39 132 -119 132c-76 0 -134 -53 -134 -130v-321h-82zM120 590c7 67 46 120 104 120c57 0 91 -47 126 -47c24 0 37 20 40 47h56c-7 -67 -46 -120 -104 -120c-57 0 -91 47 -126 47
c-23 0 -37 -20 -40 -47h-56z" />
    <glyph glyph-name="oacute" unicode="&#xf3;" horiz-adv-x="578" 
d="M289 -12c-138 0 -247 114 -247 268c0 156 109 272 247 272c140 0 247 -116 247 -272c0 -154 -107 -268 -247 -268zM289 63c87 0 163 69 163 193c0 126 -76 197 -163 197c-86 0 -162 -71 -162 -197c0 -124 76 -193 162 -193zM258 593l64 147h109l-97 -147h-76z" />
    <glyph glyph-name="ograve" unicode="&#xf2;" horiz-adv-x="578" 
d="M289 -12c-138 0 -247 114 -247 268c0 156 109 272 247 272c140 0 247 -116 247 -272c0 -154 -107 -268 -247 -268zM289 63c87 0 163 69 163 193c0 126 -76 197 -163 197c-86 0 -162 -71 -162 -197c0 -124 76 -193 162 -193zM246 593l-97 147h109l64 -147h-76z" />
    <glyph glyph-name="ocircumflex" unicode="&#xf4;" horiz-adv-x="578" 
d="M289 -12c-138 0 -247 114 -247 268c0 156 109 272 247 272c140 0 247 -116 247 -272c0 -154 -107 -268 -247 -268zM289 63c87 0 163 69 163 193c0 126 -76 197 -163 197c-86 0 -162 -71 -162 -197c0 -124 76 -193 162 -193zM145 593l113 154h64l114 -154h-74l-72 79
l-72 -79h-73z" />
    <glyph glyph-name="odieresis" unicode="&#xf6;" horiz-adv-x="578" 
d="M289 -12c-138 0 -247 114 -247 268c0 156 109 272 247 272c140 0 247 -116 247 -272c0 -154 -107 -268 -247 -268zM289 63c87 0 163 69 163 193c0 126 -76 197 -163 197c-86 0 -162 -71 -162 -197c0 -124 76 -193 162 -193zM336 593v95h93v-95h-93zM151 593v95h92v-95
h-92z" />
    <glyph glyph-name="otilde" unicode="&#xf5;" horiz-adv-x="578" 
d="M289 -12c-138 0 -247 114 -247 268c0 156 109 272 247 272c140 0 247 -116 247 -272c0 -154 -107 -268 -247 -268zM289 63c87 0 163 69 163 193c0 126 -76 197 -163 197c-86 0 -162 -71 -162 -197c0 -124 76 -193 162 -193zM127 590c7 67 46 120 104 120
c57 0 91 -47 126 -47c24 0 37 20 40 47h56c-7 -67 -46 -120 -104 -120c-57 0 -91 47 -126 47c-23 0 -37 -20 -40 -47h-56z" />
    <glyph glyph-name="uacute" unicode="&#xfa;" horiz-adv-x="571" 
d="M258 -12c-112 0 -182 83 -182 211v316h82v-319c0 -79 39 -131 119 -131c76 0 134 52 134 129v321h82v-515h-79v74c-39 -57 -88 -86 -156 -86zM252 593l64 147h109l-97 -147h-76z" />
    <glyph glyph-name="ugrave" unicode="&#xf9;" horiz-adv-x="571" 
d="M258 -12c-112 0 -182 83 -182 211v316h82v-319c0 -79 39 -131 119 -131c76 0 134 52 134 129v321h82v-515h-79v74c-39 -57 -88 -86 -156 -86zM250 593l-97 147h109l64 -147h-76z" />
    <glyph glyph-name="ucircumflex" unicode="&#xfb;" horiz-adv-x="571" 
d="M258 -12c-112 0 -182 83 -182 211v316h82v-319c0 -79 39 -131 119 -131c76 0 134 52 134 129v321h82v-515h-79v74c-39 -57 -88 -86 -156 -86zM139 593l113 154h64l114 -154h-74l-72 79l-72 -79h-73z" />
    <glyph glyph-name="udieresis" unicode="&#xfc;" horiz-adv-x="571" 
d="M258 -12c-112 0 -182 83 -182 211v316h82v-319c0 -79 39 -131 119 -131c76 0 134 52 134 129v321h82v-515h-79v74c-39 -57 -88 -86 -156 -86zM330 593v95h93v-95h-93zM145 593v95h92v-95h-92z" />
    <glyph glyph-name="dagger" unicode="&#x2020;" horiz-adv-x="370" 
d="M149 195v291h-102v68h102v126h72v-126h101v-68h-101v-291h-72z" />
    <glyph glyph-name="degree" unicode="&#xb0;" horiz-adv-x="373" 
d="M186 379c-80 0 -149 68 -149 151c0 82 69 150 149 150c81 0 150 -68 150 -150c0 -83 -69 -151 -150 -151zM186 438c50 0 85 40 85 92c0 51 -35 92 -85 92c-49 0 -85 -41 -85 -92c0 -52 36 -92 85 -92z" />
    <glyph glyph-name="cent" unicode="&#xa2;" horiz-adv-x="545" 
d="M133 -110l43 137c-80 42 -134 128 -134 229c0 144 108 260 245 260c14 0 29 -1 42 -3l36 112h61l-40 -127c62 -25 106 -75 125 -143h-87c-13 32 -33 56 -61 70l-110 -347c11 -2 22 -3 34 -3c67 0 117 34 137 90h87c-24 -97 -109 -165 -224 -165c-20 0 -38 2 -56 6
l-37 -116h-61zM127 256c0 -73 28 -127 72 -156l107 340c-6 0 -13 1 -19 1c-91 0 -160 -69 -160 -185z" />
    <glyph glyph-name="sterling" unicode="&#xa3;" horiz-adv-x="537" 
d="M36 299v68h60c-18 36 -34 77 -34 131c0 112 91 195 211 195c124 0 204 -82 208 -193h-82c-5 68 -46 116 -126 116c-78 0 -123 -47 -123 -118c0 -47 19 -88 38 -131h171v-68h-147c6 -21 9 -43 9 -67c0 -48 -17 -110 -75 -160c34 19 59 22 83 22c66 0 101 -28 158 -28
c24 0 47 8 70 26l42 -63c-36 -30 -73 -41 -109 -41c-88 0 -123 40 -188 40c-32 0 -66 -9 -108 -40l-45 70c62 44 94 97 94 175c0 24 -6 45 -14 66h-93z" />
    <glyph glyph-name="section" unicode="&#xa7;" horiz-adv-x="532" 
d="M277 -83c-104 0 -183 64 -183 153h81c8 -47 36 -78 102 -78c55 0 87 23 87 76c0 45 -23 70 -122 97c-123 33 -196 67 -196 171c0 48 28 89 71 113c-18 23 -28 53 -28 91c0 90 71 153 178 153c104 0 180 -61 180 -158h-80c-5 44 -34 82 -100 82c-55 0 -95 -24 -95 -77
c0 -45 24 -69 122 -93c127 -31 196 -67 196 -171c0 -49 -30 -91 -73 -114c19 -24 30 -55 30 -94c0 -90 -63 -151 -170 -151zM275 368c-40 10 -74 21 -103 36c-29 -16 -45 -37 -45 -64c0 -42 21 -67 134 -96c39 -10 73 -22 101 -37c30 16 47 37 47 65c0 42 -21 67 -134 96z
" />
    <glyph glyph-name="bullet" unicode="&#x2022;" horiz-adv-x="318" 
d="M159 244c-58 0 -103 47 -103 107c0 58 45 106 103 106c57 0 103 -48 103 -106c0 -60 -46 -107 -103 -107z" />
    <glyph glyph-name="paragraph" unicode="&#xb6;" horiz-adv-x="537" 
d="M226 -140v409c-124 7 -195 91 -195 205c0 121 77 206 213 206h226v-820h-76v747h-92v-747h-76z" />
    <glyph glyph-name="germandbls" unicode="&#xdf;" horiz-adv-x="597" 
d="M321 -12c-32 0 -65 5 -95 14v77c26 -9 63 -16 95 -16c90 0 150 53 150 143c0 105 -71 153 -157 153h-63v76h36c86 0 133 51 133 119c0 71 -51 115 -122 115c-69 0 -142 -39 -142 -153v-516h-82v516c0 142 95 228 224 228c122 0 204 -81 203 -190
c-1 -70 -31 -116 -88 -145c93 -31 142 -105 142 -201c0 -134 -95 -220 -234 -220z" />
    <glyph glyph-name="registered" unicode="&#xae;" horiz-adv-x="542" 
d="M271 200c-133 0 -241 106 -241 248s108 248 241 248s241 -106 241 -248s-108 -248 -241 -248zM271 244c113 0 190 91 190 204c0 112 -77 204 -190 204c-114 0 -191 -92 -191 -204c0 -113 77 -204 191 -204zM326 321v61c0 27 -13 36 -36 36h-63v-96h-55v259h117
c52 0 93 -29 93 -79c0 -27 -14 -47 -40 -57c20 -6 39 -24 39 -63v-61h-55zM227 466h59c23 0 38 13 38 35s-14 34 -38 34h-59v-69z" />
    <glyph glyph-name="copyright" unicode="&#xa9;" horiz-adv-x="774" 
d="M387 -12c-190 0 -344 159 -344 355c0 195 154 354 344 354s344 -159 344 -354c0 -196 -154 -355 -344 -355zM387 37c161 0 288 136 288 306c0 169 -127 305 -288 305s-288 -136 -288 -305c0 -170 127 -306 288 -306zM387 131c-108 0 -196 95 -196 212
c0 116 88 211 196 211c88 0 162 -60 186 -144h-76c-19 44 -61 71 -110 71c-69 0 -119 -63 -119 -138c0 -76 50 -139 119 -139c48 0 90 28 110 72h75c-25 -84 -99 -145 -185 -145z" />
    <glyph glyph-name="trademark" unicode="&#x2122;" horiz-adv-x="768" 
d="M356 338v342h74l97 -260l97 260h77v-342h-59v238l-88 -238h-53l-88 238v-238h-57zM136 338v291h-95v51h251v-51h-95v-291h-61z" />
    <glyph glyph-name="acute" unicode="&#xb4;" horiz-adv-x="500" 
d="M213 593l64 147h109l-97 -147h-76z" />
    <glyph glyph-name="dieresis" unicode="&#xa8;" horiz-adv-x="500" 
d="M296 593v95h93v-95h-93zM111 593v95h92v-95h-92z" />
    <glyph glyph-name="AE" unicode="&#xc6;" horiz-adv-x="928" 
d="M11 0l317 680h547v-79h-332v-204h278v-79h-278v-239h337v-79h-425v198h-264l-92 -198h-88zM379 601l-152 -325h228v325h-76z" />
    <glyph glyph-name="Oslash" unicode="&#xd8;" horiz-adv-x="748" 
d="M77 -22l-50 49l87 92c-43 59 -69 135 -69 222c0 208 148 352 329 352c80 0 153 -27 209 -75l80 85l50 -49l-81 -87c44 -59 71 -136 71 -226c0 -208 -148 -353 -329 -353c-81 0 -156 29 -213 79zM374 65c136 0 238 108 238 276c0 65 -14 120 -40 163l-356 -378
c42 -39 96 -61 158 -61zM136 341c0 -62 13 -115 37 -158l355 376c-41 37 -94 57 -154 57c-136 0 -238 -107 -238 -275z" />
    <glyph glyph-name="slash.cap" horiz-adv-x="351" 
d="M13 -60l242 800h82l-242 -800h-82z" />
    <glyph glyph-name="backslash.cap" horiz-adv-x="351" 
d="M256 -60l-242 800h82l242 -800h-82z" />
    <glyph glyph-name="yen" unicode="&#xa5;" horiz-adv-x="535" 
d="M39 280v56h157l-185 344h93l166 -325l166 325h88l-186 -344h157v-56h-184v-88h184v-56h-184v-136h-88v136h-184v56h184v88h-184z" />
    <glyph glyph-name="parenleft.cap" horiz-adv-x="319" 
d="M214 -80c-93 104 -151 252 -151 411c0 158 58 294 151 399h73c-82 -124 -132 -242 -132 -399s50 -288 132 -411h-73z" />
    <glyph glyph-name="parenright.cap" horiz-adv-x="319" 
d="M32 -80c82 124 132 242 132 399s-50 288 -132 411h73c93 -104 151 -252 151 -411c0 -158 -58 -294 -151 -399h-73z" />
    <glyph glyph-name="bracketleft.cap" horiz-adv-x="323" 
d="M82 -70v790h209v-73h-123v-644h123v-73h-209z" />
    <glyph glyph-name="bracketright.cap" horiz-adv-x="323" 
d="M32 -70v73h123v644h-123v73h209v-790h-209z" />
    <glyph glyph-name="braceleft.cap" horiz-adv-x="345" 
d="M321 -70c-96 -7 -188 32 -188 158v122c0 68 -39 84 -99 84v70c60 0 99 16 99 84v113c0 126 92 165 188 158v-73c-70 3 -102 -26 -102 -85v-110c0 -66 -26 -104 -82 -121c56 -18 82 -56 82 -123v-119c0 -60 30 -88 102 -85v-73z" />
    <glyph glyph-name="braceright.cap" horiz-adv-x="345" 
d="M24 -70v73c70 -3 102 26 102 85v119c0 66 26 104 82 121c-56 18 -82 56 -82 123v110c0 60 -30 88 -102 85v73c96 7 188 -32 188 -158v-113c0 -68 39 -84 99 -84v-70c-60 0 -99 -16 -99 -84v-122c0 -126 -92 -165 -188 -158z" />
    <glyph glyph-name="ordfeminine" unicode="&#xaa;" horiz-adv-x="434" 
d="M176 261c-75 0 -142 37 -142 115c0 87 70 114 186 134c60 10 87 20 87 57c0 40 -29 61 -86 61c-50 0 -83 -25 -88 -65h-79c4 77 70 130 168 130c107 0 162 -48 162 -126v-213c0 -33 10 -67 16 -83h-76c-5 12 -13 29 -15 54c-25 -37 -68 -64 -133 -64zM177 324
c70 0 131 35 131 101v60c-13 -11 -33 -22 -72 -30c-93 -20 -127 -32 -127 -76c0 -36 26 -55 68 -55z" />
    <glyph glyph-name="ordmasculine" unicode="&#xba;" horiz-adv-x="464" 
d="M232 261c-110 0 -200 91 -200 214c0 125 90 218 200 218c112 0 200 -93 200 -218c0 -123 -88 -214 -200 -214zM232 327c70 0 122 53 122 148c0 97 -52 152 -122 152c-69 0 -122 -55 -122 -152c0 -95 53 -148 122 -148z" />
    <glyph glyph-name="Omega" unicode="&#x3a9;" horiz-adv-x="231" 
d="M64 282v109h103v-109h-103z" />
    <glyph glyph-name="Omega" unicode="&#x2126;" horiz-adv-x="231" 
d="M64 282v109h103v-109h-103z" />
    <glyph glyph-name="ae" unicode="&#xe6;" horiz-adv-x="915" 
d="M214 -12c-96 0 -172 43 -172 144c0 99 78 140 187 157c103 16 158 27 158 81c0 59 -37 83 -112 83c-63 0 -115 -27 -122 -86h-86c6 96 87 161 209 161c98 0 155 -36 178 -93c43 58 107 93 183 93c129 0 245 -102 240 -296h-405c9 -114 86 -170 168 -170
c71 0 118 32 138 82h87c-24 -90 -109 -156 -225 -156c-92 0 -169 44 -212 120c-49 -93 -139 -120 -214 -120zM215 60c100 0 174 46 174 128v86c-21 -19 -66 -36 -157 -53c-78 -15 -109 -38 -109 -86c0 -50 38 -75 92 -75zM475 303h310c-11 104 -74 151 -148 151
c-69 0 -142 -44 -162 -151z" />
    <glyph glyph-name="oslash" unicode="&#xf8;" horiz-adv-x="578" 
d="M69 -30l-46 40l71 79c-33 45 -52 102 -52 167c0 156 109 272 247 272c57 0 110 -21 152 -56l67 74l47 -39l-73 -80c34 -46 54 -105 54 -171c0 -154 -107 -268 -247 -268c-57 0 -111 20 -153 56zM289 63c87 0 163 69 163 193c0 44 -9 81 -24 111l-242 -267
c28 -25 64 -37 103 -37zM127 256c0 -43 8 -78 22 -107l241 267c-28 24 -63 37 -101 37c-86 0 -162 -71 -162 -197z" />
    <glyph glyph-name="questiondown" unicode="&#xbf;" horiz-adv-x="510" 
d="M253 -118c-124 0 -206 66 -206 171c0 94 57 141 107 179c48 37 85 55 85 123v17h76v-17c0 -107 -48 -134 -113 -183c-46 -35 -68 -66 -68 -116c0 -66 42 -99 119 -99c84 0 133 52 135 122h82c-1 -105 -82 -197 -217 -197zM232 468v107h91v-107h-91z" />
    <glyph glyph-name="exclamdown" unicode="&#xa1;" horiz-adv-x="271" 
d="M88 -105l12 477h71l12 -477h-95zM90 468v107h91v-107h-91z" />
    <glyph glyph-name="hyphen.cap" horiz-adv-x="342" 
d="M50 285v82h243v-82h-243z" />
    <glyph glyph-name="endash.cap" horiz-adv-x="536" 
d="M50 285v82h436v-82h-436z" />
    <glyph glyph-name="florin" unicode="&#x192;" horiz-adv-x="384" 
d="M41 319v74h86l23 125c20 112 87 175 187 175c16 0 33 -2 50 -5l-14 -77c-15 4 -29 6 -42 6c-54 0 -82 -31 -95 -103l-22 -121h111v-74h-124l-57 -324c-18 -102 -75 -155 -158 -155c-15 0 -31 2 -48 5l13 76c10 -2 20 -3 29 -3c43 0 68 24 78 81l56 320h-73z" />
    <glyph glyph-name="emdash.cap" horiz-adv-x="861" 
d="M50 285v82h762v-82h-762z" />
    <glyph glyph-name="Delta" unicode="&#x394;" horiz-adv-x="231" 
d="M64 282v109h103v-109h-103z" />
    <glyph glyph-name="Delta" unicode="&#x2206;" horiz-adv-x="231" 
d="M64 282v109h103v-109h-103z" />
    <glyph glyph-name="guillemotleft" unicode="&#xab;" horiz-adv-x="473" 
d="M216 54l-186 165v81l186 165v-108l-116 -97l116 -99v-107zM438 54l-185 165v78l185 168v-108l-118 -97l118 -99v-107z" />
    <glyph glyph-name="guillemotright" unicode="&#xbb;" horiz-adv-x="473" 
d="M257 54v108l116 97l-116 99v107l186 -165v-81zM35 54v108l118 97l-118 99v107l185 -165v-78z" />
    <glyph glyph-name="ellipsis" unicode="&#x2026;" horiz-adv-x="701" 
d="M539 0v109h103v-109h-103zM59 0v109h103v-109h-103zM299 0v109h103v-109h-103z" />
    <glyph glyph-name="nbspace" horiz-adv-x="295" 
 />
    <glyph glyph-name="Agrave" unicode="&#xc0;" horiz-adv-x="617" 
d="M17 0l249 680h90l244 -680h-90l-64 181h-277l-64 -181h-88zM285 505l-88 -246h222l-86 246l-24 82s-12 -49 -24 -82zM265 730l-97 147h109l64 -147h-76z" />
    <glyph glyph-name="Atilde" unicode="&#xc3;" horiz-adv-x="617" 
d="M17 0l249 680h90l244 -680h-90l-64 181h-277l-64 -181h-88zM285 505l-88 -246h222l-86 246l-24 82s-12 -49 -24 -82zM146 727c7 67 46 120 104 120c57 0 91 -47 126 -47c24 0 37 20 40 47h56c-7 -67 -46 -120 -104 -120c-57 0 -91 47 -126 47c-23 0 -37 -20 -40 -47h-56z
" />
    <glyph glyph-name="Otilde" unicode="&#xd5;" horiz-adv-x="748" 
d="M374 -12c-181 0 -329 144 -329 353c0 208 148 352 329 352c184 0 329 -140 329 -352c0 -208 -148 -353 -329 -353zM374 65c136 0 238 108 238 276c0 171 -99 275 -238 275c-136 0 -238 -107 -238 -275c0 -169 102 -276 238 -276zM210 727c7 67 46 120 104 120
c57 0 91 -47 126 -47c24 0 37 20 40 47h56c-7 -67 -46 -120 -104 -120c-57 0 -91 47 -126 47c-23 0 -37 -20 -40 -47h-56z" />
    <glyph glyph-name="OE" unicode="&#x152;" horiz-adv-x="1113" 
d="M374 -12c-181 0 -329 144 -329 353c0 208 148 352 329 352c101 0 184 -42 238 -119v106h448v-79h-360v-204h306v-79h-306v-239h365v-79h-453v111c-55 -79 -139 -123 -238 -123zM374 65c136 0 238 108 238 276c0 171 -99 275 -238 275c-136 0 -238 -107 -238 -275
c0 -169 102 -276 238 -276z" />
    <glyph glyph-name="oe" unicode="&#x153;" horiz-adv-x="980" 
d="M289 -12c-138 0 -247 114 -247 268c0 156 109 272 247 272c91 0 166 -53 205 -134c41 82 117 134 208 134c129 0 245 -102 240 -296h-405c9 -114 86 -170 168 -170c71 0 118 32 138 82h87c-24 -90 -109 -156 -225 -156c-94 0 -170 50 -211 130
c-40 -78 -114 -130 -205 -130zM289 63c87 0 163 69 163 193c0 126 -76 197 -163 197c-86 0 -162 -71 -162 -197c0 -124 76 -193 162 -193zM540 302h310c-11 104 -74 151 -148 151c-69 0 -142 -44 -162 -151z" />
    <glyph glyph-name="endash" unicode="&#x2013;" horiz-adv-x="536" 
d="M50 235v82h436v-82h-436z" />
    <glyph glyph-name="emdash" unicode="&#x2014;" horiz-adv-x="861" 
d="M50 235v82h762v-82h-762z" />
    <glyph glyph-name="quotedblleft" unicode="&#x201c;" horiz-adv-x="397" 
d="M235 447v133c0 72 53 106 108 110v-49c-32 -3 -57 -22 -57 -61v-28h52v-105h-103zM59 447v133c0 72 53 106 108 110v-49c-32 -3 -57 -22 -57 -61v-28h52v-105h-103z" />
    <glyph glyph-name="quotedblright" unicode="&#x201d;" horiz-adv-x="397" 
d="M230 437v49c32 3 57 22 57 61v28h-52v105h103v-133c0 -72 -53 -106 -108 -110zM54 437v49c32 3 57 22 57 61v28h-52v105h103v-133c0 -72 -53 -106 -108 -110z" />
    <glyph glyph-name="quoteleft" unicode="&#x2018;" horiz-adv-x="221" 
d="M59 447v133c0 72 53 106 108 110v-49c-32 -3 -57 -22 -57 -61v-28h52v-105h-103z" />
    <glyph glyph-name="quoteright" unicode="&#x2019;" horiz-adv-x="221" 
d="M54 437v49c32 3 57 22 57 61v28h-52v105h103v-133c0 -72 -53 -106 -108 -110z" />
    <glyph glyph-name="divide" unicode="&#xf7;" horiz-adv-x="498" 
d="M46 265v72h406v-72h-406zM200 92v96h98v-96h-98zM200 414v96h98v-96h-98z" />
    <glyph glyph-name="lozenge" unicode="&#x25ca;" horiz-adv-x="208" 
d="M71 282v109h103v-109h-103z" />
    <glyph glyph-name="ydieresis" unicode="&#xff;" horiz-adv-x="494" 
d="M57 -209v74h10c64 0 97 22 116 75l23 63l-191 512h89l126 -354c12 -33 21 -82 21 -82s10 49 21 82l121 354h86l-218 -597c-35 -95 -104 -127 -193 -127h-11zM294 593v95h93v-95h-93zM109 593v95h92v-95h-92z" />
    <glyph glyph-name="Ydieresis" unicode="&#x178;" horiz-adv-x="561" 
d="M236 0v282l-225 398h92l178 -317l179 317h90l-226 -398v-282h-88zM327 730v95h93v-95h-93zM142 730v95h92v-95h-92z" />
    <glyph glyph-name="fraction" unicode="&#x2044;" horiz-adv-x="300" 
d="M-80 0l382 680h78l-383 -680h-77z" />
    <glyph glyph-name="fraction" unicode="&#x2215;" horiz-adv-x="300" 
d="M-80 0l382 680h78l-383 -680h-77z" />
    <glyph glyph-name="Euro" unicode="&#x20ac;" horiz-adv-x="624" 
d="M24 369v56h83c27 181 142 268 261 268c100 0 195 -56 226 -176h-88c-20 68 -73 99 -138 99c-87 0 -151 -66 -170 -191h302l-21 -56h-287v-26c0 -18 0 -36 2 -52h257l-21 -56h-228c24 -111 84 -170 167 -170c70 0 114 34 136 97h90c-30 -117 -120 -174 -226 -174
c-115 0 -225 82 -258 247h-87v56h79c-2 16 -2 34 -2 52v26h-77z" />
    <glyph glyph-name="guilsinglleft" unicode="&#x2039;" horiz-adv-x="251" 
d="M216 54l-186 165v81l186 165v-108l-116 -97l116 -99v-107z" />
    <glyph glyph-name="guilsinglright" unicode="&#x203a;" horiz-adv-x="251" 
d="M35 54v108l116 97l-116 99v107l186 -165v-81z" />
    <glyph glyph-name="daggerdbl" unicode="&#x2021;" horiz-adv-x="370" 
d="M149 197v126h-102v68h102v95h-102v68h102v126h72v-126h101v-68h-101v-95h101v-68h-101v-126h-72z" />
    <glyph glyph-name="periodcentered" unicode="&#xb7;" horiz-adv-x="231" 
d="M64 282v109h103v-109h-103z" />
    <glyph glyph-name="periodcentered" unicode="&#x2219;" horiz-adv-x="231" 
d="M64 282v109h103v-109h-103z" />
    <glyph glyph-name="quotesinglbase" unicode="&#x201a;" horiz-adv-x="221" 
d="M54 -138v49c32 3 57 22 57 61v28h-52v105h103v-133c0 -72 -53 -106 -108 -110z" />
    <glyph glyph-name="quotedblbase" unicode="&#x201e;" horiz-adv-x="397" 
d="M230 -138v49c32 3 57 22 57 61v28h-52v105h103v-133c0 -72 -53 -106 -108 -110zM54 -138v49c32 3 57 22 57 61v28h-52v105h103v-133c0 -72 -53 -106 -108 -110z" />
    <glyph glyph-name="perthousand" unicode="&#x2030;" horiz-adv-x="1161" 
d="M191 361c-88 0 -161 73 -161 164c0 92 73 165 161 165c87 0 160 -73 160 -165c0 -91 -73 -164 -160 -164zM596 -9c-88 0 -161 73 -161 164c0 92 73 165 161 165c87 0 160 -73 160 -165c0 -91 -73 -164 -160 -164zM971 -9c-88 0 -161 73 -161 164c0 92 73 165 161 165
c87 0 160 -73 160 -165c0 -91 -73 -164 -160 -164zM163 0l382 680h78l-383 -680h-77zM1058 155c0 52 -38 96 -87 96s-88 -44 -88 -96s39 -95 88 -95s87 43 87 95zM278 525c0 52 -38 96 -87 96s-88 -44 -88 -96s39 -95 88 -95s87 43 87 95zM683 155c0 52 -38 96 -87 96
s-88 -44 -88 -96s39 -95 88 -95s87 43 87 95z" />
    <glyph glyph-name="Acircumflex" unicode="&#xc2;" horiz-adv-x="617" 
d="M17 0l249 680h90l244 -680h-90l-64 181h-277l-64 -181h-88zM285 505l-88 -246h222l-86 246l-24 82s-12 -49 -24 -82zM164 730l113 154h64l114 -154h-74l-72 79l-72 -79h-73z" />
    <glyph glyph-name="Ecircumflex" unicode="&#xca;" horiz-adv-x="587" 
d="M86 0v680h448v-79h-360v-204h306v-79h-306v-239h365v-79h-453zM165 730l113 154h64l114 -154h-74l-72 79l-72 -79h-73z" />
    <glyph glyph-name="Aacute" unicode="&#xc1;" horiz-adv-x="617" 
d="M17 0l249 680h90l244 -680h-90l-64 181h-277l-64 -181h-88zM285 505l-88 -246h222l-86 246l-24 82s-12 -49 -24 -82zM277 730l64 147h109l-97 -147h-76z" />
    <glyph glyph-name="Edieresis" unicode="&#xcb;" horiz-adv-x="587" 
d="M86 0v680h448v-79h-360v-204h306v-79h-306v-239h365v-79h-453zM362 730v95h93v-95h-93zM177 730v95h92v-95h-92z" />
    <glyph glyph-name="Egrave" unicode="&#xc8;" horiz-adv-x="587" 
d="M86 0v680h448v-79h-360v-204h306v-79h-306v-239h365v-79h-453zM272 730l-97 147h109l64 -147h-76z" />
    <glyph glyph-name="Iacute" unicode="&#xcd;" horiz-adv-x="266" 
d="M89 0v680h88v-680h-88zM101 730l64 147h109l-97 -147h-76z" />
    <glyph glyph-name="Icircumflex" unicode="&#xce;" horiz-adv-x="266" 
d="M89 0v680h88v-680h-88zM-12 730l113 154h64l114 -154h-74l-72 79l-72 -79h-73z" />
    <glyph glyph-name="Idieresis" unicode="&#xcf;" horiz-adv-x="266" 
d="M89 0v680h88v-680h-88zM179 730v95h93v-95h-93zM-6 730v95h92v-95h-92z" />
    <glyph glyph-name="Igrave" unicode="&#xcc;" horiz-adv-x="266" 
d="M89 0v680h88v-680h-88zM89 730l-97 147h109l64 -147h-76z" />
    <glyph glyph-name="Oacute" unicode="&#xd3;" horiz-adv-x="748" 
d="M374 -12c-181 0 -329 144 -329 353c0 208 148 352 329 352c184 0 329 -140 329 -352c0 -208 -148 -353 -329 -353zM374 65c136 0 238 108 238 276c0 171 -99 275 -238 275c-136 0 -238 -107 -238 -275c0 -169 102 -276 238 -276zM341 730l64 147h109l-97 -147h-76z" />
    <glyph glyph-name="Ocircumflex" unicode="&#xd4;" horiz-adv-x="748" 
d="M374 -12c-181 0 -329 144 -329 353c0 208 148 352 329 352c184 0 329 -140 329 -352c0 -208 -148 -353 -329 -353zM374 65c136 0 238 108 238 276c0 171 -99 275 -238 275c-136 0 -238 -107 -238 -275c0 -169 102 -276 238 -276zM228 730l113 154h64l114 -154h-74l-72 79
l-72 -79h-73z" />
    <glyph glyph-name="apple" horiz-adv-x="873" 
d="M490 0v681l11 -1c161 -15 326 -133 326 -340c0 -206 -165 -324 -326 -339zM374 0c-199 0 -328 158 -328 340s129 340 328 340h89v-122h-89c-124 0 -203 -99 -203 -218s79 -218 203 -218h89v-122h-89zM745 153c35 47 58 107 60 176h-129c-1 -48 -9 -91 -19 -131
c31 -11 60 -27 88 -45zM676 352h129c-2 69 -25 128 -60 176c-28 -18 -57 -34 -88 -46c10 -39 18 -83 19 -130zM634 205c12 37 20 79 21 124h-142v-104c44 -2 84 -8 121 -20zM513 352h142c-1 45 -9 86 -21 123c-37 -10 -77 -17 -121 -19v-104zM513 478c41 3 80 9 114 20
c-27 73 -70 127 -114 153v-173zM513 30c44 25 87 80 114 153c-34 11 -73 17 -114 19v-172zM552 30c67 14 131 50 178 105c-25 17 -52 31 -81 41c-24 -63 -59 -114 -97 -146zM649 505c29 10 56 24 81 41c-47 55 -111 91 -178 105c38 -32 73 -83 97 -146z" />
    <glyph glyph-name="Ograve" unicode="&#xd2;" horiz-adv-x="748" 
d="M374 -12c-181 0 -329 144 -329 353c0 208 148 352 329 352c184 0 329 -140 329 -352c0 -208 -148 -353 -329 -353zM374 65c136 0 238 108 238 276c0 171 -99 275 -238 275c-136 0 -238 -107 -238 -275c0 -169 102 -276 238 -276zM329 730l-97 147h109l64 -147h-76z" />
    <glyph glyph-name="Uacute" unicode="&#xda;" horiz-adv-x="667" 
d="M334 -12c-151 0 -261 96 -261 265v427h88v-427c0 -122 63 -188 173 -188c111 0 172 66 172 188v427h88v-427c0 -169 -110 -265 -260 -265zM302 730l64 147h109l-97 -147h-76z" />
    <glyph glyph-name="Ucircumflex" unicode="&#xdb;" horiz-adv-x="667" 
d="M334 -12c-151 0 -261 96 -261 265v427h88v-427c0 -122 63 -188 173 -188c111 0 172 66 172 188v427h88v-427c0 -169 -110 -265 -260 -265zM189 730l113 154h64l114 -154h-74l-72 79l-72 -79h-73z" />
    <glyph glyph-name="Ugrave" unicode="&#xd9;" horiz-adv-x="667" 
d="M334 -12c-151 0 -261 96 -261 265v427h88v-427c0 -122 63 -188 173 -188c111 0 172 66 172 188v427h88v-427c0 -169 -110 -265 -260 -265zM303 730l-97 147h109l64 -147h-76z" />
    <glyph glyph-name="dotlessi" unicode="&#x131;" horiz-adv-x="240" 
d="M79 0v515h82v-515h-82z" />
    <glyph glyph-name="circumflex" unicode="&#x2c6;" horiz-adv-x="500" 
d="M105 593l113 154h64l114 -154h-74l-72 79l-72 -79h-73z" />
    <glyph glyph-name="tilde" unicode="&#x2dc;" horiz-adv-x="500" 
d="M87 590c7 67 46 120 104 120c57 0 91 -47 126 -47c24 0 37 20 40 47h56c-7 -67 -46 -120 -104 -120c-57 0 -91 47 -126 47c-23 0 -37 -20 -40 -47h-56z" />
    <glyph glyph-name="macron" unicode="&#xaf;" horiz-adv-x="500" 
d="M119 622v70h262v-70h-262z" />
    <glyph glyph-name="macron" unicode="&#x2c9;" horiz-adv-x="500" 
d="M119 622v70h262v-70h-262z" />
    <glyph glyph-name="breve" unicode="&#x2d8;" horiz-adv-x="500" 
d="M249 593c-85 0 -139 60 -146 141h61c9 -36 33 -69 86 -69c52 0 77 33 85 69h61c-7 -81 -61 -141 -147 -141z" />
    <glyph glyph-name="dotaccent" unicode="&#x2d9;" horiz-adv-x="500" 
d="M204 593v95h92v-95h-92z" />
    <glyph glyph-name="ring" unicode="&#x2da;" horiz-adv-x="500" 
d="M249 570c-63 0 -113 49 -113 111c0 64 50 112 113 112c62 0 113 -48 113 -112c0 -62 -51 -111 -113 -111zM249 616c35 0 61 28 61 65s-26 66 -61 66s-61 -29 -61 -66s26 -65 61 -65z" />
    <glyph glyph-name="cedilla" unicode="&#xb8;" horiz-adv-x="500" 
d="M297 0l-36 -55c4 1 9 1 14 1c49 0 92 -34 92 -89c0 -62 -52 -93 -109 -93s-107 31 -115 79h63c7 -16 23 -28 48 -28c27 0 46 17 46 41c0 25 -20 43 -45 43c-16 0 -29 -8 -38 -16l-35 28l51 89h64z" />
    <glyph glyph-name="hungarumlaut" unicode="&#x2dd;" horiz-adv-x="500" 
d="M279 593l55 147h99l-78 -147h-76zM116 593l55 147h99l-78 -147h-76z" />
    <glyph glyph-name="ogonek" unicode="&#x2db;" horiz-adv-x="500" 
d="M242 -236c-60 0 -108 35 -108 93c0 66 63 116 102 143h60c-63 -61 -95 -99 -95 -142c0 -25 15 -43 42 -43c25 0 39 13 45 28h63c-9 -45 -52 -79 -109 -79z" />
    <glyph glyph-name="caron" unicode="&#x2c7;" horiz-adv-x="500" 
d="M218 590l-114 154h74l72 -79l72 79h73l-113 -154h-64z" />
    <glyph glyph-name="commaaccent" unicode="&#xf004;" horiz-adv-x="500" 
d="M198 -285v46c32 3 53 22 53 61v15h-52v105h103v-120c0 -72 -49 -103 -104 -107z" />
    <glyph glyph-name="commaaccent" unicode="&#xf6c3;" horiz-adv-x="500" 
d="M198 -285v46c32 3 53 22 53 61v15h-52v105h103v-120c0 -72 -49 -103 -104 -107z" />
    <glyph glyph-name="infinity" unicode="&#x221e;" horiz-adv-x="231" 
d="M64 282v109h103v-109h-103z" />
    <glyph glyph-name="plusminus" unicode="&#xb1;" horiz-adv-x="231" 
d="M64 282v109h103v-109h-103z" />
    <glyph glyph-name="lessequal" unicode="&#x2264;" horiz-adv-x="231" 
d="M64 282v109h103v-109h-103z" />
    <glyph glyph-name="greaterequal" unicode="&#x2265;" horiz-adv-x="231" 
d="M64 282v109h103v-109h-103z" />
    <glyph glyph-name="logicalnot" unicode="&#xac;" horiz-adv-x="231" 
d="M64 282v109h103v-109h-103z" />
    <glyph glyph-name="radical" unicode="&#x221a;" horiz-adv-x="231" 
d="M64 282v109h103v-109h-103z" />
    <glyph glyph-name="approxequal" unicode="&#x2248;" horiz-adv-x="231" 
d="M64 282v109h103v-109h-103z" />
    <glyph glyph-name="mu" unicode="&#xb5;" horiz-adv-x="231" 
d="M64 282v109h103v-109h-103z" />
    <glyph glyph-name="mu" unicode="&#x3bc;" horiz-adv-x="231" 
d="M64 282v109h103v-109h-103z" />
    <glyph glyph-name="partialdiff" unicode="&#x2202;" horiz-adv-x="231" 
d="M64 282v109h103v-109h-103z" />
    <glyph glyph-name="summation" unicode="&#x2211;" horiz-adv-x="231" 
d="M64 282v109h103v-109h-103z" />
    <glyph glyph-name="product" unicode="&#x220f;" horiz-adv-x="231" 
d="M64 282v109h103v-109h-103z" />
    <glyph glyph-name="pi" unicode="&#x3c0;" horiz-adv-x="231" 
d="M64 282v109h103v-109h-103z" />
    <glyph glyph-name="integral" unicode="&#x222b;" horiz-adv-x="231" 
d="M64 282v109h103v-109h-103z" />
    <glyph glyph-name="notequal" unicode="&#x2260;" horiz-adv-x="231" 
d="M64 282v109h103v-109h-103z" />
    <glyph glyph-name="A.sc" horiz-adv-x="566" 
d="M29 0l209 578h92l205 -578h-86l-50 144h-235l-50 -144h-85zM263 423l-72 -204h182l-70 204c-9 28 -19 70 -20 76c-1 -5 -10 -48 -20 -76z" />
    <glyph glyph-name="B.sc" horiz-adv-x="574" 
d="M85 0v578h248c103 0 168 -61 168 -156c0 -45 -22 -88 -71 -112c63 -25 94 -79 94 -141c0 -96 -72 -169 -181 -169h-258zM168 76h174c55 0 98 34 98 94c0 65 -40 95 -101 95h-171v-189zM168 341h166c41 0 83 22 83 81c0 55 -32 81 -84 81h-165v-162z" />
    <glyph glyph-name="C.sc" horiz-adv-x="624" 
d="M331 -10c-152 0 -279 125 -279 300s125 300 278 300c133 0 220 -74 252 -190h-84c-25 68 -79 115 -168 115c-109 0 -192 -91 -192 -225c0 -135 84 -226 193 -226c81 0 145 49 168 120h86c-35 -119 -124 -194 -254 -194z" />
    <glyph glyph-name="D.sc" horiz-adv-x="605" 
d="M85 0v578h197c166 0 271 -110 271 -289c0 -178 -106 -289 -271 -289h-197zM169 75h113c119 0 185 81 185 214c0 141 -68 214 -185 214h-113v-428z" />
    <glyph glyph-name="E.sc" 
d="M85 0v578h403v-76h-319v-160h273v-76h-273v-190h324v-76h-408z" />
    <glyph glyph-name="F.sc" horiz-adv-x="515" 
d="M85 0v578h385v-76h-301v-164h262v-76h-262v-262h-84z" />
    <glyph glyph-name="G.sc" horiz-adv-x="658" 
d="M330 -10c-154 0 -278 124 -278 300c0 175 125 300 278 300c115 0 219 -63 250 -187h-87c-24 75 -88 112 -163 112c-112 0 -192 -91 -192 -225c0 -135 82 -226 193 -226c105 0 177 74 185 162h-159v76h238v-302h-78v88c-35 -54 -95 -98 -187 -98z" />
    <glyph glyph-name="H.sc" horiz-adv-x="621" 
d="M85 0v578h84v-239h283v239h84v-578h-84v263h-283v-263h-84z" />
    <glyph glyph-name="I.sc" horiz-adv-x="259" 
d="M87 0v578h84v-578h-84z" />
    <glyph glyph-name="J.sc" horiz-adv-x="484" 
d="M223 -10c-112 0 -184 78 -184 192v11h83v-12c0 -61 28 -116 101 -116s101 49 101 124v389h85v-388c0 -120 -65 -200 -186 -200z" />
    <glyph glyph-name="K.sc" horiz-adv-x="569" 
d="M443 0l-192 285l-87 -90v-195h-79v578h79v-282l268 282h100l-225 -234l233 -344h-97z" />
    <glyph glyph-name="L.sc" horiz-adv-x="490" 
d="M85 0v578h84v-502h280v-76h-364z" />
    <glyph glyph-name="M.sc" horiz-adv-x="722" 
d="M85 0v578h124l153 -466l153 466h123v-578h-82v460l-153 -460h-84l-152 460v-460h-82z" />
    <glyph glyph-name="N.sc" horiz-adv-x="617" 
d="M85 0v578h96l271 -448v448h80v-578h-92l-275 455v-455h-80z" />
    <glyph glyph-name="O.sc" horiz-adv-x="665" 
d="M333 -10c-156 0 -281 125 -281 300s125 300 281 300c157 0 280 -123 280 -300c0 -174 -124 -300 -280 -300zM333 65c110 0 194 91 194 225c0 136 -83 224 -194 224s-194 -91 -194 -224c0 -135 83 -225 194 -225z" />
    <glyph glyph-name="P.sc" horiz-adv-x="550" 
d="M85 0v578h236c117 0 186 -73 186 -178c0 -103 -70 -177 -185 -177h-153v-223h-84zM169 298h152c62 0 102 31 102 102s-40 102 -102 102h-152v-204z" />
    <glyph glyph-name="Q.sc" horiz-adv-x="665" 
d="M517 0l-33 35c-44 -29 -95 -45 -151 -45c-156 0 -281 125 -281 300s125 300 281 300c157 0 280 -123 280 -300c0 -83 -28 -154 -74 -207l79 -83h-101zM333 65c36 0 69 9 97 27l-102 110h101l55 -59c27 38 43 88 43 147c0 136 -83 224 -194 224s-194 -91 -194 -224
c0 -135 83 -225 194 -225z" />
    <glyph glyph-name="R.sc" horiz-adv-x="587" 
d="M85 0v578h247c116 0 187 -69 187 -172c0 -59 -27 -104 -87 -131c48 -18 68 -54 73 -118l5 -72c3 -37 12 -68 19 -85h-82c-7 16 -14 39 -17 77l-4 74c-4 58 -28 84 -89 84h-170v-235h-82zM167 310h171c53 0 99 30 99 95c0 59 -31 97 -105 97h-165v-192z" />
    <glyph glyph-name="S.sc" horiz-adv-x="547" 
d="M278 -10c-128 0 -226 78 -229 191h83c3 -73 64 -117 146 -117c85 0 135 36 135 94c0 50 -27 79 -145 103c-125 27 -199 65 -199 171c0 99 80 158 197 158c134 0 206 -74 213 -172h-82c-4 55 -46 97 -129 97c-75 0 -118 -30 -118 -82c0 -47 28 -70 137 -94
c132 -28 207 -64 207 -180c0 -109 -89 -169 -216 -169z" />
    <glyph glyph-name="T.sc" horiz-adv-x="495" 
d="M205 0v502h-169v76h422v-76h-169v-502h-84z" />
    <glyph glyph-name="U.sc" horiz-adv-x="594" 
d="M297 -10c-132 0 -222 85 -222 229v359h84v-360c0 -100 50 -153 138 -153c90 0 138 53 138 153v360h84v-359c0 -144 -90 -229 -222 -229z" />
    <glyph glyph-name="V.sc" horiz-adv-x="544" 
d="M228 0l-202 578h89l131 -393c13 -39 26 -101 26 -101s13 62 26 101l131 393h86l-200 -578h-87z" />
    <glyph glyph-name="W.sc" horiz-adv-x="776" 
d="M183 0l-157 578h87l93 -358c9 -34 23 -88 23 -88s14 52 23 86l95 360h87l96 -360c9 -34 23 -86 23 -86s14 54 23 88l92 358h81l-156 -578h-84l-100 384c-9 33 -19 85 -20 93c-1 -6 -12 -59 -20 -93l-101 -384h-85z" />
    <glyph glyph-name="X.sc" horiz-adv-x="525" 
d="M25 0l184 297l-175 281h93l136 -220l136 220h92l-177 -281l186 -297h-94l-145 239l-144 -239h-92z" />
    <glyph glyph-name="Y.sc" horiz-adv-x="516" 
d="M216 0v234l-193 344h91l144 -263l145 263h89l-193 -344v-234h-83z" />
    <glyph glyph-name="Z.sc" horiz-adv-x="508" 
d="M42 0v69l320 433h-309v76h409v-73l-317 -428h319v-77h-422z" />
    <glyph glyph-name="AE.sc" horiz-adv-x="865" 
d="M22 0l288 578h497v-76h-305v-160h259v-76h-259v-190h310v-76h-394v153h-232l-76 -153h-88zM360 502l-137 -274h195v274h-58z" />
    <glyph glyph-name="Oslash.sc" horiz-adv-x="665" 
d="M81 -18l-48 47l74 77c-35 50 -55 113 -55 184c0 175 125 300 281 300c68 0 130 -24 178 -65l67 70l48 -47l-70 -72c36 -50 57 -113 57 -186c0 -174 -124 -300 -280 -300c-69 0 -132 24 -180 66zM333 65c110 0 194 91 194 225c0 49 -11 91 -29 125l-292 -303
c34 -31 78 -47 127 -47zM139 290c0 -48 9 -90 26 -123l291 302c-33 29 -75 45 -123 45c-111 0 -194 -91 -194 -224z" />
    <glyph glyph-name="OE.sc" horiz-adv-x="988" 
d="M333 -10c-156 0 -281 125 -281 300s125 300 281 300c82 0 148 -34 194 -97v85h403v-76h-319v-160h273v-76h-273v-190h324v-76h-408v88c-46 -63 -113 -98 -194 -98zM333 65c110 0 194 91 194 225c0 136 -83 224 -194 224s-194 -91 -194 -224c0 -135 83 -225 194 -225z" />
    <glyph glyph-name="Eth.sc" horiz-adv-x="605" 
d="M28 265v75h57v238h197c166 0 271 -110 271 -289c0 -178 -106 -289 -271 -289h-197v265h-57zM169 75h113c119 0 185 81 185 214c0 141 -68 214 -185 214h-113v-163h144v-75h-144v-190z" />
    <glyph glyph-name="Lslash.sc" horiz-adv-x="490" 
d="M16 163v72l69 34v309h84v-266l157 79v-72l-157 -79v-164h280v-76h-364v197z" />
    <glyph glyph-name="Thorn.sc" horiz-adv-x="550" 
d="M85 0v578h84v-101h152c117 0 186 -73 186 -178c0 -103 -70 -177 -185 -177h-153v-122h-84zM169 197h152c62 0 102 31 102 102s-40 102 -102 102h-152v-204z" />
    <glyph glyph-name="zero.sc" horiz-adv-x="559" 
d="M280 -10c-120 0 -225 94 -225 300c0 205 105 300 225 300c122 0 224 -95 224 -300c0 -206 -102 -300 -224 -300zM280 62c99 0 139 99 139 228c0 127 -40 227 -139 227c-98 0 -140 -100 -140 -227c0 -129 42 -228 140 -228z" />
    <glyph glyph-name="one.sc" horiz-adv-x="343" 
d="M144 0v442h-96v64c59 1 101 21 106 72h74v-578h-84z" />
    <glyph glyph-name="two.sc" horiz-adv-x="502" 
d="M51 0v39c0 129 86 186 177 238c110 63 126 91 126 143c0 44 -19 96 -99 96c-75 0 -112 -59 -114 -130h-80c1 108 68 204 194 204c120 0 185 -80 185 -170c0 -107 -70 -148 -176 -208c-72 -41 -124 -82 -129 -135h301v-77h-385z" />
    <glyph glyph-name="three.sc" horiz-adv-x="508" 
d="M254 -10c-133 0 -200 80 -205 180h83c5 -63 40 -105 122 -105c74 0 116 45 116 105c0 56 -25 99 -122 99h-29v73h7c94 0 127 33 127 86c0 51 -30 86 -98 86c-75 0 -103 -48 -103 -103h-82c0 103 73 178 185 178c118 0 182 -72 182 -158c0 -54 -26 -96 -83 -119
c71 -21 102 -74 102 -142c0 -97 -76 -180 -202 -180z" />
    <glyph glyph-name="four.sc" horiz-adv-x="498" 
d="M314 0v131h-275v69l266 378h93v-372h69v-75h-69v-131h-84zM126 206h188v262z" />
    <glyph glyph-name="five.sc" horiz-adv-x="497" 
d="M242 -10c-118 0 -186 78 -193 163h83c6 -46 43 -87 110 -87c72 0 115 47 115 122c0 74 -44 122 -110 122c-42 0 -83 -24 -108 -62l-70 25l36 305h306v-76h-242l-21 -170c23 34 69 52 115 52c100 0 179 -83 179 -197c0 -120 -88 -197 -200 -197z" />
    <glyph glyph-name="six.sc" horiz-adv-x="526" 
d="M271 -11c-123 0 -216 94 -216 272c0 209 87 329 225 329c95 0 165 -54 181 -148h-83c-11 33 -34 72 -98 72c-81 0 -131 -85 -141 -218c24 48 79 85 139 85c109 0 195 -77 195 -197c0 -116 -85 -195 -202 -195zM273 63c68 0 117 47 117 121c0 72 -44 123 -117 123
c-67 0 -123 -47 -123 -120s51 -124 123 -124z" />
    <glyph glyph-name="seven.sc" horiz-adv-x="472" 
d="M133 0c6 195 81 382 205 501h-301v77h393v-72c-130 -106 -206 -295 -212 -506h-85z" />
    <glyph glyph-name="eight.sc" horiz-adv-x="525" 
d="M263 -10c-128 0 -214 80 -214 177c0 64 33 117 102 148c-55 29 -75 71 -75 121c0 86 75 154 187 154c113 0 187 -68 187 -154c0 -50 -20 -92 -75 -121c69 -31 101 -84 101 -148c0 -97 -88 -177 -213 -177zM263 65c69 0 132 33 132 105c0 65 -51 106 -132 106
s-133 -41 -133 -106c0 -72 63 -105 133 -105zM263 349c58 0 106 29 106 84c0 51 -41 82 -106 82c-66 0 -106 -31 -106 -82c0 -55 48 -84 106 -84z" />
    <glyph glyph-name="nine.sc" horiz-adv-x="526" 
d="M246 -11c-95 0 -166 50 -182 139h85c11 -30 33 -63 97 -63c86 0 139 70 141 218c-24 -48 -79 -85 -139 -85c-109 0 -195 77 -195 197c0 116 85 195 202 195c123 0 216 -94 216 -272c0 -209 -69 -329 -225 -329zM253 272c67 0 123 47 123 120s-51 124 -123 124
c-68 0 -117 -47 -117 -121c0 -72 44 -123 117 -123z" />
    <glyph glyph-name="exclam.sc" horiz-adv-x="268" 
d="M101 183l-12 395h90l-12 -395h-66zM85 0v105h97v-105h-97z" />
    <glyph glyph-name="numbersign.sc" horiz-adv-x="508" 
d="M50 384l10 71h94l18 123h69l-18 -123h95l18 123h69l-18 -123h98l-10 -71h-98l-15 -108h96l-10 -71h-96l-17 -120h-69l17 120h-95l-17 -120h-69l17 120h-96l10 71h96l15 108h-94zM213 384l-15 -108h95l15 108h-95z" />
    <glyph glyph-name="dollar.sc" horiz-adv-x="484" 
d="M223 -70v73c-107 9 -187 79 -190 181h80c3 -60 46 -103 110 -111v185c-105 26 -171 63 -171 163c0 90 69 145 171 149v69h47v-71c102 -13 154 -80 160 -163h-79c-4 43 -30 79 -81 90v-165c106 -25 174 -60 174 -168c0 -96 -69 -152 -174 -159v-73h-47zM365 161
c0 41 -21 63 -95 85v-173c60 7 95 37 95 88zM132 422c0 -40 19 -61 91 -80v157c-59 -3 -91 -30 -91 -77z" />
    <glyph glyph-name="percent.sc" horiz-adv-x="710" 
d="M180 304c-76 0 -139 63 -139 141s63 142 139 142s139 -64 139 -142s-63 -141 -139 -141zM530 -8c-76 0 -139 63 -139 141s63 142 139 142s139 -64 139 -142s-63 -141 -139 -141zM158 0l323 578h71l-323 -578h-71zM180 368c40 0 72 33 72 77s-32 79 -72 79
s-72 -35 -72 -79s32 -77 72 -77zM530 56c40 0 72 33 72 77s-32 79 -72 79s-72 -35 -72 -79s32 -77 72 -77z" />
    <glyph glyph-name="ampersand.sc" horiz-adv-x="561" 
d="M253 -10c-110 0 -204 69 -204 176c0 75 50 130 125 172l-9 11c-30 36 -45 75 -45 112c0 74 61 129 138 129c76 0 133 -50 133 -125c0 -57 -31 -103 -108 -143l124 -153c8 22 12 48 12 77v54h74v-54c0 -52 -12 -99 -35 -139l87 -107h-96l-39 47c-40 -36 -93 -57 -157 -57z
M254 62c44 0 83 14 111 40l-151 186c-69 -39 -79 -80 -79 -121c0 -63 46 -105 119 -105zM198 462c0 -22 9 -43 26 -66l20 -25c59 30 70 64 70 93c0 34 -22 58 -57 58c-34 0 -59 -24 -59 -60z" />
    <glyph glyph-name="plus.sc" horiz-adv-x="498" 
d="M211 77v168h-165v72h165v168h76v-168h165v-72h-165v-168h-76z" />
    <glyph glyph-name="less.sc" horiz-adv-x="445" 
d="M404 34l-368 171v91l368 170v-84l-294 -132v-1l294 -131v-84z" />
    <glyph glyph-name="equal.sc" horiz-adv-x="481" 
d="M46 326v72h389v-72h-389zM46 142v72h389v-72h-389z" />
    <glyph glyph-name="greater.sc" horiz-adv-x="445" 
d="M41 466l368 -171v-91l-368 -170v84l294 132v1l-294 131v84z" />
    <glyph glyph-name="minus.sc" horiz-adv-x="468" 
d="M46 245v72h376v-72h-376z" />
    <glyph glyph-name="multiply.sc" horiz-adv-x="498" 
d="M58 419l49 49l142 -142l142 142l49 -49l-142 -142l142 -142l-49 -49l-142 142l-142 -142l-49 49l142 142z" />
    <glyph glyph-name="question.sc" horiz-adv-x="469" 
d="M179 183v5c0 87 39 114 90 153c44 33 62 56 62 97c0 51 -36 80 -98 80c-69 0 -106 -44 -107 -100h-79c1 93 69 172 186 172c109 0 181 -60 181 -150c0 -78 -46 -117 -93 -151c-41 -30 -70 -48 -70 -101v-5h-72zM165 0v105h97v-105h-97z" />
    <glyph glyph-name="slash.sc" horiz-adv-x="333" 
d="M26 -51l203 680h79l-202 -680h-80z" />
    <glyph glyph-name="backslash.sc" horiz-adv-x="333" 
d="M228 -51l-203 680h80l202 -680h-79z" />
    <glyph glyph-name="parenleft.sc" horiz-adv-x="304" 
d="M198 -68c-79 85 -133 210 -133 348s54 254 133 341h69c-71 -103 -116 -207 -116 -341c0 -133 45 -246 116 -348h-69z" />
    <glyph glyph-name="parenright.sc" horiz-adv-x="304" 
d="M38 -68c70 102 115 208 115 340c0 134 -45 247 -115 349h68c80 -86 134 -211 134 -349c0 -136 -54 -254 -134 -340h-68z" />
    <glyph glyph-name="bracketleft.sc" horiz-adv-x="309" 
d="M83 -60v672h184v-69h-104v-533h104v-70h-184z" />
    <glyph glyph-name="bracketright.sc" horiz-adv-x="309" 
d="M42 -60v70h105v533h-105v69h185v-672h-185z" />
    <glyph glyph-name="braceleft.sc" horiz-adv-x="326" 
d="M289 -60c-87 -6 -162 31 -162 138v92c0 60 -32 76 -85 76v65c53 0 85 17 85 78v85c0 107 75 144 162 137v-68c-56 3 -82 -22 -82 -70v-86c0 -58 -22 -91 -72 -107c50 -17 72 -51 72 -110v-91c0 -48 25 -73 82 -70v-69z" />
    <glyph glyph-name="braceright.sc" horiz-adv-x="326" 
d="M37 -60v69c56 -3 81 22 81 70v91c0 58 23 92 73 108c-50 17 -73 50 -73 109v86c0 48 -24 73 -81 70v68c87 7 161 -30 161 -137v-85c0 -61 33 -78 85 -78v-65c-52 0 -85 -16 -85 -76v-92c0 -107 -74 -144 -161 -138z" />
    <glyph glyph-name="degree.sc" horiz-adv-x="373" 
d="M186 289c-80 0 -149 68 -149 151c0 82 69 150 149 150c81 0 150 -68 150 -150c0 -83 -69 -151 -150 -151zM186 348c50 0 85 40 85 92c0 51 -35 92 -85 92c-49 0 -85 -41 -85 -92c0 -52 36 -92 85 -92z" />
    <glyph glyph-name="cent.sc" horiz-adv-x="463" 
d="M113 -94l37 117c-68 35 -114 109 -114 195c0 122 92 221 208 221c12 0 25 -1 36 -3l30 95h52l-34 -107c52 -21 90 -64 106 -122h-80c-10 24 -26 42 -48 53l-89 -282c9 -2 19 -3 29 -3c54 0 92 29 108 70h80c-20 -82 -92 -140 -190 -140c-17 0 -33 2 -48 6l-31 -100h-52z
M117 218c0 -57 21 -101 55 -125l87 275c-4 1 -9 1 -13 1c-73 0 -129 -58 -129 -151z" />
    <glyph glyph-name="sterling.sc" horiz-adv-x="462" 
d="M38 251v62h50c-15 29 -28 63 -28 108c0 98 77 169 182 169c107 0 178 -72 181 -168h-78c-3 55 -37 95 -103 95c-64 0 -99 -39 -99 -96c0 -38 17 -71 33 -108h140v-62h-118c3 -16 6 -33 6 -51c0 -41 -18 -90 -63 -129c26 13 46 17 67 17c54 0 84 -24 129 -24
c22 0 42 8 62 24l39 -60c-31 -28 -65 -38 -97 -38c-71 0 -103 35 -159 35c-29 0 -58 -9 -93 -35l-42 64c54 39 82 83 82 145c0 19 -5 36 -11 52h-80z" />
    <glyph glyph-name="section.sc" horiz-adv-x="467" 
d="M242 -71c-92 0 -160 56 -162 132h80c6 -35 29 -60 82 -60c44 0 69 19 69 58c0 35 -17 55 -96 75c-102 26 -173 54 -173 146c0 41 25 75 64 96c-18 20 -28 47 -28 82c0 77 60 132 156 132c92 0 158 -52 159 -134h-79c-4 33 -28 62 -80 62c-46 0 -76 -20 -76 -59
c0 -35 18 -54 97 -72c103 -25 173 -54 173 -145c0 -44 -26 -78 -66 -99c18 -21 29 -48 29 -83c0 -76 -55 -131 -149 -131zM237 312c-29 7 -55 15 -77 25c-27 -13 -40 -29 -40 -51c0 -35 20 -55 113 -77c28 -7 54 -15 76 -26c26 12 40 29 40 52c0 35 -19 54 -112 77z" />
    <glyph glyph-name="germandbls.sc" horiz-adv-x="1094" 
d="M825 -10c-128 0 -226 78 -229 191h83c3 -73 64 -117 146 -117c85 0 135 36 135 94c0 50 -27 79 -145 103c-125 27 -199 65 -199 171c0 99 80 158 197 158c134 0 206 -74 213 -172h-82c-4 55 -46 97 -129 97c-75 0 -118 -30 -118 -82c0 -47 28 -70 137 -94
c132 -28 207 -64 207 -180c0 -109 -89 -169 -216 -169zM278 -10c-128 0 -226 78 -229 191h83c3 -73 64 -117 146 -117c85 0 135 36 135 94c0 50 -27 79 -145 103c-125 27 -199 65 -199 171c0 99 80 158 197 158c134 0 206 -74 213 -172h-82c-4 55 -46 97 -129 97
c-75 0 -118 -30 -118 -82c0 -47 28 -70 137 -94c132 -28 207 -64 207 -180c0 -109 -89 -169 -216 -169z" />
    <glyph glyph-name="yen.sc" horiz-adv-x="500" 
d="M53 235v54h128l-157 289h91l136 -260l137 260h88l-158 -289h128v-54h-155v-69h155v-53h-155v-113h-83v113h-155v53h155v69h-155z" />
    <glyph glyph-name="ordfeminine.sc" horiz-adv-x="434" 
d="M176 261c-75 0 -142 37 -142 115c0 87 70 114 186 134c60 10 87 20 87 57c0 40 -29 61 -86 61c-50 0 -83 -25 -88 -65h-79c4 77 70 130 168 130c107 0 162 -48 162 -126v-213c0 -33 10 -67 16 -83h-76c-5 12 -13 29 -15 54c-25 -37 -68 -64 -133 -64zM177 324
c70 0 131 35 131 101v60c-13 -11 -33 -22 -72 -30c-93 -20 -127 -32 -127 -76c0 -36 26 -55 68 -55z" />
    <glyph glyph-name="ordmasculine.sc" horiz-adv-x="464" 
d="M232 261c-110 0 -200 91 -200 214c0 125 90 218 200 218c112 0 200 -93 200 -218c0 -123 -88 -214 -200 -214zM232 327c70 0 122 53 122 148c0 97 -52 152 -122 152c-69 0 -122 -55 -122 -152c0 -95 53 -148 122 -148z" />
    <glyph glyph-name="questiondown.sc" horiz-adv-x="469" 
d="M236 -12c-109 0 -181 60 -181 150c0 78 46 117 93 151c41 30 70 48 70 101v5h72v-5c0 -87 -39 -114 -90 -153c-44 -33 -62 -56 -62 -97c0 -51 36 -80 98 -80c69 0 106 44 107 100h79c-1 -93 -69 -172 -186 -172zM207 473v105h97v-105h-97z" />
    <glyph glyph-name="exclamdown.sc" horiz-adv-x="268" 
d="M89 0l12 395h66l12 -395h-90zM86 473v105h97v-105h-97z" />
    <glyph glyph-name="florin.sc" horiz-adv-x="378" 
d="M55 269v66h76l20 108c18 96 76 147 163 147c16 0 35 -3 51 -6l-14 -71c-13 4 -27 5 -38 5c-45 0 -67 -24 -78 -85l-18 -98h94v-66h-107l-51 -275c-17 -88 -70 -131 -144 -131c-15 0 -30 2 -47 5l12 70c11 -2 20 -3 29 -3c38 0 57 21 66 69l49 265h-63z" />
    <glyph glyph-name="Euro.sc" horiz-adv-x="564" 
d="M37 313v53h67c24 148 119 224 225 224c89 0 167 -51 193 -155h-83c-16 55 -58 82 -110 82c-71 0 -122 -54 -138 -151h245l-19 -53h-232v-21c0 -15 0 -29 1 -42h209l-19 -53h-181c19 -87 68 -134 134 -134c58 0 94 28 110 80h86c-26 -102 -101 -153 -196 -153
c-102 0 -192 70 -221 207h-71v53h64c-1 13 -2 27 -2 42v21h-62z" />
    <glyph glyph-name="fi.sc" horiz-adv-x="774" 
d="M85 0v578h385v-76h-301v-164h262v-76h-262v-262h-84zM602 0v578h84v-578h-84z" />
    <glyph glyph-name="fl.sc" horiz-adv-x="1005" 
d="M85 0v578h385v-76h-301v-164h262v-76h-262v-262h-84zM600 0v578h84v-502h280v-76h-364z" />
    <glyph glyph-name="ff.sc" horiz-adv-x="1030" 
d="M600 0v578h385v-76h-301v-164h262v-76h-262v-262h-84zM85 0v578h385v-76h-301v-164h262v-76h-262v-262h-84z" />
    <glyph glyph-name="ffi.sc" horiz-adv-x="1289" 
d="M600 0v578h385v-76h-301v-164h262v-76h-262v-262h-84zM85 0v578h385v-76h-301v-164h262v-76h-262v-262h-84zM1117 0v578h84v-578h-84z" />
    <glyph glyph-name="ffl.sc" horiz-adv-x="1520" 
d="M600 0v578h385v-76h-301v-164h262v-76h-262v-262h-84zM85 0v578h385v-76h-301v-164h262v-76h-262v-262h-84zM1115 0v578h84v-502h280v-76h-364z" />
    <glyph glyph-name="perthousand.sc" horiz-adv-x="1042" 
d="M180 304c-76 0 -139 63 -139 141s63 142 139 142s139 -64 139 -142s-63 -141 -139 -141zM530 -8c-76 0 -139 63 -139 141s63 142 139 142s139 -64 139 -142s-63 -141 -139 -141zM862 -8c-76 0 -139 63 -139 141s63 142 139 142s139 -64 139 -142s-63 -141 -139 -141z
M158 0l323 578h71l-323 -578h-71zM862 56c40 0 72 33 72 77s-32 79 -72 79s-72 -35 -72 -79s32 -77 72 -77zM180 368c40 0 72 33 72 77s-32 79 -72 79s-72 -35 -72 -79s32 -77 72 -77zM530 56c40 0 72 33 72 77s-32 79 -72 79s-72 -35 -72 -79s32 -77 72 -77z" />
    <glyph glyph-name="zero.numerator" horiz-adv-x="371" 
d="M186 264c-79 0 -156 62 -156 210c0 150 77 210 156 210s154 -60 154 -210c0 -148 -75 -210 -154 -210zM186 326c67 0 86 81 86 148c0 68 -19 149 -86 149s-87 -81 -87 -149c0 -67 20 -148 87 -148z" />
    <glyph glyph-name="one.numerator" horiz-adv-x="242" 
d="M95 272v301h-65v46c40 1 73 18 76 61h57v-408h-68z" />
    <glyph glyph-name="two.numerator" horiz-adv-x="345" 
d="M29 272v31c0 91 60 133 124 168c77 42 87 62 87 94c0 29 -16 58 -65 58c-47 0 -72 -34 -73 -80h-67c1 75 48 141 140 141c89 0 134 -58 134 -119c0 -77 -51 -107 -124 -147c-48 -27 -81 -51 -83 -83h204v-63h-277z" />
    <glyph glyph-name="three.numerator" horiz-adv-x="344" 
d="M170 265c-96 0 -143 60 -146 132h67c3 -42 27 -70 79 -70c48 0 77 28 77 65s-19 63 -78 63h-23v59h12c59 0 76 22 76 54c0 34 -22 55 -62 55c-49 0 -69 -33 -70 -67h-66c0 72 52 128 135 128c86 0 130 -53 130 -110c0 -38 -19 -68 -55 -84c48 -16 69 -53 69 -99
c0 -65 -52 -126 -145 -126z" />
    <glyph glyph-name="four.numerator" horiz-adv-x="346" 
d="M210 272v88h-187v58l175 262h77v-260h43v-60h-43v-88h-65zM92 420h118v175z" />
    <glyph glyph-name="five.numerator" horiz-adv-x="338" 
d="M168 265c-84 0 -137 53 -141 117h67c5 -31 32 -54 74 -54c40 0 73 28 73 77c0 46 -30 79 -72 79c-29 0 -54 -15 -70 -41l-59 19l25 218h220v-62h-167l-13 -101c19 15 44 26 71 26c75 0 133 -58 133 -139c0 -82 -63 -139 -141 -139z" />
    <glyph glyph-name="six.numerator" horiz-adv-x="350" 
d="M181 265c-79 0 -151 58 -151 191c0 146 62 230 156 230c68 0 118 -41 129 -110h-67c-6 24 -23 49 -62 49c-51 0 -81 -48 -88 -124c20 24 53 39 86 39c82 0 139 -57 139 -137c0 -78 -61 -138 -142 -138zM182 325c45 0 74 34 74 77s-28 79 -76 79c-45 0 -74 -35 -74 -78
c0 -45 31 -78 76 -78z" />
    <glyph glyph-name="seven.numerator" horiz-adv-x="317" 
d="M83 272c2 137 46 267 129 346h-192v62h275v-58c-94 -78 -142 -205 -144 -350h-68z" />
    <glyph glyph-name="eight.numerator" horiz-adv-x="349" 
d="M174 265c-85 0 -145 54 -145 125c0 47 26 82 66 104c-30 19 -48 48 -48 85c0 61 54 108 127 108c74 0 126 -47 126 -108c0 -37 -16 -66 -47 -85c42 -21 67 -57 67 -104c0 -71 -60 -125 -146 -125zM174 324c41 0 79 22 79 68c0 44 -34 69 -79 69c-44 0 -78 -25 -78 -69
c0 -46 38 -68 78 -68zM174 520c32 0 61 19 61 55c0 35 -27 53 -61 53s-61 -18 -61 -53c0 -36 29 -55 61 -55z" />
    <glyph glyph-name="nine.numerator" horiz-adv-x="351" 
d="M175 265c-65 0 -115 36 -128 98h71c6 -20 23 -37 58 -37c54 0 82 41 87 126c-17 -26 -53 -44 -89 -44c-79 0 -137 59 -137 140c0 79 61 138 142 138s149 -58 149 -191c1 -151 -51 -230 -153 -230zM179 467c45 0 75 35 75 80s-30 80 -75 80c-46 0 -75 -35 -75 -79
c0 -45 28 -81 75 -81z" />
    <glyph glyph-name="zero.denominator" horiz-adv-x="371" 
d="M186 -8c-79 0 -156 62 -156 210c0 150 77 210 156 210s154 -60 154 -210c0 -148 -75 -210 -154 -210zM186 54c67 0 86 81 86 148c0 68 -19 149 -86 149s-87 -81 -87 -149c0 -67 20 -148 87 -148z" />
    <glyph glyph-name="one.denominator" horiz-adv-x="242" 
d="M95 0v301h-65v46c40 1 73 18 76 61h57v-408h-68z" />
    <glyph glyph-name="two.denominator" horiz-adv-x="345" 
d="M29 0v31c0 91 60 133 124 168c77 42 87 62 87 94c0 29 -16 58 -65 58c-47 0 -72 -34 -73 -80h-67c1 75 48 141 140 141c89 0 134 -58 134 -119c0 -77 -51 -107 -124 -147c-48 -27 -81 -51 -83 -83h204v-63h-277z" />
    <glyph glyph-name="three.denominator" horiz-adv-x="344" 
d="M170 -7c-96 0 -143 60 -146 132h67c3 -42 27 -70 79 -70c48 0 77 28 77 65s-19 63 -78 63h-23v59h12c59 0 76 22 76 54c0 34 -22 55 -62 55c-49 0 -69 -33 -70 -67h-66c0 72 52 128 135 128c86 0 130 -53 130 -110c0 -38 -19 -68 -55 -84c48 -16 69 -53 69 -99
c0 -65 -52 -126 -145 -126z" />
    <glyph glyph-name="four.denominator" horiz-adv-x="346" 
d="M210 0v88h-187v58l175 262h77v-260h43v-60h-43v-88h-65zM92 148h118v175z" />
    <glyph glyph-name="five.denominator" horiz-adv-x="338" 
d="M168 -7c-84 0 -137 53 -141 117h67c5 -31 32 -54 74 -54c40 0 73 28 73 77c0 46 -30 79 -72 79c-29 0 -54 -15 -70 -41l-59 19l25 218h220v-62h-167l-13 -101c19 15 44 26 71 26c75 0 133 -58 133 -139c0 -82 -63 -139 -141 -139z" />
    <glyph glyph-name="six.denominator" horiz-adv-x="350" 
d="M181 -7c-79 0 -151 58 -151 191c0 146 62 230 156 230c68 0 118 -41 129 -110h-67c-6 24 -23 49 -62 49c-51 0 -81 -48 -88 -124c20 24 53 39 86 39c82 0 139 -57 139 -137c0 -78 -61 -138 -142 -138zM182 53c45 0 74 34 74 77s-28 79 -76 79c-45 0 -74 -35 -74 -78
c0 -45 31 -78 76 -78z" />
    <glyph glyph-name="seven.denominator" horiz-adv-x="317" 
d="M83 0c2 137 46 267 129 346h-192v62h275v-58c-94 -78 -142 -205 -144 -350h-68z" />
    <glyph glyph-name="eight.denominator" horiz-adv-x="349" 
d="M174 -7c-85 0 -145 54 -145 125c0 47 26 82 66 104c-30 19 -48 48 -48 85c0 61 54 108 127 108c74 0 126 -47 126 -108c0 -37 -16 -66 -47 -85c42 -21 67 -57 67 -104c0 -71 -60 -125 -146 -125zM174 52c41 0 79 22 79 68c0 44 -34 69 -79 69c-44 0 -78 -25 -78 -69
c0 -46 38 -68 78 -68zM174 248c32 0 61 19 61 55c0 35 -27 53 -61 53s-61 -18 -61 -53c0 -36 29 -55 61 -55z" />
    <glyph glyph-name="nine.denominator" horiz-adv-x="351" 
d="M166 -7c-65 0 -115 36 -128 98h71c6 -20 23 -37 58 -37c54 0 82 41 87 126c-17 -26 -53 -44 -89 -44c-79 0 -137 59 -137 140c0 79 61 138 142 138s149 -58 149 -191c1 -151 -51 -230 -153 -230zM170 195c45 0 75 35 75 80s-30 80 -75 80c-46 0 -75 -35 -75 -79
c0 -45 28 -81 75 -81z" />
    <glyph glyph-name="zero.superior" horiz-adv-x="332" 
d="M166 348c-66 0 -128 52 -128 167c0 116 62 167 128 167c65 0 128 -51 128 -167c0 -115 -63 -167 -128 -167zM166 399c53 0 70 61 70 116c0 57 -17 116 -70 116c-54 0 -70 -59 -70 -116c0 -55 16 -116 70 -116z" />
    <glyph glyph-name="one.superior" horiz-adv-x="230" 
d="M91 354v231h-61v43c39 1 69 16 71 52h48v-326h-58z" />
    <glyph glyph-name="two.superior" horiz-adv-x="306" 
d="M37 354v26c0 74 50 106 101 134c61 33 67 49 67 73c0 22 -13 44 -50 44s-56 -24 -57 -55h-56c2 54 38 107 113 107c72 0 108 -48 108 -96c0 -62 -40 -85 -98 -116c-36 -19 -65 -41 -65 -65h161v-52h-224z" />
    <glyph glyph-name="three.superior" horiz-adv-x="304" 
d="M148 348c-77 0 -116 48 -118 106h57c1 -33 22 -53 61 -53c40 0 62 21 62 50s-16 48 -59 48h-19v48h11c44 0 57 18 57 42c0 25 -19 41 -50 41c-35 0 -54 -22 -55 -45h-55c1 53 44 98 110 98c70 0 106 -44 106 -89c0 -29 -15 -53 -43 -67c35 -13 54 -42 54 -77
c0 -52 -41 -102 -119 -102z" />
    <glyph glyph-name="four.superior" horiz-adv-x="305" 
d="M180 354v69h-157v48l145 209h66v-208h34v-49h-34v-69h-54zM81 472h99v141z" />
    <glyph glyph-name="five.superior" horiz-adv-x="300" 
d="M148 348c-67 0 -113 40 -116 93h56c7 -26 25 -40 60 -40c32 0 58 21 58 59c0 36 -24 61 -57 61c-24 0 -44 -12 -56 -31l-50 15l19 175h181v-51h-136l-10 -81c14 13 33 22 59 22c60 0 107 -46 107 -111c0 -64 -49 -111 -115 -111z" />
    <glyph glyph-name="six.superior" horiz-adv-x="308" 
d="M159 348c-61 0 -121 44 -121 153c0 116 48 184 126 184c55 0 94 -31 103 -85h-56c-4 18 -19 33 -47 33c-40 0 -64 -37 -68 -98c16 23 41 33 66 33c65 0 111 -45 111 -109c0 -63 -48 -111 -114 -111zM160 398c34 0 56 27 56 60s-21 61 -57 61c-35 0 -57 -28 -57 -61
s23 -60 58 -60z" />
    <glyph glyph-name="seven.superior" horiz-adv-x="284" 
d="M80 354c1 110 36 212 102 274h-152v52h222v-49c-74 -62 -113 -161 -114 -277h-58z" />
    <glyph glyph-name="eight.superior" horiz-adv-x="306" 
d="M152 348c-66 0 -119 43 -119 100c0 37 21 65 52 83c-23 15 -37 38 -37 67c0 50 46 87 104 87c60 0 105 -37 105 -87c0 -29 -13 -52 -37 -67c32 -18 51 -46 51 -83c0 -57 -50 -100 -119 -100zM152 398c36 0 62 17 62 53c0 34 -24 53 -62 53c-35 0 -62 -19 -62 -53
c0 -36 29 -53 62 -53zM152 552c28 0 49 16 49 43c0 28 -19 42 -49 42c-26 0 -49 -14 -49 -42c0 -27 24 -43 49 -43z" />
    <glyph glyph-name="nine.superior" horiz-adv-x="307" 
d="M147 348c-54 0 -93 29 -104 78h60c5 -15 19 -26 44 -26c42 0 63 31 66 95c-13 -20 -41 -32 -68 -32c-62 0 -110 46 -110 111c0 64 49 111 114 111c63 0 120 -44 120 -158c0 -113 -40 -179 -122 -179zM149 511c34 0 57 29 57 62c0 35 -23 63 -57 63c-35 0 -57 -28 -57 -62
s22 -63 57 -63z" />
    <glyph glyph-name="zero.inferior" horiz-adv-x="332" 
d="M166 -86c-66 0 -128 52 -128 167c0 116 62 167 128 167c65 0 128 -51 128 -167c0 -115 -63 -167 -128 -167zM166 -35c53 0 70 61 70 116c0 57 -17 116 -70 116c-54 0 -70 -59 -70 -116c0 -55 16 -116 70 -116z" />
    <glyph glyph-name="one.inferior" horiz-adv-x="230" 
d="M91 -80v231h-61v43c39 1 69 16 71 52h48v-326h-58z" />
    <glyph glyph-name="two.inferior" horiz-adv-x="306" 
d="M37 -80v26c0 74 50 106 101 134c61 33 67 49 67 73c0 22 -13 44 -50 44s-56 -24 -57 -55h-56c2 54 38 107 113 107c72 0 108 -48 108 -96c0 -62 -40 -85 -98 -116c-36 -19 -65 -41 -65 -65h161v-52h-224z" />
    <glyph glyph-name="three.inferior" horiz-adv-x="304" 
d="M148 -86c-77 0 -116 48 -118 106h57c1 -33 22 -53 61 -53c40 0 62 21 62 50s-16 48 -59 48h-19v48h11c44 0 57 18 57 42c0 25 -19 41 -50 41c-35 0 -54 -22 -55 -45h-55c1 53 44 98 110 98c70 0 106 -44 106 -89c0 -29 -15 -53 -43 -67c35 -13 54 -42 54 -77
c0 -52 -41 -102 -119 -102z" />
    <glyph glyph-name="four.inferior" horiz-adv-x="305" 
d="M180 -80v69h-157v48l145 209h66v-208h34v-49h-34v-69h-54zM81 38h99v141z" />
    <glyph glyph-name="five.inferior" horiz-adv-x="300" 
d="M148 -86c-67 0 -113 40 -116 93h56c7 -26 25 -40 60 -40c32 0 58 21 58 59c0 36 -24 61 -57 61c-24 0 -44 -12 -56 -31l-50 15l19 175h181v-51h-136l-10 -81c14 13 33 22 59 22c60 0 107 -46 107 -111c0 -64 -49 -111 -115 -111z" />
    <glyph glyph-name="six.inferior" horiz-adv-x="308" 
d="M159 -86c-61 0 -121 44 -121 153c0 116 48 184 126 184c55 0 94 -31 103 -85h-56c-4 18 -19 33 -47 33c-40 0 -64 -37 -68 -98c16 23 41 33 66 33c65 0 111 -45 111 -109c0 -63 -48 -111 -114 -111zM160 -36c34 0 56 27 56 60s-21 61 -57 61c-35 0 -57 -28 -57 -61
s23 -60 58 -60z" />
    <glyph glyph-name="seven.inferior" horiz-adv-x="284" 
d="M80 -80c1 110 36 212 102 274h-152v52h222v-49c-74 -62 -113 -161 -114 -277h-58z" />
    <glyph glyph-name="eight.inferior" horiz-adv-x="306" 
d="M152 -86c-66 0 -119 43 -119 100c0 37 21 65 52 83c-23 15 -37 38 -37 67c0 50 46 87 104 87c60 0 105 -37 105 -87c0 -29 -13 -52 -37 -67c32 -18 51 -46 51 -83c0 -57 -50 -100 -119 -100zM152 -36c36 0 62 17 62 53c0 34 -24 53 -62 53c-35 0 -62 -19 -62 -53
c0 -36 29 -53 62 -53zM152 118c28 0 49 16 49 43c0 28 -19 42 -49 42c-26 0 -49 -14 -49 -42c0 -27 24 -43 49 -43z" />
    <glyph glyph-name="nine.inferior" horiz-adv-x="307" 
d="M147 -86c-54 0 -93 29 -104 78h60c5 -15 19 -26 44 -26c42 0 63 31 66 95c-13 -20 -41 -32 -68 -32c-62 0 -110 46 -110 111c0 64 49 111 114 111c63 0 120 -44 120 -158c0 -113 -40 -179 -122 -179zM149 77c34 0 57 29 57 62c0 35 -23 63 -57 63c-35 0 -57 -28 -57 -62
s22 -63 57 -63z" />
    <glyph glyph-name="onethird" unicode="&#x2153;" horiz-adv-x="818" 
d="M638 -7c-96 0 -143 60 -146 132h67c3 -42 27 -70 79 -70c48 0 77 28 77 65s-19 63 -78 63h-23v59h12c59 0 76 22 76 54c0 34 -22 55 -62 55c-49 0 -69 -33 -70 -67h-66c0 72 52 128 135 128c86 0 130 -53 130 -110c0 -38 -19 -68 -55 -84c48 -16 69 -53 69 -99
c0 -65 -52 -126 -145 -126zM133 0l382 680h78l-383 -680h-77zM101 272v301h-65v46c40 1 73 18 76 61h57v-408h-68z" />
    <glyph glyph-name="twothirds" unicode="&#x2154;" horiz-adv-x="921" 
d="M35 272v31c0 91 60 133 124 168c77 42 87 62 87 94c0 29 -16 58 -65 58c-47 0 -72 -34 -73 -80h-67c1 75 48 141 140 141c89 0 134 -58 134 -119c0 -77 -51 -107 -124 -147c-48 -27 -81 -51 -83 -83h204v-63h-277zM741 -7c-96 0 -143 60 -146 132h67c3 -42 27 -70 79 -70
c48 0 77 28 77 65s-19 63 -78 63h-23v59h12c59 0 76 22 76 54c0 34 -22 55 -62 55c-49 0 -69 -33 -70 -67h-66c0 72 52 128 135 128c86 0 130 -53 130 -110c0 -38 -19 -68 -55 -84c48 -16 69 -53 69 -99c0 -65 -52 -126 -145 -126zM236 0l382 680h78l-383 -680h-77z" />
    <glyph glyph-name="oneeighth" unicode="&#x215b;" horiz-adv-x="823" 
d="M642 -7c-85 0 -145 54 -145 125c0 47 26 82 66 104c-30 19 -48 48 -48 85c0 61 54 108 127 108c74 0 126 -47 126 -108c0 -37 -16 -66 -47 -85c42 -21 67 -57 67 -104c0 -71 -60 -125 -146 -125zM133 0l382 680h78l-383 -680h-77zM101 272v301h-65v46c40 1 73 18 76 61
h57v-408h-68zM642 52c41 0 79 22 79 68c0 44 -34 69 -79 69c-44 0 -78 -25 -78 -69c0 -46 38 -68 78 -68zM642 248c32 0 61 19 61 55c0 35 -27 53 -61 53s-61 -18 -61 -53c0 -36 29 -55 61 -55z" />
    <glyph glyph-name="threeeighths" unicode="&#x215c;" horiz-adv-x="925" 
d="M744 -7c-85 0 -145 54 -145 125c0 47 26 82 66 104c-30 19 -48 48 -48 85c0 61 54 108 127 108c74 0 126 -47 126 -108c0 -37 -16 -66 -47 -85c42 -21 67 -57 67 -104c0 -71 -60 -125 -146 -125zM176 265c-96 0 -143 60 -146 132h67c3 -42 27 -70 79 -70
c48 0 77 28 77 65s-19 63 -78 63h-23v59h12c59 0 76 22 76 54c0 34 -22 55 -62 55c-49 0 -69 -33 -70 -67h-66c0 72 52 128 135 128c86 0 130 -53 130 -110c0 -38 -19 -68 -55 -84c48 -16 69 -53 69 -99c0 -65 -52 -126 -145 -126zM235 0l382 680h78l-383 -680h-77zM744 52
c41 0 79 22 79 68c0 44 -34 69 -79 69c-44 0 -78 -25 -78 -69c0 -46 38 -68 78 -68zM744 248c32 0 61 19 61 55c0 35 -27 53 -61 53s-61 -18 -61 -53c0 -36 29 -55 61 -55z" />
    <glyph glyph-name="fiveeighths" unicode="&#x215d;" horiz-adv-x="919" 
d="M738 -7c-85 0 -145 54 -145 125c0 47 26 82 66 104c-30 19 -48 48 -48 85c0 61 54 108 127 108c74 0 126 -47 126 -108c0 -37 -16 -66 -47 -85c42 -21 67 -57 67 -104c0 -71 -60 -125 -146 -125zM174 265c-84 0 -137 53 -141 117h67c5 -31 32 -54 74 -54
c40 0 73 28 73 77c0 46 -30 79 -72 79c-29 0 -54 -15 -70 -41l-59 19l25 218h220v-62h-167l-13 -101c19 15 44 26 71 26c75 0 133 -58 133 -139c0 -82 -63 -139 -141 -139zM229 0l382 680h78l-383 -680h-77zM738 52c41 0 79 22 79 68c0 44 -34 69 -79 69
c-44 0 -78 -25 -78 -69c0 -46 38 -68 78 -68zM738 248c32 0 61 19 61 55c0 35 -27 53 -61 53s-61 -18 -61 -53c0 -36 29 -55 61 -55z" />
    <glyph glyph-name="seveneighths" unicode="&#x215e;" horiz-adv-x="848" 
d="M667 -7c-85 0 -145 54 -145 125c0 47 26 82 66 104c-30 19 -48 48 -48 85c0 61 54 108 127 108c74 0 126 -47 126 -108c0 -37 -16 -66 -47 -85c42 -21 67 -57 67 -104c0 -71 -60 -125 -146 -125zM158 0l382 680h78l-383 -680h-77zM89 272c2 137 46 267 129 346h-192v62
h275v-58c-94 -78 -142 -205 -144 -350h-68zM667 52c41 0 79 22 79 68c0 44 -34 69 -79 69c-44 0 -78 -25 -78 -69c0 -46 38 -68 78 -68zM667 248c32 0 61 19 61 55c0 35 -27 53 -61 53s-61 -18 -61 -53c0 -36 29 -55 61 -55z" />
    <glyph glyph-name="onesixteenth" horiz-adv-x="1076" 
d="M901 -7c-79 0 -151 58 -151 191c0 146 62 230 156 230c68 0 118 -41 129 -110h-67c-6 24 -23 49 -62 49c-51 0 -81 -48 -88 -124c20 24 53 39 86 39c82 0 139 -57 139 -137c0 -78 -61 -138 -142 -138zM133 0l382 680h78l-383 -680h-77zM101 272v301h-65v46
c40 1 73 18 76 61h57v-408h-68zM573 0v301h-65v46c40 1 73 18 76 61h57v-408h-68zM902 53c45 0 74 34 74 77s-28 79 -76 79c-45 0 -74 -35 -74 -78c0 -45 31 -78 76 -78z" />
    <glyph glyph-name="threesixteenths" horiz-adv-x="1178" 
d="M1003 -7c-79 0 -151 58 -151 191c0 146 62 230 156 230c68 0 118 -41 129 -110h-67c-6 24 -23 49 -62 49c-51 0 -81 -48 -88 -124c20 24 53 39 86 39c82 0 139 -57 139 -137c0 -78 -61 -138 -142 -138zM176 265c-96 0 -143 60 -146 132h67c3 -42 27 -70 79 -70
c48 0 77 28 77 65s-19 63 -78 63h-23v59h12c59 0 76 22 76 54c0 34 -22 55 -62 55c-49 0 -69 -33 -70 -67h-66c0 72 52 128 135 128c86 0 130 -53 130 -110c0 -38 -19 -68 -55 -84c48 -16 69 -53 69 -99c0 -65 -52 -126 -145 -126zM235 0l382 680h78l-383 -680h-77zM675 0
v301h-65v46c40 1 73 18 76 61h57v-408h-68zM1004 53c45 0 74 34 74 77s-28 79 -76 79c-45 0 -74 -35 -74 -78c0 -45 31 -78 76 -78z" />
    <glyph glyph-name="fivesixteenths" horiz-adv-x="1172" 
d="M997 -7c-79 0 -151 58 -151 191c0 146 62 230 156 230c68 0 118 -41 129 -110h-67c-6 24 -23 49 -62 49c-51 0 -81 -48 -88 -124c20 24 53 39 86 39c82 0 139 -57 139 -137c0 -78 -61 -138 -142 -138zM174 265c-84 0 -137 53 -141 117h67c5 -31 32 -54 74 -54
c40 0 73 28 73 77c0 46 -30 79 -72 79c-29 0 -54 -15 -70 -41l-59 19l25 218h220v-62h-167l-13 -101c19 15 44 26 71 26c75 0 133 -58 133 -139c0 -82 -63 -139 -141 -139zM229 0l382 680h78l-383 -680h-77zM669 0v301h-65v46c40 1 73 18 76 61h57v-408h-68zM998 53
c45 0 74 34 74 77s-28 79 -76 79c-45 0 -74 -35 -74 -78c0 -45 31 -78 76 -78z" />
    <glyph glyph-name="sevensixteenths" horiz-adv-x="1101" 
d="M926 -7c-79 0 -151 58 -151 191c0 146 62 230 156 230c68 0 118 -41 129 -110h-67c-6 24 -23 49 -62 49c-51 0 -81 -48 -88 -124c20 24 53 39 86 39c82 0 139 -57 139 -137c0 -78 -61 -138 -142 -138zM158 0l382 680h78l-383 -680h-77zM89 272c2 137 46 267 129 346h-192
v62h275v-58c-94 -78 -142 -205 -144 -350h-68zM598 0v301h-65v46c40 1 73 18 76 61h57v-408h-68zM927 53c45 0 74 34 74 77s-28 79 -76 79c-45 0 -74 -35 -74 -78c0 -45 31 -78 76 -78z" />
    <glyph glyph-name="ninesixteenths" horiz-adv-x="1185" 
d="M1010 -7c-79 0 -151 58 -151 191c0 146 62 230 156 230c68 0 118 -41 129 -110h-67c-6 24 -23 49 -62 49c-51 0 -81 -48 -88 -124c20 24 53 39 86 39c82 0 139 -57 139 -137c0 -78 -61 -138 -142 -138zM181 265c-65 0 -115 36 -128 98h71c6 -20 23 -37 58 -37
c54 0 82 41 87 126c-17 -26 -53 -44 -89 -44c-79 0 -137 59 -137 140c0 79 61 138 142 138s149 -58 149 -191c1 -151 -51 -230 -153 -230zM242 0l382 680h78l-383 -680h-77zM682 0v301h-65v46c40 1 73 18 76 61h57v-408h-68zM185 467c45 0 75 35 75 80s-30 80 -75 80
c-46 0 -75 -35 -75 -79c0 -45 28 -81 75 -81zM1011 53c45 0 74 34 74 77s-28 79 -76 79c-45 0 -74 -35 -74 -78c0 -45 31 -78 76 -78z" />
    <glyph glyph-name="elevensixteenths" horiz-adv-x="1318" 
d="M1143 -7c-79 0 -151 58 -151 191c0 146 62 230 156 230c68 0 118 -41 129 -110h-67c-6 24 -23 49 -62 49c-51 0 -81 -48 -88 -124c20 24 53 39 86 39c82 0 139 -57 139 -137c0 -78 -61 -138 -142 -138zM375 0l382 680h78l-383 -680h-77zM343 272v301h-65v46
c40 1 73 18 76 61h57v-408h-68zM815 0v301h-65v46c40 1 73 18 76 61h57v-408h-68zM101 272v301h-65v46c40 1 73 18 76 61h57v-408h-68zM1144 53c45 0 74 34 74 77s-28 79 -76 79c-45 0 -74 -35 -74 -78c0 -45 31 -78 76 -78z" />
    <glyph glyph-name="thirteensixteenths" horiz-adv-x="1420" 
d="M1245 -7c-79 0 -151 58 -151 191c0 146 62 230 156 230c68 0 118 -41 129 -110h-67c-6 24 -23 49 -62 49c-51 0 -81 -48 -88 -124c20 24 53 39 86 39c82 0 139 -57 139 -137c0 -78 -61 -138 -142 -138zM418 265c-96 0 -143 60 -146 132h67c3 -42 27 -70 79 -70
c48 0 77 28 77 65s-19 63 -78 63h-23v59h12c59 0 76 22 76 54c0 34 -22 55 -62 55c-49 0 -69 -33 -70 -67h-66c0 72 52 128 135 128c86 0 130 -53 130 -110c0 -38 -19 -68 -55 -84c48 -16 69 -53 69 -99c0 -65 -52 -126 -145 -126zM477 0l382 680h78l-383 -680h-77zM917 0
v301h-65v46c40 1 73 18 76 61h57v-408h-68zM101 272v301h-65v46c40 1 73 18 76 61h57v-408h-68zM1246 53c45 0 74 34 74 77s-28 79 -76 79c-45 0 -74 -35 -74 -78c0 -45 31 -78 76 -78z" />
    <glyph glyph-name="fifteensixteenths" horiz-adv-x="1414" 
d="M1239 -7c-79 0 -151 58 -151 191c0 146 62 230 156 230c68 0 118 -41 129 -110h-67c-6 24 -23 49 -62 49c-51 0 -81 -48 -88 -124c20 24 53 39 86 39c82 0 139 -57 139 -137c0 -78 -61 -138 -142 -138zM416 265c-84 0 -137 53 -141 117h67c5 -31 32 -54 74 -54
c40 0 73 28 73 77c0 46 -30 79 -72 79c-29 0 -54 -15 -70 -41l-59 19l25 218h220v-62h-167l-13 -101c19 15 44 26 71 26c75 0 133 -58 133 -139c0 -82 -63 -139 -141 -139zM471 0l382 680h78l-383 -680h-77zM911 0v301h-65v46c40 1 73 18 76 61h57v-408h-68zM101 272v301
h-65v46c40 1 73 18 76 61h57v-408h-68zM1240 53c45 0 74 34 74 77s-28 79 -76 79c-45 0 -74 -35 -74 -78c0 -45 31 -78 76 -78z" />
    <glyph glyph-name="dotlessj" unicode="&#xf6be;" horiz-adv-x="240" 
d="M-14 -209v74h16c50 0 77 22 77 80v570h82v-571c0 -99 -62 -153 -159 -153h-16z" />
    <glyph glyph-name="dotlessj" unicode="&#xfb0f;" horiz-adv-x="240" 
d="M-14 -209v74h16c50 0 77 22 77 80v570h82v-571c0 -99 -62 -153 -159 -153h-16z" />
    <glyph glyph-name="Abreve" unicode="&#x102;" horiz-adv-x="617" 
d="M17 0l249 680h90l244 -680h-90l-64 181h-277l-64 -181h-88zM285 505l-88 -246h222l-86 246l-24 82s-12 -49 -24 -82zM308 730c-85 0 -139 60 -146 141h61c9 -36 33 -69 86 -69c52 0 77 33 85 69h61c-7 -81 -61 -141 -147 -141z" />
    <glyph glyph-name="Amacron" unicode="&#x100;" horiz-adv-x="617" 
d="M17 0l249 680h90l244 -680h-90l-64 181h-277l-64 -181h-88zM285 505l-88 -246h222l-86 246l-24 82s-12 -49 -24 -82zM178 759v70h262v-70h-262z" />
    <glyph glyph-name="Aogonek" unicode="&#x104;" horiz-adv-x="617" 
d="M530 -236c-60 0 -108 35 -108 93c0 66 63 116 102 143h-14l-64 181h-277l-64 -181h-88l249 680h90l244 -680h-16c-63 -61 -95 -99 -95 -142c0 -25 15 -43 42 -43c25 0 39 13 45 28h63c-9 -45 -52 -79 -109 -79zM285 505l-88 -246h222l-86 246l-24 82s-12 -49 -24 -82z
" />
    <glyph glyph-name="Cacute" unicode="&#x106;" horiz-adv-x="696" 
d="M373 -12c-178 0 -328 144 -328 353c0 208 148 352 326 352c158 0 256 -87 292 -223h-86c-30 87 -93 146 -206 146c-134 0 -235 -107 -235 -275c0 -169 103 -276 237 -276c101 0 178 60 205 151h89c-39 -141 -141 -228 -294 -228zM340 730l64 147h109l-97 -147h-76z" />
    <glyph glyph-name="Ccaron" unicode="&#x10c;" horiz-adv-x="696" 
d="M373 -12c-178 0 -328 144 -328 353c0 208 148 352 326 352c158 0 256 -87 292 -223h-86c-30 87 -93 146 -206 146c-134 0 -235 -107 -235 -275c0 -169 103 -276 237 -276c101 0 178 60 205 151h89c-39 -141 -141 -228 -294 -228zM340 727l-114 154h74l72 -79l72 79h73
l-113 -154h-64z" />
    <glyph glyph-name="Ccircumflex" unicode="&#x108;" horiz-adv-x="696" 
d="M373 -12c-178 0 -328 144 -328 353c0 208 148 352 326 352c158 0 256 -87 292 -223h-86c-30 87 -93 146 -206 146c-134 0 -235 -107 -235 -275c0 -169 103 -276 237 -276c101 0 178 60 205 151h89c-39 -141 -141 -228 -294 -228zM227 730l113 154h64l114 -154h-74l-72 79
l-72 -79h-73z" />
    <glyph glyph-name="Dcaron" unicode="&#x10e;" horiz-adv-x="679" 
d="M86 0v680h225c197 0 323 -128 323 -339s-126 -341 -323 -341h-225zM174 78h137c136 0 232 80 232 263c0 186 -97 261 -232 261h-137v-524zM270 727l-114 154h74l72 -79l72 79h73l-113 -154h-64z" />
    <glyph glyph-name="Ecaron" unicode="&#x11a;" horiz-adv-x="587" 
d="M86 0v680h448v-79h-360v-204h306v-79h-306v-239h365v-79h-453zM278 727l-114 154h74l72 -79l72 79h73l-113 -154h-64z" />
    <glyph glyph-name="Edotaccent" unicode="&#x116;" horiz-adv-x="587" 
d="M86 0v680h448v-79h-360v-204h306v-79h-306v-239h365v-79h-453zM270 730v95h92v-95h-92z" />
    <glyph glyph-name="Emacron" unicode="&#x112;" horiz-adv-x="587" 
d="M86 0v680h448v-79h-360v-204h306v-79h-306v-239h365v-79h-453zM179 759v70h262v-70h-262z" />
    <glyph glyph-name="Eogonek" unicode="&#x118;" horiz-adv-x="587" 
d="M86 0v680h448v-79h-360v-204h306v-79h-306v-239h365v-79h-31c-63 -61 -95 -99 -95 -142c0 -25 15 -43 42 -43c25 0 39 13 45 28h63c-9 -45 -52 -79 -109 -79c-60 0 -108 35 -108 93c0 66 63 116 102 143h-362z" />
    <glyph glyph-name="Gbreve" unicode="&#x11e;" horiz-adv-x="734" 
d="M370 -12c-180 0 -325 144 -325 353c0 208 146 352 325 352c131 0 255 -70 291 -216h-88c-29 98 -112 139 -203 139c-137 0 -234 -107 -234 -275c0 -169 98 -276 234 -276c133 0 220 93 226 204h-189v80h272v-349h-82v113c-39 -66 -109 -125 -227 -125zM369 730
c-85 0 -139 60 -146 141h61c9 -36 33 -69 86 -69c52 0 77 33 85 69h61c-7 -81 -61 -141 -147 -141z" />
    <glyph glyph-name="Gcircumflex" unicode="&#x11c;" horiz-adv-x="734" 
d="M370 -12c-180 0 -325 144 -325 353c0 208 146 352 325 352c131 0 255 -70 291 -216h-88c-29 98 -112 139 -203 139c-137 0 -234 -107 -234 -275c0 -169 98 -276 234 -276c133 0 220 93 226 204h-189v80h272v-349h-82v113c-39 -66 -109 -125 -227 -125zM225 730l113 154
h64l114 -154h-74l-72 79l-72 -79h-73z" />
    <glyph glyph-name="Gcommaaccent" unicode="&#x122;" horiz-adv-x="734" 
d="M370 -12c-180 0 -325 144 -325 353c0 208 146 352 325 352c131 0 255 -70 291 -216h-88c-29 98 -112 139 -203 139c-137 0 -234 -107 -234 -275c0 -169 98 -276 234 -276c133 0 220 93 226 204h-189v80h272v-349h-82v113c-39 -66 -109 -125 -227 -125zM316 -285v46
c32 3 53 22 53 61v15h-52v105h103v-120c0 -72 -49 -103 -104 -107z" />
    <glyph glyph-name="Hcircumflex" unicode="&#x124;" horiz-adv-x="696" 
d="M86 0v680h88v-283h348v283h88v-680h-88v317h-348v-317h-88zM204 730l113 154h64l114 -154h-74l-72 79l-72 -79h-73z" />
    <glyph glyph-name="Idotaccent" unicode="&#x130;" horiz-adv-x="266" 
d="M89 0v680h88v-680h-88zM87 730v95h92v-95h-92z" />
    <glyph glyph-name="Imacron" unicode="&#x12a;" horiz-adv-x="266" 
d="M89 0v680h88v-680h-88zM2 759v70h262v-70h-262z" />
    <glyph glyph-name="Iogonek" unicode="&#x12e;" horiz-adv-x="266" 
d="M89 0v680h88v-680c-63 -61 -95 -99 -95 -142c0 -25 15 -43 42 -43c25 0 39 13 45 28h63c-9 -45 -52 -79 -109 -79c-60 0 -108 35 -108 93c0 66 63 116 102 143h-28z" />
    <glyph glyph-name="Jcircumflex" unicode="&#x134;" horiz-adv-x="534" 
d="M244 -12c-130 0 -216 92 -216 228h87c0 -80 36 -151 129 -151c94 0 129 60 129 163v452h88v-452c0 -146 -73 -240 -217 -240zM272 730l113 154h64l114 -154h-74l-72 79l-72 -79h-73z" />
    <glyph glyph-name="Kcommaaccent" unicode="&#x136;" horiz-adv-x="628" 
d="M512 0l-231 348l-114 -119v-229h-81v680h81v-350l335 350h98l-263 -274l271 -406h-96zM269 -285v46c32 3 53 22 53 61v15h-52v105h103v-120c0 -72 -49 -103 -104 -107z" />
    <glyph glyph-name="Lacute" unicode="&#x139;" horiz-adv-x="532" 
d="M86 0v680h88v-601h328v-79h-416zM96 730l64 147h109l-97 -147h-76z" />
    <glyph glyph-name="Lcommaaccent" unicode="&#x13b;" horiz-adv-x="532" 
d="M86 0v680h88v-601h328v-79h-416zM236 -285v46c32 3 53 22 53 61v15h-52v105h103v-120c0 -72 -49 -103 -104 -107z" />
    <glyph glyph-name="Nacute" unicode="&#x143;" horiz-adv-x="686" 
d="M86 0v680h97l337 -543v543h80v-680h-89l-345 555v-555h-80zM320 730l64 147h109l-97 -147h-76z" />
    <glyph glyph-name="Ncaron" unicode="&#x147;" horiz-adv-x="686" 
d="M86 0v680h97l337 -543v543h80v-680h-89l-345 555v-555h-80zM333 727l-114 154h74l72 -79l72 79h73l-113 -154h-64z" />
    <glyph glyph-name="Ncommaaccent" unicode="&#x145;" horiz-adv-x="686" 
d="M86 0v680h97l337 -543v543h80v-680h-89l-345 555v-555h-80zM294 -285v46c32 3 53 22 53 61v15h-52v105h103v-120c0 -72 -49 -103 -104 -107z" />
    <glyph glyph-name="Ohungarumlaut" unicode="&#x150;" horiz-adv-x="748" 
d="M374 -12c-181 0 -329 144 -329 353c0 208 148 352 329 352c184 0 329 -140 329 -352c0 -208 -148 -353 -329 -353zM374 65c136 0 238 108 238 276c0 171 -99 275 -238 275c-136 0 -238 -107 -238 -275c0 -169 102 -276 238 -276zM402 730l55 147h99l-78 -147h-76z
M239 730l55 147h99l-78 -147h-76z" />
    <glyph glyph-name="Omacron" unicode="&#x14c;" horiz-adv-x="748" 
d="M374 -12c-181 0 -329 144 -329 353c0 208 148 352 329 352c184 0 329 -140 329 -352c0 -208 -148 -353 -329 -353zM374 65c136 0 238 108 238 276c0 171 -99 275 -238 275c-136 0 -238 -107 -238 -275c0 -169 102 -276 238 -276zM242 759v70h262v-70h-262z" />
    <glyph glyph-name="Racute" unicode="&#x154;" horiz-adv-x="650" 
d="M86 0v680h284c135 0 215 -83 215 -200c0 -69 -30 -122 -104 -155c58 -20 80 -61 88 -136l9 -83c5 -50 16 -86 24 -106h-83c-9 19 -18 48 -22 97l-7 81c-6 72 -34 103 -110 103h-209v-281h-85zM171 361h207c79 0 122 45 122 119c0 84 -48 121 -130 121h-199v-240zM282 730
l64 147h109l-97 -147h-76z" />
    <glyph glyph-name="Rcaron" unicode="&#x158;" horiz-adv-x="650" 
d="M86 0v680h284c135 0 215 -83 215 -200c0 -69 -30 -122 -104 -155c58 -20 80 -61 88 -136l9 -83c5 -50 16 -86 24 -106h-83c-9 19 -18 48 -22 97l-7 81c-6 72 -34 103 -110 103h-209v-281h-85zM171 361h207c79 0 122 45 122 119c0 84 -48 121 -130 121h-199v-240zM282 727
l-114 154h74l72 -79l72 79h73l-113 -154h-64z" />
    <glyph glyph-name="Rcommaaccent" unicode="&#x156;" horiz-adv-x="650" 
d="M86 0v680h284c135 0 215 -83 215 -200c0 -69 -30 -122 -104 -155c58 -20 80 -61 88 -136l9 -83c5 -50 16 -86 24 -106h-83c-9 19 -18 48 -22 97l-7 81c-6 72 -34 103 -110 103h-209v-281h-85zM171 361h207c79 0 122 45 122 119c0 84 -48 121 -130 121h-199v-240z
M290 -285v46c32 3 53 22 53 61v15h-52v105h103v-120c0 -72 -49 -103 -104 -107z" />
    <glyph glyph-name="Sacute" unicode="&#x15a;" horiz-adv-x="593" 
d="M305 -12c-157 0 -262 98 -267 221h88c4 -87 74 -144 179 -144c108 0 161 48 161 117c0 64 -30 100 -174 131c-154 33 -229 82 -229 199c0 116 93 181 224 181c149 0 235 -77 247 -195h-86c-7 67 -57 118 -160 118c-94 0 -140 -38 -140 -102c0 -58 29 -88 164 -119
c154 -35 238 -76 238 -213c0 -126 -103 -194 -245 -194zM254 730l64 147h109l-97 -147h-76z" />
    <glyph glyph-name="Scedilla" unicode="&#x15e;" horiz-adv-x="593" 
d="M550 182c0 -116 -87 -183 -211 -193l-29 -44c4 1 9 1 14 1c49 0 92 -34 92 -89c0 -62 -52 -93 -109 -93s-107 31 -115 79h63c7 -16 23 -28 48 -28c27 0 46 17 46 41c0 25 -20 43 -45 43c-16 0 -29 -8 -38 -16l-35 28l44 78c-140 11 -233 105 -237 220h88
c4 -87 74 -144 179 -144c108 0 161 48 161 117c0 64 -30 100 -174 131c-154 33 -229 82 -229 199c0 116 93 181 224 181c149 0 235 -77 247 -195h-86c-7 67 -57 118 -160 118c-94 0 -140 -38 -140 -102c0 -58 29 -88 164 -119c154 -35 238 -76 238 -213z" />
    <glyph glyph-name="Scedilla" unicode="&#xf6c1;" horiz-adv-x="593" 
d="M550 182c0 -116 -87 -183 -211 -193l-29 -44c4 1 9 1 14 1c49 0 92 -34 92 -89c0 -62 -52 -93 -109 -93s-107 31 -115 79h63c7 -16 23 -28 48 -28c27 0 46 17 46 41c0 25 -20 43 -45 43c-16 0 -29 -8 -38 -16l-35 28l44 78c-140 11 -233 105 -237 220h88
c4 -87 74 -144 179 -144c108 0 161 48 161 117c0 64 -30 100 -174 131c-154 33 -229 82 -229 199c0 116 93 181 224 181c149 0 235 -77 247 -195h-86c-7 67 -57 118 -160 118c-94 0 -140 -38 -140 -102c0 -58 29 -88 164 -119c154 -35 238 -76 238 -213z" />
    <glyph glyph-name="Scircumflex" unicode="&#x15c;" horiz-adv-x="593" 
d="M305 -12c-157 0 -262 98 -267 221h88c4 -87 74 -144 179 -144c108 0 161 48 161 117c0 64 -30 100 -174 131c-154 33 -229 82 -229 199c0 116 93 181 224 181c149 0 235 -77 247 -195h-86c-7 67 -57 118 -160 118c-94 0 -140 -38 -140 -102c0 -58 29 -88 164 -119
c154 -35 238 -76 238 -213c0 -126 -103 -194 -245 -194zM141 730l113 154h64l114 -154h-74l-72 79l-72 -79h-73z" />
    <glyph glyph-name="Scommaaccent" unicode="&#x218;" horiz-adv-x="593" 
d="M305 -12c-157 0 -262 98 -267 221h88c4 -87 74 -144 179 -144c108 0 161 48 161 117c0 64 -30 100 -174 131c-154 33 -229 82 -229 199c0 116 93 181 224 181c149 0 235 -77 247 -195h-86c-7 67 -57 118 -160 118c-94 0 -140 -38 -140 -102c0 -58 29 -88 164 -119
c154 -35 238 -76 238 -213c0 -126 -103 -194 -245 -194zM253 -285v46c32 3 53 22 53 61v15h-52v105h103v-120c0 -72 -49 -103 -104 -107z" />
    <glyph glyph-name="Tcaron" unicode="&#x164;" horiz-adv-x="548" 
d="M230 0v601h-205v79h498v-79h-205v-601h-88zM242 727l-114 154h74l72 -79l72 79h73l-113 -154h-64z" />
    <glyph glyph-name="Tcommaaccent" unicode="&#x162;" horiz-adv-x="548" 
d="M230 0v601h-205v79h498v-79h-205v-601h-88zM220 -285v46c32 3 53 22 53 61v15h-52v105h103v-120c0 -72 -49 -103 -104 -107z" />
    <glyph glyph-name="Tcommaaccent" unicode="&#x21a;" horiz-adv-x="548" 
d="M230 0v601h-205v79h498v-79h-205v-601h-88zM220 -285v46c32 3 53 22 53 61v15h-52v105h103v-120c0 -72 -49 -103 -104 -107z" />
    <glyph glyph-name="Ubreve" unicode="&#x16c;" horiz-adv-x="667" 
d="M334 -12c-151 0 -261 96 -261 265v427h88v-427c0 -122 63 -188 173 -188c111 0 172 66 172 188v427h88v-427c0 -169 -110 -265 -260 -265zM333 730c-85 0 -139 60 -146 141h61c9 -36 33 -69 86 -69c52 0 77 33 85 69h61c-7 -81 -61 -141 -147 -141z" />
    <glyph glyph-name="Uhungarumlaut" unicode="&#x170;" horiz-adv-x="667" 
d="M334 -12c-151 0 -261 96 -261 265v427h88v-427c0 -122 63 -188 173 -188c111 0 172 66 172 188v427h88v-427c0 -169 -110 -265 -260 -265zM370 730l55 147h99l-78 -147h-76zM207 730l55 147h99l-78 -147h-76z" />
    <glyph glyph-name="Umacron" unicode="&#x16a;" horiz-adv-x="667" 
d="M334 -12c-151 0 -261 96 -261 265v427h88v-427c0 -122 63 -188 173 -188c111 0 172 66 172 188v427h88v-427c0 -169 -110 -265 -260 -265zM203 759v70h262v-70h-262z" />
    <glyph glyph-name="Uogonek" unicode="&#x172;" horiz-adv-x="667" 
d="M333 -236c-60 0 -108 35 -108 93s48 103 86 132c-139 9 -238 103 -238 264v427h88v-427c0 -122 63 -188 173 -188c111 0 172 66 172 188v427h88v-427c0 -152 -89 -245 -216 -262c-57 -56 -86 -92 -86 -133c0 -25 15 -43 42 -43c25 0 39 13 45 28h63
c-9 -45 -52 -79 -109 -79z" />
    <glyph glyph-name="Uring" unicode="&#x16e;" horiz-adv-x="667" 
d="M334 -12c-151 0 -261 96 -261 265v427h88v-427c0 -122 63 -188 173 -188c111 0 172 66 172 188v427h88v-427c0 -169 -110 -265 -260 -265zM333 707c-63 0 -113 49 -113 111c0 64 50 112 113 112c62 0 113 -48 113 -112c0 -62 -51 -111 -113 -111zM333 753
c35 0 61 28 61 65s-26 66 -61 66s-61 -29 -61 -66s26 -65 61 -65z" />
    <glyph glyph-name="Zacute" unicode="&#x179;" horiz-adv-x="549" 
d="M32 0v69l380 532h-367v79h470v-76l-375 -525h377v-79h-485zM244 730l64 147h109l-97 -147h-76z" />
    <glyph glyph-name="Zdotaccent" unicode="&#x17b;" horiz-adv-x="549" 
d="M32 0v69l380 532h-367v79h470v-76l-375 -525h377v-79h-485zM230 730v95h92v-95h-92z" />
    <glyph glyph-name="abreve" unicode="&#x103;" 
d="M214 -12c-96 0 -172 43 -172 144c0 99 78 140 187 157c103 16 159 27 159 81c0 59 -38 83 -113 83c-63 0 -115 -27 -122 -86h-86c6 96 87 161 209 161c134 0 194 -62 194 -158v-266c0 -41 12 -84 20 -104h-81c-7 15 -16 39 -19 70c-31 -46 -95 -82 -176 -82zM215 60
c100 0 173 46 173 128v86c-21 -19 -65 -36 -156 -53c-78 -15 -109 -38 -109 -86c0 -50 38 -75 92 -75zM275 593c-85 0 -139 60 -146 141h61c9 -36 33 -69 86 -69c52 0 77 33 85 69h61c-7 -81 -61 -141 -147 -141z" />
    <glyph glyph-name="amacron" unicode="&#x101;" 
d="M214 -12c-96 0 -172 43 -172 144c0 99 78 140 187 157c103 16 159 27 159 81c0 59 -38 83 -113 83c-63 0 -115 -27 -122 -86h-86c6 96 87 161 209 161c134 0 194 -62 194 -158v-266c0 -41 12 -84 20 -104h-81c-7 15 -16 39 -19 70c-31 -46 -95 -82 -176 -82zM215 60
c100 0 173 46 173 128v86c-21 -19 -65 -36 -156 -53c-78 -15 -109 -38 -109 -86c0 -50 38 -75 92 -75zM145 622v70h262v-70h-262z" />
    <glyph glyph-name="aogonek" unicode="&#x105;" 
d="M436 -236c-60 0 -108 35 -108 93c0 66 63 116 102 143h-21c-7 15 -16 39 -19 70c-31 -46 -95 -82 -176 -82c-96 0 -172 43 -172 144c0 99 78 140 187 157c103 16 159 27 159 81c0 59 -38 83 -113 83c-63 0 -115 -27 -122 -86h-86c6 96 87 161 209 161
c134 0 194 -62 194 -158v-266c0 -41 12 -84 20 -104c-63 -61 -95 -99 -95 -142c0 -25 15 -43 42 -43c25 0 39 13 45 28h63c-9 -45 -52 -79 -109 -79zM215 60c100 0 173 46 173 128v86c-21 -19 -65 -36 -156 -53c-78 -15 -109 -38 -109 -86c0 -50 38 -75 92 -75z" />
    <glyph glyph-name="cacute" unicode="&#x107;" horiz-adv-x="545" 
d="M290 -12c-138 0 -248 114 -248 268c0 156 110 272 248 272c112 0 194 -65 221 -170h-87c-22 60 -69 95 -134 95c-92 0 -163 -71 -163 -197c0 -124 71 -193 163 -193c66 0 114 37 134 95h87c-24 -101 -107 -170 -221 -170zM251 593l64 147h109l-97 -147h-76z" />
    <glyph glyph-name="ccircumflex" unicode="&#x109;" horiz-adv-x="545" 
d="M290 -12c-138 0 -248 114 -248 268c0 156 110 272 248 272c112 0 194 -65 221 -170h-87c-22 60 -69 95 -134 95c-92 0 -163 -71 -163 -197c0 -124 71 -193 163 -193c66 0 114 37 134 95h87c-24 -101 -107 -170 -221 -170zM141 593l113 154h64l114 -154h-74l-72 79
l-72 -79h-73z" />
    <glyph glyph-name="ecaron" unicode="&#x11b;" horiz-adv-x="570" 
d="M295 -12c-143 0 -253 110 -253 269c0 157 111 271 250 271c129 0 245 -102 240 -296h-405c9 -114 86 -170 168 -170c71 0 118 32 138 82h87c-24 -90 -109 -156 -225 -156zM130 303h310c-11 104 -74 151 -148 151c-69 0 -142 -44 -162 -151zM259 590l-114 154h74l72 -79
l72 79h73l-113 -154h-64z" />
    <glyph glyph-name="edotaccent" unicode="&#x117;" horiz-adv-x="570" 
d="M295 -12c-143 0 -253 110 -253 269c0 157 111 271 250 271c129 0 245 -102 240 -296h-405c9 -114 86 -170 168 -170c71 0 118 32 138 82h87c-24 -90 -109 -156 -225 -156zM130 303h310c-11 104 -74 151 -148 151c-69 0 -142 -44 -162 -151zM250 593v95h92v-95h-92z" />
    <glyph glyph-name="emacron" unicode="&#x113;" horiz-adv-x="570" 
d="M295 -12c-143 0 -253 110 -253 269c0 157 111 271 250 271c129 0 245 -102 240 -296h-405c9 -114 86 -170 168 -170c71 0 118 32 138 82h87c-24 -90 -109 -156 -225 -156zM130 303h310c-11 104 -74 151 -148 151c-69 0 -142 -44 -162 -151zM165 622v70h262v-70h-262z" />
    <glyph glyph-name="eogonek" unicode="&#x119;" horiz-adv-x="570" 
d="M304 -236c-60 0 -108 35 -108 93s47 103 85 132c-136 7 -239 114 -239 268c0 157 111 271 250 271c129 0 245 -102 240 -296h-405c9 -114 86 -170 168 -170c71 0 118 32 138 82h87c-20 -75 -82 -133 -169 -150c-58 -57 -88 -94 -88 -136c0 -25 15 -43 42 -43
c25 0 39 13 45 28h63c-9 -45 -52 -79 -109 -79zM130 303h310c-11 104 -74 151 -148 151c-69 0 -142 -44 -162 -151z" />
    <glyph glyph-name="gbreve" unicode="&#x11f;" horiz-adv-x="609" 
d="M293 -219c-118 0 -213 59 -238 164h90c24 -63 78 -88 148 -88c128 0 158 82 158 180v68c-31 -61 -95 -105 -175 -105c-136 0 -234 118 -234 265c0 145 98 263 234 263c81 0 146 -49 178 -109v96h79v-478c0 -170 -87 -256 -240 -256zM289 75c88 0 162 66 162 187
c0 123 -74 191 -162 191c-89 0 -163 -68 -163 -191c0 -121 74 -187 163 -187zM283 593c-85 0 -139 60 -146 141h61c9 -36 33 -69 86 -69c52 0 77 33 85 69h61c-7 -81 -61 -141 -147 -141z" />
    <glyph glyph-name="gcircumflex" unicode="&#x11d;" horiz-adv-x="609" 
d="M293 -219c-118 0 -213 59 -238 164h90c24 -63 78 -88 148 -88c128 0 158 82 158 180v68c-31 -61 -95 -105 -175 -105c-136 0 -234 118 -234 265c0 145 98 263 234 263c81 0 146 -49 178 -109v96h79v-478c0 -170 -87 -256 -240 -256zM289 75c88 0 162 66 162 187
c0 123 -74 191 -162 191c-89 0 -163 -68 -163 -191c0 -121 74 -187 163 -187zM139 593l113 154h64l114 -154h-74l-72 79l-72 -79h-73z" />
    <glyph glyph-name="gcommaaccent" unicode="&#x123;" horiz-adv-x="609" 
d="M293 -219c-118 0 -213 59 -238 164h90c24 -63 78 -88 148 -88c128 0 158 82 158 180v68c-31 -61 -95 -105 -175 -105c-136 0 -234 118 -234 265c0 145 98 263 234 263c81 0 146 -49 178 -109v96h79v-478c0 -170 -87 -256 -240 -256zM289 75c88 0 162 66 162 187
c0 123 -74 191 -162 191c-89 0 -163 -68 -163 -191c0 -121 74 -187 163 -187zM328 821v-46c-32 -3 -53 -22 -53 -61v-15h52v-105h-103v120c0 72 49 103 104 107z" />
    <glyph glyph-name="hcircumflex" unicode="&#x125;" horiz-adv-x="571" 
d="M78 0v744h82v-300c35 53 85 84 153 84c112 0 182 -84 182 -212v-316h-82v319c0 79 -39 132 -119 132c-76 0 -134 -53 -134 -130v-321h-82zM137 773l113 154h64l114 -154h-74l-72 79l-72 -79h-73z" />
    <glyph glyph-name="imacron" unicode="&#x12b;" horiz-adv-x="240" 
d="M79 0v515h82v-515h-82zM-11 662v70h262v-70h-262z" />
    <glyph glyph-name="iogonek" unicode="&#x12f;" horiz-adv-x="240" 
d="M79 0v515h82v-515c-63 -61 -95 -99 -95 -142c0 -25 15 -43 42 -43c25 0 39 13 45 28h63c-9 -45 -52 -79 -109 -79c-60 0 -108 35 -108 93c0 66 63 116 102 143h-22zM75 613v101h90v-101h-90z" />
    <glyph glyph-name="jcircumflex" unicode="&#x135;" horiz-adv-x="240" 
d="M-14 -209v74h16c50 0 77 22 77 80v570h82v-571c0 -99 -62 -153 -159 -153h-16zM-25 633l113 154h64l114 -154h-74l-72 79l-72 -79h-73z" />
    <glyph glyph-name="kcommaaccent" unicode="&#x137;" horiz-adv-x="527" 
d="M413 0l-168 251l-85 -90v-161h-82v744h82v-479l234 250h101l-191 -202l209 -313h-100zM232 -285v46c32 3 53 22 53 61v15h-52v105h103v-120c0 -72 -49 -103 -104 -107z" />
    <glyph glyph-name="lacute" unicode="&#x13a;" horiz-adv-x="242" 
d="M80 0v744h82v-744h-82zM82 773l64 147h109l-97 -147h-76z" />
    <glyph glyph-name="lcommaaccent" unicode="&#x13c;" horiz-adv-x="242" 
d="M80 0v744h82v-744h-82zM67 -285v46c32 3 53 22 53 61v15h-52v105h103v-120c0 -72 -49 -103 -104 -107z" />
    <glyph glyph-name="nacute" unicode="&#x144;" horiz-adv-x="571" 
d="M78 0v515h79v-74c39 57 88 87 156 87c112 0 182 -84 182 -212v-316h-82v319c0 79 -39 132 -119 132c-76 0 -134 -53 -134 -130v-321h-82zM264 593l64 147h109l-97 -147h-76z" />
    <glyph glyph-name="ncaron" unicode="&#x148;" horiz-adv-x="571" 
d="M78 0v515h79v-74c39 57 88 87 156 87c112 0 182 -84 182 -212v-316h-82v319c0 79 -39 132 -119 132c-76 0 -134 -53 -134 -130v-321h-82zM260 590l-114 154h74l72 -79l72 79h73l-113 -154h-64z" />
    <glyph glyph-name="ncommaaccent" unicode="&#x146;" horiz-adv-x="571" 
d="M78 0v515h79v-74c39 57 88 87 156 87c112 0 182 -84 182 -212v-316h-82v319c0 79 -39 132 -119 132c-76 0 -134 -53 -134 -130v-321h-82zM236 -285v46c32 3 53 22 53 61v15h-52v105h103v-120c0 -72 -49 -103 -104 -107z" />
    <glyph glyph-name="ohungarumlaut" unicode="&#x151;" horiz-adv-x="578" 
d="M289 -12c-138 0 -247 114 -247 268c0 156 109 272 247 272c140 0 247 -116 247 -272c0 -154 -107 -268 -247 -268zM289 63c87 0 163 69 163 193c0 126 -76 197 -163 197c-86 0 -162 -71 -162 -197c0 -124 76 -193 162 -193zM319 593l55 147h99l-78 -147h-76zM156 593
l55 147h99l-78 -147h-76z" />
    <glyph glyph-name="omacron" unicode="&#x14d;" horiz-adv-x="578" 
d="M289 -12c-138 0 -247 114 -247 268c0 156 109 272 247 272c140 0 247 -116 247 -272c0 -154 -107 -268 -247 -268zM289 63c87 0 163 69 163 193c0 126 -76 197 -163 197c-86 0 -162 -71 -162 -197c0 -124 76 -193 162 -193zM159 622v70h262v-70h-262z" />
    <glyph glyph-name="racute" unicode="&#x155;" horiz-adv-x="361" 
d="M78 0v515h79v-87c40 73 113 99 170 92v-83c-90 8 -167 -35 -167 -139v-298h-82zM175 593l64 147h109l-97 -147h-76z" />
    <glyph glyph-name="rcaron" unicode="&#x159;" horiz-adv-x="361" 
d="M78 0v515h79v-87c40 73 113 99 170 92v-83c-90 8 -167 -35 -167 -139v-298h-82zM175 590l-114 154h74l72 -79l72 79h73l-113 -154h-64z" />
    <glyph glyph-name="rcommaaccent" unicode="&#x157;" horiz-adv-x="361" 
d="M78 0v515h79v-87c40 73 113 99 170 92v-83c-90 8 -167 -35 -167 -139v-298h-82zM69 -285v46c32 3 53 22 53 61v15h-52v105h103v-120c0 -72 -49 -103 -104 -107z" />
    <glyph glyph-name="sacute" unicode="&#x15b;" horiz-adv-x="505" 
d="M261 -13c-121 0 -209 65 -223 164h83c13 -50 61 -89 140 -89c78 0 125 35 125 79c0 45 -17 67 -136 84c-120 17 -194 52 -194 153c0 73 55 150 193 150c115 0 190 -59 203 -151h-83c-13 48 -59 76 -120 76c-74 0 -111 -33 -111 -72c0 -43 28 -60 126 -76
c115 -19 202 -38 202 -161c0 -101 -86 -157 -205 -157zM213 593l64 147h109l-97 -147h-76z" />
    <glyph glyph-name="scedilla" unicode="&#x15f;" horiz-adv-x="505" 
d="M466 144c0 -94 -74 -148 -179 -156l-28 -43c4 1 9 1 14 1c49 0 92 -34 92 -89c0 -62 -52 -93 -109 -93s-107 31 -115 79h63c7 -16 23 -28 48 -28c27 0 46 17 46 41c0 25 -20 43 -45 43c-16 0 -29 -8 -38 -16l-35 28l45 78c-103 11 -175 73 -187 162h83
c13 -50 61 -89 140 -89c78 0 125 35 125 79c0 45 -17 67 -136 84c-120 17 -194 52 -194 153c0 73 55 150 193 150c115 0 190 -59 203 -151h-83c-13 48 -59 76 -120 76c-74 0 -111 -33 -111 -72c0 -43 28 -60 126 -76c115 -19 202 -38 202 -161z" />
    <glyph glyph-name="scedilla" unicode="&#xf6c2;" horiz-adv-x="505" 
d="M466 144c0 -94 -74 -148 -179 -156l-28 -43c4 1 9 1 14 1c49 0 92 -34 92 -89c0 -62 -52 -93 -109 -93s-107 31 -115 79h63c7 -16 23 -28 48 -28c27 0 46 17 46 41c0 25 -20 43 -45 43c-16 0 -29 -8 -38 -16l-35 28l45 78c-103 11 -175 73 -187 162h83
c13 -50 61 -89 140 -89c78 0 125 35 125 79c0 45 -17 67 -136 84c-120 17 -194 52 -194 153c0 73 55 150 193 150c115 0 190 -59 203 -151h-83c-13 48 -59 76 -120 76c-74 0 -111 -33 -111 -72c0 -43 28 -60 126 -76c115 -19 202 -38 202 -161z" />
    <glyph glyph-name="scircumflex" unicode="&#x15d;" horiz-adv-x="505" 
d="M261 -13c-121 0 -209 65 -223 164h83c13 -50 61 -89 140 -89c78 0 125 35 125 79c0 45 -17 67 -136 84c-120 17 -194 52 -194 153c0 73 55 150 193 150c115 0 190 -59 203 -151h-83c-13 48 -59 76 -120 76c-74 0 -111 -33 -111 -72c0 -43 28 -60 126 -76
c115 -19 202 -38 202 -161c0 -101 -86 -157 -205 -157zM106 593l113 154h64l114 -154h-74l-72 79l-72 -79h-73z" />
    <glyph glyph-name="scommaaccent" unicode="&#x219;" horiz-adv-x="505" 
d="M261 -13c-121 0 -209 65 -223 164h83c13 -50 61 -89 140 -89c78 0 125 35 125 79c0 45 -17 67 -136 84c-120 17 -194 52 -194 153c0 73 55 150 193 150c115 0 190 -59 203 -151h-83c-13 48 -59 76 -120 76c-74 0 -111 -33 -111 -72c0 -43 28 -60 126 -76
c115 -19 202 -38 202 -161c0 -101 -86 -157 -205 -157zM210 -285v46c32 3 53 22 53 61v15h-52v105h103v-120c0 -72 -49 -103 -104 -107z" />
    <glyph glyph-name="tcommaaccent" unicode="&#x163;" horiz-adv-x="338" 
d="M273 -9c-108 0 -175 63 -175 189v259h-75v76h75v147h82v-147h117v-76h-117v-259c0 -85 40 -113 101 -113c14 0 24 2 24 2v-75s-13 -3 -32 -3zM142 -285v46c32 3 53 22 53 61v15h-52v105h103v-120c0 -72 -49 -103 -104 -107z" />
    <glyph glyph-name="tcommaaccent" unicode="&#x21b;" horiz-adv-x="338" 
d="M273 -9c-108 0 -175 63 -175 189v259h-75v76h75v147h82v-147h117v-76h-117v-259c0 -85 40 -113 101 -113c14 0 24 2 24 2v-75s-13 -3 -32 -3zM142 -285v46c32 3 53 22 53 61v15h-52v105h103v-120c0 -72 -49 -103 -104 -107z" />
    <glyph glyph-name="ubreve" unicode="&#x16d;" horiz-adv-x="571" 
d="M258 -12c-112 0 -182 83 -182 211v316h82v-319c0 -79 39 -131 119 -131c76 0 134 52 134 129v321h82v-515h-79v74c-39 -57 -88 -86 -156 -86zM283 593c-85 0 -139 60 -146 141h61c9 -36 33 -69 86 -69c52 0 77 33 85 69h61c-7 -81 -61 -141 -147 -141z" />
    <glyph glyph-name="uhungarumlaut" unicode="&#x171;" horiz-adv-x="571" 
d="M258 -12c-112 0 -182 83 -182 211v316h82v-319c0 -79 39 -131 119 -131c76 0 134 52 134 129v321h82v-515h-79v74c-39 -57 -88 -86 -156 -86zM323 593l55 147h99l-78 -147h-76zM160 593l55 147h99l-78 -147h-76z" />
    <glyph glyph-name="umacron" unicode="&#x16b;" horiz-adv-x="571" 
d="M258 -12c-112 0 -182 83 -182 211v316h82v-319c0 -79 39 -131 119 -131c76 0 134 52 134 129v321h82v-515h-79v74c-39 -57 -88 -86 -156 -86zM153 622v70h262v-70h-262z" />
    <glyph glyph-name="uogonek" unicode="&#x173;" horiz-adv-x="571" 
d="M439 -236c-60 0 -108 35 -108 93c0 66 63 116 102 143h-19v74c-39 -57 -88 -86 -156 -86c-112 0 -182 83 -182 211v316h82v-319c0 -79 39 -131 119 -131c76 0 134 52 134 129v321h82v-515c-63 -61 -95 -99 -95 -142c0 -25 15 -43 42 -43c25 0 39 13 45 28h63
c-9 -45 -52 -79 -109 -79z" />
    <glyph glyph-name="uring" unicode="&#x16f;" horiz-adv-x="571" 
d="M258 -12c-112 0 -182 83 -182 211v316h82v-319c0 -79 39 -131 119 -131c76 0 134 52 134 129v321h82v-515h-79v74c-39 -57 -88 -86 -156 -86zM283 570c-63 0 -113 49 -113 111c0 64 50 112 113 112c62 0 113 -48 113 -112c0 -62 -51 -111 -113 -111zM283 616
c35 0 61 28 61 65s-26 66 -61 66s-61 -29 -61 -66s26 -65 61 -65z" />
    <glyph glyph-name="zacute" unicode="&#x17a;" horiz-adv-x="463" 
d="M33 0v67l285 372h-271v76h374v-72l-281 -367h290v-76h-397zM194 593l64 147h109l-97 -147h-76z" />
    <glyph glyph-name="zdotaccent" unicode="&#x17c;" horiz-adv-x="463" 
d="M33 0v67l285 372h-271v76h374v-72l-281 -367h290v-76h-397zM186 593v95h92v-95h-92z" />
    <glyph glyph-name="Aacute.sc" horiz-adv-x="566" 
d="M29 0l209 578h92l205 -578h-86l-50 144h-235l-50 -144h-85zM263 423l-72 -204h182l-70 204c-9 28 -19 70 -20 76c-1 -5 -10 -48 -20 -76zM251 621l64 147h109l-97 -147h-76z" />
    <glyph glyph-name="Abreve.sc" horiz-adv-x="566" 
d="M29 0l209 578h92l205 -578h-86l-50 144h-235l-50 -144h-85zM263 423l-72 -204h182l-70 204c-9 28 -19 70 -20 76c-1 -5 -10 -48 -20 -76zM282 621c-85 0 -139 60 -146 141h61c9 -36 33 -69 86 -69c52 0 77 33 85 69h61c-7 -81 -61 -141 -147 -141z" />
    <glyph glyph-name="Acircumflex.sc" horiz-adv-x="566" 
d="M29 0l209 578h92l205 -578h-86l-50 144h-235l-50 -144h-85zM263 423l-72 -204h182l-70 204c-9 28 -19 70 -20 76c-1 -5 -10 -48 -20 -76zM138 621l113 154h64l114 -154h-74l-72 79l-72 -79h-73z" />
    <glyph glyph-name="Adieresis.sc" horiz-adv-x="566" 
d="M29 0l209 578h92l205 -578h-86l-50 144h-235l-50 -144h-85zM263 423l-72 -204h182l-70 204c-9 28 -19 70 -20 76c-1 -5 -10 -48 -20 -76zM329 621v95h93v-95h-93zM144 621v95h92v-95h-92z" />
    <glyph glyph-name="Agrave.sc" horiz-adv-x="566" 
d="M29 0l209 578h92l205 -578h-86l-50 144h-235l-50 -144h-85zM263 423l-72 -204h182l-70 204c-9 28 -19 70 -20 76c-1 -5 -10 -48 -20 -76zM239 621l-97 147h109l64 -147h-76z" />
    <glyph glyph-name="Amacron.sc" horiz-adv-x="566" 
d="M29 0l209 578h92l205 -578h-86l-50 144h-235l-50 -144h-85zM263 423l-72 -204h182l-70 204c-9 28 -19 70 -20 76c-1 -5 -10 -48 -20 -76zM152 650v70h262v-70h-262z" />
    <glyph glyph-name="Aogonek.sc" horiz-adv-x="566" 
d="M467 -236c-60 0 -108 35 -108 93c0 66 63 116 102 143h-12l-50 144h-235l-50 -144h-85l209 578h92l205 -578h-14c-63 -61 -95 -99 -95 -142c0 -25 15 -43 42 -43c25 0 39 13 45 28h63c-9 -45 -52 -79 -109 -79zM263 423l-72 -204h182l-70 204c-9 26 -18 66 -20 75
c-2 -8 -11 -49 -20 -75z" />
    <glyph glyph-name="Aring.sc" horiz-adv-x="566" 
d="M29 0l209 578h92l205 -578h-86l-50 144h-235l-50 -144h-85zM263 423l-72 -204h182l-70 204c-9 28 -19 70 -20 76c-1 -5 -10 -48 -20 -76zM282 598c-63 0 -113 49 -113 111c0 64 50 112 113 112c62 0 113 -48 113 -112c0 -62 -51 -111 -113 -111zM282 644
c35 0 61 28 61 65s-26 66 -61 66s-61 -29 -61 -66s26 -65 61 -65z" />
    <glyph glyph-name="Atilde.sc" horiz-adv-x="566" 
d="M29 0l209 578h92l205 -578h-86l-50 144h-235l-50 -144h-85zM263 423l-72 -204h182l-70 204c-9 28 -19 70 -20 76c-1 -5 -10 -48 -20 -76zM120 618c7 67 46 120 104 120c57 0 91 -47 126 -47c24 0 37 20 40 47h56c-7 -67 -46 -120 -104 -120c-57 0 -91 47 -126 47
c-23 0 -37 -20 -40 -47h-56z" />
    <glyph glyph-name="Cacute.sc" horiz-adv-x="624" 
d="M331 -10c-152 0 -279 125 -279 300s125 300 278 300c133 0 220 -74 252 -190h-84c-25 68 -79 115 -168 115c-109 0 -192 -91 -192 -225c0 -135 84 -226 193 -226c81 0 145 49 168 120h86c-35 -119 -124 -194 -254 -194zM288 621l64 147h109l-97 -147h-76z" />
    <glyph glyph-name="Ccaron.sc" horiz-adv-x="624" 
d="M331 -10c-152 0 -279 125 -279 300s125 300 278 300c133 0 220 -74 252 -190h-84c-25 68 -79 115 -168 115c-109 0 -192 -91 -192 -225c0 -135 84 -226 193 -226c81 0 145 49 168 120h86c-35 -119 -124 -194 -254 -194zM294 618l-114 154h74l72 -79l72 79h73l-113 -154
h-64z" />
    <glyph glyph-name="Ccedilla.sc" horiz-adv-x="624" 
d="M585 184c-33 -111 -113 -184 -229 -193l-30 -46c4 1 9 1 14 1c49 0 92 -34 92 -89c0 -62 -52 -93 -109 -93s-107 31 -115 79h63c7 -16 23 -28 48 -28c27 0 46 17 46 41c0 25 -20 43 -45 43c-16 0 -29 -8 -38 -16l-35 28l46 82c-134 18 -241 136 -241 297
c0 175 125 300 278 300c133 0 220 -74 252 -190h-84c-25 68 -79 115 -168 115c-109 0 -192 -91 -192 -225c0 -135 84 -226 193 -226c81 0 145 49 168 120h86z" />
    <glyph glyph-name="Ccircumflex.sc" horiz-adv-x="624" 
d="M331 -10c-152 0 -279 125 -279 300s125 300 278 300c133 0 220 -74 252 -190h-84c-25 68 -79 115 -168 115c-109 0 -192 -91 -192 -225c0 -135 84 -226 193 -226c81 0 145 49 168 120h86c-35 -119 -124 -194 -254 -194zM185 621l113 154h64l114 -154h-74l-72 79l-72 -79
h-73z" />
    <glyph glyph-name="Dcaron.sc" horiz-adv-x="605" 
d="M85 0v578h197c166 0 271 -110 271 -289c0 -178 -106 -289 -271 -289h-197zM169 75h113c119 0 185 81 185 214c0 141 -68 214 -185 214h-113v-428zM247 618l-114 154h74l72 -79l72 79h73l-113 -154h-64z" />
    <glyph glyph-name="Eacute.sc" 
d="M85 0v578h403v-76h-319v-160h273v-76h-273v-190h324v-76h-408zM242 621l64 147h109l-97 -147h-76z" />
    <glyph glyph-name="Ecaron.sc" 
d="M85 0v578h403v-76h-319v-160h273v-76h-273v-190h324v-76h-408zM257 618l-114 154h74l72 -79l72 79h73l-113 -154h-64z" />
    <glyph glyph-name="Ecircumflex.sc" 
d="M85 0v578h403v-76h-319v-160h273v-76h-273v-190h324v-76h-408zM140 621l113 154h64l114 -154h-74l-72 79l-72 -79h-73z" />
    <glyph glyph-name="Edieresis.sc" 
d="M85 0v578h403v-76h-319v-160h273v-76h-273v-190h324v-76h-408zM336 621v95h93v-95h-93zM151 621v95h92v-95h-92z" />
    <glyph glyph-name="Edotaccent.sc" 
d="M85 0v578h403v-76h-319v-160h273v-76h-273v-190h324v-76h-408zM246 621v95h92v-95h-92z" />
    <glyph glyph-name="Egrave.sc" 
d="M85 0v578h403v-76h-319v-160h273v-76h-273v-190h324v-76h-408zM254 621l-97 147h109l64 -147h-76z" />
    <glyph glyph-name="Emacron.sc" 
d="M85 0v578h403v-76h-319v-160h273v-76h-273v-190h324v-76h-408zM155 650v70h262v-70h-262z" />
    <glyph glyph-name="Eogonek.sc" 
d="M85 0v578h403v-76h-319v-160h273v-76h-273v-190h324v-76h-23c-63 -61 -95 -99 -95 -142c0 -25 15 -43 42 -43c25 0 39 13 45 28h63c-9 -45 -52 -79 -109 -79c-60 0 -108 35 -108 93c0 66 63 116 102 143h-325z" />
    <glyph glyph-name="Gbreve.sc" horiz-adv-x="658" 
d="M330 -10c-154 0 -278 124 -278 300c0 175 125 300 278 300c115 0 219 -63 250 -187h-87c-24 75 -88 112 -163 112c-112 0 -192 -91 -192 -225c0 -135 82 -226 193 -226c105 0 177 74 185 162h-159v76h238v-302h-78v88c-35 -54 -95 -98 -187 -98zM325 621
c-85 0 -139 60 -146 141h61c9 -36 33 -69 86 -69c52 0 77 33 85 69h61c-7 -81 -61 -141 -147 -141z" />
    <glyph glyph-name="Gcircumflex.sc" horiz-adv-x="658" 
d="M330 -10c-154 0 -278 124 -278 300c0 175 125 300 278 300c115 0 219 -63 250 -187h-87c-24 75 -88 112 -163 112c-112 0 -192 -91 -192 -225c0 -135 82 -226 193 -226c105 0 177 74 185 162h-159v76h238v-302h-78v88c-35 -54 -95 -98 -187 -98zM190 621l113 154h64
l114 -154h-74l-72 79l-72 -79h-73z" />
    <glyph glyph-name="Gcommaaccent.sc" horiz-adv-x="658" 
d="M330 -10c-154 0 -278 124 -278 300c0 175 125 300 278 300c115 0 219 -63 250 -187h-87c-24 75 -88 112 -163 112c-112 0 -192 -91 -192 -225c0 -135 82 -226 193 -226c105 0 177 74 185 162h-159v76h238v-302h-78v88c-35 -54 -95 -98 -187 -98zM275 -285v46
c32 3 53 22 53 61v15h-52v105h103v-120c0 -72 -49 -103 -104 -107z" />
    <glyph glyph-name="Hcircumflex.sc" horiz-adv-x="621" 
d="M85 0v578h84v-239h283v239h84v-578h-84v263h-283v-263h-84zM167 621l113 154h64l114 -154h-74l-72 79l-72 -79h-73z" />
    <glyph glyph-name="Iacute.sc" horiz-adv-x="259" 
d="M87 0v578h84v-578h-84zM98 621l64 147h109l-97 -147h-76z" />
    <glyph glyph-name="Icircumflex.sc" horiz-adv-x="259" 
d="M87 0v578h84v-578h-84zM-15 621l113 154h64l114 -154h-74l-72 79l-72 -79h-73z" />
    <glyph glyph-name="Idieresis.sc" horiz-adv-x="259" 
d="M87 0v578h84v-578h-84zM176 621v95h93v-95h-93zM-9 621v95h92v-95h-92z" />
    <glyph glyph-name="Idotaccent.sc" horiz-adv-x="259" 
d="M87 0v578h84v-578h-84zM84 621v95h92v-95h-92z" />
    <glyph glyph-name="Igrave.sc" horiz-adv-x="259" 
d="M87 0v578h84v-578h-84zM86 621l-97 147h109l64 -147h-76z" />
    <glyph glyph-name="Imacron.sc" horiz-adv-x="259" 
d="M87 0v578h84v-578h-84zM-1 650v70h262v-70h-262z" />
    <glyph glyph-name="Iogonek.sc" horiz-adv-x="259" 
d="M87 0v578h84v-578c-63 -61 -95 -99 -95 -142c0 -25 15 -43 42 -43c25 0 39 13 45 28h63c-9 -45 -52 -79 -109 -79c-60 0 -108 35 -108 93c0 66 63 116 102 143h-24z" />
    <glyph glyph-name="Jcircumflex.sc" horiz-adv-x="484" 
d="M223 -10c-112 0 -184 78 -184 192v11h83v-12c0 -61 28 -116 101 -116s101 49 101 124v389h85v-388c0 -120 -65 -200 -186 -200zM221 621l113 154h64l114 -154h-74l-72 79l-72 -79h-73z" />
    <glyph glyph-name="Kcommaaccent.sc" horiz-adv-x="569" 
d="M443 0l-192 285l-87 -90v-195h-79v578h79v-282l268 282h100l-225 -234l233 -344h-97zM236 -285v46c32 3 53 22 53 61v15h-52v105h103v-120c0 -72 -49 -103 -104 -107z" />
    <glyph glyph-name="Lacute.sc" horiz-adv-x="490" 
d="M85 0v578h84v-502h280v-76h-364zM90 621l64 147h109l-97 -147h-76z" />
    <glyph glyph-name="Lcommaaccent.sc" horiz-adv-x="490" 
d="M85 0v578h84v-502h280v-76h-364zM212 -285v46c32 3 53 22 53 61v15h-52v105h103v-120c0 -72 -49 -103 -104 -107z" />
    <glyph glyph-name="Nacute.sc" horiz-adv-x="617" 
d="M85 0v578h96l271 -448v448h80v-578h-92l-275 455v-455h-80zM279 621l64 147h109l-97 -147h-76z" />
    <glyph glyph-name="Ncaron.sc" horiz-adv-x="617" 
d="M85 0v578h96l271 -448v448h80v-578h-92l-275 455v-455h-80zM281 618l-114 154h74l72 -79l72 79h73l-113 -154h-64z" />
    <glyph glyph-name="Ncommaaccent.sc" horiz-adv-x="617" 
d="M85 0v578h96l271 -448v448h80v-578h-92l-275 455v-455h-80zM252 -285v46c32 3 53 22 53 61v15h-52v105h103v-120c0 -72 -49 -103 -104 -107z" />
    <glyph glyph-name="Ntilde.sc" horiz-adv-x="617" 
d="M85 0v578h96l271 -448v448h80v-578h-92l-275 455v-455h-80zM153 618c7 67 46 120 104 120c57 0 91 -47 126 -47c24 0 37 20 40 47h56c-7 -67 -46 -120 -104 -120c-57 0 -91 47 -126 47c-23 0 -37 -20 -40 -47h-56z" />
    <glyph glyph-name="Oacute.sc" horiz-adv-x="665" 
d="M333 -10c-156 0 -281 125 -281 300s125 300 281 300c157 0 280 -123 280 -300c0 -174 -124 -300 -280 -300zM333 65c110 0 194 91 194 225c0 136 -83 224 -194 224s-194 -91 -194 -224c0 -135 83 -225 194 -225zM302 621l64 147h109l-97 -147h-76z" />
    <glyph glyph-name="Ocircumflex.sc" horiz-adv-x="665" 
d="M333 -10c-156 0 -281 125 -281 300s125 300 281 300c157 0 280 -123 280 -300c0 -174 -124 -300 -280 -300zM333 65c110 0 194 91 194 225c0 136 -83 224 -194 224s-194 -91 -194 -224c0 -135 83 -225 194 -225zM189 621l113 154h64l114 -154h-74l-72 79l-72 -79h-73z
" />
    <glyph glyph-name="Odieresis.sc" horiz-adv-x="665" 
d="M333 -10c-156 0 -281 125 -281 300s125 300 281 300c157 0 280 -123 280 -300c0 -174 -124 -300 -280 -300zM333 65c110 0 194 91 194 225c0 136 -83 224 -194 224s-194 -91 -194 -224c0 -135 83 -225 194 -225zM380 621v95h93v-95h-93zM195 621v95h92v-95h-92z" />
    <glyph glyph-name="Ograve.sc" horiz-adv-x="665" 
d="M333 -10c-156 0 -281 125 -281 300s125 300 281 300c157 0 280 -123 280 -300c0 -174 -124 -300 -280 -300zM333 65c110 0 194 91 194 225c0 136 -83 224 -194 224s-194 -91 -194 -224c0 -135 83 -225 194 -225zM290 621l-97 147h109l64 -147h-76z" />
    <glyph glyph-name="Ohungarumlaut.sc" horiz-adv-x="665" 
d="M333 -10c-156 0 -281 125 -281 300s125 300 281 300c157 0 280 -123 280 -300c0 -174 -124 -300 -280 -300zM333 65c110 0 194 91 194 225c0 136 -83 224 -194 224s-194 -91 -194 -224c0 -135 83 -225 194 -225zM373 621l55 147h99l-78 -147h-76zM210 621l55 147h99
l-78 -147h-76z" />
    <glyph glyph-name="Omacron.sc" horiz-adv-x="665" 
d="M333 -10c-156 0 -281 125 -281 300s125 300 281 300c157 0 280 -123 280 -300c0 -174 -124 -300 -280 -300zM333 65c110 0 194 91 194 225c0 136 -83 224 -194 224s-194 -91 -194 -224c0 -135 83 -225 194 -225zM203 650v70h262v-70h-262z" />
    <glyph glyph-name="Otilde.sc" horiz-adv-x="665" 
d="M333 -10c-156 0 -281 125 -281 300s125 300 281 300c157 0 280 -123 280 -300c0 -174 -124 -300 -280 -300zM333 65c110 0 194 91 194 225c0 136 -83 224 -194 224s-194 -91 -194 -224c0 -135 83 -225 194 -225zM171 618c7 67 46 120 104 120c57 0 91 -47 126 -47
c24 0 37 20 40 47h56c-7 -67 -46 -120 -104 -120c-57 0 -91 47 -126 47c-23 0 -37 -20 -40 -47h-56z" />
    <glyph glyph-name="Racute.sc" horiz-adv-x="587" 
d="M85 0v578h247c116 0 187 -69 187 -172c0 -59 -27 -104 -87 -131c48 -18 68 -54 73 -118l5 -72c3 -37 12 -68 19 -85h-82c-7 16 -14 39 -17 77l-4 74c-4 58 -28 84 -89 84h-170v-235h-82zM167 310h171c53 0 99 30 99 95c0 59 -31 97 -105 97h-165v-192zM246 621l64 147
h109l-97 -147h-76z" />
    <glyph glyph-name="Rcaron.sc" horiz-adv-x="587" 
d="M85 0v578h247c116 0 187 -69 187 -172c0 -59 -27 -104 -87 -131c48 -18 68 -54 73 -118l5 -72c3 -37 12 -68 19 -85h-82c-7 16 -14 39 -17 77l-4 74c-4 58 -28 84 -89 84h-170v-235h-82zM167 310h171c53 0 99 30 99 95c0 59 -31 97 -105 97h-165v-192zM254 618l-114 154
h74l72 -79l72 79h73l-113 -154h-64z" />
    <glyph glyph-name="Rcommaaccent.sc" horiz-adv-x="587" 
d="M85 0v578h247c116 0 187 -69 187 -172c0 -59 -27 -104 -87 -131c48 -18 68 -54 73 -118l5 -72c3 -37 12 -68 19 -85h-82c-7 16 -14 39 -17 77l-4 74c-4 58 -28 84 -89 84h-170v-235h-82zM167 310h171c53 0 99 30 99 95c0 59 -31 97 -105 97h-165v-192zM255 -285v46
c32 3 53 22 53 61v15h-52v105h103v-120c0 -72 -49 -103 -104 -107z" />
    <glyph glyph-name="Sacute.sc" horiz-adv-x="547" 
d="M278 -10c-128 0 -226 78 -229 191h83c3 -73 64 -117 146 -117c85 0 135 36 135 94c0 50 -27 79 -145 103c-125 27 -199 65 -199 171c0 99 80 158 197 158c134 0 206 -74 213 -172h-82c-4 55 -46 97 -129 97c-75 0 -118 -30 -118 -82c0 -47 28 -70 137 -94
c132 -28 207 -64 207 -180c0 -109 -89 -169 -216 -169zM232 621l64 147h109l-97 -147h-76z" />
    <glyph glyph-name="Scaron.sc" horiz-adv-x="547" 
d="M278 -10c-128 0 -226 78 -229 191h83c3 -73 64 -117 146 -117c85 0 135 36 135 94c0 50 -27 79 -145 103c-125 27 -199 65 -199 171c0 99 80 158 197 158c134 0 206 -74 213 -172h-82c-4 55 -46 97 -129 97c-75 0 -118 -30 -118 -82c0 -47 28 -70 137 -94
c132 -28 207 -64 207 -180c0 -109 -89 -169 -216 -169zM236 618l-114 154h74l72 -79l72 79h73l-113 -154h-64z" />
    <glyph glyph-name="Scedilla.sc" horiz-adv-x="547" 
d="M494 159c0 -99 -73 -157 -181 -167l-30 -47c4 1 9 1 14 1c49 0 92 -34 92 -89c0 -62 -52 -93 -109 -93s-107 31 -115 79h63c7 -16 23 -28 48 -28c27 0 46 17 46 41c0 25 -20 43 -45 43c-16 0 -29 -8 -38 -16l-35 28l46 81c-114 10 -198 84 -201 189h83
c3 -73 64 -117 146 -117c85 0 135 36 135 94c0 50 -27 79 -145 103c-125 27 -199 65 -199 171c0 99 80 158 197 158c134 0 206 -74 213 -172h-82c-4 55 -46 97 -129 97c-75 0 -118 -30 -118 -82c0 -47 28 -70 137 -94c132 -28 207 -64 207 -180z" />
    <glyph glyph-name="Scircumflex.sc" horiz-adv-x="547" 
d="M278 -10c-128 0 -226 78 -229 191h83c3 -73 64 -117 146 -117c85 0 135 36 135 94c0 50 -27 79 -145 103c-125 27 -199 65 -199 171c0 99 80 158 197 158c134 0 206 -74 213 -172h-82c-4 55 -46 97 -129 97c-75 0 -118 -30 -118 -82c0 -47 28 -70 137 -94
c132 -28 207 -64 207 -180c0 -109 -89 -169 -216 -169zM123 621l113 154h64l114 -154h-74l-72 79l-72 -79h-73z" />
    <glyph glyph-name="Scommaaccent.sc" horiz-adv-x="547" 
d="M278 -10c-128 0 -226 78 -229 191h83c3 -73 64 -117 146 -117c85 0 135 36 135 94c0 50 -27 79 -145 103c-125 27 -199 65 -199 171c0 99 80 158 197 158c134 0 206 -74 213 -172h-82c-4 55 -46 97 -129 97c-75 0 -118 -30 -118 -82c0 -47 28 -70 137 -94
c132 -28 207 -64 207 -180c0 -109 -89 -169 -216 -169zM226 -285v46c32 3 53 22 53 61v15h-52v105h103v-120c0 -72 -49 -103 -104 -107z" />
    <glyph glyph-name="Tcaron.sc" horiz-adv-x="495" 
d="M205 0v502h-169v76h422v-76h-169v-502h-84zM214 618l-114 154h74l72 -79l72 79h73l-113 -154h-64z" />
    <glyph glyph-name="Tcommaaccent.sc" horiz-adv-x="495" 
d="M205 0v502h-169v76h422v-76h-169v-502h-84zM193 -285v46c32 3 53 22 53 61v15h-52v105h103v-120c0 -72 -49 -103 -104 -107z" />
    <glyph glyph-name="Uacute.sc" horiz-adv-x="594" 
d="M297 -10c-132 0 -222 85 -222 229v359h84v-360c0 -100 50 -153 138 -153c90 0 138 53 138 153v360h84v-359c0 -144 -90 -229 -222 -229zM262 621l64 147h109l-97 -147h-76z" />
    <glyph glyph-name="Ubreve.sc" horiz-adv-x="594" 
d="M297 -10c-132 0 -222 85 -222 229v359h84v-360c0 -100 50 -153 138 -153c90 0 138 53 138 153v360h84v-359c0 -144 -90 -229 -222 -229zM297 621c-85 0 -139 60 -146 141h61c9 -36 33 -69 86 -69c52 0 77 33 85 69h61c-7 -81 -61 -141 -147 -141z" />
    <glyph glyph-name="Ucircumflex.sc" horiz-adv-x="594" 
d="M297 -10c-132 0 -222 85 -222 229v359h84v-360c0 -100 50 -153 138 -153c90 0 138 53 138 153v360h84v-359c0 -144 -90 -229 -222 -229zM153 621l113 154h64l114 -154h-74l-72 79l-72 -79h-73z" />
    <glyph glyph-name="Udieresis.sc" horiz-adv-x="594" 
d="M297 -10c-132 0 -222 85 -222 229v359h84v-360c0 -100 50 -153 138 -153c90 0 138 53 138 153v360h84v-359c0 -144 -90 -229 -222 -229zM344 621v95h93v-95h-93zM159 621v95h92v-95h-92z" />
    <glyph glyph-name="Ugrave.sc" horiz-adv-x="594" 
d="M297 -10c-132 0 -222 85 -222 229v359h84v-360c0 -100 50 -153 138 -153c90 0 138 53 138 153v360h84v-359c0 -144 -90 -229 -222 -229zM264 621l-97 147h109l64 -147h-76z" />
    <glyph glyph-name="Uhungarumlaut.sc" horiz-adv-x="594" 
d="M297 -10c-132 0 -222 85 -222 229v359h84v-360c0 -100 50 -153 138 -153c90 0 138 53 138 153v360h84v-359c0 -144 -90 -229 -222 -229zM339 621l55 147h99l-78 -147h-76zM176 621l55 147h99l-78 -147h-76z" />
    <glyph glyph-name="Umacron.sc" horiz-adv-x="594" 
d="M297 -10c-132 0 -222 85 -222 229v359h84v-360c0 -100 50 -153 138 -153c90 0 138 53 138 153v360h84v-359c0 -144 -90 -229 -222 -229zM167 650v70h262v-70h-262z" />
    <glyph glyph-name="Uogonek.sc" horiz-adv-x="594" 
d="M286 -236c-60 0 -108 35 -108 93c0 60 51 106 90 135c-116 11 -193 94 -193 227v359h84v-360c0 -100 50 -153 138 -153c90 0 138 53 138 153v360h84v-359c0 -131 -75 -213 -187 -227c-58 -56 -87 -93 -87 -134c0 -25 15 -43 42 -43c25 0 39 13 45 28h63
c-9 -45 -52 -79 -109 -79z" />
    <glyph glyph-name="Uring.sc" horiz-adv-x="594" 
d="M297 -10c-132 0 -222 85 -222 229v359h84v-360c0 -100 50 -153 138 -153c90 0 138 53 138 153v360h84v-359c0 -144 -90 -229 -222 -229zM297 598c-63 0 -113 49 -113 111c0 64 50 112 113 112c62 0 113 -48 113 -112c0 -62 -51 -111 -113 -111zM297 644c35 0 61 28 61 65
s-26 66 -61 66s-61 -29 -61 -66s26 -65 61 -65z" />
    <glyph glyph-name="Yacute.sc" horiz-adv-x="516" 
d="M216 0v234l-193 344h91l144 -263l145 263h89l-193 -344v-234h-83zM226 621l64 147h109l-97 -147h-76z" />
    <glyph glyph-name="Ydieresis.sc" horiz-adv-x="516" 
d="M216 0v234l-193 344h91l144 -263l145 263h89l-193 -344v-234h-83zM304 621v95h93v-95h-93zM119 621v95h92v-95h-92z" />
    <glyph glyph-name="Zacute.sc" horiz-adv-x="508" 
d="M42 0v69l320 433h-309v76h409v-73l-317 -428h319v-77h-422zM219 621l64 147h109l-97 -147h-76z" />
    <glyph glyph-name="Zcaron.sc" horiz-adv-x="508" 
d="M42 0v69l320 433h-309v76h409v-73l-317 -428h319v-77h-422zM219 618l-114 154h74l72 -79l72 79h73l-113 -154h-64z" />
    <glyph glyph-name="Zdotaccent.sc" horiz-adv-x="508" 
d="M42 0v69l320 433h-309v76h409v-73l-317 -428h319v-77h-422zM205 621v95h92v-95h-92z" />
    <glyph glyph-name="dcaron" unicode="&#x10f;" horiz-adv-x="651" 
d="M276 -12c-136 0 -234 121 -234 271c0 148 98 269 234 269c81 0 144 -48 175 -105v321h82v-744h-79v97c-32 -64 -98 -109 -178 -109zM289 63c88 0 162 69 162 193c0 126 -74 197 -162 197c-89 0 -163 -71 -163 -197c0 -124 74 -193 163 -193zM582 517v46c32 3 53 22 53 61
v15h-52v105h103v-120c0 -72 -49 -103 -104 -107z" />
    <glyph glyph-name="Lcaron" unicode="&#x13d;" horiz-adv-x="532" 
d="M86 0v680h88v-601h328v-79h-416zM378 453v46c32 3 53 22 53 61v15h-52v105h103v-120c0 -72 -49 -103 -104 -107z" />
    <glyph glyph-name="lcaron" unicode="&#x13e;" horiz-adv-x="280" 
d="M80 0v744h82v-744h-82zM211 517v46c32 3 53 22 53 61v15h-52v105h103v-120c0 -72 -49 -103 -104 -107z" />
    <glyph glyph-name="tcaron" unicode="&#x165;" horiz-adv-x="409" 
d="M273 -9c-108 0 -175 63 -175 189v259h-75v76h75v147h82v-147h117v-76h-117v-259c0 -85 40 -113 101 -113c14 0 24 2 24 2v-75s-13 -3 -32 -3zM340 517v46c32 3 53 22 53 61v15h-52v105h103v-120c0 -72 -49 -103 -104 -107z" />
    <glyph glyph-name="ccaron" unicode="&#x10d;" horiz-adv-x="545" 
d="M290 -12c-138 0 -248 114 -248 268c0 156 110 272 248 272c112 0 194 -65 221 -170h-87c-22 60 -69 95 -134 95c-92 0 -163 -71 -163 -197c0 -124 71 -193 163 -193c66 0 114 37 134 95h87c-24 -101 -107 -170 -221 -170zM258 590l-114 154h74l72 -79l72 79h73l-113 -154
h-64z" />
    <glyph glyph-name="Dcroat" unicode="&#x110;" horiz-adv-x="679" 
d="M23 317v76h63v287h225c197 0 323 -128 323 -339s-126 -341 -323 -341h-225v317h-63zM174 78h137c136 0 232 80 232 263c0 186 -97 261 -232 261h-137v-209h188v-76h-188v-239z" />
    <glyph glyph-name="dcroat" unicode="&#x111;" horiz-adv-x="611" 
d="M597 666v-67h-64v-599h-79v97c-32 -64 -98 -109 -178 -109c-136 0 -234 121 -234 271c0 148 98 269 234 269c81 0 144 -48 175 -105v176h-125v67h125v78h82v-78h64zM289 63c88 0 162 69 162 193c0 126 -74 197 -162 197c-89 0 -163 -71 -163 -197
c0 -124 74 -193 163 -193z" />
    <glyph glyph-name="Lcaron.sc" horiz-adv-x="490" 
d="M85 0v578h84v-502h280v-76h-364zM340 351v46c32 3 53 22 53 61v15h-52v105h103v-120c0 -72 -49 -103 -104 -107z" />
    <glyph glyph-name="Dcroat.sc" horiz-adv-x="605" 
d="M28 265v75h57v238h197c166 0 271 -110 271 -289c0 -178 -106 -289 -271 -289h-197v265h-57zM169 75h113c119 0 185 81 185 214c0 141 -68 214 -185 214h-113v-163h144v-75h-144v-190z" />
    <glyph glyph-name="idotaccent" horiz-adv-x="240" 
d="M79 0v515h82v-515h-82zM75 613v101h90v-101h-90z" />
    <glyph glyph-name="space" unicode=" " horiz-adv-x="295" 
 />
    <glyph glyph-name="space" unicode="&#xa0;" horiz-adv-x="295" 
 />
    <glyph glyph-name="Eth" unicode="&#xd0;" horiz-adv-x="679" 
d="M23 317v76h63v287h225c197 0 323 -128 323 -339s-126 -341 -323 -341h-225v317h-63zM174 78h137c136 0 232 80 232 263c0 186 -97 261 -232 261h-137v-209h188v-76h-188v-239z" />
    </font>
</defs>
</svg>
