<?xml version="1.0" standalone="no"?>
<!DOCTYPE svg PUBLIC "-//W3C//DTD SVG 1.1//EN" "http://www.w3.org/Graphics/SVG/1.1/DTD/svg11.dtd" >
<svg xmlns="http://www.w3.org/2000/svg">
<metadata></metadata>
<defs>
<font id="dala_moabold" horiz-adv-x="1458" >
<font-face units-per-em="2048" ascent="1683" descent="-365" />
<missing-glyph horiz-adv-x="364" />
<glyph unicode="&#xfb01;" horiz-adv-x="1062" d="M4 821v109h121v110q0 352 553 369v-20q-117 -11 -174.5 -64.5t-57.5 -171.5v-223h525v-930h-320v821h-205v-821h-321v821h-121zM647 1184q0 73 49 118.5t117 45.5q70 0 119 -45.5t49 -118.5q0 -71 -49.5 -115.5t-118.5 -44.5q-66 0 -116 44.5t-50 115.5z" />
<glyph unicode="&#xfb02;" horiz-adv-x="1058" d="M-2 821v109h121v135q0 76 29 134.5t74.5 95t113 61.5t132.5 36.5t144 16.5v-20q-78 -11 -125 -58t-47 -135v-266h205v221q-72 32 -72 111q0 108 142 124l252 23v-1409h-322v821h-205v-821h-321v821h-121z" />
<glyph unicode="&#xfb03;" horiz-adv-x="1589" d="M4 821v109h121v92q0 76 29 137t76.5 101t114 68t134.5 42t144 19v-21q-72 -9 -124.5 -54.5t-52.5 -129.5v-254h205v106q0 24 4 64q-25 15 -32 22q-37 34 -37 90q0 55 37 89t92 34q47 0 80 -26q3 1 8 4t6 4q137 82 399 92v-20q-115 -11 -175 -69t-60 -177v-213h524v-930 h-319v821h-205v-821h-322v821h-205v-821h-321v821h-121zM1169 1184q0 73 49 118.5t117 45.5q70 0 119 -45.5t49 -118.5q0 -71 -49.5 -115.5t-118.5 -44.5q-66 0 -116 44.5t-50 115.5z" />
<glyph unicode="&#xfb04;" horiz-adv-x="1585" d="M-2 821v109h121v108q0 318 497 351v-21q-72 -9 -124 -54t-52 -130v-254h205v133q0 25 2 39q-67 29 -67 110q0 55 37 89t92 34q38 0 71 -20q115 75 359 94v-20q-71 -9 -121.5 -55.5t-50.5 -131.5v-272h204v221q-71 31 -71 111q0 108 141 124l252 23v-1409h-322v821h-204 v-821h-322v821h-205v-821h-321v821h-121z" />
<glyph horiz-adv-x="0" />
<glyph horiz-adv-x="682" />
<glyph horiz-adv-x="0" />
<glyph horiz-adv-x="0" />
<glyph unicode="&#xd;" horiz-adv-x="364" />
<glyph unicode=" "  horiz-adv-x="364" />
<glyph unicode="&#x09;" horiz-adv-x="364" />
<glyph unicode="&#xa0;" horiz-adv-x="364" />
<glyph unicode="!" horiz-adv-x="509" d="M74 1290h360q-3 -61 -73 -450t-70 -471h-72q-4 78 -72.5 465.5t-72.5 455.5zM98 125q0 66 44.5 105.5t109.5 39.5q67 0 110.5 -39.5t43.5 -105.5q0 -67 -43 -105t-111 -38q-66 0 -110 38t-44 105z" />
<glyph unicode="&#x22;" horiz-adv-x="692" d="M55 1352h256q-3 -20 -52 -222.5t-52 -230.5h-49q-3 28 -51.5 230.5t-51.5 222.5zM383 1352h254q-3 -20 -52.5 -222.5t-52.5 -230.5h-49q-3 28 -50 230.5t-50 222.5z" />
<glyph unicode="#" horiz-adv-x="1085" d="M39 354l10 64h180l-12 -64h-178zM106 721l13 61h186l-12 -61h-187zM211 0l223 1126h78l-223 -1126h-78zM414 354l10 64h182l-12 -64h-180zM485 721l11 61h184l-12 -61h-183zM573 0l226 1126h78l-224 -1126h-80zM778 354l10 64h187l-10 -64h-187zM850 721l12 61h185 l-13 -61h-184z" />
<glyph unicode="$" horiz-adv-x="923" d="M51 158q0 46 32.5 78t76.5 32q47 0 79.5 -31.5t32.5 -78.5q0 -45 -32.5 -78t-79.5 -33q-43 0 -76 33.5t-33 77.5zM70 799q0 160 105 258.5t276 116.5v-21q-51 -12 -90 -51.5t-39 -102.5q0 -57 34 -102t115 -94l47 532h47l-51 -559l82 -51q54 -32 92.5 -59t75.5 -61 t59.5 -68.5t36.5 -78t14 -93.5q-1 -172 -112.5 -270.5t-304.5 -106.5v22q161 42 161 166q0 62 -39.5 102.5t-134.5 92.5l-4 2l-45 -531h-47l49 555l-67 41q-260 152 -260 361zM618 1010q0 44 33 77t76 33q47 0 80 -32.5t33 -77.5t-33 -78t-80 -33q-43 0 -76 33.5t-33 77.5z " />
<glyph unicode="%" horiz-adv-x="1316" d="M35 932q0 92 43.5 158.5t106.5 98t139 40.5v-25q-48 -12 -70.5 -75.5t-22.5 -196.5q0 -138 22.5 -202.5t70.5 -76.5v-24q-57 6 -107 27t-91.5 56.5t-66 92t-24.5 127.5zM248 14l772 1215l41 -27l-772 -1218zM369 629v24q47 12 69.5 79t22.5 200q0 139 -21.5 199.5 t-70.5 72.5v25q57 -6 106.5 -26.5t91.5 -55t66 -90t24 -125.5q0 -71 -24 -127.5t-66 -92t-91.5 -56.5t-106.5 -27zM651 285q0 70 24.5 126t66 91t91.5 55.5t107 26.5v-25q-47 -12 -68.5 -76.5t-21.5 -197.5q0 -140 21 -202.5t69 -74.5v-24q-76 9 -139 41.5t-106.5 100 t-43.5 159.5zM987 8q47 12 68.5 77t21.5 200q0 139 -21 200.5t-69 73.5v25q57 -6 107 -26.5t91.5 -55.5t66 -91t24.5 -126q0 -92 -43.5 -159.5t-106.5 -100t-139 -41.5v24z" />
<glyph unicode="&#x26;" horiz-adv-x="1388" d="M43 328q0 128 84 228t197 151l10 -19q-66 -62 -66 -156q0 -87 51 -182t128.5 -158t148.5 -63q78 0 131 43l12 -18q-43 -76 -137 -124t-217 -48q-151 0 -246.5 95.5t-95.5 250.5zM299 983q0 79 31.5 141.5t85.5 100.5t120.5 59t143.5 25v-27q-41 -13 -65.5 -49.5 t-24.5 -93.5q0 -65 28.5 -122t96.5 -155l651 -862h-426l-502 651q-139 191 -139 332zM733 1282v27q297 -20 297 -209q0 -83 -70 -140.5t-174 -85.5l-12 19q27 27 40 45t24.5 61t11.5 107q0 161 -117 176zM1085 547q49 131 62 274h252q-159 -144 -297 -291z" />
<glyph unicode="'" horiz-adv-x="366" d="M55 1352h256q-3 -20 -52 -222.5t-52 -230.5h-49q-3 28 -51.5 230.5t-51.5 222.5z" />
<glyph unicode="(" horiz-adv-x="602" d="M129 473q0 143 35.5 279t95 243.5t123.5 189t135 146.5h51q-211 -365 -211 -858t211 -858h-51q-73 71 -135.5 151t-123 187.5t-95.5 241.5t-35 278z" />
<glyph unicode=")" horiz-adv-x="602" d="M33 -385q211 365 211 858t-211 858h51q72 -65 135.5 -146.5t124 -189t96 -243.5t35.5 -279q0 -476 -391 -858h-51z" />
<glyph unicode="*" horiz-adv-x="765" d="M43 985l66 197q0 -2 114 -84q53 -38 117 -84l-10 -33q-101 0 -144 2q-21 0 -53.5 1t-44.5 1h-45zM106 784q0 -1 17 11t44.5 32t55.5 41q53 38 117 84l27 -22q-28 -85 -45 -133l-46 -135zM281 1307h206q-1 -1 -6.5 -20t-16 -54t-20.5 -64q-5 -17 -12 -39t-16 -51t-15 -47 h-34q-6 18 -15 47t-16 51t-12 39q-43 127 -43 138zM399 932l27 20q64 -46 117 -84q111 -84 116 -84l-170 -122l-45 135zM426 1014q21 15 59 43t56 41q116 83 116 84l66 -197q-71 0 -143 -2q-43 -2 -144 -2z" />
<glyph unicode="+" horiz-adv-x="876" d="M94 432v76h305v305h76v-305h305v-76h-305v-305h-76v305h-305z" />
<glyph unicode="," horiz-adv-x="458" d="M53 -238q4 22 25.5 258t25.5 256h302q-8 -22 -139 -257t-140 -257h-74z" />
<glyph unicode="-" horiz-adv-x="520" d="M84 434v144h354v-144h-354z" />
<glyph unicode="." horiz-adv-x="458" d="M63 147q0 71 48 118.5t118 47.5q72 0 119 -47t47 -119t-47 -117.5t-119 -45.5q-70 0 -118 46t-48 117z" />
<glyph unicode="/" horiz-adv-x="585" d="M-135 -311l667 1622l72 -31l-667 -1622z" />
<glyph unicode="0" horiz-adv-x="1107" d="M47 465q0 205 135.5 339t347.5 142v-20q-31 -7 -55.5 -30t-46 -72t-33.5 -140t-12 -219t12 -219t33.5 -140t46 -72t55.5 -30v-20q-211 8 -347 142.5t-136 338.5zM578 4q31 7 55.5 30t46 72t33.5 140t12 219t-12 219t-33.5 140t-46 72t-55.5 30v20q212 -8 347.5 -142 t135.5 -339q0 -204 -136 -338.5t-347 -142.5v20z" />
<glyph unicode="1" horiz-adv-x="641" d="M-6 752v59l156 45v-104h-156zM205 0v870l319 86v-956h-319z" />
<glyph unicode="2" horiz-adv-x="907" d="M4 0l256 236h588l-4 -236h-840zM55 676q0 50 35.5 85.5t85.5 35.5q51 0 87 -35.5t36 -85.5q0 -51 -36 -87t-87 -36q-50 0 -85.5 36t-35.5 87zM197 854v14q41 33 113.5 55.5t150.5 22.5q167 0 260.5 -69.5t93.5 -192.5q0 -244 -485 -391h-27q45 38 75.5 70t60 77t44.5 101 t15 123q0 91 -51.5 147.5t-151.5 56.5q-58 0 -98 -14z" />
<glyph unicode="3" horiz-adv-x="919" d="M25 -145q0 51 35.5 86.5t86.5 35.5q50 0 85.5 -35.5t35.5 -86.5t-35.5 -87t-85.5 -36q-51 0 -86.5 36t-35.5 87zM37 674q0 51 36 87t87 36q50 0 86.5 -36t36.5 -87t-36.5 -87t-86.5 -36q-51 0 -87 36t-36 87zM168 854v14q38 32 118 55t173 23q172 0 276.5 -76t104.5 -204 q0 -131 -116 -210.5t-314 -105.5v-4q483 -28 483 -295q0 -66 -27 -121t-75.5 -92.5t-108 -66t-133 -46t-141 -27t-140.5 -13.5v20q59 9 108 31t92.5 61t68 104t24.5 150q0 154 -69.5 215.5t-215.5 61.5h-47v28h47q67 0 116.5 24t77.5 67t41 95.5t13 116.5q0 222 -229 222 q-69 0 -127 -27z" />
<glyph unicode="4" horiz-adv-x="1067" d="M-25 57l205 248h187v-248h-392zM438 -262v938l215 270h95v-1208h-310zM821 57v248h217v-248h-217z" />
<glyph unicode="5" horiz-adv-x="866" d="M10 -158q0 52 37 88.5t90 36.5q51 0 88 -37t37 -88q0 -54 -37 -91.5t-88 -37.5q-54 0 -90.5 37.5t-36.5 91.5zM98 231v228q113 22 242 22q481 0 481 -381q0 -187 -159.5 -305.5t-417.5 -130.5v21q61 9 112.5 29.5t96.5 54t70.5 86.5t25.5 120q0 141 -77.5 205t-240.5 64 q-70 0 -133 -13zM98 670v260h676v-260h-676z" />
<glyph unicode="6" horiz-adv-x="1126" d="M55 530q0 194 102 358t279 265.5t395 120.5v-21q-93 -19 -170.5 -72t-139 -142t-96 -225.5t-34.5 -309.5q0 -177 19.5 -286t54.5 -157.5t90 -56.5v-20q-140 3 -253 70.5t-180 192t-67 283.5zM446 647v21q33 34 105.5 63t148.5 29q181 0 280 -95t99 -272 q0 -179 -128 -290.5t-351 -118.5v20q68 17 103.5 114.5t35.5 250.5q0 93 -12.5 155.5t-38 95.5t-56 45.5t-73.5 12.5q-62 0 -113 -31zM791 1092q0 54 38.5 92.5t92.5 38.5t92.5 -38.5t38.5 -92.5q0 -55 -38.5 -94.5t-92.5 -39.5t-92.5 39.5t-38.5 94.5z" />
<glyph unicode="7" horiz-adv-x="933" d="M49 668v262h856l-100 -262h-756zM102 -342l646 948h28l-385 -948h-289z" />
<glyph unicode="8" horiz-adv-x="1003" d="M51 268q0 47 22 88t60 69.5t77.5 47.5t84.5 33l10 -10q-36 -30 -62 -91t-26 -122q0 -135 65.5 -206t194.5 -71q105 0 168.5 51.5t63.5 141.5q0 85 -55 136.5t-209 140.5q-31 18 -48 28q-64 37 -106.5 65t-85.5 66t-67.5 76t-40 88t-15.5 110q0 158 129 261.5t317 103.5 q169 0 269 -61t100 -175q0 -78 -64.5 -137t-158.5 -86l-10 8q34 38 55.5 97t21.5 120q0 106 -48.5 159.5t-164.5 53.5q-97 0 -155 -46t-58 -124q0 -25 3.5 -46t12.5 -40t17.5 -33.5t27.5 -31.5t32 -27.5t40.5 -28t45 -27.5t54 -31t58.5 -34q72 -43 114 -70t93 -68.5 t77.5 -79.5t45 -91t18.5 -115q0 -169 -135 -272.5t-342 -103.5q-64 0 -122.5 9t-115 30t-97.5 53t-66 81t-25 111z" />
<glyph unicode="9" horiz-adv-x="1122" d="M47 522q0 181 128.5 299t350.5 125v-20q-68 -17 -103.5 -116t-35.5 -253q0 -94 12 -160t36 -103t54.5 -53t71.5 -16q62 0 115 37v-20q-24 -34 -91.5 -64.5t-150.5 -30.5q-174 0 -280.5 100t-106.5 275zM76 -135q0 54 38.5 93.5t92.5 39.5t92.5 -39.5t38.5 -93.5 t-38.5 -92.5t-92.5 -38.5t-92.5 38.5t-38.5 92.5zM295 -295q74 13 138 47.5t120 95.5t96 144t63 199t23 255q0 176 -19 280.5t-53 148t-90 51.5v20q217 0 357.5 -146.5t140.5 -400.5q0 -290 -213.5 -489.5t-562.5 -224.5v20z" />
<glyph unicode=":" horiz-adv-x="489" d="M80 143q0 71 48 116.5t118 45.5t118 -45.5t48 -116.5t-48 -115t-118 -44t-118 44t-48 115zM80 786q0 71 48 115.5t118 44.5t118 -44.5t48 -115.5t-48 -116t-118 -45t-118 45t-48 116z" />
<glyph unicode=";" horiz-adv-x="487" d="M57 -238q4 22 26 258t26 256h301q-8 -22 -139 -257t-140 -257h-74zM82 786q0 71 48 115.5t118 44.5t118 -44.5t48 -115.5t-48 -116t-118 -45t-118 45t-48 116z" />
<glyph unicode="&#x3c;" horiz-adv-x="851" d="M111 432v78l616 244v-74l-524 -209l524 -207v-76z" />
<glyph unicode="=" horiz-adv-x="876" d="M94 274v76h686v-76h-686zM94 592v76h686v-76h-686z" />
<glyph unicode="&#x3e;" horiz-adv-x="851" d="M125 188v76l524 207l-524 209v74l616 -242v-80z" />
<glyph unicode="?" horiz-adv-x="935" d="M57 1100q0 56 42 96.5t98 40.5t96.5 -40t40.5 -97q0 -59 -40.5 -100.5t-96.5 -41.5t-98 41.5t-42 100.5zM156 119q0 64 41.5 100.5t105.5 36.5q63 0 104.5 -36.5t41.5 -100.5t-41.5 -100.5t-104.5 -36.5q-64 0 -105.5 36.5t-41.5 100.5zM256 371v241q80 13 134.5 33.5 t100 58.5t67.5 100t22 150q0 278 -256 316v20q93 -3 173 -15t155 -37t127.5 -62t84 -93.5t31.5 -128.5q0 -80 -31 -144t-82.5 -106.5t-125.5 -73t-152 -46.5t-170 -23v-190h-78z" />
<glyph unicode="@" horiz-adv-x="1667" d="M51 354q0 154 49 292.5t136 243.5t201.5 182t249.5 117t276 40q138 0 249.5 -31t187 -84.5t127 -129t74.5 -162t23 -185.5q0 -171 -75 -316.5t-212 -233t-307 -87.5h-194l170 874l282 58l4 -4l-166 -858q115 17 214.5 92.5t161 201t61.5 273.5q0 85 -19 161t-63.5 146.5 t-112 121.5t-171.5 81.5t-234 30.5q-165 0 -319 -61.5t-271.5 -168t-188.5 -262t-71 -332.5q0 -161 52 -289t144.5 -210.5t218 -126t273.5 -43.5q378 0 641 213l31 -45q-256 -220 -672 -220q-160 0 -296 46.5t-237.5 135t-159 227t-57.5 312.5zM336 246q0 100 40.5 198.5 t106.5 177.5t148.5 142.5t169.5 102t166 48.5l-2 -24q-76 -24 -157.5 -123.5t-136.5 -234.5t-55 -252q0 -69 23.5 -108.5t71.5 -39.5q71 0 116 60l13 -13q-37 -77 -129 -136.5t-176 -59.5q-89 0 -144 68.5t-55 193.5z" />
<glyph unicode="A" horiz-adv-x="1161" d="M-12 0q136 209 192 313l29 -10q0 -204 12 -303h-233zM236 451l26 65h297l-158 410l150 379h102l502 -1305h-397l-174 451h-348z" />
<glyph unicode="B" horiz-adv-x="1226" d="M117 0v1290h368v-1290h-368zM567 0v27q54 4 96 20.5t80.5 52t60 103t21.5 162.5q0 108 -27.5 173.5t-77 94.5t-130.5 37v24q103 12 153 78.5t50 208.5q0 80 -15 134t-47 84t-70 44t-94 21v26q293 -5 426 -77t133 -234q0 -81 -52 -142t-133 -95.5t-189 -51.5v-4 q80 -10 143 -26t119 -42t93 -61.5t58 -86t21 -114.5q0 -190 -153 -270.5t-466 -85.5z" />
<glyph unicode="C" horiz-adv-x="1239" d="M59 645q0 140 59 263t157 208t224.5 136t260.5 57v-27q-156 -32 -238 -193.5t-82 -443.5q0 -573 308 -637v-26q-320 12 -504.5 190t-184.5 473zM817 8q178 67 363 244v-225q-116 -35 -363 -45v26zM829 1282v27q221 -6 345 -45v-215q-96 92 -172 146.5t-173 86.5z" />
<glyph unicode="D" horiz-adv-x="1384" d="M117 0v1290h368v-1290h-368zM575 1264v26q131 -2 241.5 -24.5t206.5 -71.5t163 -122.5t105 -182t38 -244.5q0 -159 -56.5 -282.5t-158 -201t-237 -118.5t-299.5 -43v27q86 6 151.5 41.5t115 106.5t75.5 189t26 281q0 169 -25 287.5t-75 188.5t-115.5 103.5t-155.5 39.5z " />
<glyph unicode="E" horiz-adv-x="1116" d="M117 0v1290h368v-1290h-368zM575 1264v26h484v-200q-237 104 -484 174zM578 0v27q287 95 489 190v-217h-489zM578 637v27q186 43 321 81v-190q-31 8 -80 22t-76.5 21.5t-72 18t-92.5 20.5z" />
<glyph unicode="F" horiz-adv-x="1093" d="M117 0v1290h368v-1290h-368zM575 1264v26h486v-196q-11 4 -57.5 22t-57.5 22t-50 18.5t-53 19.5t-47.5 17t-53 18.5t-50 16.5t-58.5 18.5t-59 17.5zM578 645v27q54 15 153 41t168 47v-203q-186 56 -321 88z" />
<glyph unicode="G" horiz-adv-x="1349" d="M55 645q0 194 92.5 339.5t255 226.5t379.5 98v-27q-159 -33 -252.5 -197t-93.5 -440q0 -593 273 -637v-26q-301 17 -477.5 199.5t-176.5 463.5zM776 8q88 11 148 39v508h336v-483q-192 -79 -484 -90v26zM868 1282v27q247 -10 363 -43v-226q-93 89 -175 144t-188 98z" />
<glyph unicode="H" horiz-adv-x="1413" d="M117 0v1290h368v-1290h-368zM547 643v66h321v-66h-321zM928 0v1290h368v-1290h-368z" />
<glyph unicode="I" horiz-adv-x="600" d="M117 0v1290h368v-1290h-368z" />
<glyph unicode="J" horiz-adv-x="935" d="M6 182q0 66 45 111t109 45q63 0 108 -45t45 -111q0 -65 -44.5 -109t-108.5 -44t-109 44t-45 109zM311 8q150 24 150 211v1071h368v-880q0 -112 -40 -195t-112 -132.5t-163 -74t-203 -26.5v26z" />
<glyph unicode="K" horiz-adv-x="1353" d="M117 0v1290h368v-1290h-368zM567 610l267 224q164 -291 253 -428q40 -66 119.5 -192.5t120.5 -193.5v-20h-399q-222 353 -361 610zM944 1014l37 276h346q-312 -254 -362 -297z" />
<glyph unicode="L" horiz-adv-x="1114" d="M117 0v1290h368v-1290h-368zM578 0v27q52 20 101 41.5t83 37.5t82.5 41.5t72.5 38.5t80 44.5t80 45.5v-276h-499z" />
<glyph unicode="M" horiz-adv-x="1665" d="M29 0q76 146 182 406h29q10 -160 47 -406h-258zM96 1290h393l435 -938l-195 -368h-22zM1141 1290h366l52 -1290h-367z" />
<glyph unicode="N" horiz-adv-x="1325" d="M23 1290h448l700 -1061v-233h-280l-641 983q-152 212 -227 311zM55 0q28 82 64.5 206.5t52.5 176.5h29q12 -51 26.5 -103t24 -81.5t32.5 -99.5t33 -99h-262zM1024 1290h262q-70 -192 -117 -368h-28q-54 198 -117 368z" />
<glyph unicode="O" d="M55 645q0 136 50.5 257.5t136 208t203.5 139.5t249 59v-27q-254 -35 -254 -637t254 -637v-26q-131 6 -249 58.5t-203.5 139.5t-136 208t-50.5 257zM766 8q72 10 123 62.5t78 141.5t39 194t12 239t-12 239t-39 194t-78 141.5t-123 62.5v27q131 -6 248 -59t202.5 -139.5 t136 -208t50.5 -257.5t-50.5 -257.5t-136 -208t-202.5 -139t-248 -58.5v26z" />
<glyph unicode="P" horiz-adv-x="1198" d="M117 0v1290h368v-1290h-368zM578 545v26q123 20 168 94.5t45 258.5q0 77 -9 132.5t-25 91.5t-43.5 59.5t-58.5 35.5t-77 21v26q64 -2 118.5 -7t116 -17t110.5 -29t95 -45t77 -64t49.5 -87.5t18.5 -114.5q0 -97 -45 -168.5t-128.5 -114.5t-183 -66t-228.5 -32z" />
<glyph unicode="Q" d="M55 645q0 136 50.5 257.5t136 208t202.5 139.5t248 59v-27q-69 -10 -119.5 -63t-80 -140.5t-43 -195t-13.5 -238.5t13.5 -238.5t43 -195t80 -140.5t119.5 -63v-26q-131 6 -248 58.5t-202.5 139t-136 208t-50.5 257.5zM694 -84q522 -63 629 -70l-45 -211q-126 42 -299 117 t-285 137v27zM764 8q73 10 124.5 62t79.5 141t40 194.5t12 239.5t-12 239.5t-40 194.5t-79.5 141t-124.5 62v27q131 -6 249 -59t203.5 -139.5t136 -208t50.5 -257.5t-50.5 -257t-136 -208t-203.5 -139.5t-249 -58.5v26z" />
<glyph unicode="R" horiz-adv-x="1280" d="M117 0v1290h368v-1290h-368zM571 1264v26q110 -2 197.5 -14.5t162.5 -40t125.5 -70t78.5 -106t28 -146.5q0 -98 -65.5 -170.5t-171.5 -115.5q43 -80 98.5 -176t135 -229t120.5 -204v-18h-389q-40 79 -150 289t-166 329q106 32 162 108.5t56 223.5q0 84 -14.5 142 t-45 92.5t-68.5 52.5t-94 27z" />
<glyph unicode="S" horiz-adv-x="1013" d="M66 23v215q144 -167 325 -230v-26q-214 10 -325 41zM66 897q0 91 40 168.5t104.5 128.5t142.5 81t159 34v-27q-70 -9 -122 -56t-52 -128q0 -48 9.5 -80t38.5 -61t65.5 -51.5t107.5 -59.5l109 -55q43 -23 61.5 -34t55.5 -35t54.5 -41t42.5 -47t36.5 -59.5t20.5 -70.5 t9 -88q0 -188 -136.5 -305t-348.5 -129v26q86 14 146.5 69t60.5 156q0 26 -4.5 47.5t-10.5 38t-22 33t-27.5 28t-38.5 28t-45.5 26.5t-56.5 31l-129 63q-270 133 -270 369zM584 1282v27q56 0 145 -11t141 -24v-193q-161 168 -286 201z" />
<glyph unicode="T" horiz-adv-x="1277" d="M20 1028v262h371v-26q-156 -79 -371 -236zM455 0v1290h368v-1290h-368zM887 1264v26h373v-262q-222 162 -373 236z" />
<glyph unicode="U" horiz-adv-x="1294" d="M109 485v805h368v-794q0 -322 311 -322q94 0 169 27t108 69l20 -14q-43 -122 -158.5 -198t-281.5 -76q-120 0 -216 29.5t-167.5 89t-111 157t-41.5 227.5zM973 1290h274q-84 -248 -123 -401h-26q-48 168 -125 401z" />
<glyph unicode="V" horiz-adv-x="1167" d="M2 1290h399l367 -921l-147 -377h-103zM938 915q10 166 10 375h254q-130 -200 -239 -389z" />
<glyph unicode="W" horiz-adv-x="1785" d="M12 1290h400l317 -903l-147 -395h-103zM702 1290h400l317 -903l-147 -395h-103zM1554 915q9 210 9 333v42h254q-133 -210 -238 -389z" />
<glyph unicode="X" horiz-adv-x="1257" d="M8 0q243 259 340 379l23 -10q-12 -51 -39.5 -176t-44.5 -193h-279zM57 1290h416l770 -1290h-422zM911 965q38 176 58 325h276q-98 -94 -156.5 -158t-156.5 -180z" />
<glyph unicode="Y" horiz-adv-x="1159" d="M-18 1290h409l354 -641v-649h-368v586zM881 950q15 52 27.5 102t18 77t16.5 83.5t15 77.5h248q-80 -80 -135.5 -145t-171.5 -209z" />
<glyph unicode="Z" horiz-adv-x="1189" d="M43 0l707 1290h401l-709 -1290h-399zM63 1047l17 243h487v-26q-200 -61 -504 -217zM621 0v27q91 30 173.5 66.5t186.5 89.5t156 77l-19 -260h-497z" />
<glyph unicode="[" horiz-adv-x="618" d="M164 -385v1716h438v-53h-223v-1610h223v-53h-438z" />
<glyph unicode="\" horiz-adv-x="585" d="M-18 1280l71 31l668 -1622l-72 -31z" />
<glyph unicode="]" horiz-adv-x="618" d="M16 -332h224v1610h-224v53h439v-1716h-439v53z" />
<glyph unicode="^" horiz-adv-x="778" d="M98 678l262 532h58l262 -532h-64l-227 455l-227 -455h-64z" />
<glyph unicode="_" horiz-adv-x="985" d="M-18 -186h1024v-72h-1024v72z" />
<glyph unicode="`" horiz-adv-x="940" d="M244 1126l86 215q68 -47 186.5 -137t163.5 -123l-8 -22q-93 14 -428 67z" />
<glyph unicode="a" horiz-adv-x="980" d="M41 217q0 53 14.5 93.5t42.5 67t56 43t67 30.5q38 12 134.5 33.5t168.5 33.5v-20q-89 -29 -123 -54q-26 -28 -38.5 -64t-12.5 -106q0 -89 21 -131.5t69 -42.5q16 0 32.5 4.5t23 8t22.5 14t17 10.5v-18q-13 -21 -21.5 -32.5t-30 -34t-44 -35t-58.5 -23t-78 -10.5 q-122 0 -192 63t-70 170zM98 692q0 48 31 79.5t84 31.5t84 -31.5t31 -79.5t-31 -79t-84 -31t-84 31t-31 79zM223 840v20q47 35 141 60.5t179 25.5q350 0 350 -264v-682h-322v637q0 122 -54.5 171.5t-166.5 49.5q-78 0 -127 -18z" />
<glyph unicode="b" horiz-adv-x="1157" d="M92 37v1339l320 33v-1356q50 -37 112 -49v-20q-273 10 -432 53zM457 788v23q43 58 115.5 96.5t168.5 38.5q179 0 272 -115t93 -333q0 -229 -130.5 -363t-400.5 -151v20q199 10 199 457q0 187 -45 276.5t-143 89.5q-78 0 -129 -39z" />
<glyph unicode="c" horiz-adv-x="911" d="M49 449q0 114 44 206.5t120.5 152t173 94.5t209.5 44v-20q-96 -18 -159.5 -115t-63.5 -248q0 -154 75.5 -251t206.5 -97q139 0 236 74v-25q-11 -34 -28.5 -67.5t-49.5 -73.5t-72 -69.5t-101 -49.5t-132 -20q-215 0 -337 129.5t-122 335.5zM594 778q0 57 40 97t97 40 q59 0 99 -39.5t40 -97.5q0 -60 -39.5 -99.5t-99.5 -39.5q-57 0 -97 41t-40 98z" />
<glyph unicode="d" horiz-adv-x="1136" d="M51 449q0 116 43.5 211t117 155t164.5 93.5t191 37.5v-20q-184 -26 -184 -447q0 -179 57 -268.5t144 -89.5q56 0 98 37v-21q-62 -153 -256 -153q-175 0 -275 126.5t-100 338.5zM629 926v20q30 0 94 -8v438l321 33v-1393l-321 -28v893q-37 32 -94 45z" />
<glyph unicode="e" horiz-adv-x="958" d="M47 473q0 127 62 232.5t165 167t226 73.5v-20q-69 -18 -99 -97.5t-30 -253.5q0 -177 76 -267.5t215 -90.5q162 0 262 80v-31q-13 -36 -32 -70t-54 -74t-77.5 -69t-107 -49t-139.5 -20q-114 0 -204.5 39.5t-147 107t-86 155t-29.5 187.5zM432 559v23l207 20 q0 146 -23 229.5t-65 94.5v20q94 -6 166.5 -41.5t114.5 -91t62.5 -120t20.5 -134.5h-483z" />
<glyph unicode="f" horiz-adv-x="626" d="M0 821v109h121v133q0 313 497 346v-20q-71 -9 -123.5 -55.5t-52.5 -131.5v-272h191v-109h-191v-821h-321v821h-121zM580 1237q0 56 37.5 89.5t93.5 33.5q55 0 92 -33.5t37 -89.5t-37 -89.5t-92 -33.5t-93 34.5t-38 88.5z" />
<glyph unicode="g" horiz-adv-x="1042" d="M12 -270q0 118 244 141l4 -14q-67 -35 -67 -125q0 -74 65 -109t188 -41v-18q-218 5 -326 43.5t-108 122.5zM57 121q0 138 187 227l10 -12q-39 -24 -39 -72q0 -59 72 -59h411q326 0 326 -281q0 -143 -143.5 -243t-374.5 -117v18q141 19 229 72t88 141q0 111 -149 111h-377 q-110 0 -175 53.5t-65 161.5zM72 637q0 74 36 133.5t94.5 95.5t124.5 56t134 24v-16q-45 -8 -74 -81t-29 -212t29 -210t74 -79v-16q-68 4 -134 23.5t-124.5 55t-94.5 94.5t-36 132zM508 332v16q44 8 71 78.5t27 210.5t-27 212.5t-71 80.5v16q68 -4 133.5 -24t123 -56 t93 -95.5t35.5 -133.5q0 -59 -23.5 -109t-62 -84t-89.5 -59t-103.5 -37.5t-106.5 -15.5zM827 934q0 48 33 83.5t82 35.5t85 -35.5t36 -83.5q0 -50 -35.5 -83.5t-85.5 -33.5t-82.5 33t-32.5 84z" />
<glyph unicode="h" horiz-adv-x="1103" d="M92 0v1378l320 31v-1409h-320zM451 764v16q47 71 129.5 118.5t177.5 47.5q258 0 258 -266v-680h-320v657q0 138 -143 138q-45 0 -102 -31z" />
<glyph unicode="i" horiz-adv-x="503" d="M78 1178q0 76 50.5 123t121.5 47q74 0 124 -47t50 -123q0 -75 -51.5 -120.5t-122.5 -45.5q-70 0 -121 45.5t-51 120.5zM92 0v905l320 33v-938h-320z" />
<glyph unicode="j" horiz-adv-x="509" d="M-260 -195q0 53 36 88t87 35t88 -34t37 -87t-37 -86.5t-88 -33.5t-87 32.5t-36 85.5zM-35 -328q65 20 99 60.5t34 130.5v1042l320 33v-897q0 -81 -26 -146t-69 -107.5t-103 -72t-122 -44t-133 -19.5v20zM86 1178q0 76 50.5 123t121.5 47q74 0 124 -47t50 -123 q0 -75 -51.5 -120.5t-122.5 -45.5q-70 0 -121 45.5t-51 120.5z" />
<glyph unicode="k" horiz-adv-x="1064" d="M92 0v1376l320 33v-1409h-320zM463 414l229 209q77 -141 216.5 -355t164.5 -254v-14h-342q-25 38 -70 103.5t-71 104.5t-62 96t-65 110zM743 930h293q-27 -22 -51.5 -42.5t-39.5 -33.5t-41.5 -38t-35 -33t-44.5 -42.5t-46 -44.5l-12 19q0 106 -23 215z" />
<glyph unicode="l" horiz-adv-x="505" d="M92 0v1376l322 33v-1409h-322z" />
<glyph unicode="m" horiz-adv-x="1658" d="M92 0v918l320 32v-950h-320zM451 764v16q111 166 286 166q254 0 254 -266v-680h-319v659q0 72 -29 104t-98 32q-18 0 -35.5 -5t-27 -9.5t-31.5 -16.5zM1030 764v16q111 166 289 166q252 0 252 -266v-680h-320v659q0 72 -29 104t-98 32q-18 0 -35.5 -5t-27 -9.5 t-31.5 -16.5z" />
<glyph unicode="n" horiz-adv-x="1103" d="M92 0v918l320 32v-950h-320zM451 764v16q47 71 129.5 118.5t177.5 47.5q258 0 258 -266v-680h-320v657q0 138 -143 138q-51 0 -102 -31z" />
<glyph unicode="o" horiz-adv-x="1124" d="M47 465q0 199 138.5 331t346.5 150v-20q-36 -8 -69 -37q-48 -48 -65 -143.5t-17 -280.5q0 -186 17 -281.5t65 -140.5q27 -30 69 -39v-20q-208 18 -346.5 150t-138.5 331zM594 4q42 10 68 39q47 45 64 140.5t17 281.5t-16.5 281t-64.5 143q-27 27 -68 37v20 q207 -18 345 -150t138 -331t-138 -331t-345 -150v20z" />
<glyph unicode="p" horiz-adv-x="1157" d="M92 -365v1283l320 32v-893q59 -41 123 -53v-20q-67 3 -123 16v-365h-320zM455 788v21q111 137 286 137q179 0 272 -115t93 -333q0 -230 -126.5 -363.5t-395.5 -150.5v20q60 12 100 55.5t65 144t25 257.5q0 203 -45 284.5t-147 81.5q-71 0 -127 -39z" />
<glyph unicode="q" horiz-adv-x="1134" d="M49 432q0 125 45 224t121 159.5t167.5 93.5t192.5 37v-20q-58 -8 -100.5 -56.5t-68 -149.5t-25.5 -247q0 -179 57 -260.5t146 -81.5q61 0 98 37v-21q-19 -60 -84.5 -112.5t-167.5 -52.5q-175 0 -278 120.5t-103 329.5zM629 926v20q100 0 222 -12t191 -25v-1274h-319v1254 q-38 28 -94 37z" />
<glyph unicode="r" horiz-adv-x="808" d="M92 0v918l320 32v-950h-320zM457 621v24q25 141 90.5 221t177.5 80q44 0 63 -8v-256q-32 14 -96 14q-142 0 -235 -75z" />
<glyph unicode="s" horiz-adv-x="819" d="M57 635q0 120 103 212t256 99v-20q-51 -7 -86 -34.5t-35 -82.5q0 -51 27.5 -81.5t87.5 -57.5l168 -80q190 -84 190 -271q0 -153 -94 -239t-279 -96v20q59 8 98 43t39 94q0 52 -32 85t-107 67l-127 59q-209 97 -209 283zM68 20v209q162 -173 272 -225v-20q-141 3 -272 36z M465 926v20q129 0 246 -37v-182q-119 153 -246 199z" />
<glyph unicode="t" horiz-adv-x="741" d="M8 821v109h129v219l318 113v-332h260v-109h-260v-510q0 -89 34.5 -131.5t116.5 -42.5q36 0 77 9.5t58 21.5v-27q-39 -67 -121.5 -112t-197.5 -45q-287 0 -287 295v542h-127z" />
<glyph unicode="u" horiz-adv-x="1105" d="M88 264v654l322 32v-671q0 -71 33.5 -104.5t103.5 -33.5q62 0 106 33v-18q-36 -68 -114.5 -120t-171.5 -52q-144 0 -211.5 75.5t-67.5 204.5zM692 -12v930l322 32v-930z" />
<glyph unicode="v" horiz-adv-x="880" d="M-12 930h334l278 -629l-129 -305h-68zM702 651q6 76 6 158q0 59 -3 121h217q-101 -134 -201 -295z" />
<glyph unicode="w" horiz-adv-x="1394" d="M2 930h342l240 -625l-131 -309h-91zM551 930h342l227 -625l-133 -309h-88zM1206 651q5 93 5 170q0 58 -3 109h217q-95 -126 -200 -295z" />
<glyph unicode="x" horiz-adv-x="972" d="M-4 930h364l607 -930h-363zM10 0q190 190 275 291l12 -19q-20 -110 -47 -272h-240zM684 659q6 38 13.5 87t14 91t13.5 93h242q-152 -152 -273 -289z" />
<glyph unicode="y" horiz-adv-x="882" d="M-8 930h336l276 -619l-129 -311h-63zM68 -246q0 53 36 88t86 35q52 0 88.5 -34t36.5 -87t-36.5 -87t-88.5 -34q-51 0 -86.5 33t-35.5 86zM705 651q5 93 5 170q0 59 -3 109h215q-49 -69 -201 -295z" />
<glyph unicode="z" horiz-adv-x="944" d="M35 0l516 930h356l-518 -930h-354zM63 707l15 223h321v-21q-155 -71 -336 -202zM530 0v20q199 86 373 216l-14 -236h-359z" />
<glyph unicode="{" horiz-adv-x="747" d="M76 451v41q58 0 99.5 12t73.5 41t48 82.5t16 132.5v215q0 190 96 272t312 82v-26q-83 -2 -131.5 -49t-48.5 -148v-297q0 -168 -71.5 -243.5t-242.5 -92.5v-4q170 -17 242 -93.5t72 -242.5v-299q0 -101 48.5 -147.5t131.5 -48.5v-27q-215 0 -311.5 82.5t-96.5 273.5v213 q0 152 -59.5 211.5t-177.5 59.5z" />
<glyph unicode="|" horiz-adv-x="430" d="M170 -387v1716h90v-1716h-90z" />
<glyph unicode="}" horiz-adv-x="747" d="M27 -362q83 2 131.5 48.5t48.5 147.5v299q0 167 71 243t242 93v4q-169 17 -241 93t-72 243v297q0 101 -48.5 148t-131.5 49v26q216 0 311.5 -82t95.5 -272v-215q0 -79 16 -132.5t48.5 -82.5t74 -41t99.5 -12v-41q-118 0 -178 -59.5t-60 -211.5v-213q0 -191 -96 -273.5 t-311 -82.5v27z" />
<glyph unicode="~" horiz-adv-x="849" d="M70 455q10 97 62 150.5t134 53.5q57 0 91.5 -14.5t86.5 -52.5q3 -2 15.5 -12t17.5 -13.5t17.5 -12t19.5 -12.5t19.5 -10t22 -8.5t21.5 -5t23 -2.5q45 0 68.5 29t33.5 100l80 -4q-11 -99 -59.5 -152t-132.5 -53q-12 0 -23.5 1t-24 5t-21 6.5t-22 9.5t-19 9.5t-20.5 12.5 t-18.5 12t-20 13.5t-18.5 12.5q-62 45 -91 55q-23 7 -46 7q-47 0 -76.5 -29t-39.5 -98z" />
<glyph unicode="&#xa1;" horiz-adv-x="509" d="M76 -309q3 61 73 450t70 471h72q4 -78 72.5 -465.5t72.5 -455.5h-360zM104 856q0 67 43 105t111 38q66 0 110 -38t44 -105q0 -66 -44.5 -105.5t-109.5 -39.5q-67 0 -110.5 39.5t-43.5 105.5z" />
<glyph unicode="&#xa2;" horiz-adv-x="919" d="M49 440q0 195 120.5 327t326.5 177v-16q-69 -18 -115.5 -116t-46.5 -245q0 -176 94 -270l141 801h45l-149 -834q71 -53 188 -53q80 0 141 27.5t97 68.5l8 -10q-9 -37 -25.5 -74.5t-49.5 -82t-75.5 -78t-108.5 -56t-144 -22.5q-42 0 -80 6l-27 -152h-43l29 160 q-146 37 -236 152.5t-90 289.5zM602 778q0 58 40 97.5t99 39.5q57 0 98.5 -40t41.5 -97q0 -59 -41 -99t-99 -40q-59 0 -99 40.5t-40 98.5z" />
<glyph unicode="&#xa3;" horiz-adv-x="995" d="M47 528v43h123l20 189q24 218 176.5 337t376.5 132v-19q-81 -14 -135.5 -77.5t-70.5 -208.5l-37 -353h205v-43h-209l-11 -98l-47 -430h-332l58 528h-117zM522 0v25q197 71 428 217v-242h-428zM705 1038q0 52 34.5 87.5t87.5 35.5t88 -35.5t35 -87.5q0 -54 -34.5 -89.5 t-88.5 -35.5t-88 35.5t-34 89.5z" />
<glyph unicode="&#xa5;" horiz-adv-x="997" d="M-4 1194h330l321 -600h199v-41h-193v-131h193v-43h-193v-379h-313v379h-193v43h193v131h-193v41h175zM774 860q7 41 45 167.5t41 166.5h223q-37 -49 -139.5 -167t-150.5 -179z" />
<glyph unicode="&#xa6;" horiz-adv-x="430" d="M170 377h90v-764h-90v764zM170 559v770h90v-770h-90z" />
<glyph unicode="&#xa7;" horiz-adv-x="1083" d="M47 567q0 60 15 114.5t36 93t55 76.5t61.5 61.5t64.5 50.5l14 -21q-60 -66 -60 -145q0 -135 142 -303q10 -16 124 -144t122 -143q122 -143 122 -270q0 -133 -116.5 -251t-255.5 -139v25q68 18 112.5 67t44.5 113q0 62 -25 110t-87 122q-12 13 -111.5 125.5t-111.5 126.5 q-65 76 -105.5 164.5t-40.5 166.5zM129 -297q0 52 36 88.5t89 36.5q54 0 90.5 -37t36.5 -88q0 -50 -37 -87.5t-90 -37.5t-89 37t-36 88zM340 948q0 133 110.5 237.5t251.5 125.5v-23q-67 -19 -105 -64t-38 -110q0 -62 22.5 -106.5t80.5 -110.5q14 -19 109 -126t112 -124 q69 -79 111 -169t42 -173q0 -224 -229 -395l-16 20q59 63 59 152q0 74 -39 149t-117 168q-16 16 -114 129.5t-117 137.5q-123 143 -123 282zM694 1155q0 50 37 87.5t88 37.5q53 0 89 -37t36 -88q0 -52 -36 -88.5t-89 -36.5q-51 0 -88 37t-37 88z" />
<glyph unicode="&#xa8;" horiz-adv-x="940" d="M162 1184q0 54 36.5 90.5t90.5 36.5t90.5 -36.5t36.5 -90.5t-36.5 -91.5t-90.5 -37.5t-90.5 37.5t-36.5 91.5zM526 1184q0 54 37 90.5t88 36.5q54 0 90.5 -36.5t36.5 -90.5t-36.5 -91.5t-90.5 -37.5q-51 0 -88 37.5t-37 91.5z" />
<glyph unicode="&#xa9;" horiz-adv-x="1419" d="M49 645q0 139 48 258.5t131.5 203t197.5 135t246 61.5v-31q-260 -20 -422 -192t-162 -435t162 -435t422 -192v-30q-177 14 -317.5 97t-223 229t-82.5 331zM250 643q0 186 134 310t337 132v-20q-223 -46 -223 -412q0 -189 59.5 -296.5t175.5 -127.5v-24q-219 4 -351 125 t-132 313zM750 -12v30q259 20 421 192t162 435q0 264 -161.5 435.5t-421.5 191.5v31q132 -10 246 -61.5t197.5 -135t131 -203t47.5 -258.5q0 -185 -82.5 -331t-222.5 -229t-317 -97zM784 1065v20q134 -3 234 -32l2 -146q-96 99 -236 158zM797 205v24q56 23 123 72t112 94 v-147q-113 -35 -235 -43z" />
<glyph unicode="&#xaa;" horiz-adv-x="620" d="M41 881q0 31 10.5 54.5t31 38.5t38.5 23t43 15q36 15 162 41v-17q-49 -17 -64 -30q-35 -27 -35 -88q0 -101 49 -101q35 0 54 19v-13q-11 -26 -47.5 -53t-94.5 -27q-68 0 -107.5 36.5t-39.5 101.5zM88 1153q0 27 19 45.5t49 18.5t48.5 -18.5t18.5 -45.5t-18.5 -44 t-48.5 -17t-49 17t-19 44zM147 1241v16q25 22 81 36t110 14q217 0 217 -156v-397h-195v368q0 74 -33 101.5t-100 27.5q-42 0 -80 -10z" />
<glyph unicode="&#xab;" horiz-adv-x="690" d="M66 461v20l276 283l18 -8l-122 -285l122 -283l-18 -10zM334 461v20l276 283l19 -8l-123 -285l123 -283l-19 -10z" />
<glyph unicode="&#xad;" horiz-adv-x="520" d="M84 434v144h354v-144h-354z" />
<glyph unicode="&#xae;" horiz-adv-x="843" d="M31 913q0 154 98.5 262t253.5 128v-31q-140 -20 -226.5 -120.5t-86.5 -238.5q0 -136 86.5 -237t226.5 -121v-31q-155 17 -253.5 126.5t-98.5 262.5zM252 725v414h119v-414h-119zM393 924q38 8 57 29.5t19 66.5q0 59 -15 80.5t-53 23.5v15q193 0 193 -117 q0 -34 -23.5 -59.5t-60.5 -38.5q79 -136 127 -191v-8h-125q-58 84 -119 199zM461 524v31q139 17 226 119.5t87 238.5q0 138 -86.5 238.5t-226.5 120.5v31q155 -20 253.5 -128t98.5 -262q0 -153 -99 -262.5t-253 -126.5z" />
<glyph unicode="&#xaf;" horiz-adv-x="940" d="M236 1116v103h477v-103h-477z" />
<glyph unicode="&#xb0;" horiz-adv-x="612" d="M70 983q0 95 58.5 158t147.5 69v-41q-69 -8 -114 -58t-45 -128q0 -80 44.5 -130t114.5 -58v-41q-89 6 -147.5 69.5t-58.5 159.5zM336 754v41q70 8 115 58.5t45 129.5q0 78 -45.5 128t-114.5 58v41q89 -6 148 -69t59 -158t-59 -159t-148 -70z" />
<glyph unicode="&#xb2;" horiz-adv-x="671" d="M20 547l150 160h455l-4 -160h-601zM47 1104q0 35 24.5 59.5t59.5 24.5t59.5 -24.5t24.5 -59.5t-24.5 -60.5t-59.5 -25.5t-59.5 25.5t-24.5 60.5zM121 1214v17q25 27 89.5 49.5t133.5 22.5q135 0 199.5 -54.5t64.5 -150.5q0 -209 -387 -350h-24q42 40 69 68t59.5 71.5 t49 91t16.5 98.5q0 84 -41 123t-123 39q-51 0 -106 -25z" />
<glyph unicode="&#xb3;" horiz-adv-x="645" d="M33 651q0 35 23.5 58.5t56.5 23.5q35 0 57.5 -23.5t22.5 -58.5q0 -33 -22.5 -55.5t-57.5 -22.5q-32 0 -56 23t-24 55zM39 1130q0 35 23.5 57.5t56.5 22.5q35 0 57.5 -22.5t22.5 -57.5t-22 -56t-58 -21q-33 0 -56.5 21.5t-23.5 55.5zM129 1237v16q67 50 188 50 q112 0 181 -45.5t69 -129.5q0 -83 -60 -127.5t-177 -62.5v-4q127 -5 196.5 -45t69.5 -127q0 -206 -410 -223v14q193 30 193 207q0 91 -36 126.5t-122 35.5h-37v24h37q141 0 141 168q0 69 -33 105t-108 36q-56 0 -92 -18z" />
<glyph unicode="&#xb4;" horiz-adv-x="940" d="M252 1081q29 22 106.5 81.5t133 100t110.5 78.5l86 -215q-306 -49 -430 -67z" />
<glyph unicode="&#xb6;" horiz-adv-x="1181" d="M61 840q0 138 69.5 242t181 156t245.5 52h567v-41h-403v-858h-176q-68 0 -136 17.5t-131 54.5t-111 88.5t-77 126.5t-29 162zM672 322h49v-672h-49v672zM920 -350v1528h47v-1528h-47z" />
<glyph unicode="&#xb7;" horiz-adv-x="499" d="M84 469q0 71 48 117.5t118 46.5q72 0 119 -46t47 -118t-47 -118t-119 -46q-70 0 -118 46.5t-48 117.5z" />
<glyph unicode="&#xb8;" horiz-adv-x="940" d="M305 -414q0 29 18.5 46.5t47.5 17.5q26 0 44.5 -18t18.5 -46q0 -26 -19 -45.5t-44 -19.5q-29 0 -47.5 19t-18.5 46zM371 -197q0 47 48.5 87.5t125.5 68.5l10 -14q-25 -29 -25 -51q0 -31 54 -89q32 -33 45.5 -56.5t13.5 -51.5q0 -41 -51 -78.5t-119 -64.5l-8 14 q24 19 24 37q0 15 -9.5 31t-19 26t-38.5 39q-27 27 -39 48.5t-12 53.5z" />
<glyph unicode="&#xb9;" horiz-adv-x="503" d="M29 1165v64l110 24v-88h-110zM184 547v717l209 39v-756h-209z" />
<glyph unicode="&#xba;" horiz-adv-x="694" d="M35 1026q0 119 82 192.5t207 86.5v-19q-49 -11 -71 -68t-22 -192t22 -192t71 -68v-18q-125 12 -207 87t-82 191zM369 748v18q49 11 71.5 68t22.5 192t-22.5 192t-71.5 68v19q126 -13 208 -87t82 -192q0 -116 -82.5 -191t-207.5 -87z" />
<glyph unicode="&#xbb;" horiz-adv-x="690" d="M61 188l125 283l-125 285l19 8l276 -283v-20l-276 -283zM330 188l123 283l-123 285l18 8l277 -283v-20l-277 -283z" />
<glyph unicode="&#xbc;" horiz-adv-x="1081" d="M37 406v51h1018v-51h-1018zM166 -240l106 152h140v-152h-246zM289 1165v64l110 24v-88h-110zM444 565v699l209 39v-738h-209zM463 131l141 184h68v-731h-209v547zM723 -88h141l-2 -152h-139v152z" />
<glyph unicode="&#xbd;" horiz-adv-x="1081" d="M37 406v51h1018v-51h-1018zM250 -416l149 160h447l-2 -160h-594zM266 119q0 35 24.5 59.5t59.5 24.5t59.5 -24.5t24.5 -59.5t-24.5 -59.5t-59.5 -24.5t-59.5 24.5t-24.5 59.5zM289 1165v64l110 24v-88h-110zM340 223v21q25 30 88.5 50.5t136.5 20.5q133 0 195.5 -54 t62.5 -146q0 -58 -29.5 -109t-84.5 -92t-117.5 -72.5t-142.5 -60.5h-25q182 170 182 315q0 80 -37.5 118t-122.5 38q-38 0 -106 -29zM444 565v699l209 39v-738h-209z" />
<glyph unicode="&#xbe;" horiz-adv-x="1081" d="M37 406v51h1018v-51h-1018zM166 -240l106 152h140v-152h-246zM274 666q0 35 22.5 58.5t57.5 23.5q33 0 56.5 -23.5t23.5 -58.5q0 -32 -24 -55t-56 -23q-35 0 -57.5 22.5t-22.5 55.5zM279 1126q0 35 22 57.5t55 22.5q35 0 57.5 -22.5t22.5 -57.5t-22 -56t-58 -21 q-33 0 -55 21t-22 56zM362 1235v16q63 47 177 47q113 0 180 -42.5t67 -125.5q0 -82 -57.5 -124t-173.5 -60v-4q127 -5 193.5 -42t66.5 -124q0 -103 -106.5 -157t-286.5 -62v16q77 12 126.5 61t49.5 140q0 90 -35 123t-117 33h-28v24h28q75 0 105.5 40t30.5 120 q0 135 -142 135q-46 0 -78 -14zM463 131l141 184h68v-731h-209v547zM723 -88h141l-2 -152h-139v152z" />
<glyph unicode="&#xbf;" horiz-adv-x="935" d="M45 12q0 80 31 144t82.5 106.5t125.5 73.5t152 47t170 23v190h78v-242q-80 -13 -134.5 -33.5t-100 -58.5t-67.5 -100t-22 -150q0 -277 256 -315v-21q-93 3 -173 15t-155 37t-127.5 62t-84 93.5t-31.5 128.5zM492 848q0 64 41.5 100.5t103.5 36.5q64 0 105.5 -36.5 t41.5 -100.5t-41.5 -100.5t-105.5 -36.5q-62 0 -103.5 36.5t-41.5 100.5zM606 -133q0 59 40.5 100t96.5 41t98 -41t42 -100q0 -56 -42 -96.5t-98 -40.5t-96.5 40t-40.5 97z" />
<glyph unicode="&#xc0;" horiz-adv-x="1161" d="M-12 0q136 209 192 313l29 -10q0 -204 12 -303h-233zM236 451l26 65h297l-158 410l150 379h102l502 -1305h-397l-174 451h-348zM358 1448l72 192q48 -36 121 -82t156.5 -95t107.5 -64l-6 -23q-27 4 -208 35t-243 37z" />
<glyph unicode="&#xc1;" horiz-adv-x="1161" d="M-12 0q136 209 192 313l29 -10q0 -204 12 -303h-233zM236 451l26 65h297l-158 410l150 379h102l502 -1305h-397l-174 451h-348zM401 1399q24 15 108 64.5t157 95t120 81.5l74 -192q-64 -6 -245.5 -37t-206.5 -35z" />
<glyph unicode="&#xc2;" horiz-adv-x="1161" d="M-12 0q136 209 192 313l29 -10q0 -204 12 -303h-233zM236 451l26 65h297l-158 410l150 379h102l502 -1305h-397l-174 451h-348zM334 1393l260 276h16l258 -276l-12 -17l-248 117h-14l-250 -117z" />
<glyph unicode="&#xc3;" horiz-adv-x="1161" d="M-12 0q136 209 192 313l29 -10q0 -204 12 -303h-233zM236 451l26 65h297l-158 410l150 379h102l502 -1305h-397l-174 451h-348zM307 1354q25 109 101.5 181.5t173.5 72.5h243q43 0 64.5 16.5t42.5 52.5h20q-9 -37 -22 -70.5t-35 -68.5t-49.5 -61t-67 -42t-84.5 -16h-250 q-82 0 -118 -65h-19z" />
<glyph unicode="&#xc4;" horiz-adv-x="1161" d="M-12 0q136 209 192 313l29 -10q0 -204 12 -303h-233zM236 451l26 65h297l-158 410l150 379h102l502 -1305h-397l-174 451h-348zM256 1524q0 54 39.5 92.5t93.5 38.5q55 0 94 -38.5t39 -92.5q0 -56 -39 -95.5t-94 -39.5q-54 0 -93.5 40t-39.5 95zM682 1524q0 54 38.5 92.5 t92.5 38.5q55 0 94 -38.5t39 -92.5q0 -56 -39 -95.5t-94 -39.5q-54 0 -92.5 39.5t-38.5 95.5z" />
<glyph unicode="&#xc5;" horiz-adv-x="1161" d="M-12 0q136 209 192 313l29 -10q0 -204 12 -303h-233zM236 451l26 65h297l-158 410l150 379h102l502 -1305h-397l-174 451h-348zM426 1540q0 66 46 110.5t106 49.5v-35q-46 -5 -78.5 -37t-32.5 -88q0 -55 33.5 -87.5t77.5 -37.5v-37q-61 5 -106.5 49.5t-45.5 112.5z M623 1378v37q43 5 75.5 37t32.5 88t-32.5 88t-75.5 37v35q61 -5 106 -48.5t45 -111.5t-45.5 -112.5t-105.5 -49.5z" />
<glyph unicode="&#xc6;" horiz-adv-x="1714" d="M-33 0q125 160 232 313l28 -10q-2 -26 -9.5 -88.5t-12 -115.5t-4.5 -99h-234zM348 612l37 64h336v614h369v-1290h-369v612h-373zM1180 1264v26h475v-200q-253 111 -475 174zM1182 0v27q272 92 481 190v-217h-481zM1182 637v27q171 34 313 81v-190q-83 30 -141 45t-172 37 z" />
<glyph unicode="&#xc7;" horiz-adv-x="1239" d="M59 645q0 140 59 263t157 208t224.5 136t260.5 57v-27q-156 -32 -238 -193.5t-82 -443.5q0 -573 308 -637v-26q-320 12 -504.5 190t-184.5 473zM467 -395q0 29 20.5 49t49.5 20t49 -20t20 -49q0 -30 -20 -51t-49 -21t-49.5 21.5t-20.5 50.5zM602 -207q0 50 57.5 95.5 t143.5 64.5l10 -14q-41 -32 -41 -62q0 -11 4 -23.5t8.5 -20.5t13 -21.5t11.5 -18.5q27 -41 37 -61.5t10 -44.5q0 -47 -56 -87t-147 -57l-6 15q33 24 33 53q0 7 -1.5 13.5t-6.5 15.5t-8.5 14.5t-12.5 19.5t-14 21q-35 47 -35 98zM817 8q178 67 363 244v-225 q-116 -35 -363 -45v26zM829 1282v27q221 -6 345 -45v-215q-96 92 -172 146.5t-173 86.5z" />
<glyph unicode="&#xc8;" horiz-adv-x="1116" d="M117 0v1290h368v-1290h-368zM373 1448l71 192q48 -36 121 -82t156.5 -95t107.5 -64l-6 -23q-28 4 -208 35t-242 37zM575 1264v26h484v-200q-237 104 -484 174zM578 0v27q287 95 489 190v-217h-489zM578 637v27q186 43 321 81v-190q-31 8 -80 22t-76.5 21.5t-72 18 t-92.5 20.5z" />
<glyph unicode="&#xc9;" horiz-adv-x="1116" d="M117 0v1290h368v-1290h-368zM416 1399q24 15 108 64.5t157 95t120 81.5l73 -192q-64 -6 -245.5 -37t-206.5 -35zM575 1264v26h484v-200q-237 104 -484 174zM578 0v27q287 95 489 190v-217h-489zM578 637v27q186 43 321 81v-190q-31 8 -80 22t-76.5 21.5t-72 18 t-92.5 20.5z" />
<glyph unicode="&#xca;" horiz-adv-x="1116" d="M117 0v1290h368v-1290h-368zM346 1393l260 276h17l258 -276l-13 -17l-247 117h-15l-250 -117zM575 1264v26h484v-200q-237 104 -484 174zM578 0v27q287 95 489 190v-217h-489zM578 637v27q186 43 321 81v-190q-31 8 -80 22t-76.5 21.5t-72 18t-92.5 20.5z" />
<glyph unicode="&#xcb;" horiz-adv-x="1116" d="M117 0v1290h368v-1290h-368zM268 1524q0 54 39.5 92.5t93.5 38.5q55 0 94.5 -38.5t39.5 -92.5q0 -56 -39.5 -95.5t-94.5 -39.5q-54 0 -93.5 40t-39.5 95zM575 1264v26h484v-200q-237 104 -484 174zM578 0v27q287 95 489 190v-217h-489zM578 637v27q186 43 321 81v-190 q-31 8 -80 22t-76.5 21.5t-72 18t-92.5 20.5zM694 1524q0 54 38.5 92.5t92.5 38.5q55 0 94 -38.5t39 -92.5q0 -56 -39 -95.5t-94 -39.5q-54 0 -92.5 39.5t-38.5 95.5z" />
<glyph unicode="&#xcc;" horiz-adv-x="600" d="M61 1448l72 192q48 -36 121 -82t156.5 -95t107.5 -64l-6 -23q-27 4 -208 35t-243 37zM117 0v1290h368v-1290h-368z" />
<glyph unicode="&#xcd;" horiz-adv-x="600" d="M104 1399q24 15 108 64.5t157 95t120 81.5l74 -192q-64 -6 -245.5 -37t-206.5 -35zM117 0v1290h368v-1290h-368z" />
<glyph unicode="&#xce;" horiz-adv-x="600" d="M35 1393l260 276h16l258 -276l-12 -17l-248 117h-14l-250 -117zM117 0v1290h368v-1290h-368z" />
<glyph unicode="&#xcf;" horiz-adv-x="600" d="M-16 1524q0 54 39.5 92.5t93.5 38.5q55 0 94 -38.5t39 -92.5q0 -56 -39 -95.5t-94 -39.5q-54 0 -93.5 40t-39.5 95zM117 0v1290h368v-1290h-368zM352 1524q0 54 38.5 92.5t92.5 38.5q55 0 94 -38.5t39 -92.5q0 -56 -39 -95.5t-94 -39.5q-54 0 -92.5 39.5t-38.5 95.5z" />
<glyph unicode="&#xd0;" horiz-adv-x="1409" d="M23 621v57h118v612h369v-612h238v-57h-238v-621h-369v621h-118zM600 1264v26q131 -2 241.5 -24.5t206.5 -71.5t163 -122.5t105 -182t38 -244.5q0 -159 -57 -282.5t-159 -201t-237 -118.5t-297 -43v27q69 5 123.5 27.5t99.5 69t75 116.5t46.5 172t16.5 233 q0 169 -24 287.5t-73 188.5t-113.5 103.5t-154.5 39.5z" />
<glyph unicode="&#xd1;" horiz-adv-x="1325" d="M23 1290h448l700 -1061v-233h-280l-641 983q-152 212 -227 311zM55 0q28 82 64.5 206.5t52.5 176.5h29q12 -51 26.5 -103t24 -81.5t32.5 -99.5t33 -99h-262zM438 1354q25 109 101.5 181.5t173.5 72.5h243q43 0 64.5 16.5t42.5 52.5h20q-9 -37 -22 -70.5t-35 -68.5 t-49.5 -61t-67 -42t-84.5 -16h-250q-82 0 -118 -65h-19zM1024 1290h262q-70 -192 -117 -368h-28q-54 198 -117 368z" />
<glyph unicode="&#xd2;" d="M55 645q0 136 50.5 257.5t136 208t203.5 139.5t249 59v-27q-254 -35 -254 -637t254 -637v-26q-131 6 -249 58.5t-203.5 139.5t-136 208t-50.5 257zM487 1448l72 192q48 -36 121 -82t156.5 -95t107.5 -64l-6 -23q-27 4 -208 35t-243 37zM766 8q72 10 123 62.5t78 141.5 t39 194t12 239t-12 239t-39 194t-78 141.5t-123 62.5v27q131 -6 248 -59t202.5 -139.5t136 -208t50.5 -257.5t-50.5 -257.5t-136 -208t-202.5 -139t-248 -58.5v26z" />
<glyph unicode="&#xd3;" d="M55 645q0 136 50.5 257.5t136 208t203.5 139.5t249 59v-27q-254 -35 -254 -637t254 -637v-26q-131 6 -249 58.5t-203.5 139.5t-136 208t-50.5 257zM530 1399q24 15 108 64.5t157 95t120 81.5l74 -192q-64 -6 -245.5 -37t-206.5 -35zM766 8q72 10 123 62.5t78 141.5 t39 194t12 239t-12 239t-39 194t-78 141.5t-123 62.5v27q131 -6 248 -59t202.5 -139.5t136 -208t50.5 -257.5t-50.5 -257.5t-136 -208t-202.5 -139t-248 -58.5v26z" />
<glyph unicode="&#xd4;" d="M55 645q0 136 50.5 257.5t136 208t203.5 139.5t249 59v-27q-254 -35 -254 -637t254 -637v-26q-131 6 -249 58.5t-203.5 139.5t-136 208t-50.5 257zM461 1393l260 276h16l258 -276l-12 -17l-248 117h-14l-250 -117zM766 8q72 10 123 62.5t78 141.5t39 194t12 239t-12 239 t-39 194t-78 141.5t-123 62.5v27q131 -6 248 -59t202.5 -139.5t136 -208t50.5 -257.5t-50.5 -257.5t-136 -208t-202.5 -139t-248 -58.5v26z" />
<glyph unicode="&#xd5;" d="M55 645q0 136 50.5 257.5t136 208t203.5 139.5t249 59v-27q-254 -35 -254 -637t254 -637v-26q-131 6 -249 58.5t-203.5 139.5t-136 208t-50.5 257zM436 1354q25 109 101.5 181.5t173.5 72.5h243q43 0 64.5 16.5t42.5 52.5h20q-9 -37 -22 -70.5t-35 -68.5t-49.5 -61 t-67 -42t-84.5 -16h-250q-82 0 -118 -65h-19zM766 8q72 10 123 62.5t78 141.5t39 194t12 239t-12 239t-39 194t-78 141.5t-123 62.5v27q131 -6 248 -59t202.5 -139.5t136 -208t50.5 -257.5t-50.5 -257.5t-136 -208t-202.5 -139t-248 -58.5v26z" />
<glyph unicode="&#xd6;" d="M55 645q0 136 50.5 257.5t136 208t203.5 139.5t249 59v-27q-254 -35 -254 -637t254 -637v-26q-131 6 -249 58.5t-203.5 139.5t-136 208t-50.5 257zM383 1524q0 54 39.5 92.5t93.5 38.5q55 0 94 -38.5t39 -92.5q0 -56 -39 -95.5t-94 -39.5q-54 0 -93.5 40t-39.5 95zM766 8 q72 10 123 62.5t78 141.5t39 194t12 239t-12 239t-39 194t-78 141.5t-123 62.5v27q131 -6 248 -59t202.5 -139.5t136 -208t50.5 -257.5t-50.5 -257.5t-136 -208t-202.5 -139t-248 -58.5v26zM809 1524q0 54 38.5 92.5t92.5 38.5q55 0 94 -38.5t39 -92.5q0 -56 -39 -95.5 t-94 -39.5q-54 0 -92.5 39.5t-38.5 95.5z" />
<glyph unicode="&#xd7;" horiz-adv-x="825" d="M106 193l252 251l-252 254l54 54l252 -254l254 254l53 -52l-254 -256l254 -254l-53 -53l-254 254l-252 -252z" />
<glyph unicode="&#xd8;" d="M55 645q0 136 50.5 257.5t136 208t203.5 139.5t249 59v-27q-71 -10 -121.5 -62.5t-77.5 -141.5t-39 -194t-12 -239q0 -236 37 -381l477 830q-62 169 -192 188v27q147 -9 276 -72l95 164l43 -25l-95 -164q146 -89 232 -237t86 -330q0 -136 -50.5 -257.5t-136 -208 t-202.5 -139t-248 -58.5v26q71 10 121 62.5t77 142t38.5 194t11.5 238.5q0 233 -35 381l-477 -831q63 -168 192 -187v-26q-147 6 -276 69l-107 -188l-47 26l109 187q-146 88 -232 237.5t-86 331.5z" />
<glyph unicode="&#xd9;" horiz-adv-x="1294" d="M109 485v805h368v-794q0 -322 311 -322q94 0 169 27t108 69l20 -14q-43 -122 -158.5 -198t-281.5 -76q-120 0 -216 29.5t-167.5 89t-111 157t-41.5 227.5zM500 1448l71 192q48 -36 121 -82t156.5 -95t107.5 -64l-6 -23q-28 4 -208 35t-242 37zM973 1290h274 q-84 -248 -123 -401h-26q-48 168 -125 401z" />
<glyph unicode="&#xda;" horiz-adv-x="1294" d="M109 485v805h368v-794q0 -322 311 -322q94 0 169 27t108 69l20 -14q-43 -122 -158.5 -198t-281.5 -76q-120 0 -216 29.5t-167.5 89t-111 157t-41.5 227.5zM543 1399q24 15 108 64.5t157 95t120 81.5l73 -192q-64 -6 -245.5 -37t-206.5 -35zM973 1290h274 q-84 -248 -123 -401h-26q-48 168 -125 401z" />
<glyph unicode="&#xdb;" horiz-adv-x="1294" d="M109 485v805h368v-794q0 -322 311 -322q94 0 169 27t108 69l20 -14q-43 -122 -158.5 -198t-281.5 -76q-120 0 -216 29.5t-167.5 89t-111 157t-41.5 227.5zM473 1393l260 276h17l258 -276l-13 -17l-247 117h-15l-250 -117zM973 1290h274q-84 -248 -123 -401h-26 q-48 168 -125 401z" />
<glyph unicode="&#xdc;" horiz-adv-x="1294" d="M109 485v805h368v-794q0 -322 311 -322q94 0 169 27t108 69l20 -14q-43 -122 -158.5 -198t-281.5 -76q-120 0 -216 29.5t-167.5 89t-111 157t-41.5 227.5zM395 1524q0 54 39.5 92.5t93.5 38.5q55 0 94.5 -38.5t39.5 -92.5q0 -56 -39.5 -95.5t-94.5 -39.5q-54 0 -93.5 40 t-39.5 95zM821 1524q0 54 38.5 92.5t92.5 38.5q55 0 94 -38.5t39 -92.5q0 -56 -39 -95.5t-94 -39.5q-54 0 -92.5 39.5t-38.5 95.5zM973 1290h274q-84 -248 -123 -401h-26q-48 168 -125 401z" />
<glyph unicode="&#xdd;" horiz-adv-x="1159" d="M-18 1290h409l354 -641v-649h-368v586zM471 1399q24 15 108 64.5t157 95t120 81.5l74 -192q-64 -6 -246.5 -37t-206.5 -35zM881 950q15 52 27.5 102t18 77t16.5 83.5t15 77.5h248q-80 -80 -135.5 -145t-171.5 -209z" />
<glyph unicode="&#xde;" horiz-adv-x="1177" d="M117 0v1290h368v-1290h-368zM578 324v26q52 11 85.5 28t62.5 52t42.5 95.5t13.5 150.5q0 91 -13.5 152t-42.5 96.5t-62.5 53t-85.5 28.5v26q91 -3 164.5 -12.5t151.5 -34t130.5 -62t86.5 -100.5t34 -147q0 -57 -18.5 -104.5t-48.5 -81t-75.5 -60.5t-92 -44t-107.5 -30 t-111.5 -19.5t-113.5 -12.5z" />
<glyph unicode="&#xdf;" horiz-adv-x="1157" d="M92 0v1020q0 98 42.5 173t116 119.5t162 67.5t191.5 27v-27q-89 -11 -140.5 -70.5t-51.5 -170.5v-1139h-320zM506 680q0 110 71 190.5t187 128.5l10 -22q-53 -37 -53 -109q0 -50 35 -98t100 -108q4 -4 40.5 -34.5t43.5 -39.5q111 -103 150.5 -162t39.5 -141 q0 -118 -103.5 -204t-266.5 -93v22q57 6 92 36.5t35 82.5q0 22 -8.5 44.5t-17 37.5t-34 43t-36.5 38.5t-48 47.5q-4 4 -43.5 37.5t-48.5 42.5q-68 63 -106.5 125.5t-38.5 134.5zM520 102q0 41 30 71t71 30q43 0 72.5 -29.5t29.5 -71.5q0 -43 -29.5 -72.5t-72.5 -29.5 q-41 0 -71 30t-30 72zM662 1380v27q161 -5 255.5 -53.5t94.5 -141.5q0 -141 -203 -217l-8 23q25 22 39 64.5t14 86.5q0 98 -45.5 149.5t-146.5 61.5z" />
<glyph unicode="&#xe0;" horiz-adv-x="980" d="M41 217q0 53 14.5 93.5t42.5 67t56 43t67 30.5q38 12 134.5 33.5t168.5 33.5v-20q-89 -29 -123 -54q-26 -28 -38.5 -64t-12.5 -106q0 -89 21 -131.5t69 -42.5q16 0 32.5 4.5t23 8t22.5 14t17 10.5v-18q-13 -21 -21.5 -32.5t-30 -34t-44 -35t-58.5 -23t-78 -10.5 q-122 0 -192 63t-70 170zM98 692q0 48 31 79.5t84 31.5t84 -31.5t31 -79.5t-31 -79t-84 -31t-84 31t-31 79zM223 840v20q47 35 141 60.5t179 25.5q350 0 350 -264v-682h-322v637q0 122 -54.5 171.5t-166.5 49.5q-78 0 -127 -18zM299 1126l86 215q68 -47 186.5 -137 t163.5 -123l-8 -22q-93 14 -428 67z" />
<glyph unicode="&#xe1;" horiz-adv-x="980" d="M41 217q0 53 14.5 93.5t42.5 67t56 43t67 30.5q38 12 134.5 33.5t168.5 33.5v-20q-89 -29 -123 -54q-26 -28 -38.5 -64t-12.5 -106q0 -89 21 -131.5t69 -42.5q16 0 32.5 4.5t23 8t22.5 14t17 10.5v-18q-13 -21 -21.5 -32.5t-30 -34t-44 -35t-58.5 -23t-78 -10.5 q-122 0 -192 63t-70 170zM98 692q0 48 31 79.5t84 31.5t84 -31.5t31 -79.5t-31 -79t-84 -31t-84 31t-31 79zM223 840v20q47 35 141 60.5t179 25.5q350 0 350 -264v-682h-322v637q0 122 -54.5 171.5t-166.5 49.5q-78 0 -127 -18zM311 1081q23 17 105.5 80t136 102.5 t109.5 77.5l86 -215q-292 -46 -431 -67z" />
<glyph unicode="&#xe2;" horiz-adv-x="980" d="M41 217q0 53 14.5 93.5t42.5 67t56 43t67 30.5q38 12 134.5 33.5t168.5 33.5v-20q-89 -29 -123 -54q-26 -28 -38.5 -64t-12.5 -106q0 -89 21 -131.5t69 -42.5q16 0 32.5 4.5t23 8t22.5 14t17 10.5v-18q-13 -21 -21.5 -32.5t-30 -34t-44 -35t-58.5 -23t-78 -10.5 q-122 0 -192 63t-70 170zM98 692q0 48 31 79.5t84 31.5t84 -31.5t31 -79.5t-31 -79t-84 -31t-84 31t-31 79zM223 840v20q47 35 141 60.5t179 25.5q350 0 350 -264v-682h-322v637q0 122 -54.5 171.5t-166.5 49.5q-78 0 -127 -18zM272 1067l250 311h17l247 -311l-12 -14 l-237 135h-15l-239 -135z" />
<glyph unicode="&#xe3;" horiz-adv-x="980" d="M41 217q0 53 14.5 93.5t42.5 67t56 43t67 30.5q38 12 134.5 33.5t168.5 33.5v-20q-89 -29 -123 -54q-26 -28 -38.5 -64t-12.5 -106q0 -89 21 -131.5t69 -42.5q16 0 32.5 4.5t23 8t22.5 14t17 10.5v-18q-13 -21 -21.5 -32.5t-30 -34t-44 -35t-58.5 -23t-78 -10.5 q-122 0 -192 63t-70 170zM98 692q0 48 31 79.5t84 31.5t84 -31.5t31 -79.5t-31 -79t-84 -31t-84 31t-31 79zM223 840v20q47 35 141 60.5t179 25.5q350 0 350 -264v-682h-322v637q0 122 -54.5 171.5t-166.5 49.5q-78 0 -127 -18zM227 1034q25 108 102 180t173 72h248 q30 0 51.5 11t31 22.5t25.5 36.5h21q-73 -256 -258 -256h-259q-80 0 -116 -66h-19z" />
<glyph unicode="&#xe4;" horiz-adv-x="980" d="M41 217q0 53 14.5 93.5t42.5 67t56 43t67 30.5q38 12 134.5 33.5t168.5 33.5v-20q-89 -29 -123 -54q-26 -28 -38.5 -64t-12.5 -106q0 -89 21 -131.5t69 -42.5q16 0 32.5 4.5t23 8t22.5 14t17 10.5v-18q-13 -21 -21.5 -32.5t-30 -34t-44 -35t-58.5 -23t-78 -10.5 q-122 0 -192 63t-70 170zM98 692q0 48 31 79.5t84 31.5t84 -31.5t31 -79.5t-31 -79t-84 -31t-84 31t-31 79zM221 1184q0 54 36.5 90.5t90.5 36.5t90.5 -36.5t36.5 -90.5t-36.5 -91.5t-90.5 -37.5t-90.5 37.5t-36.5 91.5zM223 840v20q47 35 141 60.5t179 25.5q350 0 350 -264 v-682h-322v637q0 122 -54.5 171.5t-166.5 49.5q-78 0 -127 -18zM586 1184q0 54 37 90.5t88 36.5q54 0 90.5 -36.5t36.5 -90.5t-36.5 -91.5t-90.5 -37.5q-51 0 -88 37.5t-37 91.5z" />
<glyph unicode="&#xe5;" horiz-adv-x="980" d="M41 217q0 53 14.5 93.5t42.5 67t56 43t67 30.5q38 12 134.5 33.5t168.5 33.5v-20q-89 -29 -123 -54q-26 -28 -38.5 -64t-12.5 -106q0 -89 21 -131.5t69 -42.5q16 0 32.5 4.5t23 8t22.5 14t17 10.5v-18q-13 -21 -21.5 -32.5t-30 -34t-44 -35t-58.5 -23t-78 -10.5 q-122 0 -192 63t-70 170zM98 692q0 48 31 79.5t84 31.5t84 -31.5t31 -79.5t-31 -79t-84 -31t-84 31t-31 79zM223 840v20q47 35 141 60.5t179 25.5q350 0 350 -264v-682h-322v637q0 122 -54.5 171.5t-166.5 49.5q-78 0 -127 -18zM362 1184q0 66 43 110t103 49v-36 q-45 -5 -73.5 -35.5t-28.5 -87.5t29 -88.5t73 -36.5v-37q-60 5 -103 49t-43 113zM553 1022v37q44 5 73 36.5t29 88.5t-28.5 87.5t-73.5 35.5v36q60 -5 102.5 -47.5t42.5 -111.5t-43 -113t-102 -49z" />
<glyph unicode="&#xe6;" horiz-adv-x="1447" d="M41 217q0 54 15 94.5t43 67t55 42t65 30.5q130 41 287 67v-20q-81 -30 -113 -54q-45 -35 -45 -170q0 -161 113 -161q57 0 110 45v-15q-24 -57 -98 -108t-170 -51q-121 0 -191.5 63.5t-70.5 169.5zM84 688q0 49 31 81t84 32t83.5 -32t30.5 -81q0 -48 -30.5 -79t-83.5 -31 t-84 31t-31 79zM213 840v20q44 35 137 60.5t176 25.5q180 0 250 -90q93 81 219 90v-20q-67 -17 -94 -95.5t-27 -255.5q0 -358 277 -358q167 0 262 76v-31q-11 -35 -29.5 -69.5t-52.5 -73t-77 -68t-107.5 -48.5t-138.5 -19q-114 0 -202 37.5t-143.5 105t-83.5 157.5t-28 199 v154q0 123 -53 172t-164 49q-74 0 -121 -18zM936 559v23l205 20q0 148 -28.5 230.5t-72.5 93.5v20q94 -4 167 -39.5t115.5 -92t63.5 -121.5t21 -134h-471z" />
<glyph unicode="&#xe7;" horiz-adv-x="911" d="M49 449q0 114 44 206.5t120.5 152t173 94.5t209.5 44v-20q-96 -18 -159.5 -115t-63.5 -248q0 -154 75.5 -251t206.5 -97q139 0 236 74v-25q-11 -34 -28.5 -67.5t-49.5 -73.5t-72 -69.5t-101 -49.5t-132 -20q-215 0 -337 129.5t-122 335.5zM289 -414q0 29 18 46.5t47 17.5 q26 0 45 -18t19 -46q0 -26 -19.5 -45.5t-44.5 -19.5q-29 0 -47 19t-18 46zM354 -197q0 47 48.5 87.5t125.5 68.5l11 -14q-25 -29 -25 -51q0 -32 53 -89q32 -34 46 -57.5t14 -50.5q0 -41 -51 -78.5t-119 -64.5l-8 14q24 19 24 37q0 15 -9.5 31t-19 26t-38.5 39 q-27 27 -39.5 48.5t-12.5 53.5zM594 778q0 57 40 97t97 40q59 0 99 -39.5t40 -97.5q0 -60 -39.5 -99.5t-99.5 -39.5q-57 0 -97 41t-40 98z" />
<glyph unicode="&#xe8;" horiz-adv-x="958" d="M47 473q0 127 62 232.5t165 167t226 73.5v-20q-69 -18 -99 -97.5t-30 -253.5q0 -177 76 -267.5t215 -90.5q162 0 262 80v-31q-13 -36 -32 -70t-54 -74t-77.5 -69t-107 -49t-139.5 -20q-114 0 -204.5 39.5t-147 107t-86 155t-29.5 187.5zM291 1126l86 215 q68 -47 186.5 -137t163.5 -123l-8 -22q-93 14 -428 67zM432 559v23l207 20q0 146 -23 229.5t-65 94.5v20q94 -6 166.5 -41.5t114.5 -91t62.5 -120t20.5 -134.5h-483z" />
<glyph unicode="&#xe9;" horiz-adv-x="958" d="M47 473q0 127 62 232.5t165 167t226 73.5v-20q-69 -18 -99 -97.5t-30 -253.5q0 -177 76 -267.5t215 -90.5q162 0 262 80v-31q-13 -36 -32 -70t-54 -74t-77.5 -69t-107 -49t-139.5 -20q-114 0 -204.5 39.5t-147 107t-86 155t-29.5 187.5zM317 1081q23 17 105.5 80 t136 102.5t109.5 77.5l86 -215q-306 -49 -430 -67zM432 559v23l207 20q0 146 -23 229.5t-65 94.5v20q94 -6 166.5 -41.5t114.5 -91t62.5 -120t20.5 -134.5h-483z" />
<glyph unicode="&#xea;" horiz-adv-x="958" d="M47 473q0 127 62 232.5t165 167t226 73.5v-20q-69 -18 -99 -97.5t-30 -253.5q0 -177 76 -267.5t215 -90.5q162 0 262 80v-31q-13 -36 -32 -70t-54 -74t-77.5 -69t-107 -49t-139.5 -20q-114 0 -204.5 39.5t-147 107t-86 155t-29.5 187.5zM264 1067l250 311h16l248 -311 l-12 -14l-238 135h-14l-240 -135zM432 559v23l207 20q0 146 -23 229.5t-65 94.5v20q94 -6 166.5 -41.5t114.5 -91t62.5 -120t20.5 -134.5h-483z" />
<glyph unicode="&#xeb;" horiz-adv-x="958" d="M47 473q0 127 62 232.5t165 167t226 73.5v-20q-69 -18 -99 -97.5t-30 -253.5q0 -177 76 -267.5t215 -90.5q162 0 262 80v-31q-13 -36 -32 -70t-54 -74t-77.5 -69t-107 -49t-139.5 -20q-114 0 -204.5 39.5t-147 107t-86 155t-29.5 187.5zM213 1184q0 54 36.5 90.5 t90.5 36.5t90.5 -36.5t36.5 -90.5t-36.5 -91.5t-90.5 -37.5t-90.5 37.5t-36.5 91.5zM432 559v23l207 20q0 146 -23 229.5t-65 94.5v20q94 -6 166.5 -41.5t114.5 -91t62.5 -120t20.5 -134.5h-483zM578 1184q0 54 36.5 90.5t87.5 36.5q54 0 90.5 -36.5t36.5 -90.5t-36.5 -91.5 t-90.5 -37.5q-51 0 -87.5 37.5t-36.5 91.5z" />
<glyph unicode="&#xec;" horiz-adv-x="503" d="M23 1126l86 215q68 -47 186.5 -137t163.5 -123l-8 -22q-93 14 -428 67zM92 0v918l320 32v-950h-320z" />
<glyph unicode="&#xed;" horiz-adv-x="503" d="M49 1081q29 22 106.5 81.5t133 100t110.5 78.5l86 -215q-306 -49 -430 -67zM92 0v918l320 32v-950h-320z" />
<glyph unicode="&#xee;" horiz-adv-x="503" d="M-2 1067l250 311h16l248 -311l-12 -14l-238 135h-14l-240 -135zM92 0v918l320 32v-950h-320z" />
<glyph unicode="&#xef;" horiz-adv-x="503" d="M-31 1163q0 54 35.5 90.5t89.5 36.5t90.5 -36.5t36.5 -90.5t-36.5 -91.5t-90.5 -37.5t-89.5 37.5t-35.5 91.5zM92 0v918l320 32v-950h-320zM285 1163q0 53 36.5 90t88.5 37q54 0 90.5 -36.5t36.5 -90.5t-36.5 -91.5t-90.5 -37.5q-51 0 -88 37.5t-37 91.5z" />
<glyph unicode="&#xf0;" horiz-adv-x="1140" d="M47 492q0 104 35 190.5t93.5 143t134.5 87.5t159 31q125 0 182 -57l-6 -19q-38 17 -88 17q-56 0 -94 -38.5t-61 -136t-23 -255.5q0 -209 45 -322t119 -131v-20q-232 7 -364 143.5t-132 366.5zM145 1389l5 20q276 -30 479 -137l207 110l24 -39l-184 -98q199 -118 305 -294 t106 -394q0 -136 -37.5 -242.5t-105 -176t-157 -108.5t-199.5 -48v20q42 6 71 32.5t50.5 83.5t32 153t10.5 235q0 239 -49.5 400.5t-157.5 269.5l-271 -144l-24 37l260 139q-121 107 -365 181z" />
<glyph unicode="&#xf1;" horiz-adv-x="1103" d="M92 0v918l320 32v-950h-320zM276 1034q25 108 102 180t173 72h248q30 0 51.5 11t31 22.5t25.5 36.5h21q-73 -256 -258 -256h-258q-81 0 -117 -66h-19zM451 764v16q47 71 129.5 118.5t177.5 47.5q258 0 258 -266v-680h-320v657q0 138 -143 138q-51 0 -102 -31z" />
<glyph unicode="&#xf2;" horiz-adv-x="1124" d="M47 465q0 199 138.5 331t346.5 150v-20q-36 -8 -69 -37q-48 -48 -65 -143.5t-17 -280.5q0 -186 17 -281.5t65 -140.5q27 -30 69 -39v-20q-208 18 -346.5 150t-138.5 331zM330 1126l86 215q68 -47 186.5 -137t163.5 -123l-8 -22q-93 14 -428 67zM594 4q42 10 68 39 q47 45 64 140.5t17 281.5t-16.5 281t-64.5 143q-27 27 -68 37v20q207 -18 345 -150t138 -331t-138 -331t-345 -150v20z" />
<glyph unicode="&#xf3;" horiz-adv-x="1124" d="M47 465q0 199 138.5 331t346.5 150v-20q-36 -8 -69 -37q-48 -48 -65 -143.5t-17 -280.5q0 -186 17 -281.5t65 -140.5q27 -30 69 -39v-20q-208 18 -346.5 150t-138.5 331zM356 1081q23 17 105.5 80t136 102.5t109.5 77.5l86 -215q-292 -46 -431 -67zM594 4q42 10 68 39 q47 45 64 140.5t17 281.5t-16.5 281t-64.5 143q-27 27 -68 37v20q207 -18 345 -150t138 -331t-138 -331t-345 -150v20z" />
<glyph unicode="&#xf4;" horiz-adv-x="1124" d="M47 465q0 199 138.5 331t346.5 150v-20q-36 -8 -69 -37q-48 -48 -65 -143.5t-17 -280.5q0 -186 17 -281.5t65 -140.5q27 -30 69 -39v-20q-208 18 -346.5 150t-138.5 331zM305 1067l250 311h16l248 -311l-12 -14l-238 135h-14l-240 -135zM594 4q42 10 68 39 q47 45 64 140.5t17 281.5t-16.5 281t-64.5 143q-27 27 -68 37v20q207 -18 345 -150t138 -331t-138 -331t-345 -150v20z" />
<glyph unicode="&#xf5;" horiz-adv-x="1124" d="M47 465q0 199 138.5 331t346.5 150v-20q-36 -8 -69 -37q-48 -48 -65 -143.5t-17 -280.5q0 -186 17 -281.5t65 -140.5q27 -30 69 -39v-20q-208 18 -346.5 150t-138.5 331zM258 1034q25 108 101.5 180t172.5 72h248q43 0 64.5 16.5t44.5 53.5h20q-73 -256 -258 -256h-258 q-81 0 -117 -66h-18zM594 4q42 10 68 39q47 45 64 140.5t17 281.5t-16.5 281t-64.5 143q-27 27 -68 37v20q207 -18 345 -150t138 -331t-138 -331t-345 -150v20z" />
<glyph unicode="&#xf6;" horiz-adv-x="1124" d="M47 465q0 199 138.5 331t346.5 150v-20q-36 -8 -69 -37q-48 -48 -65 -143.5t-17 -280.5q0 -186 17 -281.5t65 -140.5q27 -30 69 -39v-20q-208 18 -346.5 150t-138.5 331zM254 1184q0 54 36.5 90.5t90.5 36.5t90.5 -36.5t36.5 -90.5t-36.5 -91.5t-90.5 -37.5t-90.5 37.5 t-36.5 91.5zM594 4q42 10 68 39q47 45 64 140.5t17 281.5t-16.5 281t-64.5 143q-27 27 -68 37v20q207 -18 345 -150t138 -331t-138 -331t-345 -150v20zM618 1184q0 54 37 90.5t88 36.5q54 0 90.5 -36.5t36.5 -90.5t-36.5 -91.5t-90.5 -37.5q-51 0 -88 37.5t-37 91.5z" />
<glyph unicode="&#xf7;" horiz-adv-x="876" d="M94 434v74h686v-74h-686zM350 227q0 35 25.5 60.5t60.5 25.5t60.5 -25.5t25.5 -60.5q0 -36 -25 -61t-61 -25t-61 25t-25 61zM350 713q0 35 25.5 60.5t60.5 25.5t60.5 -25.5t25.5 -60.5q0 -36 -25 -61t-61 -25t-61 25t-25 61z" />
<glyph unicode="&#xf8;" horiz-adv-x="1124" d="M47 465q0 199 138.5 331t346.5 150v-20q-36 -8 -69 -37q-48 -48 -65 -143.5t-17 -280.5q0 -198 18 -291l303 651q-16 38 -40 64q-27 27 -68 37v20q76 -6 151 -31l64 136l41 -19l-62 -135q133 -59 211 -171.5t78 -260.5q0 -199 -138 -331t-345 -150v20q42 10 68 39 q47 45 64 140.5t17 281.5q0 203 -20 293l-301 -656q12 -30 41 -59q27 -30 69 -39v-20q-80 6 -151 30l-68 -145l-45 20l66 144q-133 59 -210 171t-77 261z" />
<glyph unicode="&#xf9;" horiz-adv-x="1105" d="M88 264v654l322 32v-671q0 -71 33.5 -104.5t103.5 -33.5q62 0 106 33v-18q-36 -68 -114.5 -120t-171.5 -52q-144 0 -211.5 75.5t-67.5 204.5zM322 1126l86 215q68 -47 186.5 -137t163.5 -123l-8 -22q-93 14 -428 67zM692 -12v930l322 32v-930z" />
<glyph unicode="&#xfa;" horiz-adv-x="1105" d="M88 264v654l322 32v-671q0 -71 33.5 -104.5t103.5 -33.5q62 0 106 33v-18q-36 -68 -114.5 -120t-171.5 -52q-144 0 -211.5 75.5t-67.5 204.5zM348 1081q29 22 106.5 81.5t133 100t110.5 78.5l86 -215q-306 -49 -430 -67zM692 -12v930l322 32v-930z" />
<glyph unicode="&#xfb;" horiz-adv-x="1105" d="M88 264v654l322 32v-671q0 -71 33.5 -104.5t103.5 -33.5q62 0 106 33v-18q-36 -68 -114.5 -120t-171.5 -52q-144 0 -211.5 75.5t-67.5 204.5zM297 1067l250 311h16l248 -311l-12 -14l-238 135h-14l-240 -135zM692 -12v930l322 32v-930z" />
<glyph unicode="&#xfc;" horiz-adv-x="1105" d="M88 264v654l322 32v-671q0 -71 33.5 -104.5t103.5 -33.5q62 0 106 33v-18q-36 -68 -114.5 -120t-171.5 -52q-144 0 -211.5 75.5t-67.5 204.5zM246 1184q0 54 36.5 90.5t90.5 36.5t90.5 -36.5t36.5 -90.5t-36.5 -91.5t-90.5 -37.5t-90.5 37.5t-36.5 91.5zM610 1184 q0 54 37 90.5t88 36.5q54 0 90.5 -36.5t36.5 -90.5t-36.5 -91.5t-90.5 -37.5q-51 0 -88 37.5t-37 91.5zM692 -12v930l322 32v-930z" />
<glyph unicode="&#xfd;" horiz-adv-x="882" d="M-8 930h336l276 -619l-129 -311h-63zM68 -246q0 53 36 88t86 35q52 0 88.5 -34t36.5 -87t-36.5 -87t-88.5 -34q-51 0 -86.5 33t-35.5 86zM303 1081q29 22 106.5 81.5t133 100t110.5 78.5l86 -215q-306 -49 -430 -67zM705 651q8 162 2 279h215q-49 -69 -201 -295z" />
<glyph unicode="&#xfe;" horiz-adv-x="1157" d="M92 -365v1741l320 33v-1358q45 -33 116 -47v-20q-38 0 -116 12v-361h-320zM457 795v20q98 131 280 131q180 0 274.5 -115.5t94.5 -332.5q0 -230 -128.5 -363.5t-397.5 -150.5v20q95 5 144.5 113.5t49.5 343.5q0 366 -192 366q-82 0 -125 -32z" />
<glyph unicode="&#xff;" horiz-adv-x="882" d="M-8 930h336l276 -619l-129 -311h-63zM68 -246q0 53 36 88t86 35q52 0 88.5 -34t36.5 -87t-36.5 -87t-88.5 -34q-51 0 -86.5 33t-35.5 86zM201 1184q0 54 36.5 90.5t90.5 36.5t90.5 -36.5t36.5 -90.5t-36.5 -91.5t-90.5 -37.5t-90.5 37.5t-36.5 91.5zM565 1184 q0 54 36.5 90.5t88.5 36.5q54 0 90.5 -36.5t36.5 -90.5t-36.5 -91.5t-90.5 -37.5q-51 0 -88 37.5t-37 91.5zM705 651q8 162 2 279h215q-49 -69 -201 -295z" />
<glyph unicode="&#x152;" horiz-adv-x="1830" d="M53 645q0 122 41 227t110.5 179t163 128t198 81t214.5 30v-26q-161 -18 -250.5 -170t-89.5 -449q0 -290 90.5 -445t249.5 -173v-27q-110 3 -214.5 30t-198 81t-163 128t-110.5 179t-41 227zM864 0v1290h369v-1290h-369zM1323 1264v26h451v-200q-205 88 -451 174zM1325 0 v27q241 90 457 190v-217h-457zM1325 637v27q135 33 301 81v-190q-218 63 -301 82z" />
<glyph unicode="&#x153;" horiz-adv-x="1622" d="M47 465q0 199 135 331t338 150v-20q-37 -9 -65 -37q-45 -47 -60.5 -141.5t-15.5 -282.5t15.5 -282.5t60.5 -139.5q32 -32 65 -39v-20q-203 18 -338 150t-135 331zM580 4q36 8 67 39q45 45 60.5 139.5t15.5 282.5q0 183 -16.5 279.5t-59.5 144.5q-28 28 -67 37v20 q90 -7 168.5 -51.5t134.5 -114.5q43 70 120 115t158 51v-20q-66 -17 -90 -93.5t-24 -257.5q0 -358 276 -358q167 0 262 76v-31q-11 -36 -27.5 -69.5t-48 -73t-71.5 -68t-102 -48t-136 -19.5q-102 0 -186.5 43.5t-132.5 117.5q-47 -67 -128.5 -110t-172.5 -51v20zM1108 559 v23l192 20q0 150 -24.5 231.5t-67.5 92.5v20q94 -4 167.5 -39.5t116.5 -92t65 -121.5t22 -134h-471z" />
<glyph unicode="&#x178;" horiz-adv-x="1159" d="M-18 1290h409l354 -641v-649h-368v586zM324 1524q0 54 39.5 92.5t93.5 38.5q55 0 94 -38.5t39 -92.5q0 -56 -39 -95.5t-94 -39.5q-54 0 -93.5 40t-39.5 95zM750 1524q0 54 38.5 92.5t92.5 38.5q55 0 94 -38.5t39 -92.5q0 -56 -39 -95.5t-94 -39.5q-54 0 -92.5 39.5 t-38.5 95.5zM881 950q15 52 27.5 102t18 77t16.5 83.5t15 77.5h248q-80 -80 -135.5 -145t-171.5 -209z" />
<glyph unicode="&#x2c6;" horiz-adv-x="940" d="M213 1067l250 311h16l248 -311l-12 -14l-238 135h-14l-240 -135z" />
<glyph unicode="&#x2dc;" horiz-adv-x="940" d="M150 1034q25 108 101.5 180t172.5 72h248q30 0 51.5 11t31 22.5t25.5 36.5h21q-73 -256 -258 -256h-258q-81 0 -117 -66h-18z" />
<glyph unicode="&#x2000;" horiz-adv-x="850" />
<glyph unicode="&#x2001;" horiz-adv-x="1700" />
<glyph unicode="&#x2002;" horiz-adv-x="850" />
<glyph unicode="&#x2003;" horiz-adv-x="1700" />
<glyph unicode="&#x2004;" horiz-adv-x="566" />
<glyph unicode="&#x2005;" horiz-adv-x="425" />
<glyph unicode="&#x2006;" horiz-adv-x="283" />
<glyph unicode="&#x2007;" horiz-adv-x="283" />
<glyph unicode="&#x2008;" horiz-adv-x="212" />
<glyph unicode="&#x2009;" horiz-adv-x="340" />
<glyph unicode="&#x200a;" horiz-adv-x="94" />
<glyph unicode="&#x2010;" horiz-adv-x="520" d="M84 434v144h354v-144h-354z" />
<glyph unicode="&#x2011;" horiz-adv-x="520" d="M84 434v144h354v-144h-354z" />
<glyph unicode="&#x2012;" horiz-adv-x="520" d="M84 434v144h354v-144h-354z" />
<glyph unicode="&#x2013;" horiz-adv-x="915" d="M47 532v74h819v-74h-819z" />
<glyph unicode="&#x2014;" horiz-adv-x="1447" d="M47 532v74h1352v-74h-1352z" />
<glyph unicode="&#x2018;" horiz-adv-x="405" d="M33 834q8 20 139.5 226.5t140.5 229.5h41q-9 -24 -35.5 -236.5t-27.5 -219.5h-258z" />
<glyph unicode="&#x2019;" horiz-adv-x="405" d="M51 834q4 21 32 227t32 229h258q-8 -20 -141 -226.5t-142 -229.5h-39z" />
<glyph unicode="&#x201a;" horiz-adv-x="389" d="M39 -248q4 21 30.5 228.5t30.5 228.5h260q-8 -20 -140.5 -227t-141.5 -230h-39z" />
<glyph unicode="&#x201c;" horiz-adv-x="724" d="M33 834q8 20 139.5 226.5t140.5 229.5h41q-9 -24 -35.5 -236.5t-27.5 -219.5h-258zM352 834q7 18 70.5 120.5t135.5 215t77 120.5h39q-9 -24 -36 -237t-28 -219h-258z" />
<glyph unicode="&#x201d;" horiz-adv-x="724" d="M51 834q4 21 32 227t32 229h258q-8 -20 -141 -226.5t-142 -229.5h-39zM371 834q8 26 34.5 236.5t28.5 219.5h258q-8 -20 -139.5 -226.5t-140.5 -229.5h-41z" />
<glyph unicode="&#x201e;" horiz-adv-x="708" d="M39 -248q5 23 30.5 229t30.5 228h260q-8 -20 -140.5 -227t-141.5 -230h-39zM358 -248q4 21 32 228t32 229h258q-8 -20 -140 -227t-141 -230h-41z" />
<glyph unicode="&#x2022;" horiz-adv-x="589" d="M102 561q0 82 55.5 138.5t137.5 56.5q81 0 136.5 -56.5t55.5 -138.5q0 -80 -55.5 -137t-136.5 -57t-137 57t-56 137z" />
<glyph unicode="&#x2026;" horiz-adv-x="1662" d="M123 147q0 71 48 118.5t118 47.5t118 -47.5t48 -118.5t-48 -117t-118 -46t-118 46t-48 117zM666 147q0 71 47.5 118.5t117.5 47.5q72 0 119 -47t47 -119t-47 -117.5t-119 -45.5q-70 0 -117.5 46t-47.5 117zM1210 147q0 71 48 118.5t118 47.5t118 -47.5t48 -118.5 t-48 -117t-118 -46t-118 46t-48 117z" />
<glyph unicode="&#x202f;" horiz-adv-x="340" />
<glyph unicode="&#x2039;" horiz-adv-x="421" d="M66 461v20l276 283l18 -8l-122 -285l122 -283l-18 -10z" />
<glyph unicode="&#x203a;" horiz-adv-x="421" d="M61 188l125 283l-125 285l19 8l276 -283v-20l-276 -283z" />
<glyph unicode="&#x205f;" horiz-adv-x="425" />
<glyph unicode="&#x20ac;" horiz-adv-x="1110" d="M33 512v41h127v6q0 71 12 135h-139v43h147q50 193 199.5 314.5t370.5 144.5v-20q-121 -30 -188 -143.5t-81 -295.5h281v-43h-283v-45q0 -75 4 -96h217v-41h-213q45 -311 342 -311q155 0 265 86v-31q-11 -34 -28.5 -66.5t-51.5 -71.5t-77 -67t-110 -47.5t-147 -19.5 q-220 0 -364 140t-156 388h-127zM786 1028q0 52 35 86.5t88 34.5q51 0 87 -35t36 -86q0 -53 -35.5 -88t-87.5 -35q-54 0 -88.5 34.5t-34.5 88.5z" />
<glyph unicode="&#x2122;" horiz-adv-x="1218" d="M31 1169v121h139v-12q-41 -24 -139 -109zM201 809v481h149v-481h-149zM383 1278v12h137v-121q-80 72 -137 109zM559 809q43 91 64 164h16q10 -73 29 -164h-109zM580 1290h161l170 -334l-73 -155h-13zM971 1290h149l17 -481h-150z" />
<glyph unicode="&#x25fc;" horiz-adv-x="931" d="M0 0v932h932v-932h-932z" />
</font>
</defs>
</svg>
