<?xml version="1.0" standalone="no"?>
<!DOCTYPE svg PUBLIC "-//W3C//DTD SVG 1.1//EN" "http://www.w3.org/Graphics/SVG/1.1/DTD/svg11.dtd" >
<svg xmlns="http://www.w3.org/2000/svg" width="100%" height="100%">
<metadata>
Created by FontXChange 20110222 at Fri Sep 28 14:41:12 2012
 By Anders Johansson
(c)2010 Paul Barnes and Commercial Type.
</metadata>
<defs>
<font id="DalaFloda-BlackItalic" horiz-adv-x="525" >
  <font-face 
    font-family="Dala Floda Black"
    font-weight="900"
    font-style="italic"
    font-stretch="normal"
    units-per-em="1000"
    panose-1="2 2 10 3 9 3 8 9 3 3"
    ascent="747"
    descent="-253"
    x-height="481"
    cap-height="630"
    bbox="-260 -318 1435 1014"
    underline-thickness="50"
    underline-position="-50"
    slope="-12"
    stemh="8"
    stemv="183"
    unicode-range="U+0020-FB06"
  />
<missing-glyph horiz-adv-x="1000" 
 />
    <glyph glyph-name="f_b" unicode="fb" horiz-adv-x="925" 
d="M378 208l59 191h-116c-4 -17 -8 -39 -12 -60c-41 -176 -96 -388 -239 -503c-54 -45 -121 -73 -204 -77l2 6c56 12 108 52 137 141c37 115 76 334 111 493h-69l3 8l88 63c26 74 64 132 121 172c52 37 124 58 210 62l-2 -6c-80 -13 -105 -95 -131 -230h122l15 49l4 17
c-31 11 -53 42 -53 78c0 46 38 83 84 83c13 0 25 -2 35 -8l188 27l1 -1l-178 -583c-6 -20 -19 -81 -19 -106c0 -19 4 -21 8 -24l-2 -7c-114 3 -176 61 -176 126c0 30 7 69 13 89zM559 -8l2 7c10 6 22 16 33 31c55 81 120 266 120 329c0 9 -3 15 -11 15
c-12 0 -36 -14 -57 -41l-6 3c45 82 129 145 204 145c50 0 86 -31 86 -96c0 -179 -144 -377 -371 -393zM-225 -156c0 39 33 72 72 72c38 0 71 -33 71 -72s-33 -71 -71 -71c-39 0 -72 32 -72 71z" />
    <glyph glyph-name="f_f" unicode="ff" horiz-adv-x="697" 
d="M428 598c0 47 38 84 84 84c28 0 54 -14 69 -36c53 34 120 54 204 58l-2 -6c-81 -13 -103 -97 -130 -230h93l-19 -69h-89l-10 -53c-40 -172 -99 -372 -231 -489c-59 -52 -132 -83 -223 -88l2 6c56 12 108 52 137 141c37 113 86 324 121 483h-113c-4 -16 -7 -37 -11 -54
c-33 -139 -72 -298 -155 -419h4c39 0 71 -33 71 -72s-32 -71 -71 -71c-37 0 -68 28 -71 64c-58 -51 -130 -83 -222 -88l2 6c56 12 108 52 137 141c37 113 76 333 111 493h-69l3 8l88 63c20 60 54 107 101 144c60 45 141 73 242 78l-2 -6c-86 -13 -119 -94 -144 -218h120
c6 19 14 37 22 54c-29 13 -49 42 -49 76zM731 608c0 47 38 84 84 84s84 -37 84 -84c0 -46 -38 -88 -85 -88c-46 0 -83 42 -83 88zM-225 -156c0 39 33 72 72 72c38 0 71 -33 71 -72s-33 -71 -71 -71c-39 0 -72 32 -72 71z" />
    <glyph glyph-name="f_f_b" unicode="ffb" horiz-adv-x="1241" 
d="M695 208l58 191h-114c-3 -12 -7 -37 -11 -53c-41 -173 -100 -378 -239 -495c-57 -47 -128 -78 -215 -82l2 6c56 12 107 52 137 141c37 110 87 327 121 483h-113c-4 -16 -7 -37 -11 -54c-33 -139 -72 -298 -155 -419h4c39 0 71 -33 71 -72s-32 -71 -71 -71
c-37 0 -68 28 -71 64c-58 -51 -130 -83 -222 -88l2 6c56 12 108 52 137 141c37 113 76 333 111 493h-69l3 8l88 63c20 60 54 107 101 144c60 45 141 73 242 78l-2 -6c-86 -13 -119 -94 -144 -218h120c6 19 13 37 21 54c-28 13 -48 42 -48 76c0 47 38 84 84 84
c28 0 54 -14 69 -36c53 34 122 54 206 58l-2 -6c-81 -13 -106 -98 -132 -230h121l20 66c-31 12 -52 42 -52 77c0 47 37 84 84 84c12 0 25 -3 35 -8l187 27l1 -1l-178 -583c-6 -20 -19 -81 -19 -106c0 -19 4 -21 7 -24l-2 -7c-113 3 -176 61 -176 126c0 30 8 69 14 89z
M876 -8l2 7c10 6 22 16 33 31c55 81 120 266 120 329c0 9 -3 15 -11 15c-12 0 -36 -14 -58 -41l-6 3c45 82 130 145 205 145c50 0 85 -31 85 -96c0 -179 -143 -377 -370 -393zM-225 -156c0 39 33 72 72 72c38 0 71 -33 71 -72s-33 -71 -71 -71c-39 0 -72 32 -72 71z" />
    <glyph glyph-name="f_f_h" unicode="ffh" horiz-adv-x="1256" 
d="M742 612c0 46 38 83 84 83c12 0 24 -3 35 -8l186 27l1 -1l-198 -656c-14 -35 -51 -65 -117 -65c-73 0 -97 22 -85 61l105 346h-114c-3 -12 -7 -37 -11 -53c-41 -173 -100 -378 -239 -495c-57 -47 -128 -78 -215 -82l2 6c56 12 107 52 137 141c37 110 87 327 121 483h-113
c-4 -16 -7 -37 -11 -54c-33 -139 -72 -298 -155 -419h4c39 0 71 -33 71 -72s-32 -71 -71 -71c-37 0 -68 28 -71 64c-58 -51 -130 -83 -222 -88l2 6c56 12 108 52 137 141c37 113 76 333 111 493h-69l3 8l88 63c20 60 54 107 101 144c60 45 141 73 242 78l-2 -6
c-86 -13 -119 -94 -144 -218h120c6 19 13 37 21 54c-28 13 -48 42 -48 76c0 47 38 84 84 84c28 0 54 -14 69 -36c53 34 122 54 206 58l-2 -6c-81 -13 -106 -98 -132 -230h121l20 66c-31 13 -52 42 -52 78zM1052 352c0 16 -8 27 -20 27c-15 0 -43 -19 -67 -49l-6 3
c52 90 150 148 223 148c48 0 84 -28 84 -96c0 -160 -127 -369 -327 -392l2 7c13 5 27 15 35 31c36 69 76 225 76 321zM-225 -156c0 39 33 72 72 72c38 0 71 -33 71 -72s-33 -71 -71 -71c-39 0 -72 32 -72 71zM871 54c0 26 21 48 48 48c26 0 48 -22 48 -48
c0 -27 -22 -48 -48 -48c-27 0 -48 21 -48 48z" />
    <glyph glyph-name="f_f_i" unicode="ffi" horiz-adv-x="965" 
d="M174 -231l2 6c56 12 108 52 137 141c37 113 85 323 121 483h-113l-2 -7c-30 -148 -70 -332 -164 -466h4c39 0 71 -33 71 -72s-32 -71 -71 -71c-37 0 -68 29 -71 65c-58 -52 -131 -84 -222 -89l2 6c56 12 108 52 137 141c37 113 76 333 111 493h-69l3 8l88 63
c18 53 47 99 90 136c60 51 147 81 253 86l-2 -6c-86 -13 -119 -94 -144 -218h120c6 19 13 37 22 54c-29 13 -49 42 -49 76c0 47 38 84 84 84c29 0 56 -15 71 -39c56 35 129 54 215 59l-2 -6c-75 -14 -120 -110 -143 -228h145c52 0 152 4 192 7l3 -5
c-22 -54 -44 -111 -69 -174c-27 -67 -51 -127 -81 -190l3 -2c38 18 73 46 104 75l6 -4c-55 -86 -165 -184 -256 -184c-39 0 -64 27 -64 59c0 25 26 90 69 195c21 50 40 93 65 154h-132l-1 -7c-34 -161 -84 -361 -197 -494c-64 -75 -152 -123 -266 -129zM822 702
c99 -3 184 -22 184 -104c0 -44 -39 -82 -95 -82c-51 0 -92 28 -92 79c0 37 24 67 49 79c-11 14 -33 19 -48 22zM-225 -156c0 39 33 72 72 72c38 0 71 -33 71 -72s-33 -71 -71 -71c-39 0 -72 32 -72 71z" />
    <glyph glyph-name="f_f_j" unicode="ffj" horiz-adv-x="957" 
d="M428 598c0 47 38 84 84 84c29 0 55 -16 70 -39c57 36 129 54 215 59l-2 -6c-75 -14 -119 -110 -142 -228h140c52 0 150 4 193 7l3 -5c-22 -66 -125 -373 -171 -480c-55 -128 -166 -204 -323 -213l2 6c47 19 70 58 111 153c40 93 134 379 161 463h-131l-1 -7
c-31 -146 -74 -321 -164 -451c32 -9 56 -40 56 -74c0 -41 -35 -76 -76 -76c-33 0 -61 22 -72 51c-56 -42 -124 -69 -207 -73l2 6c56 12 108 52 137 141c37 113 86 323 121 483h-113l-2 -7c-30 -147 -70 -332 -162 -466h2c39 0 71 -33 71 -72s-32 -71 -71 -71
c-37 0 -68 28 -71 64c-58 -51 -131 -83 -222 -88l2 6c56 12 108 52 137 141c37 113 76 333 111 493h-69l3 8l88 63c19 56 51 104 98 142c60 47 144 75 245 80l-2 -6c-86 -13 -119 -94 -144 -218h120c6 19 13 37 22 54c-29 13 -49 42 -49 76zM820 696l2 6
c98 -3 183 -28 183 -103c0 -46 -38 -83 -95 -83c-51 0 -91 28 -91 80c0 35 23 66 48 78c-11 14 -32 19 -47 22zM-225 -156c0 39 33 72 72 72c38 0 71 -33 71 -72s-33 -71 -71 -71c-39 0 -72 32 -72 71z" />
    <glyph glyph-name="f_f_k" unicode="ffk" horiz-adv-x="1222" 
d="M742 612c0 46 37 83 84 83c13 0 24 -3 35 -8l187 27l1 -1l-198 -656c-15 -35 -51 -65 -117 -65c-73 0 -97 22 -85 61l105 346h-115c-3 -12 -7 -37 -11 -53c-41 -173 -100 -378 -239 -495c-57 -47 -128 -78 -215 -82l2 6c56 12 107 52 137 141c37 110 87 327 121 483h-113
c-4 -16 -7 -37 -11 -54c-33 -139 -72 -298 -155 -419h4c39 0 71 -33 71 -72s-32 -71 -71 -71c-37 0 -68 28 -71 64c-58 -51 -130 -83 -222 -88l2 6c56 12 108 52 137 141c37 113 76 333 111 493h-69l3 8l88 63c20 60 54 107 101 144c60 45 141 73 242 78l-2 -6
c-86 -13 -119 -94 -144 -218h120c6 19 13 37 21 54c-28 13 -48 42 -48 76c0 47 38 84 84 84c28 0 54 -14 69 -36c53 34 122 54 206 58l-2 -6c-81 -13 -106 -98 -132 -230h122l19 66c-31 12 -52 42 -52 78zM944 277l-6 4c59 87 160 200 240 200c35 0 50 -28 50 -58
c0 -65 -60 -124 -147 -165c15 -53 25 -101 42 -142c8 -19 17 -27 29 -27c15 0 42 24 53 43l6 -4c-28 -65 -110 -136 -192 -136c-41 0 -75 16 -87 73c-9 37 -14 89 -15 118c56 27 79 38 106 55c38 26 60 58 60 98c0 17 -8 25 -23 25c-29 0 -83 -41 -116 -84zM-225 -156
c0 39 33 72 72 72c38 0 71 -33 71 -72s-33 -71 -71 -71c-39 0 -72 32 -72 71z" />
    <glyph glyph-name="f_f_l" unicode="ffl" horiz-adv-x="974" 
d="M742 611c0 47 37 84 84 84c13 0 25 -3 36 -9l187 28l1 -1l-190 -607l3 -2c40 18 72 41 104 70l6 -4c-55 -85 -168 -178 -259 -178c-39 0 -64 26 -64 59c0 27 30 120 42 155l61 193h-114c-3 -12 -7 -37 -11 -53c-41 -173 -100 -378 -239 -495c-57 -47 -128 -78 -215 -82
l2 6c56 12 107 52 137 141c37 110 87 327 121 483h-113c-4 -16 -7 -37 -11 -54c-33 -139 -72 -298 -155 -419h4c39 0 71 -33 71 -72s-32 -71 -71 -71c-37 0 -68 28 -71 64c-58 -51 -130 -83 -222 -88l2 6c56 12 108 52 137 141c37 113 76 333 111 493h-69l3 8l88 63
c20 60 54 107 101 144c60 45 141 73 242 78l-2 -6c-86 -13 -119 -94 -144 -218h120c6 19 13 37 21 54c-28 13 -48 42 -48 76c0 47 38 84 84 84c28 0 54 -14 69 -36c53 34 122 54 206 58l-2 -6c-81 -13 -106 -98 -132 -230h121l21 65c-31 12 -53 42 -53 78zM-225 -156
c0 39 33 72 72 72c38 0 71 -33 71 -72s-33 -71 -71 -71c-39 0 -72 32 -72 71z" />
    <glyph glyph-name="f_f_r" unicode="ffr" horiz-adv-x="1144" 
d="M428 598c0 47 38 84 84 84c28 0 54 -14 69 -36c52 34 119 54 204 58l-2 -6c-81 -13 -104 -95 -130 -230h153c52 0 152 7 193 12l3 -6c-7 -20 -163 -408 -167 -417c-15 -34 -52 -65 -117 -65c-73 0 -101 24 -85 61l145 346h-140c-2 -15 -7 -37 -10 -53
c-42 -179 -103 -388 -249 -502c-55 -44 -123 -71 -205 -75l2 6c56 12 108 52 137 141c37 113 86 324 121 483h-113c-4 -16 -7 -37 -11 -54c-33 -139 -72 -298 -155 -419h4c39 0 71 -33 71 -72s-32 -71 -71 -71c-37 0 -68 28 -71 64c-58 -51 -130 -83 -222 -88l2 6
c56 12 108 52 137 141c37 113 76 333 111 493h-69l3 8l88 63c20 60 54 107 101 144c60 45 141 73 242 78l-2 -6c-86 -13 -119 -94 -144 -218h120c6 19 14 37 22 54c-29 13 -49 42 -49 76zM1018 257l-6 6c12 20 29 73 29 94c0 7 -2 14 -11 14c-14 0 -43 -40 -65 -87l-7 2
c28 101 92 195 171 195c29 0 53 -20 53 -61c0 -83 -83 -149 -164 -163zM731 608c0 47 38 84 84 84s84 -37 84 -84c0 -46 -38 -83 -84 -83s-84 37 -84 83zM-225 -156c0 39 33 72 72 72c38 0 71 -33 71 -72s-33 -71 -71 -71c-39 0 -72 32 -72 71z" />
    <glyph glyph-name="f_h" unicode="fh" horiz-adv-x="938" 
d="M330 53l106 346h-115c-3 -17 -7 -36 -11 -52c-39 -169 -89 -370 -216 -492c-58 -56 -133 -91 -228 -96l2 6c56 12 108 52 137 141c37 115 76 334 111 493h-69l3 8l88 63c21 61 49 112 90 150c55 51 137 79 241 84l-2 -6c-80 -13 -105 -96 -131 -230h120l20 66
c-31 13 -52 42 -52 78c0 46 38 83 84 83c13 0 25 -3 35 -8l186 27l1 -1l-198 -656c-14 -35 -51 -65 -117 -65c-73 0 -97 22 -85 61zM734 352c0 16 -8 27 -20 27c-15 0 -43 -19 -67 -49l-6 3c52 90 150 148 223 148c48 0 84 -28 84 -96c0 -160 -126 -368 -326 -391l2 7
c13 5 27 14 35 30c36 70 75 225 75 321zM-225 -156c0 39 33 72 72 72c38 0 71 -33 71 -72s-33 -71 -71 -71c-39 0 -72 32 -72 71zM554 54c0 26 21 49 47 49c27 0 49 -23 49 -49c0 -27 -22 -47 -49 -47c-26 0 -47 20 -47 47z" />
    <glyph glyph-name="f_i" unicode="fi" horiz-adv-x="650" 
d="M335 468h145c52 0 151 4 192 7l3 -5c-18 -42 -49 -122 -68 -171c-27 -68 -52 -130 -83 -193l3 -2c38 18 74 46 105 75l6 -4c-55 -86 -166 -184 -256 -184c-39 0 -64 27 -64 59c0 14 10 41 22 77c11 29 26 69 45 115l67 156l-132 1c-3 -19 -6 -37 -11 -56
c-29 -130 -65 -284 -142 -402c-65 -102 -160 -175 -301 -182l2 6c56 12 108 52 137 141c36 112 73 323 108 481l3 12h-69l3 8l88 63c26 74 68 132 128 172c57 36 128 56 214 60l-2 -6c-75 -14 -120 -110 -143 -228zM504 702c99 -3 184 -22 184 -104c0 -44 -39 -82 -95 -82
c-51 0 -92 28 -92 79c0 37 23 67 48 79c-10 14 -32 19 -47 22zM-225 -156c0 39 33 72 72 72c38 0 71 -33 71 -72s-33 -71 -71 -71c-39 0 -72 32 -72 71z" />
    <glyph glyph-name="f_j" unicode="fj" horiz-adv-x="640" 
d="M669 475l3 -5c-22 -66 -125 -373 -171 -480c-55 -128 -166 -204 -323 -213l2 6c47 19 70 58 111 153c40 93 134 378 161 462l-131 1c-4 -16 -7 -34 -10 -50c-30 -133 -70 -291 -148 -411c28 -11 48 -39 48 -71c0 -41 -34 -76 -75 -76c-29 0 -55 17 -68 41
c-53 -42 -120 -68 -202 -73l2 6c56 12 108 52 137 141c35 109 71 310 106 468l5 25h-69l3 8l88 63c25 69 69 132 129 172c56 36 127 55 213 60l-2 -6c-75 -14 -120 -114 -143 -228h145c52 0 148 4 189 7zM502 696l2 6c99 -3 184 -28 184 -103c0 -46 -39 -83 -95 -83
c-51 0 -91 28 -91 80c0 35 23 66 48 78c-11 14 -32 19 -48 22zM-225 -156c0 39 33 72 72 72c38 0 71 -33 71 -72s-33 -71 -71 -71c-39 0 -72 32 -72 71z" />
    <glyph glyph-name="f_k" unicode="fk" horiz-adv-x="904" 
d="M330 53l106 346h-115c-4 -18 -8 -42 -14 -64c-42 -185 -101 -407 -260 -514c-50 -36 -110 -58 -181 -62l2 6c56 12 108 52 137 141c37 115 76 334 111 493h-69l3 8l87 63c26 73 65 132 122 172c52 37 124 58 210 62l-2 -6c-80 -13 -105 -96 -131 -230h120l15 50l5 16
c-31 13 -52 42 -52 78c0 46 38 83 84 83c13 0 25 -3 35 -8l186 27l1 -1l-198 -656c-14 -35 -51 -65 -117 -65c-73 0 -97 22 -85 61zM626 277l-6 4c58 87 160 200 239 200c35 0 51 -28 51 -58c0 -65 -61 -124 -147 -165c14 -53 24 -101 41 -142c9 -19 17 -27 29 -27
c15 0 42 24 53 43l7 -4c-28 -65 -110 -136 -193 -136c-40 0 -74 16 -87 73c-8 37 -13 89 -15 118c56 27 80 38 106 55c38 26 61 58 61 98c0 17 -8 25 -24 25c-29 0 -83 -41 -115 -84zM-225 -156c0 39 33 72 72 72c38 0 71 -33 71 -72s-33 -71 -71 -71c-39 0 -72 32 -72 71z
" />
    <glyph glyph-name="f_l" unicode="fl" horiz-adv-x="656" 
d="M333 51c0 27 30 120 41 155l61 193h-114c-3 -16 -7 -37 -12 -58c-41 -178 -96 -393 -243 -508c-54 -43 -120 -70 -200 -74l2 6c56 12 108 52 137 141c37 115 76 334 111 493h-69l3 8l87 63c26 73 65 132 122 172c52 37 124 58 210 62l-2 -6c-80 -13 -105 -96 -131 -230
h120l22 65c-32 12 -54 43 -54 79c0 46 38 83 84 83c13 0 25 -3 36 -8l187 27l1 -1l-190 -607l3 -2c40 18 73 41 104 70l6 -4c-55 -85 -168 -178 -258 -178c-39 0 -64 26 -64 59zM-225 -156c0 39 33 72 72 72c38 0 71 -33 71 -72s-33 -71 -71 -71c-39 0 -72 32 -72 71z" />
    <glyph glyph-name="f_r" unicode="fr" horiz-adv-x="826" 
d="M-225 -156c0 39 33 72 72 72c38 0 71 -33 71 -72s-33 -71 -71 -71c-39 0 -72 32 -72 71zM50 407l88 63c26 74 64 132 121 172c52 37 122 58 208 62l-2 -6c-81 -13 -103 -95 -130 -230h152c52 0 153 7 194 12l3 -6c-7 -20 -163 -408 -167 -417c-15 -34 -52 -65 -117 -65
c-73 0 -101 24 -85 61c3 8 140 336 143 346h-137c-4 -19 -7 -36 -12 -55c-42 -184 -99 -407 -256 -519c-51 -38 -113 -62 -187 -66l2 6c56 12 108 52 137 141c36 112 72 322 109 481l2 12h-69zM700 257l-6 6c12 20 29 73 29 94c0 7 -2 14 -11 14c-14 0 -43 -40 -64 -87l-7 2
c27 101 91 195 170 195c29 0 53 -20 53 -61c0 -83 -83 -149 -164 -163zM414 608c0 47 37 84 83 84c47 0 84 -37 84 -84c0 -46 -37 -83 -84 -83c-46 0 -83 37 -83 83z" />
    <glyph glyph-name="g_g" unicode="gg" horiz-adv-x="934" 
d="M617 -226l-3 -8c-95 2 -202 20 -240 62c-38 -33 -98 -57 -179 -62l2 8c40 5 68 18 68 40c0 27 -31 44 -102 79c-99 49 -155 79 -155 144c0 59 57 102 134 121l6 -3c-3 -4 -6 -9 -6 -13c0 -15 50 -33 150 -82c95 -47 129 -76 129 -138v-5c26 10 57 17 83 20l2 -7
c-14 -14 -32 -36 -32 -70c0 -69 80 -78 143 -86zM636 -234l2 8c40 5 68 18 68 40c0 27 -31 44 -102 79c-99 49 -155 79 -155 144c0 59 57 102 135 123l6 -3c-4 -4 -7 -9 -7 -15c0 -14 50 -33 150 -82c95 -47 129 -76 129 -138c0 -75 -79 -147 -226 -156zM745 481l-2 -7
c-4 0 -13 -4 -20 -12c-17 -17 -95 -201 -95 -275c0 -10 4 -18 7 -19l-2 -7c-91 6 -142 61 -142 127c0 100 88 189 254 193zM288 481l-2 -7c-5 0 -14 -4 -20 -13c-18 -17 -94 -201 -94 -274c0 -10 3 -18 6 -19l-2 -7c-83 9 -141 61 -141 127c0 100 87 189 253 193zM176 -226
l-3 -8c-125 2 -275 29 -275 96c0 41 97 68 165 75l2 -8c-23 -10 -50 -34 -50 -69c0 -70 96 -78 161 -86zM878 433l3 7l133 55l-39 -128zM422 433l2 7l114 55l-39 -128zM186 160l2 7c6 0 15 3 22 11c19 20 93 203 93 276c0 10 -3 18 -6 19l2 7c92 -4 144 -60 144 -126
c0 -103 -89 -188 -257 -194zM643 160l2 7c6 0 15 3 22 11c19 20 93 203 93 276c0 10 -4 18 -7 19l2 7c92 -4 145 -60 145 -126c0 -103 -89 -188 -257 -194z" />
    <glyph glyph-name="g_y" unicode="gy" horiz-adv-x="947" 
d="M190 -169c0 16 5 30 13 42l-40 20c-99 49 -155 79 -155 144c0 59 57 102 135 122l6 -3c-4 -4 -7 -8 -7 -14c0 -14 50 -33 150 -82c95 -47 129 -76 129 -138c0 -27 -10 -53 -30 -77c39 7 79 25 104 37l4 -5c-21 -20 -60 -54 -122 -84c-35 -16 -68 -27 -106 -27
c-35 0 -81 16 -81 65zM525 372c-3 29 -14 35 -39 35c-11 0 -25 -3 -34 -7l4 11c35 35 87 71 167 71c51 0 85 -22 91 -69c9 -75 8 -243 0 -363c-39 -35 -123 -111 -194 -158c17 209 13 382 5 480zM295 481l-2 -7c-5 -1 -15 -5 -23 -15c-17 -19 -91 -201 -91 -272
c0 -10 3 -18 6 -19l-2 -7c-91 6 -141 61 -141 127c0 100 87 189 253 193zM851 373c0 24 -9 29 -22 29c-14 0 -40 -9 -59 -32l-5 5c25 57 107 106 163 106c42 0 49 -32 49 -60c0 -57 -69 -198 -204 -301l-3 6c52 67 81 196 81 247zM184 -226l-3 -8c-129 2 -283 29 -283 96
c0 41 97 68 165 75l2 -8c-23 -10 -50 -34 -50 -69c0 -70 100 -78 169 -86zM193 160l2 7c6 0 15 3 22 11c19 20 93 203 93 276c0 10 -3 18 -6 19l2 7c92 -4 144 -60 144 -126c0 -103 -89 -188 -257 -194z" />
    <glyph glyph-name="g_g_y" unicode="ggy" horiz-adv-x="1395" 
d="M195 -234l2 8c40 5 68 18 68 40c0 27 -31 44 -102 79c-99 49 -155 79 -155 144c0 59 57 102 134 121l6 -3c-3 -4 -6 -9 -6 -13c0 -15 50 -33 150 -82c95 -47 129 -76 129 -138v-5c28 10 61 17 90 20l2 -8c-20 -10 -46 -35 -46 -69c0 -69 94 -78 165 -86l-3 -8
c-105 2 -217 19 -259 59c-38 -31 -97 -54 -175 -59zM973 372c-3 29 -14 35 -39 35c-11 0 -25 -3 -34 -7l4 11c35 35 87 71 167 71c51 0 85 -22 91 -69c9 -75 8 -243 0 -363c-39 -35 -123 -111 -194 -158c18 209 13 382 5 480zM743 481l-2 -7c-4 0 -13 -4 -19 -12
c-18 -17 -95 -201 -95 -275c0 -10 3 -18 6 -19l-2 -7c-91 6 -141 61 -141 127c0 100 87 189 253 193zM288 481l-2 -7c-5 0 -14 -4 -20 -13c-18 -17 -94 -201 -94 -274c0 -10 3 -18 6 -19l-2 -7c-83 9 -141 61 -141 127c0 100 87 189 253 193zM1299 373c0 24 -9 29 -22 29
c-14 0 -40 -9 -59 -32l-5 5c25 57 107 106 163 106c42 0 49 -32 49 -60c0 -57 -69 -198 -204 -301l-3 6c53 67 81 196 81 247zM176 -226l-3 -8c-125 2 -275 29 -275 96c0 41 97 68 165 75l2 -8c-23 -10 -50 -34 -50 -69c0 -70 96 -78 161 -86zM422 433l2 7l114 55l-39 -128z
M638 -169c0 16 5 30 13 42l-40 20c-99 49 -155 79 -155 144c0 59 57 102 135 122l6 -3c-4 -4 -7 -8 -7 -14c0 -14 50 -33 150 -82c95 -47 129 -76 129 -138c0 -27 -10 -53 -30 -77c39 7 79 25 104 37l4 -5c-21 -20 -60 -54 -122 -84c-35 -16 -68 -27 -106 -27
c-35 0 -81 16 -81 65zM186 160l2 7c6 0 15 3 22 11c19 20 93 203 93 276c0 10 -3 18 -6 19l2 7c92 -4 144 -60 144 -126c0 -103 -89 -188 -257 -194zM641 160l2 7c6 0 15 3 22 11c19 20 93 203 93 276c0 10 -4 18 -7 19l2 7c92 -4 145 -60 145 -126
c0 -103 -89 -188 -257 -194z" />
    <glyph glyph-name="longs_b" unicode="&#x17f;b" horiz-adv-x="900" 
d="M93 408c30 102 79 178 142 225c59 44 133 64 210 71l-2 -6c-76 -13 -103 -87 -142 -274c-5 -21 -9 -45 -22 -99c-35 -158 -94 -389 -254 -503c-50 -37 -111 -59 -183 -63l2 6c56 12 108 52 137 141c36 114 69 347 112 502zM353 208l100 324c-34 11 -57 42 -57 80
c0 46 37 83 84 83c13 0 26 -3 37 -9l190 28l1 -1l-178 -583c-6 -20 -19 -81 -19 -106c0 -19 4 -21 7 -24l-2 -7c-114 3 -176 61 -176 126c0 30 7 69 13 89zM535 -8l2 7c7 2 15 8 23 18c56 69 130 276 130 342c0 9 -3 15 -11 15c-12 0 -36 -14 -58 -41l-6 3
c45 82 130 145 205 145c50 0 85 -31 85 -96c0 -179 -143 -377 -370 -393zM-249 -156c0 39 33 72 71 72c39 0 72 -33 72 -72s-33 -71 -72 -71c-38 0 -71 32 -71 71z" />
    <glyph glyph-name="longs_h" unicode="&#x17f;h" horiz-adv-x="915" 
d="M93 408c30 102 79 178 142 225c59 44 133 64 210 71l-2 -6c-76 -13 -103 -87 -142 -274c-5 -21 -9 -45 -22 -99c-35 -158 -94 -389 -254 -503c-50 -37 -111 -59 -183 -63l2 6c56 12 108 52 137 141c36 114 69 347 112 502zM396 612c0 46 37 83 84 83c13 0 25 -3 36 -9
l190 28l1 -1l-198 -656c-14 -35 -51 -65 -117 -65c-72 0 -97 22 -85 61l145 479c-33 12 -56 43 -56 80zM711 352c0 16 -8 27 -19 27c-16 0 -44 -19 -68 -49l-6 3c52 90 150 148 223 148c48 0 84 -28 84 -96c0 -160 -126 -369 -326 -392l2 7c13 5 25 14 33 29
c37 68 77 225 77 323zM-249 -156c0 39 33 72 71 72c39 0 72 -33 72 -72s-33 -71 -72 -71c-38 0 -71 32 -71 71zM531 54c0 26 21 48 48 48c26 0 48 -22 48 -48c0 -27 -22 -48 -48 -48c-27 0 -48 21 -48 48z" />
    <glyph glyph-name="longs_i" unicode="&#x17f;i" horiz-adv-x="635" 
d="M568 246c-24 -54 -4 -12 -70 -140l3 -2c38 18 73 46 104 75l6 -4c-55 -86 -167 -183 -258 -183c-39 0 -64 26 -64 59c0 13 5 36 18 64c17 39 44 99 65 140c18 38 52 110 52 130c0 10 -4 15 -12 15c-10 0 -24 -13 -35 -25c-12 -13 -35 -50 -48 -76l-7 3
c27 93 101 179 208 179c57 0 88 -36 88 -80s-25 -97 -50 -155zM92 403c31 112 80 185 143 232c59 43 133 63 221 67l-2 -6c-72 -13 -112 -82 -153 -272c-4 -21 -9 -46 -22 -100c-35 -153 -93 -388 -254 -502c-50 -37 -111 -59 -183 -63l2 6c56 12 108 52 137 141
c36 115 68 340 111 497zM480 702c99 -3 184 -29 184 -100c0 -45 -39 -82 -95 -82c-51 0 -92 28 -92 78c0 33 23 64 48 77c-11 14 -32 18 -47 21zM-249 -156c0 39 33 72 71 72c39 0 72 -33 72 -72s-33 -71 -72 -71c-38 0 -71 32 -71 71z" />
    <glyph glyph-name="longs_j" unicode="&#x17f;j" horiz-adv-x="610" 
d="M92 403c31 112 80 185 143 232c59 43 133 63 221 67l-2 -6c-72 -13 -112 -82 -153 -272c-4 -21 -9 -46 -22 -100c-26 -111 -63 -264 -142 -383c33 -7 59 -38 59 -74c0 -41 -34 -76 -75 -76c-32 0 -60 21 -71 50l-25 -19c-50 -37 -111 -59 -183 -63l2 6
c56 12 108 52 137 141c36 115 68 340 111 497zM487 -10c-56 -128 -167 -204 -324 -213l2 6c47 19 70 56 108 153c29 73 96 270 116 329c20 61 32 100 32 120c0 10 -5 15 -13 15c-9 0 -23 -10 -33 -25c-11 -14 -30 -46 -43 -76l-7 3c20 93 96 179 188 179c67 0 99 -42 99 -86
c0 -45 -12 -90 -32 -149c-18 -53 -52 -162 -93 -256zM480 702c99 -3 184 -29 184 -100c0 -45 -39 -82 -95 -82c-51 0 -92 28 -92 78c0 33 23 64 48 77c-11 14 -32 18 -47 21zM-249 -156c0 39 33 72 71 72c39 0 72 -33 72 -72s-33 -71 -72 -71c-38 0 -71 32 -71 71z" />
    <glyph glyph-name="longs_k" unicode="&#x17f;k" horiz-adv-x="881" 
d="M93 408c30 102 79 178 142 225c59 44 133 64 210 71l-2 -6c-76 -13 -103 -87 -142 -274c-5 -21 -9 -45 -22 -99c-35 -158 -94 -389 -254 -503c-50 -37 -111 -59 -183 -63l2 6c56 12 108 52 137 141c36 114 69 347 112 502zM307 53l145 479c-33 12 -56 43 -56 80
c0 46 37 83 84 83c13 0 25 -3 36 -9l190 28l1 -1l-198 -656c-14 -35 -51 -65 -117 -65c-72 0 -97 22 -85 61zM603 277l-6 4c58 87 160 200 239 200c35 0 51 -28 51 -58c0 -65 -61 -124 -147 -165c14 -53 24 -101 42 -142c8 -19 17 -27 28 -27c15 0 43 24 53 43l7 -4
c-28 -65 -110 -136 -193 -136c-40 0 -74 16 -86 73c-9 37 -14 89 -16 118c58 28 85 40 114 61c35 25 53 54 53 92c0 17 -8 25 -24 25c-28 0 -83 -41 -115 -84zM-249 -156c0 39 33 72 71 72c39 0 72 -33 72 -72s-33 -71 -72 -71c-38 0 -71 32 -71 71z" />
    <glyph glyph-name="longs_l" unicode="&#x17f;l" horiz-adv-x="632" 
d="M93 408c30 102 79 178 142 225c59 44 133 64 210 71l-2 -6c-76 -13 -103 -87 -142 -274c-5 -21 -9 -45 -22 -99c-35 -158 -94 -389 -254 -503c-50 -37 -111 -59 -183 -63l2 6c56 12 108 52 137 141c36 114 69 347 112 502zM319 85c0 22 58 195 63 210l72 237
c-34 10 -58 42 -58 80c0 46 37 83 84 83c11 0 22 -3 32 -7l196 26l-47 -141l-142 -468c11 4 20 7 26 13c29 14 56 32 82 55c-5 -9 -24 -34 -35 -34c-52 -76 -146 -146 -225 -141c-37 4 -54 39 -48 87zM-249 -156c0 39 33 72 71 72c39 0 72 -33 72 -72s-33 -71 -72 -71
c-38 0 -71 32 -71 71z" />
    <glyph glyph-name="longs_longs" unicode="&#x17f;&#x17f;" horiz-adv-x="634" 
d="M410 408c11 42 26 80 45 113c-31 12 -52 42 -52 77c0 47 37 84 84 84c31 0 59 -17 73 -42c57 39 127 57 199 64l-2 -6c-76 -13 -100 -88 -140 -273c-4 -22 -9 -47 -22 -100c-35 -158 -103 -380 -263 -493c-49 -37 -110 -59 -182 -63l2 6c56 12 107 52 137 141
c36 113 80 343 121 492zM93 400c27 103 79 175 142 222c59 43 140 63 221 70l-2 -6c-81 -14 -114 -78 -150 -244c-7 -32 -12 -63 -25 -117c-27 -119 -67 -279 -153 -399h9c38 0 71 -33 71 -72s-33 -71 -71 -71c-39 0 -72 32 -72 70c-12 -11 -25 -21 -38 -31
c-50 -37 -111 -59 -183 -63l2 6c56 12 108 52 137 141c36 114 74 339 112 494zM702 608c0 47 37 84 83 84c47 0 84 -37 84 -84c0 -46 -37 -83 -84 -83c-46 0 -83 37 -83 83zM-249 -156c0 39 33 72 71 72c39 0 72 -33 72 -72s-33 -71 -72 -71c-38 0 -71 32 -71 71z" />
    <glyph glyph-name="longs_longs_b" unicode="&#x17f;&#x17f;b" horiz-adv-x="1215" 
d="M410 408c11 42 26 79 45 113c-31 12 -52 42 -52 77c0 47 37 84 84 84c31 0 58 -16 72 -41c59 39 130 56 202 63l-2 -6c-76 -13 -102 -86 -142 -274c-4 -21 -9 -46 -22 -99c-35 -158 -105 -387 -263 -493c-50 -37 -110 -59 -182 -63l2 6c56 12 107 52 137 141
c38 114 81 344 121 492zM93 400c27 103 79 175 142 222c59 43 140 63 221 70l-2 -6c-81 -14 -114 -78 -150 -244c-7 -32 -12 -63 -25 -117c-27 -119 -67 -279 -153 -399h9c38 0 71 -33 71 -72s-33 -71 -71 -71c-39 0 -72 32 -72 70c-12 -11 -25 -21 -38 -31
c-50 -37 -111 -59 -183 -63l2 6c56 12 108 52 137 141c36 114 74 339 112 494zM669 208l99 324c-33 12 -56 43 -56 79c0 47 38 84 84 84c13 0 25 -3 36 -9l190 28l1 -1l-178 -583c-6 -20 -19 -81 -19 -106c0 -19 4 -21 8 -24l-2 -7c-114 3 -177 61 -177 126c0 30 8 69 14 89
zM850 -8l2 7c7 2 15 8 23 18c56 69 130 276 130 342c0 9 -3 15 -11 15c-12 0 -36 -14 -58 -41l-6 3c45 82 130 145 205 145c50 0 85 -31 85 -96c0 -179 -143 -377 -370 -393zM-249 -156c0 39 33 72 71 72c39 0 72 -33 72 -72s-33 -71 -72 -71c-38 0 -71 32 -71 71z" />
    <glyph glyph-name="longs_longs_h" unicode="&#x17f;&#x17f;h" horiz-adv-x="1229" 
d="M403 598c0 47 37 84 84 84c31 0 58 -16 72 -41c59 39 130 56 202 63l-2 -6c-76 -13 -102 -86 -142 -274c-4 -21 -9 -46 -22 -99c-35 -158 -105 -387 -263 -493c-50 -37 -110 -59 -182 -63l2 6c56 12 107 52 137 141c38 114 81 344 121 492c11 42 26 79 45 113
c-31 12 -52 42 -52 77zM93 400c27 103 79 175 142 222c59 43 140 63 221 70l-2 -6c-81 -14 -114 -78 -150 -244c-7 -32 -12 -63 -25 -117c-27 -119 -67 -279 -153 -399h9c38 0 71 -33 71 -72s-33 -71 -71 -71c-39 0 -72 32 -72 70c-12 -11 -25 -21 -38 -31
c-50 -37 -111 -59 -183 -63l2 6c56 12 108 52 137 141c36 114 74 339 112 494zM712 612c0 46 38 83 84 83c13 0 25 -3 36 -8l188 27l1 -1l-198 -656c-14 -35 -51 -65 -117 -65c-72 0 -97 22 -85 61l145 480c-31 12 -54 42 -54 79zM1025 352c0 16 -8 27 -20 27
c-15 0 -43 -19 -67 -49l-6 3c52 90 150 148 223 148c48 0 84 -28 84 -96c0 -160 -126 -369 -326 -392l2 7c12 5 25 14 33 29c37 68 77 225 77 323zM-249 -156c0 39 33 72 71 72c39 0 72 -33 72 -72s-33 -71 -72 -71c-38 0 -71 32 -71 71zM845 54c0 26 21 48 48 48
c26 0 48 -22 48 -48c0 -27 -22 -48 -48 -48c-27 0 -48 21 -48 48z" />
    <glyph glyph-name="longs_longs_i" unicode="&#x17f;&#x17f;i" horiz-adv-x="951" 
d="M617 424c-4 -21 -9 -46 -22 -99c-35 -158 -105 -387 -263 -493c-50 -37 -110 -59 -182 -63l2 6c56 12 107 52 137 141c38 114 81 344 121 492c12 42 27 79 45 113c-31 12 -52 42 -52 77c0 47 37 84 84 84c31 0 58 -16 72 -41c59 39 134 57 218 61l-2 -6
c-77 -13 -118 -84 -158 -272zM93 400c27 103 79 175 142 222c59 43 140 63 221 70l-2 -6c-81 -14 -114 -78 -150 -244c-7 -32 -12 -63 -25 -117c-27 -119 -67 -279 -153 -399h9c38 0 71 -33 71 -72s-33 -71 -71 -71c-39 0 -72 32 -72 70c-12 -11 -25 -21 -38 -31
c-50 -37 -111 -59 -183 -63l2 6c56 12 108 52 137 141c36 114 74 339 112 494zM884 246c-24 -54 -4 -12 -69 -140l3 -2c38 18 72 46 104 75l6 -4c-55 -86 -168 -183 -258 -183c-40 0 -65 26 -65 59c0 13 6 36 18 64c17 39 45 99 65 140c18 38 53 110 53 130
c0 10 -5 15 -13 15c-10 0 -24 -13 -35 -25c-12 -13 -35 -50 -48 -76l-7 3c27 93 101 179 208 179c57 0 88 -36 88 -80s-25 -97 -50 -155zM796 702c99 -3 184 -29 184 -100c0 -45 -39 -82 -95 -82c-51 0 -92 28 -92 78c0 33 23 64 48 77c-11 14 -32 18 -47 21zM-249 -156
c0 39 33 72 71 72c39 0 72 -33 72 -72s-33 -71 -72 -71c-38 0 -71 32 -71 71z" />
    <glyph glyph-name="longs_longs_j" unicode="&#x17f;&#x17f;j" horiz-adv-x="926" 
d="M617 424c-4 -21 -9 -46 -22 -99c-26 -115 -69 -267 -152 -382c37 -4 68 -37 68 -76c0 -41 -35 -76 -76 -76c-37 0 -68 28 -75 63c-9 -8 -18 -15 -28 -22c-50 -37 -110 -59 -182 -63l2 6c56 12 107 52 137 141c38 114 81 344 121 492c12 42 27 79 45 113
c-31 12 -52 42 -52 77c0 47 37 84 84 84c31 0 58 -16 72 -41c59 39 134 57 218 61l-2 -6c-77 -13 -118 -84 -158 -272zM93 400c27 103 79 175 142 222c59 43 140 63 221 70l-2 -6c-81 -14 -114 -78 -150 -244c-7 -32 -12 -63 -25 -117c-27 -119 -67 -279 -153 -399h9
c38 0 71 -33 71 -72s-33 -71 -71 -71c-39 0 -72 32 -72 70c-12 -11 -25 -21 -38 -31c-50 -37 -111 -59 -183 -63l2 6c56 12 108 52 137 141c36 114 74 339 112 494zM803 -10c-55 -128 -169 -204 -326 -213l2 6c47 19 73 56 110 153c29 73 96 270 116 329
c21 61 32 100 32 120c0 10 -4 15 -12 15c-10 0 -23 -10 -34 -25c-11 -14 -30 -46 -43 -76l-7 3c20 93 96 179 188 179c67 0 99 -42 99 -86c0 -45 -12 -90 -32 -149c-18 -53 -52 -162 -93 -256zM796 702c99 -3 184 -29 184 -100c0 -45 -39 -82 -95 -82c-51 0 -92 28 -92 78
c0 33 23 64 48 77c-11 14 -32 18 -47 21zM-249 -156c0 39 33 72 71 72c39 0 72 -33 72 -72s-33 -71 -72 -71c-38 0 -71 32 -71 71z" />
    <glyph glyph-name="longs_longs_k" unicode="&#x17f;&#x17f;k" horiz-adv-x="1195" 
d="M410 408c11 42 26 79 45 113c-31 12 -52 42 -52 77c0 47 37 84 84 84c31 0 58 -16 72 -41c59 39 130 56 202 63l-2 -6c-76 -13 -102 -86 -142 -274c-4 -21 -9 -46 -22 -99c-35 -158 -105 -387 -263 -493c-50 -37 -110 -59 -182 -63l2 6c56 12 107 52 137 141
c38 114 81 344 121 492zM93 400c27 103 79 175 142 222c59 43 140 63 221 70l-2 -6c-81 -14 -114 -78 -150 -244c-7 -32 -12 -63 -25 -117c-27 -119 -67 -279 -153 -399h9c38 0 71 -33 71 -72s-33 -71 -71 -71c-39 0 -72 32 -72 70c-12 -11 -25 -21 -38 -31
c-50 -37 -111 -59 -183 -63l2 6c56 12 108 52 137 141c36 114 74 339 112 494zM621 53l145 480c-31 12 -54 42 -54 79c0 46 38 83 84 83c13 0 25 -3 36 -8l188 27l1 -1l-198 -656c-14 -35 -51 -65 -117 -65c-73 0 -97 22 -85 61zM917 277l-6 4c58 87 159 200 239 200
c35 0 51 -28 51 -58c0 -65 -61 -124 -147 -165c14 -53 24 -101 41 -142c9 -19 17 -27 29 -27c15 0 42 24 53 43l7 -4c-28 -65 -110 -136 -193 -136c-40 0 -74 16 -87 73c-8 37 -13 89 -15 118c58 28 84 40 113 61c36 25 54 54 54 92c0 17 -9 25 -24 25
c-29 0 -83 -41 -115 -84zM-249 -156c0 39 33 72 71 72c39 0 72 -33 72 -72s-33 -71 -72 -71c-38 0 -71 32 -71 71z" />
    <glyph glyph-name="longs_longs_l" unicode="&#x17f;&#x17f;l" horiz-adv-x="946" 
d="M410 408c11 42 26 79 45 113c-31 12 -52 42 -52 77c0 47 37 84 84 84c31 0 58 -16 72 -41c59 39 130 56 202 63l-2 -6c-76 -13 -102 -86 -142 -274c-4 -21 -9 -46 -22 -99c-35 -158 -105 -387 -263 -493c-50 -37 -110 -59 -182 -63l2 6c56 12 107 52 137 141
c38 114 81 344 121 492zM93 400c27 103 79 175 142 222c59 43 140 63 221 70l-2 -6c-81 -14 -114 -78 -150 -244c-7 -32 -12 -63 -25 -117c-27 -119 -67 -279 -153 -399h9c38 0 71 -33 71 -72s-33 -71 -71 -71c-39 0 -72 32 -72 70c-12 -11 -25 -21 -38 -31
c-50 -37 -111 -59 -183 -63l2 6c56 12 108 52 137 141c36 114 74 339 112 494zM623 51c0 27 30 120 41 155l103 327c-32 11 -55 42 -55 78c0 47 38 84 84 84c13 0 25 -3 36 -9l189 28l1 -1l-190 -607l3 -2c40 18 72 41 104 70l6 -4c-55 -85 -168 -178 -258 -178
c-40 0 -64 26 -64 59zM-249 -156c0 39 33 72 71 72c39 0 72 -33 72 -72s-33 -71 -72 -71c-38 0 -71 32 -71 71z" />
    <glyph glyph-name=".notdef" horiz-adv-x="1000" 
 />
    <glyph glyph-name="Eth" unicode="&#xd0;" horiz-adv-x="753" 
d="M432 305h-105l-86 -305h-301l3 8c50 7 80 36 97 96l58 201h-80l9 29h79l50 177c7 23 10 42 10 58c0 34 -34 51 -58 53l3 8h308l-84 -296h106zM747 372c0 -149 -77 -255 -198 -314c-79 -38 -180 -55 -270 -58l2 8c128 27 247 243 247 459c0 97 -19 143 -77 155l2 8
c199 -19 294 -107 294 -258z" />
    <glyph glyph-name="eth" unicode="&#xf0;" horiz-adv-x="572" 
d="M175 534l134 80c-40 44 -96 74 -159 89l2 7c75 -6 151 -26 216 -61l114 69l16 -26l-99 -59c98 -62 166 -156 166 -295c0 -176 -129 -332 -343 -346l2 7c11 3 27 10 39 27c47 65 116 286 116 402c0 63 -18 118 -50 162l-138 -82zM357 481l-2 -7c-40 -7 -74 -106 -90 -142
c-40 -94 -72 -215 -72 -291c0 -27 6 -38 13 -41l-2 -7c-144 7 -194 115 -194 180c0 169 141 294 347 308z" />
    <glyph glyph-name="Lslash" unicode="&#x141;" horiz-adv-x="650" 
d="M-28 211l111 41l73 259c7 23 10 42 10 58c0 34 -34 51 -58 53l3 8h379l-3 -8c-51 -7 -79 -36 -97 -96l-50 -174l177 68l10 -29l-197 -75l-90 -316h-300l3 8c50 7 80 36 97 96l32 113l-90 -34zM540 0h-266l2 8c69 21 134 59 192 104c64 50 112 103 148 159h8z" />
    <glyph glyph-name="lslash" unicode="&#x142;" horiz-adv-x="327" 
d="M-16 265l87 39l80 254c8 27 18 58 18 69c0 8 -2 14 -7 20l-28 25l1 4l262 38l1 -1l-94 -298l77 36l11 -24l-98 -46l-86 -275l3 -2c40 18 72 41 104 70l6 -4c-55 -85 -169 -178 -259 -178c-40 0 -64 26 -64 59c0 27 30 120 41 155l21 64l-64 -29z" />
    <glyph glyph-name="Scaron" unicode="&#x160;" horiz-adv-x="515" 
d="M562 822l3 -4l-177 -147h-4l-92 147l4 4l107 -54h2zM519 423h-9c-5 83 -63 183 -116 206l3 9c38 0 144 -16 173 -26zM466 216c0 -139 -110 -216 -278 -224l3 9c35 8 53 27 53 72c0 63 -39 101 -77 183c-37 75 -59 104 -59 168c0 140 151 208 264 214l-3 -9
c-32 -7 -42 -34 -42 -63c0 -45 29 -94 69 -164c36 -61 70 -114 70 -186zM158 -8c-59 5 -163 20 -185 32l56 210h9c1 -84 69 -205 123 -233z" />
    <glyph glyph-name="scaron" unicode="&#x161;" horiz-adv-x="361" 
d="M459 695l-184 -185h-4l-75 185l8 4l90 -79h4l156 79zM292 481l-2 -7c-21 -3 -42 -21 -42 -51c0 -39 12 -69 34 -145c14 -46 30 -84 30 -116c0 -65 -64 -160 -232 -169l2 7c27 7 48 25 48 62c0 29 -20 76 -38 123c-18 46 -28 81 -28 122c0 74 75 166 228 174zM-51 76
c0 39 31 71 70 71s71 -32 71 -71s-32 -70 -71 -70s-70 31 -70 70zM284 411c0 35 27 64 63 64c35 0 63 -29 63 -64s-28 -63 -63 -63c-36 0 -63 28 -63 63z" />
    <glyph glyph-name="Yacute" unicode="&#xdd;" horiz-adv-x="633" 
d="M152 104l50 176l-54 265c-9 43 -29 69 -73 77l2 8h367l-2 -8c-32 -2 -60 -17 -60 -44c0 -16 7 -50 11 -66l45 -211l-52 -182c-7 -23 -9 -42 -9 -58c0 -34 33 -51 58 -53l-3 -8h-380l3 8c51 7 81 36 97 96zM772 630l-2 -8c-34 -5 -76 -25 -117 -55
c-46 -31 -90 -73 -125 -114l-3 9c20 27 40 85 40 117c0 22 -18 40 -60 43l2 8h265zM620 724l-232 -50l-3 7l184 158z" />
    <glyph glyph-name="yacute" unicode="&#xfd;" 
d="M294 415c10 -76 9 -236 2 -364c-38 -34 -127 -112 -198 -159c11 197 13 374 3 478c-1 10 -8 17 -18 17c-20 0 -43 -29 -61 -62l-7 3c27 91 135 153 213 153c38 0 61 -20 66 -66zM-81 -156c44 0 95 14 135 31l4 -5c-23 -26 -97 -77 -136 -97c-22 -11 -44 -15 -55 -15
c-27 0 -68 15 -68 66s56 92 86 98l4 -4c-6 -6 -11 -21 -11 -32c0 -30 17 -42 41 -42zM430 373c0 24 -9 29 -22 29c-14 0 -41 -9 -59 -32l-5 5c25 57 107 106 163 106c42 0 48 -32 48 -60c0 -57 -69 -198 -203 -301l-4 6c67 68 82 196 82 247zM516 651l-178 -146l-8 5l84 212
z" />
    <glyph glyph-name="Thorn" unicode="&#xde;" horiz-adv-x="671" 
d="M316 143l2 8c12 2 23 5 33 9c67 25 112 159 112 270c0 41 -15 63 -46 69l2 8c157 -10 260 -66 260 -162c0 -128 -124 -193 -363 -202zM40 104l116 407c7 23 10 42 10 58c0 34 -34 51 -58 53l3 8h379l-3 -8c-52 -7 -80 -36 -98 -96l-115 -407c-7 -23 -9 -42 -9 -58
c0 -34 33 -51 57 -53l-3 -8h-379l3 8c50 7 80 36 97 96z" />
    <glyph glyph-name="thorn" unicode="&#xfe;" horiz-adv-x="568" 
d="M315 420l4 18c36 20 116 43 146 43c75 0 104 -44 104 -110c0 -145 -110 -329 -314 -371l2 9c35 39 111 230 111 370c0 22 -8 33 -27 36c-6 4 -16 6 -26 5zM376 713l-187 -680c8 -15 27 -27 43 -30l-2 -8c-4 -2 -10 -3 -20 -3c-12 0 -23 1 -32 3l-26 -100
c-17 -66 11 -88 48 -92l-3 -8h-325l3 8c38 5 56 23 66 61l189 695c7 27 18 58 18 69c0 8 0 14 -7 19l-28 25l1 4l261 38z" />
    <glyph glyph-name="Zcaron" unicode="&#x17d;" horiz-adv-x="663" 
d="M613 822l3 -4l-177 -147h-4l-92 147l4 4l107 -54h2zM536 0h-261l3 8c66 21 133 53 189 93c63 44 115 97 158 151h8c-22 -77 -67 -183 -97 -252zM727 630l-520 -630h-251l519 630h252zM413 623c-56 -9 -118 -35 -179 -75c-60 -40 -118 -100 -160 -164h-9
c25 66 71 204 86 246h265z" />
    <glyph glyph-name="zcaron" unicode="&#x17e;" horiz-adv-x="475" 
d="M497 695l-184 -185h-4l-75 185l8 4l90 -79h4l156 79zM102 169c36 0 80 -12 136 -26c56 -15 114 -29 135 -29c30 0 58 13 70 31l6 -3c-24 -86 -80 -163 -179 -163c-26 0 -88 12 -159 30c-40 11 -76 18 -103 18c-25 0 -53 -7 -73 -29l-6 3c11 81 98 168 173 168zM222 481
c18 0 55 -4 96 -14c63 -14 106 -19 120 -19c30 0 57 14 66 33l6 -3c-11 -67 -74 -152 -154 -159c-28 1 -78 11 -136 24s-85 21 -116 21c-20 0 -43 -15 -49 -39l-9 2c4 77 89 154 176 154zM347 196c0 28 24 52 52 52c29 0 53 -24 53 -52c0 -29 -24 -52 -53 -52
c-28 0 -52 23 -52 52zM65 300c0 25 20 46 45 46c26 0 46 -21 46 -46s-20 -46 -46 -46c-25 0 -45 20 -45 46z" />
    <glyph glyph-name="onehalf" unicode="&#xbd;" horiz-adv-x="558" 
d="M14 226h507l-9 -31h-506zM24 -203l107 98h140c45 0 72 26 89 52h9l-53 -150h-292zM153 -89l-5 4c46 39 75 76 75 112c0 27 -19 45 -52 44c-32 0 -48 -8 -69 -23l-5 4c30 53 94 104 165 104c77 0 102 -44 102 -78c0 -69 -99 -140 -211 -167zM414 538l-50 -183
c-15 -52 3 -67 32 -72l-2 -8h-232l2 8c38 5 57 26 71 72l54 194c6 23 9 42 4 51c-5 10 -24 15 -43 17l2 8c49 0 139 2 193 6c-7 -21 -18 -50 -31 -93z" />
    <glyph glyph-name="onequarter" unicode="&#xbc;" horiz-adv-x="577" 
d="M433 538l-50 -183c-14 -52 3 -67 33 -72l-2 -8h-233l2 8c38 5 58 26 71 72l54 194c6 23 10 42 4 51c-4 10 -24 15 -42 17l2 8c48 0 138 2 192 6c-7 -21 -18 -50 -31 -93zM149 -123l48 170l97 110h61l-76 -280c-14 -49 3 -67 33 -72l-2 -8h-233l2 8c38 5 57 26 70 72z
M33 226h507l-8 -31h-507zM148 -30l-26 -91h-93l1 5l80 86h38zM302 -121l25 91h63l-32 -91h-56z" />
    <glyph glyph-name="onesuperior" unicode="&#xb9;" horiz-adv-x="299" 
d="M291 538l-51 -183c-14 -52 3 -67 33 -72l-2 -8h-233l2 8c39 5 58 26 71 72l54 194c6 23 10 42 4 51c-4 10 -24 15 -42 17l2 8c48 0 138 2 192 6c-7 -21 -18 -50 -30 -93z" />
    <glyph glyph-name="threequarters" unicode="&#xbe;" horiz-adv-x="577" 
d="M355 157l-76 -280c-14 -49 3 -67 33 -72l-2 -8h-233l2 8c38 5 57 26 70 72l48 170l97 110h61zM33 226h507l-8 -31h-507zM148 -30l-26 -91h-93l1 5l80 86h38zM302 -121l25 91h63l-32 -91h-56zM223 396l83 84c106 8 149 -29 149 -82c0 -70 -80 -124 -198 -127l2 8
c40 5 63 31 63 64c0 35 -25 51 -73 51c-7 0 -17 -1 -25 -3zM319 496l-1 3c9 10 17 20 17 35c0 20 -16 30 -40 30c-21 0 -36 -4 -53 -13l-5 5c18 39 66 78 131 78c66 0 98 -21 98 -64c0 -40 -56 -68 -147 -74zM175 320c0 23 19 44 42 44c25 0 45 -21 45 -44
c-1 -24 -20 -44 -44 -44c-23 0 -44 20 -43 44z" />
    <glyph glyph-name="threesuperior" unicode="&#xb3;" horiz-adv-x="294" 
d="M84 396l83 84c106 8 149 -29 149 -82c0 -70 -79 -124 -198 -127l2 8c40 5 63 31 63 64c0 35 -25 51 -73 51c-7 0 -17 -1 -25 -3zM181 496l-1 3c8 10 16 20 16 35c0 20 -15 30 -40 30c-20 0 -36 -4 -53 -13l-5 5c18 39 66 78 131 78c66 0 99 -21 99 -64
c0 -40 -57 -68 -147 -74zM36 320c0 23 19 44 43 44s44 -21 44 -44c-1 -24 -19 -44 -44 -44c-23 0 -43 20 -43 44z" />
    <glyph glyph-name="twosuperior" unicode="&#xb2;" horiz-adv-x="325" 
d="M11 275l99 98h140c46 0 72 26 89 53h9l-53 -151h-284zM132 389l-5 4c46 39 75 77 75 112c0 27 -19 46 -52 45c-31 -1 -48 -9 -69 -24l-5 4c31 54 94 104 165 104c77 0 102 -44 102 -78c0 -69 -99 -139 -211 -167z" />
    <glyph glyph-name="brokenbar" unicode="&#xa6;" horiz-adv-x="188" 
d="M91 253v384h36v-384h-36zM91 -220v384h36v-384h-36z" />
    <glyph glyph-name="minus" unicode="&#x2212;" horiz-adv-x="414" 
d="M36 240h341v-45h-341v45z" />
    <glyph glyph-name="multiply" unicode="&#xd7;" horiz-adv-x="386" 
d="M34 92l126 125l-126 125l32 32l125 -125l127 126l31 -32l-126 -126l126 -126l-31 -32l-127 126l-125 -125z" />
    <glyph glyph-name="space" unicode=" " horiz-adv-x="173" 
 />
    <glyph glyph-name="exclam" unicode="!" horiz-adv-x="274" 
d="M1 77c0 49 37 86 89 86c51 0 87 -37 87 -86s-36 -85 -87 -85c-52 0 -89 36 -89 85zM118 194h-8c3 94 -8 293 12 369c13 48 48 75 111 75c69 0 81 -34 81 -69c0 -29 -30 -87 -58 -137c-48 -89 -99 -171 -138 -238z" />
    <glyph glyph-name="quotedbl" unicode="&#x22;" horiz-adv-x="333" 
d="M97 351h-8c-5 88 -14 167 -8 212c7 52 36 75 87 75c52 0 63 -33 63 -60c0 -44 -77 -142 -134 -227zM273 351h-7c-6 88 -15 167 -8 212c7 52 35 75 86 75c52 0 63 -33 63 -60c0 -44 -76 -142 -134 -227z" />
    <glyph glyph-name="numbersign" unicode="#" horiz-adv-x="485" 
d="M55 22l186 608h45c-60 -197 -126 -411 -185 -608h-46zM226 22l185 608h45l-185 -608h-45zM3 237l10 37h83l-11 -37h-82zM49 401l11 36h87l-11 -36h-87zM412 401l11 36h86l-10 -36h-87zM363 237l11 37h87l-11 -37h-87zM194 237l10 37h71l-11 -37h-70zM243 401l10 36h71
l-11 -36h-70z" />
    <glyph glyph-name="dollar" unicode="$" horiz-adv-x="427" 
d="M359 613l-80 -221c2 -1 14 -20 16 -21c48 -68 97 -113 97 -186c0 -107 -102 -183 -245 -193l2 6c35 6 61 28 61 67c0 27 -9 44 -26 65l-76 -210h-28l85 235c-7 7 -14 16 -22 26c-42 52 -84 99 -84 174c0 94 89 182 236 194l-2 -7c-23 -4 -55 -24 -55 -64
c0 -21 11 -42 23 -60l70 195h28zM95 -1l-2 -7c-42 4 -86 17 -114 30l39 155h7c1 -75 38 -162 70 -178zM344 542l2 7c42 -2 80 -10 101 -17l-38 -149h-7c4 72 -27 139 -58 159z" />
    <glyph glyph-name="percent" unicode="%" horiz-adv-x="643" 
d="M56 411c0 116 106 181 195 189l-3 -8c-5 -1 -10 -4 -15 -10c-17 -17 -29 -51 -42 -90c-14 -42 -36 -123 -36 -153c0 -18 1 -24 8 -28l-3 -9c-61 1 -104 56 -104 109zM591 583l-507 -591l-17 16l508 592zM369 491c0 -116 -106 -182 -195 -190l3 9c5 1 10 4 16 10
c17 18 29 54 42 94c13 41 35 120 35 148c0 17 -1 25 -8 29l3 9c61 -1 104 -56 104 -109zM288 101c0 117 106 182 195 190l-2 -9c-5 -1 -10 -4 -16 -10c-16 -17 -29 -51 -42 -90c-13 -42 -36 -122 -36 -152c0 -18 2 -24 8 -29l-3 -9c-61 2 -104 56 -104 109zM602 181
c0 -116 -106 -181 -195 -189l3 8c5 2 10 5 16 11c17 17 29 53 42 93c13 42 35 120 35 149c0 17 -1 25 -8 28l3 10c61 -2 104 -56 104 -110z" />
    <glyph glyph-name="ampersand" unicode="&#x26;" horiz-adv-x="811" 
d="M126 310c0 -99 69 -195 181 -195c139 0 238 47 292 189l9 -3c-26 -169 -106 -352 -324 -352c-163 0 -258 103 -258 242c0 106 63 200 127 243l5 -6c-21 -26 -32 -63 -32 -118zM255 337c-4 62 -34 111 -64 111c-6 0 -11 -2 -14 -4l-4 5c18 16 64 35 102 35
c63 0 100 -26 114 -74l-210 -192l-2 11zM424 321l-8 1c0 69 73 163 163 163c38 0 64 -18 102 -37c54 -26 76 -39 108 -39c35 0 57 18 64 40h8c-5 -79 -49 -162 -143 -162c-40 0 -73 14 -119 43c-44 26 -70 44 -107 44s-62 -26 -68 -53zM448 510c-15 2 -51 20 -51 58
c0 46 37 62 68 62c33 0 59 -22 59 -60c0 -23 -10 -44 -41 -73l-68 -63l-4 6c18 24 32 49 37 70z" />
    <glyph glyph-name="quotesingle" unicode="'" horiz-adv-x="157" 
d="M97 351h-8c-5 88 -14 167 -8 212c7 52 36 75 87 75c52 0 63 -33 63 -60c0 -44 -77 -142 -134 -227z" />
    <glyph glyph-name="parenleft" unicode="(" horiz-adv-x="334" 
d="M21 106c0 257 204 451 397 532l5 -7c-148 -91 -274 -328 -274 -573c0 -142 38 -229 73 -271l-6 -7c-84 49 -195 176 -195 326z" />
    <glyph glyph-name="parenright" unicode=")" horiz-adv-x="334" 
d="M294 312c0 -257 -210 -451 -397 -532l-5 7c140 91 273 328 273 573c0 142 -37 229 -72 271l6 7c83 -49 195 -176 195 -326z" />
    <glyph glyph-name="asterisk" unicode="*" horiz-adv-x="301" 
d="M291 642l-40 -116l121 -27v-8l-121 -26l40 -116l-7 -3l-83 93l-81 -93l-7 3l39 116l-122 26v8l122 27l-39 116l7 4l81 -94l83 94z" />
    <glyph glyph-name="plus" unicode="+" horiz-adv-x="397" 
d="M29 255h148v148h45v-148h149v-44h-149v-149h-45v149h-148v44z" />
    <glyph glyph-name="comma" unicode="," horiz-adv-x="262" 
d="M-7 85c0 60 56 104 111 104c69 0 108 -41 108 -121c0 -103 -119 -199 -267 -218l-2 7c59 14 170 71 175 143c-8 -5 -19 -8 -35 -8c-48 0 -90 36 -90 93z" />
    <glyph glyph-name="hyphen" unicode="-" horiz-adv-x="275" 
d="M233 209h-207l24 84h208z" />
    <glyph glyph-name="period" unicode="." horiz-adv-x="246" 
d="M-4 90c0 57 44 99 101 99c56 0 99 -42 99 -99s-43 -98 -99 -98c-57 0 -101 41 -101 98z" />
    <glyph glyph-name="slash" unicode="/" horiz-adv-x="269" 
d="M-80 -154l-32 16l429 771l30 -15z" />
    <glyph glyph-name="zero" unicode="0" horiz-adv-x="584" 
d="M14 166c0 177 166 298 349 314l-2 -7c-89 -26 -178 -331 -178 -430c0 -25 8 -40 21 -44l-2 -7c-105 7 -188 84 -188 174zM570 306c0 -177 -166 -298 -350 -314l2 7c90 26 178 331 178 430c0 25 -7 40 -20 44l2 7c105 -7 188 -84 188 -174z" />
    <glyph glyph-name="one" unicode="1" horiz-adv-x="366" 
d="M30 81l103 305c3 10 7 23 7 32c-1 27 -19 43 -50 47l3 8h327l-3 -8c-43 -6 -70 -26 -86 -73l-103 -306c-2 -8 -6 -20 -6 -26c-2 -31 16 -48 49 -52l-3 -8h-327l3 8c45 6 69 26 86 73z" />
    <glyph glyph-name="two" unicode="2" horiz-adv-x="427" 
d="M-80 0l178 144h161c51 0 100 41 136 90h7l-91 -234h-391zM129 167l-2 4c46 35 82 70 82 119c0 39 -18 65 -63 65c-30 0 -67 -5 -106 -32l-5 4c54 112 137 154 221 154c100 0 148 -49 148 -109c0 -92 -124 -163 -275 -205z" />
    <glyph glyph-name="three" unicode="3" horiz-adv-x="425" 
d="M192 223l-6 4c14 11 36 34 36 73c0 35 -19 59 -63 59c-36 0 -62 -7 -90 -24l-5 5c41 89 119 141 211 141c97 0 134 -47 134 -109c0 -73 -88 -130 -217 -149zM147 -32c0 62 -60 97 -126 108v6l137 122c130 -17 190 -83 190 -167c0 -102 -107 -221 -319 -238l3 8
c79 21 115 86 115 161zM-30 -43c39 0 72 -33 72 -74c0 -40 -32 -73 -72 -73s-73 33 -72 73c0 41 32 74 72 74z" />
    <glyph glyph-name="four" unicode="4" horiz-adv-x="532" 
d="M486 479l-218 -640h-198l154 452l191 188h71zM368 21l45 142h99l-58 -142h-86zM144 163l-48 -142h-176l2 5l151 137h71z" />
    <glyph glyph-name="five" unicode="5" horiz-adv-x="385" 
d="M109 328l75 145l248 10l-72 -145zM-79 -198l1 8c106 19 186 78 186 188c0 69 -56 112 -106 137l96 174c81 -21 211 -109 211 -211c0 -176 -195 -284 -388 -296z" />
    <glyph glyph-name="six" unicode="6" horiz-adv-x="582" 
d="M621 625c-101 -23 -179 -73 -254 -165c-75 -90 -168 -276 -171 -423c0 -17 4 -32 14 -35l-4 -10c-112 1 -190 88 -190 183c0 294 388 445 606 458zM316 351l-2 3c26 24 69 42 105 42c87 0 148 -45 148 -125c0 -171 -164 -267 -344 -279l4 10c50 13 134 244 134 318
c0 24 -10 35 -28 35c-5 0 -13 -2 -17 -4z" />
    <glyph glyph-name="seven" unicode="7" horiz-adv-x="450" 
d="M514 473l-97 -154h-260c-11 0 -21 0 -31 -4c-39 -8 -74 -38 -98 -66l-7 5l106 219h387zM400 296l-271 -463h-169l430 463h10z" />
    <glyph glyph-name="eight" unicode="8" horiz-adv-x="493" 
d="M387 391l-5 4c40 32 52 77 53 122c2 47 -14 89 -62 89c-63 0 -89 -44 -89 -90c0 -35 26 -64 71 -116c76 -87 104 -126 104 -203c0 -113 -115 -205 -287 -205c-111 0 -188 53 -188 126c0 75 105 121 151 133l3 -6c-40 -28 -57 -75 -57 -136c0 -62 33 -104 91 -104
c56 0 91 29 91 84c0 38 -35 76 -83 135c-57 70 -89 119 -89 182c0 123 108 212 278 212c101 0 163 -42 163 -99c0 -55 -64 -112 -145 -128z" />
    <glyph glyph-name="nine" unicode="9" horiz-adv-x="584" 
d="M-38 -149c98 23 187 81 265 169c83 92 158 272 160 418c0 17 -4 30 -13 33l4 10c133 -1 190 -88 189 -182c0 -293 -389 -445 -606 -456zM272 116l2 -3c-17 -23 -57 -45 -108 -45c-86 0 -141 61 -141 142c0 176 160 259 336 271l-4 -10c-52 -14 -134 -248 -134 -322
c0 -21 12 -37 29 -37c8 0 16 2 20 4z" />
    <glyph glyph-name="colon" unicode=":" horiz-adv-x="261" 
d="M-23 90c0 58 44 99 100 99c57 0 100 -42 100 -99s-43 -98 -100 -98s-100 41 -100 98zM67 384c0 58 44 99 100 99c57 0 100 -42 100 -99s-43 -98 -100 -98s-100 41 -100 98z" />
    <glyph glyph-name="semicolon" unicode=";" horiz-adv-x="267" 
d="M64 384c0 58 44 99 101 99s100 -42 100 -99s-43 -98 -100 -98s-101 41 -101 98zM-26 85c0 60 56 104 111 104c69 0 109 -41 109 -121c0 -103 -120 -199 -268 -218l-2 7c60 14 171 71 176 143c-8 -5 -20 -8 -36 -8c-48 0 -90 36 -90 93z" />
    <glyph glyph-name="less" unicode="&#x3c;" horiz-adv-x="395" 
d="M350 332l-253 -98l253 -99v-45l-309 121v45l309 121v-45z" />
    <glyph glyph-name="equal" unicode="=" horiz-adv-x="419" 
d="M38 175h341v-44h-341v44zM38 335h341v-44h-341v44z" />
    <glyph glyph-name="greater" unicode="&#x3e;" horiz-adv-x="395" 
d="M299 234l-254 98v45l309 -121v-45l-309 -121v45z" />
    <glyph glyph-name="question" unicode="?" horiz-adv-x="388" 
d="M187 180c-64 0 -120 41 -120 117c0 62 64 118 127 169c69 55 100 87 100 119c0 27 -12 39 -35 47l2 7c126 -17 185 -86 185 -148c0 -43 -27 -89 -92 -143c-59 -50 -100 -79 -100 -106c0 -18 11 -25 22 -25c15 0 24 8 33 15l4 -4c-18 -28 -73 -48 -126 -48zM26 74
c0 47 35 82 86 82c52 0 86 -35 86 -82s-34 -82 -86 -82c-51 0 -86 35 -86 82zM101 574c0 37 30 63 67 63s67 -26 67 -63c0 -36 -30 -64 -67 -64s-67 28 -67 64z" />
    <glyph glyph-name="at" unicode="@" horiz-adv-x="837" 
d="M425 379l6 -6c-31 -41 -78 -207 -78 -251c0 -14 6 -23 16 -23c12 0 24 11 31 20l6 -4c-16 -26 -38 -57 -66 -81s-62 -42 -99 -42c-31 0 -61 28 -61 71c0 87 125 250 245 316zM452 390c4 5 5 13 9 15c11 7 24 12 39 16c10 3 23 6 34 6c8 10 21 25 33 33c13 10 31 17 49 17
c28 0 56 -8 46 -41l-109 -382c7 -4 21 -6 31 -6c131 0 215 139 215 252c0 166 -98 287 -320 287c-221 0 -387 -216 -387 -429c0 -196 115 -351 335 -351c150 0 251 56 304 99l11 -15c-50 -45 -177 -110 -331 -110c-232 0 -396 140 -396 367c0 257 239 459 464 459
c228 0 343 -121 343 -307c0 -144 -108 -308 -316 -308c-71 0 -110 20 -104 39l100 363c-3 2 -28 2 -41 -3c-2 0 -6 0 -9 -1z" />
    <glyph glyph-name="A" unicode="A" horiz-adv-x="609" 
d="M142 259h124l-21 174l120 204h82l59 -529c7 -64 29 -93 77 -100l-3 -8h-373l3 8c65 7 78 46 73 96l-12 111h-156zM140 0h-243l3 8c54 11 100 45 136 86c20 20 34 40 51 65l8 -3c-9 -17 -16 -52 -16 -74c0 -32 16 -70 64 -74z" />
    <glyph glyph-name="B" unicode="B" horiz-adv-x="705" 
d="M657 184c0 -126 -139 -184 -332 -184h-40l2 8c83 6 148 110 148 232c0 52 -20 80 -63 88l2 8c62 5 119 92 119 227c0 20 -6 36 -16 45c-7 8 -17 13 -27 14l2 8c158 -5 243 -54 243 -132c0 -102 -123 -153 -234 -165c123 -14 196 -72 196 -149zM166 569
c0 34 -34 51 -58 53l3 8h308l-178 -630h-301l3 8c50 7 80 36 97 96l116 407c7 23 10 42 10 58z" />
    <glyph glyph-name="C" unicode="C" horiz-adv-x="648" 
d="M618 398h-9c-4 116 -47 204 -129 231l3 8c68 -1 144 -17 191 -35zM302 0l-3 -7c-158 9 -272 140 -272 271c0 130 73 227 176 295c65 45 153 77 252 80l-3 -8c-29 -3 -58 -24 -83 -62c-50 -70 -120 -333 -120 -481c0 -49 20 -80 53 -88zM337 0c112 37 199 145 255 239h9
l-59 -219c-47 -15 -107 -25 -208 -28z" />
    <glyph glyph-name="D" unicode="D" horiz-adv-x="753" 
d="M747 372c0 -149 -77 -255 -198 -314c-79 -38 -180 -55 -270 -58l2 8c128 27 247 243 247 459c0 97 -19 143 -77 155l2 8c199 -19 294 -107 294 -258zM166 569c0 34 -34 51 -58 53l3 8h308l-178 -630h-301l3 8c50 7 80 36 97 96l116 407c7 23 10 42 10 58z" />
    <glyph glyph-name="E" unicode="E" horiz-adv-x="657" 
d="M419 630l-178 -630h-301l3 8c50 7 80 36 97 96l116 407c7 23 10 42 10 58c0 34 -34 51 -58 53l3 8h308zM606 396c6 126 -28 190 -147 226l2 8h212l-59 -234h-8zM284 0l2 8c60 6 124 37 181 80c62 46 110 101 152 167h9l-81 -255h-263zM378 321c85 23 115 58 165 143h8
l-83 -293h-8c-3 84 -15 120 -85 142z" />
    <glyph glyph-name="F" unicode="F" horiz-adv-x="625" 
d="M419 630l-145 -511c-7 -23 -9 -35 -9 -51c0 -34 29 -57 65 -60l-3 -8h-387l3 8c50 7 80 36 97 96l116 407c7 23 10 42 10 58c0 34 -34 51 -58 53l3 8h308zM627 378h-8c-17 126 -58 208 -160 244l2 8h218zM378 321c72 12 129 61 180 145h8l-85 -297h-8
c-4 84 -38 136 -98 144z" />
    <glyph glyph-name="G" unicode="G" horiz-adv-x="711" 
d="M633 410h-9c-7 94 -44 193 -133 219l3 8c58 -5 146 -24 189 -43zM302 1l-2 -8c-154 10 -271 140 -271 271c0 133 77 232 180 299c66 45 153 76 258 76l-3 -8c-34 -2 -70 -27 -96 -65c-51 -70 -119 -330 -119 -480c0 -35 17 -78 53 -85zM390 60l29 108c6 23 10 45 10 61
c0 34 -27 47 -51 50l3 8h346l-3 -8c-51 -7 -79 -35 -94 -89l-46 -165c-50 -17 -189 -31 -256 -33l2 7c17 3 29 9 38 18c11 11 17 25 22 43z" />
    <glyph glyph-name="H" unicode="H" horiz-adv-x="804" 
d="M471 303h-109l13 44h109zM390 526l-116 -407c-7 -23 -9 -42 -9 -58c0 -34 24 -51 49 -53l-3 -8h-371l3 8c50 7 80 36 97 96l116 407c7 23 10 42 10 58c0 34 -34 51 -58 53l3 8h371l-3 -8c-52 -7 -71 -36 -89 -96zM794 526l-116 -407c-7 -23 -9 -42 -9 -58
c0 -34 33 -51 57 -53l-3 -8h-371l3 8c48 10 68 22 89 96l116 407c7 23 10 45 10 61c0 34 -26 48 -50 50l3 8h371l-3 -8c-51 -7 -80 -36 -97 -96z" />
    <glyph glyph-name="I" unicode="I" horiz-adv-x="400" 
d="M40 104l116 407c7 23 10 42 10 58c0 34 -34 51 -58 53l3 8h379l-3 -8c-51 -7 -79 -36 -97 -96l-116 -407c-7 -23 -9 -42 -9 -58c0 -34 33 -51 57 -53l-3 -8h-379l3 8c50 7 80 36 97 96z" />
    <glyph glyph-name="J" unicode="J" horiz-adv-x="378" 
d="M380 526l-120 -421c-61 -211 -195 -265 -435 -276v10c108 21 159 105 194 227l127 445c7 23 10 42 10 58c0 34 -34 51 -58 53l3 8h379l-3 -8c-51 -7 -79 -36 -97 -96z" />
    <glyph glyph-name="K" unicode="K" horiz-adv-x="760" 
d="M820 630l-2 -8c-99 -19 -206 -87 -285 -158l-6 6c31 36 42 60 42 93s-16 54 -57 59l2 8h306zM390 526l-116 -407c-7 -23 -9 -42 -9 -58c0 -34 33 -51 57 -53l-3 -8h-379l3 8c50 7 80 36 97 96l116 407c7 23 10 42 10 58c0 34 -34 51 -58 53l3 8h379l-3 -8
c-51 -7 -79 -36 -97 -96zM750 1l-3 -8c-51 1 -145 2 -197 7c-54 4 -104 21 -138 81c-29 50 -55 129 -66 204l153 158c60 -160 135 -307 181 -381c25 -39 43 -53 70 -61z" />
    <glyph glyph-name="L" unicode="L" horiz-adv-x="650" 
d="M240 0h-300l3 8c50 7 80 36 97 96l116 407c7 23 10 42 10 58c0 34 -34 51 -58 53l3 8h379l-3 -8c-51 -7 -79 -36 -97 -96zM274 0l2 8c69 21 134 60 192 104c63 48 112 101 148 159h8l-84 -271h-266z" />
    <glyph glyph-name="M" unicode="M" horiz-adv-x="885" 
d="M104 214h9c-12 -36 -24 -81 -24 -120s13 -79 56 -86l-3 -8h-262l3 8c84 16 163 104 221 206zM456 218l-178 -226h-8l-70 492c-7 42 -20 73 -40 96c-19 22 -42 36 -80 42l2 8h325zM675 630h300l-3 -8c-51 -7 -79 -36 -97 -96l-116 -407c-7 -23 -9 -42 -9 -58
c0 -34 33 -51 57 -53l-3 -8h-379l3 8c51 7 80 36 97 96z" />
    <glyph glyph-name="N" unicode="N" horiz-adv-x="712" 
d="M504 -1h-99l-226 499c-14 29 -31 56 -55 80c-23 24 -50 40 -84 44l3 8h336l191 -415zM135 215l9 -1c-12 -36 -22 -71 -22 -110c0 -44 25 -85 85 -96l-3 -8h-292l3 8c100 16 162 105 220 207zM620 415l-8 1c11 34 22 81 22 120c0 43 -21 76 -93 86l3 8h295l-3 -8
c-80 -15 -148 -72 -216 -207z" />
    <glyph glyph-name="O" unicode="O" horiz-adv-x="710" 
d="M272 1l-2 -8c-143 17 -241 140 -241 271c0 147 90 256 208 320c59 32 140 54 203 55l-2 -7c-17 -4 -33 -13 -49 -33c-65 -78 -143 -371 -143 -526c0 -23 2 -58 26 -72zM294 -8l2 7c7 3 21 10 36 25c71 71 155 374 155 535c0 21 0 62 -26 72l2 7
c144 -16 241 -140 241 -271c0 -149 -93 -260 -215 -322c-57 -31 -134 -52 -195 -53z" />
    <glyph glyph-name="P" unicode="P" horiz-adv-x="673" 
d="M419 630l-145 -511c-7 -23 -9 -35 -9 -51c0 -34 31 -57 67 -60l-3 -8h-389l3 8c50 7 80 36 97 96l116 407c7 23 10 42 10 58c0 34 -34 51 -58 53l3 8h308zM348 270c12 2 25 5 35 9c67 25 114 163 114 275c0 41 -17 62 -48 68l2 8c157 -10 262 -59 262 -155
c0 -128 -137 -203 -367 -213z" />
    <glyph glyph-name="Q" unicode="Q" horiz-adv-x="710" 
d="M-70 -155v5c45 27 207 108 254 133c137 -16 259 -35 376 -52s215 -30 303 -30c90 0 124 22 149 38l6 -6c-45 -107 -171 -197 -288 -197c-75 0 -182 14 -308 33c-157 24 -323 51 -492 76zM272 11l-2 -7c-143 16 -241 135 -241 266c0 147 91 251 210 314
c59 33 138 54 201 55l-2 -7c-15 -3 -31 -11 -50 -33c-63 -73 -142 -362 -142 -516c0 -42 7 -65 26 -72zM461 631l2 7c144 -16 241 -134 241 -265c0 -148 -92 -255 -213 -317c-57 -31 -136 -53 -197 -54l2 7c13 4 28 9 50 35c62 71 141 360 141 515c0 41 -6 64 -26 72z" />
    <glyph glyph-name="R" unicode="R" horiz-adv-x="749" 
d="M381 318c71 33 109 132 109 230c0 29 -13 63 -43 73l3 8c178 -9 270 -49 270 -166c0 -76 -55 -114 -125 -146c17 -84 50 -178 79 -236c21 -44 54 -71 77 -77l-2 -8c-45 0 -141 0 -199 6c-76 6 -114 44 -126 87c-19 67 -33 136 -44 224zM419 630l-145 -511
c-7 -23 -9 -35 -9 -51c0 -34 29 -57 65 -60l-3 -8h-387l3 8c50 7 80 36 97 96l116 407c7 23 10 42 10 58c0 34 -34 51 -58 53l3 8h308z" />
    <glyph glyph-name="S" unicode="S" horiz-adv-x="515" 
d="M519 423h-9c-5 83 -63 183 -116 206l3 9c38 0 144 -16 173 -26zM466 216c0 -139 -110 -216 -278 -224l3 9c35 8 53 27 53 72c0 63 -39 101 -77 183c-37 75 -59 104 -59 168c0 140 151 208 264 214l-3 -9c-32 -7 -42 -34 -42 -63c0 -45 29 -94 69 -164
c36 -61 70 -114 70 -186zM158 -8c-59 5 -163 20 -185 32l56 210h9c1 -84 69 -205 123 -233z" />
    <glyph glyph-name="T" unicode="T" horiz-adv-x="704" 
d="M330 630h231l-146 -511c-7 -23 -9 -42 -9 -58c0 -34 33 -51 58 -53l-3 -8h-380l3 8c51 7 81 36 98 96zM306 622c-80 -42 -181 -125 -240 -225h-9l71 233h180zM587 630h195l-69 -233h-9c-3 102 -51 201 -119 225z" />
    <glyph glyph-name="U" unicode="U" horiz-adv-x="653" 
d="M515 630h278l-3 -8c-30 -8 -65 -20 -98 -47c-36 -28 -85 -111 -95 -148h-11c11 42 14 74 14 103c0 51 -21 88 -88 92zM369 526l-86 -306c-24 -78 -13 -155 82 -165c36 -5 79 3 120 19l6 -8c-29 -33 -96 -74 -194 -74c-66 0 -124 6 -171 33c-87 50 -91 141 -62 242l71 244
c7 23 9 42 9 58c0 34 -34 51 -58 53l3 8h380l-3 -8c-52 -7 -81 -36 -97 -96z" />
    <glyph glyph-name="V" unicode="V" horiz-adv-x="603" 
d="M362 525l39 -299l-127 -228h-79l-64 523c-7 64 -29 94 -77 101l3 8h381l-3 -8c-65 -7 -78 -47 -73 -97zM494 630h243l-3 -8c-40 -8 -78 -31 -110 -61c-35 -32 -60 -68 -84 -104l-8 3c9 17 19 66 19 88c0 32 -12 70 -60 74z" />
    <glyph glyph-name="W" unicode="W" horiz-adv-x="905" 
d="M368 549l16 -308l-161 -243h-55l-30 533c-4 63 -25 85 -76 91l3 8h351l-3 -8c-31 -3 -48 -23 -45 -73zM714 525l15 -284l-161 -243h-56l-31 558c-3 50 -17 63 -48 66l3 8h347l-3 -8c-66 -7 -69 -47 -66 -97zM812 630h238l-3 -8c-40 -8 -78 -31 -110 -61
c-35 -32 -62 -68 -85 -106l-8 4c8 16 24 75 24 97c0 33 -19 62 -59 66z" />
    <glyph glyph-name="X" unicode="X" horiz-adv-x="673" 
d="M186 0h-275l2 8c87 19 192 112 275 201l3 -11c-24 -29 -69 -91 -69 -124c0 -35 27 -59 66 -66zM287 127l-110 401c-14 55 -36 87 -83 94l2 8h386l-2 -8c-48 -5 -67 -30 -68 -61c0 -17 2 -26 10 -58l112 -401c14 -56 40 -87 83 -94l-2 -8h-386l2 8c48 5 67 30 67 61
c0 17 -2 26 -11 58zM514 630h273l-2 -8c-84 -19 -172 -85 -256 -175l-2 11c23 29 52 72 52 105c0 34 -23 53 -67 59z" />
    <glyph glyph-name="Y" unicode="Y" horiz-adv-x="633" 
d="M152 104l50 176l-54 265c-9 43 -29 69 -73 77l2 8h367l-2 -8c-32 -2 -60 -17 -60 -44c0 -16 7 -50 11 -66l45 -211l-52 -182c-7 -23 -9 -42 -9 -58c0 -34 33 -51 58 -53l-3 -8h-380l3 8c51 7 81 36 97 96zM772 630l-2 -8c-34 -5 -76 -25 -117 -55
c-46 -31 -90 -73 -125 -114l-3 9c20 27 40 85 40 117c0 22 -18 40 -60 43l2 8h265z" />
    <glyph glyph-name="Z" unicode="Z" horiz-adv-x="663" 
d="M536 0h-261l3 8c66 21 133 53 189 93c63 44 115 97 158 151h8c-22 -77 -67 -183 -97 -252zM727 630l-520 -630h-251l519 630h252zM413 623c-56 -9 -118 -35 -179 -75c-60 -40 -118 -100 -160 -164h-9c25 66 71 204 86 246h265z" />
    <glyph glyph-name="bracketleft" unicode="[" horiz-adv-x="329" 
d="M-47 -219l244 857h232l-3 -13h-108l-239 -831h108l-3 -13h-231z" />
    <glyph glyph-name="backslash" unicode="\" horiz-adv-x="386" 
d="M342 -144l-33 -10l-201 777l33 10z" />
    <glyph glyph-name="bracketright" unicode="]" horiz-adv-x="329" 
d="M343 638l-245 -857h-231l3 13h107l239 831h-107l3 13h231z" />
    <glyph glyph-name="asciicircum" unicode="^" horiz-adv-x="453" 
d="M283 321l-97 223l-97 -223h-39l118 270h36l118 -270h-39z" />
    <glyph glyph-name="underscore" unicode="_" horiz-adv-x="478" 
d="M474 -132h-499l1 47h500z" />
    <glyph glyph-name="grave" unicode="`" horiz-adv-x="225" 
d="M232 512l-8 -4l-127 158l122 48z" />
    <glyph glyph-name="a" unicode="a" 
d="M267 389c-38 -46 -117 -232 -117 -277c0 -13 5 -19 15 -19c13 0 34 19 44 34l5 -4c-29 -60 -107 -130 -176 -130c-32 0 -66 23 -66 69c0 114 165 269 289 332zM424 101c20 0 65 43 84 80l6 -3c-24 -76 -122 -186 -232 -186c-42 0 -60 27 -60 60c0 17 12 69 21 96
c33 100 85 257 85 257c-2 2 -7 3 -13 3c-8 1 -17 -1 -26 -5l-6 5c21 17 82 40 105 45c15 21 42 50 98 50c26 0 41 -12 41 -24s-3 -24 -4 -28c-12 -35 -72 -210 -99 -297c-5 -17 -10 -33 -10 -41c0 -11 5 -12 10 -12z" />
    <glyph glyph-name="b" unicode="b" horiz-adv-x="571" 
d="M205 -8l2 7c7 2 16 8 24 18c55 69 130 276 130 342c0 9 -4 15 -12 15c-12 0 -36 -14 -57 -41l-6 3c45 82 129 145 204 145c50 0 86 -31 86 -96c0 -179 -144 -377 -371 -393zM24 208l107 350c8 27 18 58 18 69c0 8 -1 14 -6 20l-28 25l1 4l261 38l1 -1l-178 -583
c-6 -20 -19 -81 -19 -106c0 -19 4 -21 8 -24l-2 -7c-114 3 -176 61 -176 126c0 30 7 69 13 89z" />
    <glyph glyph-name="c" unicode="c" horiz-adv-x="417" 
d="M332 481l-2 -7c-68 -26 -118 -170 -118 -296c0 -36 17 -57 41 -57c41 0 91 39 124 90l7 -3c-22 -80 -107 -216 -248 -216c-105 0 -130 88 -130 140c0 168 162 327 326 349zM310 396c0 37 27 64 64 64s65 -27 65 -64s-28 -64 -65 -64s-64 27 -64 64z" />
    <glyph glyph-name="d" unicode="d" horiz-adv-x="581" 
d="M344 481l-2 -7c-46 -25 -145 -195 -145 -355c0 -12 5 -19 14 -19c19 0 34 16 44 30l6 -4c-27 -59 -110 -134 -182 -134c-44 0 -83 25 -83 97c0 80 61 221 150 306c62 57 140 85 198 86zM656 713l-172 -559c-5 -17 -10 -33 -10 -41c0 -11 5 -12 10 -12c20 0 61 48 83 80
l6 -3c-24 -76 -135 -186 -245 -186c-42 0 -61 28 -61 64c0 17 11 65 20 92l76 252c5 15 7 33 7 41c0 15 -4 27 -12 32l2 7c9 0 20 -4 25 -8l27 86c8 27 18 58 18 69c0 8 -2 14 -7 20l-28 25l1 4l259 38z" />
    <glyph glyph-name="e" unicode="e" horiz-adv-x="440" 
d="M329 482l-2 -7c-60 -27 -114 -256 -114 -330c0 -30 14 -48 38 -48c50 0 103 53 136 104l7 -3c-28 -84 -115 -206 -253 -206c-118 0 -134 88 -134 140c0 149 134 327 322 350zM239 239l2 7c23 7 45 20 63 40c35 40 49 104 49 165c0 17 -6 21 -10 23l2 7
c73 -3 123 -27 123 -81c0 -81 -83 -141 -229 -161z" />
    <glyph glyph-name="f" unicode="f" horiz-adv-x="363" 
d="M34 407l88 63c16 47 35 89 63 121c57 70 143 107 266 113l-2 -6c-80 -13 -103 -100 -129 -230h92l-18 -69h-89l-12 -60c-37 -162 -76 -327 -191 -449c-59 -61 -137 -97 -236 -102l2 6c55 12 102 52 129 141c37 118 69 307 103 464h-69zM398 608c0 47 37 84 84 84
c46 0 83 -37 83 -84c0 -46 -37 -83 -83 -83c-47 0 -84 37 -84 83zM-225 -127c0 39 33 71 72 71c38 0 71 -32 71 -71s-33 -71 -71 -71c-39 0 -72 32 -72 71z" />
    <glyph glyph-name="g" unicode="g" horiz-adv-x="484" 
d="M176 -226l-3 -8c-125 2 -275 29 -275 96c0 41 97 68 165 75l2 -8c-23 -10 -50 -34 -50 -69c0 -70 96 -78 161 -86zM295 481l-2 -7c-5 -1 -15 -5 -23 -15c-17 -19 -91 -201 -91 -272c0 -10 3 -18 6 -19l-2 -7c-91 6 -141 61 -141 127c0 100 87 189 253 193zM195 -234l2 8
c40 5 68 18 68 40c0 27 -31 44 -102 79c-99 49 -155 79 -155 144c0 59 57 102 135 122l6 -3c-4 -4 -7 -8 -7 -14c0 -14 50 -33 150 -82c95 -47 129 -76 129 -138c0 -75 -79 -147 -226 -156zM429 433l2 7l133 55l-39 -128zM193 160l2 7c6 0 15 3 22 11c19 20 93 203 93 276
c0 10 -3 18 -6 19l2 7c92 -4 144 -60 144 -126c0 -103 -89 -188 -257 -194z" />
    <glyph glyph-name="h" unicode="h" horiz-adv-x="595" 
d="M391 352c0 16 -8 27 -19 27c-16 0 -43 -19 -67 -49l-6 3c51 90 149 148 222 148c49 0 84 -28 84 -96c0 -160 -126 -369 -326 -392l3 7c12 5 25 14 32 29c37 68 77 225 77 323zM-12 53l153 505c8 27 18 58 18 69c0 8 -2 14 -7 20l-28 25l1 4l262 38l1 -1l-198 -656
c-15 -34 -52 -65 -117 -65c-73 0 -98 22 -85 61zM212 54c0 26 20 48 47 48c26 0 48 -22 48 -48c0 -27 -22 -48 -48 -48c-27 0 -47 21 -47 48z" />
    <glyph glyph-name="i" unicode="i" horiz-adv-x="331" 
d="M272 246c-23 -54 -4 -12 -69 -140l3 -2c38 18 72 46 104 75l6 -4c-55 -86 -168 -183 -258 -183c-39 0 -64 26 -64 59c0 13 5 36 18 64c17 39 44 99 65 140c18 38 52 110 52 130c0 10 -4 15 -13 15c-10 0 -23 -13 -34 -25c-12 -13 -35 -50 -48 -76l-7 3
c27 93 101 179 208 179c56 0 88 -36 88 -80s-26 -97 -51 -155zM214 607c0 51 42 92 93 92s92 -41 92 -92s-41 -93 -92 -93s-93 42 -93 93z" />
    <glyph glyph-name="j" unicode="j" horiz-adv-x="328" 
d="M196 607c0 51 42 92 93 92c52 0 92 -41 92 -92s-40 -93 -92 -93c-51 0 -93 42 -93 93zM198 1c-57 -129 -166 -200 -324 -209l2 6c48 19 71 56 109 152c28 72 90 256 110 315c21 61 32 100 32 120c0 10 -4 15 -13 15s-22 -10 -33 -25c-11 -14 -30 -46 -43 -76l-7 3
c20 93 96 179 188 179c67 0 99 -42 99 -86c0 -45 -12 -90 -32 -149c-18 -54 -49 -153 -88 -245zM-243 -119c0 41 34 76 75 76s76 -35 76 -76s-35 -76 -76 -76s-75 35 -75 76z" />
    <glyph glyph-name="k" unicode="k" horiz-adv-x="562" 
d="M284 277l-6 4c59 87 160 200 239 200c35 0 51 -28 51 -58c0 -65 -61 -124 -147 -165c15 -53 25 -101 42 -142c8 -19 17 -27 29 -27c15 0 42 24 52 43l7 -4c-28 -65 -110 -136 -192 -136c-41 0 -75 16 -87 73c-9 37 -14 89 -16 118c57 27 82 38 109 57c37 26 58 56 58 96
c0 17 -8 25 -24 25c-28 0 -83 -41 -115 -84zM-12 53l154 505c8 27 18 58 18 69c0 8 -2 14 -7 20l-28 25l1 4l262 38l1 -1l-199 -656c-14 -34 -51 -65 -117 -65c-72 0 -97 22 -85 61z" />
    <glyph glyph-name="l" unicode="l" horiz-adv-x="316" 
d="M-8 51c0 27 30 120 42 155l111 352c8 27 18 58 18 69c0 8 -1 14 -7 20l-27 25l1 4l261 38l1 -1l-190 -607l3 -2c40 18 73 42 104 70l6 -4c-55 -85 -168 -178 -259 -178c-39 0 -64 26 -64 59z" />
    <glyph glyph-name="m" unicode="m" horiz-adv-x="884" 
d="M88 261c16 34 51 104 51 124c0 10 -5 15 -14 15c-10 0 -23 -11 -34 -23c-12 -13 -34 -49 -47 -78l-7 3c25 95 87 179 201 179c54 0 84 -33 84 -79c0 -56 -20 -100 -44 -156l-82 -189c-14 -34 -52 -65 -117 -65c-73 0 -101 24 -85 61c13 30 82 183 94 208zM853 322
c-16 -35 -48 -96 -109 -216l3 -2c38 19 75 46 106 75l6 -4c-55 -86 -181 -183 -271 -183c-39 0 -61 14 -61 51c0 13 5 37 19 66c18 40 52 106 70 140c37 71 53 101 53 109c0 4 -2 7 -6 7c-10 0 -35 -27 -61 -61l-6 5c57 103 145 172 223 172c45 0 63 -25 63 -65
c0 -13 -7 -48 -29 -94zM351 257c36 71 44 93 44 100c0 4 -3 7 -7 7c-10 0 -33 -26 -60 -60l-6 5c58 103 142 172 221 172c44 0 68 -25 68 -65c0 -13 -10 -51 -31 -97c-25 -59 -60 -131 -121 -262c-16 -33 -52 -65 -117 -65c-73 0 -101 24 -85 61c17 37 73 163 94 204z" />
    <glyph glyph-name="n" unicode="n" horiz-adv-x="625" 
d="M485 106l3 -2c38 19 74 46 106 75l6 -4c-55 -86 -181 -183 -271 -183c-39 0 -61 14 -61 51c0 13 5 37 18 66c18 39 52 105 71 140c33 63 52 95 52 104c0 5 -3 8 -9 8c-12 0 -40 -23 -66 -57l-6 5c64 107 154 172 232 172c45 0 63 -25 63 -65c0 -13 -8 -48 -30 -94
c-15 -35 -47 -96 -108 -216zM88 261c16 34 50 104 50 124c0 10 -4 15 -13 15c-10 0 -23 -11 -34 -23c-12 -13 -34 -49 -47 -78l-7 3c25 95 88 179 202 179c54 0 83 -34 83 -79c0 -56 -20 -100 -44 -156l-82 -189c-14 -34 -52 -65 -117 -65c-73 0 -101 24 -85 61
c13 30 82 183 94 208z" />
    <glyph glyph-name="o" unicode="o" horiz-adv-x="576" 
d="M355 481l-2 -7c-9 -1 -20 -8 -31 -21c-55 -70 -129 -296 -129 -412c0 -27 6 -38 12 -41l-2 -7c-147 7 -193 115 -193 180c0 169 137 294 345 308zM221 -8l2 7c7 1 23 7 34 22c55 68 125 293 125 412c0 26 -5 37 -11 40l2 7c146 -7 192 -114 192 -179
c0 -169 -128 -295 -344 -309z" />
    <glyph glyph-name="p" unicode="p" horiz-adv-x="579" 
d="M-48 -136l139 513c-23 -3 -54 -7 -71 -11v6c16 10 51 25 80 36l25 90c11 41 65 62 131 62c71 0 80 -26 71 -59l-128 -468c9 -15 27 -27 44 -30l-2 -8c-4 -2 -11 -3 -21 -3c-11 0 -22 1 -32 3l-25 -100c-17 -65 11 -88 48 -92l-3 -8h-326l3 8c38 5 57 23 67 61zM324 415
l6 23c36 20 116 43 146 43c75 0 103 -44 103 -110c0 -145 -109 -329 -313 -371l2 9c34 39 109 225 109 365c0 21 -8 32 -27 35c-5 4 -16 6 -26 6z" />
    <glyph glyph-name="q" unicode="q" horiz-adv-x="578" 
d="M139 397c61 56 145 83 202 84l-2 -7c-21 -10 -40 -33 -60 -70c-41 -72 -76 -192 -76 -281c0 -15 5 -26 18 -26c18 0 38 22 48 35l6 -4c-31 -68 -106 -136 -181 -136c-43 0 -91 32 -91 109c0 84 48 215 136 296zM567 360l-131 -474c-18 -65 9 -79 46 -83l-3 -8h-329l3 8
c46 5 66 30 77 68l135 485c16 58 10 111 -9 118l2 7c59 -5 104 -25 120 -69h4l122 82l6 -3c-9 -20 -31 -88 -43 -131z" />
    <glyph glyph-name="r" unicode="r" horiz-adv-x="503" 
d="M87 261c15 34 48 102 48 125c0 10 -5 14 -12 14c-10 0 -24 -11 -34 -23c-13 -14 -35 -50 -47 -78l-7 3c24 95 85 179 199 179c55 0 85 -34 85 -79c0 -56 -19 -100 -42 -156l-79 -189c-15 -34 -52 -65 -117 -65c-73 0 -101 24 -85 61c13 32 78 179 91 208zM377 257l-6 6
c12 20 29 73 29 94c0 7 -2 14 -11 14c-14 0 -43 -40 -64 -87l-7 2c27 101 91 195 170 195c29 0 53 -20 53 -61c0 -83 -83 -149 -164 -163z" />
    <glyph glyph-name="s" unicode="s" horiz-adv-x="361" 
d="M292 481l-2 -7c-21 -3 -42 -21 -42 -51c0 -39 12 -69 34 -145c14 -46 30 -84 30 -116c0 -65 -64 -160 -232 -169l2 7c27 7 48 25 48 62c0 29 -20 76 -38 123c-18 46 -28 81 -28 122c0 74 75 166 228 174zM-51 76c0 39 31 71 70 71s71 -32 71 -71s-32 -70 -71 -70
s-70 31 -70 70zM284 411c0 35 27 64 63 64c35 0 63 -29 63 -64s-28 -63 -63 -63c-36 0 -63 28 -63 63z" />
    <glyph glyph-name="t" unicode="t" horiz-adv-x="365" 
d="M10 134c32 78 104 264 104 264h-65l9 21s75 47 109 72c0 0 63 50 93 73c20 17 43 31 67 33c23 1 42 -10 32 -33c-5 -13 -33 -96 -33 -96h111l-26 -70h-109l-103 -283l3 -2c50 15 99 45 128 71l6 -3c-20 -40 -61 -89 -112 -127c-51 -36 -108 -62 -163 -62
c-47 0 -73 28 -74 62c0 15 7 43 23 80z" />
    <glyph glyph-name="u" unicode="u" horiz-adv-x="622" 
d="M269 237c-32 -65 -53 -102 -53 -114c0 -6 2 -8 8 -8c12 0 44 20 70 54l6 -5c-64 -106 -159 -172 -237 -172c-45 0 -63 25 -63 65c0 11 3 36 18 69c18 43 32 69 61 125c16 34 56 114 56 134c0 10 -6 15 -14 15c-10 0 -23 -11 -34 -23c-12 -13 -34 -49 -48 -78l-7 3
c26 95 98 179 212 179c54 0 82 -33 82 -79c0 -58 -28 -108 -57 -165zM490 100l3 -2c38 18 81 52 113 81l6 -4c-55 -86 -177 -183 -267 -183c-39 0 -63 14 -63 52s44 139 68 195c9 20 73 170 77 177c14 34 51 65 117 65c72 0 101 -23 84 -62l-71 -164z" />
    <glyph glyph-name="v" unicode="v" horiz-adv-x="508" 
d="M238 481c47 0 64 -43 64 -90c0 -62 -32 -249 -40 -287l-117 -110l-101 36c37 102 64 246 64 325c0 38 -11 49 -32 49c-15 0 -37 -9 -56 -24l-3 6c35 41 164 95 221 95zM419 382c0 23 -11 30 -24 30c-14 0 -36 -10 -54 -23l-5 5c41 38 117 87 171 87c40 0 53 -26 53 -56
c0 -24 -25 -63 -60 -103c-47 -54 -108 -110 -192 -174l-3 7c76 68 114 180 114 227z" />
    <glyph glyph-name="w" unicode="w" horiz-adv-x="750" 
d="M218 481c47 0 68 -43 68 -90c0 -60 -22 -249 -30 -287l-117 -110l-98 43c34 104 51 241 51 317c0 26 -8 43 -28 43c-12 0 -30 -5 -44 -15l-3 6c42 45 137 93 201 93zM489 481c47 0 68 -43 68 -90c0 -62 -23 -249 -31 -287l-116 -110l-99 43c33 112 51 245 51 324
c0 29 -11 38 -27 38c-8 0 -15 -2 -31 -10l-3 6c41 39 123 86 188 86zM665 378c0 23 -10 30 -23 30c-8 0 -37 -8 -54 -19l-5 5c39 42 122 87 163 87c35 0 56 -20 56 -50c0 -57 -82 -162 -229 -285l-3 7c61 62 95 178 95 225z" />
    <glyph glyph-name="x" unicode="x" horiz-adv-x="497" 
d="M40 85c23 0 64 19 93 54l6 -5c-16 -32 -52 -86 -78 -110c-20 -18 -40 -32 -69 -32c-20 0 -42 15 -42 49c0 45 59 116 79 135l6 -3c-9 -19 -18 -46 -18 -60c0 -19 8 -28 23 -28zM137 350c-4 23 -12 33 -26 33c-23 0 -43 -30 -56 -58l-8 3c24 92 119 153 178 153
c60 0 87 -34 99 -103c14 -82 22 -160 40 -251c8 -43 20 -47 31 -47c19 0 51 39 58 63l7 -2c-13 -75 -94 -149 -180 -149c-61 0 -87 46 -102 120c-15 72 -28 171 -41 238zM460 394c-22 0 -65 -25 -95 -60l-6 5c21 43 52 82 78 106c20 18 43 36 69 36c20 0 43 -9 43 -42
c0 -46 -55 -103 -75 -122l-5 3c9 20 14 35 14 47c0 19 -8 27 -23 27z" />
    <glyph glyph-name="y" unicode="y" 
d="M294 415c10 -76 9 -236 2 -364c-38 -34 -127 -112 -198 -159c11 197 13 374 3 478c-1 10 -8 17 -18 17c-20 0 -43 -29 -61 -62l-7 3c27 91 135 153 213 153c38 0 61 -20 66 -66zM-81 -156c44 0 95 14 135 31l4 -5c-23 -26 -97 -77 -136 -97c-22 -11 -44 -15 -55 -15
c-27 0 -68 15 -68 66s56 92 86 98l4 -4c-6 -6 -11 -21 -11 -32c0 -30 17 -42 41 -42zM430 373c0 24 -9 29 -22 29c-14 0 -41 -9 -59 -32l-5 5c25 57 107 106 163 106c42 0 48 -32 48 -60c0 -57 -69 -198 -203 -301l-4 6c67 68 82 196 82 247z" />
    <glyph glyph-name="z" unicode="z" horiz-adv-x="475" 
d="M102 169c36 0 80 -12 136 -26c56 -15 114 -29 135 -29c30 0 58 13 70 31l6 -3c-24 -86 -80 -163 -179 -163c-26 0 -88 12 -159 30c-40 11 -76 18 -103 18c-25 0 -53 -7 -73 -29l-6 3c11 81 98 168 173 168zM222 481c18 0 55 -4 96 -14c63 -14 106 -19 120 -19
c30 0 57 14 66 33l6 -3c-11 -67 -74 -152 -154 -159c-28 1 -78 11 -136 24s-85 21 -116 21c-20 0 -43 -15 -49 -39l-9 2c4 77 89 154 176 154zM347 196c0 28 24 52 52 52c29 0 53 -24 53 -52c0 -29 -24 -52 -53 -52c-28 0 -52 23 -52 52zM65 300c0 25 20 46 45 46
c26 0 46 -21 46 -46s-20 -46 -46 -46c-25 0 -45 20 -45 46z" />
    <glyph glyph-name="braceleft" unicode="{" horiz-adv-x="338" 
d="M46 209v-1c105 -15 142 -72 142 -137c0 -15 -3 -30 -7 -46l-41 -141c-3 -10 -7 -28 -7 -44c0 -37 31 -52 52 -53l-2 -6c-83 3 -162 43 -162 124c0 16 3 35 9 55l35 123c6 18 8 34 8 47c0 54 -28 70 -85 75l2 7c59 1 115 14 146 119l42 144c36 122 140 162 252 163l-2 -7
c-47 -9 -82 -26 -99 -87l-46 -164c-28 -97 -114 -160 -237 -171z" />
    <glyph glyph-name="bar" unicode="|" horiz-adv-x="269" 
d="M129 -220v857h36v-857h-36z" />
    <glyph glyph-name="braceright" unicode="}" horiz-adv-x="340" 
d="M308 207c-59 -1 -115 -14 -146 -119l-42 -144c-36 -122 -140 -162 -252 -163l2 7c32 3 82 26 99 87l47 164c27 97 113 160 236 171l1 1c-106 15 -143 72 -142 136c0 15 2 31 6 47l41 141c3 10 9 32 9 47c0 37 -32 48 -54 50l2 6c90 -7 162 -43 162 -124
c0 -16 -3 -35 -9 -55l-35 -123c-6 -18 -8 -35 -8 -48c0 -54 28 -69 86 -74z" />
    <glyph glyph-name="asciitilde" unicode="~" horiz-adv-x="399" 
d="M195 246c-18 12 -40 32 -69 32c-27 0 -47 -18 -52 -58l-48 2c5 61 42 106 100 106c44 0 62 -13 93 -35c20 -14 44 -35 73 -35s42 18 47 58l48 -2c-5 -67 -43 -106 -101 -106c-40 0 -64 19 -91 38z" />
    <glyph glyph-name="Adieresis" unicode="&#xc4;" horiz-adv-x="609" 
d="M142 259h124l-21 174l120 204h82l59 -529c7 -64 29 -93 77 -100l-3 -8h-373l3 8c65 7 78 46 73 96l-12 111h-156zM140 0h-243l3 8c54 11 100 45 136 86c20 20 34 40 51 65l8 -3c-9 -17 -16 -52 -16 -74c0 -32 16 -70 64 -74zM299 827c43 0 76 -33 76 -76s-33 -78 -76 -78
s-78 35 -78 78s35 76 78 76zM518 827c44 0 78 -33 78 -76s-34 -78 -78 -78c-41 0 -75 35 -75 78s34 76 75 76z" />
    <glyph glyph-name="Aring" unicode="&#xc5;" horiz-adv-x="609" 
d="M142 259h124l-21 174l120 204h82l59 -529c7 -64 29 -93 77 -100l-3 -8h-373l3 8c65 7 78 46 73 96l-12 111h-156zM140 0h-243l3 8c54 11 100 45 136 86c20 20 34 40 51 65l8 -3c-9 -17 -16 -52 -16 -74c0 -32 16 -70 64 -74zM321 756c0 47 39 77 79 80v-21
c-22 -2 -54 -17 -54 -59s32 -59 54 -60v-22c-40 3 -79 32 -79 82zM501 756c0 -48 -40 -79 -79 -82v22c22 1 54 18 54 60s-33 57 -54 59v21c39 -3 79 -31 79 -80z" />
    <glyph glyph-name="Ccedilla" unicode="&#xc7;" horiz-adv-x="648" 
d="M618 398h-9c-4 116 -47 204 -129 231l3 8c68 -1 144 -17 191 -35zM302 0l-3 -7c-158 9 -272 140 -272 271c0 130 73 227 176 295c65 45 153 77 252 80l-3 -8c-29 -3 -58 -24 -83 -62c-50 -70 -120 -333 -120 -481c0 -49 20 -80 53 -88zM337 0c112 37 199 145 255 239h9
l-59 -219c-47 -15 -107 -25 -208 -28zM227 -231l2 -7c-18 -9 -54 -16 -73 -16c-34 0 -52 17 -52 37c0 24 22 48 56 60c13 -48 40 -76 67 -74zM241 -233l-3 8c4 3 6 8 6 12c0 9 -9 19 -25 44c-11 17 -22 37 -22 50c0 33 55 67 114 95l4 -6c-7 -7 -11 -16 -11 -25
c0 -13 12 -34 20 -48c14 -24 22 -40 22 -50c0 -9 -2 -19 -15 -29c-14 -14 -53 -40 -90 -51z" />
    <glyph glyph-name="Eacute" unicode="&#xc9;" horiz-adv-x="657" 
d="M577 724l-232 -50l-3 7l184 158zM419 630l-178 -630h-301l3 8c50 7 80 36 97 96l116 407c7 23 10 42 10 58c0 34 -34 51 -58 53l3 8h308zM606 396c6 126 -28 190 -147 226l2 8h212l-59 -234h-8zM284 0l2 8c60 6 124 37 181 80c62 46 110 101 152 167h9l-81 -255h-263z
M378 321c85 23 115 58 165 143h8l-83 -293h-8c-3 84 -15 120 -85 142z" />
    <glyph glyph-name="Ntilde" unicode="&#xd1;" horiz-adv-x="712" 
d="M701 848l9 -3c-10 -30 -35 -72 -69 -102c-24 -25 -65 -39 -101 -39c-41 0 -88 5 -121 5c-25 0 -62 -8 -74 -32l-8 2c18 44 36 76 69 103c27 22 59 41 109 41c53 0 86 -5 124 -5c32 0 54 15 62 30zM504 -1h-99l-226 499c-14 29 -31 56 -55 80c-23 24 -50 40 -84 44l3 8
h336l191 -415zM135 215l9 -1c-12 -36 -22 -71 -22 -110c0 -44 25 -85 85 -96l-3 -8h-292l3 8c100 16 162 105 220 207zM620 415l-8 1c11 34 22 81 22 120c0 43 -21 76 -93 86l3 8h295l-3 -8c-80 -15 -148 -72 -216 -207z" />
    <glyph glyph-name="Odieresis" unicode="&#xd6;" horiz-adv-x="710" 
d="M351 827c43 0 76 -33 76 -76s-33 -78 -76 -78s-78 35 -78 78s35 76 78 76zM570 827c44 0 78 -33 78 -76s-34 -78 -78 -78c-41 0 -75 35 -75 78s34 76 75 76zM272 1l-2 -8c-143 17 -241 140 -241 271c0 147 90 256 208 320c59 32 140 54 203 55l-2 -7
c-17 -4 -33 -13 -49 -33c-65 -78 -143 -371 -143 -526c0 -23 2 -58 26 -72zM294 -8l2 7c7 3 21 10 36 25c71 71 155 374 155 535c0 21 0 62 -26 72l2 7c144 -16 241 -140 241 -271c0 -149 -93 -260 -215 -322c-57 -31 -134 -52 -195 -53z" />
    <glyph glyph-name="Udieresis" unicode="&#xdc;" horiz-adv-x="653" 
d="M515 630h278l-3 -8c-30 -8 -65 -20 -98 -47c-36 -28 -85 -111 -95 -148h-11c11 42 14 74 14 103c0 51 -21 88 -88 92zM369 526l-86 -306c-24 -78 -13 -155 82 -165c36 -5 79 3 120 19l6 -8c-29 -33 -96 -74 -194 -74c-66 0 -124 6 -171 33c-87 50 -91 141 -62 242l71 244
c7 23 9 42 9 58c0 34 -34 51 -58 53l3 8h380l-3 -8c-52 -7 -81 -36 -97 -96zM386 827c43 0 76 -33 76 -76s-33 -78 -76 -78s-78 35 -78 78s35 76 78 76zM605 827c44 0 78 -33 78 -76s-34 -78 -78 -78c-41 0 -75 35 -75 78s34 76 75 76z" />
    <glyph glyph-name="aacute" unicode="&#xe1;" 
d="M267 389c-38 -46 -117 -232 -117 -277c0 -13 5 -19 15 -19c13 0 34 19 44 34l5 -4c-29 -60 -107 -130 -176 -130c-32 0 -66 23 -66 69c0 114 165 269 289 332zM424 101c20 0 65 43 84 80l6 -3c-24 -76 -122 -186 -232 -186c-42 0 -60 27 -60 60c0 17 12 69 21 96
c33 100 85 257 85 257c-2 2 -7 3 -13 3c-8 1 -17 -1 -26 -5l-6 5c21 17 82 40 105 45c15 21 42 50 98 50c26 0 41 -12 41 -24s-3 -24 -4 -28c-12 -35 -72 -210 -99 -297c-5 -17 -10 -33 -10 -41c0 -11 5 -12 10 -12zM491 651l-178 -146l-8 5l84 212z" />
    <glyph glyph-name="agrave" unicode="&#xe0;" 
d="M267 389c-38 -46 -117 -232 -117 -277c0 -13 5 -19 15 -19c13 0 34 19 44 34l5 -4c-29 -60 -107 -130 -176 -130c-32 0 -66 23 -66 69c0 114 165 269 289 332zM424 101c20 0 65 43 84 80l6 -3c-24 -76 -122 -186 -232 -186c-42 0 -60 27 -60 60c0 17 12 69 21 96
c33 100 85 257 85 257c-2 2 -7 3 -13 3c-8 1 -17 -1 -26 -5l-6 5c21 17 82 40 105 45c15 21 42 50 98 50c26 0 41 -12 41 -24s-3 -24 -4 -28c-12 -35 -72 -210 -99 -297c-5 -17 -10 -33 -10 -41c0 -11 5 -12 10 -12zM370 512l-8 -4l-127 158l122 48z" />
    <glyph glyph-name="acircumflex" unicode="&#xe2;" 
d="M267 389c-38 -46 -117 -232 -117 -277c0 -13 5 -19 15 -19c13 0 34 19 44 34l5 -4c-29 -60 -107 -130 -176 -130c-32 0 -66 23 -66 69c0 114 165 269 289 332zM424 101c20 0 65 43 84 80l6 -3c-24 -76 -122 -186 -232 -186c-42 0 -60 27 -60 60c0 17 12 69 21 96
c33 100 85 257 85 257c-2 2 -7 3 -13 3c-8 1 -17 -1 -26 -5l-6 5c21 17 82 40 105 45c15 21 42 50 98 50c26 0 41 -12 41 -24s-3 -24 -4 -28c-12 -35 -72 -210 -99 -297c-5 -17 -10 -33 -10 -41c0 -11 5 -12 10 -12zM275 525l182 185h4l72 -185l-8 -4l-87 79h-4l-154 -79z
" />
    <glyph glyph-name="adieresis" unicode="&#xe4;" 
d="M267 389c-38 -46 -117 -232 -117 -277c0 -13 5 -19 15 -19c13 0 34 19 44 34l5 -4c-29 -60 -107 -130 -176 -130c-32 0 -66 23 -66 69c0 114 165 269 289 332zM424 101c20 0 65 43 84 80l6 -3c-24 -76 -122 -186 -232 -186c-42 0 -60 27 -60 60c0 17 12 69 21 96
c33 100 85 257 85 257c-2 2 -7 3 -13 3c-8 1 -17 -1 -26 -5l-6 5c21 17 82 40 105 45c15 21 42 50 98 50c26 0 41 -12 41 -24s-3 -24 -4 -28c-12 -35 -72 -210 -99 -297c-5 -17 -10 -33 -10 -41c0 -11 5 -12 10 -12zM253 679c42 0 75 -33 75 -74s-33 -75 -75 -75
c-40 0 -73 34 -73 75s33 74 73 74zM455 679c42 0 74 -33 74 -74s-32 -75 -74 -75c-40 0 -73 34 -73 75s33 74 73 74z" />
    <glyph glyph-name="atilde" unicode="&#xe3;" 
d="M267 389c-38 -46 -117 -232 -117 -277c0 -13 5 -19 15 -19c13 0 34 19 44 34l5 -4c-29 -60 -107 -130 -176 -130c-32 0 -66 23 -66 69c0 114 165 269 289 332zM424 101c20 0 65 43 84 80l6 -3c-24 -76 -122 -186 -232 -186c-42 0 -60 27 -60 60c0 17 12 69 21 96
c33 100 85 257 85 257c-2 2 -7 3 -13 3c-8 1 -17 -1 -26 -5l-6 5c21 17 82 40 105 45c15 21 42 50 98 50c26 0 41 -12 41 -24s-3 -24 -4 -28c-12 -35 -72 -210 -99 -297c-5 -17 -10 -33 -10 -41c0 -11 5 -12 10 -12zM574 691l9 -3c-10 -26 -35 -76 -66 -109
c-25 -27 -68 -40 -106 -40c-37 0 -97 6 -130 6c-25 0 -50 -8 -65 -34l-7 3c16 42 38 74 72 101c27 23 57 43 106 43c54 0 84 -5 118 -5c31 0 56 14 69 38z" />
    <glyph glyph-name="aring" unicode="&#xe5;" 
d="M267 389c-38 -46 -117 -232 -117 -277c0 -13 5 -19 15 -19c13 0 34 19 44 34l5 -4c-29 -60 -107 -130 -176 -130c-32 0 -66 23 -66 69c0 114 165 269 289 332zM424 101c20 0 65 43 84 80l6 -3c-24 -76 -122 -186 -232 -186c-42 0 -60 27 -60 60c0 17 12 69 21 96
c33 100 85 257 85 257c-2 2 -7 3 -13 3c-8 1 -17 -1 -26 -5l-6 5c21 17 82 40 105 45c15 21 42 50 98 50c26 0 41 -12 41 -24s-3 -24 -4 -28c-12 -35 -72 -210 -99 -297c-5 -17 -10 -33 -10 -41c0 -11 5 -12 10 -12zM276 596c0 48 35 82 77 85v-22c-28 -2 -52 -21 -52 -63
s24 -61 52 -63v-22c-42 3 -77 36 -77 85zM452 596c0 -47 -35 -82 -77 -85v22c27 2 52 21 52 63s-25 61 -52 63v22c42 -3 77 -35 77 -85z" />
    <glyph glyph-name="ccedilla" unicode="&#xe7;" horiz-adv-x="417" 
d="M332 481l-2 -7c-68 -26 -118 -170 -118 -296c0 -36 17 -57 41 -57c41 0 91 39 124 90l7 -3c-22 -80 -107 -216 -248 -216c-105 0 -130 88 -130 140c0 168 162 327 326 349zM310 396c0 37 27 64 64 64s65 -27 65 -64s-28 -64 -65 -64s-64 27 -64 64zM56 -216l3 -7
c-17 -6 -45 -14 -69 -14c-34 0 -46 16 -47 33c0 33 37 46 68 56c3 -39 24 -67 45 -68zM73 -218l-3 7c7 4 10 17 10 26c0 14 -9 26 -18 39c-8 13 -16 26 -16 41c0 45 76 76 114 90l3 -6c-7 -5 -14 -18 -14 -29c0 -13 9 -27 17 -42s17 -30 17 -44c0 -20 -18 -40 -37 -52
s-45 -23 -73 -30z" />
    <glyph glyph-name="eacute" unicode="&#xe9;" horiz-adv-x="440" 
d="M479 651l-178 -146l-8 5l84 212zM329 482l-2 -7c-60 -27 -114 -256 -114 -330c0 -30 14 -48 38 -48c50 0 103 53 136 104l7 -3c-28 -84 -115 -206 -253 -206c-118 0 -134 88 -134 140c0 149 134 327 322 350zM239 239l2 7c23 7 45 20 63 40c35 40 49 104 49 165
c0 17 -6 21 -10 23l2 7c73 -3 123 -27 123 -81c0 -81 -83 -141 -229 -161z" />
    <glyph glyph-name="egrave" unicode="&#xe8;" horiz-adv-x="440" 
d="M329 482l-2 -7c-60 -27 -114 -256 -114 -330c0 -30 14 -48 38 -48c50 0 103 53 136 104l7 -3c-28 -84 -115 -206 -253 -206c-118 0 -134 88 -134 140c0 149 134 327 322 350zM239 239l2 7c23 7 45 20 63 40c35 40 49 104 49 165c0 17 -6 21 -10 23l2 7
c73 -3 123 -27 123 -81c0 -81 -83 -141 -229 -161zM353 512l-8 -4l-127 158l122 48z" />
    <glyph glyph-name="ecircumflex" unicode="&#xea;" horiz-adv-x="440" 
d="M199 515l182 185h4l72 -185l-8 -4l-87 79h-4l-154 -79zM329 482l-2 -7c-60 -27 -114 -256 -114 -330c0 -30 14 -48 38 -48c50 0 103 53 136 104l7 -3c-28 -84 -115 -206 -253 -206c-118 0 -134 88 -134 140c0 149 134 327 322 350zM239 239l2 7c23 7 45 20 63 40
c35 40 49 104 49 165c0 17 -6 21 -10 23l2 7c73 -3 123 -27 123 -81c0 -81 -83 -141 -229 -161z" />
    <glyph glyph-name="edieresis" unicode="&#xeb;" horiz-adv-x="440" 
d="M242 664c42 0 75 -33 75 -74s-33 -75 -75 -75c-40 0 -73 34 -73 75s33 74 73 74zM444 664c42 0 74 -33 74 -74s-32 -75 -74 -75c-40 0 -73 34 -73 75s33 74 73 74zM329 482l-2 -7c-60 -27 -114 -256 -114 -330c0 -30 14 -48 38 -48c50 0 103 53 136 104l7 -3
c-28 -84 -115 -206 -253 -206c-118 0 -134 88 -134 140c0 149 134 327 322 350zM239 239l2 7c23 7 45 20 63 40c35 40 49 104 49 165c0 17 -6 21 -10 23l2 7c73 -3 123 -27 123 -81c0 -81 -83 -141 -229 -161z" />
    <glyph glyph-name="iacute" unicode="&#xed;" horiz-adv-x="331" 
d="M274 246c-24 -54 -4 -12 -69 -140l3 -2c38 18 72 46 104 75l6 -4c-55 -86 -168 -183 -258 -183c-40 0 -65 26 -65 59c0 14 8 42 23 77l60 127c18 38 53 110 53 130c0 10 -5 15 -13 15c-10 0 -24 -13 -34 -25c-13 -13 -36 -50 -48 -76l-7 3c26 93 101 179 207 179
c57 0 88 -36 88 -80s-25 -97 -50 -155zM388 651l-178 -146l-8 5l84 212z" />
    <glyph glyph-name="igrave" unicode="&#xec;" horiz-adv-x="331" 
d="M274 246c-24 -54 -4 -12 -69 -140l3 -2c38 18 72 46 104 75l6 -4c-55 -86 -168 -183 -258 -183c-40 0 -65 26 -65 59c0 14 8 42 23 77l60 127c18 38 53 110 53 130c0 10 -5 15 -13 15c-10 0 -24 -13 -34 -25c-13 -13 -36 -50 -48 -76l-7 3c26 93 101 179 207 179
c57 0 88 -36 88 -80s-25 -97 -50 -155zM282 512l-8 -4l-127 158l122 48z" />
    <glyph glyph-name="icircumflex" unicode="&#xee;" horiz-adv-x="331" 
d="M274 246c-24 -54 -4 -12 -69 -140l3 -2c38 18 72 46 104 75l6 -4c-55 -86 -168 -183 -258 -183c-40 0 -65 26 -65 59c0 14 8 42 23 77l60 127c18 38 53 110 53 130c0 10 -5 15 -13 15c-10 0 -24 -13 -34 -25c-13 -13 -36 -50 -48 -76l-7 3c26 93 101 179 207 179
c57 0 88 -36 88 -80s-25 -97 -50 -155zM119 515l182 185h4l72 -185l-8 -4l-87 79h-4l-154 -79z" />
    <glyph glyph-name="idieresis" unicode="&#xef;" horiz-adv-x="331" 
d="M274 246c-24 -54 -4 -12 -69 -140l3 -2c38 18 72 46 104 75l6 -4c-55 -86 -168 -183 -258 -183c-40 0 -65 26 -65 59c0 14 8 42 23 77l60 127c18 38 53 110 53 130c0 10 -5 15 -13 15c-10 0 -24 -13 -34 -25c-13 -13 -36 -50 -48 -76l-7 3c26 93 101 179 207 179
c57 0 88 -36 88 -80s-25 -97 -50 -155zM170 664c42 0 75 -33 75 -74s-33 -75 -75 -75c-40 0 -73 34 -73 75s33 74 73 74zM372 664c42 0 74 -33 74 -74s-32 -75 -74 -75c-40 0 -73 34 -73 75s33 74 73 74z" />
    <glyph glyph-name="ntilde" unicode="&#xf1;" horiz-adv-x="625" 
d="M485 106l3 -2c38 19 74 46 106 75l6 -4c-55 -86 -181 -183 -271 -183c-39 0 -61 14 -61 51c0 13 5 37 18 66c18 39 52 105 71 140c33 63 52 95 52 104c0 5 -3 8 -9 8c-12 0 -40 -23 -66 -57l-6 5c64 107 154 172 232 172c45 0 63 -25 63 -65c0 -13 -8 -48 -30 -94
c-15 -35 -47 -96 -108 -216zM88 261c16 34 50 104 50 124c0 10 -4 15 -13 15c-10 0 -23 -11 -34 -23c-12 -13 -34 -49 -47 -78l-7 3c25 95 88 179 202 179c54 0 83 -34 83 -79c0 -56 -20 -100 -44 -156l-82 -189c-14 -34 -52 -65 -117 -65c-73 0 -101 24 -85 61
c13 30 82 183 94 208zM633 691l9 -3c-10 -26 -35 -76 -66 -109c-25 -27 -68 -40 -106 -40c-37 0 -97 6 -130 6c-25 0 -50 -8 -65 -34l-7 3c16 42 38 74 72 101c27 23 57 43 106 43c54 0 84 -5 118 -5c31 0 56 14 69 38z" />
    <glyph glyph-name="oacute" unicode="&#xf3;" horiz-adv-x="576" 
d="M521 651l-178 -146l-8 5l84 212zM355 481l-2 -7c-9 -1 -20 -8 -31 -21c-55 -70 -129 -296 -129 -412c0 -27 6 -38 12 -41l-2 -7c-147 7 -193 115 -193 180c0 169 137 294 345 308zM221 -8l2 7c7 1 23 7 34 22c55 68 125 293 125 412c0 26 -5 37 -11 40l2 7
c146 -7 192 -114 192 -179c0 -169 -128 -295 -344 -309z" />
    <glyph glyph-name="ograve" unicode="&#xf2;" horiz-adv-x="576" 
d="M355 481l-2 -7c-9 -1 -20 -8 -31 -21c-55 -70 -129 -296 -129 -412c0 -27 6 -38 12 -41l-2 -7c-147 7 -193 115 -193 180c0 169 137 294 345 308zM221 -8l2 7c7 1 23 7 34 22c55 68 125 293 125 412c0 26 -5 37 -11 40l2 7c146 -7 192 -114 192 -179
c0 -169 -128 -295 -344 -309zM385 512l-8 -4l-127 158l122 48z" />
    <glyph glyph-name="ocircumflex" unicode="&#xf4;" horiz-adv-x="576" 
d="M224 515l182 185h4l72 -185l-8 -4l-87 79h-4l-154 -79zM355 481l-2 -7c-9 -1 -20 -8 -31 -21c-55 -70 -129 -296 -129 -412c0 -27 6 -38 12 -41l-2 -7c-147 7 -193 115 -193 180c0 169 137 294 345 308zM221 -8l2 7c7 1 23 7 34 22c55 68 125 293 125 412
c0 26 -5 37 -11 40l2 7c146 -7 192 -114 192 -179c0 -169 -128 -295 -344 -309z" />
    <glyph glyph-name="odieresis" unicode="&#xf6;" horiz-adv-x="576" 
d="M263 664c42 0 75 -33 75 -74s-33 -75 -75 -75c-40 0 -73 34 -73 75s33 74 73 74zM465 664c42 0 74 -33 74 -74s-32 -75 -74 -75c-40 0 -73 34 -73 75s33 74 73 74zM355 481l-2 -7c-9 -1 -20 -8 -31 -21c-55 -70 -129 -296 -129 -412c0 -27 6 -38 12 -41l-2 -7
c-147 7 -193 115 -193 180c0 169 137 294 345 308zM221 -8l2 7c7 1 23 7 34 22c55 68 125 293 125 412c0 26 -5 37 -11 40l2 7c146 -7 192 -114 192 -179c0 -169 -128 -295 -344 -309z" />
    <glyph glyph-name="otilde" unicode="&#xf5;" horiz-adv-x="576" 
d="M355 481l-2 -7c-9 -1 -20 -8 -31 -21c-55 -70 -129 -296 -129 -412c0 -27 6 -38 12 -41l-2 -7c-147 7 -193 115 -193 180c0 169 137 294 345 308zM221 -8l2 7c7 1 23 7 34 22c55 68 125 293 125 412c0 26 -5 37 -11 40l2 7c146 -7 192 -114 192 -179
c0 -169 -128 -295 -344 -309zM561 691l9 -3c-10 -26 -35 -76 -66 -109c-25 -27 -68 -40 -106 -40c-37 0 -97 6 -130 6c-25 0 -50 -8 -65 -34l-7 3c16 42 38 74 72 101c27 23 57 43 106 43c54 0 84 -5 118 -5c31 0 56 14 69 38z" />
    <glyph glyph-name="uacute" unicode="&#xfa;" horiz-adv-x="622" 
d="M269 237c-32 -65 -53 -102 -53 -114c0 -6 2 -8 8 -8c12 0 44 20 70 54l6 -5c-64 -106 -159 -172 -237 -172c-45 0 -63 25 -63 65c0 11 3 36 18 69c18 43 32 69 61 125c16 34 56 114 56 134c0 10 -6 15 -14 15c-10 0 -23 -11 -34 -23c-12 -13 -34 -49 -48 -78l-7 3
c26 95 98 179 212 179c54 0 82 -33 82 -79c0 -58 -28 -108 -57 -165zM490 100l3 -2c38 18 81 52 113 81l6 -4c-55 -86 -177 -183 -267 -183c-39 0 -63 14 -63 52s44 139 68 195c9 20 73 170 77 177c14 34 51 65 117 65c72 0 101 -23 84 -62l-71 -164zM537 651l-178 -146
l-8 5l84 212z" />
    <glyph glyph-name="ugrave" unicode="&#xf9;" horiz-adv-x="622" 
d="M269 237c-32 -65 -53 -102 -53 -114c0 -6 2 -8 8 -8c12 0 44 20 70 54l6 -5c-64 -106 -159 -172 -237 -172c-45 0 -63 25 -63 65c0 11 3 36 18 69c18 43 32 69 61 125c16 34 56 114 56 134c0 10 -6 15 -14 15c-10 0 -23 -11 -34 -23c-12 -13 -34 -49 -48 -78l-7 3
c26 95 98 179 212 179c54 0 82 -33 82 -79c0 -58 -28 -108 -57 -165zM490 100l3 -2c38 18 81 52 113 81l6 -4c-55 -86 -177 -183 -267 -183c-39 0 -63 14 -63 52s44 139 68 195c9 20 73 170 77 177c14 34 51 65 117 65c72 0 101 -23 84 -62l-71 -164zM405 512l-8 -4
l-127 158l122 48z" />
    <glyph glyph-name="ucircumflex" unicode="&#xfb;" horiz-adv-x="622" 
d="M269 237c-32 -65 -53 -102 -53 -114c0 -6 2 -8 8 -8c12 0 44 20 70 54l6 -5c-64 -106 -159 -172 -237 -172c-45 0 -63 25 -63 65c0 11 3 36 18 69c18 43 32 69 61 125c16 34 56 114 56 134c0 10 -6 15 -14 15c-10 0 -23 -11 -34 -23c-12 -13 -34 -49 -48 -78l-7 3
c26 95 98 179 212 179c54 0 82 -33 82 -79c0 -58 -28 -108 -57 -165zM490 100l3 -2c38 18 81 52 113 81l6 -4c-55 -86 -177 -183 -267 -183c-39 0 -63 14 -63 52s44 139 68 195c9 20 73 170 77 177c14 34 51 65 117 65c72 0 101 -23 84 -62l-71 -164zM284 515l182 185h4
l72 -185l-8 -4l-87 79h-4l-154 -79z" />
    <glyph glyph-name="udieresis" unicode="&#xfc;" horiz-adv-x="622" 
d="M269 237c-32 -65 -53 -102 -53 -114c0 -6 2 -8 8 -8c12 0 44 20 70 54l6 -5c-64 -106 -159 -172 -237 -172c-45 0 -63 25 -63 65c0 11 3 36 18 69c18 43 32 69 61 125c16 34 56 114 56 134c0 10 -6 15 -14 15c-10 0 -23 -11 -34 -23c-12 -13 -34 -49 -48 -78l-7 3
c26 95 98 179 212 179c54 0 82 -33 82 -79c0 -58 -28 -108 -57 -165zM490 100l3 -2c38 18 81 52 113 81l6 -4c-55 -86 -177 -183 -267 -183c-39 0 -63 14 -63 52s44 139 68 195c9 20 73 170 77 177c14 34 51 65 117 65c72 0 101 -23 84 -62l-71 -164zM301 664
c42 0 75 -33 75 -74s-33 -75 -75 -75c-40 0 -73 34 -73 75s33 74 73 74zM503 664c42 0 74 -33 74 -74s-32 -75 -74 -75c-40 0 -73 34 -73 75s33 74 73 74z" />
    <glyph glyph-name="dagger" unicode="&#x2020;" horiz-adv-x="478" 
d="M281 501l17 -552h-79l18 552l-18 207h79zM451 464l-135 18v36l135 17v-71zM201 482l-136 -18v71l136 -17v-36z" />
    <glyph glyph-name="degree" unicode="&#xb0;" horiz-adv-x="307" 
d="M91 515c0 62 44 110 102 113v-22c-43 -4 -76 -40 -76 -91s33 -86 76 -90v-22c-58 3 -102 50 -102 112zM324 515c0 -62 -44 -109 -101 -112v22c43 4 75 39 75 90s-32 87 -75 91v22c57 -3 101 -51 101 -113z" />
    <glyph glyph-name="cent" unicode="&#xa2;" horiz-adv-x="428" 
d="M135 -87l25 81c-8 -1 -16 -2 -24 -2c-104 0 -132 88 -132 140c0 147 146 287 287 330l-3 -10c-44 -34 -86 -145 -86 -269c0 -15 3 -26 7 -36l132 415h25l-138 -435c7 -4 16 -6 25 -6c42 0 91 39 124 90l7 -3c-26 -87 -98 -184 -197 -209l-27 -86h-25zM336 394
c0 37 27 65 64 65s64 -28 64 -65s-27 -63 -64 -63s-64 26 -64 63z" />
    <glyph glyph-name="sterling" unicode="&#xa3;" horiz-adv-x="571" 
d="M42 291h87c2 3 15 41 16 46h-71l9 27h73c3 11 7 21 11 31c62 161 153 226 351 238v-6c-64 -16 -79 -109 -131 -237l-10 -26h86l-8 -27h-90c-9 -18 -18 -33 -29 -46h95l-9 -27h-110c-54 -52 -130 -77 -229 -93l-4 4c10 12 18 29 40 89h-86zM-70 -7c33 84 119 160 215 160
c54 0 88 -8 129 -13c57 -6 102 -13 145 -13c63 0 94 12 120 44l4 -1c-33 -120 -87 -200 -206 -200c-46 0 -127 18 -181 23c-78 8 -99 9 -145 9c-26 0 -57 -5 -79 -11zM551 610c38 0 68 -30 68 -68s-30 -68 -68 -68c-39 0 -69 30 -69 68s30 68 69 68z" />
    <glyph glyph-name="section" unicode="&#xa7;" horiz-adv-x="540" 
d="M-53 -135c0 40 33 73 73 73s74 -33 74 -73s-34 -75 -74 -75s-73 35 -73 75zM73 -221v7c52 12 73 50 73 104c0 35 -20 86 -75 159c-37 50 -67 111 -66 174c0 14 2 29 6 43c28 97 118 178 183 215l5 -6c-33 -23 -42 -61 -42 -97c0 -60 35 -116 78 -186s72 -125 72 -175
c0 -120 -124 -220 -234 -238zM572 565c0 -40 -33 -73 -74 -73c-39 0 -74 33 -74 73s35 74 74 74c41 0 74 -34 74 -74zM447 646c-46 -16 -72 -55 -72 -110c0 -38 20 -81 71 -156c34 -51 69 -114 69 -179c0 -107 -101 -211 -192 -264l-3 6c30 23 45 64 45 102
c0 64 -40 134 -83 202c-44 71 -74 126 -73 175c0 114 139 205 238 231v-7z" />
    <glyph glyph-name="bullet" unicode="&#x2022;" horiz-adv-x="291" 
d="M41 278c0 61 49 110 110 110c60 0 110 -49 110 -110s-50 -110 -110 -110c-61 0 -110 49 -110 110z" />
    <glyph glyph-name="paragraph" unicode="&#xb6;" horiz-adv-x="558" 
d="M355 145h-70c-127 0 -229 74 -229 225c0 164 156 260 321 260h277l-6 -24h-168zM373 -171h-28l202 744h28zM284 -18l34 129h28l-37 -138c-37 -141 -103 -182 -179 -182c-65 0 -105 40 -107 87c0 61 44 97 100 109l2 -8c-50 -12 -73 -43 -73 -90c0 -41 35 -73 82 -73
c66 0 117 39 150 166zM96 -84c0 26 23 49 50 49c26 0 49 -23 49 -49c0 -27 -23 -51 -49 -51c-27 0 -50 24 -50 51z" />
    <glyph glyph-name="germandbls" unicode="&#xdf;" horiz-adv-x="611" 
d="M-260 -156c0 39 32 72 71 72s71 -33 71 -72s-32 -71 -71 -71s-71 32 -71 71zM72 378c40 194 170 310 380 326l-2 -6c-83 -15 -130 -106 -157 -242c-41 -203 -85 -462 -243 -601c-58 -52 -129 -86 -219 -96l2 6c56 12 108 52 137 141c34 109 69 316 102 472zM472 698l1 6
c71 -1 180 -20 180 -90c0 -59 -79 -89 -148 -113l-7 6c6 3 48 48 48 98c0 54 -26 82 -74 93zM483 494l6 -6c-8 -8 -16 -25 -16 -49c0 -39 25 -76 68 -144c28 -48 45 -85 45 -133c0 -65 -68 -160 -235 -169l2 7c31 4 58 25 58 62c0 24 -12 64 -42 107c-28 40 -51 90 -51 130
c0 75 54 146 165 195zM225 68c0 38 30 70 69 70c38 0 70 -32 70 -70c0 -39 -32 -69 -70 -69c-39 0 -69 30 -69 69z" />
    <glyph glyph-name="registered" unicode="&#xae;" horiz-adv-x="406" 
d="M67 445c0 103 72 180 174 191v-17c-93 -12 -153 -86 -153 -174s60 -162 153 -174v-17c-102 12 -174 88 -174 191zM236 554v-168c0 -23 8 -27 23 -29v-7h-115v7c14 2 22 6 22 29v133c0 22 -8 28 -22 30v5h92zM387 349c-9 0 -51 0 -65 2c-23 2 -29 10 -46 34
c-10 15 -17 39 -26 59v5c13 3 22 18 22 49c0 33 -10 48 -26 51v5c11 0 24 -1 34 -2c45 -6 66 -25 66 -54c0 -20 -13 -38 -33 -47v-2c12 -25 29 -52 43 -69c12 -12 24 -23 31 -26v-5zM450 445c0 -103 -72 -179 -174 -191v17c92 12 153 86 153 174s-61 162 -153 174v17
c102 -11 174 -88 174 -191z" />
    <glyph glyph-name="copyright" unicode="&#xa9;" horiz-adv-x="713" 
d="M44 315c0 185 133 308 305 321v-17c-169 -14 -284 -131 -284 -304s116 -290 284 -304v-17c-172 13 -305 136 -305 321zM689 315c0 -185 -133 -308 -305 -321v17c168 14 284 131 284 304s-116 290 -284 304v17c172 -13 305 -136 305 -321zM535 368h-12
c-11 49 -42 109 -91 137c-11 5 -20 9 -33 12v9c50 -1 107 -10 134 -19zM526 267h11l-2 -143c-26 -8 -86 -16 -134 -19v9c12 2 20 7 31 13c50 29 82 90 94 140zM375 114v-10c-153 8 -232 94 -232 211c0 122 107 199 230 211v-9c-6 -1 -21 -8 -28 -15
c-26 -24 -54 -66 -54 -180c0 -106 23 -171 60 -199c8 -6 16 -8 24 -9z" />
    <glyph glyph-name="trademark" unicode="&#x2122;" horiz-adv-x="652" 
d="M126 630v-8c-24 -7 -54 -45 -66 -87h-9l3 95h72zM526 489l-43 -102h-13l-82 195c-11 27 -23 37 -51 41v7h130zM557 441l-10 189h123v-6c-23 -2 -30 -14 -29 -40l6 -143c2 -28 16 -40 30 -42v-6h-145v6c18 4 27 15 25 42zM427 393h-98v6c31 6 45 37 51 69h8
c0 -29 5 -65 39 -69v-6zM228 630v-195c0 -27 12 -34 28 -36v-6h-145v6c16 2 28 9 28 36v195h89zM241 622v8h72l4 -95h-9c-12 42 -43 80 -67 87z" />
    <glyph glyph-name="acute" unicode="&#xb4;" horiz-adv-x="204" 
d="M282 651l-178 -146l-8 5l84 212z" />
    <glyph glyph-name="dieresis" unicode="&#xa8;" horiz-adv-x="434" 
d="M190 664c42 0 75 -33 75 -74s-33 -75 -75 -75c-40 0 -73 34 -73 75s33 74 73 74zM392 664c42 0 74 -33 74 -74s-32 -75 -74 -75c-40 0 -73 34 -73 75s33 74 73 74z" />
    <glyph glyph-name="AE" unicode="&#xc6;" horiz-adv-x="895" 
d="M130 0h-251l3 8c40 8 80 29 114 54c38 29 71 64 93 98l8 -4c-10 -17 -27 -50 -27 -72c0 -32 14 -72 63 -76zM669 630l-178 -630h-301l3 8c50 7 80 36 97 96l53 188h-170l37 45h146l50 174c7 23 10 42 10 58c0 34 -34 51 -58 53l3 8h308zM534 0l2 8c59 6 120 37 174 81
c60 47 109 107 147 166h8l-81 -255h-250zM852 396h-8c6 126 -16 190 -136 226l3 8h200zM628 321c85 23 103 58 153 143h8l-84 -293h-8c-3 84 -2 120 -72 142z" />
    <glyph glyph-name="Oslash" unicode="&#xd8;" horiz-adv-x="710" 
d="M272 1l-2 -8c-26 3 -50 9 -72 18l-51 -79l-31 17l50 78c-84 49 -137 141 -137 237c0 147 90 256 208 320c59 32 140 54 203 55l-2 -7c-13 -3 -27 -8 -48 -33c-54 -59 -118 -277 -138 -438l234 364c1 18 1 23 1 34c0 21 0 62 -26 72l2 7c29 -3 56 -11 81 -22l48 75l27 -18
l-46 -73c81 -49 131 -139 131 -233c0 -149 -92 -258 -213 -322c-57 -30 -135 -52 -197 -53l2 7c8 3 21 10 36 26c60 63 122 262 146 426l-232 -364v-14c0 -23 2 -59 26 -72z" />
    <glyph glyph-name="yen" unicode="&#xa5;" horiz-adv-x="540" 
d="M77 270h87l-56 197c-12 43 -25 66 -64 73l2 8h350l-3 -8c-60 -3 -89 -37 -71 -108l43 -162h99l-8 -23h-96l-17 -50h96l-8 -22h-96l-25 -74c-6 -16 -10 -32 -10 -43c0 -33 13 -45 44 -50l-3 -8h-327l3 8c49 8 74 25 97 92l26 75h-96l7 22h97l18 50h-97zM688 540
c-65 -9 -164 -81 -238 -159l-5 6c27 32 55 81 55 109c0 31 -25 41 -52 44l3 8h240z" />
    <glyph glyph-name="ordfeminine" unicode="&#xaa;" horiz-adv-x="297" 
d="M200 595l3 -6c-22 -25 -68 -131 -68 -159c0 -8 4 -12 9 -12c8 0 21 10 28 20l5 -4c-16 -36 -66 -75 -106 -75c-19 0 -41 14 -41 41c0 66 99 159 170 195zM292 430c0 -6 4 -7 7 -7c10 0 35 23 47 45l7 -4c-15 -43 -75 -105 -137 -105c-24 0 -35 16 -35 34c0 11 6 40 12 57
c19 58 49 148 49 148c-2 2 -5 2 -8 2c-5 0 -10 -1 -15 -3l-3 6c11 8 46 21 60 24c9 12 25 29 57 29c16 0 25 -7 25 -15c0 -5 0 -11 -2 -15c-7 -21 -42 -123 -58 -173c-3 -10 -6 -19 -6 -23z" />
    <glyph glyph-name="ordmasculine" unicode="&#xba;" horiz-adv-x="312" 
d="M256 640l-2 -8c-6 -1 -16 -6 -22 -15c-31 -41 -70 -159 -70 -226c0 -15 6 -22 9 -24l-3 -8c-85 5 -115 68 -115 105c0 99 86 168 203 176zM182 359l3 8c6 1 16 7 23 16c29 41 68 158 68 224c0 16 -5 22 -9 24l3 9c85 -5 116 -68 116 -105c0 -99 -87 -168 -204 -176z" />
    <glyph glyph-name="ae" unicode="&#xe6;" horiz-adv-x="653" 
d="M363 441l3 -6c-128 -65 -209 -188 -209 -304c0 -13 6 -28 21 -28c20 0 45 19 54 34l6 -4c-24 -52 -103 -141 -196 -141c-51 0 -70 35 -70 81c0 143 206 303 391 368zM545 481l-2 -7c-60 -27 -89 -216 -89 -309c0 -40 13 -68 46 -68c48 0 101 45 133 104l7 -3
c-29 -88 -121 -206 -259 -206c-112 0 -133 84 -133 144c0 149 109 323 297 345zM472 239l2 7c23 8 34 15 53 32c31 27 42 110 42 171c0 19 -7 23 -13 25l2 7c77 -1 126 -27 126 -80c0 -73 -66 -142 -212 -162z" />
    <glyph glyph-name="oslash" unicode="&#xf8;" horiz-adv-x="576" 
d="M355 481l-2 -7c-9 -1 -20 -8 -31 -21c-41 -52 -93 -191 -116 -306l175 265c1 7 1 14 1 21c0 26 -5 37 -11 40l2 7c20 -1 37 -4 54 -8l46 66l27 -17l-42 -60c79 -35 107 -110 107 -160c0 -169 -128 -295 -344 -309l2 7c7 1 23 7 34 22c43 53 96 204 116 324l-179 -270
c-1 -12 -1 -24 -1 -34c0 -27 6 -38 12 -41l-2 -7c-24 1 -45 5 -63 10l-42 -60l-26 17l38 55c-74 36 -100 109 -100 158c0 169 137 294 345 308z" />
    <glyph glyph-name="questiondown" unicode="&#xbf;" horiz-adv-x="388" 
d="M214 332c65 0 120 -41 120 -117c0 -62 -62 -118 -125 -169c-69 -55 -100 -86 -100 -119c0 -26 12 -39 35 -47l-2 -7c-126 17 -186 86 -186 148c0 43 28 89 92 143c60 50 101 79 101 106c0 17 -12 24 -22 24c-15 0 -25 -7 -33 -13l-4 4c17 27 73 47 124 47zM385 438
c0 -47 -35 -82 -87 -82c-51 0 -85 35 -85 82s34 82 85 82c52 0 87 -35 87 -82zM302 -62c0 -37 -30 -63 -67 -63s-68 26 -68 63s31 64 68 64s67 -27 67 -64z" />
    <glyph glyph-name="exclamdown" unicode="&#xa1;" horiz-adv-x="274" 
d="M278 434c0 -49 -37 -86 -89 -86c-51 0 -87 37 -87 86s36 85 87 85c52 0 89 -36 89 -85zM161 317h8c-3 -93 8 -293 -12 -368c-14 -48 -48 -76 -111 -76c-69 0 -81 40 -81 75c0 29 30 81 57 132c49 88 100 170 139 237z" />
    <glyph glyph-name="florin" unicode="&#x192;" horiz-adv-x="445" 
d="M22 -25c43 132 52 183 90 303h-59l4 8c15 6 78 61 78 61c39 103 118 199 292 203l-1 -6c-51 -12 -56 -70 -97 -197h85l-31 -69h-76c-27 -86 -46 -141 -74 -228c-36 -116 -157 -215 -304 -225l2 6c38 12 55 38 91 144zM390 465c0 37 30 68 68 68c37 0 69 -31 69 -68
c0 -38 -32 -69 -69 -69c-38 0 -68 31 -68 69zM-170 -96c0 34 29 61 63 61s62 -27 62 -61c0 -35 -28 -63 -62 -63s-63 28 -63 63z" />
    <glyph glyph-name="guillemotleft" unicode="&#xab;" horiz-adv-x="349" 
d="M150 82l-10 -3l-112 150v10l188 150l8 -9l-94 -147zM277 79l-113 150l1 10l187 150l9 -9l-94 -147l19 -151z" />
    <glyph glyph-name="guillemotright" unicode="&#xbb;" horiz-adv-x="343" 
d="M212 389l113 -150v-10l-188 -150l-8 8l93 148l-19 150zM66 385l10 4l112 -150v-10l-187 -150l-9 8l94 148z" />
    <glyph glyph-name="ellipsis" unicode="&#x2026;" horiz-adv-x="827" 
d="M-4 90c0 57 44 99 101 99c56 0 99 -42 99 -99s-43 -98 -99 -98c-57 0 -101 41 -101 98zM286 90c0 57 44 99 101 99c56 0 99 -42 99 -99s-43 -98 -99 -98c-57 0 -101 41 -101 98zM576 90c0 57 44 99 101 99c56 0 99 -42 99 -99s-43 -98 -99 -98c-57 0 -101 41 -101 98z
" />
    <glyph glyph-name="uni00A0" unicode="&#xa0;" horiz-adv-x="173" 
 />
    <glyph glyph-name="Agrave" unicode="&#xc0;" horiz-adv-x="609" 
d="M142 259h124l-21 174l120 204h82l59 -529c7 -64 29 -93 77 -100l-3 -8h-373l3 8c65 7 78 46 73 96l-12 111h-156zM140 0h-243l3 8c54 11 100 45 136 86c20 20 34 40 51 65l8 -3c-9 -17 -16 -52 -16 -74c0 -32 16 -70 64 -74zM509 681l-2 -7l-220 49l56 105z" />
    <glyph glyph-name="Atilde" unicode="&#xc3;" horiz-adv-x="609" 
d="M142 259h124l-21 174l120 204h82l59 -529c7 -64 29 -93 77 -100l-3 -8h-373l3 8c65 7 78 46 73 96l-12 111h-156zM140 0h-243l3 8c54 11 100 45 136 86c20 20 34 40 51 65l8 -3c-9 -17 -16 -52 -16 -74c0 -32 16 -70 64 -74zM601 832l9 -3c-10 -30 -35 -72 -69 -102
c-24 -25 -65 -39 -101 -39c-41 0 -88 5 -121 5c-25 0 -62 -8 -74 -32l-8 2c18 44 36 76 69 103c27 22 59 41 109 41c53 0 86 -5 124 -5c32 0 54 15 62 30z" />
    <glyph glyph-name="Otilde" unicode="&#xd5;" horiz-adv-x="710" 
d="M649 848l9 -3c-10 -30 -35 -72 -69 -102c-24 -25 -65 -39 -101 -39c-41 0 -88 5 -121 5c-25 0 -62 -8 -74 -32l-8 2c18 44 36 76 69 103c27 22 59 41 109 41c53 0 86 -5 124 -5c32 0 54 15 62 30zM272 1l-2 -8c-143 17 -241 140 -241 271c0 147 90 256 208 320
c59 32 140 54 203 55l-2 -7c-17 -4 -33 -13 -49 -33c-65 -78 -143 -371 -143 -526c0 -23 2 -58 26 -72zM294 -8l2 7c7 3 21 10 36 25c71 71 155 374 155 535c0 21 0 62 -26 72l2 7c144 -16 241 -140 241 -271c0 -149 -93 -260 -215 -322c-57 -31 -134 -52 -195 -53z" />
    <glyph glyph-name="OE" unicode="&#x152;" horiz-adv-x="960" 
d="M303 7l-2 -7c-147 3 -273 124 -273 264c0 227 244 354 451 366l-2 -7c-16 -1 -42 -10 -63 -32c-75 -78 -173 -297 -173 -496c0 -44 19 -85 62 -88zM513 630h229l-178 -630h-231zM850 0h-242l1 8c60 6 118 37 171 81c58 47 104 107 143 166h8zM910 396
c6 126 -17 190 -128 226l3 8h191l-58 -234h-8zM698 313l3 8c77 23 95 51 146 143h8l-84 -293h-8c-3 84 -10 120 -65 142z" />
    <glyph glyph-name="oe" unicode="&#x153;" horiz-adv-x="765" 
d="M657 482l-2 -7c-60 -27 -114 -253 -114 -327c0 -31 14 -51 40 -51c50 0 105 53 138 104l7 -3c-27 -84 -100 -206 -241 -206c-50 0 -90 29 -106 67h-3c-36 -29 -91 -62 -160 -67l2 7c19 4 38 23 51 53c20 30 46 98 66 169c22 79 39 162 39 212c0 26 -3 37 -9 40l2 7
c70 -13 101 -45 120 -85h3c41 45 112 80 167 87zM350 481l-2 -7c-11 -2 -22 -9 -33 -23c-53 -71 -124 -329 -124 -413c0 -26 6 -35 11 -38l-2 -7c-147 7 -192 115 -192 180c0 169 134 294 342 308zM567 239l2 7c23 7 45 20 63 40c35 40 49 104 49 165c0 17 -6 21 -10 23l2 7
c73 -3 123 -27 123 -81c0 -81 -83 -141 -229 -161z" />
    <glyph glyph-name="endash" unicode="&#x2013;" horiz-adv-x="454" 
d="M42 307h400l-10 -44h-400z" />
    <glyph glyph-name="emdash" unicode="&#x2014;" horiz-adv-x="716" 
d="M42 307h660l-10 -44h-660z" />
    <glyph glyph-name="quotedblleft" unicode="&#x201c;" horiz-adv-x="446" 
d="M255 439c0 -52 -45 -88 -98 -88c-59 0 -95 37 -95 102c0 90 121 169 247 185l2 -8c-69 -16 -158 -65 -165 -114c8 4 20 7 33 7c42 0 76 -35 76 -84zM471 439c0 -52 -45 -88 -98 -88c-59 0 -95 37 -95 102c0 90 121 169 247 185l2 -8c-69 -16 -157 -65 -165 -114
c8 4 20 7 33 7c42 0 76 -35 76 -84z" />
    <glyph glyph-name="quotedblright" unicode="&#x201d;" horiz-adv-x="446" 
d="M51 351l-3 8c50 11 156 57 165 114c-8 -4 -19 -7 -33 -7c-42 0 -76 34 -76 84c0 52 46 88 98 88c60 0 96 -37 96 -102c0 -90 -122 -169 -247 -185zM267 351l-3 8c50 11 156 57 165 114c-8 -4 -19 -7 -33 -7c-42 0 -76 34 -76 84c0 52 46 88 98 88c60 0 96 -37 96 -102
c0 -90 -122 -169 -247 -185z" />
    <glyph glyph-name="quoteleft" unicode="&#x2018;" horiz-adv-x="230" 
d="M255 439c0 -52 -45 -88 -98 -88c-59 0 -95 37 -95 102c0 90 121 169 247 185l2 -8c-69 -16 -159 -64 -165 -114c8 4 20 7 33 7c42 0 76 -35 76 -84z" />
    <glyph glyph-name="quoteright" unicode="&#x2019;" horiz-adv-x="222" 
d="M96 550c0 52 46 88 98 88c60 0 96 -37 96 -102c0 -90 -114 -169 -239 -185l-3 8c52 13 154 54 158 114c-7 -4 -20 -7 -34 -7c-41 0 -76 34 -76 84z" />
    <glyph glyph-name="divide" unicode="&#xf7;" horiz-adv-x="428" 
d="M153 96c0 34 26 62 62 62c33 0 62 -28 62 -62c0 -35 -29 -61 -62 -61c-36 0 -62 26 -62 61zM153 368c0 34 26 63 62 63c33 0 62 -29 62 -63c0 -35 -29 -61 -62 -61c-36 0 -62 26 -62 61zM29 255h373v-44h-373v44z" />
    <glyph glyph-name="ydieresis" unicode="&#xff;" 
d="M294 415c10 -76 9 -236 2 -364c-38 -34 -127 -112 -198 -159c11 197 13 374 3 478c-1 10 -8 17 -18 17c-20 0 -43 -29 -61 -62l-7 3c27 91 135 153 213 153c38 0 61 -20 66 -66zM-81 -156c44 0 95 14 135 31l4 -5c-23 -26 -97 -77 -136 -97c-22 -11 -44 -15 -55 -15
c-27 0 -68 15 -68 66s56 92 86 98l4 -4c-6 -6 -11 -21 -11 -32c0 -30 17 -42 41 -42zM430 373c0 24 -9 29 -22 29c-14 0 -41 -9 -59 -32l-5 5c25 57 107 106 163 106c42 0 48 -32 48 -60c0 -57 -69 -198 -203 -301l-4 6c67 68 82 196 82 247zM242 664c42 0 75 -33 75 -74
s-33 -75 -75 -75c-40 0 -73 34 -73 75s33 74 73 74zM444 664c42 0 74 -33 74 -74s-32 -75 -74 -75c-40 0 -73 34 -73 75s33 74 73 74z" />
    <glyph glyph-name="Ydieresis" unicode="&#x178;" horiz-adv-x="633" 
d="M152 104l50 176l-54 265c-9 43 -29 69 -73 77l2 8h367l-2 -8c-32 -2 -60 -17 -60 -44c0 -16 7 -50 11 -66l45 -211l-52 -182c-7 -23 -9 -42 -9 -58c0 -34 33 -51 58 -53l-3 -8h-380l3 8c51 7 81 36 97 96zM772 630l-2 -8c-34 -5 -76 -25 -117 -55
c-46 -31 -90 -73 -125 -114l-3 9c20 27 40 85 40 117c0 22 -18 40 -60 43l2 8h265zM332 827c43 0 76 -33 76 -76s-33 -78 -76 -78s-78 35 -78 78s35 76 78 76zM551 827c44 0 78 -33 78 -76s-34 -78 -78 -78c-41 0 -75 35 -75 78s34 76 75 76z" />
    <glyph glyph-name="fraction" unicode="&#x2044;" horiz-adv-x="162" 
d="M-162 -8l-22 18l535 625l22 -19z" />
    <glyph glyph-name="Euro" unicode="&#x20ac;" horiz-adv-x="605" 
d="M437 337l-9 -28h-139c-2 -6 -18 -59 -18 -65h101l-8 -26h-99c-9 -38 -13 -76 -13 -113c-1 -53 6 -98 48 -104l-2 -9c-129 7 -231 88 -231 211v15h-64l9 26h57c3 22 8 44 16 65h-57l9 28h61c65 122 218 197 363 214l-2 -9c-11 -3 -21 -8 -32 -15
c-42 -24 -92 -99 -128 -190h138zM581 333h-9c2 98 -35 196 -88 209l2 9c70 -4 119 -16 147 -29zM540 208h9l-55 -185c-48 -15 -98 -24 -171 -30l3 8c79 19 155 110 214 207z" />
    <glyph glyph-name="guilsinglleft" unicode="&#x2039;" horiz-adv-x="212" 
d="M150 82l-10 -3l-112 150v10l188 150l8 -9l-94 -147z" />
    <glyph glyph-name="guilsinglright" unicode="&#x203a;" horiz-adv-x="207" 
d="M76 389l112 -150v-10l-187 -150l-9 8l94 148l-20 150z" />
    <glyph glyph-name="daggerdbl" unicode="&#x2021;" horiz-adv-x="478" 
d="M299 708l-16 -207v-344l16 -207h-80l15 207v344l-15 207h80zM451 464l-134 18v36l134 17v-71zM317 176l134 17v-71l-134 18v36zM65 193l136 -17v-36l-136 -18v71zM201 482l-136 -18v71l136 -17v-36z" />
    <glyph glyph-name="periodcentered" unicode="&#xb7;" horiz-adv-x="277" 
d="M43 245c0 57 44 99 101 99c56 0 99 -42 99 -99s-43 -98 -99 -98c-57 0 -101 41 -101 98z" />
    <glyph glyph-name="quotesinglbase" unicode="&#x201a;" horiz-adv-x="222" 
d="M-46 78c0 52 46 88 98 88c60 0 96 -37 96 -102c0 -90 -122 -169 -247 -185l-3 8c66 17 151 59 166 114c-9 -4 -20 -7 -34 -7c-41 0 -76 35 -76 84z" />
    <glyph glyph-name="quotedblbase" unicode="&#x201e;" horiz-adv-x="438" 
d="M-46 78c0 52 46 88 98 88c60 0 96 -37 96 -102c0 -90 -122 -169 -247 -185l-2 8c58 15 149 56 165 114c-9 -4 -20 -7 -34 -7c-41 0 -76 35 -76 84zM170 78c0 52 46 88 98 88c60 0 96 -37 96 -102c0 -90 -122 -169 -247 -185l-2 8c58 15 149 56 165 114
c-9 -4 -20 -7 -34 -7c-41 0 -76 35 -76 84z" />
    <glyph glyph-name="perthousand" unicode="&#x2030;" horiz-adv-x="970" 
d="M51 411c0 116 106 181 195 189l-2 -8c-5 -1 -10 -4 -16 -10c-16 -17 -29 -51 -42 -90c-13 -42 -36 -123 -36 -153c0 -18 2 -24 8 -28l-3 -9c-61 1 -104 56 -104 109zM365 491c0 -116 -106 -182 -195 -190l3 9c5 1 10 4 16 10c17 18 29 54 42 94c13 41 35 120 35 148
c0 17 -1 25 -8 29l3 9c61 -1 104 -56 104 -109zM589 583l-507 -591l-17 16l508 592zM288 101c0 117 106 182 195 190l-2 -9c-5 -1 -10 -4 -16 -10c-16 -17 -29 -51 -42 -90c-13 -42 -36 -122 -36 -152c0 -18 2 -24 8 -29l-3 -9c-61 2 -104 56 -104 109zM602 181
c0 -116 -106 -181 -195 -189l3 8c5 2 10 5 16 11c17 17 29 53 42 93c13 42 35 120 35 149c0 17 -1 25 -8 28l3 10c61 -2 104 -56 104 -110zM623 101c0 117 106 182 194 190l-2 -9c-5 -1 -10 -4 -15 -10c-17 -17 -29 -51 -42 -90c-14 -42 -36 -122 -36 -152
c0 -18 1 -24 8 -29l-3 -9c-61 2 -104 56 -104 109zM937 181c0 -116 -107 -181 -195 -189l2 8c5 2 11 5 17 11c16 17 29 53 42 93c13 42 35 120 35 149c0 17 -2 25 -8 28l3 10c60 -2 104 -56 104 -110z" />
    <glyph glyph-name="Acircumflex" unicode="&#xc2;" horiz-adv-x="609" 
d="M142 259h124l-21 174l120 204h82l59 -529c7 -64 29 -93 77 -100l-3 -8h-373l3 8c65 7 78 46 73 96l-12 111h-156zM140 0h-243l3 8c54 11 100 45 136 86c20 20 34 40 51 65l8 -3c-9 -17 -16 -52 -16 -74c0 -32 16 -70 64 -74zM272 671l-3 5l177 146h4l91 -146l-3 -4
l-108 54h-2z" />
    <glyph glyph-name="Ecircumflex" unicode="&#xca;" horiz-adv-x="657" 
d="M314 671l-3 5l177 146h4l91 -146l-3 -4l-108 54h-2zM419 630l-178 -630h-301l3 8c50 7 80 36 97 96l116 407c7 23 10 42 10 58c0 34 -34 51 -58 53l3 8h308zM606 396c6 126 -28 190 -147 226l2 8h212l-59 -234h-8zM284 0l2 8c60 6 124 37 181 80c62 46 110 101 152 167h9
l-81 -255h-263zM378 321c85 23 115 58 165 143h8l-83 -293h-8c-3 84 -15 120 -85 142z" />
    <glyph glyph-name="Aacute" unicode="&#xc1;" horiz-adv-x="609" 
d="M142 259h124l-21 174l120 204h82l59 -529c7 -64 29 -93 77 -100l-3 -8h-373l3 8c65 7 78 46 73 96l-12 111h-156zM140 0h-243l3 8c54 11 100 45 136 86c20 20 34 40 51 65l8 -3c-9 -17 -16 -52 -16 -74c0 -32 16 -70 64 -74zM544 724l-232 -50l-3 7l184 158z" />
    <glyph glyph-name="Edieresis" unicode="&#xcb;" horiz-adv-x="657" 
d="M419 630l-178 -630h-301l3 8c50 7 80 36 97 96l116 407c7 23 10 42 10 58c0 34 -34 51 -58 53l3 8h308zM606 396c6 126 -28 190 -147 226l2 8h212l-59 -234h-8zM284 0l2 8c60 6 124 37 181 80c62 46 110 101 152 167h9l-81 -255h-263zM378 321c85 23 115 58 165 143h8
l-83 -293h-8c-3 84 -15 120 -85 142zM336 827c43 0 76 -33 76 -76s-33 -78 -76 -78s-78 35 -78 78s35 76 78 76zM555 827c44 0 78 -33 78 -76s-34 -78 -78 -78c-41 0 -75 35 -75 78s34 76 75 76z" />
    <glyph glyph-name="Egrave" unicode="&#xc8;" horiz-adv-x="657" 
d="M530 681l-2 -7l-220 49l56 105zM419 630l-178 -630h-301l3 8c50 7 80 36 97 96l116 407c7 23 10 42 10 58c0 34 -34 51 -58 53l3 8h308zM606 396c6 126 -28 190 -147 226l2 8h212l-59 -234h-8zM284 0l2 8c60 6 124 37 181 80c62 46 110 101 152 167h9l-81 -255h-263z
M378 321c85 23 115 58 165 143h8l-83 -293h-8c-3 84 -15 120 -85 142z" />
    <glyph glyph-name="Iacute" unicode="&#xcd;" horiz-adv-x="400" 
d="M40 104l116 407c7 23 10 42 10 58c0 34 -34 51 -58 53l3 8h379l-3 -8c-51 -7 -79 -36 -97 -96l-116 -407c-7 -23 -9 -42 -9 -58c0 -34 33 -51 57 -53l-3 -8h-379l3 8c50 7 80 36 97 96zM459 724l-232 -50l-3 7l184 158z" />
    <glyph glyph-name="Icircumflex" unicode="&#xce;" horiz-adv-x="400" 
d="M40 104l116 407c7 23 10 42 10 58c0 34 -34 51 -58 53l3 8h379l-3 -8c-51 -7 -79 -36 -97 -96l-116 -407c-7 -23 -9 -42 -9 -58c0 -34 33 -51 57 -53l-3 -8h-379l3 8c50 7 80 36 97 96zM176 671l-3 5l177 146h4l91 -146l-3 -4l-108 54h-2z" />
    <glyph glyph-name="Idieresis" unicode="&#xcf;" horiz-adv-x="400" 
d="M40 104l116 407c7 23 10 42 10 58c0 34 -34 51 -58 53l3 8h379l-3 -8c-51 -7 -79 -36 -97 -96l-116 -407c-7 -23 -9 -42 -9 -58c0 -34 33 -51 57 -53l-3 -8h-379l3 8c50 7 80 36 97 96zM213 827c43 0 76 -33 76 -76s-33 -78 -76 -78s-78 35 -78 78s35 76 78 76zM432 827
c44 0 78 -33 78 -76s-34 -78 -78 -78c-41 0 -75 35 -75 78s34 76 75 76z" />
    <glyph glyph-name="Igrave" unicode="&#xcc;" horiz-adv-x="400" 
d="M40 104l116 407c7 23 10 42 10 58c0 34 -34 51 -58 53l3 8h379l-3 -8c-51 -7 -79 -36 -97 -96l-116 -407c-7 -23 -9 -42 -9 -58c0 -34 33 -51 57 -53l-3 -8h-379l3 8c50 7 80 36 97 96zM419 681l-2 -7l-220 49l56 105z" />
    <glyph glyph-name="Oacute" unicode="&#xd3;" horiz-adv-x="710" 
d="M613 724l-232 -50l-3 7l184 158zM272 1l-2 -8c-143 17 -241 140 -241 271c0 147 90 256 208 320c59 32 140 54 203 55l-2 -7c-17 -4 -33 -13 -49 -33c-65 -78 -143 -371 -143 -526c0 -23 2 -58 26 -72zM294 -8l2 7c7 3 21 10 36 25c71 71 155 374 155 535
c0 21 0 62 -26 72l2 7c144 -16 241 -140 241 -271c0 -149 -93 -260 -215 -322c-57 -31 -134 -52 -195 -53z" />
    <glyph glyph-name="Ocircumflex" unicode="&#xd4;" horiz-adv-x="710" 
d="M314 671l-3 5l177 146h4l91 -146l-3 -4l-108 54h-2zM272 1l-2 -8c-143 17 -241 140 -241 271c0 147 90 256 208 320c59 32 140 54 203 55l-2 -7c-17 -4 -33 -13 -49 -33c-65 -78 -143 -371 -143 -526c0 -23 2 -58 26 -72zM294 -8l2 7c7 3 21 10 36 25
c71 71 155 374 155 535c0 21 0 62 -26 72l2 7c144 -16 241 -140 241 -271c0 -149 -93 -260 -215 -322c-57 -31 -134 -52 -195 -53z" />
    <glyph glyph-name="Ograve" unicode="&#xd2;" horiz-adv-x="710" 
d="M540 681l-2 -7l-220 49l56 105zM272 1l-2 -8c-143 17 -241 140 -241 271c0 147 90 256 208 320c59 32 140 54 203 55l-2 -7c-17 -4 -33 -13 -49 -33c-65 -78 -143 -371 -143 -526c0 -23 2 -58 26 -72zM294 -8l2 7c7 3 21 10 36 25c71 71 155 374 155 535
c0 21 0 62 -26 72l2 7c144 -16 241 -140 241 -271c0 -149 -93 -260 -215 -322c-57 -31 -134 -52 -195 -53z" />
    <glyph glyph-name="Uacute" unicode="&#xda;" horiz-adv-x="653" 
d="M652 724l-232 -50l-3 7l184 158zM515 630h278l-3 -8c-30 -8 -65 -20 -98 -47c-36 -28 -85 -111 -95 -148h-11c11 42 14 74 14 103c0 51 -21 88 -88 92zM369 526l-86 -306c-24 -78 -13 -155 82 -165c36 -5 79 3 120 19l6 -8c-29 -33 -96 -74 -194 -74
c-66 0 -124 6 -171 33c-87 50 -91 141 -62 242l71 244c7 23 9 42 9 58c0 34 -34 51 -58 53l3 8h380l-3 -8c-52 -7 -81 -36 -97 -96z" />
    <glyph glyph-name="Ucircumflex" unicode="&#xdb;" horiz-adv-x="653" 
d="M359 671l-3 5l177 146h4l91 -146l-3 -4l-108 54h-2zM515 630h278l-3 -8c-30 -8 -65 -20 -98 -47c-36 -28 -85 -111 -95 -148h-11c11 42 14 74 14 103c0 51 -21 88 -88 92zM369 526l-86 -306c-24 -78 -13 -155 82 -165c36 -5 79 3 120 19l6 -8c-29 -33 -96 -74 -194 -74
c-66 0 -124 6 -171 33c-87 50 -91 141 -62 242l71 244c7 23 9 42 9 58c0 34 -34 51 -58 53l3 8h380l-3 -8c-52 -7 -81 -36 -97 -96z" />
    <glyph glyph-name="Ugrave" unicode="&#xd9;" horiz-adv-x="653" 
d="M588 681l-2 -7l-220 49l56 105zM515 630h278l-3 -8c-30 -8 -65 -20 -98 -47c-36 -28 -85 -111 -95 -148h-11c11 42 14 74 14 103c0 51 -21 88 -88 92zM369 526l-86 -306c-24 -78 -13 -155 82 -165c36 -5 79 3 120 19l6 -8c-29 -33 -96 -74 -194 -74c-66 0 -124 6 -171 33
c-87 50 -91 141 -62 242l71 244c7 23 9 42 9 58c0 34 -34 51 -58 53l3 8h380l-3 -8c-52 -7 -81 -36 -97 -96z" />
    <glyph glyph-name="dotlessi" unicode="&#x131;" horiz-adv-x="332" 
d="M274 246c-24 -54 -4 -12 -69 -140l3 -2c38 18 72 46 104 75l6 -4c-55 -86 -168 -183 -258 -183c-40 0 -65 26 -65 59c0 14 8 42 23 77l60 127c18 38 53 110 53 130c0 10 -5 15 -13 15c-10 0 -24 -13 -34 -25c-13 -13 -36 -50 -48 -76l-7 3c26 93 101 179 207 179
c57 0 88 -36 88 -80s-25 -97 -50 -155z" />
    <glyph glyph-name="circumflex" unicode="&#x2c6;" horiz-adv-x="301" 
d="M95 515l182 185h4l72 -185l-8 -4l-87 79h-4l-154 -79z" />
    <glyph glyph-name="tilde" unicode="&#x2dc;" horiz-adv-x="356" 
d="M451 691l9 -3c-10 -26 -35 -76 -66 -109c-25 -27 -68 -40 -106 -40c-37 0 -97 6 -130 6c-25 0 -50 -8 -65 -34l-7 3c16 42 38 74 72 101c27 23 57 43 106 43c54 0 84 -5 118 -5c31 0 56 14 69 38z" />
    <glyph glyph-name="macron" unicode="&#xaf;" horiz-adv-x="371" 
d="M391 555h-271l18 62h271z" />
    <glyph glyph-name="breve" unicode="&#x2d8;" horiz-adv-x="310" 
d="M240 611c68 0 111 34 128 74h11c-12 -75 -47 -169 -147 -169c-68 0 -98 42 -98 93c0 26 8 51 20 76h11c-6 -51 28 -74 75 -74z" />
    <glyph glyph-name="dotaccent" unicode="&#x2d9;" horiz-adv-x="295" 
d="M143 600c0 50 39 82 89 82c49 0 89 -32 89 -82s-40 -82 -89 -82c-50 0 -89 32 -89 82z" />
    <glyph glyph-name="ring" unicode="&#x2da;" horiz-adv-x="260" 
d="M128 596c0 48 35 82 77 85v-22c-28 -2 -52 -21 -52 -63s24 -61 52 -63v-22c-42 3 -77 36 -77 85zM304 596c0 -47 -35 -82 -77 -85v22c27 2 52 21 52 63s-25 61 -52 63v22c42 -3 77 -35 77 -85z" />
    <glyph glyph-name="cedilla" unicode="&#xb8;" horiz-adv-x="155" 
d="M-52 -216l3 -7c-17 -6 -45 -14 -69 -14c-34 0 -46 16 -47 33c0 33 37 46 68 56c3 -39 24 -67 45 -68zM-35 -218l-3 7c7 4 10 17 10 26c0 14 -9 26 -18 39c-8 13 -16 26 -16 41c0 45 76 76 114 90l3 -6c-7 -5 -14 -18 -14 -29c0 -13 9 -27 17 -42s17 -30 17 -44
c0 -20 -18 -40 -37 -52s-45 -23 -73 -30z" />
    <glyph glyph-name="hungarumlaut" unicode="&#x2dd;" horiz-adv-x="303" 
d="M254 653l-168 -147l-8 5l93 202zM390 653l-168 -147l-9 5l94 202z" />
    <glyph glyph-name="ogonek" unicode="&#x2db;" horiz-adv-x="157" 
d="M131 -132l6 -7c-13 -23 -59 -95 -146 -95c-37 0 -78 22 -78 71c0 63 101 127 157 143h12c-15 -14 -53 -45 -53 -88c0 -27 15 -42 45 -42c27 0 46 9 57 18z" />
    <glyph glyph-name="caron" unicode="&#x2c7;" horiz-adv-x="254" 
d="M356 695l-184 -185h-4l-75 185l8 4l90 -79h4l156 79z" />
    <glyph glyph-name="space_uni0326" horiz-adv-x="225" 
d="M-27 -116c0 54 43 76 83 76c45 0 86 -28 86 -85c0 -78 -103 -125 -192 -137l-3 7c45 13 104 35 123 78c-7 -4 -19 -6 -30 -6c-32 0 -67 22 -67 67z" />
    <glyph glyph-name="caron.alt" horiz-adv-x="237" 
d="M282 691l-162 -194h-9l58 194h113z" />
    <glyph glyph-name="space_uni0326.alt" horiz-adv-x="318" 
d="M240 589c0 -54 -43 -79 -82 -79c-45 0 -80 29 -80 86c0 75 89 124 191 136l1 -7c-56 -12 -113 -41 -129 -80c8 4 20 6 32 6c30 0 67 -17 67 -62z" />
    <glyph glyph-name="grave.uc" horiz-adv-x="305" 
d="M353 661l-2 -7l-220 49l56 105z" />
    <glyph glyph-name="dieresis.uc" horiz-adv-x="501" 
d="M235 807c43 0 76 -33 76 -76s-33 -78 -76 -78s-78 35 -78 78s35 76 78 76zM454 807c44 0 78 -33 78 -76s-34 -78 -78 -78c-41 0 -75 35 -75 78s34 76 75 76z" />
    <glyph glyph-name="macron.uc" horiz-adv-x="453" 
d="M473 674h-289l18 62h289z" />
    <glyph glyph-name="acute.uc" horiz-adv-x="266" 
d="M351 704l-232 -50l-3 7l184 158z" />
    <glyph glyph-name="circumflex.uc" horiz-adv-x="362" 
d="M139 651l-3 5l177 146h4l91 -146l-3 -4l-108 54h-2z" />
    <glyph glyph-name="caron.uc" horiz-adv-x="323" 
d="M398 802l3 -4l-177 -147h-4l-92 147l4 4l107 -54h2z" />
    <glyph glyph-name="breve.uc" horiz-adv-x="324" 
d="M269 759c65 0 115 21 131 61h11c-13 -81 -45 -167 -152 -167c-69 0 -102 44 -102 96c0 24 6 48 19 71h10c-7 -48 38 -61 83 -61z" />
    <glyph glyph-name="dotaccent.uc" horiz-adv-x="334" 
d="M178 743c0 49 38 79 86 79s87 -30 87 -79s-39 -78 -87 -78s-86 29 -86 78z" />
    <glyph glyph-name="ring.uc" horiz-adv-x="303" 
d="M156 741c0 47 39 77 79 80v-21c-22 -2 -54 -17 -54 -59s32 -59 54 -60v-22c-40 3 -79 32 -79 82zM336 741c0 -48 -40 -79 -79 -82v22c22 1 54 18 54 60s-33 57 -54 59v21c39 -3 79 -31 79 -80z" />
    <glyph glyph-name="tilde.uc" horiz-adv-x="374" 
d="M524 828l9 -3c-10 -30 -35 -72 -69 -102c-24 -25 -65 -39 -101 -39c-41 0 -88 5 -121 5c-25 0 -62 -8 -74 -32l-8 2c18 44 36 76 69 103c27 22 59 41 109 41c53 0 86 -5 124 -5c32 0 54 15 62 30z" />
    <glyph glyph-name="hungarumlaut.uc" horiz-adv-x="282" 
d="M264 780l-149 -120l-8 5l74 174zM399 780l-148 -120l-8 5l74 174z" />
    <glyph glyph-name="cedilla.uc" horiz-adv-x="330" 
d="M27 -227l2 -7c-18 -9 -54 -16 -73 -16c-34 0 -52 17 -52 37c0 24 22 48 56 60c13 -48 40 -76 67 -74zM41 -229l-3 8c4 3 6 8 6 12c0 9 -9 19 -25 44c-11 17 -22 37 -22 50c0 33 55 67 114 95l4 -6c-7 -7 -11 -16 -11 -25c0 -13 12 -34 20 -48c14 -24 22 -40 22 -50
c0 -9 -2 -19 -15 -29c-14 -14 -53 -40 -90 -51z" />
    <glyph glyph-name="Dcroat" unicode="&#x110;" horiz-adv-x="753" 
d="M327 305l-86 -305h-301l3 8c50 7 80 36 97 96l58 201h-80l9 29h79l50 177c7 23 10 42 10 58c0 34 -34 51 -58 53l3 8h308l-84 -296h106l-9 -29h-105zM747 372c0 -149 -77 -255 -198 -314c-79 -38 -180 -55 -270 -58l2 8c128 27 247 243 247 459c0 97 -19 143 -77 155l2 8
c199 -19 294 -107 294 -258z" />
    <glyph glyph-name="Eng" unicode="&#x14a;" horiz-adv-x="701" 
d="M578 140l-11 -35c-57 -184 -200 -265 -440 -276v10c98 22 167 108 203 229l-41 112c-3 6 -116 328 -121 333c-23 59 -69 102 -128 109l3 8h336zM135 215l9 -1c-12 -36 -22 -71 -22 -110c0 -44 25 -85 85 -96l-3 -8h-292l3 8c100 16 162 105 220 207zM644 415l-9 1
c11 34 22 81 22 120c0 43 -34 78 -93 86l3 8h296l-3 -8c-80 -15 -149 -72 -216 -207z" />
    <glyph glyph-name="IJ" unicode="&#x132;" horiz-adv-x="777" 
d="M781 526l-121 -421c-60 -211 -217 -258 -434 -276v10c100 23 158 105 194 227l127 445c7 23 9 42 9 58c0 34 -31 51 -54 53l3 8h376l-3 -8c-52 -7 -80 -36 -97 -96zM40 104l116 407c7 23 10 42 10 58c0 34 -34 51 -58 53l3 8h376l-3 -8c-51 -7 -76 -36 -94 -96l-116 -407
c-7 -23 -9 -42 -9 -58c0 -34 33 -51 57 -53l-3 -8h-379l3 8c50 7 80 36 97 96z" />
    <glyph glyph-name="uni0237" unicode="&#x237;" horiz-adv-x="300" 
d="M183 1c-57 -129 -166 -200 -324 -209l2 6c48 19 71 56 109 152c28 72 90 256 110 315c20 61 32 100 32 120c0 10 -4 15 -13 15s-23 -10 -33 -25c-11 -14 -30 -46 -43 -76l-7 3c20 93 96 179 188 179c67 0 99 -42 99 -86c0 -45 -12 -90 -32 -149
c-18 -54 -49 -153 -88 -245zM-259 -119c0 41 35 76 76 76s76 -35 76 -76s-35 -76 -76 -76s-76 35 -76 76z" />
    <glyph glyph-name="dcroat" unicode="&#x111;" horiz-adv-x="581" 
d="M667 531h-67l-116 -377c-5 -17 -10 -33 -10 -41c0 -11 5 -12 10 -12c20 0 61 48 83 80l6 -3c-24 -76 -135 -186 -245 -186c-42 0 -61 28 -61 64c0 17 11 65 20 92l76 252c5 15 7 33 7 41c0 15 -4 27 -12 32l2 7c9 0 20 -4 25 -8l18 59h-108l9 29h108l10 35
c4 14 8 27 8 32c0 8 -2 14 -7 20l-28 25l1 4l259 38l1 -1l-47 -153h68zM344 481l-2 -7c-46 -25 -145 -195 -145 -355c0 -12 5 -19 14 -19c19 0 34 16 44 30l6 -4c-27 -59 -110 -134 -182 -134c-44 0 -83 25 -83 97c0 80 61 221 150 306c62 57 140 85 198 86z" />
    <glyph glyph-name="eng" unicode="&#x14b;" horiz-adv-x="646" 
d="M98 261c16 34 50 104 50 124c0 10 -4 15 -13 15c-10 0 -23 -11 -34 -23c-12 -13 -34 -49 -48 -78l-7 3c26 95 88 179 203 179c54 0 83 -34 83 -79c0 -56 -20 -100 -44 -156l-82 -189c-15 -34 -52 -65 -117 -65c-73 0 -102 24 -85 61c13 30 82 183 94 208zM234 -64
c40 83 96 217 140 318c16 36 43 90 43 99c0 6 -4 8 -9 8c-12 0 -38 -23 -64 -57l-6 5c64 107 154 172 232 172c44 0 64 -23 64 -63c0 -14 -15 -61 -35 -107c-70 -148 -92 -197 -156 -321c-63 -125 -170 -204 -328 -213l2 6c48 19 73 57 117 153zM-2 -133c0 41 34 76 75 76
s76 -35 76 -76s-35 -76 -76 -76s-75 35 -75 76z" />
    <glyph glyph-name="ij" unicode="&#x133;" horiz-adv-x="629" 
d="M316 175c-55 -86 -168 -183 -258 -183c-39 0 -64 26 -64 59c0 14 7 42 23 77c17 39 42 92 60 127c18 38 52 110 52 130c0 10 -4 15 -13 15c-10 0 -23 -13 -34 -25c-12 -13 -35 -50 -48 -76l-7 3c27 93 101 179 208 179c56 0 88 -36 88 -80s-26 -97 -51 -155
c-23 -54 -4 -12 -69 -140l3 -2c38 18 72 46 104 75zM214 607c0 51 42 92 93 92s92 -41 92 -92s-41 -93 -92 -93s-93 42 -93 93zM509 607c0 51 42 92 93 92c52 0 93 -41 93 -92s-41 -93 -93 -93c-51 0 -93 42 -93 93zM408 265c21 61 33 100 33 120c0 10 -5 15 -13 15
c-9 0 -23 -10 -34 -25c-10 -14 -29 -46 -42 -76l-7 3c19 93 95 179 187 179c68 0 99 -42 99 -86c0 -45 -12 -90 -31 -149c-18 -53 -53 -162 -93 -256c-56 -128 -167 -204 -325 -213l2 6c48 19 71 56 109 153c28 73 96 270 115 329zM65 -133c0 41 34 76 75 76
c42 0 76 -35 76 -76s-34 -76 -76 -76c-41 0 -75 35 -75 76z" />
    <glyph glyph-name="Abreve" unicode="&#x102;" horiz-adv-x="609" 
d="M142 259h124l-21 174l120 204h82l59 -529c7 -64 29 -93 77 -100l-3 -8h-373l3 8c65 7 78 46 73 96l-12 111h-156zM140 0h-243l3 8c54 11 100 45 136 86c20 20 34 40 51 65l8 -3c-9 -17 -16 -52 -16 -74c0 -32 16 -70 64 -74zM420 779c65 0 115 21 131 61h11
c-13 -81 -45 -167 -152 -167c-69 0 -102 44 -102 96c0 24 6 48 19 71h10c-7 -48 38 -61 83 -61z" />
    <glyph glyph-name="Amacron" unicode="&#x100;" horiz-adv-x="609" 
d="M142 259h124l-21 174l120 204h82l59 -529c7 -64 29 -93 77 -100l-3 -8h-373l3 8c65 7 78 46 73 96l-12 111h-156zM140 0h-243l3 8c54 11 100 45 136 86c20 20 34 40 51 65l8 -3c-9 -17 -16 -52 -16 -74c0 -32 16 -70 64 -74zM554 694h-289l18 62h289z" />
    <glyph glyph-name="Aogonek" unicode="&#x104;" horiz-adv-x="609" 
d="M142 259h124l-21 174l120 204h82l59 -529c7 -64 29 -93 77 -100l-3 -8h-284l-25 215h-156zM140 0h-243l3 8c54 11 100 45 136 86c20 20 34 40 51 65l8 -3c-9 -17 -16 -52 -16 -74c0 -32 16 -70 64 -74zM357 -132l6 -7c-14 -23 -60 -95 -146 -95c-37 0 -78 22 -78 71
c0 63 100 127 156 143h13c-15 -14 -53 -45 -53 -88c0 -27 15 -42 45 -42c26 0 45 9 57 18z" />
    <glyph glyph-name="Aringacute" unicode="&#x1fa;" horiz-adv-x="609" 
d="M142 259h124l-21 174l120 204h82l59 -529c7 -64 29 -93 77 -100l-3 -8h-373l3 8c65 7 78 46 73 96l-12 111h-156zM140 0h-243l3 8c54 11 100 45 136 86c20 20 34 40 51 65l8 -3c-9 -17 -16 -52 -16 -74c0 -32 16 -70 64 -74zM547 899l-232 -50l-3 7l184 158zM320 756
c0 47 39 77 79 80v-21c-22 -2 -54 -17 -54 -59s32 -59 54 -60v-22c-40 3 -79 32 -79 82zM500 756c0 -48 -40 -79 -79 -82v22c22 1 54 18 54 60s-33 57 -54 59v21c39 -3 79 -31 79 -80z" />
    <glyph glyph-name="AEacute" unicode="&#x1fc;" horiz-adv-x="895" 
d="M834 724l-232 -50l-3 7l184 158zM130 0h-251l3 8c40 8 80 29 114 54c38 29 71 64 93 98l8 -4c-10 -17 -27 -50 -27 -72c0 -32 14 -72 63 -76zM669 630l-178 -630h-301l3 8c50 7 80 36 97 96l53 188h-170l37 45h146l50 174c7 23 10 42 10 58c0 34 -34 51 -58 53l3 8h308z
M534 0l2 8c59 6 120 37 174 81c60 47 109 107 147 166h8l-81 -255h-250zM852 396h-8c6 126 -16 190 -136 226l3 8h200zM628 321c85 23 103 58 153 143h8l-84 -293h-8c-3 84 -2 120 -72 142z" />
    <glyph glyph-name="Cacute" unicode="&#x106;" horiz-adv-x="648" 
d="M618 398h-9c-4 116 -47 204 -129 231l3 8c68 -1 144 -17 191 -35zM302 0l-3 -7c-158 9 -272 140 -272 271c0 130 73 227 176 295c65 45 153 77 252 80l-3 -8c-29 -3 -58 -24 -83 -62c-50 -70 -120 -333 -120 -481c0 -49 20 -80 53 -88zM337 0c112 37 199 145 255 239h9
l-59 -219c-47 -15 -107 -25 -208 -28zM615 724l-232 -50l-3 7l184 158z" />
    <glyph glyph-name="Ccaron" unicode="&#x10c;" horiz-adv-x="648" 
d="M646 822l3 -4l-177 -147h-4l-92 147l4 4l107 -54h2zM618 398h-9c-4 116 -47 204 -129 231l3 8c68 -1 144 -17 191 -35zM302 0l-3 -7c-158 9 -272 140 -272 271c0 130 73 227 176 295c65 45 153 77 252 80l-3 -8c-29 -3 -58 -24 -83 -62c-50 -70 -120 -333 -120 -481
c0 -49 20 -80 53 -88zM337 0c112 37 199 145 255 239h9l-59 -219c-47 -15 -107 -25 -208 -28z" />
    <glyph glyph-name="Ccircumflex" unicode="&#x108;" horiz-adv-x="648" 
d="M347 671l-3 5l177 146h4l91 -146l-3 -4l-108 54h-2zM618 398h-9c-4 116 -47 204 -129 231l3 8c68 -1 144 -17 191 -35zM302 0l-3 -7c-158 9 -272 140 -272 271c0 130 73 227 176 295c65 45 153 77 252 80l-3 -8c-29 -3 -58 -24 -83 -62c-50 -70 -120 -333 -120 -481
c0 -49 20 -80 53 -88zM337 0c112 37 199 145 255 239h9l-59 -219c-47 -15 -107 -25 -208 -28z" />
    <glyph glyph-name="Cdotaccent" unicode="&#x10a;" horiz-adv-x="648" 
d="M618 398h-9c-4 116 -47 204 -129 231l3 8c68 -1 144 -17 191 -35zM302 0l-3 -7c-158 9 -272 140 -272 271c0 130 73 227 176 295c65 45 153 77 252 80l-3 -8c-29 -3 -58 -24 -83 -62c-50 -70 -120 -333 -120 -481c0 -49 20 -80 53 -88zM337 0c112 37 199 145 255 239h9
l-59 -219c-47 -15 -107 -25 -208 -28zM404 763c0 49 38 79 86 79s87 -30 87 -79s-39 -78 -87 -78s-86 29 -86 78z" />
    <glyph glyph-name="Dcaron" unicode="&#x10e;" horiz-adv-x="753" 
d="M615 822l3 -4l-177 -147h-4l-92 147l4 4l107 -54h2zM747 372c0 -149 -77 -255 -198 -314c-79 -38 -180 -55 -270 -58l2 8c128 27 247 243 247 459c0 97 -19 143 -77 155l2 8c199 -19 294 -107 294 -258zM166 569c0 34 -34 51 -58 53l3 8h308l-178 -630h-301l3 8
c50 7 80 36 97 96l116 407c7 23 10 42 10 58z" />
    <glyph glyph-name="Ebreve" unicode="&#x114;" horiz-adv-x="657" 
d="M419 630l-178 -630h-301l3 8c50 7 80 36 97 96l116 407c7 23 10 42 10 58c0 34 -34 51 -58 53l3 8h308zM606 396c6 126 -28 190 -147 226l2 8h212l-59 -234h-8zM284 0l2 8c60 6 124 37 181 80c62 46 110 101 152 167h9l-81 -255h-263zM378 321c85 23 115 58 165 143h8
l-83 -293h-8c-3 84 -15 120 -85 142zM442 779c65 0 115 21 131 61h11c-13 -81 -45 -167 -152 -167c-69 0 -102 44 -102 96c0 24 6 48 19 71h10c-7 -48 38 -61 83 -61z" />
    <glyph glyph-name="Ecaron" unicode="&#x11a;" horiz-adv-x="657" 
d="M615 822l3 -4l-177 -147h-4l-92 147l4 4l107 -54h2zM419 630l-178 -630h-301l3 8c50 7 80 36 97 96l116 407c7 23 10 42 10 58c0 34 -34 51 -58 53l3 8h308zM606 396c6 126 -28 190 -147 226l2 8h212l-59 -234h-8zM284 0l2 8c60 6 124 37 181 80c62 46 110 101 152 167h9
l-81 -255h-263zM378 321c85 23 115 58 165 143h8l-83 -293h-8c-3 84 -15 120 -85 142z" />
    <glyph glyph-name="Edotaccent" unicode="&#x116;" horiz-adv-x="657" 
d="M369 763c0 49 38 79 86 79s87 -30 87 -79s-39 -78 -87 -78s-86 29 -86 78zM419 630l-178 -630h-301l3 8c50 7 80 36 97 96l116 407c7 23 10 42 10 58c0 34 -34 51 -58 53l3 8h308zM606 396c6 126 -28 190 -147 226l2 8h212l-59 -234h-8zM284 0l2 8c60 6 124 37 181 80
c62 46 110 101 152 167h9l-81 -255h-263zM378 321c85 23 115 58 165 143h8l-83 -293h-8c-3 84 -15 120 -85 142z" />
    <glyph glyph-name="Emacron" unicode="&#x112;" horiz-adv-x="657" 
d="M419 630l-178 -630h-301l3 8c50 7 80 36 97 96l116 407c7 23 10 42 10 58c0 34 -34 51 -58 53l3 8h308zM606 396c6 126 -28 190 -147 226l2 8h212l-59 -234h-8zM284 0l2 8c60 6 124 37 181 80c62 46 110 101 152 167h9l-81 -255h-263zM378 321c85 23 115 58 165 143h8
l-83 -293h-8c-3 84 -15 120 -85 142zM576 694h-289l18 62h289z" />
    <glyph glyph-name="Eogonek" unicode="&#x118;" horiz-adv-x="657" 
d="M463 -132l6 -7c-13 -23 -59 -95 -146 -95c-37 0 -78 22 -78 71c0 63 101 127 157 143h12c-15 -14 -53 -45 -53 -88c0 -27 15 -42 45 -42c27 0 46 9 57 18zM419 630l-178 -630h-301l3 8c50 7 80 36 97 96l116 407c7 23 10 42 10 58c0 34 -34 51 -58 53l3 8h308zM606 396
c6 126 -28 190 -147 226l2 8h212l-59 -234h-8zM284 0l2 8c60 6 124 37 181 80c62 46 110 101 152 167h9l-81 -255h-263zM378 321c85 23 115 58 165 143h8l-83 -293h-8c-3 84 -15 120 -85 142z" />
    <glyph glyph-name="Gbreve" unicode="&#x11e;" horiz-adv-x="711" 
d="M501 779c65 0 115 21 131 61h11c-13 -81 -45 -167 -152 -167c-69 0 -102 44 -102 96c0 24 6 48 19 71h10c-7 -48 38 -61 83 -61zM633 410h-9c-7 94 -44 193 -133 219l3 8c58 -5 146 -24 189 -43zM302 1l-2 -8c-154 10 -271 140 -271 271c0 133 77 232 180 299
c66 45 153 76 258 76l-3 -8c-34 -2 -70 -27 -96 -65c-51 -70 -119 -330 -119 -480c0 -35 17 -78 53 -85zM390 60l29 108c6 23 10 45 10 61c0 34 -27 47 -51 50l3 8h346l-3 -8c-51 -7 -79 -35 -94 -89l-46 -165c-50 -17 -189 -31 -256 -33l2 7c17 3 29 9 38 18
c11 11 17 25 22 43z" />
    <glyph glyph-name="Gcircumflex" unicode="&#x11c;" horiz-adv-x="711" 
d="M343 671l-3 5l177 146h4l91 -146l-3 -4l-108 54h-2zM633 410h-9c-7 94 -44 193 -133 219l3 8c58 -5 146 -24 189 -43zM302 1l-2 -8c-154 10 -271 140 -271 271c0 133 77 232 180 299c66 45 153 76 258 76l-3 -8c-34 -2 -70 -27 -96 -65c-51 -70 -119 -330 -119 -480
c0 -35 17 -78 53 -85zM390 60l29 108c6 23 10 45 10 61c0 34 -27 47 -51 50l3 8h346l-3 -8c-51 -7 -79 -35 -94 -89l-46 -165c-50 -17 -189 -31 -256 -33l2 7c17 3 29 9 38 18c11 11 17 25 22 43z" />
    <glyph glyph-name="Gcommaaccent" unicode="&#x122;" horiz-adv-x="711" 
d="M302 1l-2 -8c-154 10 -271 140 -271 271c0 133 77 232 180 299c66 45 153 76 258 76l-3 -8c-34 -2 -70 -27 -96 -65c-51 -70 -119 -330 -119 -480c0 -35 17 -78 53 -85zM390 60l29 108c6 23 10 45 10 61c0 34 -27 47 -51 50l3 8h346l-3 -8c-51 -7 -79 -35 -94 -89
l-46 -165c-50 -17 -189 -31 -256 -33l2 7c17 3 29 9 38 18c11 11 17 25 22 43zM633 410h-9c-7 94 -44 193 -133 219l3 8c58 -5 146 -24 189 -43zM210 -116c0 54 43 76 83 76c45 0 86 -28 86 -85c0 -78 -103 -125 -192 -137l-3 7c45 13 104 35 123 78c-7 -4 -19 -6 -30 -6
c-32 0 -67 22 -67 67z" />
    <glyph glyph-name="Gdotaccent" unicode="&#x120;" horiz-adv-x="711" 
d="M392 763c0 49 38 79 86 79s87 -30 87 -79s-39 -78 -87 -78s-86 29 -86 78zM633 410h-9c-7 94 -44 193 -133 219l3 8c58 -5 146 -24 189 -43zM302 1l-2 -8c-154 10 -271 140 -271 271c0 133 77 232 180 299c66 45 153 76 258 76l-3 -8c-34 -2 -70 -27 -96 -65
c-51 -70 -119 -330 -119 -480c0 -35 17 -78 53 -85zM390 60l29 108c6 23 10 45 10 61c0 34 -27 47 -51 50l3 8h346l-3 -8c-51 -7 -79 -35 -94 -89l-46 -165c-50 -17 -189 -31 -256 -33l2 7c17 3 29 9 38 18c11 11 17 25 22 43z" />
    <glyph glyph-name="Hbar" unicode="&#x126;" horiz-adv-x="804" 
d="M472 303h-109l13 44h109zM41 104l116 407c7 23 10 42 10 58c0 34 -34 51 -58 53l3 8h371l-3 -8c-52 -7 -71 -36 -89 -96l-116 -407c-7 -23 -9 -42 -9 -58c0 -34 24 -51 49 -53l-3 -8h-371l3 8c50 7 80 36 97 96zM445 104l116 407c7 23 10 45 10 61c0 34 -26 48 -50 50
l3 8h371l-3 -8c-51 -7 -79 -36 -97 -96l-116 -407c-7 -23 -9 -42 -9 -58c0 -34 33 -51 57 -53l-3 -8h-371l3 8c47 8 68 22 89 96zM504 416h-109l12 43h110zM886 416h-90l12 43h90zM103 416h-90l13 43h90z" />
    <glyph glyph-name="Hcircumflex" unicode="&#x124;" horiz-adv-x="804" 
d="M471 303h-109l13 44h109zM390 526l-116 -407c-7 -23 -9 -42 -9 -58c0 -34 24 -51 49 -53l-3 -8h-371l3 8c50 7 80 36 97 96l116 407c7 23 10 42 10 58c0 34 -34 51 -58 53l3 8h371l-3 -8c-52 -7 -71 -36 -89 -96zM794 526l-116 -407c-7 -23 -9 -42 -9 -58
c0 -34 33 -51 57 -53l-3 -8h-371l3 8c48 10 68 22 89 96l116 407c7 23 10 45 10 61c0 34 -26 48 -50 50l3 8h371l-3 -8c-51 -7 -80 -36 -97 -96zM379 671l-3 5l177 146h4l91 -146l-3 -4l-108 54h-2z" />
    <glyph glyph-name="Idotaccent" unicode="&#x130;" horiz-adv-x="400" 
d="M40 104l116 407c7 23 10 42 10 58c0 34 -34 51 -58 53l3 8h379l-3 -8c-51 -7 -79 -36 -97 -96l-116 -407c-7 -23 -9 -42 -9 -58c0 -34 33 -51 57 -53l-3 -8h-379l3 8c50 7 80 36 97 96zM234 763c0 49 38 79 86 79s87 -30 87 -79s-39 -78 -87 -78s-86 29 -86 78z" />
    <glyph glyph-name="Ibreve" unicode="&#x12c;" horiz-adv-x="400" 
d="M40 104l116 407c7 23 10 42 10 58c0 34 -34 51 -58 53l3 8h379l-3 -8c-51 -7 -79 -36 -97 -96l-116 -407c-7 -23 -9 -42 -9 -58c0 -34 33 -51 57 -53l-3 -8h-379l3 8c50 7 80 36 97 96zM322 779c65 0 115 21 131 61h11c-13 -81 -45 -167 -152 -167c-69 0 -102 44 -102 96
c0 24 6 48 19 71h10c-7 -48 38 -61 83 -61z" />
    <glyph glyph-name="Imacron" unicode="&#x12a;" horiz-adv-x="400" 
d="M40 104l116 407c7 23 10 42 10 58c0 34 -34 51 -58 53l3 8h379l-3 -8c-51 -7 -79 -36 -97 -96l-116 -407c-7 -23 -9 -42 -9 -58c0 -34 33 -51 57 -53l-3 -8h-379l3 8c50 7 80 36 97 96zM455 694h-289l18 62h289z" />
    <glyph glyph-name="Iogonek" unicode="&#x12e;" horiz-adv-x="400" 
d="M40 104l116 407c7 23 10 42 10 58c0 34 -34 51 -58 53l3 8h379l-3 -8c-51 -7 -79 -36 -97 -96l-116 -407c-7 -23 -9 -42 -9 -58c0 -34 33 -51 57 -53l-3 -8h-379l3 8c50 7 80 36 97 96zM272 -132l6 -7c-13 -23 -59 -95 -146 -95c-37 0 -78 22 -78 71
c0 63 101 127 157 143h12c-15 -14 -53 -45 -53 -88c0 -27 15 -42 45 -42c27 0 46 9 57 18z" />
    <glyph glyph-name="Itilde" unicode="&#x128;" horiz-adv-x="400" 
d="M40 104l116 407c7 23 10 42 10 58c0 34 -34 51 -58 53l3 8h379l-3 -8c-51 -7 -79 -36 -97 -96l-116 -407c-7 -23 -9 -42 -9 -58c0 -34 33 -51 57 -53l-3 -8h-379l3 8c50 7 80 36 97 96zM513 848l9 -3c-10 -30 -35 -72 -69 -102c-24 -25 -65 -39 -101 -39
c-41 0 -88 5 -121 5c-25 0 -62 -8 -74 -32l-8 2c18 44 36 76 69 103c27 22 59 41 109 41c53 0 86 -5 124 -5c32 0 54 15 62 30z" />
    <glyph glyph-name="Jcircumflex" unicode="&#x134;" horiz-adv-x="378" 
d="M158 671l-3 5l177 146h4l91 -146l-3 -4l-108 54h-2zM380 526l-120 -421c-61 -211 -195 -265 -435 -276v10c108 21 159 105 194 227l127 445c7 23 10 42 10 58c0 34 -34 51 -58 53l3 8h379l-3 -8c-51 -7 -79 -36 -97 -96z" />
    <glyph glyph-name="Kcommaaccent" unicode="&#x136;" horiz-adv-x="760" 
d="M390 526l-116 -407c-7 -23 -9 -42 -9 -58c0 -34 33 -51 57 -53l-3 -8h-379l3 8c50 7 80 36 97 96l116 407c7 23 10 42 10 58c0 34 -34 51 -58 53l3 8h379l-3 -8c-51 -7 -79 -36 -97 -96zM750 1l-3 -8c-51 1 -145 2 -197 7c-54 4 -104 21 -138 81c-29 50 -55 129 -66 204
l153 158c60 -160 135 -307 181 -381c25 -39 43 -53 70 -61zM820 630l-2 -8c-99 -19 -206 -87 -285 -158l-6 6c31 36 42 60 42 93s-16 54 -57 59l2 8h306zM265 -116c0 54 43 76 83 76c45 0 86 -28 86 -85c0 -78 -103 -125 -192 -137l-3 7c45 13 104 35 123 78
c-7 -4 -19 -6 -30 -6c-32 0 -67 22 -67 67z" />
    <glyph glyph-name="Lacute" unicode="&#x139;" horiz-adv-x="650" 
d="M468 724l-232 -50l-3 7l184 158zM240 0h-300l3 8c50 7 80 36 97 96l116 407c7 23 10 42 10 58c0 34 -34 51 -58 53l3 8h379l-3 -8c-51 -7 -79 -36 -97 -96zM274 0l2 8c69 21 134 60 192 104c63 48 112 101 148 159h8l-84 -271h-266z" />
    <glyph glyph-name="Lcaron" unicode="&#x13d;" horiz-adv-x="650" 
d="M651 664l-162 -194h-9l58 194h113zM240 0h-300l3 8c50 7 80 36 97 96l116 407c7 23 10 42 10 58c0 34 -34 51 -58 53l3 8h379l-3 -8c-51 -7 -79 -36 -97 -96zM274 0l2 8c69 21 134 60 192 104c63 48 112 101 148 159h8l-84 -271h-266z" />
    <glyph glyph-name="Lcommaaccent" unicode="&#x13b;" horiz-adv-x="650" 
d="M240 0h-300l3 8c50 7 80 36 97 96l116 407c7 23 10 42 10 58c0 34 -34 51 -58 53l3 8h379l-3 -8c-51 -7 -79 -36 -97 -96zM274 0l2 8c69 21 134 60 192 104c63 48 112 101 148 159h8l-84 -271h-266zM167 -116c0 54 43 76 83 76c45 0 86 -28 86 -85
c0 -78 -103 -125 -192 -137l-3 7c45 13 104 35 123 78c-7 -4 -19 -6 -30 -6c-32 0 -67 22 -67 67z" />
    <glyph glyph-name="Ldot" unicode="&#x13f;" horiz-adv-x="650" 
d="M240 0h-300l3 8c50 7 80 36 97 96l116 407c7 23 10 42 10 58c0 34 -34 51 -58 53l3 8h379l-3 -8c-51 -7 -79 -36 -97 -96zM274 0l2 8c56 16 106 42 153 72c75 47 134 102 177 160h8l-74 -240h-266zM468 362c0 51 40 88 90 88s88 -37 88 -88c0 -50 -38 -86 -88 -86
s-90 36 -90 86z" />
    <glyph glyph-name="Nacute" unicode="&#x143;" horiz-adv-x="712" 
d="M636 724l-232 -50l-3 7l184 158zM504 -1h-99l-226 499c-14 29 -31 56 -55 80c-23 24 -50 40 -84 44l3 8h336l191 -415zM135 215l9 -1c-12 -36 -22 -71 -22 -110c0 -44 25 -85 85 -96l-3 -8h-292l3 8c100 16 162 105 220 207zM620 415l-8 1c11 34 22 81 22 120
c0 43 -21 76 -93 86l3 8h295l-3 -8c-80 -15 -148 -72 -216 -207z" />
    <glyph glyph-name="Ncaron" unicode="&#x147;" horiz-adv-x="712" 
d="M646 822l3 -4l-177 -147h-4l-92 147l4 4l107 -54h2zM504 -1h-99l-226 499c-14 29 -31 56 -55 80c-23 24 -50 40 -84 44l3 8h336l191 -415zM135 215l9 -1c-12 -36 -22 -71 -22 -110c0 -44 25 -85 85 -96l-3 -8h-292l3 8c100 16 162 105 220 207zM620 415l-8 1
c11 34 22 81 22 120c0 43 -21 76 -93 86l3 8h295l-3 -8c-80 -15 -148 -72 -216 -207z" />
    <glyph glyph-name="Ncommaaccent" unicode="&#x145;" horiz-adv-x="712" 
d="M504 -1h-99l-226 499c-14 29 -31 56 -55 80c-23 24 -50 40 -84 44l3 8h336l191 -415zM135 215l9 -1c-12 -36 -22 -71 -22 -110c0 -44 25 -85 85 -96l-3 -8h-292l3 8c100 16 162 105 220 207zM620 415l-8 1c11 34 22 81 22 120c0 43 -21 76 -93 86l3 8h295l-3 -8
c-80 -15 -148 -72 -216 -207zM177 -116c0 54 43 76 83 76c45 0 86 -28 86 -85c0 -78 -103 -125 -192 -137l-3 7c45 13 104 35 123 78c-7 -4 -19 -6 -30 -6c-32 0 -67 22 -67 67z" />
    <glyph glyph-name="Obreve" unicode="&#x14e;" horiz-adv-x="710" 
d="M490 779c65 0 115 21 131 61h11c-13 -81 -45 -167 -152 -167c-69 0 -102 44 -102 96c0 24 6 48 19 71h10c-7 -48 38 -61 83 -61zM272 1l-2 -8c-143 17 -241 140 -241 271c0 147 90 256 208 320c59 32 140 54 203 55l-2 -7c-17 -4 -33 -13 -49 -33
c-65 -78 -143 -371 -143 -526c0 -23 2 -58 26 -72zM294 -8l2 7c7 3 21 10 36 25c71 71 155 374 155 535c0 21 0 62 -26 72l2 7c144 -16 241 -140 241 -271c0 -149 -93 -260 -215 -322c-57 -31 -134 -52 -195 -53z" />
    <glyph glyph-name="Ohungarumlaut" unicode="&#x150;" horiz-adv-x="710" 
d="M525 780l-149 -120l-8 5l74 174zM660 780l-148 -120l-8 5l74 174zM272 1l-2 -8c-143 17 -241 140 -241 271c0 147 90 256 208 320c59 32 140 54 203 55l-2 -7c-17 -4 -33 -13 -49 -33c-65 -78 -143 -371 -143 -526c0 -23 2 -58 26 -72zM294 -8l2 7c7 3 21 10 36 25
c71 71 155 374 155 535c0 21 0 62 -26 72l2 7c144 -16 241 -140 241 -271c0 -149 -93 -260 -215 -322c-57 -31 -134 -52 -195 -53z" />
    <glyph glyph-name="Omacron" unicode="&#x14c;" horiz-adv-x="710" 
d="M588 694h-289l18 62h289zM272 1l-2 -8c-143 17 -241 140 -241 271c0 147 90 256 208 320c59 32 140 54 203 55l-2 -7c-17 -4 -33 -13 -49 -33c-65 -78 -143 -371 -143 -526c0 -23 2 -58 26 -72zM294 -8l2 7c7 3 21 10 36 25c71 71 155 374 155 535c0 21 0 62 -26 72l2 7
c144 -16 241 -140 241 -271c0 -149 -93 -260 -215 -322c-57 -31 -134 -52 -195 -53z" />
    <glyph glyph-name="Oslashacute" unicode="&#x1fe;" horiz-adv-x="710" 
d="M596 724l-232 -50l-3 7l184 158zM272 1l-2 -8c-26 3 -50 9 -72 18l-51 -79l-31 17l50 78c-84 49 -137 141 -137 237c0 147 90 256 208 320c59 32 140 54 203 55l-2 -7c-13 -3 -27 -8 -48 -33c-54 -59 -118 -277 -138 -438l234 364c1 18 1 23 1 34c0 21 0 62 -26 72l2 7
c29 -3 56 -11 81 -22l48 75l27 -18l-46 -73c81 -49 131 -139 131 -233c0 -149 -92 -258 -213 -322c-57 -30 -135 -52 -197 -53l2 7c8 3 21 10 36 26c60 63 122 262 146 426l-232 -364v-14c0 -23 2 -59 26 -72z" />
    <glyph glyph-name="Racute" unicode="&#x154;" horiz-adv-x="749" 
d="M598 724l-232 -50l-3 7l184 158zM381 318c71 33 109 132 109 230c0 29 -13 63 -43 73l3 8c178 -9 270 -49 270 -166c0 -76 -55 -114 -125 -146c17 -84 50 -178 79 -236c21 -44 54 -71 77 -77l-2 -8c-45 0 -141 0 -199 6c-76 6 -114 44 -126 87c-19 67 -33 136 -44 224z
M419 630l-145 -511c-7 -23 -9 -35 -9 -51c0 -34 29 -57 65 -60l-3 -8h-387l3 8c50 7 80 36 97 96l116 407c7 23 10 42 10 58c0 34 -34 51 -58 53l3 8h308z" />
    <glyph glyph-name="Rcaron" unicode="&#x158;" horiz-adv-x="749" 
d="M620 822l3 -4l-177 -147h-4l-92 147l4 4l107 -54h2zM381 318c71 33 109 132 109 230c0 29 -13 63 -43 73l3 8c178 -9 270 -49 270 -166c0 -76 -55 -114 -125 -146c17 -84 50 -178 79 -236c21 -44 54 -71 77 -77l-2 -8c-45 0 -141 0 -199 6c-76 6 -114 44 -126 87
c-19 67 -33 136 -44 224zM419 630l-145 -511c-7 -23 -9 -35 -9 -51c0 -34 29 -57 65 -60l-3 -8h-387l3 8c50 7 80 36 97 96l116 407c7 23 10 42 10 58c0 34 -34 51 -58 53l3 8h308z" />
    <glyph glyph-name="Rcommaaccent" unicode="&#x156;" horiz-adv-x="749" 
d="M419 630l-145 -511c-7 -23 -9 -35 -9 -51c0 -34 29 -57 65 -60l-3 -8h-387l3 8c50 7 80 36 97 96l116 407c7 23 10 42 10 58c0 34 -34 51 -58 53l3 8h308zM381 318c71 33 109 132 109 230c0 29 -13 63 -43 73l3 8c178 -9 270 -49 270 -166c0 -76 -55 -114 -125 -146
c17 -84 50 -178 79 -236c21 -44 54 -71 77 -77l-2 -8c-45 0 -141 0 -199 6c-76 6 -114 44 -126 87c-19 67 -33 136 -44 224zM297 -116c0 54 43 76 83 76c45 0 86 -28 86 -85c0 -78 -103 -125 -192 -137l-3 7c45 13 104 35 123 78c-7 -4 -19 -6 -30 -6c-32 0 -67 22 -67 67z
" />
    <glyph glyph-name="Sacute" unicode="&#x15a;" horiz-adv-x="515" 
d="M519 423h-9c-5 83 -63 183 -116 206l3 9c38 0 144 -16 173 -26zM466 216c0 -139 -110 -216 -278 -224l3 9c35 8 53 27 53 72c0 63 -39 101 -77 183c-37 75 -59 104 -59 168c0 140 151 208 264 214l-3 -9c-32 -7 -42 -34 -42 -63c0 -45 29 -94 69 -164
c36 -61 70 -114 70 -186zM158 -8c-59 5 -163 20 -185 32l56 210h9c1 -84 69 -205 123 -233zM536 724l-232 -50l-3 7l184 158z" />
    <glyph glyph-name="Scedilla" unicode="&#x15e;" horiz-adv-x="515" 
d="M519 423h-9c-5 83 -63 183 -116 206l3 9c38 0 144 -16 173 -26zM466 216c0 -139 -110 -216 -278 -224l3 9c35 8 53 27 53 72c0 63 -39 101 -77 183c-37 75 -59 104 -59 168c0 140 151 208 264 214l-3 -9c-32 -7 -42 -34 -42 -63c0 -45 29 -94 69 -164
c36 -61 70 -114 70 -186zM158 -8c-59 5 -163 20 -185 32l56 210h9c1 -84 69 -205 123 -233zM102 -234l2 -7c-18 -9 -54 -16 -73 -16c-34 0 -52 17 -52 37c0 24 22 48 56 60c13 -48 40 -76 67 -74zM116 -236l-3 8c4 3 6 8 6 12c0 9 -9 19 -25 44c-11 17 -22 37 -22 50
c0 33 55 67 114 95l4 -6c-7 -7 -11 -16 -11 -25c0 -13 12 -34 20 -48c14 -24 22 -40 22 -50c0 -9 -2 -19 -15 -29c-14 -14 -53 -40 -90 -51z" />
    <glyph glyph-name="Scircumflex" unicode="&#x15c;" horiz-adv-x="515" 
d="M276 671l-3 5l177 146h4l91 -146l-3 -4l-108 54h-2zM519 423h-9c-5 83 -63 183 -116 206l3 9c38 0 144 -16 173 -26zM466 216c0 -139 -110 -216 -278 -224l3 9c35 8 53 27 53 72c0 63 -39 101 -77 183c-37 75 -59 104 -59 168c0 140 151 208 264 214l-3 -9
c-32 -7 -42 -34 -42 -63c0 -45 29 -94 69 -164c36 -61 70 -114 70 -186zM158 -8c-59 5 -163 20 -185 32l56 210h9c1 -84 69 -205 123 -233z" />
    <glyph glyph-name="Scommaaccent" unicode="&#x218;" horiz-adv-x="515" 
d="M466 216c0 -139 -110 -216 -278 -224l3 9c35 8 53 27 53 72c0 63 -39 101 -77 183c-37 75 -59 104 -59 168c0 140 151 208 264 214l-3 -9c-32 -7 -42 -34 -42 -63c0 -45 29 -94 69 -164c36 -61 70 -114 70 -186zM158 -8c-59 5 -163 20 -185 32l56 210h9
c1 -84 69 -205 123 -233zM519 423h-9c-5 83 -63 183 -116 206l3 9c38 0 144 -16 173 -26zM-2 -116c0 54 43 76 83 76c45 0 86 -28 86 -85c0 -78 -103 -125 -192 -137l-3 7c45 13 104 35 123 78c-7 -4 -19 -6 -30 -6c-32 0 -67 22 -67 67z" />
    <glyph glyph-name="Tcaron" unicode="&#x164;" horiz-adv-x="704" 
d="M629 822l3 -4l-177 -147h-4l-92 147l4 4l107 -54h2zM330 630h231l-146 -511c-7 -23 -9 -42 -9 -58c0 -34 33 -51 58 -53l-3 -8h-380l3 8c51 7 81 36 98 96zM306 622c-80 -42 -181 -125 -240 -225h-9l71 233h180zM587 630h195l-69 -233h-9c-3 102 -51 201 -119 225z" />
    <glyph glyph-name="Tcommaaccent" unicode="&#x162;" horiz-adv-x="704" 
d="M330 630h231l-146 -511c-7 -23 -9 -42 -9 -58c0 -34 33 -51 58 -53l-3 -8h-380l3 8c51 7 81 36 98 96zM587 630h195l-69 -233h-9c-3 102 -51 201 -119 225zM306 622c-80 -42 -181 -125 -240 -225h-9l71 233h180zM169 -116c0 54 43 76 83 76c45 0 86 -28 86 -85
c0 -78 -103 -125 -192 -137l-3 7c45 13 104 35 123 78c-7 -4 -19 -6 -30 -6c-32 0 -67 22 -67 67z" />
    <glyph glyph-name="Tbar" unicode="&#x166;" horiz-adv-x="704" 
d="M326 630h231l-146 -511c-7 -23 -9 -42 -9 -58c0 -34 33 -51 57 -53l-3 -8h-379l3 8c50 7 80 36 97 96zM301 622c-80 -42 -180 -125 -239 -225h-9l71 233h179zM580 622l2 8h196l-69 -233h-9c-3 102 -52 201 -120 225zM210 316h-126l12 43h127zM623 316h-128l12 43h128z
" />
    <glyph glyph-name="Ubreve" unicode="&#x16c;" horiz-adv-x="653" 
d="M515 630h278l-3 -8c-30 -8 -65 -20 -98 -47c-36 -28 -85 -111 -95 -148h-11c11 42 14 74 14 103c0 51 -21 88 -88 92zM369 526l-86 -306c-24 -78 -13 -155 82 -165c36 -5 79 3 120 19l6 -8c-29 -33 -96 -74 -194 -74c-66 0 -124 6 -171 33c-87 50 -91 141 -62 242l71 244
c7 23 9 42 9 58c0 34 -34 51 -58 53l3 8h380l-3 -8c-52 -7 -81 -36 -97 -96zM506 779c65 0 115 21 131 61h11c-13 -81 -45 -167 -152 -167c-69 0 -102 44 -102 96c0 24 6 48 19 71h10c-7 -48 38 -61 83 -61z" />
    <glyph glyph-name="Uhungarumlaut" unicode="&#x170;" horiz-adv-x="653" 
d="M568 780l-149 -120l-8 5l74 174zM703 780l-148 -120l-8 5l74 174zM515 630h278l-3 -8c-30 -8 -65 -20 -98 -47c-36 -28 -85 -111 -95 -148h-11c11 42 14 74 14 103c0 51 -21 88 -88 92zM369 526l-86 -306c-24 -78 -13 -155 82 -165c36 -5 79 3 120 19l6 -8
c-29 -33 -96 -74 -194 -74c-66 0 -124 6 -171 33c-87 50 -91 141 -62 242l71 244c7 23 9 42 9 58c0 34 -34 51 -58 53l3 8h380l-3 -8c-52 -7 -81 -36 -97 -96z" />
    <glyph glyph-name="Umacron" unicode="&#x16a;" horiz-adv-x="653" 
d="M515 630h278l-3 -8c-30 -8 -65 -20 -98 -47c-36 -28 -85 -111 -95 -148h-11c11 42 14 74 14 103c0 51 -21 88 -88 92zM369 526l-86 -306c-24 -78 -13 -155 82 -165c36 -5 79 3 120 19l6 -8c-29 -33 -96 -74 -194 -74c-66 0 -124 6 -171 33c-87 50 -91 141 -62 242l71 244
c7 23 9 42 9 58c0 34 -34 51 -58 53l3 8h380l-3 -8c-52 -7 -81 -36 -97 -96zM642 694h-289l18 62h289z" />
    <glyph glyph-name="Uogonek" unicode="&#x172;" horiz-adv-x="653" 
d="M386 -132l6 -7c-13 -23 -59 -95 -146 -95c-37 0 -78 22 -78 71c0 63 101 127 157 143h12c-15 -14 -53 -45 -53 -88c0 -27 15 -42 45 -42c27 0 46 9 57 18zM515 630h278l-3 -8c-30 -8 -65 -20 -98 -47c-36 -28 -85 -111 -95 -148h-11c11 42 14 74 14 103
c0 51 -21 88 -88 92zM369 526l-86 -306c-24 -78 -13 -155 82 -165c36 -5 79 3 120 19l6 -8c-29 -33 -96 -74 -194 -74c-66 0 -124 6 -171 33c-87 50 -91 141 -62 242l71 244c7 23 9 42 9 58c0 34 -34 51 -58 53l3 8h380l-3 -8c-52 -7 -81 -36 -97 -96z" />
    <glyph glyph-name="Uring" unicode="&#x16e;" horiz-adv-x="653" 
d="M515 630h278l-3 -8c-30 -8 -65 -20 -98 -47c-36 -28 -85 -111 -95 -148h-11c11 42 14 74 14 103c0 51 -21 88 -88 92zM369 526l-86 -306c-24 -78 -13 -155 82 -165c36 -5 79 3 120 19l6 -8c-29 -33 -96 -74 -194 -74c-66 0 -124 6 -171 33c-87 50 -91 141 -62 242l71 244
c7 23 9 42 9 58c0 34 -34 51 -58 53l3 8h380l-3 -8c-52 -7 -81 -36 -97 -96zM412 752c0 47 39 77 79 80v-21c-22 -2 -54 -17 -54 -59s32 -59 54 -60v-22c-40 3 -79 32 -79 82zM592 752c0 -48 -40 -79 -79 -82v22c22 1 54 18 54 60s-33 57 -54 59v21c39 -3 79 -31 79 -80z
" />
    <glyph glyph-name="Utilde" unicode="&#x168;" horiz-adv-x="653" 
d="M515 630h278l-3 -8c-30 -8 -65 -20 -98 -47c-36 -28 -85 -111 -95 -148h-11c11 42 14 74 14 103c0 51 -21 88 -88 92zM369 526l-86 -306c-24 -78 -13 -155 82 -165c36 -5 79 3 120 19l6 -8c-29 -33 -96 -74 -194 -74c-66 0 -124 6 -171 33c-87 50 -91 141 -62 242l71 244
c7 23 9 42 9 58c0 34 -34 51 -58 53l3 8h380l-3 -8c-52 -7 -81 -36 -97 -96zM713 848l9 -3c-10 -30 -35 -72 -69 -102c-24 -25 -65 -39 -101 -39c-41 0 -88 5 -121 5c-25 0 -62 -8 -74 -32l-8 2c18 44 36 76 69 103c27 22 59 41 109 41c53 0 86 -5 124 -5c32 0 54 15 62 30z
" />
    <glyph glyph-name="Wacute" unicode="&#x1e82;" horiz-adv-x="905" 
d="M724 724l-232 -50l-3 7l184 158zM368 549l16 -308l-161 -243h-55l-30 533c-4 63 -25 85 -76 91l3 8h351l-3 -8c-31 -3 -48 -23 -45 -73zM714 525l15 -284l-161 -243h-56l-31 558c-3 50 -17 63 -48 66l3 8h347l-3 -8c-66 -7 -69 -47 -66 -97zM812 630h238l-3 -8
c-40 -8 -78 -31 -110 -61c-35 -32 -62 -68 -85 -106l-8 4c8 16 24 75 24 97c0 33 -19 62 -59 66z" />
    <glyph glyph-name="Wcircumflex" unicode="&#x174;" horiz-adv-x="905" 
d="M446 671l-3 5l177 146h4l91 -146l-3 -4l-108 54h-2zM368 549l16 -308l-161 -243h-55l-30 533c-4 63 -25 85 -76 91l3 8h351l-3 -8c-31 -3 -48 -23 -45 -73zM714 525l15 -284l-161 -243h-56l-31 558c-3 50 -17 63 -48 66l3 8h347l-3 -8c-66 -7 -69 -47 -66 -97zM812 630
h238l-3 -8c-40 -8 -78 -31 -110 -61c-35 -32 -62 -68 -85 -106l-8 4c8 16 24 75 24 97c0 33 -19 62 -59 66z" />
    <glyph glyph-name="Wdieresis" unicode="&#x1e84;" horiz-adv-x="905" 
d="M476 827c43 0 76 -33 76 -76s-33 -78 -76 -78s-78 35 -78 78s35 76 78 76zM695 827c44 0 78 -33 78 -76s-34 -78 -78 -78c-41 0 -75 35 -75 78s34 76 75 76zM368 549l16 -308l-161 -243h-55l-30 533c-4 63 -25 85 -76 91l3 8h351l-3 -8c-31 -3 -48 -23 -45 -73zM714 525
l15 -284l-161 -243h-56l-31 558c-3 50 -17 63 -48 66l3 8h347l-3 -8c-66 -7 -69 -47 -66 -97zM812 630h238l-3 -8c-40 -8 -78 -31 -110 -61c-35 -32 -62 -68 -85 -106l-8 4c8 16 24 75 24 97c0 33 -19 62 -59 66z" />
    <glyph glyph-name="Wgrave" unicode="&#x1e80;" horiz-adv-x="905" 
d="M681 681l-2 -7l-220 49l56 105zM368 549l16 -308l-161 -243h-55l-30 533c-4 63 -25 85 -76 91l3 8h351l-3 -8c-31 -3 -48 -23 -45 -73zM714 525l15 -284l-161 -243h-56l-31 558c-3 50 -17 63 -48 66l3 8h347l-3 -8c-66 -7 -69 -47 -66 -97zM812 630h238l-3 -8
c-40 -8 -78 -31 -110 -61c-35 -32 -62 -68 -85 -106l-8 4c8 16 24 75 24 97c0 33 -19 62 -59 66z" />
    <glyph glyph-name="Ycircumflex" unicode="&#x176;" horiz-adv-x="633" 
d="M152 104l50 176l-54 265c-9 43 -29 69 -73 77l2 8h367l-2 -8c-32 -2 -60 -17 -60 -44c0 -16 7 -50 11 -66l45 -211l-52 -182c-7 -23 -9 -42 -9 -58c0 -34 33 -51 58 -53l-3 -8h-380l3 8c51 7 81 36 97 96zM772 630l-2 -8c-34 -5 -76 -25 -117 -55
c-46 -31 -90 -73 -125 -114l-3 9c20 27 40 85 40 117c0 22 -18 40 -60 43l2 8h265zM315 671l-3 5l177 146h4l91 -146l-3 -4l-108 54h-2z" />
    <glyph glyph-name="Ygrave" unicode="&#x1ef2;" horiz-adv-x="633" 
d="M152 104l50 176l-54 265c-9 43 -29 69 -73 77l2 8h367l-2 -8c-32 -2 -60 -17 -60 -44c0 -16 7 -50 11 -66l45 -211l-52 -182c-7 -23 -9 -42 -9 -58c0 -34 33 -51 58 -53l-3 -8h-380l3 8c51 7 81 36 97 96zM772 630l-2 -8c-34 -5 -76 -25 -117 -55
c-46 -31 -90 -73 -125 -114l-3 9c20 27 40 85 40 117c0 22 -18 40 -60 43l2 8h265zM577 681l-2 -7l-220 49l56 105z" />
    <glyph glyph-name="Zacute" unicode="&#x179;" horiz-adv-x="663" 
d="M599 724l-232 -50l-3 7l184 158zM536 0h-261l3 8c66 21 133 53 189 93c63 44 115 97 158 151h8c-22 -77 -67 -183 -97 -252zM727 630l-520 -630h-251l519 630h252zM413 623c-56 -9 -118 -35 -179 -75c-60 -40 -118 -100 -160 -164h-9c25 66 71 204 86 246h265z" />
    <glyph glyph-name="Zdotaccent" unicode="&#x17b;" horiz-adv-x="663" 
d="M536 0h-261l3 8c66 21 133 53 189 93c63 44 115 97 158 151h8c-22 -77 -67 -183 -97 -252zM727 630l-520 -630h-251l519 630h252zM413 623c-56 -9 -118 -35 -179 -75c-60 -40 -118 -100 -160 -164h-9c25 66 71 204 86 246h265zM387 763c0 49 38 79 86 79s87 -30 87 -79
s-39 -78 -87 -78s-86 29 -86 78z" />
    <glyph glyph-name="abreve" unicode="&#x103;" 
d="M267 389c-38 -46 -117 -232 -117 -277c0 -13 5 -19 15 -19c13 0 34 19 44 34l5 -4c-29 -60 -107 -130 -176 -130c-32 0 -66 23 -66 69c0 114 165 269 289 332zM424 101c20 0 65 43 84 80l6 -3c-24 -76 -122 -186 -232 -186c-42 0 -60 27 -60 60c0 17 12 69 21 96
c33 100 85 257 85 257c-2 2 -7 3 -13 3c-8 1 -17 -1 -26 -5l-6 5c21 17 82 40 105 45c15 21 42 50 98 50c26 0 41 -12 41 -24s-3 -24 -4 -28c-12 -35 -72 -210 -99 -297c-5 -17 -10 -33 -10 -41c0 -11 5 -12 10 -12zM373 611c68 0 111 34 128 74h11
c-12 -75 -47 -169 -147 -169c-68 0 -98 42 -98 93c0 26 8 51 20 76h11c-6 -51 28 -74 75 -74z" />
    <glyph glyph-name="amacron" unicode="&#x101;" 
d="M267 389c-38 -46 -117 -232 -117 -277c0 -13 5 -19 15 -19c13 0 34 19 44 34l5 -4c-29 -60 -107 -130 -176 -130c-32 0 -66 23 -66 69c0 114 165 269 289 332zM424 101c20 0 65 43 84 80l6 -3c-24 -76 -122 -186 -232 -186c-42 0 -60 27 -60 60c0 17 12 69 21 96
c33 100 85 257 85 257c-2 2 -7 3 -13 3c-8 1 -17 -1 -26 -5l-6 5c21 17 82 40 105 45c15 21 42 50 98 50c26 0 41 -12 41 -24s-3 -24 -4 -28c-12 -35 -72 -210 -99 -297c-5 -17 -10 -33 -10 -41c0 -11 5 -12 10 -12zM489 555h-271l18 62h271z" />
    <glyph glyph-name="aogonek" unicode="&#x105;" 
d="M267 389c-38 -46 -117 -232 -117 -277c0 -13 5 -19 15 -19c13 0 34 19 44 34l5 -4c-29 -60 -107 -130 -176 -130c-32 0 -66 23 -66 69c0 114 165 269 289 332zM424 101c20 0 65 43 84 80l6 -3c-24 -76 -122 -186 -232 -186c-42 0 -60 27 -60 60c0 17 12 69 21 96
c33 100 85 257 85 257c-2 2 -7 3 -13 3c-8 1 -17 -1 -26 -5l-6 5c21 17 82 40 105 45c15 21 42 50 98 50c26 0 41 -12 41 -24s-3 -24 -4 -28c-12 -35 -72 -210 -99 -297c-5 -17 -10 -33 -10 -41c0 -11 5 -12 10 -12zM343 -132l6 -7c-13 -23 -59 -95 -146 -95
c-37 0 -78 22 -78 71c0 63 101 127 157 143h12c-15 -14 -53 -45 -53 -88c0 -27 15 -42 45 -42c27 0 46 9 57 18z" />
    <glyph glyph-name="aringacute" unicode="&#x1fb;" 
d="M267 389c-38 -46 -117 -232 -117 -277c0 -13 5 -19 15 -19c13 0 34 19 44 34l5 -4c-29 -60 -107 -130 -176 -130c-32 0 -66 23 -66 69c0 114 165 269 289 332zM424 101c20 0 65 43 84 80l6 -3c-24 -76 -122 -186 -232 -186c-42 0 -60 27 -60 60c0 17 12 69 21 96
c33 100 85 257 85 257c-2 2 -7 3 -13 3c-8 1 -17 -1 -26 -5l-6 5c21 17 82 40 105 45c15 21 42 50 98 50c26 0 41 -12 41 -24s-3 -24 -4 -28c-12 -35 -72 -210 -99 -297c-5 -17 -10 -33 -10 -41c0 -11 5 -12 10 -12zM276 594c0 48 35 82 77 85v-22c-28 -2 -52 -21 -52 -63
s24 -61 52 -63v-22c-42 3 -77 36 -77 85zM452 594c0 -47 -35 -82 -77 -85v22c27 2 52 21 52 63s-25 61 -52 63v22c42 -3 77 -35 77 -85zM521 750l-232 -50l-3 7l184 158z" />
    <glyph glyph-name="aeacute" unicode="&#x1fd;" horiz-adv-x="653" 
d="M569 651l-178 -146l-8 5l84 212zM363 441l3 -6c-128 -65 -209 -188 -209 -304c0 -13 6 -28 21 -28c20 0 45 19 54 34l6 -4c-24 -52 -103 -141 -196 -141c-51 0 -70 35 -70 81c0 143 206 303 391 368zM545 481l-2 -7c-60 -27 -89 -216 -89 -309c0 -40 13 -68 46 -68
c48 0 101 45 133 104l7 -3c-29 -88 -121 -206 -259 -206c-112 0 -133 84 -133 144c0 149 109 323 297 345zM472 239l2 7c23 8 34 15 53 32c31 27 42 110 42 171c0 19 -7 23 -13 25l2 7c77 -1 126 -27 126 -80c0 -73 -66 -142 -212 -162z" />
    <glyph glyph-name="cacute" unicode="&#x107;" horiz-adv-x="417" 
d="M456 651l-178 -146l-8 5l84 212zM332 481l-2 -7c-68 -26 -118 -170 -118 -296c0 -36 17 -57 41 -57c41 0 91 39 124 90l7 -3c-22 -80 -107 -216 -248 -216c-105 0 -130 88 -130 140c0 168 162 327 326 349zM310 396c0 37 27 64 64 64s65 -27 65 -64s-28 -64 -65 -64
s-64 27 -64 64z" />
    <glyph glyph-name="ccaron" unicode="&#x10d;" horiz-adv-x="417" 
d="M477 695l-184 -185h-4l-75 185l8 4l90 -79h4l156 79zM332 481l-2 -7c-68 -26 -118 -170 -118 -296c0 -36 17 -57 41 -57c41 0 91 39 124 90l7 -3c-22 -80 -107 -216 -248 -216c-105 0 -130 88 -130 140c0 168 162 327 326 349zM310 396c0 37 27 64 64 64s65 -27 65 -64
s-28 -64 -65 -64s-64 27 -64 64z" />
    <glyph glyph-name="ccircumflex" unicode="&#x109;" horiz-adv-x="417" 
d="M191 515l182 185h4l72 -185l-8 -4l-87 79h-4l-154 -79zM332 481l-2 -7c-68 -26 -118 -170 -118 -296c0 -36 17 -57 41 -57c41 0 91 39 124 90l7 -3c-22 -80 -107 -216 -248 -216c-105 0 -130 88 -130 140c0 168 162 327 326 349zM310 396c0 37 27 64 64 64s65 -27 65 -64
s-28 -64 -65 -64s-64 27 -64 64z" />
    <glyph glyph-name="cdotaccent" unicode="&#x10b;" horiz-adv-x="417" 
d="M332 481l-2 -7c-68 -26 -118 -170 -118 -296c0 -36 17 -57 41 -57c41 0 91 39 124 90l7 -3c-22 -80 -107 -216 -248 -216c-105 0 -130 88 -130 140c0 168 162 327 326 349zM310 396c0 37 27 64 64 64s65 -27 65 -64s-28 -64 -65 -64s-64 27 -64 64zM250 600
c0 50 39 82 89 82c49 0 89 -32 89 -82s-40 -82 -89 -82c-50 0 -89 32 -89 82z" />
    <glyph glyph-name="dcaron" unicode="&#x10f;" horiz-adv-x="581" 
d="M803 691l-162 -194h-9l58 194h113zM344 481l-2 -7c-46 -25 -145 -195 -145 -355c0 -12 5 -19 14 -19c19 0 34 16 44 30l6 -4c-27 -59 -110 -134 -182 -134c-44 0 -83 25 -83 97c0 80 61 221 150 306c62 57 140 85 198 86zM656 713l-172 -559c-5 -17 -10 -33 -10 -41
c0 -11 5 -12 10 -12c20 0 61 48 83 80l6 -3c-24 -76 -135 -186 -245 -186c-42 0 -61 28 -61 64c0 17 11 65 20 92l76 252c5 15 7 33 7 41c0 15 -4 27 -12 32l2 7c9 0 20 -4 25 -8l27 86c8 27 18 58 18 69c0 8 -2 14 -7 20l-28 25l1 4l259 38z" />
    <glyph glyph-name="ebreve" unicode="&#x115;" horiz-adv-x="440" 
d="M329 482l-2 -7c-60 -27 -114 -256 -114 -330c0 -30 14 -48 38 -48c50 0 103 53 136 104l7 -3c-28 -84 -115 -206 -253 -206c-118 0 -134 88 -134 140c0 149 134 327 322 350zM239 239l2 7c23 7 45 20 63 40c35 40 49 104 49 165c0 17 -6 21 -10 23l2 7
c73 -3 123 -27 123 -81c0 -81 -83 -141 -229 -161zM341 611c68 0 111 34 128 74h11c-12 -75 -47 -169 -147 -169c-68 0 -98 42 -98 93c0 26 8 51 20 76h11c-6 -51 28 -74 75 -74z" />
    <glyph glyph-name="ecaron" unicode="&#x11b;" horiz-adv-x="440" 
d="M491 695l-184 -185h-4l-75 185l8 4l90 -79h4l156 79zM329 482l-2 -7c-60 -27 -114 -256 -114 -330c0 -30 14 -48 38 -48c50 0 103 53 136 104l7 -3c-28 -84 -115 -206 -253 -206c-118 0 -134 88 -134 140c0 149 134 327 322 350zM239 239l2 7c23 7 45 20 63 40
c35 40 49 104 49 165c0 17 -6 21 -10 23l2 7c73 -3 123 -27 123 -81c0 -81 -83 -141 -229 -161z" />
    <glyph glyph-name="edotaccent" unicode="&#x117;" horiz-adv-x="440" 
d="M329 482l-2 -7c-60 -27 -114 -256 -114 -330c0 -30 14 -48 38 -48c50 0 103 53 136 104l7 -3c-28 -84 -115 -206 -253 -206c-118 0 -134 88 -134 140c0 149 134 327 322 350zM239 239l2 7c23 7 45 20 63 40c35 40 49 104 49 165c0 17 -6 21 -10 23l2 7
c73 -3 123 -27 123 -81c0 -81 -83 -141 -229 -161zM268 600c0 50 39 82 89 82c49 0 89 -32 89 -82s-40 -82 -89 -82c-50 0 -89 32 -89 82z" />
    <glyph glyph-name="emacron" unicode="&#x113;" horiz-adv-x="440" 
d="M329 482l-2 -7c-60 -27 -114 -256 -114 -330c0 -30 14 -48 38 -48c50 0 103 53 136 104l7 -3c-28 -84 -115 -206 -253 -206c-118 0 -134 88 -134 140c0 149 134 327 322 350zM239 239l2 7c23 7 45 20 63 40c35 40 49 104 49 165c0 17 -6 21 -10 23l2 7
c73 -3 123 -27 123 -81c0 -81 -83 -141 -229 -161zM471 555h-271l18 62h271z" />
    <glyph glyph-name="eogonek" unicode="&#x119;" horiz-adv-x="440" 
d="M238 -132l6 -7c-13 -23 -59 -95 -146 -95c-37 0 -78 22 -78 71c0 63 101 127 157 143h12c-15 -14 -53 -45 -53 -88c0 -27 15 -42 45 -42c27 0 46 9 57 18zM329 482l-2 -7c-60 -27 -114 -256 -114 -330c0 -30 14 -48 38 -48c50 0 103 53 136 104l7 -3
c-28 -84 -115 -206 -253 -206c-118 0 -134 88 -134 140c0 149 134 327 322 350zM239 239l2 7c23 7 45 20 63 40c35 40 49 104 49 165c0 17 -6 21 -10 23l2 7c73 -3 123 -27 123 -81c0 -81 -83 -141 -229 -161z" />
    <glyph glyph-name="gbreve" unicode="&#x11f;" horiz-adv-x="484" 
d="M176 -226l-3 -8c-125 2 -275 29 -275 96c0 41 97 68 165 75l2 -8c-23 -10 -50 -34 -50 -69c0 -70 96 -78 161 -86zM295 481l-2 -7c-5 -1 -15 -5 -23 -15c-17 -19 -91 -201 -91 -272c0 -10 3 -18 6 -19l-2 -7c-91 6 -141 61 -141 127c0 100 87 189 253 193zM195 -234l2 8
c40 5 68 18 68 40c0 27 -31 44 -102 79c-99 49 -155 79 -155 144c0 59 57 102 135 122l6 -3c-4 -4 -7 -8 -7 -14c0 -14 50 -33 150 -82c95 -47 129 -76 129 -138c0 -75 -79 -147 -226 -156zM429 433l2 7l133 55l-39 -128zM335 611c68 0 111 34 128 74h11
c-12 -75 -47 -169 -147 -169c-68 0 -98 42 -98 93c0 26 8 51 20 76h11c-6 -51 28 -74 75 -74zM193 160l2 7c6 0 15 3 22 11c19 20 93 203 93 276c0 10 -3 18 -6 19l2 7c92 -4 144 -60 144 -126c0 -103 -89 -188 -257 -194z" />
    <glyph glyph-name="gcircumflex" unicode="&#x11d;" horiz-adv-x="484" 
d="M161 515l182 185h4l72 -185l-8 -4l-87 79h-4l-154 -79zM176 -226l-3 -8c-125 2 -275 29 -275 96c0 41 97 68 165 75l2 -8c-23 -10 -50 -34 -50 -69c0 -70 96 -78 161 -86zM295 481l-2 -7c-5 -1 -15 -5 -23 -15c-17 -19 -91 -201 -91 -272c0 -10 3 -18 6 -19l-2 -7
c-91 6 -141 61 -141 127c0 100 87 189 253 193zM195 -234l2 8c40 5 68 18 68 40c0 27 -31 44 -102 79c-99 49 -155 79 -155 144c0 59 57 102 135 122l6 -3c-4 -4 -7 -8 -7 -14c0 -14 50 -33 150 -82c95 -47 129 -76 129 -138c0 -75 -79 -147 -226 -156zM429 433l2 7l133 55
l-39 -128zM193 160l2 7c6 0 15 3 22 11c19 20 93 203 93 276c0 10 -3 18 -6 19l2 7c92 -4 144 -60 144 -126c0 -103 -89 -188 -257 -194z" />
    <glyph glyph-name="gcommaaccent" unicode="&#x123;" horiz-adv-x="484" 
d="M176 -226l-3 -8c-125 2 -275 29 -275 96c0 41 97 68 165 75l2 -8c-23 -10 -50 -34 -50 -69c0 -70 96 -78 161 -86zM295 481l-2 -7c-5 -1 -15 -5 -23 -15c-17 -19 -91 -201 -91 -272c0 -10 3 -18 6 -19l-2 -7c-91 6 -141 61 -141 127c0 100 87 189 253 193zM195 -234l2 8
c40 5 68 18 68 40c0 27 -31 44 -102 79c-99 49 -155 79 -155 144c0 59 57 102 135 122l6 -3c-4 -4 -7 -8 -7 -14c0 -14 50 -33 150 -82c95 -47 129 -76 129 -138c0 -75 -79 -147 -226 -156zM429 433l2 7l133 55l-39 -128zM381 589c0 -54 -43 -79 -82 -79
c-45 0 -80 29 -80 86c0 75 89 124 191 136l1 -7c-56 -12 -113 -41 -129 -80c8 4 20 6 32 6c30 0 67 -17 67 -62zM193 160l2 7c6 0 15 3 22 11c19 20 93 203 93 276c0 10 -3 18 -6 19l2 7c92 -4 144 -60 144 -126c0 -103 -89 -188 -257 -194z" />
    <glyph glyph-name="gdotaccent" unicode="&#x121;" horiz-adv-x="484" 
d="M176 -226l-3 -8c-125 2 -275 29 -275 96c0 41 97 68 165 75l2 -8c-23 -10 -50 -34 -50 -69c0 -70 96 -78 161 -86zM295 481l-2 -7c-5 -1 -15 -5 -23 -15c-17 -19 -91 -201 -91 -272c0 -10 3 -18 6 -19l-2 -7c-91 6 -141 61 -141 127c0 100 87 189 253 193zM195 -234l2 8
c40 5 68 18 68 40c0 27 -31 44 -102 79c-99 49 -155 79 -155 144c0 59 57 102 135 122l6 -3c-4 -4 -7 -8 -7 -14c0 -14 50 -33 150 -82c95 -47 129 -76 129 -138c0 -75 -79 -147 -226 -156zM429 433l2 7l133 55l-39 -128zM224 600c0 50 39 82 89 82c49 0 89 -32 89 -82
s-40 -82 -89 -82c-50 0 -89 32 -89 82zM193 160l2 7c6 0 15 3 22 11c19 20 93 203 93 276c0 10 -3 18 -6 19l2 7c92 -4 144 -60 144 -126c0 -103 -89 -188 -257 -194z" />
    <glyph glyph-name="hbar" unicode="&#x127;" horiz-adv-x="595" 
d="M434 523h-108l-141 -466c-14 -34 -51 -65 -116 -65c-73 0 -98 22 -86 61l143 470h-59l11 37h59l11 35c4 14 7 28 7 33c0 8 -2 13 -7 19l-28 25l1 4l262 38l1 -1l-47 -153h109zM387 352c0 16 -8 27 -19 27c-16 0 -43 -19 -67 -49l-6 3c51 90 149 148 222 148
c49 0 84 -28 84 -96c0 -160 -126 -369 -326 -392l3 7c13 4 25 14 33 29c37 67 76 226 76 323zM208 54c0 26 20 48 47 48c26 0 48 -22 48 -48c0 -27 -22 -48 -48 -48c-27 0 -47 21 -47 48z" />
    <glyph glyph-name="hcircumflex" unicode="&#x125;" horiz-adv-x="595" 
d="M391 352c0 16 -8 27 -19 27c-16 0 -43 -19 -67 -49l-6 3c51 90 149 148 222 148c49 0 84 -28 84 -96c0 -160 -126 -369 -326 -392l3 7c12 5 25 14 32 29c37 68 77 225 77 323zM-12 53l153 505c8 27 18 58 18 69c0 8 -2 14 -7 20l-28 25l1 4l262 38l1 -1l-198 -656
c-15 -34 -52 -65 -117 -65c-73 0 -98 22 -85 61zM212 54c0 26 20 48 47 48c26 0 48 -22 48 -48c0 -27 -22 -48 -48 -48c-27 0 -47 21 -47 48zM285 729l-3 5l177 146h4l91 -146l-3 -4l-108 54h-2z" />
    <glyph glyph-name="ibreve" unicode="&#x12d;" horiz-adv-x="331" 
d="M274 246c-24 -54 -4 -12 -69 -140l3 -2c38 18 72 46 104 75l6 -4c-55 -86 -168 -183 -258 -183c-40 0 -65 26 -65 59c0 14 8 42 23 77l60 127c18 38 53 110 53 130c0 10 -5 15 -13 15c-10 0 -24 -13 -34 -25c-13 -13 -36 -50 -48 -76l-7 3c26 93 101 179 207 179
c57 0 88 -36 88 -80s-25 -97 -50 -155zM255 611c68 0 111 34 128 74h11c-12 -75 -47 -169 -147 -169c-68 0 -98 42 -98 93c0 26 8 51 20 76h11c-6 -51 28 -74 75 -74z" />
    <glyph glyph-name="imacron" unicode="&#x12b;" horiz-adv-x="331" 
d="M274 246c-24 -54 -4 -12 -69 -140l3 -2c38 18 72 46 104 75l6 -4c-55 -86 -168 -183 -258 -183c-40 0 -65 26 -65 59c0 14 8 42 23 77l60 127c18 38 53 110 53 130c0 10 -5 15 -13 15c-10 0 -24 -13 -34 -25c-13 -13 -36 -50 -48 -76l-7 3c26 93 101 179 207 179
c57 0 88 -36 88 -80s-25 -97 -50 -155zM391 555h-273l18 62h273z" />
    <glyph glyph-name="iogonek" unicode="&#x12f;" horiz-adv-x="331" 
d="M272 246c-23 -54 -4 -12 -69 -140l3 -2c38 18 72 46 104 75l6 -4c-55 -86 -168 -183 -258 -183c-39 0 -64 26 -64 59c0 13 5 36 18 64c17 39 44 99 65 140c18 38 52 110 52 130c0 10 -4 15 -13 15c-10 0 -23 -13 -34 -25c-12 -13 -35 -50 -48 -76l-7 3
c27 93 101 179 208 179c56 0 88 -36 88 -80s-26 -97 -51 -155zM214 607c0 51 42 92 93 92s92 -41 92 -92s-41 -93 -92 -93s-93 42 -93 93zM140 -132l6 -7c-13 -23 -59 -95 -146 -95c-37 0 -78 22 -78 71c0 63 101 127 157 143h12c-15 -14 -53 -45 -53 -88
c0 -27 15 -42 45 -42c27 0 46 9 57 18z" />
    <glyph glyph-name="itilde" unicode="&#x129;" horiz-adv-x="331" 
d="M274 246c-24 -54 -4 -12 -69 -140l3 -2c38 18 72 46 104 75l6 -4c-55 -86 -168 -183 -258 -183c-40 0 -65 26 -65 59c0 14 8 42 23 77l60 127c18 38 53 110 53 130c0 10 -5 15 -13 15c-10 0 -24 -13 -34 -25c-13 -13 -36 -50 -48 -76l-7 3c26 93 101 179 207 179
c57 0 88 -36 88 -80s-25 -97 -50 -155zM455 691l9 -3c-10 -26 -35 -76 -66 -109c-25 -27 -68 -40 -106 -40c-37 0 -97 6 -130 6c-25 0 -50 -8 -65 -34l-7 3c16 42 38 74 72 101c27 23 57 43 106 43c54 0 84 -5 118 -5c31 0 56 14 69 38z" />
    <glyph glyph-name="idotaccent" horiz-adv-x="331" 
d="M273 246c-23 -54 -4 -12 -69 -140l3 -2c38 18 72 46 104 75l6 -4c-55 -86 -168 -183 -258 -183c-39 0 -64 26 -64 59c0 13 5 36 18 64c17 39 44 99 65 140c18 38 52 110 52 130c0 10 -4 15 -13 15c-10 0 -23 -13 -34 -25c-12 -13 -35 -50 -48 -76l-7 3
c27 93 101 179 208 179c56 0 88 -36 88 -80s-26 -97 -51 -155zM215 607c0 51 42 92 93 92s92 -41 92 -92s-41 -93 -92 -93s-93 42 -93 93z" />
    <glyph glyph-name="jcircumflex" unicode="&#x135;" horiz-adv-x="328" 
d="M101 515l182 185h4l72 -185l-8 -4l-87 79h-4l-154 -79zM193 1c-57 -129 -166 -200 -324 -209l2 6c48 19 71 56 109 152c28 72 90 256 110 315c20 61 32 100 32 120c0 10 -4 15 -13 15s-23 -10 -33 -25c-11 -14 -30 -46 -43 -76l-7 3c20 93 96 179 188 179
c67 0 99 -42 99 -86c0 -45 -12 -90 -32 -149c-18 -54 -49 -153 -88 -245zM-249 -119c0 41 35 76 76 76s76 -35 76 -76s-35 -76 -76 -76s-76 35 -76 76z" />
    <glyph glyph-name="kcommaaccent" unicode="&#x137;" horiz-adv-x="562" 
d="M-12 53l154 505c8 27 18 58 18 69c0 8 -2 14 -7 20l-28 25l1 4l262 38l1 -1l-199 -656c-14 -34 -51 -65 -117 -65c-72 0 -97 22 -85 61zM284 277l-6 4c59 87 160 200 239 200c35 0 51 -28 51 -58c0 -65 -61 -124 -147 -165c15 -53 25 -101 42 -142c8 -19 17 -27 29 -27
c15 0 42 24 52 43l7 -4c-28 -65 -110 -136 -192 -136c-41 0 -75 16 -87 73c-9 37 -14 89 -16 118c57 27 82 38 109 57c37 26 58 56 58 96c0 17 -8 25 -24 25c-28 0 -83 -41 -115 -84zM137 -116c0 54 43 76 83 76c45 0 86 -28 86 -85c0 -78 -103 -125 -192 -137l-3 7
c45 13 104 35 123 78c-7 -4 -19 -6 -30 -6c-32 0 -67 22 -67 67z" />
    <glyph glyph-name="lacute" unicode="&#x13a;" horiz-adv-x="316" 
d="M420 767l-232 -50l-3 7l184 158zM-8 51c0 27 30 120 42 155l111 352c8 27 18 58 18 69c0 8 -1 14 -7 20l-27 25l1 4l261 38l1 -1l-190 -607l3 -2c40 18 73 42 104 70l6 -4c-55 -85 -168 -178 -259 -178c-39 0 -64 26 -64 59z" />
    <glyph glyph-name="lcaron" unicode="&#x13e;" horiz-adv-x="316" 
d="M540 691l-162 -194h-9l58 194h113zM-8 51c0 27 30 120 42 155l111 352c8 27 18 58 18 69c0 8 -1 14 -7 20l-27 25l1 4l261 38l1 -1l-190 -607l3 -2c40 18 73 42 104 70l6 -4c-55 -85 -168 -178 -259 -178c-39 0 -64 26 -64 59z" />
    <glyph glyph-name="lcommaaccent" unicode="&#x13c;" horiz-adv-x="316" 
d="M-8 51c0 27 30 120 42 155l111 352c8 27 18 58 18 69c0 8 -1 14 -7 20l-27 25l1 4l261 38l1 -1l-190 -607l3 -2c40 18 73 42 104 70l6 -4c-55 -85 -168 -178 -259 -178c-39 0 -64 26 -64 59zM-20 -116c0 54 43 76 83 76c45 0 86 -28 86 -85c0 -78 -103 -125 -192 -137
l-3 7c45 13 104 35 123 78c-7 -4 -19 -6 -30 -6c-32 0 -67 22 -67 67z" />
    <glyph glyph-name="ldot" unicode="&#x140;" horiz-adv-x="420" 
d="M-8 51c0 27 30 120 42 155l111 352c8 27 18 58 18 69c0 8 -1 14 -7 20l-27 25l1 4l261 38l1 -1l-190 -607l3 -2c40 18 73 42 104 70l6 -4c-55 -85 -168 -178 -259 -178c-39 0 -64 26 -64 59zM305 352c0 48 37 84 85 84c47 0 84 -36 84 -84s-37 -82 -84 -82
c-48 0 -85 34 -85 82z" />
    <glyph glyph-name="nacute" unicode="&#x144;" horiz-adv-x="625" 
d="M555 651l-178 -146l-8 5l84 212zM485 106l3 -2c38 19 74 46 106 75l6 -4c-55 -86 -181 -183 -271 -183c-39 0 -61 14 -61 51c0 13 5 37 18 66c18 39 52 105 71 140c33 63 52 95 52 104c0 5 -3 8 -9 8c-12 0 -40 -23 -66 -57l-6 5c64 107 154 172 232 172
c45 0 63 -25 63 -65c0 -13 -8 -48 -30 -94c-15 -35 -47 -96 -108 -216zM88 261c16 34 50 104 50 124c0 10 -4 15 -13 15c-10 0 -23 -11 -34 -23c-12 -13 -34 -49 -47 -78l-7 3c25 95 88 179 202 179c54 0 83 -34 83 -79c0 -56 -20 -100 -44 -156l-82 -189
c-14 -34 -52 -65 -117 -65c-73 0 -101 24 -85 61c13 30 82 183 94 208z" />
    <glyph glyph-name="napostrophe" unicode="&#x149;" horiz-adv-x="725" 
d="M26 550c0 52 46 88 98 88c60 0 96 -37 96 -102c0 -90 -114 -169 -239 -185l-3 8c65 16 151 59 157 109c1 2 1 3 1 5c-7 -4 -20 -7 -34 -7c-41 0 -76 34 -76 84zM584 106l3 -2c38 19 74 46 106 75l6 -4c-55 -86 -181 -183 -271 -183c-39 0 -61 14 -61 51c0 13 5 37 18 66
c18 39 52 105 71 140c33 63 52 95 52 104c0 5 -3 8 -9 8c-12 0 -40 -23 -66 -57l-6 5c64 107 154 172 232 172c45 0 63 -25 63 -65c0 -13 -8 -48 -30 -94c-15 -35 -47 -96 -108 -216zM187 261c16 34 50 104 50 124c0 10 -4 15 -13 15c-10 0 -23 -11 -34 -23
c-12 -13 -34 -49 -47 -78l-7 3c25 95 88 179 202 179c54 0 83 -34 83 -79c0 -56 -20 -100 -44 -156l-82 -189c-14 -34 -52 -65 -117 -65c-73 0 -101 24 -85 61c13 30 82 183 94 208z" />
    <glyph glyph-name="ncaron" unicode="&#x148;" horiz-adv-x="625" 
d="M584 695l-184 -185h-4l-75 185l8 4l90 -79h4l156 79zM485 106l3 -2c38 19 74 46 106 75l6 -4c-55 -86 -181 -183 -271 -183c-39 0 -61 14 -61 51c0 13 5 37 18 66c18 39 52 105 71 140c33 63 52 95 52 104c0 5 -3 8 -9 8c-12 0 -40 -23 -66 -57l-6 5
c64 107 154 172 232 172c45 0 63 -25 63 -65c0 -13 -8 -48 -30 -94c-15 -35 -47 -96 -108 -216zM88 261c16 34 50 104 50 124c0 10 -4 15 -13 15c-10 0 -23 -11 -34 -23c-12 -13 -34 -49 -47 -78l-7 3c25 95 88 179 202 179c54 0 83 -34 83 -79c0 -56 -20 -100 -44 -156
l-82 -189c-14 -34 -52 -65 -117 -65c-73 0 -101 24 -85 61c13 30 82 183 94 208z" />
    <glyph glyph-name="ncommaaccent" unicode="&#x146;" horiz-adv-x="625" 
d="M485 106l3 -2c38 19 74 46 106 75l6 -4c-55 -86 -181 -183 -271 -183c-39 0 -61 14 -61 51c0 13 5 37 18 66c18 39 52 105 71 140c33 63 52 95 52 104c0 5 -3 8 -9 8c-12 0 -40 -23 -66 -57l-6 5c64 107 154 172 232 172c45 0 63 -25 63 -65c0 -13 -8 -48 -30 -94
c-15 -35 -47 -96 -108 -216zM88 261c16 34 50 104 50 124c0 10 -4 15 -13 15c-10 0 -23 -11 -34 -23c-12 -13 -34 -49 -47 -78l-7 3c25 95 88 179 202 179c54 0 83 -34 83 -79c0 -56 -20 -100 -44 -156l-82 -189c-14 -34 -52 -65 -117 -65c-73 0 -101 24 -85 61
c13 30 82 183 94 208zM134 -116c0 54 43 76 83 76c45 0 86 -28 86 -85c0 -78 -103 -125 -192 -137l-3 7c45 13 104 35 123 78c-7 -4 -19 -6 -30 -6c-32 0 -67 22 -67 67z" />
    <glyph glyph-name="obreve" unicode="&#x14f;" horiz-adv-x="576" 
d="M355 481l-2 -7c-9 -1 -20 -8 -31 -21c-55 -70 -129 -296 -129 -412c0 -27 6 -38 12 -41l-2 -7c-147 7 -193 115 -193 180c0 169 137 294 345 308zM221 -8l2 7c7 1 23 7 34 22c55 68 125 293 125 412c0 26 -5 37 -11 40l2 7c146 -7 192 -114 192 -179
c0 -169 -128 -295 -344 -309zM379 611c68 0 111 34 128 74h11c-12 -75 -47 -169 -147 -169c-68 0 -98 42 -98 93c0 26 8 51 20 76h11c-6 -51 28 -74 75 -74z" />
    <glyph glyph-name="ohungarumlaut" unicode="&#x151;" horiz-adv-x="576" 
d="M431 653l-168 -147l-8 5l93 202zM567 653l-168 -147l-9 5l94 202zM355 481l-2 -7c-9 -1 -20 -8 -31 -21c-55 -70 -129 -296 -129 -412c0 -27 6 -38 12 -41l-2 -7c-147 7 -193 115 -193 180c0 169 137 294 345 308zM221 -8l2 7c7 1 23 7 34 22c55 68 125 293 125 412
c0 26 -5 37 -11 40l2 7c146 -7 192 -114 192 -179c0 -169 -128 -295 -344 -309z" />
    <glyph glyph-name="omacron" unicode="&#x14d;" horiz-adv-x="576" 
d="M508 555h-271l18 62h271zM355 481l-2 -7c-9 -1 -20 -8 -31 -21c-55 -70 -129 -296 -129 -412c0 -27 6 -38 12 -41l-2 -7c-147 7 -193 115 -193 180c0 169 137 294 345 308zM221 -8l2 7c7 1 23 7 34 22c55 68 125 293 125 412c0 26 -5 37 -11 40l2 7
c146 -7 192 -114 192 -179c0 -169 -128 -295 -344 -309z" />
    <glyph glyph-name="oslashacute" unicode="&#x1ff;" horiz-adv-x="576" 
d="M355 481l-2 -7c-9 -1 -20 -8 -31 -21c-41 -52 -93 -191 -116 -306l175 265c1 7 1 14 1 21c0 26 -5 37 -11 40l2 7c20 -1 37 -4 54 -8l46 66l27 -17l-42 -60c79 -35 107 -110 107 -160c0 -169 -128 -295 -344 -309l2 7c7 1 23 7 34 22c43 53 96 204 116 324l-179 -270
c-1 -12 -1 -24 -1 -34c0 -27 6 -38 12 -41l-2 -7c-24 1 -45 5 -63 10l-42 -60l-26 17l38 55c-74 36 -100 109 -100 158c0 169 137 294 345 308zM494 651l-178 -146l-8 5l84 212z" />
    <glyph glyph-name="racute" unicode="&#x155;" horiz-adv-x="503" 
d="M87 261c15 34 48 102 48 125c0 10 -5 14 -12 14c-10 0 -24 -11 -34 -23c-13 -14 -35 -50 -47 -78l-7 3c24 95 85 179 199 179c55 0 85 -34 85 -79c0 -56 -19 -100 -42 -156l-79 -189c-15 -34 -52 -65 -117 -65c-73 0 -101 24 -85 61c13 32 78 179 91 208zM377 257l-6 6
c12 20 29 73 29 94c0 7 -2 14 -11 14c-14 0 -43 -40 -64 -87l-7 2c27 101 91 195 170 195c29 0 53 -20 53 -61c0 -83 -83 -149 -164 -163zM514 651l-178 -146l-8 5l84 212z" />
    <glyph glyph-name="rcaron" unicode="&#x159;" horiz-adv-x="503" 
d="M87 261c15 34 48 102 48 125c0 10 -5 14 -12 14c-10 0 -24 -11 -34 -23c-13 -14 -35 -50 -47 -78l-7 3c24 95 85 179 199 179c55 0 85 -34 85 -79c0 -56 -19 -100 -42 -156l-79 -189c-15 -34 -52 -65 -117 -65c-73 0 -101 24 -85 61c13 32 78 179 91 208zM377 257l-6 6
c12 20 29 73 29 94c0 7 -2 14 -11 14c-14 0 -43 -40 -64 -87l-7 2c27 101 91 195 170 195c29 0 53 -20 53 -61c0 -83 -83 -149 -164 -163zM535 695l-184 -185h-4l-75 185l8 4l90 -79h4l156 79z" />
    <glyph glyph-name="rcommaaccent" unicode="&#x157;" horiz-adv-x="503" 
d="M87 261c15 34 48 102 48 125c0 10 -5 14 -12 14c-10 0 -24 -11 -34 -23c-13 -14 -35 -50 -47 -78l-7 3c24 95 85 179 199 179c55 0 85 -34 85 -79c0 -56 -19 -100 -42 -156l-79 -189c-15 -34 -52 -65 -117 -65c-73 0 -101 24 -85 61c13 32 78 179 91 208zM377 257l-6 6
c12 20 29 73 29 94c0 7 -2 14 -11 14c-14 0 -43 -40 -64 -87l-7 2c27 101 91 195 170 195c29 0 53 -20 53 -61c0 -83 -83 -149 -164 -163zM-45 -116c0 54 43 76 83 76c45 0 86 -28 86 -85c0 -78 -103 -125 -192 -137l-3 7c45 13 104 35 123 78c-7 -4 -19 -6 -30 -6
c-32 0 -67 22 -67 67z" />
    <glyph glyph-name="sacute" unicode="&#x15b;" horiz-adv-x="361" 
d="M455 651l-178 -146l-8 5l84 212zM292 481l-2 -7c-21 -3 -42 -21 -42 -51c0 -39 12 -69 34 -145c14 -46 30 -84 30 -116c0 -65 -64 -160 -232 -169l2 7c27 7 48 25 48 62c0 29 -20 76 -38 123c-18 46 -28 81 -28 122c0 74 75 166 228 174zM-51 76c0 39 31 71 70 71
s71 -32 71 -71s-32 -70 -71 -70s-70 31 -70 70zM284 411c0 35 27 64 63 64c35 0 63 -29 63 -64s-28 -63 -63 -63c-36 0 -63 28 -63 63z" />
    <glyph glyph-name="scedilla" unicode="&#x15f;" horiz-adv-x="361" 
d="M292 481l-2 -7c-21 -3 -42 -21 -42 -51c0 -39 12 -69 34 -145c14 -46 30 -84 30 -116c0 -65 -64 -160 -232 -169l2 7c27 7 48 25 48 62c0 29 -20 76 -38 123c-18 46 -28 81 -28 122c0 74 75 166 228 174zM-51 76c0 39 31 71 70 71s71 -32 71 -71s-32 -70 -71 -70
s-70 31 -70 70zM284 411c0 35 27 64 63 64c35 0 63 -29 63 -64s-28 -63 -63 -63c-36 0 -63 28 -63 63zM-41 -216l3 -7c-17 -6 -45 -14 -69 -14c-34 0 -46 16 -47 33c0 33 37 46 68 56c3 -39 24 -67 45 -68zM-24 -218l-3 7c7 4 10 17 10 26c0 14 -9 26 -18 39
c-8 13 -16 26 -16 41c0 45 76 76 114 90l3 -6c-7 -5 -14 -18 -14 -29c0 -13 9 -27 17 -42s17 -30 17 -44c0 -20 -18 -40 -37 -52s-45 -23 -73 -30z" />
    <glyph glyph-name="scircumflex" unicode="&#x15d;" horiz-adv-x="361" 
d="M159 515l182 185h4l72 -185l-8 -4l-87 79h-4l-154 -79zM292 481l-2 -7c-21 -3 -42 -21 -42 -51c0 -39 12 -69 34 -145c14 -46 30 -84 30 -116c0 -65 -64 -160 -232 -169l2 7c27 7 48 25 48 62c0 29 -20 76 -38 123c-18 46 -28 81 -28 122c0 74 75 166 228 174zM-51 76
c0 39 31 71 70 71s71 -32 71 -71s-32 -70 -71 -70s-70 31 -70 70zM284 411c0 35 27 64 63 64c35 0 63 -29 63 -64s-28 -63 -63 -63c-36 0 -63 28 -63 63z" />
    <glyph glyph-name="scommaaccent" unicode="&#x219;" horiz-adv-x="361" 
d="M292 481l-2 -7c-21 -3 -42 -21 -42 -51c0 -39 12 -69 34 -145c14 -46 30 -84 30 -116c0 -65 -64 -160 -232 -169l2 7c27 7 48 25 48 62c0 29 -20 76 -38 123c-18 46 -28 81 -28 122c0 74 75 166 228 174zM-51 76c0 39 31 71 70 71s71 -32 71 -71s-32 -70 -71 -70
s-70 31 -70 70zM284 411c0 35 27 64 63 64c35 0 63 -29 63 -64s-28 -63 -63 -63c-36 0 -63 28 -63 63zM-23 -116c0 54 43 76 83 76c45 0 86 -28 86 -85c0 -78 -103 -125 -192 -137l-3 7c45 13 104 35 123 78c-7 -4 -19 -6 -30 -6c-32 0 -67 22 -67 67z" />
    <glyph glyph-name="tbar" unicode="&#x167;" horiz-adv-x="366" 
d="M267 298l-66 -183l3 -2c49 15 98 45 127 71l6 -3c-19 -40 -61 -89 -112 -127c-50 -36 -107 -62 -162 -62c-48 0 -74 28 -74 62c0 15 7 43 22 80c17 39 43 105 65 164h-53l14 37h54c14 37 24 63 24 63h-65l9 21s79 50 110 73c0 0 98 80 102 85c16 13 38 22 61 21
s38 -12 29 -34c-5 -13 -34 -96 -34 -96h111l-26 -70h-109l-23 -63h116l-13 -37h-116z" />
    <glyph glyph-name="tcaron" unicode="&#x165;" horiz-adv-x="365" 
d="M563 714l-162 -194h-9l58 194h113zM10 134c32 78 104 264 104 264h-65l9 21s75 47 109 72c0 0 63 50 93 73c20 17 43 31 67 33c23 1 42 -10 32 -33c-5 -13 -33 -96 -33 -96h111l-26 -70h-109l-103 -283l3 -2c50 15 99 45 128 71l6 -3c-20 -40 -61 -89 -112 -127
c-51 -36 -108 -62 -163 -62c-47 0 -73 28 -74 62c0 15 7 43 23 80z" />
    <glyph glyph-name="tcommaaccent" unicode="&#x163;" horiz-adv-x="365" 
d="M10 134c32 78 104 264 104 264h-65l9 21s75 47 109 72c0 0 63 50 93 73c20 17 43 31 67 33c23 1 42 -10 32 -33c-5 -13 -33 -96 -33 -96h111l-26 -70h-109l-103 -283l3 -2c50 15 99 45 128 71l6 -3c-20 -40 -61 -89 -112 -127c-51 -36 -108 -62 -163 -62
c-47 0 -73 28 -74 62c0 15 7 43 23 80zM-53 -116c0 54 43 76 83 76c45 0 86 -28 86 -85c0 -78 -103 -125 -192 -137l-3 7c45 13 104 35 123 78c-7 -4 -19 -6 -30 -6c-32 0 -67 22 -67 67z" />
    <glyph glyph-name="ubreve" unicode="&#x16d;" horiz-adv-x="622" 
d="M269 237c-32 -65 -53 -102 -53 -114c0 -6 2 -8 8 -8c12 0 44 20 70 54l6 -5c-64 -106 -159 -172 -237 -172c-45 0 -63 25 -63 65c0 11 3 36 18 69c18 43 32 69 61 125c16 34 56 114 56 134c0 10 -6 15 -14 15c-10 0 -23 -11 -34 -23c-12 -13 -34 -49 -48 -78l-7 3
c26 95 98 179 212 179c54 0 82 -33 82 -79c0 -58 -28 -108 -57 -165zM490 100l3 -2c38 18 81 52 113 81l6 -4c-55 -86 -177 -183 -267 -183c-39 0 -63 14 -63 52s44 139 68 195c9 20 73 170 77 177c14 34 51 65 117 65c72 0 101 -23 84 -62l-71 -164zM407 611
c68 0 111 34 128 74h11c-12 -75 -47 -169 -147 -169c-68 0 -98 42 -98 93c0 26 8 51 20 76h11c-6 -51 28 -74 75 -74z" />
    <glyph glyph-name="uhungarumlaut" unicode="&#x171;" horiz-adv-x="622" 
d="M269 237c-32 -65 -53 -102 -53 -114c0 -6 2 -8 8 -8c12 0 44 20 70 54l6 -5c-64 -106 -159 -172 -237 -172c-45 0 -63 25 -63 65c0 11 3 36 18 69c18 43 32 69 61 125c16 34 56 114 56 134c0 10 -6 15 -14 15c-10 0 -23 -11 -34 -23c-12 -13 -34 -49 -48 -78l-7 3
c26 95 98 179 212 179c54 0 82 -33 82 -79c0 -58 -28 -108 -57 -165zM490 100l3 -2c38 18 81 52 113 81l6 -4c-55 -86 -177 -183 -267 -183c-39 0 -63 14 -63 52s44 139 68 195c9 20 73 170 77 177c14 34 51 65 117 65c72 0 101 -23 84 -62l-71 -164zM599 653l-168 -147
l-9 5l94 202zM463 653l-168 -147l-8 5l93 202z" />
    <glyph glyph-name="umacron" unicode="&#x16b;" horiz-adv-x="622" 
d="M269 237c-32 -65 -53 -102 -53 -114c0 -6 2 -8 8 -8c12 0 44 20 70 54l6 -5c-64 -106 -159 -172 -237 -172c-45 0 -63 25 -63 65c0 11 3 36 18 69c18 43 32 69 61 125c16 34 56 114 56 134c0 10 -6 15 -14 15c-10 0 -23 -11 -34 -23c-12 -13 -34 -49 -48 -78l-7 3
c26 95 98 179 212 179c54 0 82 -33 82 -79c0 -58 -28 -108 -57 -165zM490 100l3 -2c38 18 81 52 113 81l6 -4c-55 -86 -177 -183 -267 -183c-39 0 -63 14 -63 52s44 139 68 195c9 20 73 170 77 177c14 34 51 65 117 65c72 0 101 -23 84 -62l-71 -164zM548 555h-271l18 62
h271z" />
    <glyph glyph-name="uogonek" unicode="&#x173;" horiz-adv-x="622" 
d="M269 237c-32 -65 -53 -102 -53 -114c0 -6 2 -8 8 -8c12 0 44 20 70 54l6 -5c-64 -106 -159 -172 -237 -172c-45 0 -63 25 -63 65c0 11 3 36 18 69c18 43 32 69 61 125c16 34 56 114 56 134c0 10 -6 15 -14 15c-10 0 -23 -11 -34 -23c-12 -13 -34 -49 -48 -78l-7 3
c26 95 98 179 212 179c54 0 82 -33 82 -79c0 -58 -28 -108 -57 -165zM490 100l3 -2c38 18 81 52 113 81l6 -4c-55 -86 -177 -183 -267 -183c-39 0 -63 14 -63 52s44 139 68 195c9 20 73 170 77 177c14 34 51 65 117 65c72 0 101 -23 84 -62l-71 -164zM378 -132l6 -7
c-13 -23 -59 -95 -146 -95c-37 0 -78 22 -78 71c0 63 101 127 157 143h12c-15 -14 -53 -45 -53 -88c0 -27 15 -42 45 -42c27 0 46 9 57 18z" />
    <glyph glyph-name="uring" unicode="&#x16f;" horiz-adv-x="622" 
d="M269 237c-32 -65 -53 -102 -53 -114c0 -6 2 -8 8 -8c12 0 44 20 70 54l6 -5c-64 -106 -159 -172 -237 -172c-45 0 -63 25 -63 65c0 11 3 36 18 69c18 43 32 69 61 125c16 34 56 114 56 134c0 10 -6 15 -14 15c-10 0 -23 -11 -34 -23c-12 -13 -34 -49 -48 -78l-7 3
c26 95 98 179 212 179c54 0 82 -33 82 -79c0 -58 -28 -108 -57 -165zM490 100l3 -2c38 18 81 52 113 81l6 -4c-55 -86 -177 -183 -267 -183c-39 0 -63 14 -63 52s44 139 68 195c9 20 73 170 77 177c14 34 51 65 117 65c72 0 101 -23 84 -62l-71 -164zM498 596
c0 -47 -35 -82 -77 -85v22c27 2 52 21 52 63s-25 61 -52 63v22c42 -3 77 -35 77 -85zM322 596c0 48 35 82 77 85v-22c-28 -2 -52 -21 -52 -63s24 -61 52 -63v-22c-42 3 -77 36 -77 85z" />
    <glyph glyph-name="utilde" unicode="&#x169;" horiz-adv-x="622" 
d="M269 237c-32 -65 -53 -102 -53 -114c0 -6 2 -8 8 -8c12 0 44 20 70 54l6 -5c-64 -106 -159 -172 -237 -172c-45 0 -63 25 -63 65c0 11 3 36 18 69c18 43 32 69 61 125c16 34 56 114 56 134c0 10 -6 15 -14 15c-10 0 -23 -11 -34 -23c-12 -13 -34 -49 -48 -78l-7 3
c26 95 98 179 212 179c54 0 82 -33 82 -79c0 -58 -28 -108 -57 -165zM490 100l3 -2c38 18 81 52 113 81l6 -4c-55 -86 -177 -183 -267 -183c-39 0 -63 14 -63 52s44 139 68 195c9 20 73 170 77 177c14 34 51 65 117 65c72 0 101 -23 84 -62l-71 -164zM609 691l9 -3
c-10 -26 -35 -76 -66 -109c-25 -27 -68 -40 -106 -40c-37 0 -97 6 -130 6c-25 0 -50 -8 -65 -34l-7 3c16 42 38 74 72 101c27 23 57 43 106 43c54 0 84 -5 118 -5c31 0 56 14 69 38z" />
    <glyph glyph-name="wacute" unicode="&#x1e83;" horiz-adv-x="750" 
d="M635 651l-178 -146l-8 5l84 212zM218 481c47 0 68 -43 68 -90c0 -60 -22 -249 -30 -287l-117 -110l-98 43c34 104 51 241 51 317c0 26 -8 43 -28 43c-12 0 -30 -5 -44 -15l-3 6c42 45 137 93 201 93zM489 481c47 0 68 -43 68 -90c0 -62 -23 -249 -31 -287l-116 -110
l-99 43c33 112 51 245 51 324c0 29 -11 38 -27 38c-8 0 -15 -2 -31 -10l-3 6c41 39 123 86 188 86zM665 378c0 23 -10 30 -23 30c-8 0 -37 -8 -54 -19l-5 5c39 42 122 87 163 87c35 0 56 -20 56 -50c0 -57 -82 -162 -229 -285l-3 7c61 62 95 178 95 225z" />
    <glyph glyph-name="wcircumflex" unicode="&#x175;" horiz-adv-x="750" 
d="M343 515l182 185h4l72 -185l-8 -4l-87 79h-4l-154 -79zM218 481c47 0 68 -43 68 -90c0 -60 -22 -249 -30 -287l-117 -110l-98 43c34 104 51 241 51 317c0 26 -8 43 -28 43c-12 0 -30 -5 -44 -15l-3 6c42 45 137 93 201 93zM489 481c47 0 68 -43 68 -90
c0 -62 -23 -249 -31 -287l-116 -110l-99 43c33 112 51 245 51 324c0 29 -11 38 -27 38c-8 0 -15 -2 -31 -10l-3 6c41 39 123 86 188 86zM665 378c0 23 -10 30 -23 30c-8 0 -37 -8 -54 -19l-5 5c39 42 122 87 163 87c35 0 56 -20 56 -50c0 -57 -82 -162 -229 -285l-3 7
c61 62 95 178 95 225z" />
    <glyph glyph-name="wdieresis" unicode="&#x1e85;" horiz-adv-x="750" 
d="M375 664c42 0 75 -33 75 -74s-33 -75 -75 -75c-40 0 -73 34 -73 75s33 74 73 74zM577 664c42 0 74 -33 74 -74s-32 -75 -74 -75c-40 0 -73 34 -73 75s33 74 73 74zM218 481c47 0 68 -43 68 -90c0 -60 -22 -249 -30 -287l-117 -110l-98 43c34 104 51 241 51 317
c0 26 -8 43 -28 43c-12 0 -30 -5 -44 -15l-3 6c42 45 137 93 201 93zM489 481c47 0 68 -43 68 -90c0 -62 -23 -249 -31 -287l-116 -110l-99 43c33 112 51 245 51 324c0 29 -11 38 -27 38c-8 0 -15 -2 -31 -10l-3 6c41 39 123 86 188 86zM665 378c0 23 -10 30 -23 30
c-8 0 -37 -8 -54 -19l-5 5c39 42 122 87 163 87c35 0 56 -20 56 -50c0 -57 -82 -162 -229 -285l-3 7c61 62 95 178 95 225z" />
    <glyph glyph-name="wgrave" unicode="&#x1e81;" horiz-adv-x="750" 
d="M218 481c47 0 68 -43 68 -90c0 -60 -22 -249 -30 -287l-117 -110l-98 43c34 104 51 241 51 317c0 26 -8 43 -28 43c-12 0 -30 -5 -44 -15l-3 6c42 45 137 93 201 93zM489 481c47 0 68 -43 68 -90c0 -62 -23 -249 -31 -287l-116 -110l-99 43c33 112 51 245 51 324
c0 29 -11 38 -27 38c-8 0 -15 -2 -31 -10l-3 6c41 39 123 86 188 86zM665 378c0 23 -10 30 -23 30c-8 0 -37 -8 -54 -19l-5 5c39 42 122 87 163 87c35 0 56 -20 56 -50c0 -57 -82 -162 -229 -285l-3 7c61 62 95 178 95 225zM500 512l-8 -4l-127 158l122 48z" />
    <glyph glyph-name="ycircumflex" unicode="&#x177;" 
d="M294 415c10 -76 9 -236 2 -364c-38 -34 -127 -112 -198 -159c11 197 13 374 3 478c-1 10 -8 17 -18 17c-20 0 -43 -29 -61 -62l-7 3c27 91 135 153 213 153c38 0 61 -20 66 -66zM-81 -156c44 0 95 14 135 31l4 -5c-23 -26 -97 -77 -136 -97c-22 -11 -44 -15 -55 -15
c-27 0 -68 15 -68 66s56 92 86 98l4 -4c-6 -6 -11 -21 -11 -32c0 -30 17 -42 41 -42zM430 373c0 24 -9 29 -22 29c-14 0 -41 -9 -59 -32l-5 5c25 57 107 106 163 106c42 0 48 -32 48 -60c0 -57 -69 -198 -203 -301l-4 6c67 68 82 196 82 247zM197 515l182 185h4l72 -185
l-8 -4l-87 79h-4l-154 -79z" />
    <glyph glyph-name="ygrave" unicode="&#x1ef3;" 
d="M294 415c10 -76 9 -236 2 -364c-38 -34 -127 -112 -198 -159c11 197 13 374 3 478c-1 10 -8 17 -18 17c-20 0 -43 -29 -61 -62l-7 3c27 91 135 153 213 153c38 0 61 -20 66 -66zM-81 -156c44 0 95 14 135 31l4 -5c-23 -26 -97 -77 -136 -97c-22 -11 -44 -15 -55 -15
c-27 0 -68 15 -68 66s56 92 86 98l4 -4c-6 -6 -11 -21 -11 -32c0 -30 17 -42 41 -42zM430 373c0 24 -9 29 -22 29c-14 0 -41 -9 -59 -32l-5 5c25 57 107 106 163 106c42 0 48 -32 48 -60c0 -57 -69 -198 -203 -301l-4 6c67 68 82 196 82 247zM358 512l-8 -4l-127 158l122 48
z" />
    <glyph glyph-name="zacute" unicode="&#x17a;" horiz-adv-x="475" 
d="M464 651l-178 -146l-8 5l84 212zM102 169c36 0 80 -12 136 -26c56 -15 114 -29 135 -29c30 0 58 13 70 31l6 -3c-24 -86 -80 -163 -179 -163c-26 0 -88 12 -159 30c-40 11 -76 18 -103 18c-25 0 -53 -7 -73 -29l-6 3c11 81 98 168 173 168zM222 481c18 0 55 -4 96 -14
c63 -14 106 -19 120 -19c30 0 57 14 66 33l6 -3c-11 -67 -74 -152 -154 -159c-28 1 -78 11 -136 24s-85 21 -116 21c-20 0 -43 -15 -49 -39l-9 2c4 77 89 154 176 154zM347 196c0 28 24 52 52 52c29 0 53 -24 53 -52c0 -29 -24 -52 -53 -52c-28 0 -52 23 -52 52zM65 300
c0 25 20 46 45 46c26 0 46 -21 46 -46s-20 -46 -46 -46c-25 0 -45 20 -45 46z" />
    <glyph glyph-name="zdotaccent" unicode="&#x17c;" horiz-adv-x="475" 
d="M102 169c36 0 80 -12 136 -26c56 -15 114 -29 135 -29c30 0 58 13 70 31l6 -3c-24 -86 -80 -163 -179 -163c-26 0 -88 12 -159 30c-40 11 -76 18 -103 18c-25 0 -53 -7 -73 -29l-6 3c11 81 98 168 173 168zM222 481c18 0 55 -4 96 -14c63 -14 106 -19 120 -19
c30 0 57 14 66 33l6 -3c-11 -67 -74 -152 -154 -159c-28 1 -78 11 -136 24s-85 21 -116 21c-20 0 -43 -15 -49 -39l-9 2c4 77 89 154 176 154zM347 196c0 28 24 52 52 52c29 0 53 -24 53 -52c0 -29 -24 -52 -53 -52c-28 0 -52 23 -52 52zM65 300c0 25 20 46 45 46
c26 0 46 -21 46 -46s-20 -46 -46 -46c-25 0 -45 20 -45 46zM244 600c0 50 39 82 89 82c49 0 89 -32 89 -82s-40 -82 -89 -82c-50 0 -89 32 -89 82z" />
    <glyph glyph-name="c_t" horiz-adv-x="768" 
d="M736 468h111l-26 -70h-109l-102 -283l3 -2c49 15 98 45 127 71l6 -3c-19 -40 -61 -89 -112 -127c-50 -36 -107 -62 -162 -62c-48 0 -74 28 -74 62c0 15 7 43 22 80c7 18 104 264 104 264h-57l21 47l64 20s36 96 41 111c28 72 78 106 142 106c42 0 78 -22 78 -69
c0 -37 -18 -61 -53 -75c-10 -27 -24 -70 -24 -70zM319 469l-2 -7c-46 -23 -105 -155 -105 -281c0 -36 16 -60 49 -60c41 0 90 39 123 90l7 -3c-22 -80 -106 -216 -247 -216c-105 0 -138 88 -138 140c0 168 153 314 313 337zM313 399c0 33 20 60 50 67
c-65 21 -126 72 -126 130c0 61 46 100 103 100c82 0 138 -97 232 -121l-4 -8c-76 6 -152 30 -200 30c-36 0 -55 -21 -55 -55c0 -33 39 -62 77 -74c36 -4 62 -32 62 -69c0 -40 -30 -69 -70 -69s-69 29 -69 69z" />
    <glyph glyph-name="s_t" unicode="&#xfb06;" horiz-adv-x="728" 
d="M695 468h111l-26 -70h-109l-103 -283l3 -2c50 15 98 45 127 71l6 -3c-19 -40 -60 -89 -111 -127c-51 -36 -108 -62 -163 -62c-47 0 -73 28 -74 62c0 15 7 43 23 80c7 18 103 264 103 264h-56l21 47l63 20s37 96 42 111c27 72 77 106 142 106c42 0 77 -22 77 -69
c0 -37 -18 -61 -52 -75c-10 -27 -24 -70 -24 -70zM282 473l-2 -7c-13 -3 -31 -17 -31 -44c0 -40 12 -68 35 -144c14 -46 30 -84 30 -116c0 -65 -64 -160 -233 -169l2 7c27 7 48 25 48 62c0 29 -19 76 -38 123c-18 46 -27 81 -27 122c0 74 80 156 216 166zM285 411
c0 28 18 52 43 60c-67 18 -132 68 -132 125c0 61 46 100 104 100c82 0 138 -97 231 -121l-3 -8c-77 6 -152 30 -201 30c-32 0 -49 -18 -49 -52c0 -32 32 -62 74 -70c34 -3 60 -30 60 -64c0 -35 -28 -63 -64 -63c-35 0 -63 28 -63 63zM-50 76c0 39 31 71 70 71
c40 0 71 -32 71 -71s-31 -70 -71 -70c-39 0 -70 31 -70 70z" />
    <glyph glyph-name="g_j" horiz-adv-x="821" 
d="M175 -226l-3 -8c-125 2 -275 29 -275 96c0 41 98 68 166 75l2 -8c-24 -10 -51 -34 -51 -69c0 -70 96 -78 161 -86zM294 481l-2 -7c-5 -1 -15 -5 -23 -15c-17 -19 -91 -201 -91 -272c0 -10 4 -18 7 -19l-2 -7c-92 6 -142 61 -142 127c0 100 87 189 253 193zM195 -234l2 8
c39 5 67 18 67 40c0 27 -30 44 -102 79c-99 49 -155 79 -155 144c0 59 57 102 135 121l6 -3c-4 -4 -7 -9 -7 -13c0 -15 50 -33 150 -82c95 -47 129 -76 129 -138c0 -75 -78 -147 -225 -156zM428 433l2 7l128 55l-39 -128zM696 607c0 51 42 92 93 92c52 0 93 -41 93 -92
s-41 -93 -93 -93c-51 0 -93 42 -93 93zM698 1c-56 -129 -166 -200 -323 -209l2 6c47 19 70 56 108 152c29 72 91 256 110 315c21 61 33 100 33 120c0 10 -5 15 -13 15c-9 0 -23 -10 -34 -25c-10 -14 -29 -46 -42 -76l-7 3c19 93 95 179 187 179c68 0 99 -42 99 -86
c0 -45 -12 -90 -32 -149c-17 -54 -48 -153 -88 -245zM193 160l2 7c6 0 15 3 22 11c19 20 93 203 93 276c0 10 -4 18 -7 19l2 7c92 -4 145 -60 145 -126c0 -103 -89 -188 -257 -194z" />
    <glyph glyph-name="q_j" horiz-adv-x="920" 
d="M94 -8c-43 0 -91 32 -91 109c0 84 48 215 136 296c61 56 145 83 202 84l-2 -7c-21 -10 -40 -33 -60 -70c-41 -72 -76 -192 -76 -281c0 -15 5 -26 18 -26c18 0 38 22 48 35l6 -4c-31 -68 -106 -136 -181 -136zM567 360l-131 -474c-18 -65 2 -79 29 -83l-3 -8h-312l3 8
c46 5 66 30 77 68l135 485c16 58 10 111 -9 118l2 7c59 -5 104 -25 120 -69h4l122 82l6 -3c-9 -20 -31 -88 -43 -131zM789 607c0 51 42 92 93 92c52 0 92 -41 92 -92s-40 -93 -92 -93c-51 0 -93 42 -93 93zM792 4c-57 -132 -168 -199 -315 -209l3 7c37 19 62 54 99 151
c29 72 90 253 109 312c21 61 33 100 33 120c0 10 -5 15 -13 15c-9 0 -23 -10 -34 -25c-10 -14 -30 -46 -42 -76l-7 3c19 93 95 179 187 179c68 0 99 -42 99 -86c0 -45 -12 -90 -32 -149c-18 -54 -48 -153 -87 -242z" />
    <glyph glyph-name="i_j.dlig" horiz-adv-x="650" 
d="M339 233c-36 -70 -83 -133 -133 -175c-50 -43 -102 -66 -148 -66c-39 0 -64 26 -64 59c0 14 7 42 23 77c17 39 42 92 60 127c18 38 52 110 52 130c0 10 -4 15 -13 15c-10 0 -23 -13 -34 -25c-12 -13 -35 -50 -48 -76l-7 3c27 93 101 179 208 179c56 0 88 -36 88 -80
s-26 -97 -51 -155c-23 -54 -4 -12 -69 -140l3 -2c38 18 69 49 126 132zM214 607c0 51 42 92 93 92s92 -41 92 -92s-41 -93 -92 -93s-93 42 -93 93zM530 607c0 51 42 92 93 92c52 0 93 -41 93 -92s-41 -93 -93 -93c-51 0 -93 42 -93 93zM621 246c-21 -63 -52 -162 -93 -256
c-56 -128 -175 -204 -332 -213l2 6c47 19 80 58 118 155c29 74 93 263 113 322c20 61 35 102 35 122c0 9 -2 13 -9 13s-16 -5 -29 -20s-63 -89 -76 -119l-7 3c39 95 113 222 216 222c67 0 93 -42 93 -86c0 -45 -12 -90 -31 -149zM78 -133c0 41 34 76 76 76
c41 0 75 -35 75 -76s-34 -76 -75 -76c-42 0 -76 35 -76 76z" />
    <glyph glyph-name="i_s" horiz-adv-x="654" 
d="M272 246c-28 -59 -7 -20 -73 -148l3 -2c33 16 112 63 158 101l3 -9c-28 -28 -115 -106 -207 -163c-34 -22 -65 -33 -98 -33c-39 0 -64 26 -64 59c0 14 7 42 23 77c17 39 42 92 60 127c18 38 52 110 52 130c0 10 -4 15 -13 15c-10 0 -23 -13 -34 -25
c-12 -13 -35 -50 -48 -76l-7 3c27 93 101 179 208 179c56 0 89 -35 89 -79s-23 -99 -52 -156zM583 481l-2 -7c-19 -3 -39 -21 -39 -51c0 -39 11 -69 34 -145c14 -46 30 -84 30 -116c0 -65 -62 -159 -235 -169l2 7c28 7 50 25 50 62c0 29 -19 76 -38 123
c-18 46 -27 81 -27 122c0 74 75 166 225 174zM214 607c0 51 42 92 93 92s92 -41 92 -92s-41 -93 -92 -93s-93 42 -93 93zM266 61c0 35 27 63 61 63c35 0 62 -28 62 -63c0 -34 -27 -61 -62 -61c-34 0 -61 27 -61 61zM579 326l-3 8c32 21 50 42 50 95c0 21 -10 41 -29 45l2 7
c69 -2 104 -22 104 -50c0 -18 -7 -32 -32 -51c-27 -20 -57 -37 -92 -54z" />
    <glyph glyph-name="l_l" horiz-adv-x="630" 
d="M-8 51c0 27 30 120 42 155l111 352c8 27 18 58 18 69c0 8 -1 14 -7 20l-27 25l1 4l261 38l1 -1l-184 -591l3 -2c40 18 88 65 122 103l6 -4c-68 -118 -192 -227 -283 -227c-39 0 -64 26 -64 59zM306 51c0 27 30 120 41 155l112 352c8 27 18 58 18 69c0 8 -2 14 -7 20
l-28 25l1 4l262 38l1 -1l-190 -607l3 -2c40 18 72 42 104 70l6 -4c-55 -85 -169 -178 -259 -178c-39 0 -64 26 -64 59z" />
    <glyph glyph-name="s_p" horiz-adv-x="961" 
d="M767 612c0 -36 -16 -62 -47 -78l-136 -501c9 -15 27 -27 44 -30l-2 -8c-4 -2 -11 -3 -21 -3c-11 0 -22 1 -32 3l-33 -129c-17 -65 11 -88 48 -92l-3 -8h-326l3 8c39 5 57 23 67 61l148 535c-5 -1 -61 -10 -66 -12l1 6c18 10 49 27 74 38c5 21 37 135 40 149
c26 95 88 130 152 130c43 0 89 -22 89 -69zM709 415l6 23c36 20 116 43 146 43c75 0 103 -44 103 -110c0 -145 -109 -329 -313 -371l2 9c34 39 109 225 109 365c0 21 -8 32 -27 35c-7 4 -16 6 -26 6zM282 473l-2 -7c-13 -3 -31 -17 -31 -44c0 -40 12 -68 35 -144
c14 -46 30 -84 30 -116c0 -65 -64 -160 -233 -169l2 7c27 7 48 25 48 62c0 29 -19 76 -38 123c-18 46 -27 81 -27 122c0 74 80 156 216 166zM285 411c0 26 16 49 38 58c-68 16 -137 68 -137 127c0 61 38 100 95 100c82 0 135 -97 229 -121l-4 -8c-76 6 -137 30 -186 30
c-34 0 -53 -18 -53 -52c0 -32 33 -62 76 -70c3 -1 11 -2 12 -4c32 -1 56 -27 56 -60c0 -35 -27 -63 -63 -63c-35 0 -63 28 -63 63zM-50 76c0 39 31 71 70 71c40 0 71 -32 71 -71s-31 -70 -71 -70c-39 0 -70 31 -70 70z" />
    <glyph glyph-name="u_s" horiz-adv-x="942" 
d="M269 237c-32 -65 -53 -102 -53 -114c0 -6 2 -8 8 -8c12 0 44 20 70 54l6 -5c-64 -106 -159 -172 -237 -172c-45 0 -63 25 -63 65c0 12 4 39 20 74c18 42 31 66 59 120c16 34 56 114 56 134c0 10 -5 15 -14 15c-10 0 -23 -11 -34 -23c-12 -13 -34 -49 -48 -78l-7 3
c26 95 98 179 212 179c54 0 83 -33 83 -79c0 -58 -29 -108 -58 -165zM495 101c38 18 113 68 145 96l3 -9c-37 -38 -212 -196 -302 -196c-36 0 -59 14 -59 52s44 139 68 195c9 20 73 170 77 177c14 34 51 65 117 65c72 0 101 -23 84 -62c-21 -49 -51 -117 -70 -164
c-21 -47 -42 -95 -66 -152zM870 481l-2 -7c-19 -3 -39 -21 -39 -51c0 -39 11 -69 34 -145c14 -46 30 -84 30 -116c0 -65 -62 -159 -235 -169l2 7c28 7 50 25 50 62c0 29 -19 76 -38 123c-18 46 -27 81 -27 122c0 74 75 166 225 174zM553 59c0 35 27 62 61 62
c35 0 62 -27 62 -62c0 -34 -27 -61 -62 -61c-34 0 -61 27 -61 61zM864 334c32 21 50 42 50 95c0 21 -10 41 -29 45l2 7c69 -2 104 -22 104 -50c0 -18 -7 -32 -33 -51c-26 -20 -56 -37 -91 -54z" />
    <glyph glyph-name="oneeighth" unicode="&#x215b;" horiz-adv-x="558" 
d="M14 226h507l-9 -31h-506zM414 538l-50 -183c-15 -52 3 -67 32 -72l-2 -8h-232l2 8c38 5 57 26 71 72l54 194c6 23 9 42 4 51c-5 10 -24 15 -43 17l2 8c49 0 139 2 193 6c-7 -21 -18 -50 -31 -93zM299 32l-4 5c14 15 16 43 16 59c0 33 -12 50 -42 50
c-23 0 -43 -15 -43 -42c0 -28 17 -41 51 -69c46 -38 72 -70 72 -115c0 -74 -72 -128 -171 -128c-72 0 -114 36 -114 73c0 44 56 66 77 73l6 -6c-12 -10 -21 -32 -21 -63c0 -35 19 -67 56 -67c34 0 51 18 51 46c0 23 -7 40 -51 75c-39 30 -75 64 -75 117c0 67 67 116 163 116
c71 0 99 -30 99 -63c0 -28 -32 -48 -70 -61z" />
    <glyph glyph-name="onethird" unicode="&#x2153;" horiz-adv-x="558" 
d="M414 538l-50 -183c-15 -52 3 -67 32 -72l-2 -8h-232l2 8c38 5 57 26 71 72l54 194c6 23 9 42 4 51c-5 10 -24 15 -43 17l2 8c49 0 139 2 193 6c-7 -21 -18 -50 -31 -93zM14 226h507l-9 -31h-506zM125 -82l82 84c107 8 149 -29 149 -83c0 -70 -79 -124 -197 -127l2 8
c39 5 63 32 63 65c0 34 -26 50 -74 50c-7 0 -17 -1 -24 -3zM221 17l-1 4c9 10 16 19 16 34c0 20 -15 31 -40 31c-20 0 -36 -5 -52 -14l-5 6c17 39 65 78 131 78c65 0 98 -21 98 -64c0 -40 -57 -68 -147 -75zM77 -159c0 24 18 44 42 44s44 -20 44 -44c-1 -23 -19 -43 -43 -43
s-44 20 -43 43z" />
    <glyph glyph-name="threeeighths" unicode="&#x215c;" horiz-adv-x="558" 
d="M14 226h506l-8 -31h-506zM309 32l-5 5c14 15 16 43 16 59c0 33 -12 50 -42 50c-23 0 -43 -15 -43 -42c0 -28 17 -41 51 -69c46 -38 72 -70 72 -115c0 -74 -71 -128 -170 -128c-73 0 -115 36 -115 73c0 45 57 66 78 73l6 -5c-12 -10 -21 -33 -21 -64c0 -35 19 -67 55 -67
c34 0 52 18 52 46c0 23 -8 40 -51 75c-39 30 -75 64 -75 117c0 67 66 116 163 116c70 0 99 -30 99 -63c0 -28 -33 -48 -70 -61zM198 396l82 84c107 8 150 -29 150 -82c0 -70 -80 -124 -198 -127l2 8c40 5 63 31 63 64c0 35 -25 51 -74 51c-7 0 -16 -1 -24 -3zM294 496l-1 3
c9 10 17 20 17 35c0 20 -16 30 -40 30c-21 0 -37 -4 -53 -13l-5 5c18 39 66 78 131 78c66 0 98 -21 98 -64c0 -40 -56 -68 -147 -74zM150 320c0 23 19 44 42 44c24 0 45 -21 45 -44c-1 -24 -20 -44 -44 -44s-44 20 -43 44z" />
    <glyph glyph-name="fiveeighths" unicode="&#x215d;" horiz-adv-x="558" 
d="M14 226h506l-8 -31h-506zM483 657l-48 -124h-187l35 94h144c18 0 38 12 48 30h8zM245 280c47 7 66 27 66 70c0 31 -20 57 -75 57c-10 0 -20 0 -38 -3l40 92c15 3 43 7 61 7c99 0 132 -43 132 -92c0 -71 -58 -135 -188 -140zM208 369c25 0 45 -20 45 -45s-20 -45 -44 -45
c-25 0 -46 20 -46 45s21 45 45 45zM301 32l-5 5c14 15 17 43 17 59c0 33 -12 50 -42 50c-24 0 -44 -15 -44 -42c0 -28 17 -41 51 -69c46 -38 72 -70 72 -115c0 -74 -71 -128 -170 -128c-73 0 -114 36 -114 73c0 45 56 66 77 73l6 -5c-12 -10 -21 -33 -21 -64
c0 -35 19 -67 55 -67c34 0 52 18 52 46c0 23 -7 40 -51 75c-39 30 -75 64 -75 117c0 67 67 116 163 116c71 0 99 -30 99 -63c0 -28 -33 -48 -70 -61z" />
    <glyph glyph-name="twothirds" unicode="&#x2154;" horiz-adv-x="558" 
d="M14 226h507l-9 -31h-506zM121 275l99 98h140c46 0 73 26 90 52h8l-53 -150h-284zM243 389l-6 4c46 39 75 76 75 112c0 27 -19 45 -51 44c-32 0 -48 -8 -70 -23l-5 3c31 54 94 105 165 105c77 0 103 -44 103 -78c0 -69 -100 -140 -211 -167zM125 -82l83 84
c107 8 149 -29 149 -83c0 -70 -79 -124 -198 -127l2 8c40 5 63 32 63 65c0 34 -25 50 -73 50c-7 0 -17 -1 -25 -3zM222 17l-1 4c8 10 16 19 16 34c0 20 -15 31 -40 31c-20 0 -36 -5 -53 -14l-5 6c18 39 66 78 131 78c66 0 99 -21 99 -64c0 -40 -57 -68 -147 -75zM77 -159
c0 24 19 44 43 44s44 -20 44 -44c-1 -23 -19 -43 -44 -43c-23 0 -43 20 -43 43z" />
    <glyph glyph-name="seveneighths" unicode="&#x215e;" horiz-adv-x="558" 
d="M14 226h506l-8 -31h-506zM301 32l-5 5c14 15 17 43 17 59c0 33 -12 50 -42 50c-24 0 -44 -15 -44 -42c0 -28 17 -41 51 -69c46 -38 72 -70 72 -115c0 -74 -71 -128 -170 -128c-73 0 -114 36 -114 73c0 45 56 66 77 73l6 -5c-12 -10 -21 -33 -21 -64c0 -43 19 -67 55 -67
c34 0 52 18 52 46c0 23 -7 40 -51 75c-39 30 -75 64 -75 117c0 67 67 116 163 116c71 0 99 -30 99 -63c0 -28 -33 -48 -70 -61zM505 626l-54 -96h-171c-35 0 -53 -17 -68 -37h-11l55 133h249zM441 508l-126 -233h-103l218 233h11z" />
    <glyph glyph-name="uni24C5" unicode="&#x24c5;" horiz-adv-x="713" 
d="M349 -6c-172 13 -305 136 -305 321s133 308 305 321v-17c-169 -14 -284 -131 -284 -304s116 -290 284 -304v-17zM689 315c0 -185 -133 -308 -305 -321v17c168 14 284 131 284 304s-116 290 -284 304v17c172 -13 305 -136 305 -321zM587 400c0 -57 -55 -125 -191 -127v8
c6 1 12 4 17 9c18 14 28 43 28 108c0 58 -7 87 -30 105c-4 3 -9 5 -15 6v9c21 0 43 -1 61 -4c76 -10 130 -43 130 -114zM374 518v-330c0 -56 36 -66 65 -72v-9h-261v9c33 6 57 21 57 72v242c0 50 -24 74 -57 80v8h196z" />
    <glyph glyph-name="dollar.lin" horiz-adv-x="515" 
d="M459 216c0 -136 -116 -216 -284 -224l3 9c50 7 78 34 78 84c0 30 -12 56 -30 89l-88 -251h-28l99 280l-31 57c-40 74 -59 108 -59 172c0 139 129 204 259 206l-3 -9c-36 -4 -65 -30 -65 -67c0 -25 10 -49 27 -79l76 218h28l-86 -246l36 -60c36 -61 68 -107 68 -179z
M120 -8c-55 5 -130 20 -152 32l56 210h9c1 -84 35 -205 90 -233zM512 423h-9c-5 83 -24 183 -77 206l3 9c47 -4 106 -14 135 -26z" />
    <glyph glyph-name="Euro.lin" horiz-adv-x="644" 
d="M9 279h67c2 22 7 44 14 66h-65l8 27h66c59 149 218 265 389 267l-2 -9c-13 -3 -24 -9 -37 -17c-47 -29 -96 -121 -128 -241h129l-8 -27h-128c-6 -22 -10 -44 -14 -66h78l-8 -27h-74c-8 -48 -11 -100 -11 -152c0 -50 19 -92 53 -99l-2 -9c-125 6 -260 79 -262 246
c0 4 0 10 1 14h-73zM591 217h9l-60 -201c-48 -13 -114 -21 -180 -23l3 9c84 30 170 119 228 215zM630 420h-8c2 98 -60 198 -112 210l2 9c70 -4 144 -16 172 -28z" />
    <glyph glyph-name="sterling.lin" horiz-adv-x="602" 
d="M439 291l-8 -27h-118c-54 -48 -130 -71 -229 -85l-4 4c13 16 20 31 40 81h-75l9 27h76c4 9 12 32 17 46h-69l9 27h71c65 171 169 261 380 274v-6c-66 -15 -100 -134 -158 -268h92l-9 -27h-96c-9 -18 -19 -33 -29 -46h101zM-67 -9l-2 3c32 82 120 167 215 167
c54 0 108 -7 150 -11c70 -7 119 -13 162 -13c63 0 103 11 127 39l4 -1c-33 -119 -95 -205 -215 -205c-46 0 -161 17 -215 22c-77 8 -101 9 -147 9c-26 0 -57 -4 -79 -10zM573 618c38 0 69 -30 69 -69c0 -38 -31 -69 -69 -69c-39 0 -69 31 -69 69c0 39 30 69 69 69z" />
    <glyph glyph-name="yen.lin" horiz-adv-x="584" 
d="M78 343h102l-39 206c-9 41 -30 65 -70 73l2 8h355l-2 -8c-31 -1 -61 -15 -63 -46c-1 -16 5 -45 10 -64l37 -169h136l-7 -27h-125l-18 -64h126l-8 -26h-125l-30 -109c-6 -20 -9 -39 -9 -54c0 -36 31 -52 57 -55l-3 -8h-367l3 8c51 7 80 34 96 93l35 125h-126l7 26h126
l12 39l-5 25h-115zM740 622c-61 -9 -159 -80 -231 -164l-6 6c17 35 36 72 36 104c0 27 -11 51 -57 54l3 8h257z" />
    <glyph glyph-name="zero.lin" horiz-adv-x="660" 
d="M27 221c0 207 166 403 394 417l-2 -8c-11 -2 -21 -7 -29 -13c-37 -27 -60 -83 -118 -282c-44 -154 -62 -242 -62 -284c0 -24 6 -45 30 -51l-2 -8c-105 10 -211 86 -211 229zM657 408c0 -194 -165 -402 -394 -416l2 8c10 2 21 7 29 13c37 27 60 84 118 282
c45 154 62 240 62 281c-1 28 -7 48 -30 54l2 8c106 -10 211 -86 211 -230z" />
    <glyph glyph-name="one.lin" horiz-adv-x="405" 
d="M377 492l-104 -368c-25 -89 5 -108 55 -116l-2 -8h-385l2 8c58 10 89 34 113 116l102 362c12 41 18 76 10 93c-9 18 -38 30 -68 34l2 8c78 0 223 8 319 12c-13 -37 -25 -75 -44 -141z" />
    <glyph glyph-name="two.lin" horiz-adv-x="536" 
d="M-86 0l178 154h262c67 0 123 53 154 102h8l-88 -256h-514zM127 180l-3 5c93 74 167 141 167 234c0 52 -34 85 -100 85c-52 0 -85 -14 -120 -39l-6 4c53 84 147 170 276 170c141 0 187 -72 187 -151c0 -154 -218 -252 -401 -308z" />
    <glyph glyph-name="three.lin" horiz-adv-x="450" 
d="M223 391l-6 5c20 13 35 31 35 65c0 35 -28 54 -77 54c-41 0 -74 -10 -103 -28l-5 5c55 95 147 146 243 146c104 0 140 -52 140 -108c0 -59 -74 -127 -227 -139zM198 147c0 52 -21 98 -105 98c-8 0 -17 -2 -25 -3l-1 6l130 128c139 1 216 -62 216 -151
c0 -108 -82 -222 -328 -232l3 8c69 12 110 70 110 146zM24 137c39 0 72 -33 72 -72c-1 -39 -33 -71 -71 -71c-39 0 -72 32 -71 71c0 39 32 72 70 72z" />
    <glyph glyph-name="four.lin" horiz-adv-x="568" 
d="M527 639l-154 -515c-27 -89 4 -108 55 -116l-2 -8h-386l3 8c58 10 89 34 112 116l97 327l180 188h95zM412 160l41 135h120l-55 -135h-106zM175 295l-41 -135h-177l1 4l128 131h89z" />
    <glyph glyph-name="five.lin" horiz-adv-x="471" 
d="M539 683l-82 -207h-331l59 154h259c34 0 68 21 88 53h7zM90 -8l2 7c100 14 131 73 131 154c0 59 -36 107 -139 111c-11 0 -23 0 -48 -3l69 157c21 4 63 10 91 10c182 -6 237 -95 237 -187c0 -125 -90 -247 -343 -249zM40 155c41 0 77 -35 77 -78c-1 -42 -36 -77 -77 -77
c-42 0 -78 35 -77 77c0 43 35 78 77 78z" />
    <glyph glyph-name="six.lin" horiz-adv-x="601" 
d="M600 628c-134 -32 -248 -113 -330 -317c-47 -100 -71 -200 -71 -259c0 -24 11 -46 27 -50l-3 -10c-115 10 -209 87 -209 214c0 139 93 235 190 302c122 84 302 123 397 127zM307 367l1 4c24 27 86 46 128 46c102 0 148 -78 148 -153c0 -161 -131 -268 -341 -272l3 10
c7 1 15 4 22 10c51 41 109 248 109 309c0 29 -14 50 -46 50c-11 0 -17 -2 -24 -4z" />
    <glyph glyph-name="seven.lin" horiz-adv-x="459" 
d="M549 630l-94 -162h-284c-62 0 -94 -27 -122 -63h-9l96 225h413zM439 444l-237 -444h-185l412 444h10z" />
    <glyph glyph-name="eight.lin" horiz-adv-x="498" 
d="M401 410l-4 4c32 29 47 61 47 116c0 60 -29 97 -84 97c-56 0 -94 -29 -94 -80c0 -57 33 -81 91 -129c83 -68 114 -118 114 -195c0 -133 -110 -231 -289 -231c-131 0 -199 53 -199 131c0 83 110 122 148 137l3 -5c-29 -21 -53 -68 -53 -127c0 -56 20 -123 101 -123
c66 0 101 36 101 87c0 43 -14 81 -90 143c-68 54 -121 103 -121 195c0 120 130 208 286 208c134 0 176 -60 176 -110c0 -49 -54 -94 -133 -118z" />
    <glyph glyph-name="nine.lin" horiz-adv-x="602" 
d="M28 0c150 36 302 148 363 393c27 91 38 173 35 206c-3 15 -12 24 -23 27l3 10c112 -9 209 -82 210 -209c0 -159 -120 -275 -242 -341c-112 -70 -267 -92 -347 -93zM320 262l1 -4c-24 -26 -83 -47 -127 -47c-102 0 -147 79 -147 154c0 163 133 269 340 271l-3 -10
c-10 -1 -19 -5 -27 -11c-49 -42 -104 -249 -104 -309c0 -27 11 -48 44 -48c11 0 16 1 23 4z" />
    <glyph glyph-name="percent.lin" horiz-adv-x="731" 
d="M60 433c0 98 96 198 215 205l-3 -10c-6 -1 -14 -6 -20 -14c-17 -23 -33 -74 -48 -125c-18 -55 -33 -116 -33 -144c0 -16 3 -23 12 -26l-2 -10c-72 6 -121 60 -121 124zM410 513c0 -97 -96 -197 -215 -204l3 10c5 1 13 5 19 12c17 24 34 75 50 127c17 55 32 116 32 144
c0 15 -3 24 -12 26l2 10c72 -7 121 -60 121 -125zM692 197c0 -97 -96 -197 -214 -205l3 10c4 2 12 6 18 13c17 24 34 75 50 127c17 55 33 116 33 144c0 15 -4 24 -13 26l2 10c73 -7 121 -60 121 -125zM343 117c0 98 96 197 214 205l-3 -10c-6 -1 -14 -6 -20 -14
c-17 -23 -33 -74 -48 -125c-18 -55 -33 -116 -33 -145c0 -15 3 -23 12 -26l-2 -10c-72 7 -120 61 -120 125zM662 623l-556 -631l-18 15l556 633z" />
    <glyph glyph-name="perthousand.lin" horiz-adv-x="1108" 
d="M204 489c-18 -55 -33 -116 -33 -144c0 -16 3 -23 12 -26l-2 -10c-72 6 -121 60 -121 124c0 98 96 198 215 205l-3 -10c-6 -1 -14 -6 -20 -14c-17 -23 -33 -74 -48 -125zM267 458c17 55 32 116 32 144c0 15 -3 24 -12 26l2 10c72 -7 121 -60 121 -125
c0 -97 -96 -197 -215 -204l3 10c5 1 13 5 19 12c17 24 34 75 50 127zM106 -8l-18 15l556 633l18 -17zM486 173c-18 -55 -33 -116 -33 -145c0 -15 3 -23 12 -26l-2 -10c-72 7 -120 61 -120 125c0 98 96 197 214 205l-3 -10c-6 -1 -14 -6 -20 -14c-17 -23 -33 -74 -48 -125z
M549 142c17 55 33 116 33 144c0 15 -4 24 -13 26l2 10c73 -7 121 -60 121 -125c0 -97 -96 -197 -214 -205l3 10c4 2 12 6 18 13c17 24 34 75 50 127zM862 173c-17 -55 -33 -116 -33 -145c0 -15 4 -23 13 -26l-3 -10c-72 7 -120 61 -120 125c0 98 96 197 214 205l-3 -10
c-5 -1 -14 -6 -19 -14c-17 -23 -33 -74 -49 -125zM925 142c18 55 33 116 33 144c0 15 -3 24 -12 26l2 10c72 -7 120 -60 120 -125c0 -97 -96 -197 -214 -205l3 10c5 2 13 6 18 13c18 24 35 75 50 127z" />
    <glyph glyph-name="plus.lin" horiz-adv-x="398" 
d="M36 341h152v152h45v-152h153v-45h-153v-153h-45v153h-152v45z" />
    <glyph glyph-name="minus.lin" horiz-adv-x="420" 
d="M42 341h350v-45h-350v45z" />
    </font>
</defs>
</svg>
